M48
; DRILL file {KiCad (5.1.0)-1} date 4/18/2022 11:31:26 PM
; FORMAT={-:-/ absolute / metric / decimal}
; #@! TF.CreationDate,2022-04-18T23:31:26-07:00
; #@! TF.GenerationSoftware,Kicad,Pcbnew,(5.1.0)-1
; #@! TF.FileFunction,Plated,1,2,PTH
FMAT,2
METRIC
T1C0.400
T2C0.750
T3C0.800
T4C0.900
T5C1.000
T6C1.200
T7C1.520
T8C2.500
%
G90
G05
T1
X1.076Y30.048
X1.076Y24.048
X1.076Y18.048
X1.076Y6.048
X4.176Y26.822
X4.176Y21.132
X5.172Y1.066
X7.833Y15.849
X7.833Y10.007
X10.602Y18.16
X11.172Y1.066
X12.062Y6.645
X12.253Y28.1
X14.031Y24.434
X14.031Y19.862
X14.31Y18.16
X14.361Y30.657
X15.199Y18.16
X16.088Y18.16
X16.317Y28.092
X16.825Y25.196
X17.172Y1.066
X17.179Y7.5
X20.737Y28.092
X21.38Y15.6
X21.941Y12.44
X22.438Y20.776
X22.769Y26.212
X23.172Y1.066
X23.556Y22.021
X24.064Y5.079
X24.191Y29.743
X24.37Y11.581
X24.699Y20.776
X24.745Y23.672
X24.915Y22.377
X25.3Y17.389
X25.461Y29.031
X25.512Y2.996
X25.965Y23.583
X26.579Y12.242
X26.731Y29.743
X26.794Y7.035
X28.001Y29.031
X28.636Y11.734
X29.172Y1.066
X29.195Y6.527
X29.271Y29.743
X29.299Y25.931
X30.084Y7.289
X30.431Y24.8
X31.328Y13.69
X31.44Y28.65
X32.675Y21.78
X33.056Y15.417
X33.17Y12.991
X34.719Y14.541
X35.164Y21.78
X35.172Y1.066
X35.215Y27.38
X36.002Y28.981
X36.789Y25.933
X38.11Y22.351
X38.542Y28.981
X39.863Y26.695
X39.863Y24.053
X42.68Y16.392
X42.68Y14.286
X43.506Y16.392
X43.579Y26.327
X44.61Y14.286
X46.849Y26.327
X47.94Y20.12
X47.94Y17.35
X49.21Y20.12
X49.89Y1.066
X50.439Y32.41
X50.683Y34.848
X51.16Y10.0
X51.75Y27.178
X53.7Y10.0
X54.832Y34.848
X54.97Y1.066
X55.56Y17.35
X55.995Y31.673
X56.24Y10.0
X58.481Y24.688
X58.78Y10.0
X60.05Y1.066
X60.832Y34.848
X61.32Y10.0
X63.455Y14.899
X63.86Y10.0
X64.876Y24.688
X64.876Y18.402
X64.876Y14.064
X65.13Y1.066
X66.4Y10.0
X66.832Y34.848
X68.94Y10.0
X70.228Y7.733
X72.832Y34.848
X72.832Y1.066
X73.0Y26.402
X73.0Y12.402
X78.928Y30.048
X78.928Y24.048
X78.928Y18.048
X78.928Y12.048
X78.928Y6.048
T2
X70.276Y22.402
X70.276Y20.402
X70.276Y18.402
X70.276Y16.402
T3
X8.062Y27.482
X8.062Y22.402
X10.602Y24.942
T4
X60.894Y31.673
X60.894Y27.673
T5
X41.0Y5.03
X41.0Y2.49
X43.54Y5.03
X43.54Y2.49
X46.08Y5.03
X46.08Y2.49
X48.62Y5.03
X48.62Y2.49
X51.16Y5.03
X51.16Y2.49
X53.7Y5.03
X53.7Y2.49
X56.24Y5.03
X56.24Y2.49
X58.78Y5.03
X58.78Y2.49
X61.32Y5.03
X61.32Y2.49
X63.86Y5.03
X63.86Y2.49
X66.4Y5.03
X66.4Y2.49
X68.94Y5.03
X68.94Y2.49
T6
X8.019Y33.491
X10.559Y33.491
X13.099Y33.491
X15.639Y33.491
X18.179Y33.491
X20.719Y33.491
X23.259Y33.491
X25.799Y33.491
X28.339Y33.491
X30.879Y33.491
X33.419Y33.491
X35.959Y33.491
X38.499Y33.491
X41.039Y33.491
X43.579Y33.491
X46.119Y33.491
T7
X3.21Y14.83
X3.21Y9.75
T8
X2.52Y33.491
X2.52Y2.49
X77.519Y2.49
X77.519Y33.491
T0
M30
