G04 #@! TF.GenerationSoftware,KiCad,Pcbnew,(5.1.0)-1*
G04 #@! TF.CreationDate,2022-04-18T23:31:19-07:00*
G04 #@! TF.ProjectId,1602A_LCD Serial Backpack,31363032-415f-44c4-9344-205365726961,rev?*
G04 #@! TF.SameCoordinates,PX660b0c0PY66ff300*
G04 #@! TF.FileFunction,Soldermask,Bot*
G04 #@! TF.FilePolarity,Negative*
%FSLAX45Y45*%
G04 Gerber Fmt 4.5, Leading zero omitted, Abs format (unit mm)*
G04 Created by KiCad (PCBNEW (5.1.0)-1) date 2022-04-18 23:31:19*
%MOMM*%
%LPD*%
G04 APERTURE LIST*
%ADD10C,0.100000*%
G04 APERTURE END LIST*
D10*
G36*
X7782116Y401120D02*
G01*
X7797099Y398140D01*
X7825325Y386448D01*
X7850728Y369474D01*
X7872332Y347871D01*
X7889306Y322467D01*
X7900998Y294241D01*
X7903818Y280060D01*
X7905001Y274115D01*
X7906958Y264276D01*
X7906958Y233724D01*
X7900998Y203759D01*
X7889306Y175533D01*
X7872332Y150130D01*
X7850728Y128526D01*
X7825325Y111552D01*
X7797099Y99860D01*
X7782116Y96880D01*
X7767134Y93900D01*
X7736582Y93900D01*
X7721599Y96880D01*
X7706617Y99860D01*
X7678391Y111552D01*
X7652987Y128526D01*
X7631384Y150130D01*
X7614410Y175533D01*
X7602718Y203759D01*
X7596758Y233724D01*
X7596758Y264276D01*
X7598715Y274115D01*
X7599898Y280060D01*
X7602718Y294241D01*
X7614410Y322467D01*
X7631384Y347871D01*
X7652987Y369474D01*
X7678391Y386448D01*
X7706617Y398140D01*
X7721599Y401120D01*
X7736582Y404100D01*
X7767134Y404100D01*
X7782116Y401120D01*
X7782116Y401120D01*
G37*
G36*
X282259Y401120D02*
G01*
X297241Y398140D01*
X325467Y386448D01*
X350870Y369474D01*
X372474Y347871D01*
X389448Y322467D01*
X401140Y294241D01*
X403960Y280060D01*
X405143Y274115D01*
X407100Y264276D01*
X407100Y233724D01*
X401140Y203759D01*
X389448Y175533D01*
X372474Y150130D01*
X350870Y128526D01*
X325467Y111552D01*
X297241Y99860D01*
X282259Y96880D01*
X267276Y93900D01*
X236724Y93900D01*
X221741Y96880D01*
X206759Y99860D01*
X178533Y111552D01*
X153130Y128526D01*
X131526Y150130D01*
X114552Y175533D01*
X102860Y203759D01*
X96900Y233724D01*
X96900Y264276D01*
X98857Y274115D01*
X100040Y280060D01*
X102860Y294241D01*
X114552Y322467D01*
X131526Y347871D01*
X153130Y369474D01*
X178533Y386448D01*
X206759Y398140D01*
X221741Y401120D01*
X236724Y404100D01*
X267276Y404100D01*
X282259Y401120D01*
X282259Y401120D01*
G37*
G36*
X1493117Y279614D02*
G01*
X1496887Y278470D01*
X1500360Y276613D01*
X1503405Y274115D01*
X1505903Y271070D01*
X1507760Y267597D01*
X1508903Y263827D01*
X1509350Y259294D01*
X1509350Y175626D01*
X1508903Y171093D01*
X1507760Y167323D01*
X1505903Y163850D01*
X1503405Y160805D01*
X1500360Y158307D01*
X1496887Y156450D01*
X1493117Y155307D01*
X1488584Y154860D01*
X1379916Y154860D01*
X1375383Y155307D01*
X1371613Y156450D01*
X1368140Y158307D01*
X1365095Y160805D01*
X1362597Y163850D01*
X1360740Y167323D01*
X1359597Y171093D01*
X1359150Y175626D01*
X1359150Y259294D01*
X1359597Y263827D01*
X1360740Y267597D01*
X1362597Y271070D01*
X1365095Y274115D01*
X1368140Y276613D01*
X1371613Y278470D01*
X1375383Y279614D01*
X1379916Y280060D01*
X1488584Y280060D01*
X1493117Y279614D01*
X1493117Y279614D01*
G37*
G36*
X4619044Y338448D02*
G01*
X4625663Y337796D01*
X4642647Y332644D01*
X4658299Y324278D01*
X4660505Y322467D01*
X4672019Y313019D01*
X4679549Y303843D01*
X4683278Y299299D01*
X4691644Y283647D01*
X4696796Y266663D01*
X4698536Y249000D01*
X4696796Y231337D01*
X4691644Y214353D01*
X4683278Y198701D01*
X4683216Y198626D01*
X4672019Y184981D01*
X4662010Y176767D01*
X4658299Y173722D01*
X4642647Y165356D01*
X4625663Y160204D01*
X4619044Y159552D01*
X4612426Y158900D01*
X4603574Y158900D01*
X4596956Y159552D01*
X4590337Y160204D01*
X4573353Y165356D01*
X4557701Y173722D01*
X4553990Y176767D01*
X4543981Y184981D01*
X4532784Y198626D01*
X4532722Y198701D01*
X4524356Y214353D01*
X4519204Y231337D01*
X4517464Y249000D01*
X4519204Y266663D01*
X4524356Y283647D01*
X4532722Y299299D01*
X4536451Y303843D01*
X4543981Y313019D01*
X4555495Y322467D01*
X4557701Y324278D01*
X4573353Y332644D01*
X4590337Y337796D01*
X4596956Y338448D01*
X4603574Y339100D01*
X4612426Y339100D01*
X4619044Y338448D01*
X4619044Y338448D01*
G37*
G36*
X4190100Y158900D02*
G01*
X4009900Y158900D01*
X4009900Y339100D01*
X4190100Y339100D01*
X4190100Y158900D01*
X4190100Y158900D01*
G37*
G36*
X4365044Y338448D02*
G01*
X4371663Y337796D01*
X4388647Y332644D01*
X4404299Y324278D01*
X4406505Y322467D01*
X4418019Y313019D01*
X4425549Y303843D01*
X4429278Y299299D01*
X4437644Y283647D01*
X4442796Y266663D01*
X4444536Y249000D01*
X4442796Y231337D01*
X4437644Y214353D01*
X4429278Y198701D01*
X4429216Y198626D01*
X4418019Y184981D01*
X4408010Y176767D01*
X4404299Y173722D01*
X4388647Y165356D01*
X4371663Y160204D01*
X4365044Y159552D01*
X4358426Y158900D01*
X4349574Y158900D01*
X4342956Y159552D01*
X4336337Y160204D01*
X4319353Y165356D01*
X4303701Y173722D01*
X4299990Y176767D01*
X4289981Y184981D01*
X4278784Y198626D01*
X4278722Y198701D01*
X4270356Y214353D01*
X4265204Y231337D01*
X4263464Y249000D01*
X4265204Y266663D01*
X4270356Y283647D01*
X4278722Y299299D01*
X4282451Y303843D01*
X4289981Y313019D01*
X4301495Y322467D01*
X4303701Y324278D01*
X4319353Y332644D01*
X4336337Y337796D01*
X4342956Y338448D01*
X4349574Y339100D01*
X4358426Y339100D01*
X4365044Y338448D01*
X4365044Y338448D01*
G37*
G36*
X6905044Y338448D02*
G01*
X6911663Y337796D01*
X6928647Y332644D01*
X6944299Y324278D01*
X6946505Y322467D01*
X6958019Y313019D01*
X6965549Y303843D01*
X6969278Y299299D01*
X6977644Y283647D01*
X6982796Y266663D01*
X6984536Y249000D01*
X6982796Y231337D01*
X6977644Y214353D01*
X6969278Y198701D01*
X6969216Y198626D01*
X6958019Y184981D01*
X6948010Y176767D01*
X6944299Y173722D01*
X6928647Y165356D01*
X6911663Y160204D01*
X6905044Y159552D01*
X6898426Y158900D01*
X6889574Y158900D01*
X6882956Y159552D01*
X6876337Y160204D01*
X6859353Y165356D01*
X6843701Y173722D01*
X6839990Y176767D01*
X6829981Y184981D01*
X6818784Y198626D01*
X6818722Y198701D01*
X6810356Y214353D01*
X6805204Y231337D01*
X6803464Y249000D01*
X6805204Y266663D01*
X6810356Y283647D01*
X6818722Y299299D01*
X6822451Y303843D01*
X6829981Y313019D01*
X6841495Y322467D01*
X6843701Y324278D01*
X6859353Y332644D01*
X6876337Y337796D01*
X6882956Y338448D01*
X6889574Y339100D01*
X6898426Y339100D01*
X6905044Y338448D01*
X6905044Y338448D01*
G37*
G36*
X6651044Y338448D02*
G01*
X6657663Y337796D01*
X6674647Y332644D01*
X6690299Y324278D01*
X6692505Y322467D01*
X6704019Y313019D01*
X6711549Y303843D01*
X6715278Y299299D01*
X6723644Y283647D01*
X6728796Y266663D01*
X6730536Y249000D01*
X6728796Y231337D01*
X6723644Y214353D01*
X6715278Y198701D01*
X6715216Y198626D01*
X6704019Y184981D01*
X6694010Y176767D01*
X6690299Y173722D01*
X6674647Y165356D01*
X6657663Y160204D01*
X6651044Y159552D01*
X6644426Y158900D01*
X6635574Y158900D01*
X6628956Y159552D01*
X6622337Y160204D01*
X6605353Y165356D01*
X6589701Y173722D01*
X6585990Y176767D01*
X6575981Y184981D01*
X6564784Y198626D01*
X6564722Y198701D01*
X6556356Y214353D01*
X6551204Y231337D01*
X6549464Y249000D01*
X6551204Y266663D01*
X6556356Y283647D01*
X6564722Y299299D01*
X6568451Y303843D01*
X6575981Y313019D01*
X6587495Y322467D01*
X6589701Y324278D01*
X6605353Y332644D01*
X6622337Y337796D01*
X6628956Y338448D01*
X6635574Y339100D01*
X6644426Y339100D01*
X6651044Y338448D01*
X6651044Y338448D01*
G37*
G36*
X6397044Y338448D02*
G01*
X6403663Y337796D01*
X6420647Y332644D01*
X6436299Y324278D01*
X6438505Y322467D01*
X6450019Y313019D01*
X6457549Y303843D01*
X6461278Y299299D01*
X6469644Y283647D01*
X6474796Y266663D01*
X6476536Y249000D01*
X6474796Y231337D01*
X6469644Y214353D01*
X6461278Y198701D01*
X6461216Y198626D01*
X6450019Y184981D01*
X6440010Y176767D01*
X6436299Y173722D01*
X6420647Y165356D01*
X6403663Y160204D01*
X6397044Y159552D01*
X6390426Y158900D01*
X6381574Y158900D01*
X6374956Y159552D01*
X6368337Y160204D01*
X6351353Y165356D01*
X6335701Y173722D01*
X6331990Y176767D01*
X6321981Y184981D01*
X6310784Y198626D01*
X6310722Y198701D01*
X6302356Y214353D01*
X6297204Y231337D01*
X6295464Y249000D01*
X6297204Y266663D01*
X6302356Y283647D01*
X6310722Y299299D01*
X6314451Y303843D01*
X6321981Y313019D01*
X6333495Y322467D01*
X6335701Y324278D01*
X6351353Y332644D01*
X6368337Y337796D01*
X6374956Y338448D01*
X6381574Y339100D01*
X6390426Y339100D01*
X6397044Y338448D01*
X6397044Y338448D01*
G37*
G36*
X5889044Y338448D02*
G01*
X5895663Y337796D01*
X5912647Y332644D01*
X5928299Y324278D01*
X5930505Y322467D01*
X5942019Y313019D01*
X5949549Y303843D01*
X5953278Y299299D01*
X5961644Y283647D01*
X5966796Y266663D01*
X5968536Y249000D01*
X5966796Y231337D01*
X5961644Y214353D01*
X5953278Y198701D01*
X5953216Y198626D01*
X5942019Y184981D01*
X5932010Y176767D01*
X5928299Y173722D01*
X5912647Y165356D01*
X5895663Y160204D01*
X5889044Y159552D01*
X5882426Y158900D01*
X5873574Y158900D01*
X5866956Y159552D01*
X5860337Y160204D01*
X5843353Y165356D01*
X5827701Y173722D01*
X5823990Y176767D01*
X5813981Y184981D01*
X5802784Y198626D01*
X5802722Y198701D01*
X5794356Y214353D01*
X5789204Y231337D01*
X5787464Y249000D01*
X5789204Y266663D01*
X5794356Y283647D01*
X5802722Y299299D01*
X5806451Y303843D01*
X5813981Y313019D01*
X5825495Y322467D01*
X5827701Y324278D01*
X5843353Y332644D01*
X5860337Y337796D01*
X5866956Y338448D01*
X5873574Y339100D01*
X5882426Y339100D01*
X5889044Y338448D01*
X5889044Y338448D01*
G37*
G36*
X6143044Y338448D02*
G01*
X6149663Y337796D01*
X6166647Y332644D01*
X6182299Y324278D01*
X6184505Y322467D01*
X6196019Y313019D01*
X6203549Y303843D01*
X6207278Y299299D01*
X6215644Y283647D01*
X6220796Y266663D01*
X6222536Y249000D01*
X6220796Y231337D01*
X6215644Y214353D01*
X6207278Y198701D01*
X6207216Y198626D01*
X6196019Y184981D01*
X6186010Y176767D01*
X6182299Y173722D01*
X6166647Y165356D01*
X6149663Y160204D01*
X6143044Y159552D01*
X6136426Y158900D01*
X6127574Y158900D01*
X6120956Y159552D01*
X6114337Y160204D01*
X6097353Y165356D01*
X6081701Y173722D01*
X6077990Y176767D01*
X6067981Y184981D01*
X6056784Y198626D01*
X6056722Y198701D01*
X6048356Y214353D01*
X6043204Y231337D01*
X6041464Y249000D01*
X6043204Y266663D01*
X6048356Y283647D01*
X6056722Y299299D01*
X6060451Y303843D01*
X6067981Y313019D01*
X6079495Y322467D01*
X6081701Y324278D01*
X6097353Y332644D01*
X6114337Y337796D01*
X6120956Y338448D01*
X6127574Y339100D01*
X6136426Y339100D01*
X6143044Y338448D01*
X6143044Y338448D01*
G37*
G36*
X4873044Y338448D02*
G01*
X4879663Y337796D01*
X4896647Y332644D01*
X4912299Y324278D01*
X4914505Y322467D01*
X4926019Y313019D01*
X4933549Y303843D01*
X4937278Y299299D01*
X4945644Y283647D01*
X4950796Y266663D01*
X4952536Y249000D01*
X4950796Y231337D01*
X4945644Y214353D01*
X4937278Y198701D01*
X4937216Y198626D01*
X4926019Y184981D01*
X4916010Y176767D01*
X4912299Y173722D01*
X4896647Y165356D01*
X4879663Y160204D01*
X4873044Y159552D01*
X4866426Y158900D01*
X4857574Y158900D01*
X4850956Y159552D01*
X4844337Y160204D01*
X4827353Y165356D01*
X4811701Y173722D01*
X4807990Y176767D01*
X4797981Y184981D01*
X4786784Y198626D01*
X4786722Y198701D01*
X4778356Y214353D01*
X4773204Y231337D01*
X4771464Y249000D01*
X4773204Y266663D01*
X4778356Y283647D01*
X4786722Y299299D01*
X4790451Y303843D01*
X4797981Y313019D01*
X4809495Y322467D01*
X4811701Y324278D01*
X4827353Y332644D01*
X4844337Y337796D01*
X4850956Y338448D01*
X4857574Y339100D01*
X4866426Y339100D01*
X4873044Y338448D01*
X4873044Y338448D01*
G37*
G36*
X5127044Y338448D02*
G01*
X5133663Y337796D01*
X5150647Y332644D01*
X5166299Y324278D01*
X5168505Y322467D01*
X5180019Y313019D01*
X5187549Y303843D01*
X5191278Y299299D01*
X5199644Y283647D01*
X5204796Y266663D01*
X5206536Y249000D01*
X5204796Y231337D01*
X5199644Y214353D01*
X5191278Y198701D01*
X5191216Y198626D01*
X5180019Y184981D01*
X5170010Y176767D01*
X5166299Y173722D01*
X5150647Y165356D01*
X5133663Y160204D01*
X5127044Y159552D01*
X5120426Y158900D01*
X5111574Y158900D01*
X5104956Y159552D01*
X5098337Y160204D01*
X5081353Y165356D01*
X5065701Y173722D01*
X5061990Y176767D01*
X5051981Y184981D01*
X5040784Y198626D01*
X5040722Y198701D01*
X5032356Y214353D01*
X5027204Y231337D01*
X5025464Y249000D01*
X5027204Y266663D01*
X5032356Y283647D01*
X5040722Y299299D01*
X5044451Y303843D01*
X5051981Y313019D01*
X5063495Y322467D01*
X5065701Y324278D01*
X5081353Y332644D01*
X5098337Y337796D01*
X5104956Y338448D01*
X5111574Y339100D01*
X5120426Y339100D01*
X5127044Y338448D01*
X5127044Y338448D01*
G37*
G36*
X5381044Y338448D02*
G01*
X5387663Y337796D01*
X5404647Y332644D01*
X5420299Y324278D01*
X5422505Y322467D01*
X5434019Y313019D01*
X5441549Y303843D01*
X5445278Y299299D01*
X5453644Y283647D01*
X5458796Y266663D01*
X5460536Y249000D01*
X5458796Y231337D01*
X5453644Y214353D01*
X5445278Y198701D01*
X5445216Y198626D01*
X5434019Y184981D01*
X5424010Y176767D01*
X5420299Y173722D01*
X5404647Y165356D01*
X5387663Y160204D01*
X5381044Y159552D01*
X5374426Y158900D01*
X5365574Y158900D01*
X5358956Y159552D01*
X5352337Y160204D01*
X5335353Y165356D01*
X5319701Y173722D01*
X5315990Y176767D01*
X5305981Y184981D01*
X5294784Y198626D01*
X5294722Y198701D01*
X5286356Y214353D01*
X5281204Y231337D01*
X5279464Y249000D01*
X5281204Y266663D01*
X5286356Y283647D01*
X5294722Y299299D01*
X5298451Y303843D01*
X5305981Y313019D01*
X5317495Y322467D01*
X5319701Y324278D01*
X5335353Y332644D01*
X5352337Y337796D01*
X5358956Y338448D01*
X5365574Y339100D01*
X5374426Y339100D01*
X5381044Y338448D01*
X5381044Y338448D01*
G37*
G36*
X5635044Y338448D02*
G01*
X5641663Y337796D01*
X5658647Y332644D01*
X5674299Y324278D01*
X5676505Y322467D01*
X5688019Y313019D01*
X5695549Y303843D01*
X5699278Y299299D01*
X5707644Y283647D01*
X5712796Y266663D01*
X5714536Y249000D01*
X5712796Y231337D01*
X5707644Y214353D01*
X5699278Y198701D01*
X5699216Y198626D01*
X5688019Y184981D01*
X5678010Y176767D01*
X5674299Y173722D01*
X5658647Y165356D01*
X5641663Y160204D01*
X5635044Y159552D01*
X5628426Y158900D01*
X5619574Y158900D01*
X5612956Y159552D01*
X5606337Y160204D01*
X5589353Y165356D01*
X5573701Y173722D01*
X5569990Y176767D01*
X5559981Y184981D01*
X5548784Y198626D01*
X5548722Y198701D01*
X5540356Y214353D01*
X5535204Y231337D01*
X5533464Y249000D01*
X5535204Y266663D01*
X5540356Y283647D01*
X5548722Y299299D01*
X5552451Y303843D01*
X5559981Y313019D01*
X5571495Y322467D01*
X5573701Y324278D01*
X5589353Y332644D01*
X5606337Y337796D01*
X5612956Y338448D01*
X5619574Y339100D01*
X5628426Y339100D01*
X5635044Y338448D01*
X5635044Y338448D01*
G37*
G36*
X1314100Y183712D02*
G01*
X1053900Y183712D01*
X1053900Y373912D01*
X1314100Y373912D01*
X1314100Y183712D01*
X1314100Y183712D01*
G37*
G36*
X914100Y183712D02*
G01*
X653900Y183712D01*
X653900Y373912D01*
X914100Y373912D01*
X914100Y183712D01*
X914100Y183712D01*
G37*
G36*
X1779206Y371502D02*
G01*
X1782698Y370443D01*
X1785916Y368722D01*
X1788737Y366407D01*
X1791052Y363586D01*
X1792773Y360368D01*
X1793832Y356876D01*
X1794250Y352630D01*
X1794250Y206009D01*
X1793832Y201764D01*
X1792773Y198272D01*
X1791052Y195054D01*
X1788737Y192233D01*
X1785916Y189918D01*
X1782698Y188197D01*
X1779206Y187138D01*
X1774960Y186720D01*
X1660839Y186720D01*
X1656594Y187138D01*
X1653102Y188197D01*
X1649884Y189918D01*
X1647063Y192233D01*
X1644748Y195054D01*
X1643027Y198272D01*
X1641968Y201764D01*
X1641550Y206009D01*
X1641550Y352630D01*
X1641968Y356876D01*
X1643027Y360368D01*
X1644748Y363586D01*
X1647063Y366407D01*
X1649884Y368722D01*
X1653102Y370443D01*
X1656594Y371502D01*
X1660839Y371920D01*
X1774960Y371920D01*
X1779206Y371502D01*
X1779206Y371502D01*
G37*
G36*
X2076706Y371502D02*
G01*
X2080198Y370443D01*
X2083416Y368722D01*
X2086237Y366407D01*
X2088552Y363586D01*
X2090273Y360368D01*
X2091332Y356876D01*
X2091750Y352630D01*
X2091750Y206009D01*
X2091332Y201764D01*
X2090273Y198272D01*
X2088552Y195054D01*
X2086237Y192233D01*
X2083416Y189918D01*
X2080198Y188197D01*
X2076706Y187138D01*
X2072460Y186720D01*
X1958339Y186720D01*
X1954094Y187138D01*
X1950602Y188197D01*
X1947384Y189918D01*
X1944563Y192233D01*
X1942248Y195054D01*
X1940527Y198272D01*
X1939468Y201764D01*
X1939050Y206009D01*
X1939050Y352630D01*
X1939468Y356876D01*
X1940527Y360368D01*
X1942248Y363586D01*
X1944563Y366407D01*
X1947384Y368722D01*
X1950602Y370443D01*
X1954094Y371502D01*
X1958339Y371920D01*
X2072460Y371920D01*
X2076706Y371502D01*
X2076706Y371502D01*
G37*
G36*
X7322729Y497438D02*
G01*
X7329169Y496157D01*
X7347368Y488619D01*
X7363746Y477675D01*
X7377675Y463746D01*
X7388619Y447368D01*
X7396157Y429169D01*
X7396445Y427722D01*
X7400000Y409849D01*
X7400000Y390151D01*
X7398332Y381767D01*
X7396157Y370831D01*
X7388619Y352632D01*
X7377675Y336254D01*
X7363746Y322325D01*
X7347368Y311381D01*
X7329169Y303843D01*
X7322729Y302562D01*
X7309849Y300000D01*
X7290151Y300000D01*
X7277271Y302562D01*
X7270831Y303843D01*
X7252632Y311381D01*
X7236254Y322325D01*
X7222325Y336254D01*
X7211381Y352632D01*
X7203843Y370831D01*
X7201667Y381767D01*
X7200000Y390151D01*
X7200000Y409849D01*
X7203555Y427722D01*
X7203843Y429169D01*
X7211381Y447368D01*
X7222325Y463746D01*
X7236254Y477675D01*
X7252632Y488619D01*
X7270831Y496157D01*
X7277271Y497438D01*
X7290151Y500000D01*
X7309849Y500000D01*
X7322729Y497438D01*
X7322729Y497438D01*
G37*
G36*
X1493117Y484613D02*
G01*
X1496887Y483470D01*
X1500360Y481613D01*
X1503405Y479115D01*
X1505903Y476070D01*
X1507760Y472597D01*
X1508903Y468827D01*
X1509350Y464294D01*
X1509350Y380626D01*
X1508903Y376093D01*
X1507760Y372323D01*
X1505903Y368850D01*
X1503405Y365805D01*
X1500360Y363307D01*
X1496887Y361450D01*
X1493117Y360306D01*
X1488584Y359860D01*
X1379916Y359860D01*
X1375383Y360306D01*
X1371613Y361450D01*
X1368140Y363307D01*
X1365095Y365805D01*
X1362597Y368850D01*
X1360740Y372323D01*
X1359597Y376093D01*
X1359150Y380626D01*
X1359150Y464294D01*
X1359597Y468827D01*
X1360740Y472597D01*
X1362597Y476070D01*
X1365095Y479115D01*
X1368140Y481613D01*
X1371613Y483470D01*
X1375383Y484613D01*
X1379916Y485060D01*
X1488584Y485060D01*
X1493117Y484613D01*
X1493117Y484613D01*
G37*
G36*
X4111044Y592448D02*
G01*
X4117663Y591796D01*
X4134647Y586644D01*
X4134647Y586644D01*
X4139627Y583982D01*
X4150299Y578278D01*
X4153873Y575345D01*
X4164019Y567019D01*
X4172345Y556873D01*
X4175278Y553299D01*
X4183644Y537647D01*
X4188796Y520663D01*
X4190536Y503000D01*
X4188796Y485337D01*
X4183644Y468353D01*
X4175278Y452701D01*
X4172345Y449127D01*
X4164019Y438981D01*
X4155338Y431858D01*
X4150299Y427722D01*
X4134647Y419356D01*
X4117663Y414204D01*
X4111044Y413552D01*
X4104426Y412900D01*
X4095574Y412900D01*
X4088956Y413552D01*
X4082337Y414204D01*
X4065353Y419356D01*
X4049701Y427722D01*
X4044662Y431858D01*
X4035981Y438981D01*
X4027655Y449127D01*
X4024722Y452701D01*
X4016356Y468353D01*
X4011204Y485337D01*
X4009464Y503000D01*
X4011204Y520663D01*
X4016356Y537647D01*
X4024722Y553299D01*
X4027655Y556873D01*
X4035981Y567019D01*
X4046127Y575345D01*
X4049701Y578278D01*
X4060373Y583982D01*
X4065353Y586644D01*
X4065353Y586644D01*
X4082337Y591796D01*
X4088956Y592448D01*
X4095574Y593100D01*
X4104426Y593100D01*
X4111044Y592448D01*
X4111044Y592448D01*
G37*
G36*
X4365044Y592448D02*
G01*
X4371663Y591796D01*
X4388647Y586644D01*
X4388647Y586644D01*
X4393627Y583982D01*
X4404299Y578278D01*
X4407873Y575345D01*
X4418019Y567019D01*
X4426345Y556873D01*
X4429278Y553299D01*
X4437644Y537647D01*
X4442796Y520663D01*
X4444536Y503000D01*
X4442796Y485337D01*
X4437644Y468353D01*
X4429278Y452701D01*
X4426345Y449127D01*
X4418019Y438981D01*
X4409338Y431858D01*
X4404299Y427722D01*
X4388647Y419356D01*
X4371663Y414204D01*
X4365044Y413552D01*
X4358426Y412900D01*
X4349574Y412900D01*
X4342956Y413552D01*
X4336337Y414204D01*
X4319353Y419356D01*
X4303701Y427722D01*
X4298662Y431858D01*
X4289981Y438981D01*
X4281655Y449127D01*
X4278722Y452701D01*
X4270356Y468353D01*
X4265204Y485337D01*
X4263464Y503000D01*
X4265204Y520663D01*
X4270356Y537647D01*
X4278722Y553299D01*
X4281655Y556873D01*
X4289981Y567019D01*
X4300127Y575345D01*
X4303701Y578278D01*
X4314373Y583982D01*
X4319353Y586644D01*
X4319353Y586644D01*
X4336337Y591796D01*
X4342956Y592448D01*
X4349574Y593100D01*
X4358426Y593100D01*
X4365044Y592448D01*
X4365044Y592448D01*
G37*
G36*
X4619044Y592448D02*
G01*
X4625663Y591796D01*
X4642647Y586644D01*
X4642647Y586644D01*
X4647627Y583982D01*
X4658299Y578278D01*
X4661873Y575345D01*
X4672019Y567019D01*
X4680345Y556873D01*
X4683278Y553299D01*
X4691644Y537647D01*
X4696796Y520663D01*
X4698536Y503000D01*
X4696796Y485337D01*
X4691644Y468353D01*
X4683278Y452701D01*
X4680345Y449127D01*
X4672019Y438981D01*
X4663338Y431858D01*
X4658299Y427722D01*
X4642647Y419356D01*
X4625663Y414204D01*
X4619044Y413552D01*
X4612426Y412900D01*
X4603574Y412900D01*
X4596956Y413552D01*
X4590337Y414204D01*
X4573353Y419356D01*
X4557701Y427722D01*
X4552662Y431858D01*
X4543981Y438981D01*
X4535655Y449127D01*
X4532722Y452701D01*
X4524356Y468353D01*
X4519204Y485337D01*
X4517464Y503000D01*
X4519204Y520663D01*
X4524356Y537647D01*
X4532722Y553299D01*
X4535655Y556873D01*
X4543981Y567019D01*
X4554127Y575345D01*
X4557701Y578278D01*
X4568373Y583982D01*
X4573353Y586644D01*
X4573353Y586644D01*
X4590337Y591796D01*
X4596956Y592448D01*
X4603574Y593100D01*
X4612426Y593100D01*
X4619044Y592448D01*
X4619044Y592448D01*
G37*
G36*
X4873044Y592448D02*
G01*
X4879663Y591796D01*
X4896647Y586644D01*
X4896647Y586644D01*
X4901627Y583982D01*
X4912299Y578278D01*
X4915873Y575345D01*
X4926019Y567019D01*
X4934345Y556873D01*
X4937278Y553299D01*
X4945644Y537647D01*
X4950796Y520663D01*
X4952536Y503000D01*
X4950796Y485337D01*
X4945644Y468353D01*
X4937278Y452701D01*
X4934345Y449127D01*
X4926019Y438981D01*
X4917338Y431858D01*
X4912299Y427722D01*
X4896647Y419356D01*
X4879663Y414204D01*
X4873044Y413552D01*
X4866426Y412900D01*
X4857574Y412900D01*
X4850956Y413552D01*
X4844337Y414204D01*
X4827353Y419356D01*
X4811701Y427722D01*
X4806662Y431858D01*
X4797981Y438981D01*
X4789655Y449127D01*
X4786722Y452701D01*
X4778356Y468353D01*
X4773204Y485337D01*
X4771464Y503000D01*
X4773204Y520663D01*
X4778356Y537647D01*
X4786722Y553299D01*
X4789655Y556873D01*
X4797981Y567019D01*
X4808127Y575345D01*
X4811701Y578278D01*
X4822373Y583982D01*
X4827353Y586644D01*
X4827353Y586644D01*
X4844337Y591796D01*
X4850956Y592448D01*
X4857574Y593100D01*
X4866426Y593100D01*
X4873044Y592448D01*
X4873044Y592448D01*
G37*
G36*
X5127044Y592448D02*
G01*
X5133663Y591796D01*
X5150647Y586644D01*
X5150647Y586644D01*
X5155627Y583982D01*
X5166299Y578278D01*
X5169873Y575345D01*
X5180019Y567019D01*
X5188345Y556873D01*
X5191278Y553299D01*
X5199644Y537647D01*
X5204796Y520663D01*
X5206536Y503000D01*
X5204796Y485337D01*
X5199644Y468353D01*
X5191278Y452701D01*
X5188345Y449127D01*
X5180019Y438981D01*
X5171338Y431858D01*
X5166299Y427722D01*
X5150647Y419356D01*
X5133663Y414204D01*
X5127044Y413552D01*
X5120426Y412900D01*
X5111574Y412900D01*
X5104956Y413552D01*
X5098337Y414204D01*
X5081353Y419356D01*
X5065701Y427722D01*
X5060662Y431858D01*
X5051981Y438981D01*
X5043655Y449127D01*
X5040722Y452701D01*
X5032356Y468353D01*
X5027204Y485337D01*
X5025464Y503000D01*
X5027204Y520663D01*
X5032356Y537647D01*
X5040722Y553299D01*
X5043655Y556873D01*
X5051981Y567019D01*
X5062127Y575345D01*
X5065701Y578278D01*
X5076373Y583982D01*
X5081353Y586644D01*
X5081353Y586644D01*
X5098337Y591796D01*
X5104956Y592448D01*
X5111574Y593100D01*
X5120426Y593100D01*
X5127044Y592448D01*
X5127044Y592448D01*
G37*
G36*
X5381044Y592448D02*
G01*
X5387663Y591796D01*
X5404647Y586644D01*
X5404647Y586644D01*
X5409627Y583982D01*
X5420299Y578278D01*
X5423873Y575345D01*
X5434019Y567019D01*
X5442345Y556873D01*
X5445278Y553299D01*
X5453644Y537647D01*
X5458796Y520663D01*
X5460536Y503000D01*
X5458796Y485337D01*
X5453644Y468353D01*
X5445278Y452701D01*
X5442345Y449127D01*
X5434019Y438981D01*
X5425338Y431858D01*
X5420299Y427722D01*
X5404647Y419356D01*
X5387663Y414204D01*
X5381044Y413552D01*
X5374426Y412900D01*
X5365574Y412900D01*
X5358956Y413552D01*
X5352337Y414204D01*
X5335353Y419356D01*
X5319701Y427722D01*
X5314662Y431858D01*
X5305981Y438981D01*
X5297655Y449127D01*
X5294722Y452701D01*
X5286356Y468353D01*
X5281204Y485337D01*
X5279464Y503000D01*
X5281204Y520663D01*
X5286356Y537647D01*
X5294722Y553299D01*
X5297655Y556873D01*
X5305981Y567019D01*
X5316127Y575345D01*
X5319701Y578278D01*
X5330373Y583982D01*
X5335353Y586644D01*
X5335353Y586644D01*
X5352337Y591796D01*
X5358956Y592448D01*
X5365574Y593100D01*
X5374426Y593100D01*
X5381044Y592448D01*
X5381044Y592448D01*
G37*
G36*
X6905044Y592448D02*
G01*
X6911663Y591796D01*
X6928647Y586644D01*
X6928647Y586644D01*
X6933627Y583982D01*
X6944299Y578278D01*
X6947873Y575345D01*
X6958019Y567019D01*
X6966345Y556873D01*
X6969278Y553299D01*
X6977644Y537647D01*
X6982796Y520663D01*
X6984536Y503000D01*
X6982796Y485337D01*
X6977644Y468353D01*
X6969278Y452701D01*
X6966345Y449127D01*
X6958019Y438981D01*
X6949338Y431858D01*
X6944299Y427722D01*
X6928647Y419356D01*
X6911663Y414204D01*
X6905044Y413552D01*
X6898426Y412900D01*
X6889574Y412900D01*
X6882956Y413552D01*
X6876337Y414204D01*
X6859353Y419356D01*
X6843701Y427722D01*
X6838662Y431858D01*
X6829981Y438981D01*
X6821655Y449127D01*
X6818722Y452701D01*
X6810356Y468353D01*
X6805204Y485337D01*
X6803464Y503000D01*
X6805204Y520663D01*
X6810356Y537647D01*
X6818722Y553299D01*
X6821655Y556873D01*
X6829981Y567019D01*
X6840127Y575345D01*
X6843701Y578278D01*
X6854373Y583982D01*
X6859353Y586644D01*
X6859353Y586644D01*
X6876337Y591796D01*
X6882956Y592448D01*
X6889574Y593100D01*
X6898426Y593100D01*
X6905044Y592448D01*
X6905044Y592448D01*
G37*
G36*
X5635044Y592448D02*
G01*
X5641663Y591796D01*
X5658647Y586644D01*
X5658647Y586644D01*
X5663627Y583982D01*
X5674299Y578278D01*
X5677873Y575345D01*
X5688019Y567019D01*
X5696345Y556873D01*
X5699278Y553299D01*
X5707644Y537647D01*
X5712796Y520663D01*
X5714536Y503000D01*
X5712796Y485337D01*
X5707644Y468353D01*
X5699278Y452701D01*
X5696345Y449127D01*
X5688019Y438981D01*
X5679338Y431858D01*
X5674299Y427722D01*
X5658647Y419356D01*
X5641663Y414204D01*
X5635044Y413552D01*
X5628426Y412900D01*
X5619574Y412900D01*
X5612956Y413552D01*
X5606337Y414204D01*
X5589353Y419356D01*
X5573701Y427722D01*
X5568662Y431858D01*
X5559981Y438981D01*
X5551655Y449127D01*
X5548722Y452701D01*
X5540356Y468353D01*
X5535204Y485337D01*
X5533464Y503000D01*
X5535204Y520663D01*
X5540356Y537647D01*
X5548722Y553299D01*
X5551655Y556873D01*
X5559981Y567019D01*
X5570127Y575345D01*
X5573701Y578278D01*
X5584373Y583982D01*
X5589353Y586644D01*
X5589353Y586644D01*
X5606337Y591796D01*
X5612956Y592448D01*
X5619574Y593100D01*
X5628426Y593100D01*
X5635044Y592448D01*
X5635044Y592448D01*
G37*
G36*
X5889044Y592448D02*
G01*
X5895663Y591796D01*
X5912647Y586644D01*
X5912647Y586644D01*
X5917627Y583982D01*
X5928299Y578278D01*
X5931873Y575345D01*
X5942019Y567019D01*
X5950345Y556873D01*
X5953278Y553299D01*
X5961644Y537647D01*
X5966796Y520663D01*
X5968536Y503000D01*
X5966796Y485337D01*
X5961644Y468353D01*
X5953278Y452701D01*
X5950345Y449127D01*
X5942019Y438981D01*
X5933338Y431858D01*
X5928299Y427722D01*
X5912647Y419356D01*
X5895663Y414204D01*
X5889044Y413552D01*
X5882426Y412900D01*
X5873574Y412900D01*
X5866956Y413552D01*
X5860337Y414204D01*
X5843353Y419356D01*
X5827701Y427722D01*
X5822662Y431858D01*
X5813981Y438981D01*
X5805655Y449127D01*
X5802722Y452701D01*
X5794356Y468353D01*
X5789204Y485337D01*
X5787464Y503000D01*
X5789204Y520663D01*
X5794356Y537647D01*
X5802722Y553299D01*
X5805655Y556873D01*
X5813981Y567019D01*
X5824127Y575345D01*
X5827701Y578278D01*
X5838373Y583982D01*
X5843353Y586644D01*
X5843353Y586644D01*
X5860337Y591796D01*
X5866956Y592448D01*
X5873574Y593100D01*
X5882426Y593100D01*
X5889044Y592448D01*
X5889044Y592448D01*
G37*
G36*
X6143044Y592448D02*
G01*
X6149663Y591796D01*
X6166647Y586644D01*
X6166647Y586644D01*
X6171627Y583982D01*
X6182299Y578278D01*
X6185873Y575345D01*
X6196019Y567019D01*
X6204345Y556873D01*
X6207278Y553299D01*
X6215644Y537647D01*
X6220796Y520663D01*
X6222536Y503000D01*
X6220796Y485337D01*
X6215644Y468353D01*
X6207278Y452701D01*
X6204345Y449127D01*
X6196019Y438981D01*
X6187338Y431858D01*
X6182299Y427722D01*
X6166647Y419356D01*
X6149663Y414204D01*
X6143044Y413552D01*
X6136426Y412900D01*
X6127574Y412900D01*
X6120956Y413552D01*
X6114337Y414204D01*
X6097353Y419356D01*
X6081701Y427722D01*
X6076662Y431858D01*
X6067981Y438981D01*
X6059655Y449127D01*
X6056722Y452701D01*
X6048356Y468353D01*
X6043204Y485337D01*
X6041464Y503000D01*
X6043204Y520663D01*
X6048356Y537647D01*
X6056722Y553299D01*
X6059655Y556873D01*
X6067981Y567019D01*
X6078127Y575345D01*
X6081701Y578278D01*
X6092373Y583982D01*
X6097353Y586644D01*
X6097353Y586644D01*
X6114337Y591796D01*
X6120956Y592448D01*
X6127574Y593100D01*
X6136426Y593100D01*
X6143044Y592448D01*
X6143044Y592448D01*
G37*
G36*
X6651044Y592448D02*
G01*
X6657663Y591796D01*
X6674647Y586644D01*
X6674647Y586644D01*
X6679627Y583982D01*
X6690299Y578278D01*
X6693873Y575345D01*
X6704019Y567019D01*
X6712345Y556873D01*
X6715278Y553299D01*
X6723644Y537647D01*
X6728796Y520663D01*
X6730536Y503000D01*
X6728796Y485337D01*
X6723644Y468353D01*
X6715278Y452701D01*
X6712345Y449127D01*
X6704019Y438981D01*
X6695338Y431858D01*
X6690299Y427722D01*
X6674647Y419356D01*
X6657663Y414204D01*
X6651044Y413552D01*
X6644426Y412900D01*
X6635574Y412900D01*
X6628956Y413552D01*
X6622337Y414204D01*
X6605353Y419356D01*
X6589701Y427722D01*
X6584662Y431858D01*
X6575981Y438981D01*
X6567655Y449127D01*
X6564722Y452701D01*
X6556356Y468353D01*
X6551204Y485337D01*
X6549464Y503000D01*
X6551204Y520663D01*
X6556356Y537647D01*
X6564722Y553299D01*
X6567655Y556873D01*
X6575981Y567019D01*
X6586127Y575345D01*
X6589701Y578278D01*
X6600373Y583982D01*
X6605353Y586644D01*
X6605353Y586644D01*
X6622337Y591796D01*
X6628956Y592448D01*
X6635574Y593100D01*
X6644426Y593100D01*
X6651044Y592448D01*
X6651044Y592448D01*
G37*
G36*
X6397044Y592448D02*
G01*
X6403663Y591796D01*
X6420647Y586644D01*
X6420647Y586644D01*
X6425627Y583982D01*
X6436299Y578278D01*
X6439873Y575345D01*
X6450019Y567019D01*
X6458345Y556873D01*
X6461278Y553299D01*
X6469644Y537647D01*
X6474796Y520663D01*
X6476536Y503000D01*
X6474796Y485337D01*
X6469644Y468353D01*
X6461278Y452701D01*
X6458345Y449127D01*
X6450019Y438981D01*
X6441338Y431858D01*
X6436299Y427722D01*
X6420647Y419356D01*
X6403663Y414204D01*
X6397044Y413552D01*
X6390426Y412900D01*
X6381574Y412900D01*
X6374956Y413552D01*
X6368337Y414204D01*
X6351353Y419356D01*
X6335701Y427722D01*
X6330662Y431858D01*
X6321981Y438981D01*
X6313655Y449127D01*
X6310722Y452701D01*
X6302356Y468353D01*
X6297204Y485337D01*
X6295464Y503000D01*
X6297204Y520663D01*
X6302356Y537647D01*
X6310722Y553299D01*
X6313655Y556873D01*
X6321981Y567019D01*
X6332127Y575345D01*
X6335701Y578278D01*
X6346373Y583982D01*
X6351353Y586644D01*
X6351353Y586644D01*
X6368337Y591796D01*
X6374956Y592448D01*
X6381574Y593100D01*
X6390426Y593100D01*
X6397044Y592448D01*
X6397044Y592448D01*
G37*
G36*
X2076706Y600102D02*
G01*
X2080198Y599043D01*
X2083416Y597322D01*
X2086237Y595007D01*
X2088552Y592186D01*
X2090273Y588968D01*
X2091332Y585476D01*
X2091750Y581231D01*
X2091750Y434609D01*
X2091332Y430364D01*
X2090273Y426872D01*
X2088552Y423654D01*
X2086237Y420833D01*
X2083416Y418518D01*
X2080198Y416797D01*
X2076706Y415738D01*
X2072460Y415320D01*
X1958339Y415320D01*
X1954094Y415738D01*
X1950602Y416797D01*
X1947384Y418518D01*
X1944563Y420833D01*
X1942248Y423654D01*
X1940527Y426872D01*
X1939468Y430364D01*
X1939050Y434609D01*
X1939050Y581231D01*
X1939468Y585476D01*
X1940527Y588968D01*
X1942248Y592186D01*
X1944563Y595007D01*
X1947384Y597322D01*
X1950602Y599043D01*
X1954094Y600102D01*
X1958339Y600520D01*
X2072460Y600520D01*
X2076706Y600102D01*
X2076706Y600102D01*
G37*
G36*
X1779206Y600102D02*
G01*
X1782698Y599043D01*
X1785916Y597322D01*
X1788737Y595007D01*
X1791052Y592186D01*
X1792773Y588968D01*
X1793832Y585476D01*
X1794250Y581231D01*
X1794250Y434609D01*
X1793832Y430364D01*
X1792773Y426872D01*
X1791052Y423654D01*
X1788737Y420833D01*
X1785916Y418518D01*
X1782698Y416797D01*
X1779206Y415738D01*
X1774960Y415320D01*
X1660839Y415320D01*
X1656594Y415738D01*
X1653102Y416797D01*
X1649884Y418518D01*
X1647063Y420833D01*
X1644748Y423654D01*
X1643027Y426872D01*
X1641968Y430364D01*
X1641550Y434609D01*
X1641550Y581231D01*
X1641968Y585476D01*
X1643027Y588968D01*
X1644748Y592186D01*
X1647063Y595007D01*
X1649884Y597322D01*
X1653102Y599043D01*
X1656594Y600102D01*
X1660839Y600520D01*
X1774960Y600520D01*
X1779206Y600102D01*
X1779206Y600102D01*
G37*
G36*
X1499350Y549400D02*
G01*
X1369150Y549400D01*
X1369150Y779600D01*
X1499350Y779600D01*
X1499350Y549400D01*
X1499350Y549400D01*
G37*
G36*
X1043350Y549400D02*
G01*
X913150Y549400D01*
X913150Y779600D01*
X1043350Y779600D01*
X1043350Y549400D01*
X1043350Y549400D01*
G37*
G36*
X476100Y819900D02*
G01*
X165900Y819900D01*
X165900Y1130100D01*
X476100Y1130100D01*
X476100Y819900D01*
X476100Y819900D01*
G37*
G36*
X1501350Y969400D02*
G01*
X911150Y969400D01*
X911150Y1619600D01*
X1501350Y1619600D01*
X1501350Y969400D01*
X1501350Y969400D01*
G37*
G36*
X2359557Y1336816D02*
G01*
X2363326Y1335673D01*
X2366800Y1333816D01*
X2370321Y1330927D01*
X2429483Y1271764D01*
X2432373Y1268243D01*
X2434230Y1264769D01*
X2435373Y1261000D01*
X2435759Y1257080D01*
X2435373Y1253161D01*
X2434230Y1249392D01*
X2432373Y1245918D01*
X2429483Y1242397D01*
X2352643Y1165557D01*
X2349122Y1162667D01*
X2345648Y1160810D01*
X2341879Y1159667D01*
X2337960Y1159281D01*
X2334040Y1159667D01*
X2330271Y1160810D01*
X2326797Y1162667D01*
X2323276Y1165557D01*
X2264114Y1224719D01*
X2261224Y1228240D01*
X2259367Y1231714D01*
X2258224Y1235483D01*
X2257838Y1239403D01*
X2258224Y1243322D01*
X2259367Y1247092D01*
X2261224Y1250565D01*
X2264114Y1254087D01*
X2340954Y1330927D01*
X2344475Y1333816D01*
X2347948Y1335673D01*
X2351718Y1336816D01*
X2355637Y1337202D01*
X2359557Y1336816D01*
X2359557Y1336816D01*
G37*
G36*
X2214600Y1481773D02*
G01*
X2218369Y1480630D01*
X2221843Y1478773D01*
X2225364Y1475883D01*
X2284527Y1416721D01*
X2287416Y1413200D01*
X2289273Y1409726D01*
X2290416Y1405957D01*
X2290802Y1402037D01*
X2290416Y1398118D01*
X2289273Y1394348D01*
X2287416Y1390875D01*
X2284527Y1387354D01*
X2207687Y1310514D01*
X2204165Y1307624D01*
X2200692Y1305767D01*
X2196922Y1304624D01*
X2193003Y1304238D01*
X2189083Y1304624D01*
X2185314Y1305767D01*
X2181840Y1307624D01*
X2178319Y1310514D01*
X2119157Y1369676D01*
X2116267Y1373197D01*
X2114410Y1376671D01*
X2113267Y1380440D01*
X2112881Y1384360D01*
X2113267Y1388279D01*
X2114410Y1392048D01*
X2116267Y1395522D01*
X2119157Y1399043D01*
X2195997Y1475883D01*
X2199518Y1478773D01*
X2202992Y1480630D01*
X2206761Y1481773D01*
X2210680Y1482159D01*
X2214600Y1481773D01*
X2214600Y1481773D01*
G37*
G36*
X351258Y1635120D02*
G01*
X366241Y1632140D01*
X394467Y1620448D01*
X419870Y1603474D01*
X441474Y1581870D01*
X458448Y1556467D01*
X470140Y1528241D01*
X472319Y1517283D01*
X475711Y1500233D01*
X476100Y1498276D01*
X476100Y1467724D01*
X470140Y1437759D01*
X458448Y1409533D01*
X441474Y1384130D01*
X419870Y1362526D01*
X394467Y1345552D01*
X366241Y1333860D01*
X351491Y1330927D01*
X336276Y1327900D01*
X305724Y1327900D01*
X290509Y1330927D01*
X275759Y1333860D01*
X247533Y1345552D01*
X222129Y1362526D01*
X200526Y1384130D01*
X183552Y1409533D01*
X171860Y1437759D01*
X165900Y1467724D01*
X165900Y1498276D01*
X166289Y1500233D01*
X169681Y1517283D01*
X171860Y1528241D01*
X183552Y1556467D01*
X200526Y1581870D01*
X222129Y1603474D01*
X247533Y1620448D01*
X275759Y1632140D01*
X290742Y1635120D01*
X305724Y1638100D01*
X336276Y1638100D01*
X351258Y1635120D01*
X351258Y1635120D01*
G37*
G36*
X4008017Y1503233D02*
G01*
X4011787Y1502090D01*
X4015260Y1500233D01*
X4018305Y1497735D01*
X4020803Y1494690D01*
X4022660Y1491217D01*
X4023803Y1487447D01*
X4024250Y1482914D01*
X4024250Y1374246D01*
X4023803Y1369713D01*
X4022660Y1365943D01*
X4020803Y1362470D01*
X4018305Y1359425D01*
X4015260Y1356927D01*
X4011787Y1355070D01*
X4008017Y1353927D01*
X4003484Y1353480D01*
X3919816Y1353480D01*
X3915283Y1353927D01*
X3911513Y1355070D01*
X3908040Y1356927D01*
X3904995Y1359425D01*
X3902497Y1362470D01*
X3900640Y1365943D01*
X3899496Y1369713D01*
X3899050Y1374246D01*
X3899050Y1482914D01*
X3899496Y1487447D01*
X3900640Y1491217D01*
X3902497Y1494690D01*
X3904995Y1497735D01*
X3908040Y1500233D01*
X3911513Y1502090D01*
X3915283Y1503233D01*
X3919816Y1503680D01*
X4003484Y1503680D01*
X4008017Y1503233D01*
X4008017Y1503233D01*
G37*
G36*
X4213017Y1503233D02*
G01*
X4216787Y1502090D01*
X4220260Y1500233D01*
X4223305Y1497735D01*
X4225803Y1494690D01*
X4227660Y1491217D01*
X4228804Y1487447D01*
X4229250Y1482914D01*
X4229250Y1374246D01*
X4228804Y1369713D01*
X4227660Y1365943D01*
X4225803Y1362470D01*
X4223305Y1359425D01*
X4220260Y1356927D01*
X4216787Y1355070D01*
X4213017Y1353927D01*
X4208484Y1353480D01*
X4124816Y1353480D01*
X4120283Y1353927D01*
X4116513Y1355070D01*
X4113040Y1356927D01*
X4109995Y1359425D01*
X4107497Y1362470D01*
X4105640Y1365943D01*
X4104496Y1369713D01*
X4104050Y1374246D01*
X4104050Y1482914D01*
X4104496Y1487447D01*
X4105640Y1491217D01*
X4107497Y1494690D01*
X4109995Y1497735D01*
X4113040Y1500233D01*
X4116513Y1502090D01*
X4120283Y1503233D01*
X4124816Y1503680D01*
X4208484Y1503680D01*
X4213017Y1503233D01*
X4213017Y1503233D01*
G37*
G36*
X5729367Y1514573D02*
G01*
X5733137Y1513430D01*
X5736610Y1511573D01*
X5739655Y1509075D01*
X5742153Y1506030D01*
X5744010Y1502557D01*
X5745153Y1498787D01*
X5745600Y1494254D01*
X5745600Y1385586D01*
X5745153Y1381053D01*
X5744010Y1377283D01*
X5742153Y1373810D01*
X5739655Y1370765D01*
X5736610Y1368267D01*
X5733137Y1366410D01*
X5729367Y1365267D01*
X5724834Y1364820D01*
X5641166Y1364820D01*
X5636633Y1365267D01*
X5632863Y1366410D01*
X5629390Y1368267D01*
X5626345Y1370765D01*
X5623847Y1373810D01*
X5621990Y1377283D01*
X5620846Y1381053D01*
X5620400Y1385586D01*
X5620400Y1494254D01*
X5620846Y1498787D01*
X5621990Y1502557D01*
X5623847Y1506030D01*
X5626345Y1509075D01*
X5629390Y1511573D01*
X5632863Y1513430D01*
X5636633Y1514573D01*
X5641166Y1515020D01*
X5724834Y1515020D01*
X5729367Y1514573D01*
X5729367Y1514573D01*
G37*
G36*
X5524367Y1514573D02*
G01*
X5528137Y1513430D01*
X5531610Y1511573D01*
X5534655Y1509075D01*
X5537153Y1506030D01*
X5539010Y1502557D01*
X5540154Y1498787D01*
X5540600Y1494254D01*
X5540600Y1385586D01*
X5540154Y1381053D01*
X5539010Y1377283D01*
X5537153Y1373810D01*
X5534655Y1370765D01*
X5531610Y1368267D01*
X5528137Y1366410D01*
X5524367Y1365267D01*
X5519834Y1364820D01*
X5436166Y1364820D01*
X5431633Y1365267D01*
X5427863Y1366410D01*
X5424390Y1368267D01*
X5421345Y1370765D01*
X5418847Y1373810D01*
X5416990Y1377283D01*
X5415847Y1381053D01*
X5415400Y1385586D01*
X5415400Y1494254D01*
X5415847Y1498787D01*
X5416990Y1502557D01*
X5418847Y1506030D01*
X5421345Y1509075D01*
X5424390Y1511573D01*
X5427863Y1513430D01*
X5431633Y1514573D01*
X5436166Y1515020D01*
X5519834Y1515020D01*
X5524367Y1514573D01*
X5524367Y1514573D01*
G37*
G36*
X3171017Y1943066D02*
G01*
X3124913Y1896963D01*
X3114448Y1886498D01*
X3068345Y1840394D01*
X3057880Y1829929D01*
X2842071Y1614120D01*
X2831605Y1603655D01*
X2785502Y1557552D01*
X2775037Y1547087D01*
X2728934Y1500983D01*
X2608584Y1621333D01*
X2654687Y1667436D01*
X2654688Y1667436D01*
X2656314Y1669062D01*
X2656315Y1669064D01*
X2665153Y1677901D01*
X2665153Y1677901D01*
X2711256Y1724005D01*
X2711256Y1724005D01*
X2720094Y1732842D01*
X2720095Y1732843D01*
X2721721Y1734470D01*
X2721721Y1734470D01*
X2767825Y1780573D01*
X2767825Y1780573D01*
X2776663Y1789412D01*
X2778290Y1791038D01*
X2778290Y1791038D01*
X2824393Y1837142D01*
X2824393Y1837142D01*
X2834858Y1847607D01*
X2834858Y1847607D01*
X2880962Y1893710D01*
X2880962Y1893710D01*
X2889800Y1902549D01*
X2891427Y1904175D01*
X2891427Y1904175D01*
X2937530Y1950279D01*
X2937530Y1950279D01*
X2939157Y1951905D01*
X2939157Y1951906D01*
X2947995Y1960744D01*
X2947995Y1960744D01*
X2994099Y2006847D01*
X2994099Y2006847D01*
X3002936Y2015685D01*
X3002937Y2015686D01*
X3004564Y2017312D01*
X3004564Y2017313D01*
X3050667Y2063416D01*
X3171017Y1943066D01*
X3171017Y1943066D01*
G37*
G36*
X2173996Y2017313D02*
G01*
X2173996Y2017312D01*
X2175623Y2015686D01*
X2175623Y2015686D01*
X2184461Y2006847D01*
X2184461Y2006847D01*
X2230565Y1960744D01*
X2230565Y1960744D01*
X2239403Y1951906D01*
X2239404Y1951905D01*
X2241030Y1950279D01*
X2241030Y1950279D01*
X2287133Y1904175D01*
X2287133Y1904175D01*
X2297598Y1893710D01*
X2297598Y1893710D01*
X2343702Y1847607D01*
X2343702Y1847607D01*
X2354167Y1837142D01*
X2354167Y1837142D01*
X2400270Y1791038D01*
X2400270Y1791038D01*
X2410736Y1780573D01*
X2410736Y1780573D01*
X2456839Y1734470D01*
X2456839Y1734470D01*
X2458465Y1732843D01*
X2458466Y1732843D01*
X2467304Y1724005D01*
X2467304Y1724005D01*
X2513408Y1677901D01*
X2513408Y1677901D01*
X2522246Y1669063D01*
X2522246Y1669062D01*
X2523873Y1667436D01*
X2523873Y1667436D01*
X2569976Y1621333D01*
X2449626Y1500983D01*
X2403523Y1547087D01*
X2403523Y1547087D01*
X2394685Y1555925D01*
X2394684Y1555925D01*
X2393058Y1557552D01*
X2393058Y1557552D01*
X2346955Y1603655D01*
X2346955Y1603655D01*
X2345328Y1605282D01*
X2345328Y1605282D01*
X2336489Y1614120D01*
X2336489Y1614120D01*
X2290386Y1660224D01*
X2290386Y1660224D01*
X2279921Y1670689D01*
X2279921Y1670689D01*
X2233817Y1716792D01*
X2233818Y1716792D01*
X2223352Y1727257D01*
X2223352Y1727257D01*
X2177249Y1773361D01*
X2177249Y1773361D01*
X2166784Y1783826D01*
X2166784Y1783826D01*
X2120680Y1829929D01*
X2120680Y1829929D01*
X2111842Y1838767D01*
X2111842Y1838768D01*
X2110215Y1840394D01*
X2110215Y1840394D01*
X2064112Y1886498D01*
X2064112Y1886498D01*
X2062485Y1888124D01*
X2062485Y1888125D01*
X2053647Y1896963D01*
X2053647Y1896963D01*
X2007543Y1943066D01*
X2127893Y2063416D01*
X2173996Y2017313D01*
X2173996Y2017313D01*
G37*
G36*
X5994887Y1654573D02*
G01*
X5998657Y1653430D01*
X6002130Y1651573D01*
X6005175Y1649075D01*
X6007673Y1646030D01*
X6009530Y1642557D01*
X6010673Y1638787D01*
X6011120Y1634254D01*
X6011120Y1525586D01*
X6010673Y1521053D01*
X6009530Y1517283D01*
X6007673Y1513810D01*
X6005175Y1510765D01*
X6002130Y1508267D01*
X5998657Y1506410D01*
X5994887Y1505266D01*
X5990354Y1504820D01*
X5906686Y1504820D01*
X5902153Y1505266D01*
X5898383Y1506410D01*
X5894910Y1508267D01*
X5891865Y1510765D01*
X5889367Y1513810D01*
X5887510Y1517283D01*
X5886366Y1521053D01*
X5885920Y1525586D01*
X5885920Y1634254D01*
X5886366Y1638787D01*
X5887510Y1642557D01*
X5889367Y1646030D01*
X5891865Y1649075D01*
X5894910Y1651573D01*
X5898383Y1653430D01*
X5902153Y1654573D01*
X5906686Y1655020D01*
X5990354Y1655020D01*
X5994887Y1654573D01*
X5994887Y1654573D01*
G37*
G36*
X6199887Y1654573D02*
G01*
X6203657Y1653430D01*
X6207130Y1651573D01*
X6210175Y1649075D01*
X6212673Y1646030D01*
X6214530Y1642557D01*
X6215673Y1638787D01*
X6216120Y1634254D01*
X6216120Y1525586D01*
X6215673Y1521053D01*
X6214530Y1517283D01*
X6212673Y1513810D01*
X6210175Y1510765D01*
X6207130Y1508267D01*
X6203657Y1506410D01*
X6199887Y1505266D01*
X6195354Y1504820D01*
X6111686Y1504820D01*
X6107153Y1505266D01*
X6103383Y1506410D01*
X6099910Y1508267D01*
X6096865Y1510765D01*
X6094367Y1513810D01*
X6092510Y1517283D01*
X6091366Y1521053D01*
X6090920Y1525586D01*
X6090920Y1634254D01*
X6091366Y1638787D01*
X6092510Y1642557D01*
X6094367Y1646030D01*
X6096865Y1649075D01*
X6099910Y1651573D01*
X6103383Y1653430D01*
X6107153Y1654573D01*
X6111686Y1655020D01*
X6195354Y1655020D01*
X6199887Y1654573D01*
X6199887Y1654573D01*
G37*
G36*
X4829100Y1559100D02*
G01*
X4758900Y1559100D01*
X4758900Y1719300D01*
X4829100Y1719300D01*
X4829100Y1559100D01*
X4829100Y1559100D01*
G37*
G36*
X5210100Y1559100D02*
G01*
X5139900Y1559100D01*
X5139900Y1719300D01*
X5210100Y1719300D01*
X5210100Y1559100D01*
X5210100Y1559100D01*
G37*
G36*
X5337100Y1559100D02*
G01*
X5266900Y1559100D01*
X5266900Y1719300D01*
X5337100Y1719300D01*
X5337100Y1559100D01*
X5337100Y1559100D01*
G37*
G36*
X5591100Y1559100D02*
G01*
X5520900Y1559100D01*
X5520900Y1719300D01*
X5591100Y1719300D01*
X5591100Y1559100D01*
X5591100Y1559100D01*
G37*
G36*
X5464100Y1559100D02*
G01*
X5393900Y1559100D01*
X5393900Y1719300D01*
X5464100Y1719300D01*
X5464100Y1559100D01*
X5464100Y1559100D01*
G37*
G36*
X5083100Y1559100D02*
G01*
X5012900Y1559100D01*
X5012900Y1719300D01*
X5083100Y1719300D01*
X5083100Y1559100D01*
X5083100Y1559100D01*
G37*
G36*
X4956100Y1559100D02*
G01*
X4885900Y1559100D01*
X4885900Y1719300D01*
X4956100Y1719300D01*
X4956100Y1559100D01*
X4956100Y1559100D01*
G37*
G36*
X5718100Y1559100D02*
G01*
X5647900Y1559100D01*
X5647900Y1719300D01*
X5718100Y1719300D01*
X5718100Y1559100D01*
X5718100Y1559100D01*
G37*
G36*
X4213017Y1713853D02*
G01*
X4216787Y1712710D01*
X4220260Y1710853D01*
X4223305Y1708355D01*
X4225803Y1705310D01*
X4227660Y1701837D01*
X4228804Y1698067D01*
X4229250Y1693534D01*
X4229250Y1584866D01*
X4228804Y1580333D01*
X4227660Y1576563D01*
X4225803Y1573090D01*
X4223305Y1570045D01*
X4220260Y1567547D01*
X4216787Y1565690D01*
X4213017Y1564546D01*
X4208484Y1564100D01*
X4124816Y1564100D01*
X4120283Y1564546D01*
X4116513Y1565690D01*
X4113040Y1567547D01*
X4109995Y1570045D01*
X4107497Y1573090D01*
X4105640Y1576563D01*
X4104496Y1580333D01*
X4104050Y1584866D01*
X4104050Y1693534D01*
X4104496Y1698067D01*
X4105640Y1701837D01*
X4107497Y1705310D01*
X4109995Y1708355D01*
X4113040Y1710853D01*
X4116513Y1712710D01*
X4120283Y1713853D01*
X4124816Y1714300D01*
X4208484Y1714300D01*
X4213017Y1713853D01*
X4213017Y1713853D01*
G37*
G36*
X4008017Y1713853D02*
G01*
X4011787Y1712710D01*
X4015260Y1710853D01*
X4018305Y1708355D01*
X4020803Y1705310D01*
X4022660Y1701837D01*
X4023803Y1698067D01*
X4024250Y1693534D01*
X4024250Y1584866D01*
X4023803Y1580333D01*
X4022660Y1576563D01*
X4020803Y1573090D01*
X4018305Y1570045D01*
X4015260Y1567547D01*
X4011787Y1565690D01*
X4008017Y1564546D01*
X4003484Y1564100D01*
X3919816Y1564100D01*
X3915283Y1564546D01*
X3911513Y1565690D01*
X3908040Y1567547D01*
X3904995Y1570045D01*
X3902497Y1573090D01*
X3900640Y1576563D01*
X3899496Y1580333D01*
X3899050Y1584866D01*
X3899050Y1693534D01*
X3899496Y1698067D01*
X3900640Y1701837D01*
X3902497Y1705310D01*
X3904995Y1708355D01*
X3908040Y1710853D01*
X3911513Y1712710D01*
X3915283Y1713853D01*
X3919816Y1714300D01*
X4003484Y1714300D01*
X4008017Y1713853D01*
X4008017Y1713853D01*
G37*
G36*
X7061485Y1704986D02*
G01*
X7067862Y1704358D01*
X7076173Y1701837D01*
X7080134Y1700635D01*
X7091442Y1694591D01*
X7101355Y1686455D01*
X7109491Y1676542D01*
X7115535Y1665234D01*
X7115535Y1665233D01*
X7119258Y1652962D01*
X7120515Y1640200D01*
X7119258Y1627438D01*
X7117406Y1621333D01*
X7115535Y1615166D01*
X7109491Y1603857D01*
X7101355Y1593945D01*
X7091442Y1585809D01*
X7080134Y1579765D01*
X7076940Y1578796D01*
X7067862Y1576042D01*
X7061485Y1575414D01*
X7058297Y1575100D01*
X6996903Y1575100D01*
X6993714Y1575414D01*
X6987338Y1576042D01*
X6978260Y1578796D01*
X6975066Y1579765D01*
X6963757Y1585809D01*
X6953845Y1593945D01*
X6945709Y1603857D01*
X6939665Y1615166D01*
X6937794Y1621333D01*
X6935942Y1627438D01*
X6934685Y1640200D01*
X6935942Y1652962D01*
X6939664Y1665233D01*
X6939665Y1665234D01*
X6945709Y1676542D01*
X6953845Y1686455D01*
X6963757Y1694591D01*
X6975066Y1700635D01*
X6979027Y1701837D01*
X6987338Y1704358D01*
X6993714Y1704986D01*
X6996903Y1705300D01*
X7058297Y1705300D01*
X7061485Y1704986D01*
X7061485Y1704986D01*
G37*
G36*
X1269881Y1938193D02*
G01*
X1273460Y1937107D01*
X1276760Y1935344D01*
X1279651Y1932971D01*
X1282024Y1930079D01*
X1283787Y1926780D01*
X1284873Y1923201D01*
X1285300Y1918864D01*
X1285300Y1713175D01*
X1284873Y1708839D01*
X1283787Y1705260D01*
X1282024Y1701960D01*
X1279651Y1699069D01*
X1276760Y1696696D01*
X1273460Y1694933D01*
X1269881Y1693847D01*
X1265545Y1693420D01*
X1162356Y1693420D01*
X1158019Y1693847D01*
X1154440Y1694933D01*
X1151141Y1696696D01*
X1148249Y1699069D01*
X1145876Y1701960D01*
X1144113Y1705260D01*
X1143027Y1708839D01*
X1142600Y1713175D01*
X1142600Y1918864D01*
X1143027Y1923201D01*
X1144113Y1926780D01*
X1145876Y1930079D01*
X1148249Y1932971D01*
X1151141Y1935344D01*
X1154440Y1937107D01*
X1158019Y1938193D01*
X1162356Y1938620D01*
X1265545Y1938620D01*
X1269881Y1938193D01*
X1269881Y1938193D01*
G37*
G36*
X962381Y1938193D02*
G01*
X965960Y1937107D01*
X969259Y1935344D01*
X972151Y1932971D01*
X974524Y1930079D01*
X976287Y1926780D01*
X977373Y1923201D01*
X977800Y1918864D01*
X977800Y1713175D01*
X977373Y1708839D01*
X976287Y1705260D01*
X974524Y1701960D01*
X972151Y1699069D01*
X969259Y1696696D01*
X965960Y1694933D01*
X962381Y1693847D01*
X958044Y1693420D01*
X854855Y1693420D01*
X850519Y1693847D01*
X846940Y1694933D01*
X843640Y1696696D01*
X840749Y1699069D01*
X838376Y1701960D01*
X836613Y1705260D01*
X835527Y1708839D01*
X835100Y1713175D01*
X835100Y1918864D01*
X835527Y1923201D01*
X836613Y1926780D01*
X838376Y1930079D01*
X840749Y1932971D01*
X843640Y1935344D01*
X846940Y1937107D01*
X850519Y1938193D01*
X854855Y1938620D01*
X958044Y1938620D01*
X962381Y1938193D01*
X962381Y1938193D01*
G37*
G36*
X6199887Y1844573D02*
G01*
X6203657Y1843430D01*
X6207130Y1841573D01*
X6210175Y1839075D01*
X6212673Y1836030D01*
X6214530Y1832557D01*
X6215673Y1828787D01*
X6216120Y1824254D01*
X6216120Y1715586D01*
X6215673Y1711053D01*
X6214530Y1707283D01*
X6212673Y1703810D01*
X6210175Y1700765D01*
X6207130Y1698267D01*
X6203657Y1696410D01*
X6199887Y1695266D01*
X6195354Y1694820D01*
X6111686Y1694820D01*
X6107153Y1695266D01*
X6103383Y1696410D01*
X6099910Y1698267D01*
X6096865Y1700765D01*
X6094367Y1703810D01*
X6092510Y1707283D01*
X6091366Y1711053D01*
X6090920Y1715586D01*
X6090920Y1824254D01*
X6091366Y1828787D01*
X6092510Y1832557D01*
X6094367Y1836030D01*
X6096865Y1839075D01*
X6099910Y1841573D01*
X6103383Y1843430D01*
X6107153Y1844573D01*
X6111686Y1845020D01*
X6195354Y1845020D01*
X6199887Y1844573D01*
X6199887Y1844573D01*
G37*
G36*
X5994887Y1844573D02*
G01*
X5998657Y1843430D01*
X6002130Y1841573D01*
X6005175Y1839075D01*
X6007673Y1836030D01*
X6009530Y1832557D01*
X6010673Y1828787D01*
X6011120Y1824254D01*
X6011120Y1715586D01*
X6010673Y1711053D01*
X6009530Y1707283D01*
X6007673Y1703810D01*
X6005175Y1700765D01*
X6002130Y1698267D01*
X5998657Y1696410D01*
X5994887Y1695266D01*
X5990354Y1694820D01*
X5906686Y1694820D01*
X5902153Y1695266D01*
X5898383Y1696410D01*
X5894910Y1698267D01*
X5891865Y1700765D01*
X5889367Y1703810D01*
X5887510Y1707283D01*
X5886366Y1711053D01*
X5885920Y1715586D01*
X5885920Y1824254D01*
X5886366Y1828787D01*
X5887510Y1832557D01*
X5889367Y1836030D01*
X5891865Y1839075D01*
X5894910Y1841573D01*
X5898383Y1843430D01*
X5902153Y1844573D01*
X5906686Y1845020D01*
X5990354Y1845020D01*
X5994887Y1844573D01*
X5994887Y1844573D01*
G37*
G36*
X7061485Y1904986D02*
G01*
X7067862Y1904358D01*
X7073825Y1902549D01*
X7080134Y1900635D01*
X7091442Y1894591D01*
X7101355Y1886455D01*
X7109491Y1876542D01*
X7115535Y1865234D01*
X7115535Y1865233D01*
X7119258Y1852962D01*
X7120515Y1840200D01*
X7119258Y1827438D01*
X7117946Y1823112D01*
X7115535Y1815166D01*
X7109491Y1803857D01*
X7101355Y1793945D01*
X7091442Y1785809D01*
X7080134Y1779765D01*
X7076940Y1778796D01*
X7067862Y1776042D01*
X7061485Y1775414D01*
X7058297Y1775100D01*
X6996903Y1775100D01*
X6993714Y1775414D01*
X6987338Y1776042D01*
X6978260Y1778796D01*
X6975066Y1779765D01*
X6963757Y1785809D01*
X6953845Y1793945D01*
X6945709Y1803857D01*
X6939665Y1815166D01*
X6937254Y1823112D01*
X6935942Y1827438D01*
X6934685Y1840200D01*
X6935942Y1852962D01*
X6939664Y1865233D01*
X6939665Y1865234D01*
X6945709Y1876542D01*
X6953845Y1886455D01*
X6963757Y1894591D01*
X6975066Y1900635D01*
X6981375Y1902549D01*
X6987338Y1904358D01*
X6993714Y1904986D01*
X6996903Y1905300D01*
X7058297Y1905300D01*
X7061485Y1904986D01*
X7061485Y1904986D01*
G37*
G36*
X7061485Y2104986D02*
G01*
X7067862Y2104358D01*
X7075556Y2102024D01*
X7080134Y2100635D01*
X7091442Y2094591D01*
X7101355Y2086455D01*
X7109491Y2076542D01*
X7115535Y2065234D01*
X7116087Y2063416D01*
X7119258Y2052962D01*
X7120515Y2040200D01*
X7119258Y2027438D01*
X7117833Y2022740D01*
X7115535Y2015166D01*
X7109491Y2003857D01*
X7101355Y1993945D01*
X7091442Y1985809D01*
X7080134Y1979765D01*
X7076940Y1978796D01*
X7067862Y1976042D01*
X7061485Y1975414D01*
X7058297Y1975100D01*
X6996903Y1975100D01*
X6993714Y1975414D01*
X6987338Y1976042D01*
X6978260Y1978796D01*
X6975066Y1979765D01*
X6963757Y1985809D01*
X6953845Y1993945D01*
X6945709Y2003857D01*
X6939665Y2015166D01*
X6937367Y2022740D01*
X6935942Y2027438D01*
X6934685Y2040200D01*
X6935942Y2052962D01*
X6939113Y2063416D01*
X6939665Y2065234D01*
X6945709Y2076542D01*
X6953845Y2086455D01*
X6963757Y2094591D01*
X6975066Y2100635D01*
X6979644Y2102024D01*
X6987338Y2104358D01*
X6993714Y2104986D01*
X6996903Y2105300D01*
X7058297Y2105300D01*
X7061485Y2104986D01*
X7061485Y2104986D01*
G37*
G36*
X1627067Y2145904D02*
G01*
X1630837Y2144760D01*
X1634310Y2142903D01*
X1637355Y2140405D01*
X1639853Y2137360D01*
X1641710Y2133887D01*
X1642853Y2130117D01*
X1643300Y2125584D01*
X1643300Y2041916D01*
X1642853Y2037383D01*
X1641710Y2033613D01*
X1639853Y2030140D01*
X1637355Y2027095D01*
X1634310Y2024597D01*
X1630837Y2022740D01*
X1627067Y2021596D01*
X1622534Y2021150D01*
X1513866Y2021150D01*
X1509333Y2021596D01*
X1505563Y2022740D01*
X1502090Y2024597D01*
X1499045Y2027095D01*
X1496547Y2030140D01*
X1494690Y2033613D01*
X1493546Y2037383D01*
X1493100Y2041916D01*
X1493100Y2125584D01*
X1493546Y2130117D01*
X1494690Y2133887D01*
X1496547Y2137360D01*
X1499045Y2140405D01*
X1502090Y2142903D01*
X1505563Y2144760D01*
X1509333Y2145904D01*
X1513866Y2146350D01*
X1622534Y2146350D01*
X1627067Y2145904D01*
X1627067Y2145904D01*
G37*
G36*
X5464100Y2099100D02*
G01*
X5393900Y2099100D01*
X5393900Y2259300D01*
X5464100Y2259300D01*
X5464100Y2099100D01*
X5464100Y2099100D01*
G37*
G36*
X5210100Y2099100D02*
G01*
X5139900Y2099100D01*
X5139900Y2259300D01*
X5210100Y2259300D01*
X5210100Y2099100D01*
X5210100Y2099100D01*
G37*
G36*
X5718100Y2099100D02*
G01*
X5647900Y2099100D01*
X5647900Y2259300D01*
X5718100Y2259300D01*
X5718100Y2099100D01*
X5718100Y2099100D01*
G37*
G36*
X4829100Y2099100D02*
G01*
X4758900Y2099100D01*
X4758900Y2259300D01*
X4829100Y2259300D01*
X4829100Y2099100D01*
X4829100Y2099100D01*
G37*
G36*
X4956100Y2099100D02*
G01*
X4885900Y2099100D01*
X4885900Y2259300D01*
X4956100Y2259300D01*
X4956100Y2099100D01*
X4956100Y2099100D01*
G37*
G36*
X5083100Y2099100D02*
G01*
X5012900Y2099100D01*
X5012900Y2259300D01*
X5083100Y2259300D01*
X5083100Y2099100D01*
X5083100Y2099100D01*
G37*
G36*
X5591100Y2099100D02*
G01*
X5520900Y2099100D01*
X5520900Y2259300D01*
X5591100Y2259300D01*
X5591100Y2099100D01*
X5591100Y2099100D01*
G37*
G36*
X5337100Y2099100D02*
G01*
X5266900Y2099100D01*
X5266900Y2259300D01*
X5337100Y2259300D01*
X5337100Y2099100D01*
X5337100Y2099100D01*
G37*
G36*
X2569976Y2544107D02*
G01*
X2522246Y2496377D01*
X2513408Y2487539D01*
X2467304Y2441435D01*
X2458465Y2432597D01*
X2410736Y2384867D01*
X2401897Y2376028D01*
X2400270Y2374402D01*
X2297598Y2271730D01*
X2288760Y2262891D01*
X2287133Y2261265D01*
X2239404Y2213535D01*
X2230565Y2204696D01*
X2184461Y2158593D01*
X2175623Y2149754D01*
X2127893Y2102024D01*
X2007543Y2222374D01*
X2053647Y2268477D01*
X2053647Y2268477D01*
X2062484Y2277315D01*
X2062485Y2277316D01*
X2064112Y2278942D01*
X2064112Y2278942D01*
X2110215Y2325046D01*
X2110215Y2325045D01*
X2111842Y2326672D01*
X2111843Y2326673D01*
X2120680Y2335511D01*
X2120680Y2335511D01*
X2166784Y2381614D01*
X2166784Y2381614D01*
X2177249Y2392079D01*
X2177249Y2392079D01*
X2223352Y2438183D01*
X2223352Y2438183D01*
X2233818Y2448648D01*
X2233817Y2448648D01*
X2279921Y2494751D01*
X2279921Y2494751D01*
X2290386Y2505216D01*
X2290386Y2505216D01*
X2336489Y2551320D01*
X2336489Y2551320D01*
X2345327Y2560157D01*
X2345328Y2560158D01*
X2346955Y2561785D01*
X2346955Y2561785D01*
X2393058Y2607888D01*
X2393058Y2607888D01*
X2394684Y2609515D01*
X2394685Y2609516D01*
X2403523Y2618353D01*
X2403523Y2618353D01*
X2449626Y2664457D01*
X2569976Y2544107D01*
X2569976Y2544107D01*
G37*
G36*
X2775037Y2618353D02*
G01*
X2775037Y2618353D01*
X2783875Y2609515D01*
X2783876Y2609515D01*
X2785502Y2607888D01*
X2785502Y2607888D01*
X2831605Y2561785D01*
X2831605Y2561785D01*
X2833232Y2560158D01*
X2833232Y2560158D01*
X2842071Y2551320D01*
X2842071Y2551320D01*
X2888174Y2505216D01*
X2888174Y2505216D01*
X2898639Y2494751D01*
X2898639Y2494751D01*
X2944743Y2448648D01*
X2944743Y2448648D01*
X2955208Y2438183D01*
X2955208Y2438183D01*
X3001311Y2392079D01*
X3001311Y2392079D01*
X3011776Y2381614D01*
X3011776Y2381614D01*
X3057880Y2335511D01*
X3057880Y2335511D01*
X3066718Y2326672D01*
X3066718Y2326672D01*
X3068345Y2325045D01*
X3068345Y2325046D01*
X3114448Y2278942D01*
X3114448Y2278942D01*
X3116075Y2277316D01*
X3116075Y2277315D01*
X3124913Y2268477D01*
X3124913Y2268477D01*
X3171017Y2222374D01*
X3050667Y2102024D01*
X3004564Y2148127D01*
X3004564Y2148127D01*
X3002937Y2149754D01*
X3002937Y2149754D01*
X2994099Y2158593D01*
X2994099Y2158593D01*
X2947995Y2204696D01*
X2947995Y2204696D01*
X2939157Y2213534D01*
X2939157Y2213535D01*
X2937530Y2215161D01*
X2937530Y2215161D01*
X2891427Y2261265D01*
X2891427Y2261265D01*
X2880962Y2271730D01*
X2880962Y2271730D01*
X2834858Y2317833D01*
X2834858Y2317833D01*
X2824393Y2328298D01*
X2824393Y2328298D01*
X2778290Y2374402D01*
X2778290Y2374402D01*
X2767825Y2384867D01*
X2767825Y2384867D01*
X2721721Y2430970D01*
X2721721Y2430970D01*
X2720095Y2432597D01*
X2720094Y2432597D01*
X2711256Y2441435D01*
X2711256Y2441435D01*
X2665153Y2487539D01*
X2665153Y2487539D01*
X2656314Y2496377D01*
X2656314Y2496377D01*
X2654688Y2498004D01*
X2654687Y2498004D01*
X2608584Y2544107D01*
X2728934Y2664457D01*
X2775037Y2618353D01*
X2775037Y2618353D01*
G37*
G36*
X818759Y2316312D02*
G01*
X828689Y2314337D01*
X842721Y2308525D01*
X855348Y2300088D01*
X866087Y2289348D01*
X874525Y2276721D01*
X880337Y2262689D01*
X881191Y2258397D01*
X883300Y2247794D01*
X883300Y2232606D01*
X882928Y2230737D01*
X880337Y2217711D01*
X874525Y2203679D01*
X866087Y2191052D01*
X855348Y2180313D01*
X842721Y2171875D01*
X828689Y2166063D01*
X818759Y2164088D01*
X813794Y2163100D01*
X798606Y2163100D01*
X793641Y2164088D01*
X783711Y2166063D01*
X769679Y2171875D01*
X757052Y2180313D01*
X746312Y2191052D01*
X737875Y2203679D01*
X732063Y2217711D01*
X729472Y2230737D01*
X729100Y2232606D01*
X729100Y2247794D01*
X731209Y2258397D01*
X732063Y2262689D01*
X737875Y2276721D01*
X746312Y2289348D01*
X757052Y2300088D01*
X769679Y2308525D01*
X783711Y2314337D01*
X793641Y2316312D01*
X798606Y2317300D01*
X813794Y2317300D01*
X818759Y2316312D01*
X818759Y2316312D01*
G37*
G36*
X7061485Y2304986D02*
G01*
X7067862Y2304358D01*
X7076940Y2301604D01*
X7080134Y2300635D01*
X7091442Y2294591D01*
X7101355Y2286455D01*
X7109491Y2276543D01*
X7115535Y2265234D01*
X7116315Y2262665D01*
X7119258Y2252962D01*
X7120515Y2240200D01*
X7119258Y2227438D01*
X7116504Y2218360D01*
X7115535Y2215166D01*
X7109491Y2203858D01*
X7101355Y2193945D01*
X7091442Y2185809D01*
X7080134Y2179765D01*
X7076940Y2178796D01*
X7067862Y2176042D01*
X7064052Y2175667D01*
X7058297Y2175100D01*
X6996903Y2175100D01*
X6991148Y2175667D01*
X6987338Y2176042D01*
X6978260Y2178796D01*
X6975066Y2179765D01*
X6963757Y2185809D01*
X6953845Y2193945D01*
X6945709Y2203858D01*
X6939665Y2215166D01*
X6938696Y2218360D01*
X6935942Y2227438D01*
X6934685Y2240200D01*
X6935942Y2252962D01*
X6938885Y2262665D01*
X6939665Y2265234D01*
X6945709Y2276543D01*
X6953845Y2286455D01*
X6963757Y2294591D01*
X6975066Y2300635D01*
X6978260Y2301604D01*
X6987338Y2304358D01*
X6993714Y2304986D01*
X6996903Y2305300D01*
X7058297Y2305300D01*
X7061485Y2304986D01*
X7061485Y2304986D01*
G37*
G36*
X3629482Y2352816D02*
G01*
X3633252Y2351673D01*
X3636725Y2349816D01*
X3640246Y2346927D01*
X3717086Y2270087D01*
X3719976Y2266565D01*
X3721833Y2263092D01*
X3722976Y2259322D01*
X3723362Y2255403D01*
X3722976Y2251483D01*
X3721833Y2247714D01*
X3719976Y2244240D01*
X3717086Y2240719D01*
X3657924Y2181557D01*
X3654403Y2178667D01*
X3650929Y2176810D01*
X3647160Y2175667D01*
X3643240Y2175281D01*
X3639321Y2175667D01*
X3635552Y2176810D01*
X3632078Y2178667D01*
X3628557Y2181557D01*
X3551717Y2258397D01*
X3548827Y2261918D01*
X3546970Y2265392D01*
X3545827Y2269161D01*
X3545441Y2273080D01*
X3545827Y2277000D01*
X3546970Y2280769D01*
X3548827Y2284243D01*
X3551717Y2287764D01*
X3610879Y2346927D01*
X3614400Y2349816D01*
X3617874Y2351673D01*
X3621643Y2352816D01*
X3625563Y2353202D01*
X3629482Y2352816D01*
X3629482Y2352816D01*
G37*
G36*
X1627067Y2350904D02*
G01*
X1630837Y2349760D01*
X1634310Y2347903D01*
X1637355Y2345405D01*
X1639853Y2342360D01*
X1641710Y2338887D01*
X1642853Y2335117D01*
X1643300Y2330584D01*
X1643300Y2246916D01*
X1642853Y2242383D01*
X1641710Y2238613D01*
X1639853Y2235140D01*
X1637355Y2232095D01*
X1634310Y2229597D01*
X1630837Y2227740D01*
X1627067Y2226597D01*
X1622534Y2226150D01*
X1513866Y2226150D01*
X1509333Y2226597D01*
X1505563Y2227740D01*
X1502090Y2229597D01*
X1499045Y2232095D01*
X1496547Y2235140D01*
X1494690Y2238613D01*
X1493546Y2242383D01*
X1493100Y2246916D01*
X1493100Y2330584D01*
X1493546Y2335117D01*
X1494690Y2338887D01*
X1496547Y2342360D01*
X1499045Y2345405D01*
X1502090Y2347903D01*
X1505563Y2349760D01*
X1509333Y2350904D01*
X1513866Y2351350D01*
X1622534Y2351350D01*
X1627067Y2350904D01*
X1627067Y2350904D01*
G37*
G36*
X3774439Y2497773D02*
G01*
X3778208Y2496630D01*
X3781682Y2494773D01*
X3785203Y2491883D01*
X3862043Y2415043D01*
X3864933Y2411522D01*
X3866790Y2408048D01*
X3867933Y2404279D01*
X3868319Y2400360D01*
X3867933Y2396440D01*
X3866790Y2392671D01*
X3864933Y2389197D01*
X3862043Y2385676D01*
X3802881Y2326514D01*
X3799360Y2323624D01*
X3795886Y2321767D01*
X3792117Y2320624D01*
X3788197Y2320238D01*
X3784278Y2320624D01*
X3780508Y2321767D01*
X3777035Y2323624D01*
X3773513Y2326514D01*
X3696673Y2403354D01*
X3693784Y2406875D01*
X3691927Y2410348D01*
X3690784Y2414118D01*
X3690398Y2418037D01*
X3690784Y2421957D01*
X3691927Y2425726D01*
X3693784Y2429200D01*
X3696673Y2432721D01*
X3755836Y2491883D01*
X3759357Y2494773D01*
X3762831Y2496630D01*
X3766600Y2497773D01*
X3770520Y2498159D01*
X3774439Y2497773D01*
X3774439Y2497773D01*
G37*
G36*
X4840367Y2504154D02*
G01*
X4844137Y2503010D01*
X4847610Y2501153D01*
X4850655Y2498655D01*
X4853153Y2495610D01*
X4855010Y2492137D01*
X4856154Y2488367D01*
X4856600Y2483834D01*
X4856600Y2375166D01*
X4856154Y2370633D01*
X4855010Y2366863D01*
X4853153Y2363390D01*
X4850655Y2360345D01*
X4847610Y2357847D01*
X4844137Y2355990D01*
X4840367Y2354847D01*
X4835834Y2354400D01*
X4752166Y2354400D01*
X4747633Y2354847D01*
X4743863Y2355990D01*
X4740390Y2357847D01*
X4737345Y2360345D01*
X4734847Y2363390D01*
X4732990Y2366863D01*
X4731847Y2370633D01*
X4731400Y2375166D01*
X4731400Y2483834D01*
X4731847Y2488367D01*
X4732990Y2492137D01*
X4734847Y2495610D01*
X4737345Y2498655D01*
X4740390Y2501153D01*
X4743863Y2503010D01*
X4747633Y2504154D01*
X4752166Y2504600D01*
X4835834Y2504600D01*
X4840367Y2504154D01*
X4840367Y2504154D01*
G37*
G36*
X5426367Y2504154D02*
G01*
X5430137Y2503010D01*
X5433610Y2501153D01*
X5436655Y2498655D01*
X5439153Y2495610D01*
X5441010Y2492137D01*
X5442154Y2488367D01*
X5442600Y2483834D01*
X5442600Y2375166D01*
X5442154Y2370633D01*
X5441010Y2366863D01*
X5439153Y2363390D01*
X5436655Y2360345D01*
X5433610Y2357847D01*
X5430137Y2355990D01*
X5426367Y2354847D01*
X5421834Y2354400D01*
X5338166Y2354400D01*
X5333633Y2354847D01*
X5329863Y2355990D01*
X5326390Y2357847D01*
X5323345Y2360345D01*
X5320847Y2363390D01*
X5318990Y2366863D01*
X5317847Y2370633D01*
X5317400Y2375166D01*
X5317400Y2483834D01*
X5317847Y2488367D01*
X5318990Y2492137D01*
X5320847Y2495610D01*
X5323345Y2498655D01*
X5326390Y2501153D01*
X5329863Y2503010D01*
X5333633Y2504154D01*
X5338166Y2504600D01*
X5421834Y2504600D01*
X5426367Y2504154D01*
X5426367Y2504154D01*
G37*
G36*
X5221367Y2504154D02*
G01*
X5225137Y2503010D01*
X5228610Y2501153D01*
X5231655Y2498655D01*
X5234153Y2495610D01*
X5236010Y2492137D01*
X5237154Y2488367D01*
X5237600Y2483834D01*
X5237600Y2375166D01*
X5237154Y2370633D01*
X5236010Y2366863D01*
X5234153Y2363390D01*
X5231655Y2360345D01*
X5228610Y2357847D01*
X5225137Y2355990D01*
X5221367Y2354847D01*
X5216834Y2354400D01*
X5133166Y2354400D01*
X5128633Y2354847D01*
X5124863Y2355990D01*
X5121390Y2357847D01*
X5118345Y2360345D01*
X5115847Y2363390D01*
X5113990Y2366863D01*
X5112847Y2370633D01*
X5112400Y2375166D01*
X5112400Y2483834D01*
X5112847Y2488367D01*
X5113990Y2492137D01*
X5115847Y2495610D01*
X5118345Y2498655D01*
X5121390Y2501153D01*
X5124863Y2503010D01*
X5128633Y2504154D01*
X5133166Y2504600D01*
X5216834Y2504600D01*
X5221367Y2504154D01*
X5221367Y2504154D01*
G37*
G36*
X5045367Y2504154D02*
G01*
X5049137Y2503010D01*
X5052610Y2501153D01*
X5055655Y2498655D01*
X5058153Y2495610D01*
X5060010Y2492137D01*
X5061154Y2488367D01*
X5061600Y2483834D01*
X5061600Y2375166D01*
X5061154Y2370633D01*
X5060010Y2366863D01*
X5058153Y2363390D01*
X5055655Y2360345D01*
X5052610Y2357847D01*
X5049137Y2355990D01*
X5045367Y2354847D01*
X5040834Y2354400D01*
X4957166Y2354400D01*
X4952633Y2354847D01*
X4948863Y2355990D01*
X4945390Y2357847D01*
X4942345Y2360345D01*
X4939847Y2363390D01*
X4937990Y2366863D01*
X4936847Y2370633D01*
X4936400Y2375166D01*
X4936400Y2483834D01*
X4936847Y2488367D01*
X4937990Y2492137D01*
X4939847Y2495610D01*
X4942345Y2498655D01*
X4945390Y2501153D01*
X4948863Y2503010D01*
X4952633Y2504154D01*
X4957166Y2504600D01*
X5040834Y2504600D01*
X5045367Y2504154D01*
X5045367Y2504154D01*
G37*
G36*
X3377180Y2361480D02*
G01*
X3251980Y2361480D01*
X3251980Y2471680D01*
X3377180Y2471680D01*
X3377180Y2361480D01*
X3377180Y2361480D01*
G37*
G36*
X3552180Y2361480D02*
G01*
X3426980Y2361480D01*
X3426980Y2471680D01*
X3552180Y2471680D01*
X3552180Y2361480D01*
X3552180Y2361480D01*
G37*
G36*
X1072759Y2570312D02*
G01*
X1082689Y2568337D01*
X1096721Y2562525D01*
X1109348Y2554088D01*
X1120088Y2543348D01*
X1128525Y2530721D01*
X1134337Y2516689D01*
X1134337Y2516689D01*
X1137058Y2503010D01*
X1137300Y2501794D01*
X1137300Y2486606D01*
X1134337Y2471711D01*
X1128525Y2457679D01*
X1120088Y2445052D01*
X1109348Y2434313D01*
X1096721Y2425875D01*
X1082689Y2420063D01*
X1072759Y2418088D01*
X1067794Y2417100D01*
X1052606Y2417100D01*
X1047641Y2418088D01*
X1037711Y2420063D01*
X1023679Y2425875D01*
X1011052Y2434313D01*
X1000312Y2445052D01*
X991875Y2457679D01*
X986063Y2471711D01*
X983100Y2486606D01*
X983100Y2501794D01*
X983342Y2503010D01*
X986063Y2516689D01*
X986063Y2516689D01*
X991875Y2530721D01*
X1000312Y2543348D01*
X1011052Y2554088D01*
X1023679Y2562525D01*
X1037711Y2568337D01*
X1047641Y2570312D01*
X1052606Y2571300D01*
X1067794Y2571300D01*
X1072759Y2570312D01*
X1072759Y2570312D01*
G37*
G36*
X3552180Y2501480D02*
G01*
X3426980Y2501480D01*
X3426980Y2611680D01*
X3552180Y2611680D01*
X3552180Y2501480D01*
X3552180Y2501480D01*
G37*
G36*
X3377180Y2501480D02*
G01*
X3251980Y2501480D01*
X3251980Y2611680D01*
X3377180Y2611680D01*
X3377180Y2501480D01*
X3377180Y2501480D01*
G37*
G36*
X4840367Y2707354D02*
G01*
X4844137Y2706210D01*
X4847610Y2704353D01*
X4850655Y2701855D01*
X4853153Y2698810D01*
X4855010Y2695337D01*
X4856154Y2691567D01*
X4856600Y2687034D01*
X4856600Y2578366D01*
X4856154Y2573833D01*
X4855010Y2570063D01*
X4853153Y2566590D01*
X4850655Y2563545D01*
X4847610Y2561047D01*
X4844137Y2559190D01*
X4840367Y2558047D01*
X4835834Y2557600D01*
X4752166Y2557600D01*
X4747633Y2558047D01*
X4743863Y2559190D01*
X4740390Y2561047D01*
X4737345Y2563545D01*
X4734847Y2566590D01*
X4732990Y2570063D01*
X4731847Y2573833D01*
X4731400Y2578366D01*
X4731400Y2687034D01*
X4731847Y2691567D01*
X4732990Y2695337D01*
X4734847Y2698810D01*
X4737345Y2701855D01*
X4740390Y2704353D01*
X4743863Y2706210D01*
X4747633Y2707354D01*
X4752166Y2707800D01*
X4835834Y2707800D01*
X4840367Y2707354D01*
X4840367Y2707354D01*
G37*
G36*
X5045367Y2707354D02*
G01*
X5049137Y2706210D01*
X5052610Y2704353D01*
X5055655Y2701855D01*
X5058153Y2698810D01*
X5060010Y2695337D01*
X5061154Y2691567D01*
X5061600Y2687034D01*
X5061600Y2578366D01*
X5061154Y2573833D01*
X5060010Y2570063D01*
X5058153Y2566590D01*
X5055655Y2563545D01*
X5052610Y2561047D01*
X5049137Y2559190D01*
X5045367Y2558047D01*
X5040834Y2557600D01*
X4957166Y2557600D01*
X4952633Y2558047D01*
X4948863Y2559190D01*
X4945390Y2561047D01*
X4942345Y2563545D01*
X4939847Y2566590D01*
X4937990Y2570063D01*
X4936847Y2573833D01*
X4936400Y2578366D01*
X4936400Y2687034D01*
X4936847Y2691567D01*
X4937990Y2695337D01*
X4939847Y2698810D01*
X4942345Y2701855D01*
X4945390Y2704353D01*
X4948863Y2706210D01*
X4952633Y2707354D01*
X4957166Y2707800D01*
X5040834Y2707800D01*
X5045367Y2707354D01*
X5045367Y2707354D01*
G37*
G36*
X5221367Y2707354D02*
G01*
X5225137Y2706210D01*
X5228610Y2704353D01*
X5231655Y2701855D01*
X5234153Y2698810D01*
X5236010Y2695337D01*
X5237154Y2691567D01*
X5237600Y2687034D01*
X5237600Y2578366D01*
X5237154Y2573833D01*
X5236010Y2570063D01*
X5234153Y2566590D01*
X5231655Y2563545D01*
X5228610Y2561047D01*
X5225137Y2559190D01*
X5221367Y2558047D01*
X5216834Y2557600D01*
X5133166Y2557600D01*
X5128633Y2558047D01*
X5124863Y2559190D01*
X5121390Y2561047D01*
X5118345Y2563545D01*
X5115847Y2566590D01*
X5113990Y2570063D01*
X5112847Y2573833D01*
X5112400Y2578366D01*
X5112400Y2687034D01*
X5112847Y2691567D01*
X5113990Y2695337D01*
X5115847Y2698810D01*
X5118345Y2701855D01*
X5121390Y2704353D01*
X5124863Y2706210D01*
X5128633Y2707354D01*
X5133166Y2707800D01*
X5216834Y2707800D01*
X5221367Y2707354D01*
X5221367Y2707354D01*
G37*
G36*
X5426367Y2707354D02*
G01*
X5430137Y2706210D01*
X5433610Y2704353D01*
X5436655Y2701855D01*
X5439153Y2698810D01*
X5441010Y2695337D01*
X5442154Y2691567D01*
X5442600Y2687034D01*
X5442600Y2578366D01*
X5442154Y2573833D01*
X5441010Y2570063D01*
X5439153Y2566590D01*
X5436655Y2563545D01*
X5433610Y2561047D01*
X5430137Y2559190D01*
X5426367Y2558047D01*
X5421834Y2557600D01*
X5338166Y2557600D01*
X5333633Y2558047D01*
X5329863Y2559190D01*
X5326390Y2561047D01*
X5323345Y2563545D01*
X5320847Y2566590D01*
X5318990Y2570063D01*
X5317847Y2573833D01*
X5317400Y2578366D01*
X5317400Y2687034D01*
X5317847Y2691567D01*
X5318990Y2695337D01*
X5320847Y2698810D01*
X5323345Y2701855D01*
X5326390Y2704353D01*
X5329863Y2706210D01*
X5333633Y2707354D01*
X5338166Y2707800D01*
X5421834Y2707800D01*
X5426367Y2707354D01*
X5426367Y2707354D01*
G37*
G36*
X3159582Y2792236D02*
G01*
X3163352Y2791093D01*
X3166825Y2789236D01*
X3170346Y2786347D01*
X3247186Y2709507D01*
X3250076Y2705985D01*
X3251933Y2702512D01*
X3253076Y2698742D01*
X3253462Y2694823D01*
X3253076Y2690903D01*
X3251933Y2687134D01*
X3250076Y2683660D01*
X3247186Y2680139D01*
X3188024Y2620977D01*
X3184503Y2618087D01*
X3181029Y2616230D01*
X3177260Y2615087D01*
X3173340Y2614701D01*
X3169421Y2615087D01*
X3165652Y2616230D01*
X3162178Y2618087D01*
X3158657Y2620977D01*
X3081817Y2697817D01*
X3078927Y2701338D01*
X3077070Y2704812D01*
X3075927Y2708581D01*
X3075541Y2712500D01*
X3075927Y2716420D01*
X3077070Y2720189D01*
X3078927Y2723663D01*
X3081817Y2727184D01*
X3140979Y2786347D01*
X3144500Y2789236D01*
X3147974Y2791093D01*
X3151743Y2792236D01*
X3155663Y2792622D01*
X3159582Y2792236D01*
X3159582Y2792236D01*
G37*
G36*
X4435466Y2802382D02*
G01*
X4438958Y2801323D01*
X4442176Y2799602D01*
X4444997Y2797287D01*
X4447312Y2794466D01*
X4449033Y2791248D01*
X4450092Y2787756D01*
X4450510Y2783511D01*
X4450510Y2669390D01*
X4450092Y2665144D01*
X4449033Y2661652D01*
X4447312Y2658434D01*
X4444997Y2655613D01*
X4442176Y2653298D01*
X4438958Y2651577D01*
X4435466Y2650518D01*
X4431221Y2650100D01*
X4284600Y2650100D01*
X4280354Y2650518D01*
X4276862Y2651577D01*
X4273644Y2653298D01*
X4270823Y2655613D01*
X4268508Y2658434D01*
X4266787Y2661652D01*
X4265728Y2665144D01*
X4265310Y2669390D01*
X4265310Y2783511D01*
X4265728Y2787756D01*
X4266787Y2791248D01*
X4268508Y2794466D01*
X4270823Y2797287D01*
X4273644Y2799602D01*
X4276862Y2801323D01*
X4280354Y2802382D01*
X4284600Y2802800D01*
X4431221Y2802800D01*
X4435466Y2802382D01*
X4435466Y2802382D01*
G37*
G36*
X817019Y2824658D02*
G01*
X828689Y2822337D01*
X842721Y2816525D01*
X855348Y2808087D01*
X866087Y2797348D01*
X874525Y2784721D01*
X880337Y2770689D01*
X881283Y2765934D01*
X882678Y2758919D01*
X883300Y2755794D01*
X883300Y2740606D01*
X880337Y2725711D01*
X874525Y2711679D01*
X866087Y2699052D01*
X855348Y2688313D01*
X842721Y2679875D01*
X828689Y2674063D01*
X818759Y2672088D01*
X813794Y2671100D01*
X798606Y2671100D01*
X793641Y2672088D01*
X783711Y2674063D01*
X769679Y2679875D01*
X757052Y2688313D01*
X746312Y2699052D01*
X737875Y2711679D01*
X732063Y2725711D01*
X729100Y2740606D01*
X729100Y2755794D01*
X729722Y2758919D01*
X731117Y2765934D01*
X732063Y2770689D01*
X737875Y2784721D01*
X746312Y2797348D01*
X757052Y2808087D01*
X769679Y2816525D01*
X783711Y2822337D01*
X795381Y2824658D01*
X798606Y2825300D01*
X813794Y2825300D01*
X817019Y2824658D01*
X817019Y2824658D01*
G37*
G36*
X6114223Y2849130D02*
G01*
X6129710Y2842715D01*
X6143648Y2833401D01*
X6155501Y2821548D01*
X6164815Y2807610D01*
X6171230Y2792123D01*
X6174500Y2775682D01*
X6174500Y2758918D01*
X6171230Y2742477D01*
X6164815Y2726990D01*
X6155501Y2713052D01*
X6143648Y2701199D01*
X6129710Y2691885D01*
X6114223Y2685470D01*
X6097782Y2682200D01*
X6081018Y2682200D01*
X6064577Y2685470D01*
X6049090Y2691885D01*
X6035152Y2701199D01*
X6023298Y2713052D01*
X6013985Y2726990D01*
X6007570Y2742477D01*
X6004300Y2758918D01*
X6004300Y2775682D01*
X6007570Y2792123D01*
X6013985Y2807610D01*
X6023298Y2821548D01*
X6035152Y2833401D01*
X6049090Y2842715D01*
X6064577Y2849130D01*
X6081018Y2852400D01*
X6097782Y2852400D01*
X6114223Y2849130D01*
X6114223Y2849130D01*
G37*
G36*
X6789100Y2721540D02*
G01*
X6608900Y2721540D01*
X6608900Y2861740D01*
X6789100Y2861740D01*
X6789100Y2721540D01*
X6789100Y2721540D01*
G37*
G36*
X2320100Y2729900D02*
G01*
X2159900Y2729900D01*
X2159900Y2890100D01*
X2320100Y2890100D01*
X2320100Y2729900D01*
X2320100Y2729900D01*
G37*
G36*
X1540100Y2729900D02*
G01*
X1379900Y2729900D01*
X1379900Y2890100D01*
X1540100Y2890100D01*
X1540100Y2729900D01*
X1540100Y2729900D01*
G37*
G36*
X3304539Y2937193D02*
G01*
X3308308Y2936050D01*
X3311782Y2934193D01*
X3315303Y2931303D01*
X3392143Y2854463D01*
X3395033Y2850942D01*
X3396890Y2847468D01*
X3398033Y2843699D01*
X3398419Y2839780D01*
X3398033Y2835860D01*
X3396890Y2832091D01*
X3395033Y2828617D01*
X3392143Y2825096D01*
X3332981Y2765934D01*
X3329460Y2763044D01*
X3325986Y2761187D01*
X3322217Y2760044D01*
X3318297Y2759658D01*
X3314378Y2760044D01*
X3310608Y2761187D01*
X3307135Y2763044D01*
X3303613Y2765934D01*
X3226773Y2842773D01*
X3223884Y2846295D01*
X3222027Y2849768D01*
X3220884Y2853538D01*
X3220498Y2857457D01*
X3220884Y2861377D01*
X3222027Y2865146D01*
X3223884Y2868620D01*
X3226773Y2872141D01*
X3285936Y2931303D01*
X3289457Y2934193D01*
X3292931Y2936050D01*
X3296700Y2937193D01*
X3300620Y2937579D01*
X3304539Y2937193D01*
X3304539Y2937193D01*
G37*
G36*
X4840367Y3052553D02*
G01*
X4844137Y3051410D01*
X4847610Y3049553D01*
X4850655Y3047055D01*
X4853153Y3044010D01*
X4855010Y3040537D01*
X4856154Y3036767D01*
X4856600Y3032234D01*
X4856600Y2923566D01*
X4856154Y2919033D01*
X4855010Y2915263D01*
X4853153Y2911790D01*
X4850655Y2908745D01*
X4847610Y2906247D01*
X4844137Y2904390D01*
X4840367Y2903246D01*
X4835834Y2902800D01*
X4752166Y2902800D01*
X4747633Y2903246D01*
X4743863Y2904390D01*
X4740390Y2906247D01*
X4737345Y2908745D01*
X4734847Y2911790D01*
X4732990Y2915263D01*
X4731847Y2919033D01*
X4731400Y2923566D01*
X4731400Y3032234D01*
X4731847Y3036767D01*
X4732990Y3040537D01*
X4734847Y3044010D01*
X4737345Y3047055D01*
X4740390Y3049553D01*
X4743863Y3051410D01*
X4747633Y3052553D01*
X4752166Y3053000D01*
X4835834Y3053000D01*
X4840367Y3052553D01*
X4840367Y3052553D01*
G37*
G36*
X5045367Y3052553D02*
G01*
X5049137Y3051410D01*
X5052610Y3049553D01*
X5055655Y3047055D01*
X5058153Y3044010D01*
X5060010Y3040537D01*
X5061154Y3036767D01*
X5061600Y3032234D01*
X5061600Y2923566D01*
X5061154Y2919033D01*
X5060010Y2915263D01*
X5058153Y2911790D01*
X5055655Y2908745D01*
X5052610Y2906247D01*
X5049137Y2904390D01*
X5045367Y2903246D01*
X5040834Y2902800D01*
X4957166Y2902800D01*
X4952633Y2903246D01*
X4948863Y2904390D01*
X4945390Y2906247D01*
X4942345Y2908745D01*
X4939847Y2911790D01*
X4937990Y2915263D01*
X4936847Y2919033D01*
X4936400Y2923566D01*
X4936400Y3032234D01*
X4936847Y3036767D01*
X4937990Y3040537D01*
X4939847Y3044010D01*
X4942345Y3047055D01*
X4945390Y3049553D01*
X4948863Y3051410D01*
X4952633Y3052553D01*
X4957166Y3053000D01*
X5040834Y3053000D01*
X5045367Y3052553D01*
X5045367Y3052553D01*
G37*
G36*
X5221367Y3052553D02*
G01*
X5225137Y3051410D01*
X5228610Y3049553D01*
X5231655Y3047055D01*
X5234153Y3044010D01*
X5236010Y3040537D01*
X5237154Y3036767D01*
X5237600Y3032234D01*
X5237600Y2923566D01*
X5237154Y2919033D01*
X5236010Y2915263D01*
X5234153Y2911790D01*
X5231655Y2908745D01*
X5228610Y2906247D01*
X5225137Y2904390D01*
X5221367Y2903246D01*
X5216834Y2902800D01*
X5133166Y2902800D01*
X5128633Y2903246D01*
X5124863Y2904390D01*
X5121390Y2906247D01*
X5118345Y2908745D01*
X5115847Y2911790D01*
X5113990Y2915263D01*
X5112847Y2919033D01*
X5112400Y2923566D01*
X5112400Y3032234D01*
X5112847Y3036767D01*
X5113990Y3040537D01*
X5115847Y3044010D01*
X5118345Y3047055D01*
X5121390Y3049553D01*
X5124863Y3051410D01*
X5128633Y3052553D01*
X5133166Y3053000D01*
X5216834Y3053000D01*
X5221367Y3052553D01*
X5221367Y3052553D01*
G37*
G36*
X5426367Y3052553D02*
G01*
X5430137Y3051410D01*
X5433610Y3049553D01*
X5436655Y3047055D01*
X5439153Y3044010D01*
X5441010Y3040537D01*
X5442154Y3036767D01*
X5442600Y3032234D01*
X5442600Y2923566D01*
X5442154Y2919033D01*
X5441010Y2915263D01*
X5439153Y2911790D01*
X5436655Y2908745D01*
X5433610Y2906247D01*
X5430137Y2904390D01*
X5426367Y2903246D01*
X5421834Y2902800D01*
X5338166Y2902800D01*
X5333633Y2903246D01*
X5329863Y2904390D01*
X5326390Y2906247D01*
X5323345Y2908745D01*
X5320847Y2911790D01*
X5318990Y2915263D01*
X5317847Y2919033D01*
X5317400Y2923566D01*
X5317400Y3032234D01*
X5317847Y3036767D01*
X5318990Y3040537D01*
X5320847Y3044010D01*
X5323345Y3047055D01*
X5326390Y3049553D01*
X5329863Y3051410D01*
X5333633Y3052553D01*
X5338166Y3053000D01*
X5421834Y3053000D01*
X5426367Y3052553D01*
X5426367Y3052553D01*
G37*
G36*
X4435466Y3099882D02*
G01*
X4438958Y3098823D01*
X4442176Y3097102D01*
X4444997Y3094787D01*
X4447312Y3091966D01*
X4449033Y3088748D01*
X4450092Y3085256D01*
X4450510Y3081010D01*
X4450510Y2966889D01*
X4450092Y2962644D01*
X4449033Y2959152D01*
X4447312Y2955934D01*
X4444997Y2953113D01*
X4442176Y2950798D01*
X4438958Y2949077D01*
X4435466Y2948018D01*
X4431221Y2947600D01*
X4284600Y2947600D01*
X4280354Y2948018D01*
X4276862Y2949077D01*
X4273644Y2950798D01*
X4270823Y2953113D01*
X4268508Y2955934D01*
X4266787Y2959152D01*
X4265728Y2962644D01*
X4265310Y2966889D01*
X4265310Y3081010D01*
X4265728Y3085256D01*
X4266787Y3088748D01*
X4268508Y3091966D01*
X4270823Y3094787D01*
X4273644Y3097102D01*
X4276862Y3098823D01*
X4280354Y3099882D01*
X4284600Y3100300D01*
X4431221Y3100300D01*
X4435466Y3099882D01*
X4435466Y3099882D01*
G37*
G36*
X6789100Y3071540D02*
G01*
X6608900Y3071540D01*
X6608900Y3211740D01*
X6789100Y3211740D01*
X6789100Y3071540D01*
X6789100Y3071540D01*
G37*
G36*
X6174500Y3082200D02*
G01*
X6004300Y3082200D01*
X6004300Y3252400D01*
X6174500Y3252400D01*
X6174500Y3082200D01*
X6174500Y3082200D01*
G37*
G36*
X7782168Y3501190D02*
G01*
X7797151Y3498210D01*
X7825377Y3486518D01*
X7850780Y3469544D01*
X7872384Y3447940D01*
X7889358Y3422537D01*
X7901050Y3394311D01*
X7907010Y3364346D01*
X7907010Y3333794D01*
X7901050Y3303829D01*
X7889358Y3275603D01*
X7872384Y3250199D01*
X7850780Y3228596D01*
X7825377Y3211622D01*
X7797151Y3199930D01*
X7782168Y3196950D01*
X7767186Y3193970D01*
X7736634Y3193970D01*
X7721651Y3196950D01*
X7706669Y3199930D01*
X7678443Y3211622D01*
X7653039Y3228596D01*
X7631436Y3250199D01*
X7614462Y3275603D01*
X7602770Y3303829D01*
X7596810Y3333794D01*
X7596810Y3364346D01*
X7602770Y3394311D01*
X7614462Y3422537D01*
X7631436Y3447940D01*
X7653039Y3469544D01*
X7678443Y3486518D01*
X7706669Y3498210D01*
X7721651Y3501190D01*
X7736634Y3504170D01*
X7767186Y3504170D01*
X7782168Y3501190D01*
X7782168Y3501190D01*
G37*
G36*
X282259Y3501190D02*
G01*
X297241Y3498210D01*
X325467Y3486518D01*
X350870Y3469544D01*
X372474Y3447940D01*
X389448Y3422537D01*
X401140Y3394311D01*
X407100Y3364346D01*
X407100Y3333794D01*
X401140Y3303829D01*
X389448Y3275603D01*
X372474Y3250199D01*
X350870Y3228596D01*
X325467Y3211622D01*
X297241Y3199930D01*
X282259Y3196950D01*
X267276Y3193970D01*
X236724Y3193970D01*
X221741Y3196950D01*
X206759Y3199930D01*
X178533Y3211622D01*
X153130Y3228596D01*
X131526Y3250199D01*
X114552Y3275603D01*
X102860Y3303829D01*
X96900Y3333794D01*
X96900Y3364346D01*
X102860Y3394311D01*
X114552Y3422537D01*
X131526Y3447940D01*
X153130Y3469544D01*
X178533Y3486518D01*
X206759Y3498210D01*
X221741Y3501190D01*
X236724Y3504170D01*
X267276Y3504170D01*
X282259Y3501190D01*
X282259Y3501190D01*
G37*
G36*
X5325760Y3194840D02*
G01*
X5225560Y3194840D01*
X5225560Y3285040D01*
X5325760Y3285040D01*
X5325760Y3194840D01*
X5325760Y3194840D01*
G37*
G36*
X4893960Y3194840D02*
G01*
X4793760Y3194840D01*
X4793760Y3285040D01*
X4893960Y3285040D01*
X4893960Y3194840D01*
X4893960Y3194840D01*
G37*
G36*
X1074552Y3482794D02*
G01*
X1074553Y3482794D01*
X1074553Y3482794D01*
X1092479Y3477356D01*
X1092480Y3477356D01*
X1092480Y3477356D01*
X1109000Y3468525D01*
X1123481Y3456641D01*
X1135365Y3442160D01*
X1144196Y3425640D01*
X1144196Y3425639D01*
X1149634Y3407713D01*
X1149634Y3407712D01*
X1151010Y3393742D01*
X1151010Y3304398D01*
X1149634Y3290427D01*
X1144196Y3272500D01*
X1135365Y3255980D01*
X1123481Y3241499D01*
X1109000Y3229615D01*
X1092480Y3220784D01*
X1092479Y3220784D01*
X1074553Y3215346D01*
X1074553Y3215346D01*
X1074553Y3215346D01*
X1055910Y3213510D01*
X1037268Y3215346D01*
X1037267Y3215346D01*
X1037267Y3215346D01*
X1019341Y3220784D01*
X1019340Y3220784D01*
X1002820Y3229615D01*
X988339Y3241499D01*
X976455Y3255980D01*
X967624Y3272501D01*
X962186Y3290427D01*
X960810Y3304398D01*
X960810Y3393742D01*
X962186Y3407712D01*
X962186Y3407713D01*
X967624Y3425639D01*
X967624Y3425640D01*
X976455Y3442160D01*
X988339Y3456641D01*
X1002820Y3468525D01*
X1019340Y3477356D01*
X1019340Y3477356D01*
X1019341Y3477356D01*
X1037267Y3482794D01*
X1037267Y3482794D01*
X1037267Y3482794D01*
X1055910Y3484630D01*
X1074552Y3482794D01*
X1074552Y3482794D01*
G37*
G36*
X2852552Y3482794D02*
G01*
X2852553Y3482794D01*
X2852553Y3482794D01*
X2870479Y3477356D01*
X2870479Y3477356D01*
X2870480Y3477356D01*
X2887000Y3468525D01*
X2901481Y3456641D01*
X2913365Y3442160D01*
X2922196Y3425640D01*
X2922196Y3425639D01*
X2927634Y3407713D01*
X2927634Y3407712D01*
X2929010Y3393742D01*
X2929010Y3304398D01*
X2927634Y3290427D01*
X2922196Y3272500D01*
X2913365Y3255980D01*
X2901481Y3241499D01*
X2887000Y3229615D01*
X2870480Y3220784D01*
X2870479Y3220784D01*
X2852553Y3215346D01*
X2852553Y3215346D01*
X2852552Y3215346D01*
X2833910Y3213510D01*
X2815268Y3215346D01*
X2815267Y3215346D01*
X2815267Y3215346D01*
X2797341Y3220784D01*
X2797340Y3220784D01*
X2780820Y3229615D01*
X2766339Y3241499D01*
X2754455Y3255980D01*
X2745624Y3272501D01*
X2740186Y3290427D01*
X2738810Y3304398D01*
X2738810Y3393742D01*
X2740186Y3407712D01*
X2740186Y3407713D01*
X2745624Y3425639D01*
X2745624Y3425640D01*
X2754455Y3442160D01*
X2766339Y3456641D01*
X2780820Y3468525D01*
X2797340Y3477356D01*
X2797340Y3477356D01*
X2797341Y3477356D01*
X2815267Y3482794D01*
X2815267Y3482794D01*
X2815267Y3482794D01*
X2833910Y3484630D01*
X2852552Y3482794D01*
X2852552Y3482794D01*
G37*
G36*
X3106552Y3482794D02*
G01*
X3106553Y3482794D01*
X3106553Y3482794D01*
X3124479Y3477356D01*
X3124479Y3477356D01*
X3124480Y3477356D01*
X3141000Y3468525D01*
X3155481Y3456641D01*
X3167365Y3442160D01*
X3176196Y3425640D01*
X3176196Y3425639D01*
X3181634Y3407713D01*
X3181634Y3407712D01*
X3183010Y3393742D01*
X3183010Y3304398D01*
X3181634Y3290427D01*
X3176196Y3272500D01*
X3167365Y3255980D01*
X3155481Y3241499D01*
X3141000Y3229615D01*
X3124480Y3220784D01*
X3124479Y3220784D01*
X3106553Y3215346D01*
X3106553Y3215346D01*
X3106552Y3215346D01*
X3087910Y3213510D01*
X3069268Y3215346D01*
X3069267Y3215346D01*
X3069267Y3215346D01*
X3051341Y3220784D01*
X3051340Y3220784D01*
X3034820Y3229615D01*
X3020339Y3241499D01*
X3008455Y3255980D01*
X2999624Y3272501D01*
X2994186Y3290427D01*
X2992810Y3304398D01*
X2992810Y3393742D01*
X2994186Y3407712D01*
X2994186Y3407713D01*
X2999624Y3425639D01*
X2999624Y3425640D01*
X3008455Y3442160D01*
X3020339Y3456641D01*
X3034820Y3468525D01*
X3051340Y3477356D01*
X3051340Y3477356D01*
X3051341Y3477356D01*
X3069267Y3482794D01*
X3069267Y3482794D01*
X3069267Y3482794D01*
X3087910Y3484630D01*
X3106552Y3482794D01*
X3106552Y3482794D01*
G37*
G36*
X3360552Y3482794D02*
G01*
X3360553Y3482794D01*
X3360553Y3482794D01*
X3378479Y3477356D01*
X3378479Y3477356D01*
X3378480Y3477356D01*
X3395000Y3468525D01*
X3409481Y3456641D01*
X3421365Y3442160D01*
X3430196Y3425640D01*
X3430196Y3425639D01*
X3435634Y3407713D01*
X3435634Y3407712D01*
X3437010Y3393742D01*
X3437010Y3304398D01*
X3435634Y3290427D01*
X3430196Y3272500D01*
X3421365Y3255980D01*
X3409481Y3241499D01*
X3395000Y3229615D01*
X3378480Y3220784D01*
X3378479Y3220784D01*
X3360553Y3215346D01*
X3360553Y3215346D01*
X3360552Y3215346D01*
X3341910Y3213510D01*
X3323268Y3215346D01*
X3323267Y3215346D01*
X3323267Y3215346D01*
X3305341Y3220784D01*
X3305340Y3220784D01*
X3288820Y3229615D01*
X3274339Y3241499D01*
X3262455Y3255980D01*
X3253624Y3272501D01*
X3248186Y3290427D01*
X3246810Y3304398D01*
X3246810Y3393742D01*
X3248186Y3407712D01*
X3248186Y3407713D01*
X3253624Y3425639D01*
X3253624Y3425640D01*
X3262455Y3442160D01*
X3274339Y3456641D01*
X3288820Y3468525D01*
X3305340Y3477356D01*
X3305340Y3477356D01*
X3305341Y3477356D01*
X3323267Y3482794D01*
X3323267Y3482794D01*
X3323267Y3482794D01*
X3341910Y3484630D01*
X3360552Y3482794D01*
X3360552Y3482794D01*
G37*
G36*
X3614552Y3482794D02*
G01*
X3614553Y3482794D01*
X3614553Y3482794D01*
X3632479Y3477356D01*
X3632479Y3477356D01*
X3632480Y3477356D01*
X3649000Y3468525D01*
X3663481Y3456641D01*
X3675365Y3442160D01*
X3684196Y3425640D01*
X3684196Y3425639D01*
X3689634Y3407713D01*
X3689634Y3407712D01*
X3691010Y3393742D01*
X3691010Y3304398D01*
X3689634Y3290427D01*
X3684196Y3272500D01*
X3675365Y3255980D01*
X3663481Y3241499D01*
X3649000Y3229615D01*
X3632480Y3220784D01*
X3632479Y3220784D01*
X3614553Y3215346D01*
X3614553Y3215346D01*
X3614552Y3215346D01*
X3595910Y3213510D01*
X3577268Y3215346D01*
X3577267Y3215346D01*
X3577267Y3215346D01*
X3559341Y3220784D01*
X3559340Y3220784D01*
X3542820Y3229615D01*
X3528339Y3241499D01*
X3516455Y3255980D01*
X3507624Y3272501D01*
X3502186Y3290427D01*
X3500810Y3304398D01*
X3500810Y3393742D01*
X3502186Y3407712D01*
X3502186Y3407713D01*
X3507624Y3425639D01*
X3507624Y3425640D01*
X3516455Y3442160D01*
X3528339Y3456641D01*
X3542820Y3468525D01*
X3559340Y3477356D01*
X3559340Y3477356D01*
X3559341Y3477356D01*
X3577267Y3482794D01*
X3577267Y3482794D01*
X3577267Y3482794D01*
X3595910Y3484630D01*
X3614552Y3482794D01*
X3614552Y3482794D01*
G37*
G36*
X3868552Y3482794D02*
G01*
X3868553Y3482794D01*
X3868553Y3482794D01*
X3886479Y3477356D01*
X3886479Y3477356D01*
X3886480Y3477356D01*
X3903000Y3468525D01*
X3917481Y3456641D01*
X3929365Y3442160D01*
X3938196Y3425640D01*
X3938196Y3425639D01*
X3943634Y3407713D01*
X3943634Y3407712D01*
X3945010Y3393742D01*
X3945010Y3304398D01*
X3943634Y3290427D01*
X3938196Y3272500D01*
X3929365Y3255980D01*
X3917481Y3241499D01*
X3903000Y3229615D01*
X3886480Y3220784D01*
X3886479Y3220784D01*
X3868553Y3215346D01*
X3868553Y3215346D01*
X3868552Y3215346D01*
X3849910Y3213510D01*
X3831268Y3215346D01*
X3831267Y3215346D01*
X3831267Y3215346D01*
X3813341Y3220784D01*
X3813340Y3220784D01*
X3796820Y3229615D01*
X3782339Y3241499D01*
X3770455Y3255980D01*
X3761624Y3272501D01*
X3756186Y3290427D01*
X3754810Y3304398D01*
X3754810Y3393742D01*
X3756186Y3407712D01*
X3756186Y3407713D01*
X3761624Y3425639D01*
X3761624Y3425640D01*
X3770455Y3442160D01*
X3782339Y3456641D01*
X3796820Y3468525D01*
X3813340Y3477356D01*
X3813340Y3477356D01*
X3813341Y3477356D01*
X3831267Y3482794D01*
X3831267Y3482794D01*
X3831267Y3482794D01*
X3849910Y3484630D01*
X3868552Y3482794D01*
X3868552Y3482794D01*
G37*
G36*
X4122552Y3482794D02*
G01*
X4122553Y3482794D01*
X4122553Y3482794D01*
X4140479Y3477356D01*
X4140479Y3477356D01*
X4140480Y3477356D01*
X4157000Y3468525D01*
X4171481Y3456641D01*
X4183365Y3442160D01*
X4192196Y3425640D01*
X4192196Y3425639D01*
X4197634Y3407713D01*
X4197634Y3407712D01*
X4199010Y3393742D01*
X4199010Y3304398D01*
X4197634Y3290427D01*
X4192196Y3272500D01*
X4183365Y3255980D01*
X4171481Y3241499D01*
X4157000Y3229615D01*
X4140480Y3220784D01*
X4140479Y3220784D01*
X4122553Y3215346D01*
X4122553Y3215346D01*
X4122552Y3215346D01*
X4103910Y3213510D01*
X4085268Y3215346D01*
X4085267Y3215346D01*
X4085267Y3215346D01*
X4067341Y3220784D01*
X4067340Y3220784D01*
X4050820Y3229615D01*
X4036339Y3241499D01*
X4024455Y3255980D01*
X4015624Y3272501D01*
X4010186Y3290427D01*
X4008810Y3304398D01*
X4008810Y3393742D01*
X4010186Y3407712D01*
X4010186Y3407713D01*
X4015624Y3425639D01*
X4015624Y3425640D01*
X4024455Y3442160D01*
X4036339Y3456641D01*
X4050820Y3468525D01*
X4067340Y3477356D01*
X4067340Y3477356D01*
X4067341Y3477356D01*
X4085267Y3482794D01*
X4085267Y3482794D01*
X4085267Y3482794D01*
X4103910Y3484630D01*
X4122552Y3482794D01*
X4122552Y3482794D01*
G37*
G36*
X4376552Y3482794D02*
G01*
X4376553Y3482794D01*
X4376553Y3482794D01*
X4394479Y3477356D01*
X4394480Y3477356D01*
X4394480Y3477356D01*
X4411000Y3468525D01*
X4425481Y3456641D01*
X4437365Y3442160D01*
X4446196Y3425640D01*
X4446196Y3425639D01*
X4451634Y3407713D01*
X4451634Y3407712D01*
X4453010Y3393742D01*
X4453010Y3304398D01*
X4451634Y3290427D01*
X4446196Y3272500D01*
X4437365Y3255980D01*
X4425481Y3241499D01*
X4411000Y3229615D01*
X4394480Y3220784D01*
X4394479Y3220784D01*
X4376553Y3215346D01*
X4376553Y3215346D01*
X4376553Y3215346D01*
X4357910Y3213510D01*
X4339268Y3215346D01*
X4339267Y3215346D01*
X4339267Y3215346D01*
X4321341Y3220784D01*
X4321340Y3220784D01*
X4304820Y3229615D01*
X4290339Y3241499D01*
X4278455Y3255980D01*
X4269624Y3272501D01*
X4264186Y3290427D01*
X4262810Y3304398D01*
X4262810Y3393742D01*
X4264186Y3407712D01*
X4264186Y3407713D01*
X4269624Y3425639D01*
X4269624Y3425640D01*
X4278455Y3442160D01*
X4290339Y3456641D01*
X4304820Y3468525D01*
X4321340Y3477356D01*
X4321340Y3477356D01*
X4321341Y3477356D01*
X4339267Y3482794D01*
X4339267Y3482794D01*
X4339268Y3482794D01*
X4357910Y3484630D01*
X4376552Y3482794D01*
X4376552Y3482794D01*
G37*
G36*
X4630552Y3482794D02*
G01*
X4630553Y3482794D01*
X4630553Y3482794D01*
X4648479Y3477356D01*
X4648480Y3477356D01*
X4648480Y3477356D01*
X4665000Y3468525D01*
X4679481Y3456641D01*
X4691365Y3442160D01*
X4700196Y3425640D01*
X4700196Y3425639D01*
X4705634Y3407713D01*
X4705634Y3407712D01*
X4707010Y3393742D01*
X4707010Y3304398D01*
X4705634Y3290427D01*
X4700196Y3272500D01*
X4691365Y3255980D01*
X4679481Y3241499D01*
X4665000Y3229615D01*
X4648480Y3220784D01*
X4648479Y3220784D01*
X4630553Y3215346D01*
X4630553Y3215346D01*
X4630553Y3215346D01*
X4611910Y3213510D01*
X4593268Y3215346D01*
X4593267Y3215346D01*
X4593267Y3215346D01*
X4575341Y3220784D01*
X4575340Y3220784D01*
X4558820Y3229615D01*
X4544339Y3241499D01*
X4532455Y3255980D01*
X4523624Y3272501D01*
X4518186Y3290427D01*
X4516810Y3304398D01*
X4516810Y3393742D01*
X4518186Y3407712D01*
X4518186Y3407713D01*
X4523624Y3425639D01*
X4523624Y3425640D01*
X4532455Y3442160D01*
X4544339Y3456641D01*
X4558820Y3468525D01*
X4575340Y3477356D01*
X4575340Y3477356D01*
X4575341Y3477356D01*
X4593267Y3482794D01*
X4593267Y3482794D01*
X4593268Y3482794D01*
X4611910Y3484630D01*
X4630552Y3482794D01*
X4630552Y3482794D01*
G37*
G36*
X2598552Y3482794D02*
G01*
X2598553Y3482794D01*
X2598553Y3482794D01*
X2616479Y3477356D01*
X2616480Y3477356D01*
X2616480Y3477356D01*
X2633000Y3468525D01*
X2647481Y3456641D01*
X2659365Y3442160D01*
X2668196Y3425640D01*
X2668196Y3425639D01*
X2673634Y3407713D01*
X2673634Y3407712D01*
X2675010Y3393742D01*
X2675010Y3304398D01*
X2673634Y3290427D01*
X2668196Y3272500D01*
X2659365Y3255980D01*
X2647481Y3241499D01*
X2633000Y3229615D01*
X2616480Y3220784D01*
X2616479Y3220784D01*
X2598553Y3215346D01*
X2598553Y3215346D01*
X2598553Y3215346D01*
X2579910Y3213510D01*
X2561268Y3215346D01*
X2561267Y3215346D01*
X2561267Y3215346D01*
X2543341Y3220784D01*
X2543340Y3220784D01*
X2526820Y3229615D01*
X2512339Y3241499D01*
X2500455Y3255980D01*
X2491624Y3272501D01*
X2486186Y3290427D01*
X2484810Y3304398D01*
X2484810Y3393742D01*
X2486186Y3407712D01*
X2486186Y3407713D01*
X2491624Y3425639D01*
X2491624Y3425640D01*
X2500455Y3442160D01*
X2512339Y3456641D01*
X2526820Y3468525D01*
X2543340Y3477356D01*
X2543340Y3477356D01*
X2543341Y3477356D01*
X2561267Y3482794D01*
X2561267Y3482794D01*
X2561268Y3482794D01*
X2579910Y3484630D01*
X2598552Y3482794D01*
X2598552Y3482794D01*
G37*
G36*
X2344552Y3482794D02*
G01*
X2344553Y3482794D01*
X2344553Y3482794D01*
X2362479Y3477356D01*
X2362480Y3477356D01*
X2362480Y3477356D01*
X2379000Y3468525D01*
X2393481Y3456641D01*
X2405365Y3442160D01*
X2414196Y3425640D01*
X2414196Y3425639D01*
X2419634Y3407713D01*
X2419634Y3407712D01*
X2421010Y3393742D01*
X2421010Y3304398D01*
X2419634Y3290427D01*
X2414196Y3272500D01*
X2405365Y3255980D01*
X2393481Y3241499D01*
X2379000Y3229615D01*
X2362480Y3220784D01*
X2362479Y3220784D01*
X2344553Y3215346D01*
X2344553Y3215346D01*
X2344553Y3215346D01*
X2325910Y3213510D01*
X2307268Y3215346D01*
X2307267Y3215346D01*
X2307267Y3215346D01*
X2289341Y3220784D01*
X2289340Y3220784D01*
X2272820Y3229615D01*
X2258339Y3241499D01*
X2246455Y3255980D01*
X2237624Y3272501D01*
X2232186Y3290427D01*
X2230810Y3304398D01*
X2230810Y3393742D01*
X2232186Y3407712D01*
X2232186Y3407713D01*
X2237624Y3425639D01*
X2237624Y3425640D01*
X2246455Y3442160D01*
X2258339Y3456641D01*
X2272820Y3468525D01*
X2289340Y3477356D01*
X2289340Y3477356D01*
X2289341Y3477356D01*
X2307267Y3482794D01*
X2307267Y3482794D01*
X2307268Y3482794D01*
X2325910Y3484630D01*
X2344552Y3482794D01*
X2344552Y3482794D01*
G37*
G36*
X2090552Y3482794D02*
G01*
X2090553Y3482794D01*
X2090553Y3482794D01*
X2108479Y3477356D01*
X2108480Y3477356D01*
X2108480Y3477356D01*
X2125000Y3468525D01*
X2139481Y3456641D01*
X2151365Y3442160D01*
X2160196Y3425640D01*
X2160196Y3425639D01*
X2165634Y3407713D01*
X2165634Y3407712D01*
X2167010Y3393742D01*
X2167010Y3304398D01*
X2165634Y3290427D01*
X2160196Y3272500D01*
X2151365Y3255980D01*
X2139481Y3241499D01*
X2125000Y3229615D01*
X2108480Y3220784D01*
X2108479Y3220784D01*
X2090553Y3215346D01*
X2090553Y3215346D01*
X2090552Y3215346D01*
X2071910Y3213510D01*
X2053268Y3215346D01*
X2053267Y3215346D01*
X2053267Y3215346D01*
X2035341Y3220784D01*
X2035340Y3220784D01*
X2018820Y3229615D01*
X2004339Y3241499D01*
X1992455Y3255980D01*
X1983624Y3272501D01*
X1978186Y3290427D01*
X1976810Y3304398D01*
X1976810Y3393742D01*
X1978186Y3407712D01*
X1978186Y3407713D01*
X1983624Y3425639D01*
X1983624Y3425640D01*
X1992455Y3442160D01*
X2004339Y3456641D01*
X2018820Y3468525D01*
X2035340Y3477356D01*
X2035340Y3477356D01*
X2035341Y3477356D01*
X2053267Y3482794D01*
X2053267Y3482794D01*
X2053267Y3482794D01*
X2071910Y3484630D01*
X2090552Y3482794D01*
X2090552Y3482794D01*
G37*
G36*
X1836552Y3482794D02*
G01*
X1836553Y3482794D01*
X1836553Y3482794D01*
X1854479Y3477356D01*
X1854479Y3477356D01*
X1854480Y3477356D01*
X1871000Y3468525D01*
X1885481Y3456641D01*
X1897365Y3442160D01*
X1906196Y3425640D01*
X1906196Y3425639D01*
X1911634Y3407713D01*
X1911634Y3407712D01*
X1913010Y3393742D01*
X1913010Y3304398D01*
X1911634Y3290427D01*
X1906196Y3272500D01*
X1897365Y3255980D01*
X1885481Y3241499D01*
X1871000Y3229615D01*
X1854480Y3220784D01*
X1854479Y3220784D01*
X1836553Y3215346D01*
X1836553Y3215346D01*
X1836552Y3215346D01*
X1817910Y3213510D01*
X1799268Y3215346D01*
X1799267Y3215346D01*
X1799267Y3215346D01*
X1781341Y3220784D01*
X1781340Y3220784D01*
X1764820Y3229615D01*
X1750339Y3241499D01*
X1738455Y3255980D01*
X1729624Y3272501D01*
X1724186Y3290427D01*
X1722810Y3304398D01*
X1722810Y3393742D01*
X1724186Y3407712D01*
X1724186Y3407713D01*
X1729624Y3425639D01*
X1729624Y3425640D01*
X1738455Y3442160D01*
X1750339Y3456641D01*
X1764820Y3468525D01*
X1781340Y3477356D01*
X1781340Y3477356D01*
X1781341Y3477356D01*
X1799267Y3482794D01*
X1799267Y3482794D01*
X1799267Y3482794D01*
X1817910Y3484630D01*
X1836552Y3482794D01*
X1836552Y3482794D01*
G37*
G36*
X1582552Y3482794D02*
G01*
X1582553Y3482794D01*
X1582553Y3482794D01*
X1600479Y3477356D01*
X1600479Y3477356D01*
X1600480Y3477356D01*
X1617000Y3468525D01*
X1631481Y3456641D01*
X1643365Y3442160D01*
X1652196Y3425640D01*
X1652196Y3425639D01*
X1657634Y3407713D01*
X1657634Y3407712D01*
X1659010Y3393742D01*
X1659010Y3304398D01*
X1657634Y3290427D01*
X1652196Y3272500D01*
X1643365Y3255980D01*
X1631481Y3241499D01*
X1617000Y3229615D01*
X1600480Y3220784D01*
X1600479Y3220784D01*
X1582553Y3215346D01*
X1582553Y3215346D01*
X1582552Y3215346D01*
X1563910Y3213510D01*
X1545268Y3215346D01*
X1545267Y3215346D01*
X1545267Y3215346D01*
X1527341Y3220784D01*
X1527340Y3220784D01*
X1510820Y3229615D01*
X1496339Y3241499D01*
X1484455Y3255980D01*
X1475624Y3272501D01*
X1470186Y3290427D01*
X1468810Y3304398D01*
X1468810Y3393742D01*
X1470186Y3407712D01*
X1470186Y3407713D01*
X1475624Y3425639D01*
X1475624Y3425640D01*
X1484455Y3442160D01*
X1496339Y3456641D01*
X1510820Y3468525D01*
X1527340Y3477356D01*
X1527340Y3477356D01*
X1527341Y3477356D01*
X1545267Y3482794D01*
X1545267Y3482794D01*
X1545267Y3482794D01*
X1563910Y3484630D01*
X1582552Y3482794D01*
X1582552Y3482794D01*
G37*
G36*
X1328552Y3482794D02*
G01*
X1328553Y3482794D01*
X1328553Y3482794D01*
X1346479Y3477356D01*
X1346480Y3477356D01*
X1346480Y3477356D01*
X1363000Y3468525D01*
X1377481Y3456641D01*
X1389365Y3442160D01*
X1398196Y3425640D01*
X1398196Y3425639D01*
X1403634Y3407713D01*
X1403634Y3407712D01*
X1405010Y3393742D01*
X1405010Y3304398D01*
X1403634Y3290427D01*
X1398196Y3272500D01*
X1389365Y3255980D01*
X1377481Y3241499D01*
X1363000Y3229615D01*
X1346480Y3220784D01*
X1346479Y3220784D01*
X1328553Y3215346D01*
X1328553Y3215346D01*
X1328553Y3215346D01*
X1309910Y3213510D01*
X1291268Y3215346D01*
X1291267Y3215346D01*
X1291267Y3215346D01*
X1273341Y3220784D01*
X1273340Y3220784D01*
X1256820Y3229615D01*
X1242339Y3241499D01*
X1230455Y3255980D01*
X1221624Y3272501D01*
X1216186Y3290427D01*
X1214810Y3304398D01*
X1214810Y3393742D01*
X1216186Y3407712D01*
X1216186Y3407713D01*
X1221624Y3425639D01*
X1221624Y3425640D01*
X1230455Y3442160D01*
X1242339Y3456641D01*
X1256820Y3468525D01*
X1273340Y3477356D01*
X1273340Y3477356D01*
X1273341Y3477356D01*
X1291267Y3482794D01*
X1291267Y3482794D01*
X1291268Y3482794D01*
X1309910Y3484630D01*
X1328552Y3482794D01*
X1328552Y3482794D01*
G37*
G36*
X897010Y3213970D02*
G01*
X706810Y3213970D01*
X706810Y3484170D01*
X897010Y3484170D01*
X897010Y3213970D01*
X897010Y3213970D01*
G37*
G36*
X5525760Y3289840D02*
G01*
X5425560Y3289840D01*
X5425560Y3380040D01*
X5525760Y3380040D01*
X5525760Y3289840D01*
X5525760Y3289840D01*
G37*
G36*
X5093960Y3289840D02*
G01*
X4993760Y3289840D01*
X4993760Y3380040D01*
X5093960Y3380040D01*
X5093960Y3289840D01*
X5093960Y3289840D01*
G37*
G36*
X5325760Y3384840D02*
G01*
X5225560Y3384840D01*
X5225560Y3475040D01*
X5325760Y3475040D01*
X5325760Y3384840D01*
X5325760Y3384840D01*
G37*
G36*
X4893960Y3384840D02*
G01*
X4793760Y3384840D01*
X4793760Y3475040D01*
X4893960Y3475040D01*
X4893960Y3384840D01*
X4893960Y3384840D01*
G37*
M02*
