G04 #@! TF.GenerationSoftware,KiCad,Pcbnew,(5.1.0)-1*
G04 #@! TF.CreationDate,2022-04-18T23:31:18-07:00*
G04 #@! TF.ProjectId,1602A_LCD Serial Backpack,31363032-415f-44c4-9344-205365726961,rev?*
G04 #@! TF.SameCoordinates,PX660b0c0PY66ff300*
G04 #@! TF.FileFunction,Legend,Top*
G04 #@! TF.FilePolarity,Positive*
%FSLAX45Y45*%
G04 Gerber Fmt 4.5, Leading zero omitted, Abs format (unit mm)*
G04 Created by KiCad (PCBNEW (5.1.0)-1) date 2022-04-18 23:31:18*
%MOMM*%
%LPD*%
G04 APERTURE LIST*
%ADD10C,0.150000*%
%ADD11C,0.120000*%
%ADD12O,1.852000X1.302000*%
%ADD13C,3.102000*%
%ADD14O,1.902000X2.702000*%
%ADD15R,1.902000X2.702000*%
%ADD16R,3.102000X3.102000*%
%ADD17R,1.702000X1.702000*%
%ADD18C,1.702000*%
%ADD19R,1.802000X1.802000*%
%ADD20O,1.802000X1.802000*%
%ADD21C,1.542000*%
%ADD22R,1.102000X1.602000*%
%ADD23C,0.100000*%
%ADD24C,1.252000*%
%ADD25C,2.000000*%
G04 APERTURE END LIST*
D10*
X4074883Y2166333D02*
X4122502Y2166333D01*
X4065359Y2137762D02*
X4098693Y2237762D01*
X4132026Y2137762D01*
X4165359Y2237762D02*
X4165359Y2156810D01*
X4170121Y2147286D01*
X4174883Y2142524D01*
X4184407Y2137762D01*
X4203455Y2137762D01*
X4212979Y2142524D01*
X4217740Y2147286D01*
X4222502Y2156810D01*
X4222502Y2237762D01*
X4255836Y2237762D02*
X4312979Y2237762D01*
X4284407Y2137762D02*
X4284407Y2237762D01*
X4365360Y2237762D02*
X4384407Y2237762D01*
X4393931Y2233000D01*
X4403455Y2223476D01*
X4408217Y2204429D01*
X4408217Y2171095D01*
X4403455Y2152048D01*
X4393931Y2142524D01*
X4384407Y2137762D01*
X4365360Y2137762D01*
X4355836Y2142524D01*
X4346312Y2152048D01*
X4341550Y2171095D01*
X4341550Y2204429D01*
X4346312Y2223476D01*
X4355836Y2233000D01*
X4365360Y2237762D01*
X4096312Y1972762D02*
X4062978Y2020381D01*
X4039169Y1972762D02*
X4039169Y2072762D01*
X4077264Y2072762D01*
X4086788Y2068000D01*
X4091550Y2063238D01*
X4096312Y2053714D01*
X4096312Y2039429D01*
X4091550Y2029905D01*
X4086788Y2025143D01*
X4077264Y2020381D01*
X4039169Y2020381D01*
X4139169Y2025143D02*
X4172502Y2025143D01*
X4186788Y1972762D02*
X4139169Y1972762D01*
X4139169Y2072762D01*
X4186788Y2072762D01*
X4224883Y1977524D02*
X4239169Y1972762D01*
X4262979Y1972762D01*
X4272502Y1977524D01*
X4277264Y1982286D01*
X4282026Y1991810D01*
X4282026Y2001333D01*
X4277264Y2010857D01*
X4272502Y2015619D01*
X4262979Y2020381D01*
X4243931Y2025143D01*
X4234407Y2029905D01*
X4229645Y2034667D01*
X4224883Y2044190D01*
X4224883Y2053714D01*
X4229645Y2063238D01*
X4234407Y2068000D01*
X4243931Y2072762D01*
X4267740Y2072762D01*
X4282026Y2068000D01*
X4324883Y2025143D02*
X4358217Y2025143D01*
X4372502Y1972762D02*
X4324883Y1972762D01*
X4324883Y2072762D01*
X4372502Y2072762D01*
X4401074Y2072762D02*
X4458217Y2072762D01*
X4429645Y1972762D02*
X4429645Y2072762D01*
X4944052Y2859962D02*
X4944052Y2959962D01*
X4982148Y2959962D01*
X4991671Y2955200D01*
X4996433Y2950438D01*
X5001195Y2940914D01*
X5001195Y2926629D01*
X4996433Y2917105D01*
X4991671Y2912343D01*
X4982148Y2907581D01*
X4944052Y2907581D01*
X5034529Y2959962D02*
X5058338Y2859962D01*
X5077386Y2931390D01*
X5096433Y2859962D01*
X5120243Y2959962D01*
X5158338Y2859962D02*
X5158338Y2959962D01*
X5191671Y2888533D01*
X5225005Y2959962D01*
X5225005Y2859962D01*
X5382148Y2912343D02*
X5396433Y2907581D01*
X5401195Y2902819D01*
X5405957Y2893295D01*
X5405957Y2879010D01*
X5401195Y2869486D01*
X5396433Y2864724D01*
X5386910Y2859962D01*
X5348814Y2859962D01*
X5348814Y2959962D01*
X5382148Y2959962D01*
X5391671Y2955200D01*
X5396433Y2950438D01*
X5401195Y2940914D01*
X5401195Y2931390D01*
X5396433Y2921867D01*
X5391671Y2917105D01*
X5382148Y2912343D01*
X5348814Y2912343D01*
X5496433Y2859962D02*
X5448814Y2859962D01*
X5448814Y2959962D01*
D11*
X5043860Y3019896D02*
X5073860Y2989896D01*
X5013860Y2989896D02*
X5073860Y2989896D01*
X5043860Y3019896D02*
X5013860Y2989896D01*
X4968860Y3039896D02*
X4968860Y3239896D01*
X5378860Y3039896D02*
X4968860Y3039896D01*
X5378860Y3239896D02*
X5378860Y3039896D01*
X4968860Y3239896D02*
X5378860Y3239896D01*
X4870375Y1929000D02*
X4922625Y1929000D01*
X4870375Y1787000D02*
X4922625Y1787000D01*
X2452845Y1819950D02*
X2400595Y1819950D01*
X2452845Y1961950D02*
X2400595Y1961950D01*
X4093700Y1733800D02*
X4093700Y1933800D01*
X4373700Y1733800D02*
X4093700Y1733800D01*
X4373700Y1933800D02*
X4373700Y1733800D01*
X4093700Y1933800D02*
X4373700Y1933800D01*
D10*
X679691Y3068722D02*
X679691Y3168722D01*
X703501Y3168722D01*
X717787Y3163960D01*
X727310Y3154436D01*
X732072Y3144912D01*
X736834Y3125865D01*
X736834Y3111579D01*
X732072Y3092531D01*
X727310Y3083008D01*
X717787Y3073484D01*
X703501Y3068722D01*
X679691Y3068722D01*
X774929Y3073484D02*
X789215Y3068722D01*
X813025Y3068722D01*
X822548Y3073484D01*
X827310Y3078246D01*
X832072Y3087770D01*
X832072Y3097293D01*
X827310Y3106817D01*
X822548Y3111579D01*
X813025Y3116341D01*
X793977Y3121103D01*
X784453Y3125865D01*
X779691Y3130627D01*
X774929Y3140150D01*
X774929Y3149674D01*
X779691Y3159198D01*
X784453Y3163960D01*
X793977Y3168722D01*
X817787Y3168722D01*
X832072Y3163960D01*
X927310Y3068722D02*
X870168Y3068722D01*
X898739Y3068722D02*
X898739Y3168722D01*
X889215Y3154436D01*
X879691Y3144912D01*
X870168Y3140150D01*
X4831314Y1968336D02*
X4826552Y1963574D01*
X4812267Y1958812D01*
X4802743Y1958812D01*
X4788457Y1963574D01*
X4778933Y1973098D01*
X4774171Y1982621D01*
X4769410Y2001669D01*
X4769410Y2015955D01*
X4774171Y2035002D01*
X4778933Y2044526D01*
X4788457Y2054050D01*
X4802743Y2058812D01*
X4812267Y2058812D01*
X4826552Y2054050D01*
X4831314Y2049288D01*
X4926552Y1958812D02*
X4869410Y1958812D01*
X4897981Y1958812D02*
X4897981Y2058812D01*
X4888457Y2044526D01*
X4878933Y2035002D01*
X4869410Y2030240D01*
X4964648Y2049288D02*
X4969410Y2054050D01*
X4978933Y2058812D01*
X5002743Y2058812D01*
X5012267Y2054050D01*
X5017029Y2049288D01*
X5021790Y2039764D01*
X5021790Y2030240D01*
X5017029Y2015955D01*
X4959886Y1958812D01*
X5021790Y1958812D01*
X2362434Y1997476D02*
X2357672Y1992714D01*
X2343387Y1987952D01*
X2333863Y1987952D01*
X2319577Y1992714D01*
X2310053Y2002238D01*
X2305291Y2011761D01*
X2300530Y2030809D01*
X2300530Y2045095D01*
X2305291Y2064142D01*
X2310053Y2073666D01*
X2319577Y2083190D01*
X2333863Y2087952D01*
X2343387Y2087952D01*
X2357672Y2083190D01*
X2362434Y2078428D01*
X2457672Y1987952D02*
X2400530Y1987952D01*
X2429101Y1987952D02*
X2429101Y2087952D01*
X2419577Y2073666D01*
X2410053Y2064142D01*
X2400530Y2059380D01*
X2552910Y1987952D02*
X2495768Y1987952D01*
X2524339Y1987952D02*
X2524339Y2087952D01*
X2514815Y2073666D01*
X2505291Y2064142D01*
X2495768Y2059380D01*
%LPC*%
D12*
X7027600Y2240200D03*
X7027600Y2040200D03*
X7027600Y1840200D03*
X7027600Y1640200D03*
D13*
X7751910Y3349070D03*
X7751858Y249000D03*
X252000Y249000D03*
X252000Y3349070D03*
D14*
X4611910Y3349070D03*
X4357910Y3349070D03*
X4103910Y3349070D03*
X3849910Y3349070D03*
X3595910Y3349070D03*
X3341910Y3349070D03*
X3087910Y3349070D03*
X2833910Y3349070D03*
X2579910Y3349070D03*
X2325910Y3349070D03*
X2071910Y3349070D03*
X1817910Y3349070D03*
X1563910Y3349070D03*
X1309910Y3349070D03*
X1055910Y3349070D03*
D15*
X801910Y3349070D03*
D13*
X321000Y1483000D03*
D16*
X321000Y975000D03*
D17*
X6089400Y3167300D03*
D18*
X6089400Y2767300D03*
D19*
X4100000Y249000D03*
D20*
X4100000Y503000D03*
X4354000Y249000D03*
X4354000Y503000D03*
X4608000Y249000D03*
X4608000Y503000D03*
X4862000Y249000D03*
X4862000Y503000D03*
X5116000Y249000D03*
X5116000Y503000D03*
X5370000Y249000D03*
X5370000Y503000D03*
X5624000Y249000D03*
X5624000Y503000D03*
X5878000Y249000D03*
X5878000Y503000D03*
X6132000Y249000D03*
X6132000Y503000D03*
X6386000Y249000D03*
X6386000Y503000D03*
X6640000Y249000D03*
X6640000Y503000D03*
X6894000Y249000D03*
X6894000Y503000D03*
D21*
X806200Y2240200D03*
X1060200Y2494200D03*
X806200Y2748200D03*
D22*
X5303860Y3139896D03*
X5173860Y3139896D03*
X5043860Y3139896D03*
D23*
G36*
X4832051Y1932969D02*
G01*
X4834693Y1932577D01*
X4837284Y1931928D01*
X4839798Y1931028D01*
X4842213Y1929886D01*
X4844504Y1928513D01*
X4846649Y1926922D01*
X4848628Y1925128D01*
X4850422Y1923149D01*
X4852013Y1921004D01*
X4853386Y1918713D01*
X4854528Y1916298D01*
X4855428Y1913783D01*
X4856077Y1911192D01*
X4856469Y1908550D01*
X4856600Y1905883D01*
X4856600Y1810117D01*
X4856469Y1807449D01*
X4856077Y1804807D01*
X4855428Y1802216D01*
X4854528Y1799702D01*
X4853386Y1797287D01*
X4852013Y1794996D01*
X4850422Y1792851D01*
X4848628Y1790872D01*
X4846649Y1789078D01*
X4844504Y1787487D01*
X4842213Y1786114D01*
X4839798Y1784972D01*
X4837284Y1784072D01*
X4834693Y1783423D01*
X4832051Y1783031D01*
X4829383Y1782900D01*
X4758617Y1782900D01*
X4755950Y1783031D01*
X4753308Y1783423D01*
X4750717Y1784072D01*
X4748202Y1784972D01*
X4745787Y1786114D01*
X4743496Y1787487D01*
X4741351Y1789078D01*
X4739372Y1790872D01*
X4737578Y1792851D01*
X4735987Y1794996D01*
X4734614Y1797287D01*
X4733472Y1799702D01*
X4732572Y1802216D01*
X4731923Y1804807D01*
X4731531Y1807449D01*
X4731400Y1810117D01*
X4731400Y1905883D01*
X4731531Y1908550D01*
X4731923Y1911192D01*
X4732572Y1913783D01*
X4733472Y1916298D01*
X4734614Y1918713D01*
X4735987Y1921004D01*
X4737578Y1923149D01*
X4739372Y1925128D01*
X4741351Y1926922D01*
X4743496Y1928513D01*
X4745787Y1929886D01*
X4748202Y1931028D01*
X4750717Y1931928D01*
X4753308Y1932577D01*
X4755950Y1932969D01*
X4758617Y1933100D01*
X4829383Y1933100D01*
X4832051Y1932969D01*
X4832051Y1932969D01*
G37*
D24*
X4794000Y1858000D03*
D23*
G36*
X5037051Y1932969D02*
G01*
X5039693Y1932577D01*
X5042284Y1931928D01*
X5044798Y1931028D01*
X5047213Y1929886D01*
X5049504Y1928513D01*
X5051649Y1926922D01*
X5053628Y1925128D01*
X5055422Y1923149D01*
X5057013Y1921004D01*
X5058386Y1918713D01*
X5059528Y1916298D01*
X5060428Y1913783D01*
X5061077Y1911192D01*
X5061469Y1908550D01*
X5061600Y1905883D01*
X5061600Y1810117D01*
X5061469Y1807449D01*
X5061077Y1804807D01*
X5060428Y1802216D01*
X5059528Y1799702D01*
X5058386Y1797287D01*
X5057013Y1794996D01*
X5055422Y1792851D01*
X5053628Y1790872D01*
X5051649Y1789078D01*
X5049504Y1787487D01*
X5047213Y1786114D01*
X5044798Y1784972D01*
X5042284Y1784072D01*
X5039693Y1783423D01*
X5037051Y1783031D01*
X5034383Y1782900D01*
X4963617Y1782900D01*
X4960950Y1783031D01*
X4958308Y1783423D01*
X4955717Y1784072D01*
X4953202Y1784972D01*
X4950787Y1786114D01*
X4948496Y1787487D01*
X4946351Y1789078D01*
X4944372Y1790872D01*
X4942578Y1792851D01*
X4940987Y1794996D01*
X4939614Y1797287D01*
X4938472Y1799702D01*
X4937572Y1802216D01*
X4936923Y1804807D01*
X4936531Y1807449D01*
X4936400Y1810117D01*
X4936400Y1905883D01*
X4936531Y1908550D01*
X4936923Y1911192D01*
X4937572Y1913783D01*
X4938472Y1916298D01*
X4939614Y1918713D01*
X4940987Y1921004D01*
X4942578Y1923149D01*
X4944372Y1925128D01*
X4946351Y1926922D01*
X4948496Y1928513D01*
X4950787Y1929886D01*
X4953202Y1931028D01*
X4955717Y1931928D01*
X4958308Y1932577D01*
X4960950Y1932969D01*
X4963617Y1933100D01*
X5034383Y1933100D01*
X5037051Y1932969D01*
X5037051Y1932969D01*
G37*
D24*
X4999000Y1858000D03*
D23*
G36*
X2567271Y1965919D02*
G01*
X2569913Y1965527D01*
X2572504Y1964878D01*
X2575018Y1963978D01*
X2577433Y1962836D01*
X2579724Y1961463D01*
X2581869Y1959872D01*
X2583848Y1958078D01*
X2585642Y1956099D01*
X2587233Y1953954D01*
X2588606Y1951663D01*
X2589748Y1949248D01*
X2590648Y1946733D01*
X2591297Y1944142D01*
X2591689Y1941500D01*
X2591820Y1938833D01*
X2591820Y1843067D01*
X2591689Y1840399D01*
X2591297Y1837757D01*
X2590648Y1835166D01*
X2589748Y1832652D01*
X2588606Y1830237D01*
X2587233Y1827946D01*
X2585642Y1825801D01*
X2583848Y1823822D01*
X2581869Y1822028D01*
X2579724Y1820437D01*
X2577433Y1819064D01*
X2575018Y1817922D01*
X2572504Y1817022D01*
X2569913Y1816373D01*
X2567271Y1815981D01*
X2564603Y1815850D01*
X2493837Y1815850D01*
X2491170Y1815981D01*
X2488528Y1816373D01*
X2485937Y1817022D01*
X2483422Y1817922D01*
X2481007Y1819064D01*
X2478716Y1820437D01*
X2476571Y1822028D01*
X2474592Y1823822D01*
X2472798Y1825801D01*
X2471207Y1827946D01*
X2469834Y1830237D01*
X2468692Y1832652D01*
X2467792Y1835166D01*
X2467143Y1837757D01*
X2466751Y1840399D01*
X2466620Y1843067D01*
X2466620Y1938833D01*
X2466751Y1941500D01*
X2467143Y1944142D01*
X2467792Y1946733D01*
X2468692Y1949248D01*
X2469834Y1951663D01*
X2471207Y1953954D01*
X2472798Y1956099D01*
X2474592Y1958078D01*
X2476571Y1959872D01*
X2478716Y1961463D01*
X2481007Y1962836D01*
X2483422Y1963978D01*
X2485937Y1964878D01*
X2488528Y1965527D01*
X2491170Y1965919D01*
X2493837Y1966050D01*
X2564603Y1966050D01*
X2567271Y1965919D01*
X2567271Y1965919D01*
G37*
D24*
X2529220Y1890950D03*
D23*
G36*
X2362271Y1965919D02*
G01*
X2364913Y1965527D01*
X2367504Y1964878D01*
X2370018Y1963978D01*
X2372433Y1962836D01*
X2374724Y1961463D01*
X2376869Y1959872D01*
X2378848Y1958078D01*
X2380642Y1956099D01*
X2382233Y1953954D01*
X2383606Y1951663D01*
X2384748Y1949248D01*
X2385648Y1946733D01*
X2386297Y1944142D01*
X2386689Y1941500D01*
X2386820Y1938833D01*
X2386820Y1843067D01*
X2386689Y1840399D01*
X2386297Y1837757D01*
X2385648Y1835166D01*
X2384748Y1832652D01*
X2383606Y1830237D01*
X2382233Y1827946D01*
X2380642Y1825801D01*
X2378848Y1823822D01*
X2376869Y1822028D01*
X2374724Y1820437D01*
X2372433Y1819064D01*
X2370018Y1817922D01*
X2367504Y1817022D01*
X2364913Y1816373D01*
X2362271Y1815981D01*
X2359603Y1815850D01*
X2288837Y1815850D01*
X2286170Y1815981D01*
X2283528Y1816373D01*
X2280937Y1817022D01*
X2278422Y1817922D01*
X2276007Y1819064D01*
X2273716Y1820437D01*
X2271571Y1822028D01*
X2269592Y1823822D01*
X2267798Y1825801D01*
X2266207Y1827946D01*
X2264834Y1830237D01*
X2263692Y1832652D01*
X2262792Y1835166D01*
X2262143Y1837757D01*
X2261751Y1840399D01*
X2261620Y1843067D01*
X2261620Y1938833D01*
X2261751Y1941500D01*
X2262143Y1944142D01*
X2262792Y1946733D01*
X2263692Y1949248D01*
X2264834Y1951663D01*
X2266207Y1953954D01*
X2267798Y1956099D01*
X2269592Y1958078D01*
X2271571Y1959872D01*
X2273716Y1961463D01*
X2276007Y1962836D01*
X2278422Y1963978D01*
X2280937Y1964878D01*
X2283528Y1965527D01*
X2286170Y1965919D01*
X2288837Y1966050D01*
X2359603Y1966050D01*
X2362271Y1965919D01*
X2362271Y1965919D01*
G37*
D24*
X2324220Y1890950D03*
D22*
X4298700Y1833800D03*
X4168700Y1833800D03*
D25*
X7300000Y400000D03*
M02*
