G04 #@! TF.GenerationSoftware,KiCad,Pcbnew,(5.1.0)-1*
G04 #@! TF.CreationDate,2022-04-18T23:31:18-07:00*
G04 #@! TF.ProjectId,1602A_LCD Serial Backpack,31363032-415f-44c4-9344-205365726961,rev?*
G04 #@! TF.SameCoordinates,PX660b0c0PY66ff300*
G04 #@! TF.FileFunction,Copper,L2,Bot*
G04 #@! TF.FilePolarity,Positive*
%FSLAX45Y45*%
G04 Gerber Fmt 4.5, Leading zero omitted, Abs format (unit mm)*
G04 Created by KiCad (PCBNEW (5.1.0)-1) date 2022-04-18 23:31:18*
%MOMM*%
%LPD*%
G04 APERTURE LIST*
%ADD10C,0.100000*%
%ADD11C,1.150000*%
%ADD12O,1.750000X1.200000*%
%ADD13C,3.000000*%
%ADD14O,1.800000X2.600000*%
%ADD15R,1.800000X2.600000*%
%ADD16C,1.425000*%
%ADD17R,3.000000X3.000000*%
%ADD18C,1.325000*%
%ADD19R,1.200000X2.200000*%
%ADD20R,5.800000X6.400000*%
%ADD21R,2.500000X1.800000*%
%ADD22R,0.900000X0.800000*%
%ADD23R,1.600000X1.600000*%
%ADD24C,1.600000*%
%ADD25C,0.550000*%
%ADD26R,1.700000X1.700000*%
%ADD27O,1.700000X1.700000*%
%ADD28C,1.440000*%
%ADD29R,1.150000X1.000000*%
%ADD30R,1.500000X1.500000*%
%ADD31R,1.700000X1.300000*%
%ADD32R,0.600000X1.500000*%
%ADD33C,1.000000*%
%ADD34C,0.800000*%
%ADD35C,0.500000*%
%ADD36C,0.200000*%
%ADD37C,0.800000*%
%ADD38C,0.350000*%
%ADD39C,1.000000*%
%ADD40C,0.254000*%
G04 APERTURE END LIST*
D10*
G36*
X5717950Y1509800D02*
G01*
X5720377Y1509440D01*
X5722757Y1508843D01*
X5725067Y1508017D01*
X5727285Y1506968D01*
X5729389Y1505707D01*
X5731360Y1504245D01*
X5733178Y1502598D01*
X5734825Y1500780D01*
X5736287Y1498809D01*
X5737548Y1496705D01*
X5738597Y1494487D01*
X5739423Y1492177D01*
X5740020Y1489797D01*
X5740380Y1487370D01*
X5740500Y1484920D01*
X5740500Y1394920D01*
X5740380Y1392470D01*
X5740020Y1390043D01*
X5739423Y1387663D01*
X5738597Y1385353D01*
X5737548Y1383135D01*
X5736287Y1381031D01*
X5734825Y1379060D01*
X5733178Y1377242D01*
X5731360Y1375595D01*
X5729389Y1374133D01*
X5727285Y1372872D01*
X5725067Y1371823D01*
X5722757Y1370997D01*
X5720377Y1370400D01*
X5717950Y1370040D01*
X5715500Y1369920D01*
X5650500Y1369920D01*
X5648049Y1370040D01*
X5645623Y1370400D01*
X5643243Y1370997D01*
X5640933Y1371823D01*
X5638715Y1372872D01*
X5636611Y1374133D01*
X5634640Y1375595D01*
X5632822Y1377242D01*
X5631175Y1379060D01*
X5629713Y1381031D01*
X5628452Y1383135D01*
X5627403Y1385353D01*
X5626576Y1387663D01*
X5625980Y1390043D01*
X5625620Y1392470D01*
X5625500Y1394920D01*
X5625500Y1484920D01*
X5625620Y1487370D01*
X5625980Y1489797D01*
X5626576Y1492177D01*
X5627403Y1494487D01*
X5628452Y1496705D01*
X5629713Y1498809D01*
X5631175Y1500780D01*
X5632822Y1502598D01*
X5634640Y1504245D01*
X5636611Y1505707D01*
X5638715Y1506968D01*
X5640933Y1508017D01*
X5643243Y1508843D01*
X5645623Y1509440D01*
X5648049Y1509800D01*
X5650500Y1509920D01*
X5715500Y1509920D01*
X5717950Y1509800D01*
X5717950Y1509800D01*
G37*
D11*
X5683000Y1439920D03*
D10*
G36*
X5512951Y1509800D02*
G01*
X5515377Y1509440D01*
X5517757Y1508843D01*
X5520067Y1508017D01*
X5522285Y1506968D01*
X5524389Y1505707D01*
X5526360Y1504245D01*
X5528178Y1502598D01*
X5529825Y1500780D01*
X5531287Y1498809D01*
X5532548Y1496705D01*
X5533597Y1494487D01*
X5534424Y1492177D01*
X5535020Y1489797D01*
X5535380Y1487370D01*
X5535500Y1484920D01*
X5535500Y1394920D01*
X5535380Y1392470D01*
X5535020Y1390043D01*
X5534424Y1387663D01*
X5533597Y1385353D01*
X5532548Y1383135D01*
X5531287Y1381031D01*
X5529825Y1379060D01*
X5528178Y1377242D01*
X5526360Y1375595D01*
X5524389Y1374133D01*
X5522285Y1372872D01*
X5520067Y1371823D01*
X5517757Y1370997D01*
X5515377Y1370400D01*
X5512951Y1370040D01*
X5510500Y1369920D01*
X5445500Y1369920D01*
X5443050Y1370040D01*
X5440623Y1370400D01*
X5438243Y1370997D01*
X5435933Y1371823D01*
X5433715Y1372872D01*
X5431611Y1374133D01*
X5429640Y1375595D01*
X5427822Y1377242D01*
X5426175Y1379060D01*
X5424713Y1381031D01*
X5423452Y1383135D01*
X5422403Y1385353D01*
X5421577Y1387663D01*
X5420980Y1390043D01*
X5420620Y1392470D01*
X5420500Y1394920D01*
X5420500Y1484920D01*
X5420620Y1487370D01*
X5420980Y1489797D01*
X5421577Y1492177D01*
X5422403Y1494487D01*
X5423452Y1496705D01*
X5424713Y1498809D01*
X5426175Y1500780D01*
X5427822Y1502598D01*
X5429640Y1504245D01*
X5431611Y1505707D01*
X5433715Y1506968D01*
X5435933Y1508017D01*
X5438243Y1508843D01*
X5440623Y1509440D01*
X5443050Y1509800D01*
X5445500Y1509920D01*
X5510500Y1509920D01*
X5512951Y1509800D01*
X5512951Y1509800D01*
G37*
D11*
X5478000Y1439920D03*
D12*
X7027600Y2240200D03*
X7027600Y2040200D03*
X7027600Y1840200D03*
X7027600Y1640200D03*
D10*
G36*
X5209951Y3047780D02*
G01*
X5212377Y3047420D01*
X5214757Y3046823D01*
X5217067Y3045997D01*
X5219285Y3044948D01*
X5221389Y3043687D01*
X5223360Y3042225D01*
X5225178Y3040578D01*
X5226825Y3038760D01*
X5228287Y3036789D01*
X5229548Y3034685D01*
X5230597Y3032467D01*
X5231424Y3030157D01*
X5232020Y3027777D01*
X5232380Y3025350D01*
X5232500Y3022900D01*
X5232500Y2932900D01*
X5232380Y2930449D01*
X5232020Y2928023D01*
X5231424Y2925643D01*
X5230597Y2923333D01*
X5229548Y2921115D01*
X5228287Y2919011D01*
X5226825Y2917040D01*
X5225178Y2915222D01*
X5223360Y2913575D01*
X5221389Y2912113D01*
X5219285Y2910852D01*
X5217067Y2909803D01*
X5214757Y2908976D01*
X5212377Y2908380D01*
X5209951Y2908020D01*
X5207500Y2907900D01*
X5142500Y2907900D01*
X5140050Y2908020D01*
X5137623Y2908380D01*
X5135243Y2908976D01*
X5132933Y2909803D01*
X5130715Y2910852D01*
X5128611Y2912113D01*
X5126640Y2913575D01*
X5124822Y2915222D01*
X5123175Y2917040D01*
X5121713Y2919011D01*
X5120452Y2921115D01*
X5119403Y2923333D01*
X5118577Y2925643D01*
X5117980Y2928023D01*
X5117620Y2930449D01*
X5117500Y2932900D01*
X5117500Y3022900D01*
X5117620Y3025350D01*
X5117980Y3027777D01*
X5118577Y3030157D01*
X5119403Y3032467D01*
X5120452Y3034685D01*
X5121713Y3036789D01*
X5123175Y3038760D01*
X5124822Y3040578D01*
X5126640Y3042225D01*
X5128611Y3043687D01*
X5130715Y3044948D01*
X5132933Y3045997D01*
X5135243Y3046823D01*
X5137623Y3047420D01*
X5140050Y3047780D01*
X5142500Y3047900D01*
X5207500Y3047900D01*
X5209951Y3047780D01*
X5209951Y3047780D01*
G37*
D11*
X5175000Y2977900D03*
D10*
G36*
X5414951Y3047780D02*
G01*
X5417377Y3047420D01*
X5419757Y3046823D01*
X5422067Y3045997D01*
X5424285Y3044948D01*
X5426389Y3043687D01*
X5428360Y3042225D01*
X5430178Y3040578D01*
X5431825Y3038760D01*
X5433287Y3036789D01*
X5434548Y3034685D01*
X5435597Y3032467D01*
X5436424Y3030157D01*
X5437020Y3027777D01*
X5437380Y3025350D01*
X5437500Y3022900D01*
X5437500Y2932900D01*
X5437380Y2930449D01*
X5437020Y2928023D01*
X5436424Y2925643D01*
X5435597Y2923333D01*
X5434548Y2921115D01*
X5433287Y2919011D01*
X5431825Y2917040D01*
X5430178Y2915222D01*
X5428360Y2913575D01*
X5426389Y2912113D01*
X5424285Y2910852D01*
X5422067Y2909803D01*
X5419757Y2908976D01*
X5417377Y2908380D01*
X5414951Y2908020D01*
X5412500Y2907900D01*
X5347500Y2907900D01*
X5345050Y2908020D01*
X5342623Y2908380D01*
X5340243Y2908976D01*
X5337933Y2909803D01*
X5335715Y2910852D01*
X5333611Y2912113D01*
X5331640Y2913575D01*
X5329822Y2915222D01*
X5328175Y2917040D01*
X5326713Y2919011D01*
X5325452Y2921115D01*
X5324403Y2923333D01*
X5323577Y2925643D01*
X5322980Y2928023D01*
X5322620Y2930449D01*
X5322500Y2932900D01*
X5322500Y3022900D01*
X5322620Y3025350D01*
X5322980Y3027777D01*
X5323577Y3030157D01*
X5324403Y3032467D01*
X5325452Y3034685D01*
X5326713Y3036789D01*
X5328175Y3038760D01*
X5329822Y3040578D01*
X5331640Y3042225D01*
X5333611Y3043687D01*
X5335715Y3044948D01*
X5337933Y3045997D01*
X5340243Y3046823D01*
X5342623Y3047420D01*
X5345050Y3047780D01*
X5347500Y3047900D01*
X5412500Y3047900D01*
X5414951Y3047780D01*
X5414951Y3047780D01*
G37*
D11*
X5380000Y2977900D03*
D13*
X7751910Y3349070D03*
X7751858Y249000D03*
X252000Y249000D03*
X252000Y3349070D03*
D14*
X4611910Y3349070D03*
X4357910Y3349070D03*
X4103910Y3349070D03*
X3849910Y3349070D03*
X3595910Y3349070D03*
X3341910Y3349070D03*
X3087910Y3349070D03*
X2833910Y3349070D03*
X2579910Y3349070D03*
X2325910Y3349070D03*
X2071910Y3349070D03*
X1817910Y3349070D03*
X1563910Y3349070D03*
X1309910Y3349070D03*
X1055910Y3349070D03*
D15*
X801910Y3349070D03*
D10*
G36*
X4422860Y3095080D02*
G01*
X4425287Y3094720D01*
X4427667Y3094123D01*
X4429977Y3093297D01*
X4432195Y3092248D01*
X4434299Y3090987D01*
X4436270Y3089525D01*
X4438088Y3087878D01*
X4439735Y3086060D01*
X4441197Y3084089D01*
X4442458Y3081985D01*
X4443507Y3079767D01*
X4444334Y3077457D01*
X4444930Y3075077D01*
X4445290Y3072650D01*
X4445410Y3070200D01*
X4445410Y2977700D01*
X4445290Y2975250D01*
X4444930Y2972823D01*
X4444334Y2970443D01*
X4443507Y2968133D01*
X4442458Y2965915D01*
X4441197Y2963811D01*
X4439735Y2961840D01*
X4438088Y2960022D01*
X4436270Y2958375D01*
X4434299Y2956913D01*
X4432195Y2955652D01*
X4429977Y2954603D01*
X4427667Y2953776D01*
X4425287Y2953180D01*
X4422860Y2952820D01*
X4420410Y2952700D01*
X4295410Y2952700D01*
X4292960Y2952820D01*
X4290533Y2953180D01*
X4288153Y2953776D01*
X4285843Y2954603D01*
X4283625Y2955652D01*
X4281521Y2956913D01*
X4279550Y2958375D01*
X4277732Y2960022D01*
X4276085Y2961840D01*
X4274623Y2963811D01*
X4273362Y2965915D01*
X4272313Y2968133D01*
X4271487Y2970443D01*
X4270890Y2972823D01*
X4270530Y2975250D01*
X4270410Y2977700D01*
X4270410Y3070200D01*
X4270530Y3072650D01*
X4270890Y3075077D01*
X4271487Y3077457D01*
X4272313Y3079767D01*
X4273362Y3081985D01*
X4274623Y3084089D01*
X4276085Y3086060D01*
X4277732Y3087878D01*
X4279550Y3089525D01*
X4281521Y3090987D01*
X4283625Y3092248D01*
X4285843Y3093297D01*
X4288153Y3094123D01*
X4290533Y3094720D01*
X4292960Y3095080D01*
X4295410Y3095200D01*
X4420410Y3095200D01*
X4422860Y3095080D01*
X4422860Y3095080D01*
G37*
D16*
X4357910Y3023950D03*
D10*
G36*
X4422860Y2797580D02*
G01*
X4425287Y2797220D01*
X4427667Y2796623D01*
X4429977Y2795797D01*
X4432195Y2794748D01*
X4434299Y2793487D01*
X4436270Y2792025D01*
X4438088Y2790378D01*
X4439735Y2788560D01*
X4441197Y2786589D01*
X4442458Y2784485D01*
X4443507Y2782267D01*
X4444334Y2779957D01*
X4444930Y2777577D01*
X4445290Y2775150D01*
X4445410Y2772700D01*
X4445410Y2680200D01*
X4445290Y2677750D01*
X4444930Y2675323D01*
X4444334Y2672943D01*
X4443507Y2670633D01*
X4442458Y2668415D01*
X4441197Y2666311D01*
X4439735Y2664340D01*
X4438088Y2662522D01*
X4436270Y2660875D01*
X4434299Y2659413D01*
X4432195Y2658152D01*
X4429977Y2657103D01*
X4427667Y2656277D01*
X4425287Y2655680D01*
X4422860Y2655320D01*
X4420410Y2655200D01*
X4295410Y2655200D01*
X4292960Y2655320D01*
X4290533Y2655680D01*
X4288153Y2656277D01*
X4285843Y2657103D01*
X4283625Y2658152D01*
X4281521Y2659413D01*
X4279550Y2660875D01*
X4277732Y2662522D01*
X4276085Y2664340D01*
X4274623Y2666311D01*
X4273362Y2668415D01*
X4272313Y2670633D01*
X4271487Y2672943D01*
X4270890Y2675323D01*
X4270530Y2677750D01*
X4270410Y2680200D01*
X4270410Y2772700D01*
X4270530Y2775150D01*
X4270890Y2777577D01*
X4271487Y2779957D01*
X4272313Y2782267D01*
X4273362Y2784485D01*
X4274623Y2786589D01*
X4276085Y2788560D01*
X4277732Y2790378D01*
X4279550Y2792025D01*
X4281521Y2793487D01*
X4283625Y2794748D01*
X4285843Y2795797D01*
X4288153Y2796623D01*
X4290533Y2797220D01*
X4292960Y2797580D01*
X4295410Y2797700D01*
X4420410Y2797700D01*
X4422860Y2797580D01*
X4422860Y2797580D01*
G37*
D16*
X4357910Y2726450D03*
D13*
X321000Y1483000D03*
D17*
X321000Y975000D03*
D10*
G36*
X1257651Y1933400D02*
G01*
X1260077Y1933040D01*
X1262457Y1932443D01*
X1264767Y1931617D01*
X1266985Y1930568D01*
X1269089Y1929307D01*
X1271060Y1927845D01*
X1272878Y1926198D01*
X1274525Y1924380D01*
X1275987Y1922409D01*
X1277248Y1920305D01*
X1278297Y1918087D01*
X1279124Y1915777D01*
X1279720Y1913397D01*
X1280080Y1910970D01*
X1280200Y1908520D01*
X1280200Y1723520D01*
X1280080Y1721069D01*
X1279720Y1718643D01*
X1279124Y1716263D01*
X1278297Y1713953D01*
X1277248Y1711735D01*
X1275987Y1709631D01*
X1274525Y1707660D01*
X1272878Y1705842D01*
X1271060Y1704195D01*
X1269089Y1702733D01*
X1266985Y1701472D01*
X1264767Y1700423D01*
X1262457Y1699596D01*
X1260077Y1699000D01*
X1257651Y1698640D01*
X1255200Y1698520D01*
X1172700Y1698520D01*
X1170250Y1698640D01*
X1167823Y1699000D01*
X1165443Y1699596D01*
X1163133Y1700423D01*
X1160915Y1701472D01*
X1158811Y1702733D01*
X1156840Y1704195D01*
X1155022Y1705842D01*
X1153375Y1707660D01*
X1151913Y1709631D01*
X1150652Y1711735D01*
X1149603Y1713953D01*
X1148777Y1716263D01*
X1148180Y1718643D01*
X1147820Y1721069D01*
X1147700Y1723520D01*
X1147700Y1908520D01*
X1147820Y1910970D01*
X1148180Y1913397D01*
X1148777Y1915777D01*
X1149603Y1918087D01*
X1150652Y1920305D01*
X1151913Y1922409D01*
X1153375Y1924380D01*
X1155022Y1926198D01*
X1156840Y1927845D01*
X1158811Y1929307D01*
X1160915Y1930568D01*
X1163133Y1931617D01*
X1165443Y1932443D01*
X1167823Y1933040D01*
X1170250Y1933400D01*
X1172700Y1933520D01*
X1255200Y1933520D01*
X1257651Y1933400D01*
X1257651Y1933400D01*
G37*
D18*
X1213950Y1816020D03*
D10*
G36*
X950150Y1933400D02*
G01*
X952577Y1933040D01*
X954957Y1932443D01*
X957267Y1931617D01*
X959485Y1930568D01*
X961589Y1929307D01*
X963560Y1927845D01*
X965378Y1926198D01*
X967025Y1924380D01*
X968487Y1922409D01*
X969748Y1920305D01*
X970797Y1918087D01*
X971623Y1915777D01*
X972220Y1913397D01*
X972580Y1910970D01*
X972700Y1908520D01*
X972700Y1723520D01*
X972580Y1721069D01*
X972220Y1718643D01*
X971623Y1716263D01*
X970797Y1713953D01*
X969748Y1711735D01*
X968487Y1709631D01*
X967025Y1707660D01*
X965378Y1705842D01*
X963560Y1704195D01*
X961589Y1702733D01*
X959485Y1701472D01*
X957267Y1700423D01*
X954957Y1699596D01*
X952577Y1699000D01*
X950150Y1698640D01*
X947700Y1698520D01*
X865200Y1698520D01*
X862749Y1698640D01*
X860323Y1699000D01*
X857943Y1699596D01*
X855633Y1700423D01*
X853415Y1701472D01*
X851311Y1702733D01*
X849340Y1704195D01*
X847522Y1705842D01*
X845875Y1707660D01*
X844413Y1709631D01*
X843152Y1711735D01*
X842103Y1713953D01*
X841276Y1716263D01*
X840680Y1718643D01*
X840320Y1721069D01*
X840200Y1723520D01*
X840200Y1908520D01*
X840320Y1910970D01*
X840680Y1913397D01*
X841276Y1915777D01*
X842103Y1918087D01*
X843152Y1920305D01*
X844413Y1922409D01*
X845875Y1924380D01*
X847522Y1926198D01*
X849340Y1927845D01*
X851311Y1929307D01*
X853415Y1930568D01*
X855633Y1931617D01*
X857943Y1932443D01*
X860323Y1933040D01*
X862749Y1933400D01*
X865200Y1933520D01*
X947700Y1933520D01*
X950150Y1933400D01*
X950150Y1933400D01*
G37*
D18*
X906450Y1816020D03*
D19*
X1434250Y664500D03*
X978250Y664500D03*
D20*
X1206250Y1294500D03*
D10*
G36*
X4828951Y3047780D02*
G01*
X4831377Y3047420D01*
X4833757Y3046823D01*
X4836067Y3045997D01*
X4838285Y3044948D01*
X4840389Y3043687D01*
X4842360Y3042225D01*
X4844178Y3040578D01*
X4845825Y3038760D01*
X4847287Y3036789D01*
X4848548Y3034685D01*
X4849597Y3032467D01*
X4850424Y3030157D01*
X4851020Y3027777D01*
X4851380Y3025350D01*
X4851500Y3022900D01*
X4851500Y2932900D01*
X4851380Y2930449D01*
X4851020Y2928023D01*
X4850424Y2925643D01*
X4849597Y2923333D01*
X4848548Y2921115D01*
X4847287Y2919011D01*
X4845825Y2917040D01*
X4844178Y2915222D01*
X4842360Y2913575D01*
X4840389Y2912113D01*
X4838285Y2910852D01*
X4836067Y2909803D01*
X4833757Y2908976D01*
X4831377Y2908380D01*
X4828951Y2908020D01*
X4826500Y2907900D01*
X4761500Y2907900D01*
X4759050Y2908020D01*
X4756623Y2908380D01*
X4754243Y2908976D01*
X4751933Y2909803D01*
X4749715Y2910852D01*
X4747611Y2912113D01*
X4745640Y2913575D01*
X4743822Y2915222D01*
X4742175Y2917040D01*
X4740713Y2919011D01*
X4739452Y2921115D01*
X4738403Y2923333D01*
X4737577Y2925643D01*
X4736980Y2928023D01*
X4736620Y2930449D01*
X4736500Y2932900D01*
X4736500Y3022900D01*
X4736620Y3025350D01*
X4736980Y3027777D01*
X4737577Y3030157D01*
X4738403Y3032467D01*
X4739452Y3034685D01*
X4740713Y3036789D01*
X4742175Y3038760D01*
X4743822Y3040578D01*
X4745640Y3042225D01*
X4747611Y3043687D01*
X4749715Y3044948D01*
X4751933Y3045997D01*
X4754243Y3046823D01*
X4756623Y3047420D01*
X4759050Y3047780D01*
X4761500Y3047900D01*
X4826500Y3047900D01*
X4828951Y3047780D01*
X4828951Y3047780D01*
G37*
D11*
X4794000Y2977900D03*
D10*
G36*
X5033951Y3047780D02*
G01*
X5036377Y3047420D01*
X5038757Y3046823D01*
X5041067Y3045997D01*
X5043285Y3044948D01*
X5045389Y3043687D01*
X5047360Y3042225D01*
X5049178Y3040578D01*
X5050825Y3038760D01*
X5052287Y3036789D01*
X5053548Y3034685D01*
X5054597Y3032467D01*
X5055424Y3030157D01*
X5056020Y3027777D01*
X5056380Y3025350D01*
X5056500Y3022900D01*
X5056500Y2932900D01*
X5056380Y2930449D01*
X5056020Y2928023D01*
X5055424Y2925643D01*
X5054597Y2923333D01*
X5053548Y2921115D01*
X5052287Y2919011D01*
X5050825Y2917040D01*
X5049178Y2915222D01*
X5047360Y2913575D01*
X5045389Y2912113D01*
X5043285Y2910852D01*
X5041067Y2909803D01*
X5038757Y2908976D01*
X5036377Y2908380D01*
X5033951Y2908020D01*
X5031500Y2907900D01*
X4966500Y2907900D01*
X4964050Y2908020D01*
X4961623Y2908380D01*
X4959243Y2908976D01*
X4956933Y2909803D01*
X4954715Y2910852D01*
X4952611Y2912113D01*
X4950640Y2913575D01*
X4948822Y2915222D01*
X4947175Y2917040D01*
X4945713Y2919011D01*
X4944452Y2921115D01*
X4943403Y2923333D01*
X4942577Y2925643D01*
X4941980Y2928023D01*
X4941620Y2930449D01*
X4941500Y2932900D01*
X4941500Y3022900D01*
X4941620Y3025350D01*
X4941980Y3027777D01*
X4942577Y3030157D01*
X4943403Y3032467D01*
X4944452Y3034685D01*
X4945713Y3036789D01*
X4947175Y3038760D01*
X4948822Y3040578D01*
X4950640Y3042225D01*
X4952611Y3043687D01*
X4954715Y3044948D01*
X4956933Y3045997D01*
X4959243Y3046823D01*
X4961623Y3047420D01*
X4964050Y3047780D01*
X4966500Y3047900D01*
X5031500Y3047900D01*
X5033951Y3047780D01*
X5033951Y3047780D01*
G37*
D11*
X4999000Y2977900D03*
D10*
G36*
X2213131Y1472879D02*
G01*
X2215558Y1472519D01*
X2217938Y1471923D01*
X2220247Y1471096D01*
X2222465Y1470047D01*
X2224570Y1468786D01*
X2226540Y1467324D01*
X2228358Y1465677D01*
X2274320Y1419715D01*
X2275968Y1417897D01*
X2277429Y1415926D01*
X2278690Y1413822D01*
X2279739Y1411604D01*
X2280566Y1409294D01*
X2281162Y1406914D01*
X2281522Y1404488D01*
X2281642Y1402037D01*
X2281522Y1399587D01*
X2281162Y1397160D01*
X2280566Y1394780D01*
X2279739Y1392470D01*
X2278690Y1390252D01*
X2277429Y1388148D01*
X2275968Y1386177D01*
X2274320Y1384360D01*
X2210680Y1320720D01*
X2208863Y1319072D01*
X2206892Y1317611D01*
X2204788Y1316350D01*
X2202570Y1315301D01*
X2200260Y1314474D01*
X2197880Y1313878D01*
X2195453Y1313518D01*
X2193003Y1313398D01*
X2190552Y1313518D01*
X2188126Y1313878D01*
X2185746Y1314474D01*
X2183436Y1315301D01*
X2181218Y1316350D01*
X2179114Y1317611D01*
X2177143Y1319072D01*
X2175325Y1320720D01*
X2129363Y1366682D01*
X2127716Y1368500D01*
X2126254Y1370470D01*
X2124993Y1372575D01*
X2123944Y1374793D01*
X2123117Y1377103D01*
X2122521Y1379482D01*
X2122161Y1381909D01*
X2122041Y1384360D01*
X2122161Y1386810D01*
X2122521Y1389237D01*
X2123117Y1391617D01*
X2123944Y1393927D01*
X2124993Y1396145D01*
X2126254Y1398249D01*
X2127716Y1400219D01*
X2129363Y1402037D01*
X2193003Y1465677D01*
X2194821Y1467324D01*
X2196791Y1468786D01*
X2198896Y1470047D01*
X2201113Y1471096D01*
X2203423Y1471923D01*
X2205803Y1472519D01*
X2208230Y1472879D01*
X2210680Y1472999D01*
X2213131Y1472879D01*
X2213131Y1472879D01*
G37*
D11*
X2201842Y1393198D03*
D10*
G36*
X2358088Y1327922D02*
G01*
X2360514Y1327562D01*
X2362894Y1326966D01*
X2365204Y1326139D01*
X2367422Y1325090D01*
X2369526Y1323829D01*
X2371497Y1322368D01*
X2373315Y1320720D01*
X2419277Y1274758D01*
X2420925Y1272940D01*
X2422386Y1270970D01*
X2423647Y1268865D01*
X2424696Y1266647D01*
X2425523Y1264338D01*
X2426119Y1261958D01*
X2426479Y1259531D01*
X2426599Y1257080D01*
X2426479Y1254630D01*
X2426119Y1252203D01*
X2425523Y1249823D01*
X2424696Y1247513D01*
X2423647Y1245296D01*
X2422386Y1243191D01*
X2420925Y1241221D01*
X2419277Y1239403D01*
X2355637Y1175763D01*
X2353819Y1174116D01*
X2351849Y1172654D01*
X2349745Y1171393D01*
X2347527Y1170344D01*
X2345217Y1169517D01*
X2342837Y1168921D01*
X2340410Y1168561D01*
X2337960Y1168441D01*
X2335509Y1168561D01*
X2333082Y1168921D01*
X2330703Y1169517D01*
X2328393Y1170344D01*
X2326175Y1171393D01*
X2324070Y1172654D01*
X2322100Y1174116D01*
X2320282Y1175763D01*
X2274320Y1221725D01*
X2272672Y1223543D01*
X2271211Y1225514D01*
X2269950Y1227618D01*
X2268901Y1229836D01*
X2268074Y1232146D01*
X2267478Y1234526D01*
X2267118Y1236952D01*
X2266998Y1239403D01*
X2267118Y1241853D01*
X2267478Y1244280D01*
X2268074Y1246660D01*
X2268901Y1248970D01*
X2269950Y1251188D01*
X2271211Y1253292D01*
X2272672Y1255263D01*
X2274320Y1257080D01*
X2337960Y1320720D01*
X2339777Y1322368D01*
X2341748Y1323829D01*
X2343852Y1325090D01*
X2346070Y1326139D01*
X2348380Y1326966D01*
X2350760Y1327562D01*
X2353187Y1327922D01*
X2355637Y1328042D01*
X2358088Y1327922D01*
X2358088Y1327922D01*
G37*
D11*
X2346798Y1248242D03*
D10*
G36*
X1481700Y479840D02*
G01*
X1484127Y479480D01*
X1486507Y478883D01*
X1488817Y478057D01*
X1491035Y477008D01*
X1493139Y475747D01*
X1495110Y474285D01*
X1496928Y472638D01*
X1498575Y470820D01*
X1500037Y468849D01*
X1501298Y466745D01*
X1502347Y464527D01*
X1503173Y462217D01*
X1503770Y459837D01*
X1504130Y457410D01*
X1504250Y454960D01*
X1504250Y389960D01*
X1504130Y387509D01*
X1503770Y385083D01*
X1503173Y382703D01*
X1502347Y380393D01*
X1501298Y378175D01*
X1500037Y376071D01*
X1498575Y374100D01*
X1496928Y372282D01*
X1495110Y370635D01*
X1493139Y369173D01*
X1491035Y367912D01*
X1488817Y366863D01*
X1486507Y366036D01*
X1484127Y365440D01*
X1481700Y365080D01*
X1479250Y364960D01*
X1389250Y364960D01*
X1386800Y365080D01*
X1384373Y365440D01*
X1381993Y366036D01*
X1379683Y366863D01*
X1377465Y367912D01*
X1375361Y369173D01*
X1373390Y370635D01*
X1371572Y372282D01*
X1369925Y374100D01*
X1368463Y376071D01*
X1367202Y378175D01*
X1366153Y380393D01*
X1365327Y382703D01*
X1364730Y385083D01*
X1364370Y387509D01*
X1364250Y389960D01*
X1364250Y454960D01*
X1364370Y457410D01*
X1364730Y459837D01*
X1365327Y462217D01*
X1366153Y464527D01*
X1367202Y466745D01*
X1368463Y468849D01*
X1369925Y470820D01*
X1371572Y472638D01*
X1373390Y474285D01*
X1375361Y475747D01*
X1377465Y477008D01*
X1379683Y478057D01*
X1381993Y478883D01*
X1384373Y479480D01*
X1386800Y479840D01*
X1389250Y479960D01*
X1479250Y479960D01*
X1481700Y479840D01*
X1481700Y479840D01*
G37*
D11*
X1434250Y422460D03*
D10*
G36*
X1481700Y274840D02*
G01*
X1484127Y274480D01*
X1486507Y273884D01*
X1488817Y273057D01*
X1491035Y272008D01*
X1493139Y270747D01*
X1495110Y269285D01*
X1496928Y267638D01*
X1498575Y265820D01*
X1500037Y263849D01*
X1501298Y261745D01*
X1502347Y259527D01*
X1503173Y257217D01*
X1503770Y254837D01*
X1504130Y252410D01*
X1504250Y249960D01*
X1504250Y184960D01*
X1504130Y182509D01*
X1503770Y180083D01*
X1503173Y177703D01*
X1502347Y175393D01*
X1501298Y173175D01*
X1500037Y171071D01*
X1498575Y169100D01*
X1496928Y167282D01*
X1495110Y165635D01*
X1493139Y164173D01*
X1491035Y162912D01*
X1488817Y161863D01*
X1486507Y161037D01*
X1484127Y160440D01*
X1481700Y160080D01*
X1479250Y159960D01*
X1389250Y159960D01*
X1386800Y160080D01*
X1384373Y160440D01*
X1381993Y161037D01*
X1379683Y161863D01*
X1377465Y162912D01*
X1375361Y164173D01*
X1373390Y165635D01*
X1371572Y167282D01*
X1369925Y169100D01*
X1368463Y171071D01*
X1367202Y173175D01*
X1366153Y175393D01*
X1365327Y177703D01*
X1364730Y180083D01*
X1364370Y182509D01*
X1364250Y184960D01*
X1364250Y249960D01*
X1364370Y252410D01*
X1364730Y254837D01*
X1365327Y257217D01*
X1366153Y259527D01*
X1367202Y261745D01*
X1368463Y263849D01*
X1369925Y265820D01*
X1371572Y267638D01*
X1373390Y269285D01*
X1375361Y270747D01*
X1377465Y272008D01*
X1379683Y273057D01*
X1381993Y273884D01*
X1384373Y274480D01*
X1386800Y274840D01*
X1389250Y274960D01*
X1479250Y274960D01*
X1481700Y274840D01*
X1481700Y274840D01*
G37*
D11*
X1434250Y217460D03*
D10*
G36*
X3303070Y2928299D02*
G01*
X3305497Y2927939D01*
X3307877Y2927343D01*
X3310187Y2926516D01*
X3312404Y2925467D01*
X3314509Y2924206D01*
X3316479Y2922744D01*
X3318297Y2921097D01*
X3381937Y2857457D01*
X3383584Y2855639D01*
X3385046Y2853669D01*
X3386307Y2851564D01*
X3387356Y2849347D01*
X3388183Y2847037D01*
X3388779Y2844657D01*
X3389139Y2842230D01*
X3389259Y2839780D01*
X3389139Y2837329D01*
X3388779Y2834902D01*
X3388183Y2832522D01*
X3387356Y2830213D01*
X3386307Y2827995D01*
X3385046Y2825890D01*
X3383584Y2823920D01*
X3381937Y2822102D01*
X3335975Y2776140D01*
X3334157Y2774492D01*
X3332186Y2773031D01*
X3330082Y2771770D01*
X3327864Y2770721D01*
X3325554Y2769894D01*
X3323174Y2769298D01*
X3320748Y2768938D01*
X3318297Y2768818D01*
X3315847Y2768938D01*
X3313420Y2769298D01*
X3311040Y2769894D01*
X3308730Y2770721D01*
X3306512Y2771770D01*
X3304408Y2773031D01*
X3302437Y2774492D01*
X3300620Y2776140D01*
X3236980Y2839780D01*
X3235332Y2841597D01*
X3233871Y2843568D01*
X3232610Y2845672D01*
X3231561Y2847890D01*
X3230734Y2850200D01*
X3230138Y2852580D01*
X3229778Y2855007D01*
X3229658Y2857457D01*
X3229778Y2859908D01*
X3230138Y2862334D01*
X3230734Y2864714D01*
X3231561Y2867024D01*
X3232610Y2869242D01*
X3233871Y2871346D01*
X3235332Y2873317D01*
X3236980Y2875135D01*
X3282942Y2921097D01*
X3284760Y2922744D01*
X3286730Y2924206D01*
X3288835Y2925467D01*
X3291053Y2926516D01*
X3293362Y2927343D01*
X3295742Y2927939D01*
X3298169Y2928299D01*
X3300620Y2928419D01*
X3303070Y2928299D01*
X3303070Y2928299D01*
G37*
D11*
X3309458Y2848618D03*
D10*
G36*
X3158113Y2783342D02*
G01*
X3160540Y2782982D01*
X3162920Y2782386D01*
X3165230Y2781559D01*
X3167448Y2780510D01*
X3169552Y2779249D01*
X3171523Y2777788D01*
X3173340Y2776140D01*
X3236980Y2712500D01*
X3238628Y2710683D01*
X3240089Y2708712D01*
X3241350Y2706608D01*
X3242399Y2704390D01*
X3243226Y2702080D01*
X3243822Y2699700D01*
X3244182Y2697273D01*
X3244302Y2694823D01*
X3244182Y2692372D01*
X3243822Y2689946D01*
X3243226Y2687566D01*
X3242399Y2685256D01*
X3241350Y2683038D01*
X3240089Y2680934D01*
X3238628Y2678963D01*
X3236980Y2677145D01*
X3191018Y2631183D01*
X3189200Y2629536D01*
X3187230Y2628074D01*
X3185125Y2626813D01*
X3182907Y2625764D01*
X3180597Y2624937D01*
X3178218Y2624341D01*
X3175791Y2623981D01*
X3173340Y2623861D01*
X3170890Y2623981D01*
X3168463Y2624341D01*
X3166083Y2624937D01*
X3163773Y2625764D01*
X3161555Y2626813D01*
X3159451Y2628074D01*
X3157481Y2629536D01*
X3155663Y2631183D01*
X3092023Y2694823D01*
X3090375Y2696641D01*
X3088914Y2698611D01*
X3087653Y2700716D01*
X3086604Y2702933D01*
X3085777Y2705243D01*
X3085181Y2707623D01*
X3084821Y2710050D01*
X3084701Y2712500D01*
X3084821Y2714951D01*
X3085181Y2717378D01*
X3085777Y2719758D01*
X3086604Y2722067D01*
X3087653Y2724285D01*
X3088914Y2726390D01*
X3090375Y2728360D01*
X3092023Y2730178D01*
X3137985Y2776140D01*
X3139803Y2777788D01*
X3141774Y2779249D01*
X3143878Y2780510D01*
X3146096Y2781559D01*
X3148406Y2782386D01*
X3150786Y2782982D01*
X3153212Y2783342D01*
X3155663Y2783462D01*
X3158113Y2783342D01*
X3158113Y2783342D01*
G37*
D11*
X3164502Y2703662D03*
D10*
G36*
X3772970Y2488879D02*
G01*
X3775397Y2488519D01*
X3777777Y2487923D01*
X3780087Y2487096D01*
X3782304Y2486047D01*
X3784409Y2484786D01*
X3786379Y2483325D01*
X3788197Y2481677D01*
X3851837Y2418037D01*
X3853484Y2416219D01*
X3854946Y2414249D01*
X3856207Y2412145D01*
X3857256Y2409927D01*
X3858083Y2407617D01*
X3858679Y2405237D01*
X3859039Y2402810D01*
X3859159Y2400360D01*
X3859039Y2397909D01*
X3858679Y2395482D01*
X3858083Y2393103D01*
X3857256Y2390793D01*
X3856207Y2388575D01*
X3854946Y2386470D01*
X3853484Y2384500D01*
X3851837Y2382682D01*
X3805875Y2336720D01*
X3804057Y2335072D01*
X3802086Y2333611D01*
X3799982Y2332350D01*
X3797764Y2331301D01*
X3795454Y2330474D01*
X3793074Y2329878D01*
X3790648Y2329518D01*
X3788197Y2329398D01*
X3785747Y2329518D01*
X3783320Y2329878D01*
X3780940Y2330474D01*
X3778630Y2331301D01*
X3776412Y2332350D01*
X3774308Y2333611D01*
X3772337Y2335072D01*
X3770520Y2336720D01*
X3706880Y2400360D01*
X3705232Y2402177D01*
X3703771Y2404148D01*
X3702510Y2406252D01*
X3701461Y2408470D01*
X3700634Y2410780D01*
X3700038Y2413160D01*
X3699678Y2415587D01*
X3699558Y2418037D01*
X3699678Y2420488D01*
X3700038Y2422914D01*
X3700634Y2425294D01*
X3701461Y2427604D01*
X3702510Y2429822D01*
X3703771Y2431926D01*
X3705232Y2433897D01*
X3706880Y2435715D01*
X3752842Y2481677D01*
X3754660Y2483325D01*
X3756630Y2484786D01*
X3758735Y2486047D01*
X3760953Y2487096D01*
X3763262Y2487923D01*
X3765642Y2488519D01*
X3768069Y2488879D01*
X3770520Y2488999D01*
X3772970Y2488879D01*
X3772970Y2488879D01*
G37*
D11*
X3779358Y2409198D03*
D10*
G36*
X3628013Y2343922D02*
G01*
X3630440Y2343562D01*
X3632820Y2342966D01*
X3635130Y2342139D01*
X3637348Y2341090D01*
X3639452Y2339829D01*
X3641423Y2338368D01*
X3643240Y2336720D01*
X3706880Y2273080D01*
X3708528Y2271263D01*
X3709989Y2269292D01*
X3711250Y2267188D01*
X3712299Y2264970D01*
X3713126Y2262660D01*
X3713722Y2260280D01*
X3714082Y2257853D01*
X3714202Y2255403D01*
X3714082Y2252952D01*
X3713722Y2250526D01*
X3713126Y2248146D01*
X3712299Y2245836D01*
X3711250Y2243618D01*
X3709989Y2241514D01*
X3708528Y2239543D01*
X3706880Y2237725D01*
X3660918Y2191763D01*
X3659100Y2190116D01*
X3657130Y2188654D01*
X3655025Y2187393D01*
X3652807Y2186344D01*
X3650497Y2185517D01*
X3648118Y2184921D01*
X3645691Y2184561D01*
X3643240Y2184441D01*
X3640790Y2184561D01*
X3638363Y2184921D01*
X3635983Y2185517D01*
X3633673Y2186344D01*
X3631455Y2187393D01*
X3629351Y2188654D01*
X3627381Y2190116D01*
X3625563Y2191763D01*
X3561923Y2255403D01*
X3560275Y2257221D01*
X3558814Y2259191D01*
X3557553Y2261296D01*
X3556504Y2263513D01*
X3555677Y2265823D01*
X3555081Y2268203D01*
X3554721Y2270630D01*
X3554601Y2273080D01*
X3554721Y2275531D01*
X3555081Y2277958D01*
X3555677Y2280338D01*
X3556504Y2282647D01*
X3557553Y2284865D01*
X3558814Y2286970D01*
X3560275Y2288940D01*
X3561923Y2290758D01*
X3607885Y2336720D01*
X3609703Y2338368D01*
X3611674Y2339829D01*
X3613778Y2341090D01*
X3615996Y2342139D01*
X3618306Y2342966D01*
X3620686Y2343562D01*
X3623112Y2343922D01*
X3625563Y2344042D01*
X3628013Y2343922D01*
X3628013Y2343922D01*
G37*
D11*
X3634402Y2264242D03*
D21*
X1184000Y278812D03*
X784000Y278812D03*
D22*
X4843860Y3239940D03*
X4843860Y3429940D03*
X5043860Y3334940D03*
X5475660Y3334940D03*
X5275660Y3429940D03*
X5275660Y3239940D03*
D10*
G36*
X1615650Y2346130D02*
G01*
X1618077Y2345770D01*
X1620457Y2345174D01*
X1622767Y2344347D01*
X1624985Y2343298D01*
X1627089Y2342037D01*
X1629060Y2340575D01*
X1630878Y2338928D01*
X1632525Y2337110D01*
X1633987Y2335139D01*
X1635248Y2333035D01*
X1636297Y2330817D01*
X1637123Y2328507D01*
X1637720Y2326127D01*
X1638080Y2323701D01*
X1638200Y2321250D01*
X1638200Y2256250D01*
X1638080Y2253800D01*
X1637720Y2251373D01*
X1637123Y2248993D01*
X1636297Y2246683D01*
X1635248Y2244465D01*
X1633987Y2242361D01*
X1632525Y2240390D01*
X1630878Y2238572D01*
X1629060Y2236925D01*
X1627089Y2235463D01*
X1624985Y2234202D01*
X1622767Y2233153D01*
X1620457Y2232327D01*
X1618077Y2231730D01*
X1615650Y2231370D01*
X1613200Y2231250D01*
X1523200Y2231250D01*
X1520749Y2231370D01*
X1518323Y2231730D01*
X1515943Y2232327D01*
X1513633Y2233153D01*
X1511415Y2234202D01*
X1509311Y2235463D01*
X1507340Y2236925D01*
X1505522Y2238572D01*
X1503875Y2240390D01*
X1502413Y2242361D01*
X1501152Y2244465D01*
X1500103Y2246683D01*
X1499276Y2248993D01*
X1498680Y2251373D01*
X1498320Y2253800D01*
X1498200Y2256250D01*
X1498200Y2321250D01*
X1498320Y2323701D01*
X1498680Y2326127D01*
X1499276Y2328507D01*
X1500103Y2330817D01*
X1501152Y2333035D01*
X1502413Y2335139D01*
X1503875Y2337110D01*
X1505522Y2338928D01*
X1507340Y2340575D01*
X1509311Y2342037D01*
X1511415Y2343298D01*
X1513633Y2344347D01*
X1515943Y2345174D01*
X1518323Y2345770D01*
X1520749Y2346130D01*
X1523200Y2346250D01*
X1613200Y2346250D01*
X1615650Y2346130D01*
X1615650Y2346130D01*
G37*
D11*
X1568200Y2288750D03*
D10*
G36*
X1615650Y2141130D02*
G01*
X1618077Y2140770D01*
X1620457Y2140174D01*
X1622767Y2139347D01*
X1624985Y2138298D01*
X1627089Y2137037D01*
X1629060Y2135575D01*
X1630878Y2133928D01*
X1632525Y2132110D01*
X1633987Y2130139D01*
X1635248Y2128035D01*
X1636297Y2125817D01*
X1637123Y2123507D01*
X1637720Y2121127D01*
X1638080Y2118701D01*
X1638200Y2116250D01*
X1638200Y2051250D01*
X1638080Y2048799D01*
X1637720Y2046373D01*
X1637123Y2043993D01*
X1636297Y2041683D01*
X1635248Y2039465D01*
X1633987Y2037361D01*
X1632525Y2035390D01*
X1630878Y2033572D01*
X1629060Y2031925D01*
X1627089Y2030463D01*
X1624985Y2029202D01*
X1622767Y2028153D01*
X1620457Y2027326D01*
X1618077Y2026730D01*
X1615650Y2026370D01*
X1613200Y2026250D01*
X1523200Y2026250D01*
X1520749Y2026370D01*
X1518323Y2026730D01*
X1515943Y2027326D01*
X1513633Y2028153D01*
X1511415Y2029202D01*
X1509311Y2030463D01*
X1507340Y2031925D01*
X1505522Y2033572D01*
X1503875Y2035390D01*
X1502413Y2037361D01*
X1501152Y2039465D01*
X1500103Y2041683D01*
X1499276Y2043993D01*
X1498680Y2046373D01*
X1498320Y2048799D01*
X1498200Y2051250D01*
X1498200Y2116250D01*
X1498320Y2118701D01*
X1498680Y2121127D01*
X1499276Y2123507D01*
X1500103Y2125817D01*
X1501152Y2128035D01*
X1502413Y2130139D01*
X1503875Y2132110D01*
X1505522Y2133928D01*
X1507340Y2135575D01*
X1509311Y2137037D01*
X1511415Y2138298D01*
X1513633Y2139347D01*
X1515943Y2140174D01*
X1518323Y2140770D01*
X1520749Y2141130D01*
X1523200Y2141250D01*
X1613200Y2141250D01*
X1615650Y2141130D01*
X1615650Y2141130D01*
G37*
D11*
X1568200Y2083750D03*
D23*
X6089400Y3167300D03*
D24*
X6089400Y2767300D03*
D25*
X2691811Y2581230D03*
D10*
G36*
X2728934Y2657244D02*
G01*
X2767825Y2618353D01*
X2654687Y2505216D01*
X2615797Y2544107D01*
X2728934Y2657244D01*
X2728934Y2657244D01*
G37*
D25*
X2748379Y2524662D03*
D10*
G36*
X2785502Y2600676D02*
G01*
X2824393Y2561785D01*
X2711256Y2448648D01*
X2672365Y2487539D01*
X2785502Y2600676D01*
X2785502Y2600676D01*
G37*
D25*
X2804948Y2468093D03*
D10*
G36*
X2842071Y2544107D02*
G01*
X2880962Y2505216D01*
X2767825Y2392079D01*
X2728934Y2430970D01*
X2842071Y2544107D01*
X2842071Y2544107D01*
G37*
D25*
X2861516Y2411525D03*
D10*
G36*
X2898639Y2487539D02*
G01*
X2937530Y2448648D01*
X2824393Y2335511D01*
X2785502Y2374402D01*
X2898639Y2487539D01*
X2898639Y2487539D01*
G37*
D25*
X2918085Y2354956D03*
D10*
G36*
X2955208Y2430970D02*
G01*
X2994099Y2392079D01*
X2880962Y2278942D01*
X2842071Y2317833D01*
X2955208Y2430970D01*
X2955208Y2430970D01*
G37*
D25*
X2974653Y2298388D03*
D10*
G36*
X3011776Y2374402D02*
G01*
X3050667Y2335511D01*
X2937530Y2222374D01*
X2898639Y2261265D01*
X3011776Y2374402D01*
X3011776Y2374402D01*
G37*
D25*
X3031222Y2241819D03*
D10*
G36*
X3068345Y2317833D02*
G01*
X3107236Y2278942D01*
X2994099Y2165805D01*
X2955208Y2204696D01*
X3068345Y2317833D01*
X3068345Y2317833D01*
G37*
D25*
X3087790Y2185251D03*
D10*
G36*
X3124913Y2261265D02*
G01*
X3163804Y2222374D01*
X3050667Y2109237D01*
X3011776Y2148127D01*
X3124913Y2261265D01*
X3124913Y2261265D01*
G37*
D25*
X3087790Y1980189D03*
D10*
G36*
X3163804Y1943066D02*
G01*
X3124913Y1904175D01*
X3011776Y2017313D01*
X3050667Y2056203D01*
X3163804Y1943066D01*
X3163804Y1943066D01*
G37*
D25*
X3031222Y1923621D03*
D10*
G36*
X3107236Y1886498D02*
G01*
X3068345Y1847607D01*
X2955208Y1960744D01*
X2994099Y1999635D01*
X3107236Y1886498D01*
X3107236Y1886498D01*
G37*
D25*
X2974653Y1867052D03*
D10*
G36*
X3050667Y1829929D02*
G01*
X3011776Y1791038D01*
X2898639Y1904175D01*
X2937530Y1943066D01*
X3050667Y1829929D01*
X3050667Y1829929D01*
G37*
D25*
X2918085Y1810484D03*
D10*
G36*
X2994099Y1773361D02*
G01*
X2955208Y1734470D01*
X2842071Y1847607D01*
X2880962Y1886498D01*
X2994099Y1773361D01*
X2994099Y1773361D01*
G37*
D25*
X2861516Y1753915D03*
D10*
G36*
X2937530Y1716792D02*
G01*
X2898639Y1677901D01*
X2785502Y1791038D01*
X2824393Y1829929D01*
X2937530Y1716792D01*
X2937530Y1716792D01*
G37*
D25*
X2804948Y1697347D03*
D10*
G36*
X2880962Y1660224D02*
G01*
X2842071Y1621333D01*
X2728934Y1734470D01*
X2767825Y1773361D01*
X2880962Y1660224D01*
X2880962Y1660224D01*
G37*
D25*
X2748379Y1640778D03*
D10*
G36*
X2824393Y1603655D02*
G01*
X2785502Y1564764D01*
X2672365Y1677901D01*
X2711256Y1716792D01*
X2824393Y1603655D01*
X2824393Y1603655D01*
G37*
D25*
X2691811Y1584210D03*
D10*
G36*
X2767825Y1547087D02*
G01*
X2728934Y1508196D01*
X2615797Y1621333D01*
X2654687Y1660224D01*
X2767825Y1547087D01*
X2767825Y1547087D01*
G37*
D25*
X2486750Y1584210D03*
D10*
G36*
X2523873Y1660224D02*
G01*
X2562764Y1621333D01*
X2449626Y1508196D01*
X2410736Y1547087D01*
X2523873Y1660224D01*
X2523873Y1660224D01*
G37*
D25*
X2430181Y1640778D03*
D10*
G36*
X2467304Y1716792D02*
G01*
X2506195Y1677901D01*
X2393058Y1564764D01*
X2354167Y1603655D01*
X2467304Y1716792D01*
X2467304Y1716792D01*
G37*
D25*
X2373612Y1697347D03*
D10*
G36*
X2410736Y1773361D02*
G01*
X2449626Y1734470D01*
X2336489Y1621333D01*
X2297598Y1660224D01*
X2410736Y1773361D01*
X2410736Y1773361D01*
G37*
D25*
X2317044Y1753915D03*
D10*
G36*
X2354167Y1829929D02*
G01*
X2393058Y1791038D01*
X2279921Y1677901D01*
X2241030Y1716792D01*
X2354167Y1829929D01*
X2354167Y1829929D01*
G37*
D25*
X2260475Y1810484D03*
D10*
G36*
X2297598Y1886498D02*
G01*
X2336489Y1847607D01*
X2223352Y1734470D01*
X2184461Y1773361D01*
X2297598Y1886498D01*
X2297598Y1886498D01*
G37*
D25*
X2203907Y1867052D03*
D10*
G36*
X2241030Y1943066D02*
G01*
X2279921Y1904175D01*
X2166784Y1791038D01*
X2127893Y1829929D01*
X2241030Y1943066D01*
X2241030Y1943066D01*
G37*
D25*
X2147338Y1923621D03*
D10*
G36*
X2184461Y1999635D02*
G01*
X2223352Y1960744D01*
X2110215Y1847607D01*
X2071324Y1886498D01*
X2184461Y1999635D01*
X2184461Y1999635D01*
G37*
D25*
X2090770Y1980189D03*
D10*
G36*
X2127893Y2056203D02*
G01*
X2166784Y2017313D01*
X2053647Y1904175D01*
X2014756Y1943066D01*
X2127893Y2056203D01*
X2127893Y2056203D01*
G37*
D25*
X2090770Y2185251D03*
D10*
G36*
X2166784Y2148127D02*
G01*
X2127893Y2109237D01*
X2014756Y2222374D01*
X2053647Y2261265D01*
X2166784Y2148127D01*
X2166784Y2148127D01*
G37*
D25*
X2147338Y2241819D03*
D10*
G36*
X2223352Y2204696D02*
G01*
X2184461Y2165805D01*
X2071324Y2278942D01*
X2110215Y2317833D01*
X2223352Y2204696D01*
X2223352Y2204696D01*
G37*
D25*
X2203907Y2298388D03*
D10*
G36*
X2279921Y2261265D02*
G01*
X2241030Y2222374D01*
X2127893Y2335511D01*
X2166784Y2374402D01*
X2279921Y2261265D01*
X2279921Y2261265D01*
G37*
D25*
X2260475Y2354956D03*
D10*
G36*
X2336489Y2317833D02*
G01*
X2297598Y2278942D01*
X2184461Y2392079D01*
X2223352Y2430970D01*
X2336489Y2317833D01*
X2336489Y2317833D01*
G37*
D25*
X2317044Y2411525D03*
D10*
G36*
X2393058Y2374402D02*
G01*
X2354167Y2335511D01*
X2241030Y2448648D01*
X2279921Y2487539D01*
X2393058Y2374402D01*
X2393058Y2374402D01*
G37*
D25*
X2373612Y2468093D03*
D10*
G36*
X2449626Y2430970D02*
G01*
X2410736Y2392079D01*
X2297598Y2505216D01*
X2336489Y2544107D01*
X2449626Y2430970D01*
X2449626Y2430970D01*
G37*
D25*
X2430181Y2524662D03*
D10*
G36*
X2506195Y2487539D02*
G01*
X2467304Y2448648D01*
X2354167Y2561785D01*
X2393058Y2600676D01*
X2506195Y2487539D01*
X2506195Y2487539D01*
G37*
D25*
X2486750Y2581230D03*
D10*
G36*
X2562764Y2544107D02*
G01*
X2523873Y2505216D01*
X2410736Y2618353D01*
X2449626Y2657244D01*
X2562764Y2544107D01*
X2562764Y2544107D01*
G37*
D26*
X4100000Y249000D03*
D27*
X4100000Y503000D03*
X4354000Y249000D03*
X4354000Y503000D03*
X4608000Y249000D03*
X4608000Y503000D03*
X4862000Y249000D03*
X4862000Y503000D03*
X5116000Y249000D03*
X5116000Y503000D03*
X5370000Y249000D03*
X5370000Y503000D03*
X5624000Y249000D03*
X5624000Y503000D03*
X5878000Y249000D03*
X5878000Y503000D03*
X6132000Y249000D03*
X6132000Y503000D03*
X6386000Y249000D03*
X6386000Y503000D03*
X6640000Y249000D03*
X6640000Y503000D03*
X6894000Y249000D03*
X6894000Y503000D03*
D28*
X806200Y2240200D03*
X1060200Y2494200D03*
X806200Y2748200D03*
D29*
X3314580Y2556580D03*
X3489580Y2556580D03*
X3489580Y2416580D03*
X3314580Y2416580D03*
D10*
G36*
X2064100Y366700D02*
G01*
X2066527Y366340D01*
X2068907Y365743D01*
X2071217Y364917D01*
X2073435Y363868D01*
X2075539Y362607D01*
X2077510Y361145D01*
X2079328Y359498D01*
X2080975Y357680D01*
X2082437Y355709D01*
X2083698Y353605D01*
X2084747Y351387D01*
X2085573Y349077D01*
X2086170Y346697D01*
X2086530Y344270D01*
X2086650Y341820D01*
X2086650Y216820D01*
X2086530Y214370D01*
X2086170Y211943D01*
X2085573Y209563D01*
X2084747Y207253D01*
X2083698Y205035D01*
X2082437Y202931D01*
X2080975Y200960D01*
X2079328Y199142D01*
X2077510Y197495D01*
X2075539Y196033D01*
X2073435Y194772D01*
X2071217Y193723D01*
X2068907Y192896D01*
X2066527Y192300D01*
X2064100Y191940D01*
X2061650Y191820D01*
X1969150Y191820D01*
X1966700Y191940D01*
X1964273Y192300D01*
X1961893Y192896D01*
X1959583Y193723D01*
X1957365Y194772D01*
X1955261Y196033D01*
X1953290Y197495D01*
X1951472Y199142D01*
X1949825Y200960D01*
X1948363Y202931D01*
X1947102Y205035D01*
X1946053Y207253D01*
X1945226Y209563D01*
X1944630Y211943D01*
X1944270Y214370D01*
X1944150Y216820D01*
X1944150Y341820D01*
X1944270Y344270D01*
X1944630Y346697D01*
X1945226Y349077D01*
X1946053Y351387D01*
X1947102Y353605D01*
X1948363Y355709D01*
X1949825Y357680D01*
X1951472Y359498D01*
X1953290Y361145D01*
X1955261Y362607D01*
X1957365Y363868D01*
X1959583Y364917D01*
X1961893Y365743D01*
X1964273Y366340D01*
X1966700Y366700D01*
X1969150Y366820D01*
X2061650Y366820D01*
X2064100Y366700D01*
X2064100Y366700D01*
G37*
D16*
X2015400Y279320D03*
D10*
G36*
X1766600Y366700D02*
G01*
X1769027Y366340D01*
X1771407Y365743D01*
X1773717Y364917D01*
X1775935Y363868D01*
X1778039Y362607D01*
X1780010Y361145D01*
X1781828Y359498D01*
X1783475Y357680D01*
X1784937Y355709D01*
X1786198Y353605D01*
X1787247Y351387D01*
X1788073Y349077D01*
X1788670Y346697D01*
X1789030Y344270D01*
X1789150Y341820D01*
X1789150Y216820D01*
X1789030Y214370D01*
X1788670Y211943D01*
X1788073Y209563D01*
X1787247Y207253D01*
X1786198Y205035D01*
X1784937Y202931D01*
X1783475Y200960D01*
X1781828Y199142D01*
X1780010Y197495D01*
X1778039Y196033D01*
X1775935Y194772D01*
X1773717Y193723D01*
X1771407Y192896D01*
X1769027Y192300D01*
X1766600Y191940D01*
X1764150Y191820D01*
X1671650Y191820D01*
X1669200Y191940D01*
X1666773Y192300D01*
X1664393Y192896D01*
X1662083Y193723D01*
X1659865Y194772D01*
X1657761Y196033D01*
X1655790Y197495D01*
X1653972Y199142D01*
X1652325Y200960D01*
X1650863Y202931D01*
X1649602Y205035D01*
X1648553Y207253D01*
X1647726Y209563D01*
X1647130Y211943D01*
X1646770Y214370D01*
X1646650Y216820D01*
X1646650Y341820D01*
X1646770Y344270D01*
X1647130Y346697D01*
X1647726Y349077D01*
X1648553Y351387D01*
X1649602Y353605D01*
X1650863Y355709D01*
X1652325Y357680D01*
X1653972Y359498D01*
X1655790Y361145D01*
X1657761Y362607D01*
X1659865Y363868D01*
X1662083Y364917D01*
X1664393Y365743D01*
X1666773Y366340D01*
X1669200Y366700D01*
X1671650Y366820D01*
X1764150Y366820D01*
X1766600Y366700D01*
X1766600Y366700D01*
G37*
D16*
X1717900Y279320D03*
D10*
G36*
X2064100Y595300D02*
G01*
X2066527Y594940D01*
X2068907Y594344D01*
X2071217Y593517D01*
X2073435Y592468D01*
X2075539Y591207D01*
X2077510Y589745D01*
X2079328Y588098D01*
X2080975Y586280D01*
X2082437Y584309D01*
X2083698Y582205D01*
X2084747Y579987D01*
X2085573Y577677D01*
X2086170Y575297D01*
X2086530Y572870D01*
X2086650Y570420D01*
X2086650Y445420D01*
X2086530Y442970D01*
X2086170Y440543D01*
X2085573Y438163D01*
X2084747Y435853D01*
X2083698Y433635D01*
X2082437Y431531D01*
X2080975Y429560D01*
X2079328Y427742D01*
X2077510Y426095D01*
X2075539Y424633D01*
X2073435Y423372D01*
X2071217Y422323D01*
X2068907Y421496D01*
X2066527Y420900D01*
X2064100Y420540D01*
X2061650Y420420D01*
X1969150Y420420D01*
X1966700Y420540D01*
X1964273Y420900D01*
X1961893Y421496D01*
X1959583Y422323D01*
X1957365Y423372D01*
X1955261Y424633D01*
X1953290Y426095D01*
X1951472Y427742D01*
X1949825Y429560D01*
X1948363Y431531D01*
X1947102Y433635D01*
X1946053Y435853D01*
X1945226Y438163D01*
X1944630Y440543D01*
X1944270Y442970D01*
X1944150Y445420D01*
X1944150Y570420D01*
X1944270Y572870D01*
X1944630Y575297D01*
X1945226Y577677D01*
X1946053Y579987D01*
X1947102Y582205D01*
X1948363Y584309D01*
X1949825Y586280D01*
X1951472Y588098D01*
X1953290Y589745D01*
X1955261Y591207D01*
X1957365Y592468D01*
X1959583Y593517D01*
X1961893Y594344D01*
X1964273Y594940D01*
X1966700Y595300D01*
X1969150Y595420D01*
X2061650Y595420D01*
X2064100Y595300D01*
X2064100Y595300D01*
G37*
D16*
X2015400Y507920D03*
D10*
G36*
X1766600Y595300D02*
G01*
X1769027Y594940D01*
X1771407Y594344D01*
X1773717Y593517D01*
X1775935Y592468D01*
X1778039Y591207D01*
X1780010Y589745D01*
X1781828Y588098D01*
X1783475Y586280D01*
X1784937Y584309D01*
X1786198Y582205D01*
X1787247Y579987D01*
X1788073Y577677D01*
X1788670Y575297D01*
X1789030Y572870D01*
X1789150Y570420D01*
X1789150Y445420D01*
X1789030Y442970D01*
X1788670Y440543D01*
X1788073Y438163D01*
X1787247Y435853D01*
X1786198Y433635D01*
X1784937Y431531D01*
X1783475Y429560D01*
X1781828Y427742D01*
X1780010Y426095D01*
X1778039Y424633D01*
X1775935Y423372D01*
X1773717Y422323D01*
X1771407Y421496D01*
X1769027Y420900D01*
X1766600Y420540D01*
X1764150Y420420D01*
X1671650Y420420D01*
X1669200Y420540D01*
X1666773Y420900D01*
X1664393Y421496D01*
X1662083Y422323D01*
X1659865Y423372D01*
X1657761Y424633D01*
X1655790Y426095D01*
X1653972Y427742D01*
X1652325Y429560D01*
X1650863Y431531D01*
X1649602Y433635D01*
X1648553Y435853D01*
X1647726Y438163D01*
X1647130Y440543D01*
X1646770Y442970D01*
X1646650Y445420D01*
X1646650Y570420D01*
X1646770Y572870D01*
X1647130Y575297D01*
X1647726Y577677D01*
X1648553Y579987D01*
X1649602Y582205D01*
X1650863Y584309D01*
X1652325Y586280D01*
X1653972Y588098D01*
X1655790Y589745D01*
X1657761Y591207D01*
X1659865Y592468D01*
X1662083Y593517D01*
X1664393Y594344D01*
X1666773Y594940D01*
X1669200Y595300D01*
X1671650Y595420D01*
X1764150Y595420D01*
X1766600Y595300D01*
X1766600Y595300D01*
G37*
D16*
X1717900Y507920D03*
D30*
X1460000Y2810000D03*
X2240000Y2810000D03*
D31*
X6699000Y3141640D03*
X6699000Y2791640D03*
D10*
G36*
X3996600Y1498460D02*
G01*
X3999027Y1498100D01*
X4001407Y1497503D01*
X4003717Y1496677D01*
X4005935Y1495628D01*
X4008039Y1494367D01*
X4010010Y1492905D01*
X4011828Y1491258D01*
X4013475Y1489440D01*
X4014937Y1487469D01*
X4016198Y1485365D01*
X4017247Y1483147D01*
X4018073Y1480837D01*
X4018670Y1478457D01*
X4019030Y1476030D01*
X4019150Y1473580D01*
X4019150Y1383580D01*
X4019030Y1381130D01*
X4018670Y1378703D01*
X4018073Y1376323D01*
X4017247Y1374013D01*
X4016198Y1371795D01*
X4014937Y1369691D01*
X4013475Y1367720D01*
X4011828Y1365902D01*
X4010010Y1364255D01*
X4008039Y1362793D01*
X4005935Y1361532D01*
X4003717Y1360483D01*
X4001407Y1359657D01*
X3999027Y1359060D01*
X3996600Y1358700D01*
X3994150Y1358580D01*
X3929150Y1358580D01*
X3926699Y1358700D01*
X3924273Y1359060D01*
X3921893Y1359657D01*
X3919583Y1360483D01*
X3917365Y1361532D01*
X3915261Y1362793D01*
X3913290Y1364255D01*
X3911472Y1365902D01*
X3909825Y1367720D01*
X3908363Y1369691D01*
X3907102Y1371795D01*
X3906053Y1374013D01*
X3905226Y1376323D01*
X3904630Y1378703D01*
X3904270Y1381130D01*
X3904150Y1383580D01*
X3904150Y1473580D01*
X3904270Y1476030D01*
X3904630Y1478457D01*
X3905226Y1480837D01*
X3906053Y1483147D01*
X3907102Y1485365D01*
X3908363Y1487469D01*
X3909825Y1489440D01*
X3911472Y1491258D01*
X3913290Y1492905D01*
X3915261Y1494367D01*
X3917365Y1495628D01*
X3919583Y1496677D01*
X3921893Y1497503D01*
X3924273Y1498100D01*
X3926699Y1498460D01*
X3929150Y1498580D01*
X3994150Y1498580D01*
X3996600Y1498460D01*
X3996600Y1498460D01*
G37*
D11*
X3961650Y1428580D03*
D10*
G36*
X4201601Y1498460D02*
G01*
X4204027Y1498100D01*
X4206407Y1497503D01*
X4208717Y1496677D01*
X4210935Y1495628D01*
X4213039Y1494367D01*
X4215010Y1492905D01*
X4216828Y1491258D01*
X4218475Y1489440D01*
X4219937Y1487469D01*
X4221198Y1485365D01*
X4222247Y1483147D01*
X4223074Y1480837D01*
X4223670Y1478457D01*
X4224030Y1476030D01*
X4224150Y1473580D01*
X4224150Y1383580D01*
X4224030Y1381130D01*
X4223670Y1378703D01*
X4223074Y1376323D01*
X4222247Y1374013D01*
X4221198Y1371795D01*
X4219937Y1369691D01*
X4218475Y1367720D01*
X4216828Y1365902D01*
X4215010Y1364255D01*
X4213039Y1362793D01*
X4210935Y1361532D01*
X4208717Y1360483D01*
X4206407Y1359657D01*
X4204027Y1359060D01*
X4201601Y1358700D01*
X4199150Y1358580D01*
X4134150Y1358580D01*
X4131699Y1358700D01*
X4129273Y1359060D01*
X4126893Y1359657D01*
X4124583Y1360483D01*
X4122365Y1361532D01*
X4120261Y1362793D01*
X4118290Y1364255D01*
X4116472Y1365902D01*
X4114825Y1367720D01*
X4113363Y1369691D01*
X4112102Y1371795D01*
X4111053Y1374013D01*
X4110226Y1376323D01*
X4109630Y1378703D01*
X4109270Y1381130D01*
X4109150Y1383580D01*
X4109150Y1473580D01*
X4109270Y1476030D01*
X4109630Y1478457D01*
X4110226Y1480837D01*
X4111053Y1483147D01*
X4112102Y1485365D01*
X4113363Y1487469D01*
X4114825Y1489440D01*
X4116472Y1491258D01*
X4118290Y1492905D01*
X4120261Y1494367D01*
X4122365Y1495628D01*
X4124583Y1496677D01*
X4126893Y1497503D01*
X4129273Y1498100D01*
X4131699Y1498460D01*
X4134150Y1498580D01*
X4199150Y1498580D01*
X4201601Y1498460D01*
X4201601Y1498460D01*
G37*
D11*
X4166650Y1428580D03*
D10*
G36*
X3996600Y1709080D02*
G01*
X3999027Y1708720D01*
X4001407Y1708123D01*
X4003717Y1707297D01*
X4005935Y1706248D01*
X4008039Y1704987D01*
X4010010Y1703525D01*
X4011828Y1701878D01*
X4013475Y1700060D01*
X4014937Y1698089D01*
X4016198Y1695985D01*
X4017247Y1693767D01*
X4018073Y1691457D01*
X4018670Y1689077D01*
X4019030Y1686650D01*
X4019150Y1684200D01*
X4019150Y1594200D01*
X4019030Y1591749D01*
X4018670Y1589323D01*
X4018073Y1586943D01*
X4017247Y1584633D01*
X4016198Y1582415D01*
X4014937Y1580311D01*
X4013475Y1578340D01*
X4011828Y1576522D01*
X4010010Y1574875D01*
X4008039Y1573413D01*
X4005935Y1572152D01*
X4003717Y1571103D01*
X4001407Y1570276D01*
X3999027Y1569680D01*
X3996600Y1569320D01*
X3994150Y1569200D01*
X3929150Y1569200D01*
X3926699Y1569320D01*
X3924273Y1569680D01*
X3921893Y1570276D01*
X3919583Y1571103D01*
X3917365Y1572152D01*
X3915261Y1573413D01*
X3913290Y1574875D01*
X3911472Y1576522D01*
X3909825Y1578340D01*
X3908363Y1580311D01*
X3907102Y1582415D01*
X3906053Y1584633D01*
X3905226Y1586943D01*
X3904630Y1589323D01*
X3904270Y1591749D01*
X3904150Y1594200D01*
X3904150Y1684200D01*
X3904270Y1686650D01*
X3904630Y1689077D01*
X3905226Y1691457D01*
X3906053Y1693767D01*
X3907102Y1695985D01*
X3908363Y1698089D01*
X3909825Y1700060D01*
X3911472Y1701878D01*
X3913290Y1703525D01*
X3915261Y1704987D01*
X3917365Y1706248D01*
X3919583Y1707297D01*
X3921893Y1708123D01*
X3924273Y1708720D01*
X3926699Y1709080D01*
X3929150Y1709200D01*
X3994150Y1709200D01*
X3996600Y1709080D01*
X3996600Y1709080D01*
G37*
D11*
X3961650Y1639200D03*
D10*
G36*
X4201601Y1709080D02*
G01*
X4204027Y1708720D01*
X4206407Y1708123D01*
X4208717Y1707297D01*
X4210935Y1706248D01*
X4213039Y1704987D01*
X4215010Y1703525D01*
X4216828Y1701878D01*
X4218475Y1700060D01*
X4219937Y1698089D01*
X4221198Y1695985D01*
X4222247Y1693767D01*
X4223074Y1691457D01*
X4223670Y1689077D01*
X4224030Y1686650D01*
X4224150Y1684200D01*
X4224150Y1594200D01*
X4224030Y1591749D01*
X4223670Y1589323D01*
X4223074Y1586943D01*
X4222247Y1584633D01*
X4221198Y1582415D01*
X4219937Y1580311D01*
X4218475Y1578340D01*
X4216828Y1576522D01*
X4215010Y1574875D01*
X4213039Y1573413D01*
X4210935Y1572152D01*
X4208717Y1571103D01*
X4206407Y1570276D01*
X4204027Y1569680D01*
X4201601Y1569320D01*
X4199150Y1569200D01*
X4134150Y1569200D01*
X4131699Y1569320D01*
X4129273Y1569680D01*
X4126893Y1570276D01*
X4124583Y1571103D01*
X4122365Y1572152D01*
X4120261Y1573413D01*
X4118290Y1574875D01*
X4116472Y1576522D01*
X4114825Y1578340D01*
X4113363Y1580311D01*
X4112102Y1582415D01*
X4111053Y1584633D01*
X4110226Y1586943D01*
X4109630Y1589323D01*
X4109270Y1591749D01*
X4109150Y1594200D01*
X4109150Y1684200D01*
X4109270Y1686650D01*
X4109630Y1689077D01*
X4110226Y1691457D01*
X4111053Y1693767D01*
X4112102Y1695985D01*
X4113363Y1698089D01*
X4114825Y1700060D01*
X4116472Y1701878D01*
X4118290Y1703525D01*
X4120261Y1704987D01*
X4122365Y1706248D01*
X4124583Y1707297D01*
X4126893Y1708123D01*
X4129273Y1708720D01*
X4131699Y1709080D01*
X4134150Y1709200D01*
X4199150Y1709200D01*
X4201601Y1709080D01*
X4201601Y1709080D01*
G37*
D11*
X4166650Y1639200D03*
D10*
G36*
X4828951Y2499380D02*
G01*
X4831377Y2499020D01*
X4833757Y2498424D01*
X4836067Y2497597D01*
X4838285Y2496548D01*
X4840389Y2495287D01*
X4842360Y2493825D01*
X4844178Y2492178D01*
X4845825Y2490360D01*
X4847287Y2488389D01*
X4848548Y2486285D01*
X4849597Y2484067D01*
X4850424Y2481757D01*
X4851020Y2479377D01*
X4851380Y2476951D01*
X4851500Y2474500D01*
X4851500Y2384500D01*
X4851380Y2382050D01*
X4851020Y2379623D01*
X4850424Y2377243D01*
X4849597Y2374933D01*
X4848548Y2372715D01*
X4847287Y2370611D01*
X4845825Y2368640D01*
X4844178Y2366822D01*
X4842360Y2365175D01*
X4840389Y2363713D01*
X4838285Y2362452D01*
X4836067Y2361403D01*
X4833757Y2360577D01*
X4831377Y2359980D01*
X4828951Y2359620D01*
X4826500Y2359500D01*
X4761500Y2359500D01*
X4759050Y2359620D01*
X4756623Y2359980D01*
X4754243Y2360577D01*
X4751933Y2361403D01*
X4749715Y2362452D01*
X4747611Y2363713D01*
X4745640Y2365175D01*
X4743822Y2366822D01*
X4742175Y2368640D01*
X4740713Y2370611D01*
X4739452Y2372715D01*
X4738403Y2374933D01*
X4737577Y2377243D01*
X4736980Y2379623D01*
X4736620Y2382050D01*
X4736500Y2384500D01*
X4736500Y2474500D01*
X4736620Y2476951D01*
X4736980Y2479377D01*
X4737577Y2481757D01*
X4738403Y2484067D01*
X4739452Y2486285D01*
X4740713Y2488389D01*
X4742175Y2490360D01*
X4743822Y2492178D01*
X4745640Y2493825D01*
X4747611Y2495287D01*
X4749715Y2496548D01*
X4751933Y2497597D01*
X4754243Y2498424D01*
X4756623Y2499020D01*
X4759050Y2499380D01*
X4761500Y2499500D01*
X4826500Y2499500D01*
X4828951Y2499380D01*
X4828951Y2499380D01*
G37*
D11*
X4794000Y2429500D03*
D10*
G36*
X5033951Y2499380D02*
G01*
X5036377Y2499020D01*
X5038757Y2498424D01*
X5041067Y2497597D01*
X5043285Y2496548D01*
X5045389Y2495287D01*
X5047360Y2493825D01*
X5049178Y2492178D01*
X5050825Y2490360D01*
X5052287Y2488389D01*
X5053548Y2486285D01*
X5054597Y2484067D01*
X5055424Y2481757D01*
X5056020Y2479377D01*
X5056380Y2476951D01*
X5056500Y2474500D01*
X5056500Y2384500D01*
X5056380Y2382050D01*
X5056020Y2379623D01*
X5055424Y2377243D01*
X5054597Y2374933D01*
X5053548Y2372715D01*
X5052287Y2370611D01*
X5050825Y2368640D01*
X5049178Y2366822D01*
X5047360Y2365175D01*
X5045389Y2363713D01*
X5043285Y2362452D01*
X5041067Y2361403D01*
X5038757Y2360577D01*
X5036377Y2359980D01*
X5033951Y2359620D01*
X5031500Y2359500D01*
X4966500Y2359500D01*
X4964050Y2359620D01*
X4961623Y2359980D01*
X4959243Y2360577D01*
X4956933Y2361403D01*
X4954715Y2362452D01*
X4952611Y2363713D01*
X4950640Y2365175D01*
X4948822Y2366822D01*
X4947175Y2368640D01*
X4945713Y2370611D01*
X4944452Y2372715D01*
X4943403Y2374933D01*
X4942577Y2377243D01*
X4941980Y2379623D01*
X4941620Y2382050D01*
X4941500Y2384500D01*
X4941500Y2474500D01*
X4941620Y2476951D01*
X4941980Y2479377D01*
X4942577Y2481757D01*
X4943403Y2484067D01*
X4944452Y2486285D01*
X4945713Y2488389D01*
X4947175Y2490360D01*
X4948822Y2492178D01*
X4950640Y2493825D01*
X4952611Y2495287D01*
X4954715Y2496548D01*
X4956933Y2497597D01*
X4959243Y2498424D01*
X4961623Y2499020D01*
X4964050Y2499380D01*
X4966500Y2499500D01*
X5031500Y2499500D01*
X5033951Y2499380D01*
X5033951Y2499380D01*
G37*
D11*
X4999000Y2429500D03*
D10*
G36*
X5033951Y2702580D02*
G01*
X5036377Y2702220D01*
X5038757Y2701624D01*
X5041067Y2700797D01*
X5043285Y2699748D01*
X5045389Y2698487D01*
X5047360Y2697025D01*
X5049178Y2695378D01*
X5050825Y2693560D01*
X5052287Y2691589D01*
X5053548Y2689485D01*
X5054597Y2687267D01*
X5055424Y2684957D01*
X5056020Y2682577D01*
X5056380Y2680151D01*
X5056500Y2677700D01*
X5056500Y2587700D01*
X5056380Y2585250D01*
X5056020Y2582823D01*
X5055424Y2580443D01*
X5054597Y2578133D01*
X5053548Y2575915D01*
X5052287Y2573811D01*
X5050825Y2571840D01*
X5049178Y2570022D01*
X5047360Y2568375D01*
X5045389Y2566913D01*
X5043285Y2565652D01*
X5041067Y2564603D01*
X5038757Y2563777D01*
X5036377Y2563180D01*
X5033951Y2562820D01*
X5031500Y2562700D01*
X4966500Y2562700D01*
X4964050Y2562820D01*
X4961623Y2563180D01*
X4959243Y2563777D01*
X4956933Y2564603D01*
X4954715Y2565652D01*
X4952611Y2566913D01*
X4950640Y2568375D01*
X4948822Y2570022D01*
X4947175Y2571840D01*
X4945713Y2573811D01*
X4944452Y2575915D01*
X4943403Y2578133D01*
X4942577Y2580443D01*
X4941980Y2582823D01*
X4941620Y2585250D01*
X4941500Y2587700D01*
X4941500Y2677700D01*
X4941620Y2680151D01*
X4941980Y2682577D01*
X4942577Y2684957D01*
X4943403Y2687267D01*
X4944452Y2689485D01*
X4945713Y2691589D01*
X4947175Y2693560D01*
X4948822Y2695378D01*
X4950640Y2697025D01*
X4952611Y2698487D01*
X4954715Y2699748D01*
X4956933Y2700797D01*
X4959243Y2701624D01*
X4961623Y2702220D01*
X4964050Y2702580D01*
X4966500Y2702700D01*
X5031500Y2702700D01*
X5033951Y2702580D01*
X5033951Y2702580D01*
G37*
D11*
X4999000Y2632700D03*
D10*
G36*
X4828951Y2702580D02*
G01*
X4831377Y2702220D01*
X4833757Y2701624D01*
X4836067Y2700797D01*
X4838285Y2699748D01*
X4840389Y2698487D01*
X4842360Y2697025D01*
X4844178Y2695378D01*
X4845825Y2693560D01*
X4847287Y2691589D01*
X4848548Y2689485D01*
X4849597Y2687267D01*
X4850424Y2684957D01*
X4851020Y2682577D01*
X4851380Y2680151D01*
X4851500Y2677700D01*
X4851500Y2587700D01*
X4851380Y2585250D01*
X4851020Y2582823D01*
X4850424Y2580443D01*
X4849597Y2578133D01*
X4848548Y2575915D01*
X4847287Y2573811D01*
X4845825Y2571840D01*
X4844178Y2570022D01*
X4842360Y2568375D01*
X4840389Y2566913D01*
X4838285Y2565652D01*
X4836067Y2564603D01*
X4833757Y2563777D01*
X4831377Y2563180D01*
X4828951Y2562820D01*
X4826500Y2562700D01*
X4761500Y2562700D01*
X4759050Y2562820D01*
X4756623Y2563180D01*
X4754243Y2563777D01*
X4751933Y2564603D01*
X4749715Y2565652D01*
X4747611Y2566913D01*
X4745640Y2568375D01*
X4743822Y2570022D01*
X4742175Y2571840D01*
X4740713Y2573811D01*
X4739452Y2575915D01*
X4738403Y2578133D01*
X4737577Y2580443D01*
X4736980Y2582823D01*
X4736620Y2585250D01*
X4736500Y2587700D01*
X4736500Y2677700D01*
X4736620Y2680151D01*
X4736980Y2682577D01*
X4737577Y2684957D01*
X4738403Y2687267D01*
X4739452Y2689485D01*
X4740713Y2691589D01*
X4742175Y2693560D01*
X4743822Y2695378D01*
X4745640Y2697025D01*
X4747611Y2698487D01*
X4749715Y2699748D01*
X4751933Y2700797D01*
X4754243Y2701624D01*
X4756623Y2702220D01*
X4759050Y2702580D01*
X4761500Y2702700D01*
X4826500Y2702700D01*
X4828951Y2702580D01*
X4828951Y2702580D01*
G37*
D11*
X4794000Y2632700D03*
D10*
G36*
X5414951Y2499380D02*
G01*
X5417377Y2499020D01*
X5419757Y2498424D01*
X5422067Y2497597D01*
X5424285Y2496548D01*
X5426389Y2495287D01*
X5428360Y2493825D01*
X5430178Y2492178D01*
X5431825Y2490360D01*
X5433287Y2488389D01*
X5434548Y2486285D01*
X5435597Y2484067D01*
X5436424Y2481757D01*
X5437020Y2479377D01*
X5437380Y2476951D01*
X5437500Y2474500D01*
X5437500Y2384500D01*
X5437380Y2382050D01*
X5437020Y2379623D01*
X5436424Y2377243D01*
X5435597Y2374933D01*
X5434548Y2372715D01*
X5433287Y2370611D01*
X5431825Y2368640D01*
X5430178Y2366822D01*
X5428360Y2365175D01*
X5426389Y2363713D01*
X5424285Y2362452D01*
X5422067Y2361403D01*
X5419757Y2360577D01*
X5417377Y2359980D01*
X5414951Y2359620D01*
X5412500Y2359500D01*
X5347500Y2359500D01*
X5345050Y2359620D01*
X5342623Y2359980D01*
X5340243Y2360577D01*
X5337933Y2361403D01*
X5335715Y2362452D01*
X5333611Y2363713D01*
X5331640Y2365175D01*
X5329822Y2366822D01*
X5328175Y2368640D01*
X5326713Y2370611D01*
X5325452Y2372715D01*
X5324403Y2374933D01*
X5323577Y2377243D01*
X5322980Y2379623D01*
X5322620Y2382050D01*
X5322500Y2384500D01*
X5322500Y2474500D01*
X5322620Y2476951D01*
X5322980Y2479377D01*
X5323577Y2481757D01*
X5324403Y2484067D01*
X5325452Y2486285D01*
X5326713Y2488389D01*
X5328175Y2490360D01*
X5329822Y2492178D01*
X5331640Y2493825D01*
X5333611Y2495287D01*
X5335715Y2496548D01*
X5337933Y2497597D01*
X5340243Y2498424D01*
X5342623Y2499020D01*
X5345050Y2499380D01*
X5347500Y2499500D01*
X5412500Y2499500D01*
X5414951Y2499380D01*
X5414951Y2499380D01*
G37*
D11*
X5380000Y2429500D03*
D10*
G36*
X5209951Y2499380D02*
G01*
X5212377Y2499020D01*
X5214757Y2498424D01*
X5217067Y2497597D01*
X5219285Y2496548D01*
X5221389Y2495287D01*
X5223360Y2493825D01*
X5225178Y2492178D01*
X5226825Y2490360D01*
X5228287Y2488389D01*
X5229548Y2486285D01*
X5230597Y2484067D01*
X5231424Y2481757D01*
X5232020Y2479377D01*
X5232380Y2476951D01*
X5232500Y2474500D01*
X5232500Y2384500D01*
X5232380Y2382050D01*
X5232020Y2379623D01*
X5231424Y2377243D01*
X5230597Y2374933D01*
X5229548Y2372715D01*
X5228287Y2370611D01*
X5226825Y2368640D01*
X5225178Y2366822D01*
X5223360Y2365175D01*
X5221389Y2363713D01*
X5219285Y2362452D01*
X5217067Y2361403D01*
X5214757Y2360577D01*
X5212377Y2359980D01*
X5209951Y2359620D01*
X5207500Y2359500D01*
X5142500Y2359500D01*
X5140050Y2359620D01*
X5137623Y2359980D01*
X5135243Y2360577D01*
X5132933Y2361403D01*
X5130715Y2362452D01*
X5128611Y2363713D01*
X5126640Y2365175D01*
X5124822Y2366822D01*
X5123175Y2368640D01*
X5121713Y2370611D01*
X5120452Y2372715D01*
X5119403Y2374933D01*
X5118577Y2377243D01*
X5117980Y2379623D01*
X5117620Y2382050D01*
X5117500Y2384500D01*
X5117500Y2474500D01*
X5117620Y2476951D01*
X5117980Y2479377D01*
X5118577Y2481757D01*
X5119403Y2484067D01*
X5120452Y2486285D01*
X5121713Y2488389D01*
X5123175Y2490360D01*
X5124822Y2492178D01*
X5126640Y2493825D01*
X5128611Y2495287D01*
X5130715Y2496548D01*
X5132933Y2497597D01*
X5135243Y2498424D01*
X5137623Y2499020D01*
X5140050Y2499380D01*
X5142500Y2499500D01*
X5207500Y2499500D01*
X5209951Y2499380D01*
X5209951Y2499380D01*
G37*
D11*
X5175000Y2429500D03*
D10*
G36*
X5414951Y2702580D02*
G01*
X5417377Y2702220D01*
X5419757Y2701624D01*
X5422067Y2700797D01*
X5424285Y2699748D01*
X5426389Y2698487D01*
X5428360Y2697025D01*
X5430178Y2695378D01*
X5431825Y2693560D01*
X5433287Y2691589D01*
X5434548Y2689485D01*
X5435597Y2687267D01*
X5436424Y2684957D01*
X5437020Y2682577D01*
X5437380Y2680151D01*
X5437500Y2677700D01*
X5437500Y2587700D01*
X5437380Y2585250D01*
X5437020Y2582823D01*
X5436424Y2580443D01*
X5435597Y2578133D01*
X5434548Y2575915D01*
X5433287Y2573811D01*
X5431825Y2571840D01*
X5430178Y2570022D01*
X5428360Y2568375D01*
X5426389Y2566913D01*
X5424285Y2565652D01*
X5422067Y2564603D01*
X5419757Y2563777D01*
X5417377Y2563180D01*
X5414951Y2562820D01*
X5412500Y2562700D01*
X5347500Y2562700D01*
X5345050Y2562820D01*
X5342623Y2563180D01*
X5340243Y2563777D01*
X5337933Y2564603D01*
X5335715Y2565652D01*
X5333611Y2566913D01*
X5331640Y2568375D01*
X5329822Y2570022D01*
X5328175Y2571840D01*
X5326713Y2573811D01*
X5325452Y2575915D01*
X5324403Y2578133D01*
X5323577Y2580443D01*
X5322980Y2582823D01*
X5322620Y2585250D01*
X5322500Y2587700D01*
X5322500Y2677700D01*
X5322620Y2680151D01*
X5322980Y2682577D01*
X5323577Y2684957D01*
X5324403Y2687267D01*
X5325452Y2689485D01*
X5326713Y2691589D01*
X5328175Y2693560D01*
X5329822Y2695378D01*
X5331640Y2697025D01*
X5333611Y2698487D01*
X5335715Y2699748D01*
X5337933Y2700797D01*
X5340243Y2701624D01*
X5342623Y2702220D01*
X5345050Y2702580D01*
X5347500Y2702700D01*
X5412500Y2702700D01*
X5414951Y2702580D01*
X5414951Y2702580D01*
G37*
D11*
X5380000Y2632700D03*
D10*
G36*
X5209951Y2702580D02*
G01*
X5212377Y2702220D01*
X5214757Y2701624D01*
X5217067Y2700797D01*
X5219285Y2699748D01*
X5221389Y2698487D01*
X5223360Y2697025D01*
X5225178Y2695378D01*
X5226825Y2693560D01*
X5228287Y2691589D01*
X5229548Y2689485D01*
X5230597Y2687267D01*
X5231424Y2684957D01*
X5232020Y2682577D01*
X5232380Y2680151D01*
X5232500Y2677700D01*
X5232500Y2587700D01*
X5232380Y2585250D01*
X5232020Y2582823D01*
X5231424Y2580443D01*
X5230597Y2578133D01*
X5229548Y2575915D01*
X5228287Y2573811D01*
X5226825Y2571840D01*
X5225178Y2570022D01*
X5223360Y2568375D01*
X5221389Y2566913D01*
X5219285Y2565652D01*
X5217067Y2564603D01*
X5214757Y2563777D01*
X5212377Y2563180D01*
X5209951Y2562820D01*
X5207500Y2562700D01*
X5142500Y2562700D01*
X5140050Y2562820D01*
X5137623Y2563180D01*
X5135243Y2563777D01*
X5132933Y2564603D01*
X5130715Y2565652D01*
X5128611Y2566913D01*
X5126640Y2568375D01*
X5124822Y2570022D01*
X5123175Y2571840D01*
X5121713Y2573811D01*
X5120452Y2575915D01*
X5119403Y2578133D01*
X5118577Y2580443D01*
X5117980Y2582823D01*
X5117620Y2585250D01*
X5117500Y2587700D01*
X5117500Y2677700D01*
X5117620Y2680151D01*
X5117980Y2682577D01*
X5118577Y2684957D01*
X5119403Y2687267D01*
X5120452Y2689485D01*
X5121713Y2691589D01*
X5123175Y2693560D01*
X5124822Y2695378D01*
X5126640Y2697025D01*
X5128611Y2698487D01*
X5130715Y2699748D01*
X5132933Y2700797D01*
X5135243Y2701624D01*
X5137623Y2702220D01*
X5140050Y2702580D01*
X5142500Y2702700D01*
X5207500Y2702700D01*
X5209951Y2702580D01*
X5209951Y2702580D01*
G37*
D11*
X5175000Y2632700D03*
D32*
X4794000Y2179200D03*
X4921000Y2179200D03*
X5048000Y2179200D03*
X5175000Y2179200D03*
X5302000Y2179200D03*
X5429000Y2179200D03*
X5556000Y2179200D03*
X5683000Y2179200D03*
X5683000Y1639200D03*
X5556000Y1639200D03*
X5429000Y1639200D03*
X5302000Y1639200D03*
X5175000Y1639200D03*
X5048000Y1639200D03*
X4921000Y1639200D03*
X4794000Y1639200D03*
D33*
X7300000Y400000D03*
D10*
G36*
X6188470Y1839800D02*
G01*
X6190897Y1839440D01*
X6193277Y1838843D01*
X6195587Y1838017D01*
X6197805Y1836968D01*
X6199909Y1835707D01*
X6201880Y1834245D01*
X6203698Y1832598D01*
X6205345Y1830780D01*
X6206807Y1828809D01*
X6208068Y1826705D01*
X6209117Y1824487D01*
X6209943Y1822177D01*
X6210540Y1819797D01*
X6210900Y1817370D01*
X6211020Y1814920D01*
X6211020Y1724920D01*
X6210900Y1722469D01*
X6210540Y1720043D01*
X6209943Y1717663D01*
X6209117Y1715353D01*
X6208068Y1713135D01*
X6206807Y1711031D01*
X6205345Y1709060D01*
X6203698Y1707242D01*
X6201880Y1705595D01*
X6199909Y1704133D01*
X6197805Y1702872D01*
X6195587Y1701823D01*
X6193277Y1700996D01*
X6190897Y1700400D01*
X6188470Y1700040D01*
X6186020Y1699920D01*
X6121020Y1699920D01*
X6118569Y1700040D01*
X6116143Y1700400D01*
X6113763Y1700996D01*
X6111453Y1701823D01*
X6109235Y1702872D01*
X6107131Y1704133D01*
X6105160Y1705595D01*
X6103342Y1707242D01*
X6101695Y1709060D01*
X6100233Y1711031D01*
X6098972Y1713135D01*
X6097923Y1715353D01*
X6097096Y1717663D01*
X6096500Y1720043D01*
X6096140Y1722469D01*
X6096020Y1724920D01*
X6096020Y1814920D01*
X6096140Y1817370D01*
X6096500Y1819797D01*
X6097096Y1822177D01*
X6097923Y1824487D01*
X6098972Y1826705D01*
X6100233Y1828809D01*
X6101695Y1830780D01*
X6103342Y1832598D01*
X6105160Y1834245D01*
X6107131Y1835707D01*
X6109235Y1836968D01*
X6111453Y1838017D01*
X6113763Y1838843D01*
X6116143Y1839440D01*
X6118569Y1839800D01*
X6121020Y1839920D01*
X6186020Y1839920D01*
X6188470Y1839800D01*
X6188470Y1839800D01*
G37*
D11*
X6153520Y1769920D03*
D10*
G36*
X5983470Y1839800D02*
G01*
X5985897Y1839440D01*
X5988277Y1838843D01*
X5990587Y1838017D01*
X5992805Y1836968D01*
X5994909Y1835707D01*
X5996880Y1834245D01*
X5998698Y1832598D01*
X6000345Y1830780D01*
X6001807Y1828809D01*
X6003068Y1826705D01*
X6004117Y1824487D01*
X6004943Y1822177D01*
X6005540Y1819797D01*
X6005900Y1817370D01*
X6006020Y1814920D01*
X6006020Y1724920D01*
X6005900Y1722469D01*
X6005540Y1720043D01*
X6004943Y1717663D01*
X6004117Y1715353D01*
X6003068Y1713135D01*
X6001807Y1711031D01*
X6000345Y1709060D01*
X5998698Y1707242D01*
X5996880Y1705595D01*
X5994909Y1704133D01*
X5992805Y1702872D01*
X5990587Y1701823D01*
X5988277Y1700996D01*
X5985897Y1700400D01*
X5983470Y1700040D01*
X5981020Y1699920D01*
X5916020Y1699920D01*
X5913569Y1700040D01*
X5911143Y1700400D01*
X5908763Y1700996D01*
X5906453Y1701823D01*
X5904235Y1702872D01*
X5902131Y1704133D01*
X5900160Y1705595D01*
X5898342Y1707242D01*
X5896695Y1709060D01*
X5895233Y1711031D01*
X5893972Y1713135D01*
X5892923Y1715353D01*
X5892096Y1717663D01*
X5891500Y1720043D01*
X5891140Y1722469D01*
X5891020Y1724920D01*
X5891020Y1814920D01*
X5891140Y1817370D01*
X5891500Y1819797D01*
X5892096Y1822177D01*
X5892923Y1824487D01*
X5893972Y1826705D01*
X5895233Y1828809D01*
X5896695Y1830780D01*
X5898342Y1832598D01*
X5900160Y1834245D01*
X5902131Y1835707D01*
X5904235Y1836968D01*
X5906453Y1838017D01*
X5908763Y1838843D01*
X5911143Y1839440D01*
X5913569Y1839800D01*
X5916020Y1839920D01*
X5981020Y1839920D01*
X5983470Y1839800D01*
X5983470Y1839800D01*
G37*
D11*
X5948520Y1769920D03*
D10*
G36*
X5983470Y1649800D02*
G01*
X5985897Y1649440D01*
X5988277Y1648843D01*
X5990587Y1648017D01*
X5992805Y1646968D01*
X5994909Y1645707D01*
X5996880Y1644245D01*
X5998698Y1642598D01*
X6000345Y1640780D01*
X6001807Y1638809D01*
X6003068Y1636705D01*
X6004117Y1634487D01*
X6004943Y1632177D01*
X6005540Y1629797D01*
X6005900Y1627370D01*
X6006020Y1624920D01*
X6006020Y1534920D01*
X6005900Y1532469D01*
X6005540Y1530043D01*
X6004943Y1527663D01*
X6004117Y1525353D01*
X6003068Y1523135D01*
X6001807Y1521031D01*
X6000345Y1519060D01*
X5998698Y1517242D01*
X5996880Y1515595D01*
X5994909Y1514133D01*
X5992805Y1512872D01*
X5990587Y1511823D01*
X5988277Y1510996D01*
X5985897Y1510400D01*
X5983470Y1510040D01*
X5981020Y1509920D01*
X5916020Y1509920D01*
X5913569Y1510040D01*
X5911143Y1510400D01*
X5908763Y1510996D01*
X5906453Y1511823D01*
X5904235Y1512872D01*
X5902131Y1514133D01*
X5900160Y1515595D01*
X5898342Y1517242D01*
X5896695Y1519060D01*
X5895233Y1521031D01*
X5893972Y1523135D01*
X5892923Y1525353D01*
X5892096Y1527663D01*
X5891500Y1530043D01*
X5891140Y1532469D01*
X5891020Y1534920D01*
X5891020Y1624920D01*
X5891140Y1627370D01*
X5891500Y1629797D01*
X5892096Y1632177D01*
X5892923Y1634487D01*
X5893972Y1636705D01*
X5895233Y1638809D01*
X5896695Y1640780D01*
X5898342Y1642598D01*
X5900160Y1644245D01*
X5902131Y1645707D01*
X5904235Y1646968D01*
X5906453Y1648017D01*
X5908763Y1648843D01*
X5911143Y1649440D01*
X5913569Y1649800D01*
X5916020Y1649920D01*
X5981020Y1649920D01*
X5983470Y1649800D01*
X5983470Y1649800D01*
G37*
D11*
X5948520Y1579920D03*
D10*
G36*
X6188470Y1649800D02*
G01*
X6190897Y1649440D01*
X6193277Y1648843D01*
X6195587Y1648017D01*
X6197805Y1646968D01*
X6199909Y1645707D01*
X6201880Y1644245D01*
X6203698Y1642598D01*
X6205345Y1640780D01*
X6206807Y1638809D01*
X6208068Y1636705D01*
X6209117Y1634487D01*
X6209943Y1632177D01*
X6210540Y1629797D01*
X6210900Y1627370D01*
X6211020Y1624920D01*
X6211020Y1534920D01*
X6210900Y1532469D01*
X6210540Y1530043D01*
X6209943Y1527663D01*
X6209117Y1525353D01*
X6208068Y1523135D01*
X6206807Y1521031D01*
X6205345Y1519060D01*
X6203698Y1517242D01*
X6201880Y1515595D01*
X6199909Y1514133D01*
X6197805Y1512872D01*
X6195587Y1511823D01*
X6193277Y1510996D01*
X6190897Y1510400D01*
X6188470Y1510040D01*
X6186020Y1509920D01*
X6121020Y1509920D01*
X6118569Y1510040D01*
X6116143Y1510400D01*
X6113763Y1510996D01*
X6111453Y1511823D01*
X6109235Y1512872D01*
X6107131Y1514133D01*
X6105160Y1515595D01*
X6103342Y1517242D01*
X6101695Y1519060D01*
X6100233Y1521031D01*
X6098972Y1523135D01*
X6097923Y1525353D01*
X6097096Y1527663D01*
X6096500Y1530043D01*
X6096140Y1532469D01*
X6096020Y1534920D01*
X6096020Y1624920D01*
X6096140Y1627370D01*
X6096500Y1629797D01*
X6097096Y1632177D01*
X6097923Y1634487D01*
X6098972Y1636705D01*
X6100233Y1638809D01*
X6101695Y1640780D01*
X6103342Y1642598D01*
X6105160Y1644245D01*
X6107131Y1645707D01*
X6109235Y1646968D01*
X6111453Y1648017D01*
X6113763Y1648843D01*
X6116143Y1649440D01*
X6118569Y1649800D01*
X6121020Y1649920D01*
X6186020Y1649920D01*
X6188470Y1649800D01*
X6188470Y1649800D01*
G37*
D11*
X6153520Y1579920D03*
D34*
X5556000Y1735000D03*
X107600Y1804800D03*
X107600Y604800D03*
X5068320Y3484800D03*
X2436960Y1158080D03*
X7892800Y604800D03*
X2243840Y2077640D03*
X2929948Y2593093D03*
X1436120Y3065700D03*
X1403100Y1986200D03*
X7892800Y3004800D03*
X7892800Y2404800D03*
X7892800Y1204800D03*
X7892800Y1804800D03*
X7283200Y106600D03*
X5483200Y3484800D03*
X7283200Y3484800D03*
X6683200Y3484800D03*
X3517200Y106600D03*
X2917200Y106600D03*
X107600Y2404800D03*
X107600Y3004800D03*
X517200Y106600D03*
X1117200Y106600D03*
X1717200Y106600D03*
X2317200Y106600D03*
X6083200Y3484800D03*
X5497000Y106600D03*
X6513000Y106600D03*
X6005000Y106600D03*
X4989000Y106600D03*
X7022850Y773350D03*
X2073660Y2809160D03*
X1225300Y2810000D03*
X3516380Y2177970D03*
X3267460Y2177970D03*
X3986280Y2405300D03*
X3854200Y2898060D03*
X3600200Y2898060D03*
X3144000Y2865000D03*
X3811020Y2235120D03*
X3678940Y2593260D03*
X3521460Y2738040D03*
X3043085Y2479956D03*
X1631700Y2809160D03*
X783340Y1584880D03*
X1403100Y2443400D03*
X3986280Y2669460D03*
X783340Y1000680D03*
X417580Y2113200D03*
X417580Y2682160D03*
X1060200Y1816020D03*
X2469900Y2077640D03*
X1206250Y664500D03*
X1717900Y750000D03*
X2551180Y299640D03*
X2276860Y2621200D03*
X5175000Y2717800D03*
X4268020Y1428580D03*
X4794000Y2012000D03*
X6487550Y2468800D03*
X5848100Y2468800D03*
X7300000Y1240200D03*
X7300000Y2640200D03*
X2355600Y2202100D03*
X1682500Y2519600D03*
X4921000Y2012000D03*
X6487550Y1840200D03*
X2138000Y1560000D03*
X1608840Y1816020D03*
X1519940Y1816020D03*
X1431040Y1816020D03*
X2529960Y1738920D03*
X5599500Y3167300D03*
X4794000Y1735000D03*
X4268020Y1639200D03*
X4350570Y1639200D03*
X4684850Y2632700D03*
X4357910Y2632700D03*
X2194080Y1244000D03*
X2679450Y703500D03*
X2491490Y2237660D03*
X5370000Y1000000D03*
X5624000Y1000000D03*
X2673100Y2974260D03*
X2927100Y2974260D03*
X2800100Y2903140D03*
X2546100Y2903140D03*
X2474506Y2367200D03*
X6894000Y1000000D03*
X6487550Y1406450D03*
X6640000Y1000000D03*
X2596533Y2358310D03*
X6345550Y1489920D03*
X2419100Y2974260D03*
X6386000Y1000000D03*
X6132000Y1000000D03*
X3316990Y1299130D03*
X3471930Y1454070D03*
X3008380Y728900D03*
X2863600Y1173400D03*
X5878000Y1000000D03*
X3132840Y1368980D03*
X3305560Y1541700D03*
X2919480Y652700D03*
X2657860Y1224200D03*
X2406400Y507920D03*
X5116000Y1000000D03*
X5043860Y3240960D03*
X4461020Y1428580D03*
D35*
X2803932Y2467044D02*
X2725424Y2388536D01*
D36*
X3333350Y2416580D02*
X3473350Y2556580D01*
D35*
X2918085Y2354956D02*
X3043085Y2479956D01*
X2804948Y2468093D02*
X2929948Y2593093D01*
X2929948Y2593093D02*
X3043085Y2479956D01*
X2378460Y1928469D02*
X2260475Y1810484D01*
X2243840Y2077640D02*
X2378460Y1943020D01*
X2378460Y1943020D02*
X2378460Y1928469D01*
X4794000Y2012000D02*
X4921000Y2012000D01*
X4921000Y1639200D02*
X4921000Y2012000D01*
D37*
X2346798Y1248242D02*
X2436960Y1158080D01*
X5175000Y2632700D02*
X5175000Y2717800D01*
D38*
X1434250Y422460D02*
X1298480Y422460D01*
D37*
X4166650Y1428580D02*
X4268020Y1428580D01*
D35*
X2138000Y1688009D02*
X2260475Y1810484D01*
X2138000Y1560000D02*
X2138000Y1688009D01*
X5556000Y1639200D02*
X5556000Y1735000D01*
D39*
X1055910Y3124910D02*
X1055910Y3349070D01*
X806200Y2875200D02*
X1055910Y3124910D01*
D38*
X2774700Y2301160D02*
X2774700Y2324020D01*
X2861516Y2410836D02*
X2774700Y2324020D01*
D36*
X6089400Y3167300D02*
X6411980Y3167300D01*
X6437640Y3141640D02*
X6699000Y3141640D01*
X6411980Y3167300D02*
X6437640Y3141640D01*
D39*
X2025400Y690800D02*
X2431800Y690800D01*
X2431800Y690800D02*
X2741680Y380920D01*
X1213950Y1816020D02*
X1608840Y1816020D01*
D38*
X2891540Y2214800D02*
X2861060Y2214800D01*
X2974653Y2297913D02*
X2891540Y2214800D01*
D35*
X2431818Y1640778D02*
X2529960Y1738920D01*
D39*
X806200Y2494200D02*
X1213950Y2086450D01*
D38*
X2774700Y2301160D02*
X2861060Y2214800D01*
X2652780Y1861740D02*
X2529960Y1738920D01*
X2817000Y2258000D02*
X2652780Y2093780D01*
X2652780Y2093780D02*
X2652780Y1861740D01*
D39*
X1213950Y2086450D02*
X1213950Y1302200D01*
D38*
X1608840Y1816020D02*
X1608840Y1932860D01*
X1568200Y1973500D02*
X1568200Y2083750D01*
X1608840Y1932860D02*
X1568200Y1973500D01*
D39*
X3473360Y503000D02*
X3351280Y380920D01*
X4608000Y503000D02*
X3473360Y503000D01*
X2741680Y380920D02*
X3351280Y380920D01*
D37*
X4794000Y2632700D02*
X4684850Y2632700D01*
X4357910Y2632700D02*
X4357910Y2726450D01*
X4166650Y1639200D02*
X4350570Y1639200D01*
D35*
X4794000Y1639200D02*
X4350570Y1639200D01*
D36*
X5508375Y2850435D02*
X5453765Y2795825D01*
X5508375Y3076175D02*
X5508375Y2850435D01*
X5599500Y3167300D02*
X5508375Y3076175D01*
D39*
X806200Y2494200D02*
X806200Y2875200D01*
X1683650Y1032550D02*
X1468200Y1032550D01*
X1683650Y1032550D02*
X2025400Y690800D01*
X1468200Y1032550D02*
X1206250Y1294500D01*
D35*
X4794000Y1846500D02*
X4794000Y1639200D01*
X4648200Y1992300D02*
X4794000Y1846500D01*
X4648200Y2514600D02*
X4648200Y1992300D01*
X4684850Y2632700D02*
X4684850Y2551250D01*
X4684850Y2551250D02*
X4648200Y2514600D01*
D36*
X5453765Y2795825D02*
X4751625Y2795825D01*
X4684850Y2729050D02*
X4684850Y2632700D01*
X4751625Y2795825D02*
X4684850Y2729050D01*
X2210820Y1648380D02*
X2210820Y1402177D01*
X2316355Y1753915D02*
X2210820Y1648380D01*
X4735580Y622220D02*
X4680307Y677493D01*
X2679450Y638730D02*
X2819781Y498399D01*
X2679450Y703500D02*
X2679450Y638730D01*
X4735580Y375420D02*
X4862000Y249000D01*
X4735580Y622220D02*
X4735580Y375420D01*
X2194080Y1244000D02*
X2194080Y1380357D01*
X3387495Y677493D02*
X3208401Y498399D01*
X4680307Y677493D02*
X3387495Y677493D01*
X3208401Y498399D02*
X2819781Y498399D01*
X3634402Y2271758D02*
X3489580Y2416580D01*
X3175760Y2273220D02*
X3625423Y2273220D01*
X3087790Y2185251D02*
X3175760Y2273220D01*
X4862000Y610100D02*
X4862000Y503000D01*
X4754606Y717494D02*
X4862000Y610100D01*
X2808990Y610790D02*
X2866140Y553640D01*
X2808990Y694610D02*
X2808990Y610790D01*
X1720616Y1148016D02*
X2076216Y792416D01*
X2076216Y792416D02*
X2711184Y792416D01*
X2711184Y792416D02*
X2808990Y694610D01*
X1460000Y2810000D02*
X1460000Y2678600D01*
X1460000Y2678600D02*
X1568200Y2570400D01*
X2167640Y2560240D02*
X2316355Y2411525D01*
X1862840Y2560240D02*
X2167640Y2560240D01*
X1720616Y2418016D02*
X1862840Y2560240D01*
X1568200Y2288750D02*
X1568200Y2570400D01*
X1568200Y2288750D02*
X1718382Y2288750D01*
X1720616Y2418016D02*
X1720616Y1148016D01*
X3291614Y717494D02*
X3127760Y553640D01*
X4754606Y717494D02*
X3291614Y717494D01*
X2866140Y553640D02*
X3127760Y553640D01*
X2317625Y2411525D02*
X2491490Y2237660D01*
D39*
X722380Y573620D02*
X321000Y975000D01*
X722380Y358060D02*
X722380Y573620D01*
X784000Y296440D02*
X722380Y358060D01*
D36*
X1309910Y3349070D02*
X1309910Y3150310D01*
X1060200Y2494200D02*
X1060200Y2900600D01*
X1309910Y3150310D02*
X1060200Y2900600D01*
X5249940Y1120060D02*
X5370000Y1000000D01*
X3155700Y1120060D02*
X5249940Y1120060D01*
X2691811Y1583949D02*
X3155700Y1120060D01*
X5463939Y1160061D02*
X5624000Y1000000D01*
X3229999Y1160061D02*
X5463939Y1160061D01*
X2749282Y1640778D02*
X3229999Y1160061D01*
X4099890Y2383020D02*
X3577971Y1861101D01*
X3577971Y1861101D02*
X3207139Y1861101D01*
X3207139Y1861101D02*
X3088050Y1980189D01*
X3907656Y3072344D02*
X4099890Y2880110D01*
X2673100Y2974260D02*
X2771184Y3072344D01*
X4099890Y2880110D02*
X4099890Y2383020D01*
X2771184Y3072344D02*
X3907656Y3072344D01*
X2927100Y2702480D02*
X2749282Y2524662D01*
X2927100Y2974260D02*
X2927100Y2702480D01*
X2800100Y2689780D02*
X2691811Y2581491D01*
X2800100Y2903140D02*
X2800100Y2689780D01*
X2401320Y2666920D02*
X2486750Y2581491D01*
X2546100Y2903140D02*
X2401320Y2758360D01*
X2401320Y2758360D02*
X2401320Y2666920D01*
D37*
X4357910Y3023950D02*
X4357910Y3349070D01*
D36*
X1998730Y1776650D02*
X2145701Y1923621D01*
X1998730Y1209321D02*
X1998730Y1776650D01*
X6768850Y374150D02*
X6768850Y582850D01*
X6768850Y582850D02*
X6458994Y892706D01*
X6458994Y892706D02*
X5085544Y892706D01*
X2167993Y1040058D02*
X1998730Y1209321D01*
X5085544Y892706D02*
X4938192Y1040058D01*
X6894000Y249000D02*
X6768850Y374150D01*
X4938192Y1040058D02*
X2167993Y1040058D01*
X2474506Y2367200D02*
X2373612Y2468093D01*
X6894000Y1000000D02*
X6487550Y1406450D01*
X6487550Y1546450D02*
X6487550Y1406450D01*
X6264080Y1769920D02*
X6487550Y1546450D01*
X6153520Y1769920D02*
X6264080Y1769920D01*
X1933960Y1823640D02*
X2090509Y1980189D01*
X1933960Y1217521D02*
X1933960Y1823640D01*
X2151424Y1000057D02*
X1933960Y1217521D01*
X6640000Y249000D02*
X6514850Y374150D01*
X6514850Y374150D02*
X6514850Y582850D01*
X6514850Y582850D02*
X6244995Y852705D01*
X6244995Y852705D02*
X5067344Y852705D01*
X5067344Y852705D02*
X4919992Y1000057D01*
X4919992Y1000057D02*
X2151424Y1000057D01*
X2596533Y2358310D02*
X2430181Y2524662D01*
X6640000Y1000000D02*
X6345550Y1294450D01*
X6255550Y1579920D02*
X6345550Y1489920D01*
X6153520Y1579920D02*
X6255550Y1579920D01*
X6345550Y1489920D02*
X6345550Y1294450D01*
X1991364Y2284396D02*
X2090509Y2185251D01*
X1952756Y2284396D02*
X1991364Y2284396D01*
X1880620Y2212260D02*
X1952756Y2284396D01*
X1880620Y1214292D02*
X1880620Y2212260D01*
X2137412Y957500D02*
X1880620Y1214292D01*
X6386000Y249000D02*
X6260850Y374150D01*
X6260850Y374150D02*
X6260850Y582850D01*
X6260850Y582850D02*
X6030996Y812704D01*
X6030996Y812704D02*
X5050775Y812704D01*
X5050775Y812704D02*
X4905979Y957500D01*
X4905979Y957500D02*
X2137412Y957500D01*
X3132840Y1821100D02*
X3031222Y1922718D01*
X4140875Y2367435D02*
X3594540Y1821100D01*
X2419100Y2974260D02*
X2557185Y3112345D01*
X3924225Y3112345D02*
X4140875Y2895695D01*
X3594540Y1821100D02*
X3132840Y1821100D01*
X4140875Y2895695D02*
X4140875Y2367435D01*
X2557185Y3112345D02*
X3924225Y3112345D01*
X5816997Y772703D02*
X6006850Y582850D01*
X5034206Y772703D02*
X5816997Y772703D01*
X4889410Y917499D02*
X5034206Y772703D01*
X2120843Y917499D02*
X4889410Y917499D01*
X2015240Y2372280D02*
X1931420Y2372280D01*
X2145701Y2241819D02*
X2015240Y2372280D01*
X1931420Y2372280D02*
X1840619Y2281479D01*
X1840619Y2281479D02*
X1840619Y1197723D01*
X1840619Y1197723D02*
X2120843Y917499D01*
X6006850Y374150D02*
X6132000Y249000D01*
X6006850Y582850D02*
X6006850Y374150D01*
X1563910Y3185870D02*
X1563910Y3349070D01*
X1563910Y3185870D02*
X1597434Y3152346D01*
X3068070Y1775380D02*
X3605534Y1775380D01*
X2976398Y1867052D02*
X3068070Y1775380D01*
X3605534Y1775380D02*
X4181860Y2351706D01*
X4181860Y2911280D02*
X4181860Y2351706D01*
X3940793Y3152346D02*
X4181860Y2911280D01*
X1597434Y3152346D02*
X3940793Y3152346D01*
X2111760Y2504360D02*
X2260475Y2355645D01*
X1893320Y2504360D02*
X2111760Y2504360D01*
X1760617Y2371657D02*
X1893320Y2504360D01*
X1760617Y1164585D02*
X1760617Y2371657D01*
X2087705Y837497D02*
X1760617Y1164585D01*
X5624000Y249000D02*
X5498850Y374150D01*
X5498850Y374150D02*
X5498850Y582850D01*
X5498850Y582850D02*
X5388999Y692701D01*
X5388999Y692701D02*
X5001069Y692701D01*
X5001069Y692701D02*
X4856273Y837497D01*
X4856273Y837497D02*
X2087705Y837497D01*
X6105936Y1280064D02*
X6386000Y1000000D01*
X3447816Y1280064D02*
X6105936Y1280064D01*
X2918085Y1809795D02*
X3447816Y1280064D01*
X1800618Y1181154D02*
X2104274Y877498D01*
X1800618Y2325298D02*
X1800618Y1181154D01*
X1916180Y2440860D02*
X1800618Y2325298D01*
X2203432Y2298388D02*
X2060960Y2440860D01*
X2060960Y2440860D02*
X1916180Y2440860D01*
X2104274Y877498D02*
X4872842Y877498D01*
X5017638Y732702D02*
X5602998Y732702D01*
X5602998Y732702D02*
X5752850Y582850D01*
X5017638Y732702D02*
X4872842Y877498D01*
X5752850Y374150D02*
X5878000Y249000D01*
X5752850Y582850D02*
X5752850Y374150D01*
X5891937Y1240063D02*
X6132000Y1000000D01*
X3375549Y1240063D02*
X5891937Y1240063D01*
X2861697Y1753915D02*
X3375549Y1240063D01*
X5175000Y2877740D02*
X5175000Y2977900D01*
X5148330Y2851070D02*
X5175000Y2877740D01*
X4700020Y2851070D02*
X5148330Y2851070D01*
X4604516Y2755566D02*
X4700020Y2851070D01*
X4604516Y2586656D02*
X4604516Y2755566D01*
X3471930Y1454070D02*
X4604516Y2586656D01*
X2373612Y1696872D02*
X2281940Y1605200D01*
X2281940Y1605200D02*
X2281940Y1520618D01*
X2281940Y1520618D02*
X2461264Y1341294D01*
X2461264Y1341294D02*
X2695706Y1341294D01*
X2695706Y1341294D02*
X2863600Y1173400D01*
X3097280Y728900D02*
X3008380Y728900D01*
X3165876Y797496D02*
X3097280Y728900D01*
X5370000Y249000D02*
X5244850Y374150D01*
X5244850Y374150D02*
X5244850Y582850D01*
X5244850Y582850D02*
X5175000Y652700D01*
X5175000Y652700D02*
X4984500Y652700D01*
X4984500Y652700D02*
X4839704Y797496D01*
X4839704Y797496D02*
X3165876Y797496D01*
X3301504Y1200062D02*
X2804948Y1696618D01*
X5878000Y1000000D02*
X5677938Y1200062D01*
X5677938Y1200062D02*
X3301504Y1200062D01*
X3441450Y1677590D02*
X3305560Y1541700D01*
X3565910Y1677590D02*
X3441450Y1677590D01*
X4508250Y2619930D02*
X3565910Y1677590D01*
X4508250Y2849800D02*
X4508250Y2619930D01*
X4794000Y2977900D02*
X4636350Y2977900D01*
X4508250Y2849800D02*
X4636350Y2977900D01*
X3207155Y757495D02*
X3102360Y652700D01*
X4811125Y757495D02*
X3207155Y757495D01*
X4990850Y577770D02*
X4811125Y757495D01*
D37*
X2015400Y279320D02*
X2015400Y507920D01*
D36*
X2919480Y652700D02*
X3102360Y652700D01*
X4990850Y374150D02*
X5116000Y249000D01*
X4990850Y577770D02*
X4990850Y374150D01*
X2063500Y1727120D02*
X2063500Y1211500D01*
X2063500Y1211500D02*
X2194941Y1080059D01*
X2513719Y1080059D02*
X2657860Y1224200D01*
X2194941Y1080059D02*
X2513719Y1080059D01*
X2203432Y1867052D02*
X2063500Y1727120D01*
X2406400Y507920D02*
X2015400Y507920D01*
X2406400Y1503600D02*
X2486750Y1583949D01*
X2439420Y1440100D02*
X2406400Y1473120D01*
X2406400Y1473120D02*
X2406400Y1503600D01*
X5036521Y1080059D02*
X5116580Y1000000D01*
X3096641Y1080059D02*
X5036521Y1080059D01*
X2736600Y1440100D02*
X3096641Y1080059D01*
X2439420Y1440100D02*
X2736600Y1440100D01*
X4843860Y3153080D02*
X4885440Y3111500D01*
X4999000Y3084300D02*
X4971800Y3111500D01*
X4971800Y3111500D02*
X4885440Y3111500D01*
X4999000Y2977900D02*
X4999000Y3084300D01*
X4843860Y3239940D02*
X4843860Y3153080D01*
X5380000Y3091920D02*
X5360420Y3111500D01*
X5312820Y3111500D02*
X5275660Y3148660D01*
X5360420Y3111500D02*
X5312820Y3111500D01*
X5380000Y2977900D02*
X5380000Y3091920D01*
X5275660Y3239940D02*
X5275660Y3148660D01*
D39*
X1184000Y278812D02*
X1184000Y458750D01*
X978250Y664500D02*
X1184000Y458750D01*
D38*
X1600420Y279320D02*
X1717900Y279320D01*
X1538560Y217460D02*
X1600420Y279320D01*
X1434250Y217460D02*
X1538560Y217460D01*
D35*
X1434250Y217460D02*
X1245352Y217460D01*
D37*
X5043860Y3334940D02*
X5043860Y3240960D01*
D36*
X5705860Y3334940D02*
X5475660Y3334940D01*
X5784600Y3256200D02*
X5705860Y3334940D01*
X6403140Y2767300D02*
X6427480Y2791640D01*
X6699000Y2791640D02*
X6427480Y2791640D01*
X5864560Y2767300D02*
X5784600Y2847260D01*
X5784600Y3256200D02*
X5784600Y2847260D01*
X5864560Y2767300D02*
X6403140Y2767300D01*
D37*
X3961650Y1428580D02*
X3961650Y1639200D01*
D36*
X3167498Y2703662D02*
X3314580Y2556580D01*
X3173480Y2694683D02*
X3173480Y2384077D01*
X3031222Y2241819D02*
X3173480Y2384077D01*
X4461020Y1428580D02*
X4548580Y1428580D01*
X4548580Y1428580D02*
X4584920Y1464920D01*
X5478000Y1464920D02*
X4584920Y1464920D01*
X5683000Y1439920D02*
X5683000Y1639200D01*
X4794000Y2179200D02*
X4794000Y2454500D01*
X5048000Y2179200D02*
X5048000Y2283850D01*
X5048000Y2283850D02*
X4999000Y2332850D01*
X4999000Y2332850D02*
X4999000Y2429500D01*
X4921000Y2179200D02*
X4921000Y2328300D01*
X4921000Y2328300D02*
X4895600Y2353700D01*
X4895600Y2353700D02*
X4895600Y2516260D01*
X4999000Y2619660D02*
X4895600Y2516260D01*
X5302000Y2179200D02*
X5302000Y2335920D01*
X5302000Y2335920D02*
X5380000Y2413920D01*
X5175000Y2129200D02*
X5175000Y2379500D01*
X5498850Y2379100D02*
X5429000Y2309250D01*
X5429000Y2309250D02*
X5429000Y2179200D01*
X5498850Y2504830D02*
X5380000Y2623680D01*
X5498850Y2379100D02*
X5498850Y2504830D01*
X5048000Y1849040D02*
X5048000Y1639200D01*
X7027600Y2040200D02*
X5239160Y2040200D01*
X5239160Y2040200D02*
X5048000Y1849040D01*
X5175000Y1846500D02*
X5175000Y1639200D01*
X5294380Y1965880D02*
X5175000Y1846500D01*
X6562780Y1965880D02*
X5294380Y1965880D01*
X7027600Y1840200D02*
X6688460Y1840200D01*
X6688460Y1840200D02*
X6562780Y1965880D01*
X7027600Y2240200D02*
X6621200Y2240200D01*
X6621200Y2240200D02*
X6560200Y2179200D01*
X5683000Y2179200D02*
X6560200Y2179200D01*
X5851020Y1579920D02*
X5826020Y1604920D01*
X5826020Y1604920D02*
X5826020Y1694920D01*
X5826020Y1694920D02*
X5711020Y1809920D01*
X5429000Y1767900D02*
X5429000Y1639200D01*
X5711020Y1809920D02*
X5471020Y1809920D01*
X5471020Y1809920D02*
X5429000Y1767900D01*
X5948520Y1579920D02*
X5851020Y1579920D01*
X5302000Y1800900D02*
X5302000Y1639200D01*
X5361020Y1859920D02*
X5302000Y1800900D01*
X5841020Y1769920D02*
X5751020Y1859920D01*
X5948520Y1769920D02*
X5841020Y1769920D01*
X5751020Y1859920D02*
X5361020Y1859920D01*
D40*
G36*
X7655517Y3529409D02*
G01*
X7622186Y3507139D01*
X7593841Y3478794D01*
X7571571Y3445463D01*
X7556230Y3408429D01*
X7548410Y3369113D01*
X7548410Y3329027D01*
X7556230Y3289711D01*
X7571571Y3252677D01*
X7593841Y3219346D01*
X7622186Y3191001D01*
X7655517Y3168731D01*
X7692551Y3153390D01*
X7731867Y3145570D01*
X7771953Y3145570D01*
X7811269Y3153390D01*
X7848303Y3168731D01*
X7881634Y3191001D01*
X7909979Y3219346D01*
X7932249Y3252677D01*
X7944000Y3281045D01*
X7944000Y316899D01*
X7932197Y345393D01*
X7909927Y378724D01*
X7881582Y407069D01*
X7848251Y429339D01*
X7811217Y444680D01*
X7771901Y452500D01*
X7731815Y452500D01*
X7692499Y444680D01*
X7655465Y429339D01*
X7622134Y407069D01*
X7593789Y378724D01*
X7571519Y345393D01*
X7556178Y308359D01*
X7548358Y269043D01*
X7548358Y228957D01*
X7556178Y189641D01*
X7571519Y152607D01*
X7593789Y119276D01*
X7622134Y90931D01*
X7655465Y68661D01*
X7686030Y56000D01*
X317828Y56000D01*
X348393Y68661D01*
X381724Y90931D01*
X410069Y119276D01*
X432339Y152607D01*
X447680Y189641D01*
X455500Y228957D01*
X455500Y269043D01*
X447680Y308359D01*
X432339Y345393D01*
X410069Y378724D01*
X381724Y407069D01*
X348393Y429339D01*
X311359Y444680D01*
X272043Y452500D01*
X231957Y452500D01*
X192641Y444680D01*
X155607Y429339D01*
X122276Y407069D01*
X93931Y378724D01*
X71661Y345393D01*
X56320Y308359D01*
X56000Y306748D01*
X56000Y1125000D01*
X117241Y1125000D01*
X117241Y825000D01*
X118274Y814512D01*
X121333Y804427D01*
X126301Y795133D01*
X132987Y786987D01*
X141133Y780301D01*
X150427Y775333D01*
X160512Y772274D01*
X171000Y771241D01*
X378388Y771241D01*
X618880Y530749D01*
X618880Y404258D01*
X614301Y398679D01*
X609333Y389385D01*
X606274Y379300D01*
X605241Y368812D01*
X605241Y188812D01*
X606274Y178324D01*
X609333Y168239D01*
X614301Y158945D01*
X620987Y150799D01*
X629133Y144113D01*
X638427Y139145D01*
X648512Y136086D01*
X659000Y135053D01*
X909000Y135053D01*
X919488Y136086D01*
X929573Y139145D01*
X938867Y144113D01*
X947013Y150799D01*
X953699Y158945D01*
X958667Y168239D01*
X961726Y178324D01*
X962759Y188812D01*
X962759Y368812D01*
X961726Y379300D01*
X958667Y389385D01*
X953699Y398679D01*
X947013Y406825D01*
X938867Y413511D01*
X929573Y418479D01*
X919488Y421538D01*
X909000Y422571D01*
X825880Y422571D01*
X825880Y568537D01*
X826381Y573620D01*
X825880Y578703D01*
X825880Y578704D01*
X824382Y593910D01*
X818464Y613419D01*
X811589Y626282D01*
X808853Y631400D01*
X799160Y643211D01*
X795920Y647160D01*
X791971Y650400D01*
X667871Y774500D01*
X864491Y774500D01*
X864491Y554500D01*
X865524Y544012D01*
X868583Y533927D01*
X873551Y524633D01*
X880237Y516487D01*
X888383Y509801D01*
X897677Y504833D01*
X907762Y501774D01*
X918250Y500741D01*
X995638Y500741D01*
X1073808Y422571D01*
X1059000Y422571D01*
X1048512Y421538D01*
X1038427Y418479D01*
X1029133Y413511D01*
X1020987Y406825D01*
X1014301Y398679D01*
X1009333Y389385D01*
X1006274Y379300D01*
X1005241Y368812D01*
X1005241Y188812D01*
X1006274Y178324D01*
X1009333Y168239D01*
X1014301Y158945D01*
X1020987Y150799D01*
X1029133Y144113D01*
X1038427Y139145D01*
X1048512Y136086D01*
X1059000Y135053D01*
X1309000Y135053D01*
X1319488Y136086D01*
X1326275Y138145D01*
X1333559Y129269D01*
X1345494Y119474D01*
X1359110Y112196D01*
X1373885Y107714D01*
X1389250Y106201D01*
X1479250Y106201D01*
X1494615Y107714D01*
X1509390Y112196D01*
X1523006Y119474D01*
X1534941Y129269D01*
X1544736Y141204D01*
X1547850Y147032D01*
X1552478Y147487D01*
X1565862Y151547D01*
X1578196Y158140D01*
X1589007Y167013D01*
X1591231Y169722D01*
X1602127Y180618D01*
X1606164Y173064D01*
X1615959Y161129D01*
X1627894Y151335D01*
X1641510Y144056D01*
X1656285Y139575D01*
X1671650Y138061D01*
X1764150Y138061D01*
X1779515Y139575D01*
X1794290Y144056D01*
X1807906Y151335D01*
X1819841Y161129D01*
X1829635Y173064D01*
X1836914Y186680D01*
X1841395Y201455D01*
X1842909Y216820D01*
X1842909Y341820D01*
X1841395Y357185D01*
X1836914Y371960D01*
X1834789Y375935D01*
X1842204Y384971D01*
X1848100Y396002D01*
X1851731Y407972D01*
X1852957Y420420D01*
X1852650Y479345D01*
X1836775Y495220D01*
X1730600Y495220D01*
X1730600Y493220D01*
X1705200Y493220D01*
X1705200Y495220D01*
X1599025Y495220D01*
X1583150Y479345D01*
X1582843Y420420D01*
X1584069Y407972D01*
X1587700Y396002D01*
X1593596Y384971D01*
X1601011Y375935D01*
X1598886Y371960D01*
X1594404Y357185D01*
X1593697Y350001D01*
X1586501Y349293D01*
X1573118Y345233D01*
X1562743Y339688D01*
X1563200Y340542D01*
X1566831Y352512D01*
X1568057Y364960D01*
X1567750Y393885D01*
X1551875Y409760D01*
X1446950Y409760D01*
X1446950Y407760D01*
X1421550Y407760D01*
X1421550Y409760D01*
X1419550Y409760D01*
X1419550Y435160D01*
X1421550Y435160D01*
X1421550Y651800D01*
X1446950Y651800D01*
X1446950Y435160D01*
X1551875Y435160D01*
X1567750Y451035D01*
X1568057Y479960D01*
X1566831Y492408D01*
X1563200Y504378D01*
X1557304Y515409D01*
X1550069Y524225D01*
X1553200Y530082D01*
X1556831Y542052D01*
X1558057Y554500D01*
X1557903Y595420D01*
X1582843Y595420D01*
X1583150Y536495D01*
X1599025Y520620D01*
X1705200Y520620D01*
X1705200Y643045D01*
X1730600Y643045D01*
X1730600Y520620D01*
X1836775Y520620D01*
X1852650Y536495D01*
X1852957Y595420D01*
X1851731Y607868D01*
X1848100Y619838D01*
X1842204Y630869D01*
X1834268Y640539D01*
X1824599Y648474D01*
X1813568Y654370D01*
X1801598Y658001D01*
X1789150Y659227D01*
X1746475Y658920D01*
X1730600Y643045D01*
X1705200Y643045D01*
X1689325Y658920D01*
X1646650Y659227D01*
X1634202Y658001D01*
X1622232Y654370D01*
X1611201Y648474D01*
X1601531Y640539D01*
X1593596Y630869D01*
X1587700Y619838D01*
X1584069Y607868D01*
X1582843Y595420D01*
X1557903Y595420D01*
X1557750Y635925D01*
X1541875Y651800D01*
X1446950Y651800D01*
X1421550Y651800D01*
X1326625Y651800D01*
X1310750Y635925D01*
X1310443Y554500D01*
X1311669Y542052D01*
X1315300Y530082D01*
X1318431Y524225D01*
X1311196Y515409D01*
X1305300Y504378D01*
X1301669Y492408D01*
X1300443Y479960D01*
X1300750Y451035D01*
X1316625Y435160D01*
X1300750Y435160D01*
X1300750Y422571D01*
X1287500Y422571D01*
X1287500Y453667D01*
X1288001Y458750D01*
X1287500Y463833D01*
X1287500Y463834D01*
X1286002Y479039D01*
X1280084Y498549D01*
X1274294Y509381D01*
X1270473Y516530D01*
X1260780Y528341D01*
X1257540Y532290D01*
X1253591Y535530D01*
X1092009Y697112D01*
X1092009Y774500D01*
X1310443Y774500D01*
X1310750Y693075D01*
X1326625Y677200D01*
X1421550Y677200D01*
X1421550Y822125D01*
X1446950Y822125D01*
X1446950Y677200D01*
X1541875Y677200D01*
X1557750Y693075D01*
X1558057Y774500D01*
X1556831Y786948D01*
X1553200Y798918D01*
X1547304Y809949D01*
X1539368Y819618D01*
X1529699Y827554D01*
X1518668Y833450D01*
X1506698Y837081D01*
X1494250Y838307D01*
X1462825Y838000D01*
X1446950Y822125D01*
X1421550Y822125D01*
X1405675Y838000D01*
X1374250Y838307D01*
X1361802Y837081D01*
X1349832Y833450D01*
X1338801Y827554D01*
X1329132Y819618D01*
X1321196Y809949D01*
X1315300Y798918D01*
X1311669Y786948D01*
X1310443Y774500D01*
X1092009Y774500D01*
X1090976Y784988D01*
X1087917Y795073D01*
X1082949Y804367D01*
X1076263Y812513D01*
X1068117Y819199D01*
X1058823Y824167D01*
X1048738Y827226D01*
X1038250Y828259D01*
X918250Y828259D01*
X907762Y827226D01*
X897677Y824167D01*
X888383Y819199D01*
X880237Y812513D01*
X873551Y804367D01*
X868583Y795073D01*
X865524Y784988D01*
X864491Y774500D01*
X667871Y774500D01*
X524759Y917612D01*
X524759Y1125000D01*
X523726Y1135488D01*
X520667Y1145573D01*
X515699Y1154867D01*
X509013Y1163013D01*
X500867Y1169699D01*
X491573Y1174667D01*
X481488Y1177726D01*
X471000Y1178759D01*
X171000Y1178759D01*
X160512Y1177726D01*
X150427Y1174667D01*
X141133Y1169699D01*
X132987Y1163013D01*
X126301Y1154867D01*
X121333Y1145573D01*
X118274Y1135488D01*
X117241Y1125000D01*
X56000Y1125000D01*
X56000Y1333835D01*
X189795Y1333835D01*
X205396Y1302279D01*
X242874Y1283198D01*
X283355Y1271796D01*
X325282Y1268510D01*
X367045Y1273467D01*
X407038Y1286476D01*
X436604Y1302279D01*
X452205Y1333835D01*
X321000Y1465039D01*
X189795Y1333835D01*
X56000Y1333835D01*
X56000Y1478718D01*
X106510Y1478718D01*
X111467Y1436955D01*
X124476Y1396962D01*
X140279Y1367396D01*
X171835Y1351795D01*
X303040Y1483000D01*
X338961Y1483000D01*
X470165Y1351795D01*
X501721Y1367396D01*
X520802Y1404874D01*
X532204Y1445355D01*
X535490Y1487282D01*
X530533Y1529045D01*
X517524Y1569038D01*
X501721Y1598604D01*
X470165Y1614205D01*
X338961Y1483000D01*
X303040Y1483000D01*
X171835Y1614205D01*
X140279Y1598604D01*
X121198Y1561125D01*
X109796Y1520645D01*
X106510Y1478718D01*
X56000Y1478718D01*
X56000Y1632165D01*
X189795Y1632165D01*
X321000Y1500960D01*
X452205Y1632165D01*
X436604Y1663721D01*
X399125Y1682802D01*
X358645Y1694204D01*
X316718Y1697490D01*
X274955Y1692533D01*
X234962Y1679524D01*
X205396Y1663721D01*
X189795Y1632165D01*
X56000Y1632165D01*
X56000Y1933520D01*
X776393Y1933520D01*
X776700Y1844595D01*
X792575Y1828720D01*
X893750Y1828720D01*
X893750Y1981145D01*
X919150Y1981145D01*
X919150Y1828720D01*
X1020325Y1828720D01*
X1036200Y1844595D01*
X1036507Y1933520D01*
X1035281Y1945968D01*
X1031650Y1957938D01*
X1025754Y1968969D01*
X1017818Y1978638D01*
X1008149Y1986574D01*
X997118Y1992470D01*
X985148Y1996101D01*
X972700Y1997327D01*
X935025Y1997020D01*
X919150Y1981145D01*
X893750Y1981145D01*
X877875Y1997020D01*
X840200Y1997327D01*
X827752Y1996101D01*
X815782Y1992470D01*
X804751Y1986574D01*
X795081Y1978638D01*
X787146Y1968969D01*
X781250Y1957938D01*
X777619Y1945968D01*
X776393Y1933520D01*
X56000Y1933520D01*
X56000Y2146644D01*
X730604Y2146644D01*
X736793Y2123063D01*
X760979Y2111773D01*
X786903Y2105419D01*
X813568Y2104244D01*
X839950Y2108294D01*
X865035Y2117413D01*
X875607Y2123063D01*
X881795Y2146644D01*
X806200Y2222240D01*
X730604Y2146644D01*
X56000Y2146644D01*
X56000Y2232832D01*
X670244Y2232832D01*
X674294Y2206450D01*
X683413Y2181365D01*
X689063Y2170793D01*
X712644Y2164605D01*
X788239Y2240200D01*
X712644Y2315796D01*
X689063Y2309607D01*
X677773Y2285421D01*
X671419Y2259497D01*
X670244Y2232832D01*
X56000Y2232832D01*
X56000Y2760561D01*
X680700Y2760561D01*
X680700Y2735839D01*
X685523Y2711593D01*
X694983Y2688754D01*
X702700Y2677205D01*
X702700Y2499283D01*
X702199Y2494200D01*
X702700Y2489117D01*
X702700Y2489116D01*
X704198Y2473911D01*
X710116Y2454401D01*
X719727Y2436420D01*
X732660Y2420660D01*
X736610Y2417419D01*
X780662Y2373367D01*
X772450Y2372106D01*
X747365Y2362988D01*
X736793Y2357337D01*
X730604Y2333756D01*
X806200Y2258161D01*
X807614Y2259575D01*
X825575Y2241614D01*
X824160Y2240200D01*
X899756Y2164605D01*
X923337Y2170793D01*
X934627Y2194979D01*
X939435Y2214594D01*
X1110450Y2043579D01*
X1110450Y1956219D01*
X1107214Y1952276D01*
X1099936Y1938660D01*
X1095455Y1923885D01*
X1093941Y1908520D01*
X1093941Y1723520D01*
X1095455Y1708155D01*
X1099936Y1693380D01*
X1107214Y1679764D01*
X1110450Y1675821D01*
X1110450Y1668259D01*
X1028527Y1668259D01*
X1031650Y1674102D01*
X1035281Y1686072D01*
X1036507Y1698520D01*
X1036200Y1787445D01*
X1020325Y1803320D01*
X919150Y1803320D01*
X919150Y1801320D01*
X893750Y1801320D01*
X893750Y1803320D01*
X792575Y1803320D01*
X776700Y1787445D01*
X776393Y1698520D01*
X777619Y1686072D01*
X781250Y1674102D01*
X787146Y1663071D01*
X795081Y1653401D01*
X804751Y1645466D01*
X815782Y1639570D01*
X827752Y1635939D01*
X840200Y1634713D01*
X866539Y1634928D01*
X863524Y1624988D01*
X862491Y1614500D01*
X862491Y974500D01*
X863524Y964012D01*
X866583Y953927D01*
X871551Y944633D01*
X878237Y936487D01*
X886383Y929801D01*
X895677Y924833D01*
X905762Y921774D01*
X916250Y920741D01*
X1496250Y920741D01*
X1506738Y921774D01*
X1516823Y924833D01*
X1524711Y929050D01*
X1640779Y929050D01*
X1930952Y638877D01*
X1925394Y635906D01*
X1913459Y626111D01*
X1903664Y614176D01*
X1896386Y600560D01*
X1891904Y585785D01*
X1890391Y570420D01*
X1890391Y445420D01*
X1891904Y430055D01*
X1896386Y415280D01*
X1903664Y401664D01*
X1910266Y393620D01*
X1903664Y385576D01*
X1896386Y371960D01*
X1891904Y357185D01*
X1890391Y341820D01*
X1890391Y216820D01*
X1891904Y201455D01*
X1896386Y186680D01*
X1903664Y173064D01*
X1913459Y161129D01*
X1925394Y151335D01*
X1939010Y144056D01*
X1953785Y139575D01*
X1969150Y138061D01*
X2061650Y138061D01*
X2077015Y139575D01*
X2091790Y144056D01*
X2105406Y151335D01*
X2117341Y161129D01*
X2119697Y164000D01*
X3951193Y164000D01*
X3952419Y151552D01*
X3956050Y139582D01*
X3961946Y128551D01*
X3969881Y118881D01*
X3979551Y110946D01*
X3990582Y105050D01*
X4002552Y101419D01*
X4015000Y100193D01*
X4071425Y100500D01*
X4087300Y116375D01*
X4087300Y236300D01*
X4112700Y236300D01*
X4112700Y116375D01*
X4128575Y100500D01*
X4185000Y100193D01*
X4197448Y101419D01*
X4209418Y105050D01*
X4220449Y110946D01*
X4230119Y118881D01*
X4238054Y128551D01*
X4243950Y139582D01*
X4246397Y147647D01*
X4253973Y139241D01*
X4277308Y121836D01*
X4303590Y109317D01*
X4318311Y104852D01*
X4341300Y116984D01*
X4341300Y236300D01*
X4366700Y236300D01*
X4366700Y116984D01*
X4389689Y104852D01*
X4404410Y109317D01*
X4430692Y121836D01*
X4454027Y139241D01*
X4473518Y160865D01*
X4481000Y173426D01*
X4488482Y160865D01*
X4507973Y139241D01*
X4531308Y121836D01*
X4557590Y109317D01*
X4572311Y104852D01*
X4595300Y116984D01*
X4595300Y236300D01*
X4366700Y236300D01*
X4341300Y236300D01*
X4112700Y236300D01*
X4087300Y236300D01*
X3967375Y236300D01*
X3951500Y220425D01*
X3951193Y164000D01*
X2119697Y164000D01*
X2127136Y173064D01*
X2134414Y186680D01*
X2138896Y201455D01*
X2140409Y216820D01*
X2140409Y341820D01*
X2138896Y357185D01*
X2134414Y371960D01*
X2127136Y385576D01*
X2120534Y393620D01*
X2127136Y401664D01*
X2134414Y415280D01*
X2138896Y430055D01*
X2140310Y444420D01*
X2337671Y444420D01*
X2346797Y435294D01*
X2362111Y425061D01*
X2379127Y418013D01*
X2397191Y414420D01*
X2415609Y414420D01*
X2433673Y418013D01*
X2450689Y425061D01*
X2466003Y435294D01*
X2479026Y448317D01*
X2489259Y463631D01*
X2496095Y480134D01*
X2664900Y311329D01*
X2668140Y307380D01*
X2672089Y304140D01*
X2683900Y294447D01*
X2689168Y291631D01*
X2701881Y284836D01*
X2721391Y278918D01*
X2736596Y277420D01*
X2736596Y277420D01*
X2741680Y276919D01*
X2746764Y277420D01*
X3346197Y277420D01*
X3351280Y276919D01*
X3356363Y277420D01*
X3356364Y277420D01*
X3371569Y278918D01*
X3391079Y284836D01*
X3409060Y294447D01*
X3424820Y307380D01*
X3428061Y311330D01*
X3516231Y399500D01*
X4007796Y399500D01*
X4010410Y397355D01*
X4002552Y396581D01*
X3990582Y392950D01*
X3979551Y387054D01*
X3969881Y379118D01*
X3961946Y369449D01*
X3956050Y358418D01*
X3952419Y346448D01*
X3951193Y334000D01*
X3951500Y277575D01*
X3967375Y261700D01*
X4087300Y261700D01*
X4087300Y263700D01*
X4112700Y263700D01*
X4112700Y261700D01*
X4341300Y261700D01*
X4341300Y263700D01*
X4366700Y263700D01*
X4366700Y261700D01*
X4595300Y261700D01*
X4595300Y263700D01*
X4620700Y263700D01*
X4620700Y261700D01*
X4622700Y261700D01*
X4622700Y236300D01*
X4620700Y236300D01*
X4620700Y116984D01*
X4643689Y104852D01*
X4658410Y109317D01*
X4684692Y121836D01*
X4708027Y139241D01*
X4727518Y160865D01*
X4740456Y182585D01*
X4746284Y171681D01*
X4763592Y150592D01*
X4784681Y133284D01*
X4808742Y120424D01*
X4834849Y112504D01*
X4855196Y110500D01*
X4868804Y110500D01*
X4889151Y112504D01*
X4915258Y120424D01*
X4939319Y133284D01*
X4960408Y150592D01*
X4977716Y171681D01*
X4989000Y192793D01*
X5000284Y171681D01*
X5017592Y150592D01*
X5038681Y133284D01*
X5062742Y120424D01*
X5088849Y112504D01*
X5109196Y110500D01*
X5122804Y110500D01*
X5143151Y112504D01*
X5169258Y120424D01*
X5193319Y133284D01*
X5214408Y150592D01*
X5231716Y171681D01*
X5243000Y192793D01*
X5254284Y171681D01*
X5271592Y150592D01*
X5292681Y133284D01*
X5316742Y120424D01*
X5342849Y112504D01*
X5363196Y110500D01*
X5376804Y110500D01*
X5397151Y112504D01*
X5423258Y120424D01*
X5447319Y133284D01*
X5468408Y150592D01*
X5485716Y171681D01*
X5497000Y192793D01*
X5508284Y171681D01*
X5525592Y150592D01*
X5546681Y133284D01*
X5570742Y120424D01*
X5596849Y112504D01*
X5617196Y110500D01*
X5630804Y110500D01*
X5651151Y112504D01*
X5677258Y120424D01*
X5701319Y133284D01*
X5722408Y150592D01*
X5739716Y171681D01*
X5751000Y192793D01*
X5762284Y171681D01*
X5779592Y150592D01*
X5800681Y133284D01*
X5824742Y120424D01*
X5850849Y112504D01*
X5871196Y110500D01*
X5884804Y110500D01*
X5905151Y112504D01*
X5931258Y120424D01*
X5955319Y133284D01*
X5976408Y150592D01*
X5993716Y171681D01*
X6005000Y192793D01*
X6016284Y171681D01*
X6033592Y150592D01*
X6054681Y133284D01*
X6078742Y120424D01*
X6104849Y112504D01*
X6125196Y110500D01*
X6138804Y110500D01*
X6159151Y112504D01*
X6185258Y120424D01*
X6209319Y133284D01*
X6230408Y150592D01*
X6247716Y171681D01*
X6259000Y192793D01*
X6270284Y171681D01*
X6287592Y150592D01*
X6308681Y133284D01*
X6332742Y120424D01*
X6358849Y112504D01*
X6379196Y110500D01*
X6392804Y110500D01*
X6413151Y112504D01*
X6439258Y120424D01*
X6463319Y133284D01*
X6484408Y150592D01*
X6501716Y171681D01*
X6513000Y192793D01*
X6524284Y171681D01*
X6541592Y150592D01*
X6562681Y133284D01*
X6586742Y120424D01*
X6612849Y112504D01*
X6633196Y110500D01*
X6646804Y110500D01*
X6667151Y112504D01*
X6693258Y120424D01*
X6717319Y133284D01*
X6738408Y150592D01*
X6755716Y171681D01*
X6767000Y192793D01*
X6778284Y171681D01*
X6795592Y150592D01*
X6816681Y133284D01*
X6840742Y120424D01*
X6866849Y112504D01*
X6887196Y110500D01*
X6900804Y110500D01*
X6921151Y112504D01*
X6947258Y120424D01*
X6971319Y133284D01*
X6992408Y150592D01*
X7009716Y171681D01*
X7022576Y195742D01*
X7030496Y221849D01*
X7033170Y249000D01*
X7030496Y276151D01*
X7022576Y302258D01*
X7009716Y326319D01*
X6992408Y347408D01*
X6971319Y364716D01*
X6950207Y376000D01*
X6971319Y387284D01*
X6992408Y404592D01*
X6997749Y411100D01*
X7187300Y411100D01*
X7187300Y388900D01*
X7191631Y367127D01*
X7200127Y346617D01*
X7212460Y328158D01*
X7228158Y312460D01*
X7246616Y300127D01*
X7267127Y291631D01*
X7288900Y287300D01*
X7311100Y287300D01*
X7332873Y291631D01*
X7353383Y300127D01*
X7371842Y312460D01*
X7387540Y328158D01*
X7399873Y346617D01*
X7408369Y367127D01*
X7412700Y388900D01*
X7412700Y411100D01*
X7408369Y432873D01*
X7399873Y453383D01*
X7387540Y471842D01*
X7371842Y487540D01*
X7353383Y499873D01*
X7332873Y508369D01*
X7311100Y512700D01*
X7288900Y512700D01*
X7267127Y508369D01*
X7246616Y499873D01*
X7228158Y487540D01*
X7212460Y471842D01*
X7200127Y453383D01*
X7191631Y432873D01*
X7187300Y411100D01*
X6997749Y411100D01*
X7009716Y425681D01*
X7022576Y449742D01*
X7030496Y475849D01*
X7033170Y503000D01*
X7030496Y530151D01*
X7022576Y556258D01*
X7009716Y580319D01*
X6992408Y601408D01*
X6971319Y618716D01*
X6954907Y627488D01*
X6955478Y627544D01*
X6957860Y628267D01*
X6960056Y629440D01*
X6961980Y631020D01*
X6963560Y632944D01*
X6964733Y635140D01*
X6965456Y637522D01*
X6965700Y640000D01*
X6965700Y939471D01*
X6966626Y940397D01*
X6976859Y955711D01*
X6983907Y972727D01*
X6987500Y990791D01*
X6987500Y1009209D01*
X6983907Y1027273D01*
X6976859Y1044289D01*
X6966626Y1059603D01*
X6953603Y1072626D01*
X6938289Y1082859D01*
X6921273Y1089907D01*
X6903209Y1093500D01*
X6890302Y1093500D01*
X6581050Y1402752D01*
X6581050Y1415659D01*
X6577457Y1433723D01*
X6570409Y1450739D01*
X6560176Y1466053D01*
X6551050Y1475179D01*
X6551050Y1543332D01*
X6551357Y1546450D01*
X6551050Y1549568D01*
X6551050Y1549569D01*
X6550131Y1558898D01*
X6546500Y1570868D01*
X6540604Y1581899D01*
X6532668Y1591568D01*
X6530246Y1593557D01*
X6515363Y1608439D01*
X6880754Y1608439D01*
X6881141Y1604672D01*
X6890358Y1582147D01*
X6903792Y1561853D01*
X6920927Y1544569D01*
X6941105Y1530961D01*
X6963550Y1521551D01*
X6987400Y1516700D01*
X7014900Y1516700D01*
X7014900Y1627500D01*
X7040300Y1627500D01*
X7040300Y1516700D01*
X7067800Y1516700D01*
X7091650Y1521551D01*
X7114095Y1530961D01*
X7134272Y1544569D01*
X7151408Y1561853D01*
X7164842Y1582147D01*
X7174059Y1604672D01*
X7174446Y1608439D01*
X7161973Y1627500D01*
X7040300Y1627500D01*
X7014900Y1627500D01*
X6893227Y1627500D01*
X6880754Y1608439D01*
X6515363Y1608439D01*
X6382736Y1741066D01*
X6383676Y1902380D01*
X6536478Y1902380D01*
X6641353Y1797504D01*
X6643341Y1795081D01*
X6645764Y1793093D01*
X6645764Y1793093D01*
X6653011Y1787146D01*
X6661950Y1782368D01*
X6664042Y1781250D01*
X6676012Y1777619D01*
X6685341Y1776700D01*
X6685341Y1776700D01*
X6688460Y1776393D01*
X6691579Y1776700D01*
X6905385Y1776700D01*
X6919455Y1759555D01*
X6935987Y1745987D01*
X6920927Y1735831D01*
X6903792Y1718547D01*
X6890358Y1698253D01*
X6881141Y1675728D01*
X6880754Y1671961D01*
X6893227Y1652900D01*
X7014900Y1652900D01*
X7014900Y1654900D01*
X7040300Y1654900D01*
X7040300Y1652900D01*
X7161973Y1652900D01*
X7174446Y1671961D01*
X7174059Y1675728D01*
X7164842Y1698253D01*
X7151408Y1718547D01*
X7134272Y1735831D01*
X7119213Y1745987D01*
X7135745Y1759555D01*
X7149928Y1776838D01*
X7160468Y1796555D01*
X7166958Y1817950D01*
X7169149Y1840200D01*
X7166958Y1862450D01*
X7160468Y1883845D01*
X7149928Y1903562D01*
X7135745Y1920845D01*
X7118462Y1935028D01*
X7108787Y1940200D01*
X7118462Y1945372D01*
X7135745Y1959555D01*
X7149928Y1976838D01*
X7160468Y1996555D01*
X7166958Y2017950D01*
X7169149Y2040200D01*
X7166958Y2062450D01*
X7160468Y2083845D01*
X7149928Y2103562D01*
X7135745Y2120845D01*
X7118462Y2135028D01*
X7108787Y2140200D01*
X7118462Y2145372D01*
X7135745Y2159555D01*
X7149928Y2176838D01*
X7160468Y2196555D01*
X7166958Y2217950D01*
X7169149Y2240200D01*
X7166958Y2262450D01*
X7160468Y2283845D01*
X7149928Y2303562D01*
X7135745Y2320845D01*
X7118462Y2335028D01*
X7098745Y2345568D01*
X7077350Y2352058D01*
X7060675Y2353700D01*
X6994525Y2353700D01*
X6977850Y2352058D01*
X6956455Y2345568D01*
X6936738Y2335028D01*
X6919455Y2320845D01*
X6905385Y2303700D01*
X6624318Y2303700D01*
X6621200Y2304007D01*
X6618082Y2303700D01*
X6618081Y2303700D01*
X6608752Y2302781D01*
X6597984Y2299515D01*
X6596782Y2299150D01*
X6585750Y2293254D01*
X6581974Y2290154D01*
X6576081Y2285319D01*
X6574093Y2282896D01*
X6533898Y2242700D01*
X5766759Y2242700D01*
X5766759Y2254200D01*
X5765726Y2264688D01*
X5762667Y2274773D01*
X5757699Y2284067D01*
X5751013Y2292213D01*
X5746500Y2295917D01*
X5746500Y2795558D01*
X5817453Y2724605D01*
X5819441Y2722182D01*
X5829111Y2714246D01*
X5840142Y2708350D01*
X5852112Y2704719D01*
X5861441Y2703800D01*
X5861442Y2703800D01*
X5864560Y2703493D01*
X5867678Y2703800D01*
X5971270Y2703800D01*
X5985704Y2682199D01*
X6004299Y2663604D01*
X6026164Y2648994D01*
X6050459Y2638930D01*
X6076251Y2633800D01*
X6102549Y2633800D01*
X6128340Y2638930D01*
X6152636Y2648994D01*
X6174501Y2663604D01*
X6193096Y2682199D01*
X6207530Y2703800D01*
X6400022Y2703800D01*
X6403140Y2703493D01*
X6406258Y2703800D01*
X6406259Y2703800D01*
X6415588Y2704719D01*
X6427558Y2708350D01*
X6438589Y2714246D01*
X6448258Y2722182D01*
X6450247Y2724605D01*
X6453782Y2728140D01*
X6560241Y2728140D01*
X6560241Y2726640D01*
X6561274Y2716152D01*
X6564333Y2706067D01*
X6569301Y2696773D01*
X6575987Y2688627D01*
X6584133Y2681941D01*
X6593427Y2676973D01*
X6603512Y2673914D01*
X6614000Y2672881D01*
X6784000Y2672881D01*
X6794488Y2673914D01*
X6804573Y2676973D01*
X6813867Y2681941D01*
X6822013Y2688627D01*
X6828699Y2696773D01*
X6833667Y2706067D01*
X6836726Y2716152D01*
X6837759Y2726640D01*
X6837759Y2856640D01*
X6836726Y2867128D01*
X6833667Y2877213D01*
X6828699Y2886507D01*
X6822013Y2894653D01*
X6813867Y2901339D01*
X6804573Y2906307D01*
X6794488Y2909366D01*
X6784000Y2910399D01*
X6614000Y2910399D01*
X6603512Y2909366D01*
X6593427Y2906307D01*
X6584133Y2901339D01*
X6575987Y2894653D01*
X6569301Y2886507D01*
X6564333Y2877213D01*
X6561274Y2867128D01*
X6560241Y2856640D01*
X6560241Y2855140D01*
X6430599Y2855140D01*
X6427480Y2855447D01*
X6424361Y2855140D01*
X6424361Y2855140D01*
X6415032Y2854221D01*
X6403062Y2850590D01*
X6397367Y2847546D01*
X6392031Y2844694D01*
X6392030Y2844694D01*
X6392031Y2844694D01*
X6382361Y2836758D01*
X6380373Y2834335D01*
X6376837Y2830800D01*
X6207530Y2830800D01*
X6193096Y2852401D01*
X6174501Y2870996D01*
X6152636Y2885606D01*
X6128340Y2895670D01*
X6102549Y2900800D01*
X6076251Y2900800D01*
X6050459Y2895670D01*
X6026164Y2885606D01*
X6004299Y2870996D01*
X5985704Y2852401D01*
X5971270Y2830800D01*
X5890862Y2830800D01*
X5848100Y2873562D01*
X5848100Y3247300D01*
X5955641Y3247300D01*
X5955641Y3087300D01*
X5956674Y3076812D01*
X5959733Y3066727D01*
X5964701Y3057433D01*
X5971387Y3049287D01*
X5979533Y3042601D01*
X5988827Y3037633D01*
X5998912Y3034574D01*
X6009400Y3033541D01*
X6169400Y3033541D01*
X6179888Y3034574D01*
X6189973Y3037633D01*
X6199267Y3042601D01*
X6207413Y3049287D01*
X6214099Y3057433D01*
X6219067Y3066727D01*
X6222126Y3076812D01*
X6223159Y3087300D01*
X6223159Y3103800D01*
X6385678Y3103800D01*
X6390533Y3098945D01*
X6392521Y3096521D01*
X6402191Y3088586D01*
X6413222Y3082690D01*
X6425192Y3079059D01*
X6434521Y3078140D01*
X6434522Y3078140D01*
X6437640Y3077833D01*
X6440758Y3078140D01*
X6560241Y3078140D01*
X6560241Y3076640D01*
X6561274Y3066152D01*
X6564333Y3056067D01*
X6569301Y3046773D01*
X6575987Y3038627D01*
X6584133Y3031941D01*
X6593427Y3026973D01*
X6603512Y3023914D01*
X6614000Y3022881D01*
X6784000Y3022881D01*
X6794488Y3023914D01*
X6804573Y3026973D01*
X6813867Y3031941D01*
X6822013Y3038627D01*
X6828699Y3046773D01*
X6833667Y3056067D01*
X6836726Y3066152D01*
X6837759Y3076640D01*
X6837759Y3206640D01*
X6836726Y3217128D01*
X6833667Y3227213D01*
X6828699Y3236507D01*
X6822013Y3244653D01*
X6813867Y3251339D01*
X6804573Y3256307D01*
X6794488Y3259366D01*
X6784000Y3260399D01*
X6614000Y3260399D01*
X6603512Y3259366D01*
X6593427Y3256307D01*
X6584133Y3251339D01*
X6575987Y3244653D01*
X6569301Y3236507D01*
X6564333Y3227213D01*
X6561274Y3217128D01*
X6560241Y3206640D01*
X6560241Y3205140D01*
X6463942Y3205140D01*
X6459087Y3209995D01*
X6457098Y3212418D01*
X6447429Y3220354D01*
X6436398Y3226250D01*
X6424428Y3229881D01*
X6415099Y3230800D01*
X6415098Y3230800D01*
X6411980Y3231107D01*
X6408862Y3230800D01*
X6223159Y3230800D01*
X6223159Y3247300D01*
X6222126Y3257788D01*
X6219067Y3267873D01*
X6214099Y3277167D01*
X6207413Y3285313D01*
X6199267Y3291999D01*
X6189973Y3296967D01*
X6179888Y3300026D01*
X6169400Y3301059D01*
X6009400Y3301059D01*
X5998912Y3300026D01*
X5988827Y3296967D01*
X5979533Y3291999D01*
X5971387Y3285313D01*
X5964701Y3277167D01*
X5959733Y3267873D01*
X5956674Y3257788D01*
X5955641Y3247300D01*
X5848100Y3247300D01*
X5848100Y3253081D01*
X5848407Y3256200D01*
X5848095Y3259366D01*
X5847181Y3268648D01*
X5843550Y3280618D01*
X5842872Y3281886D01*
X5837654Y3291649D01*
X5831707Y3298896D01*
X5831706Y3298896D01*
X5829718Y3301318D01*
X5827296Y3303306D01*
X5752967Y3377635D01*
X5750978Y3380058D01*
X5741309Y3387994D01*
X5730278Y3393890D01*
X5718308Y3397521D01*
X5708979Y3398440D01*
X5708978Y3398440D01*
X5705860Y3398747D01*
X5702742Y3398440D01*
X5568762Y3398440D01*
X5565359Y3404807D01*
X5558673Y3412953D01*
X5550527Y3419639D01*
X5541233Y3424607D01*
X5531148Y3427666D01*
X5520660Y3428699D01*
X5430660Y3428699D01*
X5420172Y3427666D01*
X5410087Y3424607D01*
X5400793Y3419639D01*
X5392647Y3412953D01*
X5385961Y3404807D01*
X5384135Y3401390D01*
X5368285Y3417240D01*
X5288360Y3417240D01*
X5288360Y3415240D01*
X5262960Y3415240D01*
X5262960Y3417240D01*
X5183035Y3417240D01*
X5167160Y3401365D01*
X5166853Y3389940D01*
X5168079Y3377492D01*
X5171710Y3365522D01*
X5177606Y3354491D01*
X5185313Y3345100D01*
X5142619Y3345100D01*
X5142619Y3374940D01*
X5141586Y3385428D01*
X5138527Y3395513D01*
X5133559Y3404807D01*
X5126873Y3412953D01*
X5118727Y3419639D01*
X5109433Y3424607D01*
X5099348Y3427666D01*
X5088860Y3428699D01*
X5045826Y3428699D01*
X5043860Y3428892D01*
X5041894Y3428699D01*
X4998860Y3428699D01*
X4988372Y3427666D01*
X4978287Y3424607D01*
X4968993Y3419639D01*
X4960847Y3412953D01*
X4954161Y3404807D01*
X4952335Y3401390D01*
X4936485Y3417240D01*
X4856560Y3417240D01*
X4856560Y3415240D01*
X4831160Y3415240D01*
X4831160Y3417240D01*
X4829160Y3417240D01*
X4829160Y3442640D01*
X4831160Y3442640D01*
X4831160Y3517565D01*
X4856560Y3517565D01*
X4856560Y3442640D01*
X4936485Y3442640D01*
X4952360Y3458515D01*
X4952667Y3469940D01*
X5166853Y3469940D01*
X5167160Y3458515D01*
X5183035Y3442640D01*
X5262960Y3442640D01*
X5262960Y3517565D01*
X5288360Y3517565D01*
X5288360Y3442640D01*
X5368285Y3442640D01*
X5384160Y3458515D01*
X5384467Y3469940D01*
X5383241Y3482388D01*
X5379610Y3494358D01*
X5373714Y3505389D01*
X5365779Y3515058D01*
X5356109Y3522994D01*
X5345078Y3528890D01*
X5333108Y3532521D01*
X5320660Y3533747D01*
X5304235Y3533440D01*
X5288360Y3517565D01*
X5262960Y3517565D01*
X5247085Y3533440D01*
X5230660Y3533747D01*
X5218212Y3532521D01*
X5206242Y3528890D01*
X5195211Y3522994D01*
X5185542Y3515058D01*
X5177606Y3505389D01*
X5171710Y3494358D01*
X5168079Y3482388D01*
X5166853Y3469940D01*
X4952667Y3469940D01*
X4951441Y3482388D01*
X4947810Y3494358D01*
X4941914Y3505389D01*
X4933979Y3515058D01*
X4924309Y3522994D01*
X4913278Y3528890D01*
X4901308Y3532521D01*
X4888860Y3533747D01*
X4872435Y3533440D01*
X4856560Y3517565D01*
X4831160Y3517565D01*
X4815285Y3533440D01*
X4798860Y3533747D01*
X4786412Y3532521D01*
X4774442Y3528890D01*
X4763411Y3522994D01*
X4753742Y3515058D01*
X4745806Y3505389D01*
X4739910Y3494358D01*
X4736279Y3482388D01*
X4735053Y3469940D01*
X4735246Y3462738D01*
X4731803Y3469180D01*
X4713871Y3491031D01*
X4692020Y3508963D01*
X4667091Y3522288D01*
X4640041Y3530494D01*
X4611910Y3533264D01*
X4583779Y3530494D01*
X4556729Y3522288D01*
X4531800Y3508963D01*
X4509949Y3491031D01*
X4492017Y3469180D01*
X4484910Y3455884D01*
X4477803Y3469180D01*
X4459871Y3491031D01*
X4438020Y3508963D01*
X4413091Y3522288D01*
X4386041Y3530494D01*
X4357910Y3533264D01*
X4329779Y3530494D01*
X4302729Y3522288D01*
X4277800Y3508963D01*
X4255949Y3491031D01*
X4238017Y3469180D01*
X4230910Y3455884D01*
X4223803Y3469180D01*
X4205871Y3491031D01*
X4184020Y3508963D01*
X4159091Y3522288D01*
X4132041Y3530494D01*
X4103910Y3533264D01*
X4075779Y3530494D01*
X4048729Y3522288D01*
X4023800Y3508963D01*
X4001949Y3491031D01*
X3984017Y3469180D01*
X3976910Y3455884D01*
X3969803Y3469180D01*
X3951871Y3491031D01*
X3930020Y3508963D01*
X3905091Y3522288D01*
X3878041Y3530494D01*
X3849910Y3533264D01*
X3821779Y3530494D01*
X3794729Y3522288D01*
X3769800Y3508963D01*
X3747949Y3491031D01*
X3730017Y3469180D01*
X3722910Y3455884D01*
X3715803Y3469180D01*
X3697871Y3491031D01*
X3676020Y3508963D01*
X3651091Y3522288D01*
X3624041Y3530494D01*
X3595910Y3533264D01*
X3567779Y3530494D01*
X3540729Y3522288D01*
X3515800Y3508963D01*
X3493949Y3491031D01*
X3476017Y3469180D01*
X3468910Y3455884D01*
X3461803Y3469180D01*
X3443871Y3491031D01*
X3422020Y3508963D01*
X3397091Y3522288D01*
X3370041Y3530494D01*
X3341910Y3533264D01*
X3313779Y3530494D01*
X3286729Y3522288D01*
X3261800Y3508963D01*
X3239949Y3491031D01*
X3222017Y3469180D01*
X3214910Y3455884D01*
X3207803Y3469180D01*
X3189871Y3491031D01*
X3168020Y3508963D01*
X3143091Y3522288D01*
X3116041Y3530494D01*
X3087910Y3533264D01*
X3059779Y3530494D01*
X3032729Y3522288D01*
X3007800Y3508963D01*
X2985949Y3491031D01*
X2968017Y3469180D01*
X2960910Y3455884D01*
X2953803Y3469180D01*
X2935871Y3491031D01*
X2914020Y3508963D01*
X2889091Y3522288D01*
X2862041Y3530494D01*
X2833910Y3533264D01*
X2805779Y3530494D01*
X2778729Y3522288D01*
X2753800Y3508963D01*
X2731949Y3491031D01*
X2714017Y3469180D01*
X2706910Y3455884D01*
X2699803Y3469180D01*
X2681871Y3491031D01*
X2660020Y3508963D01*
X2635091Y3522288D01*
X2608041Y3530494D01*
X2579910Y3533264D01*
X2551779Y3530494D01*
X2524729Y3522288D01*
X2499800Y3508963D01*
X2477949Y3491031D01*
X2460017Y3469180D01*
X2452910Y3455884D01*
X2445803Y3469180D01*
X2427871Y3491031D01*
X2406020Y3508963D01*
X2381091Y3522288D01*
X2354041Y3530494D01*
X2325910Y3533264D01*
X2297779Y3530494D01*
X2270729Y3522288D01*
X2245800Y3508963D01*
X2223949Y3491031D01*
X2206017Y3469180D01*
X2198910Y3455884D01*
X2191803Y3469180D01*
X2173871Y3491031D01*
X2152020Y3508963D01*
X2127091Y3522288D01*
X2100041Y3530494D01*
X2071910Y3533264D01*
X2043779Y3530494D01*
X2016729Y3522288D01*
X1991800Y3508963D01*
X1969949Y3491031D01*
X1952017Y3469180D01*
X1950489Y3466322D01*
X1938485Y3484910D01*
X1917471Y3506591D01*
X1892630Y3523756D01*
X1864919Y3535745D01*
X1854384Y3538174D01*
X1830610Y3526108D01*
X1830610Y3361770D01*
X1832610Y3361770D01*
X1832610Y3336370D01*
X1830610Y3336370D01*
X1830610Y3334370D01*
X1805210Y3334370D01*
X1805210Y3336370D01*
X1803210Y3336370D01*
X1803210Y3361770D01*
X1805210Y3361770D01*
X1805210Y3526108D01*
X1781436Y3538174D01*
X1770901Y3535745D01*
X1743190Y3523756D01*
X1718349Y3506591D01*
X1697335Y3484910D01*
X1685331Y3466322D01*
X1683803Y3469180D01*
X1665871Y3491031D01*
X1644020Y3508963D01*
X1619091Y3522288D01*
X1592041Y3530494D01*
X1563910Y3533264D01*
X1535779Y3530494D01*
X1508729Y3522288D01*
X1483800Y3508963D01*
X1461949Y3491031D01*
X1444017Y3469180D01*
X1436910Y3455884D01*
X1429803Y3469180D01*
X1411871Y3491031D01*
X1390020Y3508963D01*
X1365091Y3522288D01*
X1338041Y3530494D01*
X1309910Y3533264D01*
X1281779Y3530494D01*
X1254729Y3522288D01*
X1229800Y3508963D01*
X1207949Y3491031D01*
X1190017Y3469180D01*
X1182910Y3455884D01*
X1175803Y3469180D01*
X1157871Y3491031D01*
X1136020Y3508963D01*
X1111091Y3522288D01*
X1084041Y3530494D01*
X1055910Y3533264D01*
X1027779Y3530494D01*
X1000729Y3522288D01*
X975800Y3508963D01*
X954495Y3491479D01*
X954491Y3491518D01*
X950860Y3503488D01*
X944964Y3514519D01*
X937028Y3524188D01*
X927359Y3532124D01*
X916328Y3538020D01*
X904358Y3541651D01*
X891910Y3542877D01*
X830485Y3542570D01*
X814610Y3526695D01*
X814610Y3361770D01*
X816610Y3361770D01*
X816610Y3336370D01*
X814610Y3336370D01*
X814610Y3171445D01*
X830485Y3155570D01*
X891910Y3155263D01*
X904358Y3156489D01*
X916328Y3160120D01*
X927359Y3166016D01*
X937028Y3173951D01*
X944964Y3183621D01*
X950860Y3194652D01*
X952410Y3199761D01*
X952410Y3167781D01*
X736609Y2951980D01*
X732660Y2948740D01*
X729420Y2944791D01*
X729420Y2944791D01*
X719727Y2932980D01*
X710116Y2914999D01*
X704198Y2895489D01*
X702199Y2875200D01*
X702700Y2870116D01*
X702700Y2819195D01*
X694983Y2807646D01*
X685523Y2784807D01*
X680700Y2760561D01*
X56000Y2760561D01*
X56000Y3291322D01*
X56320Y3289711D01*
X71661Y3252677D01*
X93931Y3219346D01*
X122276Y3191001D01*
X155607Y3168731D01*
X192641Y3153390D01*
X231957Y3145570D01*
X272043Y3145570D01*
X311359Y3153390D01*
X348393Y3168731D01*
X381724Y3191001D01*
X409792Y3219070D01*
X648103Y3219070D01*
X649329Y3206622D01*
X652960Y3194652D01*
X658856Y3183621D01*
X666792Y3173951D01*
X676461Y3166016D01*
X687492Y3160120D01*
X699462Y3156489D01*
X711910Y3155263D01*
X773335Y3155570D01*
X789210Y3171445D01*
X789210Y3336370D01*
X664285Y3336370D01*
X648410Y3320495D01*
X648103Y3219070D01*
X409792Y3219070D01*
X410069Y3219346D01*
X432339Y3252677D01*
X447680Y3289711D01*
X455500Y3329027D01*
X455500Y3369113D01*
X447680Y3408429D01*
X432339Y3445463D01*
X410069Y3478794D01*
X409792Y3479070D01*
X648103Y3479070D01*
X648410Y3377645D01*
X664285Y3361770D01*
X789210Y3361770D01*
X789210Y3526695D01*
X773335Y3542570D01*
X711910Y3542877D01*
X699462Y3541651D01*
X687492Y3538020D01*
X676461Y3532124D01*
X666792Y3524188D01*
X658856Y3514519D01*
X652960Y3503488D01*
X649329Y3491518D01*
X648103Y3479070D01*
X409792Y3479070D01*
X381724Y3507139D01*
X348393Y3529409D01*
X313168Y3544000D01*
X7690742Y3544000D01*
X7655517Y3529409D01*
X7655517Y3529409D01*
G37*
X7655517Y3529409D02*
X7622186Y3507139D01*
X7593841Y3478794D01*
X7571571Y3445463D01*
X7556230Y3408429D01*
X7548410Y3369113D01*
X7548410Y3329027D01*
X7556230Y3289711D01*
X7571571Y3252677D01*
X7593841Y3219346D01*
X7622186Y3191001D01*
X7655517Y3168731D01*
X7692551Y3153390D01*
X7731867Y3145570D01*
X7771953Y3145570D01*
X7811269Y3153390D01*
X7848303Y3168731D01*
X7881634Y3191001D01*
X7909979Y3219346D01*
X7932249Y3252677D01*
X7944000Y3281045D01*
X7944000Y316899D01*
X7932197Y345393D01*
X7909927Y378724D01*
X7881582Y407069D01*
X7848251Y429339D01*
X7811217Y444680D01*
X7771901Y452500D01*
X7731815Y452500D01*
X7692499Y444680D01*
X7655465Y429339D01*
X7622134Y407069D01*
X7593789Y378724D01*
X7571519Y345393D01*
X7556178Y308359D01*
X7548358Y269043D01*
X7548358Y228957D01*
X7556178Y189641D01*
X7571519Y152607D01*
X7593789Y119276D01*
X7622134Y90931D01*
X7655465Y68661D01*
X7686030Y56000D01*
X317828Y56000D01*
X348393Y68661D01*
X381724Y90931D01*
X410069Y119276D01*
X432339Y152607D01*
X447680Y189641D01*
X455500Y228957D01*
X455500Y269043D01*
X447680Y308359D01*
X432339Y345393D01*
X410069Y378724D01*
X381724Y407069D01*
X348393Y429339D01*
X311359Y444680D01*
X272043Y452500D01*
X231957Y452500D01*
X192641Y444680D01*
X155607Y429339D01*
X122276Y407069D01*
X93931Y378724D01*
X71661Y345393D01*
X56320Y308359D01*
X56000Y306748D01*
X56000Y1125000D01*
X117241Y1125000D01*
X117241Y825000D01*
X118274Y814512D01*
X121333Y804427D01*
X126301Y795133D01*
X132987Y786987D01*
X141133Y780301D01*
X150427Y775333D01*
X160512Y772274D01*
X171000Y771241D01*
X378388Y771241D01*
X618880Y530749D01*
X618880Y404258D01*
X614301Y398679D01*
X609333Y389385D01*
X606274Y379300D01*
X605241Y368812D01*
X605241Y188812D01*
X606274Y178324D01*
X609333Y168239D01*
X614301Y158945D01*
X620987Y150799D01*
X629133Y144113D01*
X638427Y139145D01*
X648512Y136086D01*
X659000Y135053D01*
X909000Y135053D01*
X919488Y136086D01*
X929573Y139145D01*
X938867Y144113D01*
X947013Y150799D01*
X953699Y158945D01*
X958667Y168239D01*
X961726Y178324D01*
X962759Y188812D01*
X962759Y368812D01*
X961726Y379300D01*
X958667Y389385D01*
X953699Y398679D01*
X947013Y406825D01*
X938867Y413511D01*
X929573Y418479D01*
X919488Y421538D01*
X909000Y422571D01*
X825880Y422571D01*
X825880Y568537D01*
X826381Y573620D01*
X825880Y578703D01*
X825880Y578704D01*
X824382Y593910D01*
X818464Y613419D01*
X811589Y626282D01*
X808853Y631400D01*
X799160Y643211D01*
X795920Y647160D01*
X791971Y650400D01*
X667871Y774500D01*
X864491Y774500D01*
X864491Y554500D01*
X865524Y544012D01*
X868583Y533927D01*
X873551Y524633D01*
X880237Y516487D01*
X888383Y509801D01*
X897677Y504833D01*
X907762Y501774D01*
X918250Y500741D01*
X995638Y500741D01*
X1073808Y422571D01*
X1059000Y422571D01*
X1048512Y421538D01*
X1038427Y418479D01*
X1029133Y413511D01*
X1020987Y406825D01*
X1014301Y398679D01*
X1009333Y389385D01*
X1006274Y379300D01*
X1005241Y368812D01*
X1005241Y188812D01*
X1006274Y178324D01*
X1009333Y168239D01*
X1014301Y158945D01*
X1020987Y150799D01*
X1029133Y144113D01*
X1038427Y139145D01*
X1048512Y136086D01*
X1059000Y135053D01*
X1309000Y135053D01*
X1319488Y136086D01*
X1326275Y138145D01*
X1333559Y129269D01*
X1345494Y119474D01*
X1359110Y112196D01*
X1373885Y107714D01*
X1389250Y106201D01*
X1479250Y106201D01*
X1494615Y107714D01*
X1509390Y112196D01*
X1523006Y119474D01*
X1534941Y129269D01*
X1544736Y141204D01*
X1547850Y147032D01*
X1552478Y147487D01*
X1565862Y151547D01*
X1578196Y158140D01*
X1589007Y167013D01*
X1591231Y169722D01*
X1602127Y180618D01*
X1606164Y173064D01*
X1615959Y161129D01*
X1627894Y151335D01*
X1641510Y144056D01*
X1656285Y139575D01*
X1671650Y138061D01*
X1764150Y138061D01*
X1779515Y139575D01*
X1794290Y144056D01*
X1807906Y151335D01*
X1819841Y161129D01*
X1829635Y173064D01*
X1836914Y186680D01*
X1841395Y201455D01*
X1842909Y216820D01*
X1842909Y341820D01*
X1841395Y357185D01*
X1836914Y371960D01*
X1834789Y375935D01*
X1842204Y384971D01*
X1848100Y396002D01*
X1851731Y407972D01*
X1852957Y420420D01*
X1852650Y479345D01*
X1836775Y495220D01*
X1730600Y495220D01*
X1730600Y493220D01*
X1705200Y493220D01*
X1705200Y495220D01*
X1599025Y495220D01*
X1583150Y479345D01*
X1582843Y420420D01*
X1584069Y407972D01*
X1587700Y396002D01*
X1593596Y384971D01*
X1601011Y375935D01*
X1598886Y371960D01*
X1594404Y357185D01*
X1593697Y350001D01*
X1586501Y349293D01*
X1573118Y345233D01*
X1562743Y339688D01*
X1563200Y340542D01*
X1566831Y352512D01*
X1568057Y364960D01*
X1567750Y393885D01*
X1551875Y409760D01*
X1446950Y409760D01*
X1446950Y407760D01*
X1421550Y407760D01*
X1421550Y409760D01*
X1419550Y409760D01*
X1419550Y435160D01*
X1421550Y435160D01*
X1421550Y651800D01*
X1446950Y651800D01*
X1446950Y435160D01*
X1551875Y435160D01*
X1567750Y451035D01*
X1568057Y479960D01*
X1566831Y492408D01*
X1563200Y504378D01*
X1557304Y515409D01*
X1550069Y524225D01*
X1553200Y530082D01*
X1556831Y542052D01*
X1558057Y554500D01*
X1557903Y595420D01*
X1582843Y595420D01*
X1583150Y536495D01*
X1599025Y520620D01*
X1705200Y520620D01*
X1705200Y643045D01*
X1730600Y643045D01*
X1730600Y520620D01*
X1836775Y520620D01*
X1852650Y536495D01*
X1852957Y595420D01*
X1851731Y607868D01*
X1848100Y619838D01*
X1842204Y630869D01*
X1834268Y640539D01*
X1824599Y648474D01*
X1813568Y654370D01*
X1801598Y658001D01*
X1789150Y659227D01*
X1746475Y658920D01*
X1730600Y643045D01*
X1705200Y643045D01*
X1689325Y658920D01*
X1646650Y659227D01*
X1634202Y658001D01*
X1622232Y654370D01*
X1611201Y648474D01*
X1601531Y640539D01*
X1593596Y630869D01*
X1587700Y619838D01*
X1584069Y607868D01*
X1582843Y595420D01*
X1557903Y595420D01*
X1557750Y635925D01*
X1541875Y651800D01*
X1446950Y651800D01*
X1421550Y651800D01*
X1326625Y651800D01*
X1310750Y635925D01*
X1310443Y554500D01*
X1311669Y542052D01*
X1315300Y530082D01*
X1318431Y524225D01*
X1311196Y515409D01*
X1305300Y504378D01*
X1301669Y492408D01*
X1300443Y479960D01*
X1300750Y451035D01*
X1316625Y435160D01*
X1300750Y435160D01*
X1300750Y422571D01*
X1287500Y422571D01*
X1287500Y453667D01*
X1288001Y458750D01*
X1287500Y463833D01*
X1287500Y463834D01*
X1286002Y479039D01*
X1280084Y498549D01*
X1274294Y509381D01*
X1270473Y516530D01*
X1260780Y528341D01*
X1257540Y532290D01*
X1253591Y535530D01*
X1092009Y697112D01*
X1092009Y774500D01*
X1310443Y774500D01*
X1310750Y693075D01*
X1326625Y677200D01*
X1421550Y677200D01*
X1421550Y822125D01*
X1446950Y822125D01*
X1446950Y677200D01*
X1541875Y677200D01*
X1557750Y693075D01*
X1558057Y774500D01*
X1556831Y786948D01*
X1553200Y798918D01*
X1547304Y809949D01*
X1539368Y819618D01*
X1529699Y827554D01*
X1518668Y833450D01*
X1506698Y837081D01*
X1494250Y838307D01*
X1462825Y838000D01*
X1446950Y822125D01*
X1421550Y822125D01*
X1405675Y838000D01*
X1374250Y838307D01*
X1361802Y837081D01*
X1349832Y833450D01*
X1338801Y827554D01*
X1329132Y819618D01*
X1321196Y809949D01*
X1315300Y798918D01*
X1311669Y786948D01*
X1310443Y774500D01*
X1092009Y774500D01*
X1090976Y784988D01*
X1087917Y795073D01*
X1082949Y804367D01*
X1076263Y812513D01*
X1068117Y819199D01*
X1058823Y824167D01*
X1048738Y827226D01*
X1038250Y828259D01*
X918250Y828259D01*
X907762Y827226D01*
X897677Y824167D01*
X888383Y819199D01*
X880237Y812513D01*
X873551Y804367D01*
X868583Y795073D01*
X865524Y784988D01*
X864491Y774500D01*
X667871Y774500D01*
X524759Y917612D01*
X524759Y1125000D01*
X523726Y1135488D01*
X520667Y1145573D01*
X515699Y1154867D01*
X509013Y1163013D01*
X500867Y1169699D01*
X491573Y1174667D01*
X481488Y1177726D01*
X471000Y1178759D01*
X171000Y1178759D01*
X160512Y1177726D01*
X150427Y1174667D01*
X141133Y1169699D01*
X132987Y1163013D01*
X126301Y1154867D01*
X121333Y1145573D01*
X118274Y1135488D01*
X117241Y1125000D01*
X56000Y1125000D01*
X56000Y1333835D01*
X189795Y1333835D01*
X205396Y1302279D01*
X242874Y1283198D01*
X283355Y1271796D01*
X325282Y1268510D01*
X367045Y1273467D01*
X407038Y1286476D01*
X436604Y1302279D01*
X452205Y1333835D01*
X321000Y1465039D01*
X189795Y1333835D01*
X56000Y1333835D01*
X56000Y1478718D01*
X106510Y1478718D01*
X111467Y1436955D01*
X124476Y1396962D01*
X140279Y1367396D01*
X171835Y1351795D01*
X303040Y1483000D01*
X338961Y1483000D01*
X470165Y1351795D01*
X501721Y1367396D01*
X520802Y1404874D01*
X532204Y1445355D01*
X535490Y1487282D01*
X530533Y1529045D01*
X517524Y1569038D01*
X501721Y1598604D01*
X470165Y1614205D01*
X338961Y1483000D01*
X303040Y1483000D01*
X171835Y1614205D01*
X140279Y1598604D01*
X121198Y1561125D01*
X109796Y1520645D01*
X106510Y1478718D01*
X56000Y1478718D01*
X56000Y1632165D01*
X189795Y1632165D01*
X321000Y1500960D01*
X452205Y1632165D01*
X436604Y1663721D01*
X399125Y1682802D01*
X358645Y1694204D01*
X316718Y1697490D01*
X274955Y1692533D01*
X234962Y1679524D01*
X205396Y1663721D01*
X189795Y1632165D01*
X56000Y1632165D01*
X56000Y1933520D01*
X776393Y1933520D01*
X776700Y1844595D01*
X792575Y1828720D01*
X893750Y1828720D01*
X893750Y1981145D01*
X919150Y1981145D01*
X919150Y1828720D01*
X1020325Y1828720D01*
X1036200Y1844595D01*
X1036507Y1933520D01*
X1035281Y1945968D01*
X1031650Y1957938D01*
X1025754Y1968969D01*
X1017818Y1978638D01*
X1008149Y1986574D01*
X997118Y1992470D01*
X985148Y1996101D01*
X972700Y1997327D01*
X935025Y1997020D01*
X919150Y1981145D01*
X893750Y1981145D01*
X877875Y1997020D01*
X840200Y1997327D01*
X827752Y1996101D01*
X815782Y1992470D01*
X804751Y1986574D01*
X795081Y1978638D01*
X787146Y1968969D01*
X781250Y1957938D01*
X777619Y1945968D01*
X776393Y1933520D01*
X56000Y1933520D01*
X56000Y2146644D01*
X730604Y2146644D01*
X736793Y2123063D01*
X760979Y2111773D01*
X786903Y2105419D01*
X813568Y2104244D01*
X839950Y2108294D01*
X865035Y2117413D01*
X875607Y2123063D01*
X881795Y2146644D01*
X806200Y2222240D01*
X730604Y2146644D01*
X56000Y2146644D01*
X56000Y2232832D01*
X670244Y2232832D01*
X674294Y2206450D01*
X683413Y2181365D01*
X689063Y2170793D01*
X712644Y2164605D01*
X788239Y2240200D01*
X712644Y2315796D01*
X689063Y2309607D01*
X677773Y2285421D01*
X671419Y2259497D01*
X670244Y2232832D01*
X56000Y2232832D01*
X56000Y2760561D01*
X680700Y2760561D01*
X680700Y2735839D01*
X685523Y2711593D01*
X694983Y2688754D01*
X702700Y2677205D01*
X702700Y2499283D01*
X702199Y2494200D01*
X702700Y2489117D01*
X702700Y2489116D01*
X704198Y2473911D01*
X710116Y2454401D01*
X719727Y2436420D01*
X732660Y2420660D01*
X736610Y2417419D01*
X780662Y2373367D01*
X772450Y2372106D01*
X747365Y2362988D01*
X736793Y2357337D01*
X730604Y2333756D01*
X806200Y2258161D01*
X807614Y2259575D01*
X825575Y2241614D01*
X824160Y2240200D01*
X899756Y2164605D01*
X923337Y2170793D01*
X934627Y2194979D01*
X939435Y2214594D01*
X1110450Y2043579D01*
X1110450Y1956219D01*
X1107214Y1952276D01*
X1099936Y1938660D01*
X1095455Y1923885D01*
X1093941Y1908520D01*
X1093941Y1723520D01*
X1095455Y1708155D01*
X1099936Y1693380D01*
X1107214Y1679764D01*
X1110450Y1675821D01*
X1110450Y1668259D01*
X1028527Y1668259D01*
X1031650Y1674102D01*
X1035281Y1686072D01*
X1036507Y1698520D01*
X1036200Y1787445D01*
X1020325Y1803320D01*
X919150Y1803320D01*
X919150Y1801320D01*
X893750Y1801320D01*
X893750Y1803320D01*
X792575Y1803320D01*
X776700Y1787445D01*
X776393Y1698520D01*
X777619Y1686072D01*
X781250Y1674102D01*
X787146Y1663071D01*
X795081Y1653401D01*
X804751Y1645466D01*
X815782Y1639570D01*
X827752Y1635939D01*
X840200Y1634713D01*
X866539Y1634928D01*
X863524Y1624988D01*
X862491Y1614500D01*
X862491Y974500D01*
X863524Y964012D01*
X866583Y953927D01*
X871551Y944633D01*
X878237Y936487D01*
X886383Y929801D01*
X895677Y924833D01*
X905762Y921774D01*
X916250Y920741D01*
X1496250Y920741D01*
X1506738Y921774D01*
X1516823Y924833D01*
X1524711Y929050D01*
X1640779Y929050D01*
X1930952Y638877D01*
X1925394Y635906D01*
X1913459Y626111D01*
X1903664Y614176D01*
X1896386Y600560D01*
X1891904Y585785D01*
X1890391Y570420D01*
X1890391Y445420D01*
X1891904Y430055D01*
X1896386Y415280D01*
X1903664Y401664D01*
X1910266Y393620D01*
X1903664Y385576D01*
X1896386Y371960D01*
X1891904Y357185D01*
X1890391Y341820D01*
X1890391Y216820D01*
X1891904Y201455D01*
X1896386Y186680D01*
X1903664Y173064D01*
X1913459Y161129D01*
X1925394Y151335D01*
X1939010Y144056D01*
X1953785Y139575D01*
X1969150Y138061D01*
X2061650Y138061D01*
X2077015Y139575D01*
X2091790Y144056D01*
X2105406Y151335D01*
X2117341Y161129D01*
X2119697Y164000D01*
X3951193Y164000D01*
X3952419Y151552D01*
X3956050Y139582D01*
X3961946Y128551D01*
X3969881Y118881D01*
X3979551Y110946D01*
X3990582Y105050D01*
X4002552Y101419D01*
X4015000Y100193D01*
X4071425Y100500D01*
X4087300Y116375D01*
X4087300Y236300D01*
X4112700Y236300D01*
X4112700Y116375D01*
X4128575Y100500D01*
X4185000Y100193D01*
X4197448Y101419D01*
X4209418Y105050D01*
X4220449Y110946D01*
X4230119Y118881D01*
X4238054Y128551D01*
X4243950Y139582D01*
X4246397Y147647D01*
X4253973Y139241D01*
X4277308Y121836D01*
X4303590Y109317D01*
X4318311Y104852D01*
X4341300Y116984D01*
X4341300Y236300D01*
X4366700Y236300D01*
X4366700Y116984D01*
X4389689Y104852D01*
X4404410Y109317D01*
X4430692Y121836D01*
X4454027Y139241D01*
X4473518Y160865D01*
X4481000Y173426D01*
X4488482Y160865D01*
X4507973Y139241D01*
X4531308Y121836D01*
X4557590Y109317D01*
X4572311Y104852D01*
X4595300Y116984D01*
X4595300Y236300D01*
X4366700Y236300D01*
X4341300Y236300D01*
X4112700Y236300D01*
X4087300Y236300D01*
X3967375Y236300D01*
X3951500Y220425D01*
X3951193Y164000D01*
X2119697Y164000D01*
X2127136Y173064D01*
X2134414Y186680D01*
X2138896Y201455D01*
X2140409Y216820D01*
X2140409Y341820D01*
X2138896Y357185D01*
X2134414Y371960D01*
X2127136Y385576D01*
X2120534Y393620D01*
X2127136Y401664D01*
X2134414Y415280D01*
X2138896Y430055D01*
X2140310Y444420D01*
X2337671Y444420D01*
X2346797Y435294D01*
X2362111Y425061D01*
X2379127Y418013D01*
X2397191Y414420D01*
X2415609Y414420D01*
X2433673Y418013D01*
X2450689Y425061D01*
X2466003Y435294D01*
X2479026Y448317D01*
X2489259Y463631D01*
X2496095Y480134D01*
X2664900Y311329D01*
X2668140Y307380D01*
X2672089Y304140D01*
X2683900Y294447D01*
X2689168Y291631D01*
X2701881Y284836D01*
X2721391Y278918D01*
X2736596Y277420D01*
X2736596Y277420D01*
X2741680Y276919D01*
X2746764Y277420D01*
X3346197Y277420D01*
X3351280Y276919D01*
X3356363Y277420D01*
X3356364Y277420D01*
X3371569Y278918D01*
X3391079Y284836D01*
X3409060Y294447D01*
X3424820Y307380D01*
X3428061Y311330D01*
X3516231Y399500D01*
X4007796Y399500D01*
X4010410Y397355D01*
X4002552Y396581D01*
X3990582Y392950D01*
X3979551Y387054D01*
X3969881Y379118D01*
X3961946Y369449D01*
X3956050Y358418D01*
X3952419Y346448D01*
X3951193Y334000D01*
X3951500Y277575D01*
X3967375Y261700D01*
X4087300Y261700D01*
X4087300Y263700D01*
X4112700Y263700D01*
X4112700Y261700D01*
X4341300Y261700D01*
X4341300Y263700D01*
X4366700Y263700D01*
X4366700Y261700D01*
X4595300Y261700D01*
X4595300Y263700D01*
X4620700Y263700D01*
X4620700Y261700D01*
X4622700Y261700D01*
X4622700Y236300D01*
X4620700Y236300D01*
X4620700Y116984D01*
X4643689Y104852D01*
X4658410Y109317D01*
X4684692Y121836D01*
X4708027Y139241D01*
X4727518Y160865D01*
X4740456Y182585D01*
X4746284Y171681D01*
X4763592Y150592D01*
X4784681Y133284D01*
X4808742Y120424D01*
X4834849Y112504D01*
X4855196Y110500D01*
X4868804Y110500D01*
X4889151Y112504D01*
X4915258Y120424D01*
X4939319Y133284D01*
X4960408Y150592D01*
X4977716Y171681D01*
X4989000Y192793D01*
X5000284Y171681D01*
X5017592Y150592D01*
X5038681Y133284D01*
X5062742Y120424D01*
X5088849Y112504D01*
X5109196Y110500D01*
X5122804Y110500D01*
X5143151Y112504D01*
X5169258Y120424D01*
X5193319Y133284D01*
X5214408Y150592D01*
X5231716Y171681D01*
X5243000Y192793D01*
X5254284Y171681D01*
X5271592Y150592D01*
X5292681Y133284D01*
X5316742Y120424D01*
X5342849Y112504D01*
X5363196Y110500D01*
X5376804Y110500D01*
X5397151Y112504D01*
X5423258Y120424D01*
X5447319Y133284D01*
X5468408Y150592D01*
X5485716Y171681D01*
X5497000Y192793D01*
X5508284Y171681D01*
X5525592Y150592D01*
X5546681Y133284D01*
X5570742Y120424D01*
X5596849Y112504D01*
X5617196Y110500D01*
X5630804Y110500D01*
X5651151Y112504D01*
X5677258Y120424D01*
X5701319Y133284D01*
X5722408Y150592D01*
X5739716Y171681D01*
X5751000Y192793D01*
X5762284Y171681D01*
X5779592Y150592D01*
X5800681Y133284D01*
X5824742Y120424D01*
X5850849Y112504D01*
X5871196Y110500D01*
X5884804Y110500D01*
X5905151Y112504D01*
X5931258Y120424D01*
X5955319Y133284D01*
X5976408Y150592D01*
X5993716Y171681D01*
X6005000Y192793D01*
X6016284Y171681D01*
X6033592Y150592D01*
X6054681Y133284D01*
X6078742Y120424D01*
X6104849Y112504D01*
X6125196Y110500D01*
X6138804Y110500D01*
X6159151Y112504D01*
X6185258Y120424D01*
X6209319Y133284D01*
X6230408Y150592D01*
X6247716Y171681D01*
X6259000Y192793D01*
X6270284Y171681D01*
X6287592Y150592D01*
X6308681Y133284D01*
X6332742Y120424D01*
X6358849Y112504D01*
X6379196Y110500D01*
X6392804Y110500D01*
X6413151Y112504D01*
X6439258Y120424D01*
X6463319Y133284D01*
X6484408Y150592D01*
X6501716Y171681D01*
X6513000Y192793D01*
X6524284Y171681D01*
X6541592Y150592D01*
X6562681Y133284D01*
X6586742Y120424D01*
X6612849Y112504D01*
X6633196Y110500D01*
X6646804Y110500D01*
X6667151Y112504D01*
X6693258Y120424D01*
X6717319Y133284D01*
X6738408Y150592D01*
X6755716Y171681D01*
X6767000Y192793D01*
X6778284Y171681D01*
X6795592Y150592D01*
X6816681Y133284D01*
X6840742Y120424D01*
X6866849Y112504D01*
X6887196Y110500D01*
X6900804Y110500D01*
X6921151Y112504D01*
X6947258Y120424D01*
X6971319Y133284D01*
X6992408Y150592D01*
X7009716Y171681D01*
X7022576Y195742D01*
X7030496Y221849D01*
X7033170Y249000D01*
X7030496Y276151D01*
X7022576Y302258D01*
X7009716Y326319D01*
X6992408Y347408D01*
X6971319Y364716D01*
X6950207Y376000D01*
X6971319Y387284D01*
X6992408Y404592D01*
X6997749Y411100D01*
X7187300Y411100D01*
X7187300Y388900D01*
X7191631Y367127D01*
X7200127Y346617D01*
X7212460Y328158D01*
X7228158Y312460D01*
X7246616Y300127D01*
X7267127Y291631D01*
X7288900Y287300D01*
X7311100Y287300D01*
X7332873Y291631D01*
X7353383Y300127D01*
X7371842Y312460D01*
X7387540Y328158D01*
X7399873Y346617D01*
X7408369Y367127D01*
X7412700Y388900D01*
X7412700Y411100D01*
X7408369Y432873D01*
X7399873Y453383D01*
X7387540Y471842D01*
X7371842Y487540D01*
X7353383Y499873D01*
X7332873Y508369D01*
X7311100Y512700D01*
X7288900Y512700D01*
X7267127Y508369D01*
X7246616Y499873D01*
X7228158Y487540D01*
X7212460Y471842D01*
X7200127Y453383D01*
X7191631Y432873D01*
X7187300Y411100D01*
X6997749Y411100D01*
X7009716Y425681D01*
X7022576Y449742D01*
X7030496Y475849D01*
X7033170Y503000D01*
X7030496Y530151D01*
X7022576Y556258D01*
X7009716Y580319D01*
X6992408Y601408D01*
X6971319Y618716D01*
X6954907Y627488D01*
X6955478Y627544D01*
X6957860Y628267D01*
X6960056Y629440D01*
X6961980Y631020D01*
X6963560Y632944D01*
X6964733Y635140D01*
X6965456Y637522D01*
X6965700Y640000D01*
X6965700Y939471D01*
X6966626Y940397D01*
X6976859Y955711D01*
X6983907Y972727D01*
X6987500Y990791D01*
X6987500Y1009209D01*
X6983907Y1027273D01*
X6976859Y1044289D01*
X6966626Y1059603D01*
X6953603Y1072626D01*
X6938289Y1082859D01*
X6921273Y1089907D01*
X6903209Y1093500D01*
X6890302Y1093500D01*
X6581050Y1402752D01*
X6581050Y1415659D01*
X6577457Y1433723D01*
X6570409Y1450739D01*
X6560176Y1466053D01*
X6551050Y1475179D01*
X6551050Y1543332D01*
X6551357Y1546450D01*
X6551050Y1549568D01*
X6551050Y1549569D01*
X6550131Y1558898D01*
X6546500Y1570868D01*
X6540604Y1581899D01*
X6532668Y1591568D01*
X6530246Y1593557D01*
X6515363Y1608439D01*
X6880754Y1608439D01*
X6881141Y1604672D01*
X6890358Y1582147D01*
X6903792Y1561853D01*
X6920927Y1544569D01*
X6941105Y1530961D01*
X6963550Y1521551D01*
X6987400Y1516700D01*
X7014900Y1516700D01*
X7014900Y1627500D01*
X7040300Y1627500D01*
X7040300Y1516700D01*
X7067800Y1516700D01*
X7091650Y1521551D01*
X7114095Y1530961D01*
X7134272Y1544569D01*
X7151408Y1561853D01*
X7164842Y1582147D01*
X7174059Y1604672D01*
X7174446Y1608439D01*
X7161973Y1627500D01*
X7040300Y1627500D01*
X7014900Y1627500D01*
X6893227Y1627500D01*
X6880754Y1608439D01*
X6515363Y1608439D01*
X6382736Y1741066D01*
X6383676Y1902380D01*
X6536478Y1902380D01*
X6641353Y1797504D01*
X6643341Y1795081D01*
X6645764Y1793093D01*
X6645764Y1793093D01*
X6653011Y1787146D01*
X6661950Y1782368D01*
X6664042Y1781250D01*
X6676012Y1777619D01*
X6685341Y1776700D01*
X6685341Y1776700D01*
X6688460Y1776393D01*
X6691579Y1776700D01*
X6905385Y1776700D01*
X6919455Y1759555D01*
X6935987Y1745987D01*
X6920927Y1735831D01*
X6903792Y1718547D01*
X6890358Y1698253D01*
X6881141Y1675728D01*
X6880754Y1671961D01*
X6893227Y1652900D01*
X7014900Y1652900D01*
X7014900Y1654900D01*
X7040300Y1654900D01*
X7040300Y1652900D01*
X7161973Y1652900D01*
X7174446Y1671961D01*
X7174059Y1675728D01*
X7164842Y1698253D01*
X7151408Y1718547D01*
X7134272Y1735831D01*
X7119213Y1745987D01*
X7135745Y1759555D01*
X7149928Y1776838D01*
X7160468Y1796555D01*
X7166958Y1817950D01*
X7169149Y1840200D01*
X7166958Y1862450D01*
X7160468Y1883845D01*
X7149928Y1903562D01*
X7135745Y1920845D01*
X7118462Y1935028D01*
X7108787Y1940200D01*
X7118462Y1945372D01*
X7135745Y1959555D01*
X7149928Y1976838D01*
X7160468Y1996555D01*
X7166958Y2017950D01*
X7169149Y2040200D01*
X7166958Y2062450D01*
X7160468Y2083845D01*
X7149928Y2103562D01*
X7135745Y2120845D01*
X7118462Y2135028D01*
X7108787Y2140200D01*
X7118462Y2145372D01*
X7135745Y2159555D01*
X7149928Y2176838D01*
X7160468Y2196555D01*
X7166958Y2217950D01*
X7169149Y2240200D01*
X7166958Y2262450D01*
X7160468Y2283845D01*
X7149928Y2303562D01*
X7135745Y2320845D01*
X7118462Y2335028D01*
X7098745Y2345568D01*
X7077350Y2352058D01*
X7060675Y2353700D01*
X6994525Y2353700D01*
X6977850Y2352058D01*
X6956455Y2345568D01*
X6936738Y2335028D01*
X6919455Y2320845D01*
X6905385Y2303700D01*
X6624318Y2303700D01*
X6621200Y2304007D01*
X6618082Y2303700D01*
X6618081Y2303700D01*
X6608752Y2302781D01*
X6597984Y2299515D01*
X6596782Y2299150D01*
X6585750Y2293254D01*
X6581974Y2290154D01*
X6576081Y2285319D01*
X6574093Y2282896D01*
X6533898Y2242700D01*
X5766759Y2242700D01*
X5766759Y2254200D01*
X5765726Y2264688D01*
X5762667Y2274773D01*
X5757699Y2284067D01*
X5751013Y2292213D01*
X5746500Y2295917D01*
X5746500Y2795558D01*
X5817453Y2724605D01*
X5819441Y2722182D01*
X5829111Y2714246D01*
X5840142Y2708350D01*
X5852112Y2704719D01*
X5861441Y2703800D01*
X5861442Y2703800D01*
X5864560Y2703493D01*
X5867678Y2703800D01*
X5971270Y2703800D01*
X5985704Y2682199D01*
X6004299Y2663604D01*
X6026164Y2648994D01*
X6050459Y2638930D01*
X6076251Y2633800D01*
X6102549Y2633800D01*
X6128340Y2638930D01*
X6152636Y2648994D01*
X6174501Y2663604D01*
X6193096Y2682199D01*
X6207530Y2703800D01*
X6400022Y2703800D01*
X6403140Y2703493D01*
X6406258Y2703800D01*
X6406259Y2703800D01*
X6415588Y2704719D01*
X6427558Y2708350D01*
X6438589Y2714246D01*
X6448258Y2722182D01*
X6450247Y2724605D01*
X6453782Y2728140D01*
X6560241Y2728140D01*
X6560241Y2726640D01*
X6561274Y2716152D01*
X6564333Y2706067D01*
X6569301Y2696773D01*
X6575987Y2688627D01*
X6584133Y2681941D01*
X6593427Y2676973D01*
X6603512Y2673914D01*
X6614000Y2672881D01*
X6784000Y2672881D01*
X6794488Y2673914D01*
X6804573Y2676973D01*
X6813867Y2681941D01*
X6822013Y2688627D01*
X6828699Y2696773D01*
X6833667Y2706067D01*
X6836726Y2716152D01*
X6837759Y2726640D01*
X6837759Y2856640D01*
X6836726Y2867128D01*
X6833667Y2877213D01*
X6828699Y2886507D01*
X6822013Y2894653D01*
X6813867Y2901339D01*
X6804573Y2906307D01*
X6794488Y2909366D01*
X6784000Y2910399D01*
X6614000Y2910399D01*
X6603512Y2909366D01*
X6593427Y2906307D01*
X6584133Y2901339D01*
X6575987Y2894653D01*
X6569301Y2886507D01*
X6564333Y2877213D01*
X6561274Y2867128D01*
X6560241Y2856640D01*
X6560241Y2855140D01*
X6430599Y2855140D01*
X6427480Y2855447D01*
X6424361Y2855140D01*
X6424361Y2855140D01*
X6415032Y2854221D01*
X6403062Y2850590D01*
X6397367Y2847546D01*
X6392031Y2844694D01*
X6392030Y2844694D01*
X6392031Y2844694D01*
X6382361Y2836758D01*
X6380373Y2834335D01*
X6376837Y2830800D01*
X6207530Y2830800D01*
X6193096Y2852401D01*
X6174501Y2870996D01*
X6152636Y2885606D01*
X6128340Y2895670D01*
X6102549Y2900800D01*
X6076251Y2900800D01*
X6050459Y2895670D01*
X6026164Y2885606D01*
X6004299Y2870996D01*
X5985704Y2852401D01*
X5971270Y2830800D01*
X5890862Y2830800D01*
X5848100Y2873562D01*
X5848100Y3247300D01*
X5955641Y3247300D01*
X5955641Y3087300D01*
X5956674Y3076812D01*
X5959733Y3066727D01*
X5964701Y3057433D01*
X5971387Y3049287D01*
X5979533Y3042601D01*
X5988827Y3037633D01*
X5998912Y3034574D01*
X6009400Y3033541D01*
X6169400Y3033541D01*
X6179888Y3034574D01*
X6189973Y3037633D01*
X6199267Y3042601D01*
X6207413Y3049287D01*
X6214099Y3057433D01*
X6219067Y3066727D01*
X6222126Y3076812D01*
X6223159Y3087300D01*
X6223159Y3103800D01*
X6385678Y3103800D01*
X6390533Y3098945D01*
X6392521Y3096521D01*
X6402191Y3088586D01*
X6413222Y3082690D01*
X6425192Y3079059D01*
X6434521Y3078140D01*
X6434522Y3078140D01*
X6437640Y3077833D01*
X6440758Y3078140D01*
X6560241Y3078140D01*
X6560241Y3076640D01*
X6561274Y3066152D01*
X6564333Y3056067D01*
X6569301Y3046773D01*
X6575987Y3038627D01*
X6584133Y3031941D01*
X6593427Y3026973D01*
X6603512Y3023914D01*
X6614000Y3022881D01*
X6784000Y3022881D01*
X6794488Y3023914D01*
X6804573Y3026973D01*
X6813867Y3031941D01*
X6822013Y3038627D01*
X6828699Y3046773D01*
X6833667Y3056067D01*
X6836726Y3066152D01*
X6837759Y3076640D01*
X6837759Y3206640D01*
X6836726Y3217128D01*
X6833667Y3227213D01*
X6828699Y3236507D01*
X6822013Y3244653D01*
X6813867Y3251339D01*
X6804573Y3256307D01*
X6794488Y3259366D01*
X6784000Y3260399D01*
X6614000Y3260399D01*
X6603512Y3259366D01*
X6593427Y3256307D01*
X6584133Y3251339D01*
X6575987Y3244653D01*
X6569301Y3236507D01*
X6564333Y3227213D01*
X6561274Y3217128D01*
X6560241Y3206640D01*
X6560241Y3205140D01*
X6463942Y3205140D01*
X6459087Y3209995D01*
X6457098Y3212418D01*
X6447429Y3220354D01*
X6436398Y3226250D01*
X6424428Y3229881D01*
X6415099Y3230800D01*
X6415098Y3230800D01*
X6411980Y3231107D01*
X6408862Y3230800D01*
X6223159Y3230800D01*
X6223159Y3247300D01*
X6222126Y3257788D01*
X6219067Y3267873D01*
X6214099Y3277167D01*
X6207413Y3285313D01*
X6199267Y3291999D01*
X6189973Y3296967D01*
X6179888Y3300026D01*
X6169400Y3301059D01*
X6009400Y3301059D01*
X5998912Y3300026D01*
X5988827Y3296967D01*
X5979533Y3291999D01*
X5971387Y3285313D01*
X5964701Y3277167D01*
X5959733Y3267873D01*
X5956674Y3257788D01*
X5955641Y3247300D01*
X5848100Y3247300D01*
X5848100Y3253081D01*
X5848407Y3256200D01*
X5848095Y3259366D01*
X5847181Y3268648D01*
X5843550Y3280618D01*
X5842872Y3281886D01*
X5837654Y3291649D01*
X5831707Y3298896D01*
X5831706Y3298896D01*
X5829718Y3301318D01*
X5827296Y3303306D01*
X5752967Y3377635D01*
X5750978Y3380058D01*
X5741309Y3387994D01*
X5730278Y3393890D01*
X5718308Y3397521D01*
X5708979Y3398440D01*
X5708978Y3398440D01*
X5705860Y3398747D01*
X5702742Y3398440D01*
X5568762Y3398440D01*
X5565359Y3404807D01*
X5558673Y3412953D01*
X5550527Y3419639D01*
X5541233Y3424607D01*
X5531148Y3427666D01*
X5520660Y3428699D01*
X5430660Y3428699D01*
X5420172Y3427666D01*
X5410087Y3424607D01*
X5400793Y3419639D01*
X5392647Y3412953D01*
X5385961Y3404807D01*
X5384135Y3401390D01*
X5368285Y3417240D01*
X5288360Y3417240D01*
X5288360Y3415240D01*
X5262960Y3415240D01*
X5262960Y3417240D01*
X5183035Y3417240D01*
X5167160Y3401365D01*
X5166853Y3389940D01*
X5168079Y3377492D01*
X5171710Y3365522D01*
X5177606Y3354491D01*
X5185313Y3345100D01*
X5142619Y3345100D01*
X5142619Y3374940D01*
X5141586Y3385428D01*
X5138527Y3395513D01*
X5133559Y3404807D01*
X5126873Y3412953D01*
X5118727Y3419639D01*
X5109433Y3424607D01*
X5099348Y3427666D01*
X5088860Y3428699D01*
X5045826Y3428699D01*
X5043860Y3428892D01*
X5041894Y3428699D01*
X4998860Y3428699D01*
X4988372Y3427666D01*
X4978287Y3424607D01*
X4968993Y3419639D01*
X4960847Y3412953D01*
X4954161Y3404807D01*
X4952335Y3401390D01*
X4936485Y3417240D01*
X4856560Y3417240D01*
X4856560Y3415240D01*
X4831160Y3415240D01*
X4831160Y3417240D01*
X4829160Y3417240D01*
X4829160Y3442640D01*
X4831160Y3442640D01*
X4831160Y3517565D01*
X4856560Y3517565D01*
X4856560Y3442640D01*
X4936485Y3442640D01*
X4952360Y3458515D01*
X4952667Y3469940D01*
X5166853Y3469940D01*
X5167160Y3458515D01*
X5183035Y3442640D01*
X5262960Y3442640D01*
X5262960Y3517565D01*
X5288360Y3517565D01*
X5288360Y3442640D01*
X5368285Y3442640D01*
X5384160Y3458515D01*
X5384467Y3469940D01*
X5383241Y3482388D01*
X5379610Y3494358D01*
X5373714Y3505389D01*
X5365779Y3515058D01*
X5356109Y3522994D01*
X5345078Y3528890D01*
X5333108Y3532521D01*
X5320660Y3533747D01*
X5304235Y3533440D01*
X5288360Y3517565D01*
X5262960Y3517565D01*
X5247085Y3533440D01*
X5230660Y3533747D01*
X5218212Y3532521D01*
X5206242Y3528890D01*
X5195211Y3522994D01*
X5185542Y3515058D01*
X5177606Y3505389D01*
X5171710Y3494358D01*
X5168079Y3482388D01*
X5166853Y3469940D01*
X4952667Y3469940D01*
X4951441Y3482388D01*
X4947810Y3494358D01*
X4941914Y3505389D01*
X4933979Y3515058D01*
X4924309Y3522994D01*
X4913278Y3528890D01*
X4901308Y3532521D01*
X4888860Y3533747D01*
X4872435Y3533440D01*
X4856560Y3517565D01*
X4831160Y3517565D01*
X4815285Y3533440D01*
X4798860Y3533747D01*
X4786412Y3532521D01*
X4774442Y3528890D01*
X4763411Y3522994D01*
X4753742Y3515058D01*
X4745806Y3505389D01*
X4739910Y3494358D01*
X4736279Y3482388D01*
X4735053Y3469940D01*
X4735246Y3462738D01*
X4731803Y3469180D01*
X4713871Y3491031D01*
X4692020Y3508963D01*
X4667091Y3522288D01*
X4640041Y3530494D01*
X4611910Y3533264D01*
X4583779Y3530494D01*
X4556729Y3522288D01*
X4531800Y3508963D01*
X4509949Y3491031D01*
X4492017Y3469180D01*
X4484910Y3455884D01*
X4477803Y3469180D01*
X4459871Y3491031D01*
X4438020Y3508963D01*
X4413091Y3522288D01*
X4386041Y3530494D01*
X4357910Y3533264D01*
X4329779Y3530494D01*
X4302729Y3522288D01*
X4277800Y3508963D01*
X4255949Y3491031D01*
X4238017Y3469180D01*
X4230910Y3455884D01*
X4223803Y3469180D01*
X4205871Y3491031D01*
X4184020Y3508963D01*
X4159091Y3522288D01*
X4132041Y3530494D01*
X4103910Y3533264D01*
X4075779Y3530494D01*
X4048729Y3522288D01*
X4023800Y3508963D01*
X4001949Y3491031D01*
X3984017Y3469180D01*
X3976910Y3455884D01*
X3969803Y3469180D01*
X3951871Y3491031D01*
X3930020Y3508963D01*
X3905091Y3522288D01*
X3878041Y3530494D01*
X3849910Y3533264D01*
X3821779Y3530494D01*
X3794729Y3522288D01*
X3769800Y3508963D01*
X3747949Y3491031D01*
X3730017Y3469180D01*
X3722910Y3455884D01*
X3715803Y3469180D01*
X3697871Y3491031D01*
X3676020Y3508963D01*
X3651091Y3522288D01*
X3624041Y3530494D01*
X3595910Y3533264D01*
X3567779Y3530494D01*
X3540729Y3522288D01*
X3515800Y3508963D01*
X3493949Y3491031D01*
X3476017Y3469180D01*
X3468910Y3455884D01*
X3461803Y3469180D01*
X3443871Y3491031D01*
X3422020Y3508963D01*
X3397091Y3522288D01*
X3370041Y3530494D01*
X3341910Y3533264D01*
X3313779Y3530494D01*
X3286729Y3522288D01*
X3261800Y3508963D01*
X3239949Y3491031D01*
X3222017Y3469180D01*
X3214910Y3455884D01*
X3207803Y3469180D01*
X3189871Y3491031D01*
X3168020Y3508963D01*
X3143091Y3522288D01*
X3116041Y3530494D01*
X3087910Y3533264D01*
X3059779Y3530494D01*
X3032729Y3522288D01*
X3007800Y3508963D01*
X2985949Y3491031D01*
X2968017Y3469180D01*
X2960910Y3455884D01*
X2953803Y3469180D01*
X2935871Y3491031D01*
X2914020Y3508963D01*
X2889091Y3522288D01*
X2862041Y3530494D01*
X2833910Y3533264D01*
X2805779Y3530494D01*
X2778729Y3522288D01*
X2753800Y3508963D01*
X2731949Y3491031D01*
X2714017Y3469180D01*
X2706910Y3455884D01*
X2699803Y3469180D01*
X2681871Y3491031D01*
X2660020Y3508963D01*
X2635091Y3522288D01*
X2608041Y3530494D01*
X2579910Y3533264D01*
X2551779Y3530494D01*
X2524729Y3522288D01*
X2499800Y3508963D01*
X2477949Y3491031D01*
X2460017Y3469180D01*
X2452910Y3455884D01*
X2445803Y3469180D01*
X2427871Y3491031D01*
X2406020Y3508963D01*
X2381091Y3522288D01*
X2354041Y3530494D01*
X2325910Y3533264D01*
X2297779Y3530494D01*
X2270729Y3522288D01*
X2245800Y3508963D01*
X2223949Y3491031D01*
X2206017Y3469180D01*
X2198910Y3455884D01*
X2191803Y3469180D01*
X2173871Y3491031D01*
X2152020Y3508963D01*
X2127091Y3522288D01*
X2100041Y3530494D01*
X2071910Y3533264D01*
X2043779Y3530494D01*
X2016729Y3522288D01*
X1991800Y3508963D01*
X1969949Y3491031D01*
X1952017Y3469180D01*
X1950489Y3466322D01*
X1938485Y3484910D01*
X1917471Y3506591D01*
X1892630Y3523756D01*
X1864919Y3535745D01*
X1854384Y3538174D01*
X1830610Y3526108D01*
X1830610Y3361770D01*
X1832610Y3361770D01*
X1832610Y3336370D01*
X1830610Y3336370D01*
X1830610Y3334370D01*
X1805210Y3334370D01*
X1805210Y3336370D01*
X1803210Y3336370D01*
X1803210Y3361770D01*
X1805210Y3361770D01*
X1805210Y3526108D01*
X1781436Y3538174D01*
X1770901Y3535745D01*
X1743190Y3523756D01*
X1718349Y3506591D01*
X1697335Y3484910D01*
X1685331Y3466322D01*
X1683803Y3469180D01*
X1665871Y3491031D01*
X1644020Y3508963D01*
X1619091Y3522288D01*
X1592041Y3530494D01*
X1563910Y3533264D01*
X1535779Y3530494D01*
X1508729Y3522288D01*
X1483800Y3508963D01*
X1461949Y3491031D01*
X1444017Y3469180D01*
X1436910Y3455884D01*
X1429803Y3469180D01*
X1411871Y3491031D01*
X1390020Y3508963D01*
X1365091Y3522288D01*
X1338041Y3530494D01*
X1309910Y3533264D01*
X1281779Y3530494D01*
X1254729Y3522288D01*
X1229800Y3508963D01*
X1207949Y3491031D01*
X1190017Y3469180D01*
X1182910Y3455884D01*
X1175803Y3469180D01*
X1157871Y3491031D01*
X1136020Y3508963D01*
X1111091Y3522288D01*
X1084041Y3530494D01*
X1055910Y3533264D01*
X1027779Y3530494D01*
X1000729Y3522288D01*
X975800Y3508963D01*
X954495Y3491479D01*
X954491Y3491518D01*
X950860Y3503488D01*
X944964Y3514519D01*
X937028Y3524188D01*
X927359Y3532124D01*
X916328Y3538020D01*
X904358Y3541651D01*
X891910Y3542877D01*
X830485Y3542570D01*
X814610Y3526695D01*
X814610Y3361770D01*
X816610Y3361770D01*
X816610Y3336370D01*
X814610Y3336370D01*
X814610Y3171445D01*
X830485Y3155570D01*
X891910Y3155263D01*
X904358Y3156489D01*
X916328Y3160120D01*
X927359Y3166016D01*
X937028Y3173951D01*
X944964Y3183621D01*
X950860Y3194652D01*
X952410Y3199761D01*
X952410Y3167781D01*
X736609Y2951980D01*
X732660Y2948740D01*
X729420Y2944791D01*
X729420Y2944791D01*
X719727Y2932980D01*
X710116Y2914999D01*
X704198Y2895489D01*
X702199Y2875200D01*
X702700Y2870116D01*
X702700Y2819195D01*
X694983Y2807646D01*
X685523Y2784807D01*
X680700Y2760561D01*
X56000Y2760561D01*
X56000Y3291322D01*
X56320Y3289711D01*
X71661Y3252677D01*
X93931Y3219346D01*
X122276Y3191001D01*
X155607Y3168731D01*
X192641Y3153390D01*
X231957Y3145570D01*
X272043Y3145570D01*
X311359Y3153390D01*
X348393Y3168731D01*
X381724Y3191001D01*
X409792Y3219070D01*
X648103Y3219070D01*
X649329Y3206622D01*
X652960Y3194652D01*
X658856Y3183621D01*
X666792Y3173951D01*
X676461Y3166016D01*
X687492Y3160120D01*
X699462Y3156489D01*
X711910Y3155263D01*
X773335Y3155570D01*
X789210Y3171445D01*
X789210Y3336370D01*
X664285Y3336370D01*
X648410Y3320495D01*
X648103Y3219070D01*
X409792Y3219070D01*
X410069Y3219346D01*
X432339Y3252677D01*
X447680Y3289711D01*
X455500Y3329027D01*
X455500Y3369113D01*
X447680Y3408429D01*
X432339Y3445463D01*
X410069Y3478794D01*
X409792Y3479070D01*
X648103Y3479070D01*
X648410Y3377645D01*
X664285Y3361770D01*
X789210Y3361770D01*
X789210Y3526695D01*
X773335Y3542570D01*
X711910Y3542877D01*
X699462Y3541651D01*
X687492Y3538020D01*
X676461Y3532124D01*
X666792Y3524188D01*
X658856Y3514519D01*
X652960Y3503488D01*
X649329Y3491518D01*
X648103Y3479070D01*
X409792Y3479070D01*
X381724Y3507139D01*
X348393Y3529409D01*
X313168Y3544000D01*
X7690742Y3544000D01*
X7655517Y3529409D01*
G36*
X2735835Y2394974D02*
G01*
X2732776Y2384889D01*
X2732516Y2382245D01*
X2726962Y2376691D01*
X2724253Y2374468D01*
X2715380Y2363656D01*
X2708787Y2351322D01*
X2704727Y2337938D01*
X2703746Y2327973D01*
X2703357Y2324020D01*
X2703700Y2320533D01*
X2703700Y2304648D01*
X2703357Y2301160D01*
X2703700Y2297673D01*
X2703700Y2297672D01*
X2704727Y2287242D01*
X2708787Y2273858D01*
X2715380Y2261524D01*
X2717514Y2258923D01*
X2605042Y2146451D01*
X2602333Y2144227D01*
X2593460Y2133416D01*
X2586867Y2121082D01*
X2582807Y2107698D01*
X2582138Y2100902D01*
X2581437Y2093780D01*
X2581780Y2090292D01*
X2581780Y1891149D01*
X2523051Y1832420D01*
X2520751Y1832420D01*
X2502687Y1828827D01*
X2485671Y1821779D01*
X2470357Y1811546D01*
X2459467Y1800656D01*
X2448749Y1811374D01*
X2440602Y1818060D01*
X2438748Y1819051D01*
X2437757Y1820905D01*
X2431071Y1829052D01*
X2398603Y1861519D01*
X2395556Y1871741D01*
X2389713Y1882801D01*
X2382151Y1891748D01*
X2359700Y1891748D01*
X2351364Y1883412D01*
X2343679Y1882655D01*
X2333594Y1879596D01*
X2324986Y1874995D01*
X2329588Y1883603D01*
X2332647Y1893688D01*
X2333404Y1901373D01*
X2341740Y1909709D01*
X2341740Y1932159D01*
X2332792Y1939721D01*
X2321733Y1945565D01*
X2311511Y1948612D01*
X2279043Y1981080D01*
X2270897Y1987765D01*
X2269042Y1988756D01*
X2268051Y1990611D01*
X2261366Y1998757D01*
X2222475Y2037648D01*
X2214328Y2044334D01*
X2212474Y2045325D01*
X2211483Y2047179D01*
X2204797Y2055326D01*
X2177403Y2082720D01*
X2204797Y2110114D01*
X2211483Y2118261D01*
X2212474Y2120115D01*
X2214328Y2121106D01*
X2222475Y2127792D01*
X2261366Y2166683D01*
X2268051Y2174829D01*
X2269042Y2176684D01*
X2270897Y2177675D01*
X2279043Y2184360D01*
X2317934Y2223251D01*
X2324620Y2231398D01*
X2325611Y2233252D01*
X2327465Y2234243D01*
X2335612Y2240929D01*
X2367015Y2272332D01*
X2397990Y2241358D01*
X2397990Y2228451D01*
X2401583Y2210387D01*
X2408631Y2193371D01*
X2418864Y2178057D01*
X2431887Y2165034D01*
X2447201Y2154801D01*
X2464217Y2147753D01*
X2482281Y2144160D01*
X2500699Y2144160D01*
X2518763Y2147753D01*
X2535779Y2154801D01*
X2551093Y2165034D01*
X2564116Y2178057D01*
X2574349Y2193371D01*
X2581397Y2210387D01*
X2584990Y2228451D01*
X2584990Y2246869D01*
X2581397Y2264933D01*
X2580920Y2266084D01*
X2587324Y2264810D01*
X2605742Y2264810D01*
X2623806Y2268403D01*
X2640822Y2275451D01*
X2656136Y2285684D01*
X2669159Y2298707D01*
X2679391Y2314021D01*
X2686440Y2331037D01*
X2690033Y2349101D01*
X2690033Y2367519D01*
X2686440Y2385583D01*
X2685923Y2386829D01*
X2705723Y2386829D01*
X2714059Y2395165D01*
X2721744Y2395922D01*
X2731829Y2398981D01*
X2740437Y2403582D01*
X2735835Y2394974D01*
X2735835Y2394974D01*
G37*
X2735835Y2394974D02*
X2732776Y2384889D01*
X2732516Y2382245D01*
X2726962Y2376691D01*
X2724253Y2374468D01*
X2715380Y2363656D01*
X2708787Y2351322D01*
X2704727Y2337938D01*
X2703746Y2327973D01*
X2703357Y2324020D01*
X2703700Y2320533D01*
X2703700Y2304648D01*
X2703357Y2301160D01*
X2703700Y2297673D01*
X2703700Y2297672D01*
X2704727Y2287242D01*
X2708787Y2273858D01*
X2715380Y2261524D01*
X2717514Y2258923D01*
X2605042Y2146451D01*
X2602333Y2144227D01*
X2593460Y2133416D01*
X2586867Y2121082D01*
X2582807Y2107698D01*
X2582138Y2100902D01*
X2581437Y2093780D01*
X2581780Y2090292D01*
X2581780Y1891149D01*
X2523051Y1832420D01*
X2520751Y1832420D01*
X2502687Y1828827D01*
X2485671Y1821779D01*
X2470357Y1811546D01*
X2459467Y1800656D01*
X2448749Y1811374D01*
X2440602Y1818060D01*
X2438748Y1819051D01*
X2437757Y1820905D01*
X2431071Y1829052D01*
X2398603Y1861519D01*
X2395556Y1871741D01*
X2389713Y1882801D01*
X2382151Y1891748D01*
X2359700Y1891748D01*
X2351364Y1883412D01*
X2343679Y1882655D01*
X2333594Y1879596D01*
X2324986Y1874995D01*
X2329588Y1883603D01*
X2332647Y1893688D01*
X2333404Y1901373D01*
X2341740Y1909709D01*
X2341740Y1932159D01*
X2332792Y1939721D01*
X2321733Y1945565D01*
X2311511Y1948612D01*
X2279043Y1981080D01*
X2270897Y1987765D01*
X2269042Y1988756D01*
X2268051Y1990611D01*
X2261366Y1998757D01*
X2222475Y2037648D01*
X2214328Y2044334D01*
X2212474Y2045325D01*
X2211483Y2047179D01*
X2204797Y2055326D01*
X2177403Y2082720D01*
X2204797Y2110114D01*
X2211483Y2118261D01*
X2212474Y2120115D01*
X2214328Y2121106D01*
X2222475Y2127792D01*
X2261366Y2166683D01*
X2268051Y2174829D01*
X2269042Y2176684D01*
X2270897Y2177675D01*
X2279043Y2184360D01*
X2317934Y2223251D01*
X2324620Y2231398D01*
X2325611Y2233252D01*
X2327465Y2234243D01*
X2335612Y2240929D01*
X2367015Y2272332D01*
X2397990Y2241358D01*
X2397990Y2228451D01*
X2401583Y2210387D01*
X2408631Y2193371D01*
X2418864Y2178057D01*
X2431887Y2165034D01*
X2447201Y2154801D01*
X2464217Y2147753D01*
X2482281Y2144160D01*
X2500699Y2144160D01*
X2518763Y2147753D01*
X2535779Y2154801D01*
X2551093Y2165034D01*
X2564116Y2178057D01*
X2574349Y2193371D01*
X2581397Y2210387D01*
X2584990Y2228451D01*
X2584990Y2246869D01*
X2581397Y2264933D01*
X2580920Y2266084D01*
X2587324Y2264810D01*
X2605742Y2264810D01*
X2623806Y2268403D01*
X2640822Y2275451D01*
X2656136Y2285684D01*
X2669159Y2298707D01*
X2679391Y2314021D01*
X2686440Y2331037D01*
X2690033Y2349101D01*
X2690033Y2367519D01*
X2686440Y2385583D01*
X2685923Y2386829D01*
X2705723Y2386829D01*
X2714059Y2395165D01*
X2721744Y2395922D01*
X2731829Y2398981D01*
X2740437Y2403582D01*
X2735835Y2394974D01*
G36*
X1444017Y3228960D02*
G01*
X1461949Y3207109D01*
X1483800Y3189177D01*
X1500665Y3180162D01*
X1501329Y3173422D01*
X1504960Y3161452D01*
X1510856Y3150421D01*
X1518791Y3140751D01*
X1521215Y3138763D01*
X1550327Y3109651D01*
X1552315Y3107228D01*
X1555492Y3104620D01*
X1561985Y3099292D01*
X1570888Y3094533D01*
X1573016Y3093396D01*
X1584986Y3089765D01*
X1594315Y3088846D01*
X1594315Y3088846D01*
X1597434Y3088539D01*
X1600553Y3088846D01*
X2443884Y3088846D01*
X2422798Y3067760D01*
X2409891Y3067760D01*
X2391827Y3064167D01*
X2374811Y3057119D01*
X2359497Y3046886D01*
X2346474Y3033863D01*
X2336241Y3018549D01*
X2329193Y3001533D01*
X2325600Y2983469D01*
X2325600Y2965051D01*
X2329180Y2947056D01*
X2327448Y2947581D01*
X2315000Y2948807D01*
X2268575Y2948500D01*
X2252700Y2932625D01*
X2252700Y2822700D01*
X2254700Y2822700D01*
X2254700Y2797300D01*
X2252700Y2797300D01*
X2252700Y2687375D01*
X2268575Y2671500D01*
X2315000Y2671193D01*
X2327448Y2672419D01*
X2337820Y2675565D01*
X2337820Y2670038D01*
X2337513Y2666920D01*
X2337820Y2663802D01*
X2337820Y2663801D01*
X2338739Y2654472D01*
X2338827Y2654182D01*
X2342370Y2642502D01*
X2348113Y2631757D01*
X2316154Y2599798D01*
X2309468Y2591652D01*
X2308477Y2589797D01*
X2306623Y2588806D01*
X2298476Y2582120D01*
X2267019Y2550663D01*
X2214747Y2602935D01*
X2212759Y2605359D01*
X2203089Y2613294D01*
X2192058Y2619190D01*
X2180088Y2622821D01*
X2170759Y2623740D01*
X2170758Y2623740D01*
X2167640Y2624047D01*
X2164522Y2623740D01*
X1865958Y2623740D01*
X1862840Y2624047D01*
X1859722Y2623740D01*
X1859721Y2623740D01*
X1850392Y2622821D01*
X1839937Y2619650D01*
X1838422Y2619190D01*
X1827390Y2613294D01*
X1822749Y2609485D01*
X1817721Y2605359D01*
X1815733Y2602936D01*
X1677921Y2465124D01*
X1675498Y2463135D01*
X1667562Y2453466D01*
X1661666Y2442434D01*
X1658035Y2430464D01*
X1657116Y2421135D01*
X1657116Y2421134D01*
X1656809Y2418016D01*
X1657116Y2414898D01*
X1657116Y2386604D01*
X1656956Y2386736D01*
X1643340Y2394014D01*
X1631700Y2397545D01*
X1631700Y2567282D01*
X1632007Y2570400D01*
X1631700Y2573518D01*
X1631700Y2573519D01*
X1630781Y2582848D01*
X1627150Y2594818D01*
X1621254Y2605849D01*
X1613318Y2615519D01*
X1610895Y2617507D01*
X1545979Y2682423D01*
X1555573Y2685333D01*
X1564867Y2690301D01*
X1573013Y2696987D01*
X1579699Y2705133D01*
X1584667Y2714427D01*
X1587726Y2724512D01*
X1588759Y2735000D01*
X2101193Y2735000D01*
X2102419Y2722552D01*
X2106050Y2710582D01*
X2111946Y2699551D01*
X2119882Y2689882D01*
X2129551Y2681946D01*
X2140582Y2676050D01*
X2152552Y2672419D01*
X2165000Y2671193D01*
X2211425Y2671500D01*
X2227300Y2687375D01*
X2227300Y2797300D01*
X2117375Y2797300D01*
X2101500Y2781425D01*
X2101193Y2735000D01*
X1588759Y2735000D01*
X1588759Y2885000D01*
X2101193Y2885000D01*
X2101500Y2838575D01*
X2117375Y2822700D01*
X2227300Y2822700D01*
X2227300Y2932625D01*
X2211425Y2948500D01*
X2165000Y2948807D01*
X2152552Y2947581D01*
X2140582Y2943950D01*
X2129551Y2938054D01*
X2119882Y2930118D01*
X2111946Y2920449D01*
X2106050Y2909418D01*
X2102419Y2897448D01*
X2101193Y2885000D01*
X1588759Y2885000D01*
X1587726Y2895488D01*
X1584667Y2905573D01*
X1579699Y2914867D01*
X1573013Y2923013D01*
X1564867Y2929699D01*
X1555573Y2934667D01*
X1545488Y2937726D01*
X1535000Y2938759D01*
X1385000Y2938759D01*
X1374512Y2937726D01*
X1364427Y2934667D01*
X1355133Y2929699D01*
X1346987Y2923013D01*
X1340301Y2914867D01*
X1335333Y2905573D01*
X1332274Y2895488D01*
X1331241Y2885000D01*
X1331241Y2735000D01*
X1332274Y2724512D01*
X1335333Y2714427D01*
X1340301Y2705133D01*
X1346987Y2696987D01*
X1355133Y2690301D01*
X1364427Y2685333D01*
X1374512Y2682274D01*
X1385000Y2681241D01*
X1396453Y2681241D01*
X1396193Y2678600D01*
X1396500Y2675481D01*
X1396500Y2675481D01*
X1397343Y2666920D01*
X1397419Y2666152D01*
X1401050Y2654182D01*
X1406175Y2644593D01*
X1406946Y2643151D01*
X1414882Y2633482D01*
X1417305Y2631493D01*
X1504700Y2544097D01*
X1504700Y2397545D01*
X1493060Y2394014D01*
X1479444Y2386736D01*
X1467509Y2376941D01*
X1457714Y2365006D01*
X1450436Y2351390D01*
X1445954Y2336615D01*
X1444441Y2321250D01*
X1444441Y2256250D01*
X1445954Y2240885D01*
X1450436Y2226110D01*
X1457714Y2212494D01*
X1467509Y2200559D01*
X1479444Y2190764D01*
X1487890Y2186250D01*
X1479444Y2181736D01*
X1467509Y2171941D01*
X1457714Y2160006D01*
X1450436Y2146390D01*
X1445954Y2131615D01*
X1444441Y2116250D01*
X1444441Y2051250D01*
X1445954Y2035885D01*
X1450436Y2021110D01*
X1457714Y2007494D01*
X1467509Y1995559D01*
X1479444Y1985764D01*
X1493060Y1978486D01*
X1497200Y1977230D01*
X1497200Y1976987D01*
X1496856Y1973500D01*
X1497200Y1970012D01*
X1497200Y1970012D01*
X1498227Y1959582D01*
X1502287Y1946198D01*
X1508880Y1933864D01*
X1517752Y1923053D01*
X1520462Y1920829D01*
X1521771Y1919520D01*
X1332875Y1919520D01*
X1332446Y1923885D01*
X1327964Y1938660D01*
X1320686Y1952276D01*
X1317450Y1956219D01*
X1317450Y2081366D01*
X1317951Y2086450D01*
X1317281Y2093254D01*
X1315952Y2106740D01*
X1310034Y2126249D01*
X1305560Y2134619D01*
X1300423Y2144230D01*
X1290730Y2156041D01*
X1287490Y2159990D01*
X1283541Y2163230D01*
X1077157Y2369614D01*
X1096807Y2373523D01*
X1119647Y2382983D01*
X1140202Y2396718D01*
X1157682Y2414198D01*
X1171417Y2434754D01*
X1180877Y2457593D01*
X1185700Y2481839D01*
X1185700Y2506561D01*
X1180877Y2530807D01*
X1171417Y2553647D01*
X1157682Y2574202D01*
X1140202Y2591682D01*
X1123700Y2602708D01*
X1123700Y2874298D01*
X1352606Y3103203D01*
X1355029Y3105191D01*
X1357017Y3107614D01*
X1357017Y3107614D01*
X1362964Y3114861D01*
X1368860Y3125892D01*
X1369308Y3127369D01*
X1372491Y3137862D01*
X1373410Y3147191D01*
X1373410Y3147191D01*
X1373717Y3150310D01*
X1373410Y3153429D01*
X1373410Y3180298D01*
X1390020Y3189177D01*
X1411871Y3207109D01*
X1429803Y3228960D01*
X1436910Y3242256D01*
X1444017Y3228960D01*
X1444017Y3228960D01*
G37*
X1444017Y3228960D02*
X1461949Y3207109D01*
X1483800Y3189177D01*
X1500665Y3180162D01*
X1501329Y3173422D01*
X1504960Y3161452D01*
X1510856Y3150421D01*
X1518791Y3140751D01*
X1521215Y3138763D01*
X1550327Y3109651D01*
X1552315Y3107228D01*
X1555492Y3104620D01*
X1561985Y3099292D01*
X1570888Y3094533D01*
X1573016Y3093396D01*
X1584986Y3089765D01*
X1594315Y3088846D01*
X1594315Y3088846D01*
X1597434Y3088539D01*
X1600553Y3088846D01*
X2443884Y3088846D01*
X2422798Y3067760D01*
X2409891Y3067760D01*
X2391827Y3064167D01*
X2374811Y3057119D01*
X2359497Y3046886D01*
X2346474Y3033863D01*
X2336241Y3018549D01*
X2329193Y3001533D01*
X2325600Y2983469D01*
X2325600Y2965051D01*
X2329180Y2947056D01*
X2327448Y2947581D01*
X2315000Y2948807D01*
X2268575Y2948500D01*
X2252700Y2932625D01*
X2252700Y2822700D01*
X2254700Y2822700D01*
X2254700Y2797300D01*
X2252700Y2797300D01*
X2252700Y2687375D01*
X2268575Y2671500D01*
X2315000Y2671193D01*
X2327448Y2672419D01*
X2337820Y2675565D01*
X2337820Y2670038D01*
X2337513Y2666920D01*
X2337820Y2663802D01*
X2337820Y2663801D01*
X2338739Y2654472D01*
X2338827Y2654182D01*
X2342370Y2642502D01*
X2348113Y2631757D01*
X2316154Y2599798D01*
X2309468Y2591652D01*
X2308477Y2589797D01*
X2306623Y2588806D01*
X2298476Y2582120D01*
X2267019Y2550663D01*
X2214747Y2602935D01*
X2212759Y2605359D01*
X2203089Y2613294D01*
X2192058Y2619190D01*
X2180088Y2622821D01*
X2170759Y2623740D01*
X2170758Y2623740D01*
X2167640Y2624047D01*
X2164522Y2623740D01*
X1865958Y2623740D01*
X1862840Y2624047D01*
X1859722Y2623740D01*
X1859721Y2623740D01*
X1850392Y2622821D01*
X1839937Y2619650D01*
X1838422Y2619190D01*
X1827390Y2613294D01*
X1822749Y2609485D01*
X1817721Y2605359D01*
X1815733Y2602936D01*
X1677921Y2465124D01*
X1675498Y2463135D01*
X1667562Y2453466D01*
X1661666Y2442434D01*
X1658035Y2430464D01*
X1657116Y2421135D01*
X1657116Y2421134D01*
X1656809Y2418016D01*
X1657116Y2414898D01*
X1657116Y2386604D01*
X1656956Y2386736D01*
X1643340Y2394014D01*
X1631700Y2397545D01*
X1631700Y2567282D01*
X1632007Y2570400D01*
X1631700Y2573518D01*
X1631700Y2573519D01*
X1630781Y2582848D01*
X1627150Y2594818D01*
X1621254Y2605849D01*
X1613318Y2615519D01*
X1610895Y2617507D01*
X1545979Y2682423D01*
X1555573Y2685333D01*
X1564867Y2690301D01*
X1573013Y2696987D01*
X1579699Y2705133D01*
X1584667Y2714427D01*
X1587726Y2724512D01*
X1588759Y2735000D01*
X2101193Y2735000D01*
X2102419Y2722552D01*
X2106050Y2710582D01*
X2111946Y2699551D01*
X2119882Y2689882D01*
X2129551Y2681946D01*
X2140582Y2676050D01*
X2152552Y2672419D01*
X2165000Y2671193D01*
X2211425Y2671500D01*
X2227300Y2687375D01*
X2227300Y2797300D01*
X2117375Y2797300D01*
X2101500Y2781425D01*
X2101193Y2735000D01*
X1588759Y2735000D01*
X1588759Y2885000D01*
X2101193Y2885000D01*
X2101500Y2838575D01*
X2117375Y2822700D01*
X2227300Y2822700D01*
X2227300Y2932625D01*
X2211425Y2948500D01*
X2165000Y2948807D01*
X2152552Y2947581D01*
X2140582Y2943950D01*
X2129551Y2938054D01*
X2119882Y2930118D01*
X2111946Y2920449D01*
X2106050Y2909418D01*
X2102419Y2897448D01*
X2101193Y2885000D01*
X1588759Y2885000D01*
X1587726Y2895488D01*
X1584667Y2905573D01*
X1579699Y2914867D01*
X1573013Y2923013D01*
X1564867Y2929699D01*
X1555573Y2934667D01*
X1545488Y2937726D01*
X1535000Y2938759D01*
X1385000Y2938759D01*
X1374512Y2937726D01*
X1364427Y2934667D01*
X1355133Y2929699D01*
X1346987Y2923013D01*
X1340301Y2914867D01*
X1335333Y2905573D01*
X1332274Y2895488D01*
X1331241Y2885000D01*
X1331241Y2735000D01*
X1332274Y2724512D01*
X1335333Y2714427D01*
X1340301Y2705133D01*
X1346987Y2696987D01*
X1355133Y2690301D01*
X1364427Y2685333D01*
X1374512Y2682274D01*
X1385000Y2681241D01*
X1396453Y2681241D01*
X1396193Y2678600D01*
X1396500Y2675481D01*
X1396500Y2675481D01*
X1397343Y2666920D01*
X1397419Y2666152D01*
X1401050Y2654182D01*
X1406175Y2644593D01*
X1406946Y2643151D01*
X1414882Y2633482D01*
X1417305Y2631493D01*
X1504700Y2544097D01*
X1504700Y2397545D01*
X1493060Y2394014D01*
X1479444Y2386736D01*
X1467509Y2376941D01*
X1457714Y2365006D01*
X1450436Y2351390D01*
X1445954Y2336615D01*
X1444441Y2321250D01*
X1444441Y2256250D01*
X1445954Y2240885D01*
X1450436Y2226110D01*
X1457714Y2212494D01*
X1467509Y2200559D01*
X1479444Y2190764D01*
X1487890Y2186250D01*
X1479444Y2181736D01*
X1467509Y2171941D01*
X1457714Y2160006D01*
X1450436Y2146390D01*
X1445954Y2131615D01*
X1444441Y2116250D01*
X1444441Y2051250D01*
X1445954Y2035885D01*
X1450436Y2021110D01*
X1457714Y2007494D01*
X1467509Y1995559D01*
X1479444Y1985764D01*
X1493060Y1978486D01*
X1497200Y1977230D01*
X1497200Y1976987D01*
X1496856Y1973500D01*
X1497200Y1970012D01*
X1497200Y1970012D01*
X1498227Y1959582D01*
X1502287Y1946198D01*
X1508880Y1933864D01*
X1517752Y1923053D01*
X1520462Y1920829D01*
X1521771Y1919520D01*
X1332875Y1919520D01*
X1332446Y1923885D01*
X1327964Y1938660D01*
X1320686Y1952276D01*
X1317450Y1956219D01*
X1317450Y2081366D01*
X1317951Y2086450D01*
X1317281Y2093254D01*
X1315952Y2106740D01*
X1310034Y2126249D01*
X1305560Y2134619D01*
X1300423Y2144230D01*
X1290730Y2156041D01*
X1287490Y2159990D01*
X1283541Y2163230D01*
X1077157Y2369614D01*
X1096807Y2373523D01*
X1119647Y2382983D01*
X1140202Y2396718D01*
X1157682Y2414198D01*
X1171417Y2434754D01*
X1180877Y2457593D01*
X1185700Y2481839D01*
X1185700Y2506561D01*
X1180877Y2530807D01*
X1171417Y2553647D01*
X1157682Y2574202D01*
X1140202Y2591682D01*
X1123700Y2602708D01*
X1123700Y2874298D01*
X1352606Y3103203D01*
X1355029Y3105191D01*
X1357017Y3107614D01*
X1357017Y3107614D01*
X1362964Y3114861D01*
X1368860Y3125892D01*
X1369308Y3127369D01*
X1372491Y3137862D01*
X1373410Y3147191D01*
X1373410Y3147191D01*
X1373717Y3150310D01*
X1373410Y3153429D01*
X1373410Y3180298D01*
X1390020Y3189177D01*
X1411871Y3207109D01*
X1429803Y3228960D01*
X1436910Y3242256D01*
X1444017Y3228960D01*
G36*
X4036390Y2853807D02*
G01*
X4036390Y2409323D01*
X3752968Y2125900D01*
X3143357Y2125900D01*
X3201817Y2184360D01*
X3208503Y2192507D01*
X3213471Y2201801D01*
X3215873Y2209720D01*
X3531579Y2209720D01*
X3587550Y2153750D01*
X3599484Y2143955D01*
X3613101Y2136677D01*
X3627875Y2132195D01*
X3643240Y2130682D01*
X3658605Y2132195D01*
X3673380Y2136677D01*
X3686996Y2143955D01*
X3698931Y2153750D01*
X3744893Y2199712D01*
X3754688Y2211647D01*
X3761966Y2225263D01*
X3766448Y2240038D01*
X3767961Y2255403D01*
X3767614Y2258929D01*
X3775749Y2256461D01*
X3788197Y2255235D01*
X3800645Y2256461D01*
X3812615Y2260092D01*
X3823647Y2265989D01*
X3833316Y2273924D01*
X3853552Y2294594D01*
X3853552Y2317045D01*
X3779358Y2391238D01*
X3777944Y2389824D01*
X3759984Y2407784D01*
X3761398Y2409198D01*
X3797319Y2409198D01*
X3871512Y2335005D01*
X3893963Y2335005D01*
X3914633Y2355241D01*
X3922568Y2364910D01*
X3928465Y2375942D01*
X3932096Y2387911D01*
X3933322Y2400360D01*
X3932096Y2412808D01*
X3928465Y2424778D01*
X3922568Y2435809D01*
X3914633Y2445478D01*
X3885124Y2474553D01*
X3862673Y2474553D01*
X3797319Y2409198D01*
X3761398Y2409198D01*
X3687205Y2483392D01*
X3664754Y2483392D01*
X3644084Y2463156D01*
X3636148Y2453487D01*
X3630252Y2442455D01*
X3626621Y2430485D01*
X3625395Y2418037D01*
X3626621Y2405589D01*
X3629089Y2397454D01*
X3625563Y2397801D01*
X3610198Y2396288D01*
X3602124Y2393839D01*
X3600839Y2395124D01*
X3600839Y2466580D01*
X3600351Y2471536D01*
X3606030Y2482162D01*
X3609661Y2494132D01*
X3610887Y2506580D01*
X3610640Y2523803D01*
X3705165Y2523803D01*
X3705165Y2501352D01*
X3779358Y2427159D01*
X3844713Y2492513D01*
X3844713Y2514964D01*
X3815638Y2544473D01*
X3805969Y2552408D01*
X3794937Y2558305D01*
X3782968Y2561936D01*
X3770520Y2563162D01*
X3758071Y2561936D01*
X3746102Y2558305D01*
X3735070Y2552408D01*
X3725401Y2544473D01*
X3705165Y2523803D01*
X3610640Y2523803D01*
X3610580Y2528005D01*
X3594705Y2543880D01*
X3502280Y2543880D01*
X3502280Y2541880D01*
X3476880Y2541880D01*
X3476880Y2543880D01*
X3474880Y2543880D01*
X3474880Y2569280D01*
X3476880Y2569280D01*
X3476880Y2654205D01*
X3502280Y2654205D01*
X3502280Y2569280D01*
X3594705Y2569280D01*
X3610580Y2585155D01*
X3610887Y2606580D01*
X3609661Y2619028D01*
X3606030Y2630998D01*
X3600134Y2642029D01*
X3592198Y2651699D01*
X3582529Y2659634D01*
X3571498Y2665530D01*
X3559528Y2669161D01*
X3547080Y2670387D01*
X3518155Y2670080D01*
X3502280Y2654205D01*
X3476880Y2654205D01*
X3461005Y2670080D01*
X3432080Y2670387D01*
X3419632Y2669161D01*
X3407662Y2665530D01*
X3396631Y2659634D01*
X3392544Y2656280D01*
X3382568Y2659306D01*
X3372080Y2660339D01*
X3300624Y2660339D01*
X3293047Y2667916D01*
X3296548Y2679458D01*
X3298061Y2694823D01*
X3297714Y2698349D01*
X3305849Y2695881D01*
X3318297Y2694655D01*
X3330745Y2695881D01*
X3342715Y2699512D01*
X3353747Y2705409D01*
X3363416Y2713344D01*
X3383652Y2734014D01*
X3383652Y2756465D01*
X3309458Y2830658D01*
X3308044Y2829244D01*
X3290084Y2847204D01*
X3291498Y2848618D01*
X3327419Y2848618D01*
X3401612Y2774425D01*
X3424063Y2774425D01*
X3444733Y2794661D01*
X3452668Y2804330D01*
X3458565Y2815362D01*
X3462196Y2827331D01*
X3463422Y2839780D01*
X3462196Y2852228D01*
X3458565Y2864197D01*
X3452668Y2875229D01*
X3444733Y2884898D01*
X3415224Y2913973D01*
X3392773Y2913973D01*
X3327419Y2848618D01*
X3291498Y2848618D01*
X3217305Y2922812D01*
X3194854Y2922812D01*
X3174184Y2902576D01*
X3166248Y2892907D01*
X3160352Y2881875D01*
X3156721Y2869905D01*
X3155495Y2857457D01*
X3156721Y2845009D01*
X3159189Y2836874D01*
X3155663Y2837221D01*
X3140298Y2835708D01*
X3125523Y2831226D01*
X3111907Y2823948D01*
X3099972Y2814153D01*
X3054010Y2768191D01*
X3044215Y2756256D01*
X3036937Y2742640D01*
X3032455Y2727866D01*
X3030942Y2712500D01*
X3032455Y2697135D01*
X3036937Y2682361D01*
X3044215Y2668744D01*
X3054010Y2656810D01*
X3109980Y2600840D01*
X3109980Y2410380D01*
X3080902Y2381302D01*
X3056213Y2405992D01*
X3053166Y2416213D01*
X3047322Y2427273D01*
X3039760Y2436220D01*
X3017309Y2436220D01*
X3008973Y2427884D01*
X3001288Y2427127D01*
X2991204Y2424068D01*
X2982596Y2419467D01*
X2987197Y2428075D01*
X2990256Y2438160D01*
X2991013Y2445845D01*
X2999349Y2454181D01*
X2999349Y2476632D01*
X2990402Y2484194D01*
X2979342Y2490037D01*
X2969120Y2493084D01*
X2943075Y2519129D01*
X2940028Y2529350D01*
X2934185Y2540410D01*
X2926623Y2549357D01*
X2904172Y2549357D01*
X2895836Y2541021D01*
X2888151Y2540265D01*
X2878067Y2537205D01*
X2869459Y2532604D01*
X2874060Y2541212D01*
X2877119Y2551297D01*
X2877876Y2558982D01*
X2886212Y2567318D01*
X2886212Y2571789D01*
X2969796Y2655373D01*
X2972218Y2657362D01*
X2974206Y2659784D01*
X2974207Y2659784D01*
X2980154Y2667031D01*
X2986050Y2678062D01*
X2986474Y2679458D01*
X2989681Y2690032D01*
X2990600Y2699361D01*
X2990600Y2699361D01*
X2990907Y2702480D01*
X2990600Y2705599D01*
X2990600Y2905531D01*
X2999726Y2914657D01*
X3009959Y2929971D01*
X3017007Y2946987D01*
X3020236Y2963223D01*
X3235265Y2963223D01*
X3235265Y2940772D01*
X3309458Y2866579D01*
X3374813Y2931933D01*
X3374813Y2954384D01*
X3345738Y2983893D01*
X3336069Y2991828D01*
X3325037Y2997725D01*
X3313068Y3001356D01*
X3300620Y3002582D01*
X3288171Y3001356D01*
X3276202Y2997725D01*
X3265170Y2991828D01*
X3255501Y2983893D01*
X3235265Y2963223D01*
X3020236Y2963223D01*
X3020600Y2965051D01*
X3020600Y2983469D01*
X3017007Y3001533D01*
X3013978Y3008844D01*
X3881353Y3008844D01*
X4036390Y2853807D01*
X4036390Y2853807D01*
G37*
X4036390Y2853807D02*
X4036390Y2409323D01*
X3752968Y2125900D01*
X3143357Y2125900D01*
X3201817Y2184360D01*
X3208503Y2192507D01*
X3213471Y2201801D01*
X3215873Y2209720D01*
X3531579Y2209720D01*
X3587550Y2153750D01*
X3599484Y2143955D01*
X3613101Y2136677D01*
X3627875Y2132195D01*
X3643240Y2130682D01*
X3658605Y2132195D01*
X3673380Y2136677D01*
X3686996Y2143955D01*
X3698931Y2153750D01*
X3744893Y2199712D01*
X3754688Y2211647D01*
X3761966Y2225263D01*
X3766448Y2240038D01*
X3767961Y2255403D01*
X3767614Y2258929D01*
X3775749Y2256461D01*
X3788197Y2255235D01*
X3800645Y2256461D01*
X3812615Y2260092D01*
X3823647Y2265989D01*
X3833316Y2273924D01*
X3853552Y2294594D01*
X3853552Y2317045D01*
X3779358Y2391238D01*
X3777944Y2389824D01*
X3759984Y2407784D01*
X3761398Y2409198D01*
X3797319Y2409198D01*
X3871512Y2335005D01*
X3893963Y2335005D01*
X3914633Y2355241D01*
X3922568Y2364910D01*
X3928465Y2375942D01*
X3932096Y2387911D01*
X3933322Y2400360D01*
X3932096Y2412808D01*
X3928465Y2424778D01*
X3922568Y2435809D01*
X3914633Y2445478D01*
X3885124Y2474553D01*
X3862673Y2474553D01*
X3797319Y2409198D01*
X3761398Y2409198D01*
X3687205Y2483392D01*
X3664754Y2483392D01*
X3644084Y2463156D01*
X3636148Y2453487D01*
X3630252Y2442455D01*
X3626621Y2430485D01*
X3625395Y2418037D01*
X3626621Y2405589D01*
X3629089Y2397454D01*
X3625563Y2397801D01*
X3610198Y2396288D01*
X3602124Y2393839D01*
X3600839Y2395124D01*
X3600839Y2466580D01*
X3600351Y2471536D01*
X3606030Y2482162D01*
X3609661Y2494132D01*
X3610887Y2506580D01*
X3610640Y2523803D01*
X3705165Y2523803D01*
X3705165Y2501352D01*
X3779358Y2427159D01*
X3844713Y2492513D01*
X3844713Y2514964D01*
X3815638Y2544473D01*
X3805969Y2552408D01*
X3794937Y2558305D01*
X3782968Y2561936D01*
X3770520Y2563162D01*
X3758071Y2561936D01*
X3746102Y2558305D01*
X3735070Y2552408D01*
X3725401Y2544473D01*
X3705165Y2523803D01*
X3610640Y2523803D01*
X3610580Y2528005D01*
X3594705Y2543880D01*
X3502280Y2543880D01*
X3502280Y2541880D01*
X3476880Y2541880D01*
X3476880Y2543880D01*
X3474880Y2543880D01*
X3474880Y2569280D01*
X3476880Y2569280D01*
X3476880Y2654205D01*
X3502280Y2654205D01*
X3502280Y2569280D01*
X3594705Y2569280D01*
X3610580Y2585155D01*
X3610887Y2606580D01*
X3609661Y2619028D01*
X3606030Y2630998D01*
X3600134Y2642029D01*
X3592198Y2651699D01*
X3582529Y2659634D01*
X3571498Y2665530D01*
X3559528Y2669161D01*
X3547080Y2670387D01*
X3518155Y2670080D01*
X3502280Y2654205D01*
X3476880Y2654205D01*
X3461005Y2670080D01*
X3432080Y2670387D01*
X3419632Y2669161D01*
X3407662Y2665530D01*
X3396631Y2659634D01*
X3392544Y2656280D01*
X3382568Y2659306D01*
X3372080Y2660339D01*
X3300624Y2660339D01*
X3293047Y2667916D01*
X3296548Y2679458D01*
X3298061Y2694823D01*
X3297714Y2698349D01*
X3305849Y2695881D01*
X3318297Y2694655D01*
X3330745Y2695881D01*
X3342715Y2699512D01*
X3353747Y2705409D01*
X3363416Y2713344D01*
X3383652Y2734014D01*
X3383652Y2756465D01*
X3309458Y2830658D01*
X3308044Y2829244D01*
X3290084Y2847204D01*
X3291498Y2848618D01*
X3327419Y2848618D01*
X3401612Y2774425D01*
X3424063Y2774425D01*
X3444733Y2794661D01*
X3452668Y2804330D01*
X3458565Y2815362D01*
X3462196Y2827331D01*
X3463422Y2839780D01*
X3462196Y2852228D01*
X3458565Y2864197D01*
X3452668Y2875229D01*
X3444733Y2884898D01*
X3415224Y2913973D01*
X3392773Y2913973D01*
X3327419Y2848618D01*
X3291498Y2848618D01*
X3217305Y2922812D01*
X3194854Y2922812D01*
X3174184Y2902576D01*
X3166248Y2892907D01*
X3160352Y2881875D01*
X3156721Y2869905D01*
X3155495Y2857457D01*
X3156721Y2845009D01*
X3159189Y2836874D01*
X3155663Y2837221D01*
X3140298Y2835708D01*
X3125523Y2831226D01*
X3111907Y2823948D01*
X3099972Y2814153D01*
X3054010Y2768191D01*
X3044215Y2756256D01*
X3036937Y2742640D01*
X3032455Y2727866D01*
X3030942Y2712500D01*
X3032455Y2697135D01*
X3036937Y2682361D01*
X3044215Y2668744D01*
X3054010Y2656810D01*
X3109980Y2600840D01*
X3109980Y2410380D01*
X3080902Y2381302D01*
X3056213Y2405992D01*
X3053166Y2416213D01*
X3047322Y2427273D01*
X3039760Y2436220D01*
X3017309Y2436220D01*
X3008973Y2427884D01*
X3001288Y2427127D01*
X2991204Y2424068D01*
X2982596Y2419467D01*
X2987197Y2428075D01*
X2990256Y2438160D01*
X2991013Y2445845D01*
X2999349Y2454181D01*
X2999349Y2476632D01*
X2990402Y2484194D01*
X2979342Y2490037D01*
X2969120Y2493084D01*
X2943075Y2519129D01*
X2940028Y2529350D01*
X2934185Y2540410D01*
X2926623Y2549357D01*
X2904172Y2549357D01*
X2895836Y2541021D01*
X2888151Y2540265D01*
X2878067Y2537205D01*
X2869459Y2532604D01*
X2874060Y2541212D01*
X2877119Y2551297D01*
X2877876Y2558982D01*
X2886212Y2567318D01*
X2886212Y2571789D01*
X2969796Y2655373D01*
X2972218Y2657362D01*
X2974206Y2659784D01*
X2974207Y2659784D01*
X2980154Y2667031D01*
X2986050Y2678062D01*
X2986474Y2679458D01*
X2989681Y2690032D01*
X2990600Y2699361D01*
X2990600Y2699361D01*
X2990907Y2702480D01*
X2990600Y2705599D01*
X2990600Y2905531D01*
X2999726Y2914657D01*
X3009959Y2929971D01*
X3017007Y2946987D01*
X3020236Y2963223D01*
X3235265Y2963223D01*
X3235265Y2940772D01*
X3309458Y2866579D01*
X3374813Y2931933D01*
X3374813Y2954384D01*
X3345738Y2983893D01*
X3336069Y2991828D01*
X3325037Y2997725D01*
X3313068Y3001356D01*
X3300620Y3002582D01*
X3288171Y3001356D01*
X3276202Y2997725D01*
X3265170Y2991828D01*
X3255501Y2983893D01*
X3235265Y2963223D01*
X3020236Y2963223D01*
X3020600Y2965051D01*
X3020600Y2983469D01*
X3017007Y3001533D01*
X3013978Y3008844D01*
X3881353Y3008844D01*
X4036390Y2853807D01*
G36*
X3327280Y2429280D02*
G01*
X3329280Y2429280D01*
X3329280Y2403880D01*
X3327280Y2403880D01*
X3327280Y2401880D01*
X3301880Y2401880D01*
X3301880Y2403880D01*
X3299880Y2403880D01*
X3299880Y2429280D01*
X3301880Y2429280D01*
X3301880Y2431280D01*
X3327280Y2431280D01*
X3327280Y2429280D01*
X3327280Y2429280D01*
G37*
X3327280Y2429280D02*
X3329280Y2429280D01*
X3329280Y2403880D01*
X3327280Y2403880D01*
X3327280Y2401880D01*
X3301880Y2401880D01*
X3301880Y2403880D01*
X3299880Y2403880D01*
X3299880Y2429280D01*
X3301880Y2429280D01*
X3301880Y2431280D01*
X3327280Y2431280D01*
X3327280Y2429280D01*
M02*
