G04 #@! TF.GenerationSoftware,KiCad,Pcbnew,(5.1.0)-1*
G04 #@! TF.CreationDate,2022-04-18T23:31:18-07:00*
G04 #@! TF.ProjectId,1602A_LCD Serial Backpack,31363032-415f-44c4-9344-205365726961,rev?*
G04 #@! TF.SameCoordinates,PX660b0c0PY66ff300*
G04 #@! TF.FileFunction,Paste,Bot*
G04 #@! TF.FilePolarity,Positive*
%FSLAX45Y45*%
G04 Gerber Fmt 4.5, Leading zero omitted, Abs format (unit mm)*
G04 Created by KiCad (PCBNEW (5.1.0)-1) date 2022-04-18 23:31:18*
%MOMM*%
%LPD*%
G04 APERTURE LIST*
%ADD10C,0.100000*%
%ADD11C,1.150000*%
%ADD12C,1.425000*%
%ADD13C,1.325000*%
%ADD14R,1.200000X2.200000*%
%ADD15R,2.750000X3.050000*%
%ADD16R,2.500000X1.800000*%
%ADD17R,0.900000X0.800000*%
%ADD18C,0.550000*%
%ADD19R,1.150000X1.000000*%
%ADD20R,1.500000X1.500000*%
%ADD21R,1.700000X1.300000*%
%ADD22R,0.600000X1.500000*%
G04 APERTURE END LIST*
D10*
G36*
X5717950Y1509800D02*
G01*
X5720377Y1509440D01*
X5722757Y1508843D01*
X5725067Y1508017D01*
X5727285Y1506968D01*
X5729389Y1505707D01*
X5731360Y1504245D01*
X5733178Y1502598D01*
X5734825Y1500780D01*
X5736287Y1498809D01*
X5737548Y1496705D01*
X5738597Y1494487D01*
X5739423Y1492177D01*
X5740020Y1489797D01*
X5740380Y1487370D01*
X5740500Y1484920D01*
X5740500Y1394920D01*
X5740380Y1392470D01*
X5740020Y1390043D01*
X5739423Y1387663D01*
X5738597Y1385353D01*
X5737548Y1383135D01*
X5736287Y1381031D01*
X5734825Y1379060D01*
X5733178Y1377242D01*
X5731360Y1375595D01*
X5729389Y1374133D01*
X5727285Y1372872D01*
X5725067Y1371823D01*
X5722757Y1370997D01*
X5720377Y1370400D01*
X5717950Y1370040D01*
X5715500Y1369920D01*
X5650500Y1369920D01*
X5648049Y1370040D01*
X5645623Y1370400D01*
X5643243Y1370997D01*
X5640933Y1371823D01*
X5638715Y1372872D01*
X5636611Y1374133D01*
X5634640Y1375595D01*
X5632822Y1377242D01*
X5631175Y1379060D01*
X5629713Y1381031D01*
X5628452Y1383135D01*
X5627403Y1385353D01*
X5626576Y1387663D01*
X5625980Y1390043D01*
X5625620Y1392470D01*
X5625500Y1394920D01*
X5625500Y1484920D01*
X5625620Y1487370D01*
X5625980Y1489797D01*
X5626576Y1492177D01*
X5627403Y1494487D01*
X5628452Y1496705D01*
X5629713Y1498809D01*
X5631175Y1500780D01*
X5632822Y1502598D01*
X5634640Y1504245D01*
X5636611Y1505707D01*
X5638715Y1506968D01*
X5640933Y1508017D01*
X5643243Y1508843D01*
X5645623Y1509440D01*
X5648049Y1509800D01*
X5650500Y1509920D01*
X5715500Y1509920D01*
X5717950Y1509800D01*
X5717950Y1509800D01*
G37*
D11*
X5683000Y1439920D03*
D10*
G36*
X5512951Y1509800D02*
G01*
X5515377Y1509440D01*
X5517757Y1508843D01*
X5520067Y1508017D01*
X5522285Y1506968D01*
X5524389Y1505707D01*
X5526360Y1504245D01*
X5528178Y1502598D01*
X5529825Y1500780D01*
X5531287Y1498809D01*
X5532548Y1496705D01*
X5533597Y1494487D01*
X5534424Y1492177D01*
X5535020Y1489797D01*
X5535380Y1487370D01*
X5535500Y1484920D01*
X5535500Y1394920D01*
X5535380Y1392470D01*
X5535020Y1390043D01*
X5534424Y1387663D01*
X5533597Y1385353D01*
X5532548Y1383135D01*
X5531287Y1381031D01*
X5529825Y1379060D01*
X5528178Y1377242D01*
X5526360Y1375595D01*
X5524389Y1374133D01*
X5522285Y1372872D01*
X5520067Y1371823D01*
X5517757Y1370997D01*
X5515377Y1370400D01*
X5512951Y1370040D01*
X5510500Y1369920D01*
X5445500Y1369920D01*
X5443050Y1370040D01*
X5440623Y1370400D01*
X5438243Y1370997D01*
X5435933Y1371823D01*
X5433715Y1372872D01*
X5431611Y1374133D01*
X5429640Y1375595D01*
X5427822Y1377242D01*
X5426175Y1379060D01*
X5424713Y1381031D01*
X5423452Y1383135D01*
X5422403Y1385353D01*
X5421577Y1387663D01*
X5420980Y1390043D01*
X5420620Y1392470D01*
X5420500Y1394920D01*
X5420500Y1484920D01*
X5420620Y1487370D01*
X5420980Y1489797D01*
X5421577Y1492177D01*
X5422403Y1494487D01*
X5423452Y1496705D01*
X5424713Y1498809D01*
X5426175Y1500780D01*
X5427822Y1502598D01*
X5429640Y1504245D01*
X5431611Y1505707D01*
X5433715Y1506968D01*
X5435933Y1508017D01*
X5438243Y1508843D01*
X5440623Y1509440D01*
X5443050Y1509800D01*
X5445500Y1509920D01*
X5510500Y1509920D01*
X5512951Y1509800D01*
X5512951Y1509800D01*
G37*
D11*
X5478000Y1439920D03*
D10*
G36*
X5209951Y3047780D02*
G01*
X5212377Y3047420D01*
X5214757Y3046823D01*
X5217067Y3045997D01*
X5219285Y3044948D01*
X5221389Y3043687D01*
X5223360Y3042225D01*
X5225178Y3040578D01*
X5226825Y3038760D01*
X5228287Y3036789D01*
X5229548Y3034685D01*
X5230597Y3032467D01*
X5231424Y3030157D01*
X5232020Y3027777D01*
X5232380Y3025350D01*
X5232500Y3022900D01*
X5232500Y2932900D01*
X5232380Y2930449D01*
X5232020Y2928023D01*
X5231424Y2925643D01*
X5230597Y2923333D01*
X5229548Y2921115D01*
X5228287Y2919011D01*
X5226825Y2917040D01*
X5225178Y2915222D01*
X5223360Y2913575D01*
X5221389Y2912113D01*
X5219285Y2910852D01*
X5217067Y2909803D01*
X5214757Y2908976D01*
X5212377Y2908380D01*
X5209951Y2908020D01*
X5207500Y2907900D01*
X5142500Y2907900D01*
X5140050Y2908020D01*
X5137623Y2908380D01*
X5135243Y2908976D01*
X5132933Y2909803D01*
X5130715Y2910852D01*
X5128611Y2912113D01*
X5126640Y2913575D01*
X5124822Y2915222D01*
X5123175Y2917040D01*
X5121713Y2919011D01*
X5120452Y2921115D01*
X5119403Y2923333D01*
X5118577Y2925643D01*
X5117980Y2928023D01*
X5117620Y2930449D01*
X5117500Y2932900D01*
X5117500Y3022900D01*
X5117620Y3025350D01*
X5117980Y3027777D01*
X5118577Y3030157D01*
X5119403Y3032467D01*
X5120452Y3034685D01*
X5121713Y3036789D01*
X5123175Y3038760D01*
X5124822Y3040578D01*
X5126640Y3042225D01*
X5128611Y3043687D01*
X5130715Y3044948D01*
X5132933Y3045997D01*
X5135243Y3046823D01*
X5137623Y3047420D01*
X5140050Y3047780D01*
X5142500Y3047900D01*
X5207500Y3047900D01*
X5209951Y3047780D01*
X5209951Y3047780D01*
G37*
D11*
X5175000Y2977900D03*
D10*
G36*
X5414951Y3047780D02*
G01*
X5417377Y3047420D01*
X5419757Y3046823D01*
X5422067Y3045997D01*
X5424285Y3044948D01*
X5426389Y3043687D01*
X5428360Y3042225D01*
X5430178Y3040578D01*
X5431825Y3038760D01*
X5433287Y3036789D01*
X5434548Y3034685D01*
X5435597Y3032467D01*
X5436424Y3030157D01*
X5437020Y3027777D01*
X5437380Y3025350D01*
X5437500Y3022900D01*
X5437500Y2932900D01*
X5437380Y2930449D01*
X5437020Y2928023D01*
X5436424Y2925643D01*
X5435597Y2923333D01*
X5434548Y2921115D01*
X5433287Y2919011D01*
X5431825Y2917040D01*
X5430178Y2915222D01*
X5428360Y2913575D01*
X5426389Y2912113D01*
X5424285Y2910852D01*
X5422067Y2909803D01*
X5419757Y2908976D01*
X5417377Y2908380D01*
X5414951Y2908020D01*
X5412500Y2907900D01*
X5347500Y2907900D01*
X5345050Y2908020D01*
X5342623Y2908380D01*
X5340243Y2908976D01*
X5337933Y2909803D01*
X5335715Y2910852D01*
X5333611Y2912113D01*
X5331640Y2913575D01*
X5329822Y2915222D01*
X5328175Y2917040D01*
X5326713Y2919011D01*
X5325452Y2921115D01*
X5324403Y2923333D01*
X5323577Y2925643D01*
X5322980Y2928023D01*
X5322620Y2930449D01*
X5322500Y2932900D01*
X5322500Y3022900D01*
X5322620Y3025350D01*
X5322980Y3027777D01*
X5323577Y3030157D01*
X5324403Y3032467D01*
X5325452Y3034685D01*
X5326713Y3036789D01*
X5328175Y3038760D01*
X5329822Y3040578D01*
X5331640Y3042225D01*
X5333611Y3043687D01*
X5335715Y3044948D01*
X5337933Y3045997D01*
X5340243Y3046823D01*
X5342623Y3047420D01*
X5345050Y3047780D01*
X5347500Y3047900D01*
X5412500Y3047900D01*
X5414951Y3047780D01*
X5414951Y3047780D01*
G37*
D11*
X5380000Y2977900D03*
D10*
G36*
X4422860Y3095080D02*
G01*
X4425287Y3094720D01*
X4427667Y3094123D01*
X4429977Y3093297D01*
X4432195Y3092248D01*
X4434299Y3090987D01*
X4436270Y3089525D01*
X4438088Y3087878D01*
X4439735Y3086060D01*
X4441197Y3084089D01*
X4442458Y3081985D01*
X4443507Y3079767D01*
X4444334Y3077457D01*
X4444930Y3075077D01*
X4445290Y3072650D01*
X4445410Y3070200D01*
X4445410Y2977700D01*
X4445290Y2975250D01*
X4444930Y2972823D01*
X4444334Y2970443D01*
X4443507Y2968133D01*
X4442458Y2965915D01*
X4441197Y2963811D01*
X4439735Y2961840D01*
X4438088Y2960022D01*
X4436270Y2958375D01*
X4434299Y2956913D01*
X4432195Y2955652D01*
X4429977Y2954603D01*
X4427667Y2953776D01*
X4425287Y2953180D01*
X4422860Y2952820D01*
X4420410Y2952700D01*
X4295410Y2952700D01*
X4292960Y2952820D01*
X4290533Y2953180D01*
X4288153Y2953776D01*
X4285843Y2954603D01*
X4283625Y2955652D01*
X4281521Y2956913D01*
X4279550Y2958375D01*
X4277732Y2960022D01*
X4276085Y2961840D01*
X4274623Y2963811D01*
X4273362Y2965915D01*
X4272313Y2968133D01*
X4271487Y2970443D01*
X4270890Y2972823D01*
X4270530Y2975250D01*
X4270410Y2977700D01*
X4270410Y3070200D01*
X4270530Y3072650D01*
X4270890Y3075077D01*
X4271487Y3077457D01*
X4272313Y3079767D01*
X4273362Y3081985D01*
X4274623Y3084089D01*
X4276085Y3086060D01*
X4277732Y3087878D01*
X4279550Y3089525D01*
X4281521Y3090987D01*
X4283625Y3092248D01*
X4285843Y3093297D01*
X4288153Y3094123D01*
X4290533Y3094720D01*
X4292960Y3095080D01*
X4295410Y3095200D01*
X4420410Y3095200D01*
X4422860Y3095080D01*
X4422860Y3095080D01*
G37*
D12*
X4357910Y3023950D03*
D10*
G36*
X4422860Y2797580D02*
G01*
X4425287Y2797220D01*
X4427667Y2796623D01*
X4429977Y2795797D01*
X4432195Y2794748D01*
X4434299Y2793487D01*
X4436270Y2792025D01*
X4438088Y2790378D01*
X4439735Y2788560D01*
X4441197Y2786589D01*
X4442458Y2784485D01*
X4443507Y2782267D01*
X4444334Y2779957D01*
X4444930Y2777577D01*
X4445290Y2775150D01*
X4445410Y2772700D01*
X4445410Y2680200D01*
X4445290Y2677750D01*
X4444930Y2675323D01*
X4444334Y2672943D01*
X4443507Y2670633D01*
X4442458Y2668415D01*
X4441197Y2666311D01*
X4439735Y2664340D01*
X4438088Y2662522D01*
X4436270Y2660875D01*
X4434299Y2659413D01*
X4432195Y2658152D01*
X4429977Y2657103D01*
X4427667Y2656277D01*
X4425287Y2655680D01*
X4422860Y2655320D01*
X4420410Y2655200D01*
X4295410Y2655200D01*
X4292960Y2655320D01*
X4290533Y2655680D01*
X4288153Y2656277D01*
X4285843Y2657103D01*
X4283625Y2658152D01*
X4281521Y2659413D01*
X4279550Y2660875D01*
X4277732Y2662522D01*
X4276085Y2664340D01*
X4274623Y2666311D01*
X4273362Y2668415D01*
X4272313Y2670633D01*
X4271487Y2672943D01*
X4270890Y2675323D01*
X4270530Y2677750D01*
X4270410Y2680200D01*
X4270410Y2772700D01*
X4270530Y2775150D01*
X4270890Y2777577D01*
X4271487Y2779957D01*
X4272313Y2782267D01*
X4273362Y2784485D01*
X4274623Y2786589D01*
X4276085Y2788560D01*
X4277732Y2790378D01*
X4279550Y2792025D01*
X4281521Y2793487D01*
X4283625Y2794748D01*
X4285843Y2795797D01*
X4288153Y2796623D01*
X4290533Y2797220D01*
X4292960Y2797580D01*
X4295410Y2797700D01*
X4420410Y2797700D01*
X4422860Y2797580D01*
X4422860Y2797580D01*
G37*
D12*
X4357910Y2726450D03*
D10*
G36*
X1257651Y1933400D02*
G01*
X1260077Y1933040D01*
X1262457Y1932443D01*
X1264767Y1931617D01*
X1266985Y1930568D01*
X1269089Y1929307D01*
X1271060Y1927845D01*
X1272878Y1926198D01*
X1274525Y1924380D01*
X1275987Y1922409D01*
X1277248Y1920305D01*
X1278297Y1918087D01*
X1279124Y1915777D01*
X1279720Y1913397D01*
X1280080Y1910970D01*
X1280200Y1908520D01*
X1280200Y1723520D01*
X1280080Y1721069D01*
X1279720Y1718643D01*
X1279124Y1716263D01*
X1278297Y1713953D01*
X1277248Y1711735D01*
X1275987Y1709631D01*
X1274525Y1707660D01*
X1272878Y1705842D01*
X1271060Y1704195D01*
X1269089Y1702733D01*
X1266985Y1701472D01*
X1264767Y1700423D01*
X1262457Y1699596D01*
X1260077Y1699000D01*
X1257651Y1698640D01*
X1255200Y1698520D01*
X1172700Y1698520D01*
X1170250Y1698640D01*
X1167823Y1699000D01*
X1165443Y1699596D01*
X1163133Y1700423D01*
X1160915Y1701472D01*
X1158811Y1702733D01*
X1156840Y1704195D01*
X1155022Y1705842D01*
X1153375Y1707660D01*
X1151913Y1709631D01*
X1150652Y1711735D01*
X1149603Y1713953D01*
X1148777Y1716263D01*
X1148180Y1718643D01*
X1147820Y1721069D01*
X1147700Y1723520D01*
X1147700Y1908520D01*
X1147820Y1910970D01*
X1148180Y1913397D01*
X1148777Y1915777D01*
X1149603Y1918087D01*
X1150652Y1920305D01*
X1151913Y1922409D01*
X1153375Y1924380D01*
X1155022Y1926198D01*
X1156840Y1927845D01*
X1158811Y1929307D01*
X1160915Y1930568D01*
X1163133Y1931617D01*
X1165443Y1932443D01*
X1167823Y1933040D01*
X1170250Y1933400D01*
X1172700Y1933520D01*
X1255200Y1933520D01*
X1257651Y1933400D01*
X1257651Y1933400D01*
G37*
D13*
X1213950Y1816020D03*
D10*
G36*
X950150Y1933400D02*
G01*
X952577Y1933040D01*
X954957Y1932443D01*
X957267Y1931617D01*
X959485Y1930568D01*
X961589Y1929307D01*
X963560Y1927845D01*
X965378Y1926198D01*
X967025Y1924380D01*
X968487Y1922409D01*
X969748Y1920305D01*
X970797Y1918087D01*
X971623Y1915777D01*
X972220Y1913397D01*
X972580Y1910970D01*
X972700Y1908520D01*
X972700Y1723520D01*
X972580Y1721069D01*
X972220Y1718643D01*
X971623Y1716263D01*
X970797Y1713953D01*
X969748Y1711735D01*
X968487Y1709631D01*
X967025Y1707660D01*
X965378Y1705842D01*
X963560Y1704195D01*
X961589Y1702733D01*
X959485Y1701472D01*
X957267Y1700423D01*
X954957Y1699596D01*
X952577Y1699000D01*
X950150Y1698640D01*
X947700Y1698520D01*
X865200Y1698520D01*
X862749Y1698640D01*
X860323Y1699000D01*
X857943Y1699596D01*
X855633Y1700423D01*
X853415Y1701472D01*
X851311Y1702733D01*
X849340Y1704195D01*
X847522Y1705842D01*
X845875Y1707660D01*
X844413Y1709631D01*
X843152Y1711735D01*
X842103Y1713953D01*
X841276Y1716263D01*
X840680Y1718643D01*
X840320Y1721069D01*
X840200Y1723520D01*
X840200Y1908520D01*
X840320Y1910970D01*
X840680Y1913397D01*
X841276Y1915777D01*
X842103Y1918087D01*
X843152Y1920305D01*
X844413Y1922409D01*
X845875Y1924380D01*
X847522Y1926198D01*
X849340Y1927845D01*
X851311Y1929307D01*
X853415Y1930568D01*
X855633Y1931617D01*
X857943Y1932443D01*
X860323Y1933040D01*
X862749Y1933400D01*
X865200Y1933520D01*
X947700Y1933520D01*
X950150Y1933400D01*
X950150Y1933400D01*
G37*
D13*
X906450Y1816020D03*
D14*
X1434250Y664500D03*
X978250Y664500D03*
D15*
X1053750Y1462000D03*
X1358750Y1127000D03*
X1358750Y1462000D03*
X1053750Y1127000D03*
D10*
G36*
X4828951Y3047780D02*
G01*
X4831377Y3047420D01*
X4833757Y3046823D01*
X4836067Y3045997D01*
X4838285Y3044948D01*
X4840389Y3043687D01*
X4842360Y3042225D01*
X4844178Y3040578D01*
X4845825Y3038760D01*
X4847287Y3036789D01*
X4848548Y3034685D01*
X4849597Y3032467D01*
X4850424Y3030157D01*
X4851020Y3027777D01*
X4851380Y3025350D01*
X4851500Y3022900D01*
X4851500Y2932900D01*
X4851380Y2930449D01*
X4851020Y2928023D01*
X4850424Y2925643D01*
X4849597Y2923333D01*
X4848548Y2921115D01*
X4847287Y2919011D01*
X4845825Y2917040D01*
X4844178Y2915222D01*
X4842360Y2913575D01*
X4840389Y2912113D01*
X4838285Y2910852D01*
X4836067Y2909803D01*
X4833757Y2908976D01*
X4831377Y2908380D01*
X4828951Y2908020D01*
X4826500Y2907900D01*
X4761500Y2907900D01*
X4759050Y2908020D01*
X4756623Y2908380D01*
X4754243Y2908976D01*
X4751933Y2909803D01*
X4749715Y2910852D01*
X4747611Y2912113D01*
X4745640Y2913575D01*
X4743822Y2915222D01*
X4742175Y2917040D01*
X4740713Y2919011D01*
X4739452Y2921115D01*
X4738403Y2923333D01*
X4737577Y2925643D01*
X4736980Y2928023D01*
X4736620Y2930449D01*
X4736500Y2932900D01*
X4736500Y3022900D01*
X4736620Y3025350D01*
X4736980Y3027777D01*
X4737577Y3030157D01*
X4738403Y3032467D01*
X4739452Y3034685D01*
X4740713Y3036789D01*
X4742175Y3038760D01*
X4743822Y3040578D01*
X4745640Y3042225D01*
X4747611Y3043687D01*
X4749715Y3044948D01*
X4751933Y3045997D01*
X4754243Y3046823D01*
X4756623Y3047420D01*
X4759050Y3047780D01*
X4761500Y3047900D01*
X4826500Y3047900D01*
X4828951Y3047780D01*
X4828951Y3047780D01*
G37*
D11*
X4794000Y2977900D03*
D10*
G36*
X5033951Y3047780D02*
G01*
X5036377Y3047420D01*
X5038757Y3046823D01*
X5041067Y3045997D01*
X5043285Y3044948D01*
X5045389Y3043687D01*
X5047360Y3042225D01*
X5049178Y3040578D01*
X5050825Y3038760D01*
X5052287Y3036789D01*
X5053548Y3034685D01*
X5054597Y3032467D01*
X5055424Y3030157D01*
X5056020Y3027777D01*
X5056380Y3025350D01*
X5056500Y3022900D01*
X5056500Y2932900D01*
X5056380Y2930449D01*
X5056020Y2928023D01*
X5055424Y2925643D01*
X5054597Y2923333D01*
X5053548Y2921115D01*
X5052287Y2919011D01*
X5050825Y2917040D01*
X5049178Y2915222D01*
X5047360Y2913575D01*
X5045389Y2912113D01*
X5043285Y2910852D01*
X5041067Y2909803D01*
X5038757Y2908976D01*
X5036377Y2908380D01*
X5033951Y2908020D01*
X5031500Y2907900D01*
X4966500Y2907900D01*
X4964050Y2908020D01*
X4961623Y2908380D01*
X4959243Y2908976D01*
X4956933Y2909803D01*
X4954715Y2910852D01*
X4952611Y2912113D01*
X4950640Y2913575D01*
X4948822Y2915222D01*
X4947175Y2917040D01*
X4945713Y2919011D01*
X4944452Y2921115D01*
X4943403Y2923333D01*
X4942577Y2925643D01*
X4941980Y2928023D01*
X4941620Y2930449D01*
X4941500Y2932900D01*
X4941500Y3022900D01*
X4941620Y3025350D01*
X4941980Y3027777D01*
X4942577Y3030157D01*
X4943403Y3032467D01*
X4944452Y3034685D01*
X4945713Y3036789D01*
X4947175Y3038760D01*
X4948822Y3040578D01*
X4950640Y3042225D01*
X4952611Y3043687D01*
X4954715Y3044948D01*
X4956933Y3045997D01*
X4959243Y3046823D01*
X4961623Y3047420D01*
X4964050Y3047780D01*
X4966500Y3047900D01*
X5031500Y3047900D01*
X5033951Y3047780D01*
X5033951Y3047780D01*
G37*
D11*
X4999000Y2977900D03*
D10*
G36*
X2213131Y1472879D02*
G01*
X2215558Y1472519D01*
X2217938Y1471923D01*
X2220247Y1471096D01*
X2222465Y1470047D01*
X2224570Y1468786D01*
X2226540Y1467324D01*
X2228358Y1465677D01*
X2274320Y1419715D01*
X2275968Y1417897D01*
X2277429Y1415926D01*
X2278690Y1413822D01*
X2279739Y1411604D01*
X2280566Y1409294D01*
X2281162Y1406914D01*
X2281522Y1404488D01*
X2281642Y1402037D01*
X2281522Y1399587D01*
X2281162Y1397160D01*
X2280566Y1394780D01*
X2279739Y1392470D01*
X2278690Y1390252D01*
X2277429Y1388148D01*
X2275968Y1386177D01*
X2274320Y1384360D01*
X2210680Y1320720D01*
X2208863Y1319072D01*
X2206892Y1317611D01*
X2204788Y1316350D01*
X2202570Y1315301D01*
X2200260Y1314474D01*
X2197880Y1313878D01*
X2195453Y1313518D01*
X2193003Y1313398D01*
X2190552Y1313518D01*
X2188126Y1313878D01*
X2185746Y1314474D01*
X2183436Y1315301D01*
X2181218Y1316350D01*
X2179114Y1317611D01*
X2177143Y1319072D01*
X2175325Y1320720D01*
X2129363Y1366682D01*
X2127716Y1368500D01*
X2126254Y1370470D01*
X2124993Y1372575D01*
X2123944Y1374793D01*
X2123117Y1377103D01*
X2122521Y1379482D01*
X2122161Y1381909D01*
X2122041Y1384360D01*
X2122161Y1386810D01*
X2122521Y1389237D01*
X2123117Y1391617D01*
X2123944Y1393927D01*
X2124993Y1396145D01*
X2126254Y1398249D01*
X2127716Y1400219D01*
X2129363Y1402037D01*
X2193003Y1465677D01*
X2194821Y1467324D01*
X2196791Y1468786D01*
X2198896Y1470047D01*
X2201113Y1471096D01*
X2203423Y1471923D01*
X2205803Y1472519D01*
X2208230Y1472879D01*
X2210680Y1472999D01*
X2213131Y1472879D01*
X2213131Y1472879D01*
G37*
D11*
X2201842Y1393198D03*
D10*
G36*
X2358088Y1327922D02*
G01*
X2360514Y1327562D01*
X2362894Y1326966D01*
X2365204Y1326139D01*
X2367422Y1325090D01*
X2369526Y1323829D01*
X2371497Y1322368D01*
X2373315Y1320720D01*
X2419277Y1274758D01*
X2420925Y1272940D01*
X2422386Y1270970D01*
X2423647Y1268865D01*
X2424696Y1266647D01*
X2425523Y1264338D01*
X2426119Y1261958D01*
X2426479Y1259531D01*
X2426599Y1257080D01*
X2426479Y1254630D01*
X2426119Y1252203D01*
X2425523Y1249823D01*
X2424696Y1247513D01*
X2423647Y1245296D01*
X2422386Y1243191D01*
X2420925Y1241221D01*
X2419277Y1239403D01*
X2355637Y1175763D01*
X2353819Y1174116D01*
X2351849Y1172654D01*
X2349745Y1171393D01*
X2347527Y1170344D01*
X2345217Y1169517D01*
X2342837Y1168921D01*
X2340410Y1168561D01*
X2337960Y1168441D01*
X2335509Y1168561D01*
X2333082Y1168921D01*
X2330703Y1169517D01*
X2328393Y1170344D01*
X2326175Y1171393D01*
X2324070Y1172654D01*
X2322100Y1174116D01*
X2320282Y1175763D01*
X2274320Y1221725D01*
X2272672Y1223543D01*
X2271211Y1225514D01*
X2269950Y1227618D01*
X2268901Y1229836D01*
X2268074Y1232146D01*
X2267478Y1234526D01*
X2267118Y1236952D01*
X2266998Y1239403D01*
X2267118Y1241853D01*
X2267478Y1244280D01*
X2268074Y1246660D01*
X2268901Y1248970D01*
X2269950Y1251188D01*
X2271211Y1253292D01*
X2272672Y1255263D01*
X2274320Y1257080D01*
X2337960Y1320720D01*
X2339777Y1322368D01*
X2341748Y1323829D01*
X2343852Y1325090D01*
X2346070Y1326139D01*
X2348380Y1326966D01*
X2350760Y1327562D01*
X2353187Y1327922D01*
X2355637Y1328042D01*
X2358088Y1327922D01*
X2358088Y1327922D01*
G37*
D11*
X2346798Y1248242D03*
D10*
G36*
X1481700Y479840D02*
G01*
X1484127Y479480D01*
X1486507Y478883D01*
X1488817Y478057D01*
X1491035Y477008D01*
X1493139Y475747D01*
X1495110Y474285D01*
X1496928Y472638D01*
X1498575Y470820D01*
X1500037Y468849D01*
X1501298Y466745D01*
X1502347Y464527D01*
X1503173Y462217D01*
X1503770Y459837D01*
X1504130Y457410D01*
X1504250Y454960D01*
X1504250Y389960D01*
X1504130Y387509D01*
X1503770Y385083D01*
X1503173Y382703D01*
X1502347Y380393D01*
X1501298Y378175D01*
X1500037Y376071D01*
X1498575Y374100D01*
X1496928Y372282D01*
X1495110Y370635D01*
X1493139Y369173D01*
X1491035Y367912D01*
X1488817Y366863D01*
X1486507Y366036D01*
X1484127Y365440D01*
X1481700Y365080D01*
X1479250Y364960D01*
X1389250Y364960D01*
X1386800Y365080D01*
X1384373Y365440D01*
X1381993Y366036D01*
X1379683Y366863D01*
X1377465Y367912D01*
X1375361Y369173D01*
X1373390Y370635D01*
X1371572Y372282D01*
X1369925Y374100D01*
X1368463Y376071D01*
X1367202Y378175D01*
X1366153Y380393D01*
X1365327Y382703D01*
X1364730Y385083D01*
X1364370Y387509D01*
X1364250Y389960D01*
X1364250Y454960D01*
X1364370Y457410D01*
X1364730Y459837D01*
X1365327Y462217D01*
X1366153Y464527D01*
X1367202Y466745D01*
X1368463Y468849D01*
X1369925Y470820D01*
X1371572Y472638D01*
X1373390Y474285D01*
X1375361Y475747D01*
X1377465Y477008D01*
X1379683Y478057D01*
X1381993Y478883D01*
X1384373Y479480D01*
X1386800Y479840D01*
X1389250Y479960D01*
X1479250Y479960D01*
X1481700Y479840D01*
X1481700Y479840D01*
G37*
D11*
X1434250Y422460D03*
D10*
G36*
X1481700Y274840D02*
G01*
X1484127Y274480D01*
X1486507Y273884D01*
X1488817Y273057D01*
X1491035Y272008D01*
X1493139Y270747D01*
X1495110Y269285D01*
X1496928Y267638D01*
X1498575Y265820D01*
X1500037Y263849D01*
X1501298Y261745D01*
X1502347Y259527D01*
X1503173Y257217D01*
X1503770Y254837D01*
X1504130Y252410D01*
X1504250Y249960D01*
X1504250Y184960D01*
X1504130Y182509D01*
X1503770Y180083D01*
X1503173Y177703D01*
X1502347Y175393D01*
X1501298Y173175D01*
X1500037Y171071D01*
X1498575Y169100D01*
X1496928Y167282D01*
X1495110Y165635D01*
X1493139Y164173D01*
X1491035Y162912D01*
X1488817Y161863D01*
X1486507Y161037D01*
X1484127Y160440D01*
X1481700Y160080D01*
X1479250Y159960D01*
X1389250Y159960D01*
X1386800Y160080D01*
X1384373Y160440D01*
X1381993Y161037D01*
X1379683Y161863D01*
X1377465Y162912D01*
X1375361Y164173D01*
X1373390Y165635D01*
X1371572Y167282D01*
X1369925Y169100D01*
X1368463Y171071D01*
X1367202Y173175D01*
X1366153Y175393D01*
X1365327Y177703D01*
X1364730Y180083D01*
X1364370Y182509D01*
X1364250Y184960D01*
X1364250Y249960D01*
X1364370Y252410D01*
X1364730Y254837D01*
X1365327Y257217D01*
X1366153Y259527D01*
X1367202Y261745D01*
X1368463Y263849D01*
X1369925Y265820D01*
X1371572Y267638D01*
X1373390Y269285D01*
X1375361Y270747D01*
X1377465Y272008D01*
X1379683Y273057D01*
X1381993Y273884D01*
X1384373Y274480D01*
X1386800Y274840D01*
X1389250Y274960D01*
X1479250Y274960D01*
X1481700Y274840D01*
X1481700Y274840D01*
G37*
D11*
X1434250Y217460D03*
D10*
G36*
X3303070Y2928299D02*
G01*
X3305497Y2927939D01*
X3307877Y2927343D01*
X3310187Y2926516D01*
X3312404Y2925467D01*
X3314509Y2924206D01*
X3316479Y2922744D01*
X3318297Y2921097D01*
X3381937Y2857457D01*
X3383584Y2855639D01*
X3385046Y2853669D01*
X3386307Y2851564D01*
X3387356Y2849347D01*
X3388183Y2847037D01*
X3388779Y2844657D01*
X3389139Y2842230D01*
X3389259Y2839780D01*
X3389139Y2837329D01*
X3388779Y2834902D01*
X3388183Y2832522D01*
X3387356Y2830213D01*
X3386307Y2827995D01*
X3385046Y2825890D01*
X3383584Y2823920D01*
X3381937Y2822102D01*
X3335975Y2776140D01*
X3334157Y2774492D01*
X3332186Y2773031D01*
X3330082Y2771770D01*
X3327864Y2770721D01*
X3325554Y2769894D01*
X3323174Y2769298D01*
X3320748Y2768938D01*
X3318297Y2768818D01*
X3315847Y2768938D01*
X3313420Y2769298D01*
X3311040Y2769894D01*
X3308730Y2770721D01*
X3306512Y2771770D01*
X3304408Y2773031D01*
X3302437Y2774492D01*
X3300620Y2776140D01*
X3236980Y2839780D01*
X3235332Y2841597D01*
X3233871Y2843568D01*
X3232610Y2845672D01*
X3231561Y2847890D01*
X3230734Y2850200D01*
X3230138Y2852580D01*
X3229778Y2855007D01*
X3229658Y2857457D01*
X3229778Y2859908D01*
X3230138Y2862334D01*
X3230734Y2864714D01*
X3231561Y2867024D01*
X3232610Y2869242D01*
X3233871Y2871346D01*
X3235332Y2873317D01*
X3236980Y2875135D01*
X3282942Y2921097D01*
X3284760Y2922744D01*
X3286730Y2924206D01*
X3288835Y2925467D01*
X3291053Y2926516D01*
X3293362Y2927343D01*
X3295742Y2927939D01*
X3298169Y2928299D01*
X3300620Y2928419D01*
X3303070Y2928299D01*
X3303070Y2928299D01*
G37*
D11*
X3309458Y2848618D03*
D10*
G36*
X3158113Y2783342D02*
G01*
X3160540Y2782982D01*
X3162920Y2782386D01*
X3165230Y2781559D01*
X3167448Y2780510D01*
X3169552Y2779249D01*
X3171523Y2777788D01*
X3173340Y2776140D01*
X3236980Y2712500D01*
X3238628Y2710683D01*
X3240089Y2708712D01*
X3241350Y2706608D01*
X3242399Y2704390D01*
X3243226Y2702080D01*
X3243822Y2699700D01*
X3244182Y2697273D01*
X3244302Y2694823D01*
X3244182Y2692372D01*
X3243822Y2689946D01*
X3243226Y2687566D01*
X3242399Y2685256D01*
X3241350Y2683038D01*
X3240089Y2680934D01*
X3238628Y2678963D01*
X3236980Y2677145D01*
X3191018Y2631183D01*
X3189200Y2629536D01*
X3187230Y2628074D01*
X3185125Y2626813D01*
X3182907Y2625764D01*
X3180597Y2624937D01*
X3178218Y2624341D01*
X3175791Y2623981D01*
X3173340Y2623861D01*
X3170890Y2623981D01*
X3168463Y2624341D01*
X3166083Y2624937D01*
X3163773Y2625764D01*
X3161555Y2626813D01*
X3159451Y2628074D01*
X3157481Y2629536D01*
X3155663Y2631183D01*
X3092023Y2694823D01*
X3090375Y2696641D01*
X3088914Y2698611D01*
X3087653Y2700716D01*
X3086604Y2702933D01*
X3085777Y2705243D01*
X3085181Y2707623D01*
X3084821Y2710050D01*
X3084701Y2712500D01*
X3084821Y2714951D01*
X3085181Y2717378D01*
X3085777Y2719758D01*
X3086604Y2722067D01*
X3087653Y2724285D01*
X3088914Y2726390D01*
X3090375Y2728360D01*
X3092023Y2730178D01*
X3137985Y2776140D01*
X3139803Y2777788D01*
X3141774Y2779249D01*
X3143878Y2780510D01*
X3146096Y2781559D01*
X3148406Y2782386D01*
X3150786Y2782982D01*
X3153212Y2783342D01*
X3155663Y2783462D01*
X3158113Y2783342D01*
X3158113Y2783342D01*
G37*
D11*
X3164502Y2703662D03*
D10*
G36*
X3772970Y2488879D02*
G01*
X3775397Y2488519D01*
X3777777Y2487923D01*
X3780087Y2487096D01*
X3782304Y2486047D01*
X3784409Y2484786D01*
X3786379Y2483325D01*
X3788197Y2481677D01*
X3851837Y2418037D01*
X3853484Y2416219D01*
X3854946Y2414249D01*
X3856207Y2412145D01*
X3857256Y2409927D01*
X3858083Y2407617D01*
X3858679Y2405237D01*
X3859039Y2402810D01*
X3859159Y2400360D01*
X3859039Y2397909D01*
X3858679Y2395482D01*
X3858083Y2393103D01*
X3857256Y2390793D01*
X3856207Y2388575D01*
X3854946Y2386470D01*
X3853484Y2384500D01*
X3851837Y2382682D01*
X3805875Y2336720D01*
X3804057Y2335072D01*
X3802086Y2333611D01*
X3799982Y2332350D01*
X3797764Y2331301D01*
X3795454Y2330474D01*
X3793074Y2329878D01*
X3790648Y2329518D01*
X3788197Y2329398D01*
X3785747Y2329518D01*
X3783320Y2329878D01*
X3780940Y2330474D01*
X3778630Y2331301D01*
X3776412Y2332350D01*
X3774308Y2333611D01*
X3772337Y2335072D01*
X3770520Y2336720D01*
X3706880Y2400360D01*
X3705232Y2402177D01*
X3703771Y2404148D01*
X3702510Y2406252D01*
X3701461Y2408470D01*
X3700634Y2410780D01*
X3700038Y2413160D01*
X3699678Y2415587D01*
X3699558Y2418037D01*
X3699678Y2420488D01*
X3700038Y2422914D01*
X3700634Y2425294D01*
X3701461Y2427604D01*
X3702510Y2429822D01*
X3703771Y2431926D01*
X3705232Y2433897D01*
X3706880Y2435715D01*
X3752842Y2481677D01*
X3754660Y2483325D01*
X3756630Y2484786D01*
X3758735Y2486047D01*
X3760953Y2487096D01*
X3763262Y2487923D01*
X3765642Y2488519D01*
X3768069Y2488879D01*
X3770520Y2488999D01*
X3772970Y2488879D01*
X3772970Y2488879D01*
G37*
D11*
X3779358Y2409198D03*
D10*
G36*
X3628013Y2343922D02*
G01*
X3630440Y2343562D01*
X3632820Y2342966D01*
X3635130Y2342139D01*
X3637348Y2341090D01*
X3639452Y2339829D01*
X3641423Y2338368D01*
X3643240Y2336720D01*
X3706880Y2273080D01*
X3708528Y2271263D01*
X3709989Y2269292D01*
X3711250Y2267188D01*
X3712299Y2264970D01*
X3713126Y2262660D01*
X3713722Y2260280D01*
X3714082Y2257853D01*
X3714202Y2255403D01*
X3714082Y2252952D01*
X3713722Y2250526D01*
X3713126Y2248146D01*
X3712299Y2245836D01*
X3711250Y2243618D01*
X3709989Y2241514D01*
X3708528Y2239543D01*
X3706880Y2237725D01*
X3660918Y2191763D01*
X3659100Y2190116D01*
X3657130Y2188654D01*
X3655025Y2187393D01*
X3652807Y2186344D01*
X3650497Y2185517D01*
X3648118Y2184921D01*
X3645691Y2184561D01*
X3643240Y2184441D01*
X3640790Y2184561D01*
X3638363Y2184921D01*
X3635983Y2185517D01*
X3633673Y2186344D01*
X3631455Y2187393D01*
X3629351Y2188654D01*
X3627381Y2190116D01*
X3625563Y2191763D01*
X3561923Y2255403D01*
X3560275Y2257221D01*
X3558814Y2259191D01*
X3557553Y2261296D01*
X3556504Y2263513D01*
X3555677Y2265823D01*
X3555081Y2268203D01*
X3554721Y2270630D01*
X3554601Y2273080D01*
X3554721Y2275531D01*
X3555081Y2277958D01*
X3555677Y2280338D01*
X3556504Y2282647D01*
X3557553Y2284865D01*
X3558814Y2286970D01*
X3560275Y2288940D01*
X3561923Y2290758D01*
X3607885Y2336720D01*
X3609703Y2338368D01*
X3611674Y2339829D01*
X3613778Y2341090D01*
X3615996Y2342139D01*
X3618306Y2342966D01*
X3620686Y2343562D01*
X3623112Y2343922D01*
X3625563Y2344042D01*
X3628013Y2343922D01*
X3628013Y2343922D01*
G37*
D11*
X3634402Y2264242D03*
D16*
X1184000Y278812D03*
X784000Y278812D03*
D17*
X4843860Y3239940D03*
X4843860Y3429940D03*
X5043860Y3334940D03*
X5475660Y3334940D03*
X5275660Y3429940D03*
X5275660Y3239940D03*
D10*
G36*
X1615650Y2346130D02*
G01*
X1618077Y2345770D01*
X1620457Y2345174D01*
X1622767Y2344347D01*
X1624985Y2343298D01*
X1627089Y2342037D01*
X1629060Y2340575D01*
X1630878Y2338928D01*
X1632525Y2337110D01*
X1633987Y2335139D01*
X1635248Y2333035D01*
X1636297Y2330817D01*
X1637123Y2328507D01*
X1637720Y2326127D01*
X1638080Y2323701D01*
X1638200Y2321250D01*
X1638200Y2256250D01*
X1638080Y2253800D01*
X1637720Y2251373D01*
X1637123Y2248993D01*
X1636297Y2246683D01*
X1635248Y2244465D01*
X1633987Y2242361D01*
X1632525Y2240390D01*
X1630878Y2238572D01*
X1629060Y2236925D01*
X1627089Y2235463D01*
X1624985Y2234202D01*
X1622767Y2233153D01*
X1620457Y2232327D01*
X1618077Y2231730D01*
X1615650Y2231370D01*
X1613200Y2231250D01*
X1523200Y2231250D01*
X1520749Y2231370D01*
X1518323Y2231730D01*
X1515943Y2232327D01*
X1513633Y2233153D01*
X1511415Y2234202D01*
X1509311Y2235463D01*
X1507340Y2236925D01*
X1505522Y2238572D01*
X1503875Y2240390D01*
X1502413Y2242361D01*
X1501152Y2244465D01*
X1500103Y2246683D01*
X1499276Y2248993D01*
X1498680Y2251373D01*
X1498320Y2253800D01*
X1498200Y2256250D01*
X1498200Y2321250D01*
X1498320Y2323701D01*
X1498680Y2326127D01*
X1499276Y2328507D01*
X1500103Y2330817D01*
X1501152Y2333035D01*
X1502413Y2335139D01*
X1503875Y2337110D01*
X1505522Y2338928D01*
X1507340Y2340575D01*
X1509311Y2342037D01*
X1511415Y2343298D01*
X1513633Y2344347D01*
X1515943Y2345174D01*
X1518323Y2345770D01*
X1520749Y2346130D01*
X1523200Y2346250D01*
X1613200Y2346250D01*
X1615650Y2346130D01*
X1615650Y2346130D01*
G37*
D11*
X1568200Y2288750D03*
D10*
G36*
X1615650Y2141130D02*
G01*
X1618077Y2140770D01*
X1620457Y2140174D01*
X1622767Y2139347D01*
X1624985Y2138298D01*
X1627089Y2137037D01*
X1629060Y2135575D01*
X1630878Y2133928D01*
X1632525Y2132110D01*
X1633987Y2130139D01*
X1635248Y2128035D01*
X1636297Y2125817D01*
X1637123Y2123507D01*
X1637720Y2121127D01*
X1638080Y2118701D01*
X1638200Y2116250D01*
X1638200Y2051250D01*
X1638080Y2048799D01*
X1637720Y2046373D01*
X1637123Y2043993D01*
X1636297Y2041683D01*
X1635248Y2039465D01*
X1633987Y2037361D01*
X1632525Y2035390D01*
X1630878Y2033572D01*
X1629060Y2031925D01*
X1627089Y2030463D01*
X1624985Y2029202D01*
X1622767Y2028153D01*
X1620457Y2027326D01*
X1618077Y2026730D01*
X1615650Y2026370D01*
X1613200Y2026250D01*
X1523200Y2026250D01*
X1520749Y2026370D01*
X1518323Y2026730D01*
X1515943Y2027326D01*
X1513633Y2028153D01*
X1511415Y2029202D01*
X1509311Y2030463D01*
X1507340Y2031925D01*
X1505522Y2033572D01*
X1503875Y2035390D01*
X1502413Y2037361D01*
X1501152Y2039465D01*
X1500103Y2041683D01*
X1499276Y2043993D01*
X1498680Y2046373D01*
X1498320Y2048799D01*
X1498200Y2051250D01*
X1498200Y2116250D01*
X1498320Y2118701D01*
X1498680Y2121127D01*
X1499276Y2123507D01*
X1500103Y2125817D01*
X1501152Y2128035D01*
X1502413Y2130139D01*
X1503875Y2132110D01*
X1505522Y2133928D01*
X1507340Y2135575D01*
X1509311Y2137037D01*
X1511415Y2138298D01*
X1513633Y2139347D01*
X1515943Y2140174D01*
X1518323Y2140770D01*
X1520749Y2141130D01*
X1523200Y2141250D01*
X1613200Y2141250D01*
X1615650Y2141130D01*
X1615650Y2141130D01*
G37*
D11*
X1568200Y2083750D03*
D18*
X2691811Y2581230D03*
D10*
G36*
X2728934Y2657244D02*
G01*
X2767825Y2618353D01*
X2654687Y2505216D01*
X2615797Y2544107D01*
X2728934Y2657244D01*
X2728934Y2657244D01*
G37*
D18*
X2748379Y2524662D03*
D10*
G36*
X2785502Y2600676D02*
G01*
X2824393Y2561785D01*
X2711256Y2448648D01*
X2672365Y2487539D01*
X2785502Y2600676D01*
X2785502Y2600676D01*
G37*
D18*
X2804948Y2468093D03*
D10*
G36*
X2842071Y2544107D02*
G01*
X2880962Y2505216D01*
X2767825Y2392079D01*
X2728934Y2430970D01*
X2842071Y2544107D01*
X2842071Y2544107D01*
G37*
D18*
X2861516Y2411525D03*
D10*
G36*
X2898639Y2487539D02*
G01*
X2937530Y2448648D01*
X2824393Y2335511D01*
X2785502Y2374402D01*
X2898639Y2487539D01*
X2898639Y2487539D01*
G37*
D18*
X2918085Y2354956D03*
D10*
G36*
X2955208Y2430970D02*
G01*
X2994099Y2392079D01*
X2880962Y2278942D01*
X2842071Y2317833D01*
X2955208Y2430970D01*
X2955208Y2430970D01*
G37*
D18*
X2974653Y2298388D03*
D10*
G36*
X3011776Y2374402D02*
G01*
X3050667Y2335511D01*
X2937530Y2222374D01*
X2898639Y2261265D01*
X3011776Y2374402D01*
X3011776Y2374402D01*
G37*
D18*
X3031222Y2241819D03*
D10*
G36*
X3068345Y2317833D02*
G01*
X3107236Y2278942D01*
X2994099Y2165805D01*
X2955208Y2204696D01*
X3068345Y2317833D01*
X3068345Y2317833D01*
G37*
D18*
X3087790Y2185251D03*
D10*
G36*
X3124913Y2261265D02*
G01*
X3163804Y2222374D01*
X3050667Y2109237D01*
X3011776Y2148127D01*
X3124913Y2261265D01*
X3124913Y2261265D01*
G37*
D18*
X3087790Y1980189D03*
D10*
G36*
X3163804Y1943066D02*
G01*
X3124913Y1904175D01*
X3011776Y2017313D01*
X3050667Y2056203D01*
X3163804Y1943066D01*
X3163804Y1943066D01*
G37*
D18*
X3031222Y1923621D03*
D10*
G36*
X3107236Y1886498D02*
G01*
X3068345Y1847607D01*
X2955208Y1960744D01*
X2994099Y1999635D01*
X3107236Y1886498D01*
X3107236Y1886498D01*
G37*
D18*
X2974653Y1867052D03*
D10*
G36*
X3050667Y1829929D02*
G01*
X3011776Y1791038D01*
X2898639Y1904175D01*
X2937530Y1943066D01*
X3050667Y1829929D01*
X3050667Y1829929D01*
G37*
D18*
X2918085Y1810484D03*
D10*
G36*
X2994099Y1773361D02*
G01*
X2955208Y1734470D01*
X2842071Y1847607D01*
X2880962Y1886498D01*
X2994099Y1773361D01*
X2994099Y1773361D01*
G37*
D18*
X2861516Y1753915D03*
D10*
G36*
X2937530Y1716792D02*
G01*
X2898639Y1677901D01*
X2785502Y1791038D01*
X2824393Y1829929D01*
X2937530Y1716792D01*
X2937530Y1716792D01*
G37*
D18*
X2804948Y1697347D03*
D10*
G36*
X2880962Y1660224D02*
G01*
X2842071Y1621333D01*
X2728934Y1734470D01*
X2767825Y1773361D01*
X2880962Y1660224D01*
X2880962Y1660224D01*
G37*
D18*
X2748379Y1640778D03*
D10*
G36*
X2824393Y1603655D02*
G01*
X2785502Y1564764D01*
X2672365Y1677901D01*
X2711256Y1716792D01*
X2824393Y1603655D01*
X2824393Y1603655D01*
G37*
D18*
X2691811Y1584210D03*
D10*
G36*
X2767825Y1547087D02*
G01*
X2728934Y1508196D01*
X2615797Y1621333D01*
X2654687Y1660224D01*
X2767825Y1547087D01*
X2767825Y1547087D01*
G37*
D18*
X2486750Y1584210D03*
D10*
G36*
X2523873Y1660224D02*
G01*
X2562764Y1621333D01*
X2449626Y1508196D01*
X2410736Y1547087D01*
X2523873Y1660224D01*
X2523873Y1660224D01*
G37*
D18*
X2430181Y1640778D03*
D10*
G36*
X2467304Y1716792D02*
G01*
X2506195Y1677901D01*
X2393058Y1564764D01*
X2354167Y1603655D01*
X2467304Y1716792D01*
X2467304Y1716792D01*
G37*
D18*
X2373612Y1697347D03*
D10*
G36*
X2410736Y1773361D02*
G01*
X2449626Y1734470D01*
X2336489Y1621333D01*
X2297598Y1660224D01*
X2410736Y1773361D01*
X2410736Y1773361D01*
G37*
D18*
X2317044Y1753915D03*
D10*
G36*
X2354167Y1829929D02*
G01*
X2393058Y1791038D01*
X2279921Y1677901D01*
X2241030Y1716792D01*
X2354167Y1829929D01*
X2354167Y1829929D01*
G37*
D18*
X2260475Y1810484D03*
D10*
G36*
X2297598Y1886498D02*
G01*
X2336489Y1847607D01*
X2223352Y1734470D01*
X2184461Y1773361D01*
X2297598Y1886498D01*
X2297598Y1886498D01*
G37*
D18*
X2203907Y1867052D03*
D10*
G36*
X2241030Y1943066D02*
G01*
X2279921Y1904175D01*
X2166784Y1791038D01*
X2127893Y1829929D01*
X2241030Y1943066D01*
X2241030Y1943066D01*
G37*
D18*
X2147338Y1923621D03*
D10*
G36*
X2184461Y1999635D02*
G01*
X2223352Y1960744D01*
X2110215Y1847607D01*
X2071324Y1886498D01*
X2184461Y1999635D01*
X2184461Y1999635D01*
G37*
D18*
X2090770Y1980189D03*
D10*
G36*
X2127893Y2056203D02*
G01*
X2166784Y2017313D01*
X2053647Y1904175D01*
X2014756Y1943066D01*
X2127893Y2056203D01*
X2127893Y2056203D01*
G37*
D18*
X2090770Y2185251D03*
D10*
G36*
X2166784Y2148127D02*
G01*
X2127893Y2109237D01*
X2014756Y2222374D01*
X2053647Y2261265D01*
X2166784Y2148127D01*
X2166784Y2148127D01*
G37*
D18*
X2147338Y2241819D03*
D10*
G36*
X2223352Y2204696D02*
G01*
X2184461Y2165805D01*
X2071324Y2278942D01*
X2110215Y2317833D01*
X2223352Y2204696D01*
X2223352Y2204696D01*
G37*
D18*
X2203907Y2298388D03*
D10*
G36*
X2279921Y2261265D02*
G01*
X2241030Y2222374D01*
X2127893Y2335511D01*
X2166784Y2374402D01*
X2279921Y2261265D01*
X2279921Y2261265D01*
G37*
D18*
X2260475Y2354956D03*
D10*
G36*
X2336489Y2317833D02*
G01*
X2297598Y2278942D01*
X2184461Y2392079D01*
X2223352Y2430970D01*
X2336489Y2317833D01*
X2336489Y2317833D01*
G37*
D18*
X2317044Y2411525D03*
D10*
G36*
X2393058Y2374402D02*
G01*
X2354167Y2335511D01*
X2241030Y2448648D01*
X2279921Y2487539D01*
X2393058Y2374402D01*
X2393058Y2374402D01*
G37*
D18*
X2373612Y2468093D03*
D10*
G36*
X2449626Y2430970D02*
G01*
X2410736Y2392079D01*
X2297598Y2505216D01*
X2336489Y2544107D01*
X2449626Y2430970D01*
X2449626Y2430970D01*
G37*
D18*
X2430181Y2524662D03*
D10*
G36*
X2506195Y2487539D02*
G01*
X2467304Y2448648D01*
X2354167Y2561785D01*
X2393058Y2600676D01*
X2506195Y2487539D01*
X2506195Y2487539D01*
G37*
D18*
X2486750Y2581230D03*
D10*
G36*
X2562764Y2544107D02*
G01*
X2523873Y2505216D01*
X2410736Y2618353D01*
X2449626Y2657244D01*
X2562764Y2544107D01*
X2562764Y2544107D01*
G37*
D19*
X3314580Y2556580D03*
X3489580Y2556580D03*
X3489580Y2416580D03*
X3314580Y2416580D03*
D10*
G36*
X2064100Y366700D02*
G01*
X2066527Y366340D01*
X2068907Y365743D01*
X2071217Y364917D01*
X2073435Y363868D01*
X2075539Y362607D01*
X2077510Y361145D01*
X2079328Y359498D01*
X2080975Y357680D01*
X2082437Y355709D01*
X2083698Y353605D01*
X2084747Y351387D01*
X2085573Y349077D01*
X2086170Y346697D01*
X2086530Y344270D01*
X2086650Y341820D01*
X2086650Y216820D01*
X2086530Y214370D01*
X2086170Y211943D01*
X2085573Y209563D01*
X2084747Y207253D01*
X2083698Y205035D01*
X2082437Y202931D01*
X2080975Y200960D01*
X2079328Y199142D01*
X2077510Y197495D01*
X2075539Y196033D01*
X2073435Y194772D01*
X2071217Y193723D01*
X2068907Y192896D01*
X2066527Y192300D01*
X2064100Y191940D01*
X2061650Y191820D01*
X1969150Y191820D01*
X1966700Y191940D01*
X1964273Y192300D01*
X1961893Y192896D01*
X1959583Y193723D01*
X1957365Y194772D01*
X1955261Y196033D01*
X1953290Y197495D01*
X1951472Y199142D01*
X1949825Y200960D01*
X1948363Y202931D01*
X1947102Y205035D01*
X1946053Y207253D01*
X1945226Y209563D01*
X1944630Y211943D01*
X1944270Y214370D01*
X1944150Y216820D01*
X1944150Y341820D01*
X1944270Y344270D01*
X1944630Y346697D01*
X1945226Y349077D01*
X1946053Y351387D01*
X1947102Y353605D01*
X1948363Y355709D01*
X1949825Y357680D01*
X1951472Y359498D01*
X1953290Y361145D01*
X1955261Y362607D01*
X1957365Y363868D01*
X1959583Y364917D01*
X1961893Y365743D01*
X1964273Y366340D01*
X1966700Y366700D01*
X1969150Y366820D01*
X2061650Y366820D01*
X2064100Y366700D01*
X2064100Y366700D01*
G37*
D12*
X2015400Y279320D03*
D10*
G36*
X1766600Y366700D02*
G01*
X1769027Y366340D01*
X1771407Y365743D01*
X1773717Y364917D01*
X1775935Y363868D01*
X1778039Y362607D01*
X1780010Y361145D01*
X1781828Y359498D01*
X1783475Y357680D01*
X1784937Y355709D01*
X1786198Y353605D01*
X1787247Y351387D01*
X1788073Y349077D01*
X1788670Y346697D01*
X1789030Y344270D01*
X1789150Y341820D01*
X1789150Y216820D01*
X1789030Y214370D01*
X1788670Y211943D01*
X1788073Y209563D01*
X1787247Y207253D01*
X1786198Y205035D01*
X1784937Y202931D01*
X1783475Y200960D01*
X1781828Y199142D01*
X1780010Y197495D01*
X1778039Y196033D01*
X1775935Y194772D01*
X1773717Y193723D01*
X1771407Y192896D01*
X1769027Y192300D01*
X1766600Y191940D01*
X1764150Y191820D01*
X1671650Y191820D01*
X1669200Y191940D01*
X1666773Y192300D01*
X1664393Y192896D01*
X1662083Y193723D01*
X1659865Y194772D01*
X1657761Y196033D01*
X1655790Y197495D01*
X1653972Y199142D01*
X1652325Y200960D01*
X1650863Y202931D01*
X1649602Y205035D01*
X1648553Y207253D01*
X1647726Y209563D01*
X1647130Y211943D01*
X1646770Y214370D01*
X1646650Y216820D01*
X1646650Y341820D01*
X1646770Y344270D01*
X1647130Y346697D01*
X1647726Y349077D01*
X1648553Y351387D01*
X1649602Y353605D01*
X1650863Y355709D01*
X1652325Y357680D01*
X1653972Y359498D01*
X1655790Y361145D01*
X1657761Y362607D01*
X1659865Y363868D01*
X1662083Y364917D01*
X1664393Y365743D01*
X1666773Y366340D01*
X1669200Y366700D01*
X1671650Y366820D01*
X1764150Y366820D01*
X1766600Y366700D01*
X1766600Y366700D01*
G37*
D12*
X1717900Y279320D03*
D10*
G36*
X2064100Y595300D02*
G01*
X2066527Y594940D01*
X2068907Y594344D01*
X2071217Y593517D01*
X2073435Y592468D01*
X2075539Y591207D01*
X2077510Y589745D01*
X2079328Y588098D01*
X2080975Y586280D01*
X2082437Y584309D01*
X2083698Y582205D01*
X2084747Y579987D01*
X2085573Y577677D01*
X2086170Y575297D01*
X2086530Y572870D01*
X2086650Y570420D01*
X2086650Y445420D01*
X2086530Y442970D01*
X2086170Y440543D01*
X2085573Y438163D01*
X2084747Y435853D01*
X2083698Y433635D01*
X2082437Y431531D01*
X2080975Y429560D01*
X2079328Y427742D01*
X2077510Y426095D01*
X2075539Y424633D01*
X2073435Y423372D01*
X2071217Y422323D01*
X2068907Y421496D01*
X2066527Y420900D01*
X2064100Y420540D01*
X2061650Y420420D01*
X1969150Y420420D01*
X1966700Y420540D01*
X1964273Y420900D01*
X1961893Y421496D01*
X1959583Y422323D01*
X1957365Y423372D01*
X1955261Y424633D01*
X1953290Y426095D01*
X1951472Y427742D01*
X1949825Y429560D01*
X1948363Y431531D01*
X1947102Y433635D01*
X1946053Y435853D01*
X1945226Y438163D01*
X1944630Y440543D01*
X1944270Y442970D01*
X1944150Y445420D01*
X1944150Y570420D01*
X1944270Y572870D01*
X1944630Y575297D01*
X1945226Y577677D01*
X1946053Y579987D01*
X1947102Y582205D01*
X1948363Y584309D01*
X1949825Y586280D01*
X1951472Y588098D01*
X1953290Y589745D01*
X1955261Y591207D01*
X1957365Y592468D01*
X1959583Y593517D01*
X1961893Y594344D01*
X1964273Y594940D01*
X1966700Y595300D01*
X1969150Y595420D01*
X2061650Y595420D01*
X2064100Y595300D01*
X2064100Y595300D01*
G37*
D12*
X2015400Y507920D03*
D10*
G36*
X1766600Y595300D02*
G01*
X1769027Y594940D01*
X1771407Y594344D01*
X1773717Y593517D01*
X1775935Y592468D01*
X1778039Y591207D01*
X1780010Y589745D01*
X1781828Y588098D01*
X1783475Y586280D01*
X1784937Y584309D01*
X1786198Y582205D01*
X1787247Y579987D01*
X1788073Y577677D01*
X1788670Y575297D01*
X1789030Y572870D01*
X1789150Y570420D01*
X1789150Y445420D01*
X1789030Y442970D01*
X1788670Y440543D01*
X1788073Y438163D01*
X1787247Y435853D01*
X1786198Y433635D01*
X1784937Y431531D01*
X1783475Y429560D01*
X1781828Y427742D01*
X1780010Y426095D01*
X1778039Y424633D01*
X1775935Y423372D01*
X1773717Y422323D01*
X1771407Y421496D01*
X1769027Y420900D01*
X1766600Y420540D01*
X1764150Y420420D01*
X1671650Y420420D01*
X1669200Y420540D01*
X1666773Y420900D01*
X1664393Y421496D01*
X1662083Y422323D01*
X1659865Y423372D01*
X1657761Y424633D01*
X1655790Y426095D01*
X1653972Y427742D01*
X1652325Y429560D01*
X1650863Y431531D01*
X1649602Y433635D01*
X1648553Y435853D01*
X1647726Y438163D01*
X1647130Y440543D01*
X1646770Y442970D01*
X1646650Y445420D01*
X1646650Y570420D01*
X1646770Y572870D01*
X1647130Y575297D01*
X1647726Y577677D01*
X1648553Y579987D01*
X1649602Y582205D01*
X1650863Y584309D01*
X1652325Y586280D01*
X1653972Y588098D01*
X1655790Y589745D01*
X1657761Y591207D01*
X1659865Y592468D01*
X1662083Y593517D01*
X1664393Y594344D01*
X1666773Y594940D01*
X1669200Y595300D01*
X1671650Y595420D01*
X1764150Y595420D01*
X1766600Y595300D01*
X1766600Y595300D01*
G37*
D12*
X1717900Y507920D03*
D20*
X1460000Y2810000D03*
X2240000Y2810000D03*
D21*
X6699000Y3141640D03*
X6699000Y2791640D03*
D10*
G36*
X3996600Y1498460D02*
G01*
X3999027Y1498100D01*
X4001407Y1497503D01*
X4003717Y1496677D01*
X4005935Y1495628D01*
X4008039Y1494367D01*
X4010010Y1492905D01*
X4011828Y1491258D01*
X4013475Y1489440D01*
X4014937Y1487469D01*
X4016198Y1485365D01*
X4017247Y1483147D01*
X4018073Y1480837D01*
X4018670Y1478457D01*
X4019030Y1476030D01*
X4019150Y1473580D01*
X4019150Y1383580D01*
X4019030Y1381130D01*
X4018670Y1378703D01*
X4018073Y1376323D01*
X4017247Y1374013D01*
X4016198Y1371795D01*
X4014937Y1369691D01*
X4013475Y1367720D01*
X4011828Y1365902D01*
X4010010Y1364255D01*
X4008039Y1362793D01*
X4005935Y1361532D01*
X4003717Y1360483D01*
X4001407Y1359657D01*
X3999027Y1359060D01*
X3996600Y1358700D01*
X3994150Y1358580D01*
X3929150Y1358580D01*
X3926699Y1358700D01*
X3924273Y1359060D01*
X3921893Y1359657D01*
X3919583Y1360483D01*
X3917365Y1361532D01*
X3915261Y1362793D01*
X3913290Y1364255D01*
X3911472Y1365902D01*
X3909825Y1367720D01*
X3908363Y1369691D01*
X3907102Y1371795D01*
X3906053Y1374013D01*
X3905226Y1376323D01*
X3904630Y1378703D01*
X3904270Y1381130D01*
X3904150Y1383580D01*
X3904150Y1473580D01*
X3904270Y1476030D01*
X3904630Y1478457D01*
X3905226Y1480837D01*
X3906053Y1483147D01*
X3907102Y1485365D01*
X3908363Y1487469D01*
X3909825Y1489440D01*
X3911472Y1491258D01*
X3913290Y1492905D01*
X3915261Y1494367D01*
X3917365Y1495628D01*
X3919583Y1496677D01*
X3921893Y1497503D01*
X3924273Y1498100D01*
X3926699Y1498460D01*
X3929150Y1498580D01*
X3994150Y1498580D01*
X3996600Y1498460D01*
X3996600Y1498460D01*
G37*
D11*
X3961650Y1428580D03*
D10*
G36*
X4201601Y1498460D02*
G01*
X4204027Y1498100D01*
X4206407Y1497503D01*
X4208717Y1496677D01*
X4210935Y1495628D01*
X4213039Y1494367D01*
X4215010Y1492905D01*
X4216828Y1491258D01*
X4218475Y1489440D01*
X4219937Y1487469D01*
X4221198Y1485365D01*
X4222247Y1483147D01*
X4223074Y1480837D01*
X4223670Y1478457D01*
X4224030Y1476030D01*
X4224150Y1473580D01*
X4224150Y1383580D01*
X4224030Y1381130D01*
X4223670Y1378703D01*
X4223074Y1376323D01*
X4222247Y1374013D01*
X4221198Y1371795D01*
X4219937Y1369691D01*
X4218475Y1367720D01*
X4216828Y1365902D01*
X4215010Y1364255D01*
X4213039Y1362793D01*
X4210935Y1361532D01*
X4208717Y1360483D01*
X4206407Y1359657D01*
X4204027Y1359060D01*
X4201601Y1358700D01*
X4199150Y1358580D01*
X4134150Y1358580D01*
X4131699Y1358700D01*
X4129273Y1359060D01*
X4126893Y1359657D01*
X4124583Y1360483D01*
X4122365Y1361532D01*
X4120261Y1362793D01*
X4118290Y1364255D01*
X4116472Y1365902D01*
X4114825Y1367720D01*
X4113363Y1369691D01*
X4112102Y1371795D01*
X4111053Y1374013D01*
X4110226Y1376323D01*
X4109630Y1378703D01*
X4109270Y1381130D01*
X4109150Y1383580D01*
X4109150Y1473580D01*
X4109270Y1476030D01*
X4109630Y1478457D01*
X4110226Y1480837D01*
X4111053Y1483147D01*
X4112102Y1485365D01*
X4113363Y1487469D01*
X4114825Y1489440D01*
X4116472Y1491258D01*
X4118290Y1492905D01*
X4120261Y1494367D01*
X4122365Y1495628D01*
X4124583Y1496677D01*
X4126893Y1497503D01*
X4129273Y1498100D01*
X4131699Y1498460D01*
X4134150Y1498580D01*
X4199150Y1498580D01*
X4201601Y1498460D01*
X4201601Y1498460D01*
G37*
D11*
X4166650Y1428580D03*
D10*
G36*
X3996600Y1709080D02*
G01*
X3999027Y1708720D01*
X4001407Y1708123D01*
X4003717Y1707297D01*
X4005935Y1706248D01*
X4008039Y1704987D01*
X4010010Y1703525D01*
X4011828Y1701878D01*
X4013475Y1700060D01*
X4014937Y1698089D01*
X4016198Y1695985D01*
X4017247Y1693767D01*
X4018073Y1691457D01*
X4018670Y1689077D01*
X4019030Y1686650D01*
X4019150Y1684200D01*
X4019150Y1594200D01*
X4019030Y1591749D01*
X4018670Y1589323D01*
X4018073Y1586943D01*
X4017247Y1584633D01*
X4016198Y1582415D01*
X4014937Y1580311D01*
X4013475Y1578340D01*
X4011828Y1576522D01*
X4010010Y1574875D01*
X4008039Y1573413D01*
X4005935Y1572152D01*
X4003717Y1571103D01*
X4001407Y1570276D01*
X3999027Y1569680D01*
X3996600Y1569320D01*
X3994150Y1569200D01*
X3929150Y1569200D01*
X3926699Y1569320D01*
X3924273Y1569680D01*
X3921893Y1570276D01*
X3919583Y1571103D01*
X3917365Y1572152D01*
X3915261Y1573413D01*
X3913290Y1574875D01*
X3911472Y1576522D01*
X3909825Y1578340D01*
X3908363Y1580311D01*
X3907102Y1582415D01*
X3906053Y1584633D01*
X3905226Y1586943D01*
X3904630Y1589323D01*
X3904270Y1591749D01*
X3904150Y1594200D01*
X3904150Y1684200D01*
X3904270Y1686650D01*
X3904630Y1689077D01*
X3905226Y1691457D01*
X3906053Y1693767D01*
X3907102Y1695985D01*
X3908363Y1698089D01*
X3909825Y1700060D01*
X3911472Y1701878D01*
X3913290Y1703525D01*
X3915261Y1704987D01*
X3917365Y1706248D01*
X3919583Y1707297D01*
X3921893Y1708123D01*
X3924273Y1708720D01*
X3926699Y1709080D01*
X3929150Y1709200D01*
X3994150Y1709200D01*
X3996600Y1709080D01*
X3996600Y1709080D01*
G37*
D11*
X3961650Y1639200D03*
D10*
G36*
X4201601Y1709080D02*
G01*
X4204027Y1708720D01*
X4206407Y1708123D01*
X4208717Y1707297D01*
X4210935Y1706248D01*
X4213039Y1704987D01*
X4215010Y1703525D01*
X4216828Y1701878D01*
X4218475Y1700060D01*
X4219937Y1698089D01*
X4221198Y1695985D01*
X4222247Y1693767D01*
X4223074Y1691457D01*
X4223670Y1689077D01*
X4224030Y1686650D01*
X4224150Y1684200D01*
X4224150Y1594200D01*
X4224030Y1591749D01*
X4223670Y1589323D01*
X4223074Y1586943D01*
X4222247Y1584633D01*
X4221198Y1582415D01*
X4219937Y1580311D01*
X4218475Y1578340D01*
X4216828Y1576522D01*
X4215010Y1574875D01*
X4213039Y1573413D01*
X4210935Y1572152D01*
X4208717Y1571103D01*
X4206407Y1570276D01*
X4204027Y1569680D01*
X4201601Y1569320D01*
X4199150Y1569200D01*
X4134150Y1569200D01*
X4131699Y1569320D01*
X4129273Y1569680D01*
X4126893Y1570276D01*
X4124583Y1571103D01*
X4122365Y1572152D01*
X4120261Y1573413D01*
X4118290Y1574875D01*
X4116472Y1576522D01*
X4114825Y1578340D01*
X4113363Y1580311D01*
X4112102Y1582415D01*
X4111053Y1584633D01*
X4110226Y1586943D01*
X4109630Y1589323D01*
X4109270Y1591749D01*
X4109150Y1594200D01*
X4109150Y1684200D01*
X4109270Y1686650D01*
X4109630Y1689077D01*
X4110226Y1691457D01*
X4111053Y1693767D01*
X4112102Y1695985D01*
X4113363Y1698089D01*
X4114825Y1700060D01*
X4116472Y1701878D01*
X4118290Y1703525D01*
X4120261Y1704987D01*
X4122365Y1706248D01*
X4124583Y1707297D01*
X4126893Y1708123D01*
X4129273Y1708720D01*
X4131699Y1709080D01*
X4134150Y1709200D01*
X4199150Y1709200D01*
X4201601Y1709080D01*
X4201601Y1709080D01*
G37*
D11*
X4166650Y1639200D03*
D10*
G36*
X4828951Y2499380D02*
G01*
X4831377Y2499020D01*
X4833757Y2498424D01*
X4836067Y2497597D01*
X4838285Y2496548D01*
X4840389Y2495287D01*
X4842360Y2493825D01*
X4844178Y2492178D01*
X4845825Y2490360D01*
X4847287Y2488389D01*
X4848548Y2486285D01*
X4849597Y2484067D01*
X4850424Y2481757D01*
X4851020Y2479377D01*
X4851380Y2476951D01*
X4851500Y2474500D01*
X4851500Y2384500D01*
X4851380Y2382050D01*
X4851020Y2379623D01*
X4850424Y2377243D01*
X4849597Y2374933D01*
X4848548Y2372715D01*
X4847287Y2370611D01*
X4845825Y2368640D01*
X4844178Y2366822D01*
X4842360Y2365175D01*
X4840389Y2363713D01*
X4838285Y2362452D01*
X4836067Y2361403D01*
X4833757Y2360577D01*
X4831377Y2359980D01*
X4828951Y2359620D01*
X4826500Y2359500D01*
X4761500Y2359500D01*
X4759050Y2359620D01*
X4756623Y2359980D01*
X4754243Y2360577D01*
X4751933Y2361403D01*
X4749715Y2362452D01*
X4747611Y2363713D01*
X4745640Y2365175D01*
X4743822Y2366822D01*
X4742175Y2368640D01*
X4740713Y2370611D01*
X4739452Y2372715D01*
X4738403Y2374933D01*
X4737577Y2377243D01*
X4736980Y2379623D01*
X4736620Y2382050D01*
X4736500Y2384500D01*
X4736500Y2474500D01*
X4736620Y2476951D01*
X4736980Y2479377D01*
X4737577Y2481757D01*
X4738403Y2484067D01*
X4739452Y2486285D01*
X4740713Y2488389D01*
X4742175Y2490360D01*
X4743822Y2492178D01*
X4745640Y2493825D01*
X4747611Y2495287D01*
X4749715Y2496548D01*
X4751933Y2497597D01*
X4754243Y2498424D01*
X4756623Y2499020D01*
X4759050Y2499380D01*
X4761500Y2499500D01*
X4826500Y2499500D01*
X4828951Y2499380D01*
X4828951Y2499380D01*
G37*
D11*
X4794000Y2429500D03*
D10*
G36*
X5033951Y2499380D02*
G01*
X5036377Y2499020D01*
X5038757Y2498424D01*
X5041067Y2497597D01*
X5043285Y2496548D01*
X5045389Y2495287D01*
X5047360Y2493825D01*
X5049178Y2492178D01*
X5050825Y2490360D01*
X5052287Y2488389D01*
X5053548Y2486285D01*
X5054597Y2484067D01*
X5055424Y2481757D01*
X5056020Y2479377D01*
X5056380Y2476951D01*
X5056500Y2474500D01*
X5056500Y2384500D01*
X5056380Y2382050D01*
X5056020Y2379623D01*
X5055424Y2377243D01*
X5054597Y2374933D01*
X5053548Y2372715D01*
X5052287Y2370611D01*
X5050825Y2368640D01*
X5049178Y2366822D01*
X5047360Y2365175D01*
X5045389Y2363713D01*
X5043285Y2362452D01*
X5041067Y2361403D01*
X5038757Y2360577D01*
X5036377Y2359980D01*
X5033951Y2359620D01*
X5031500Y2359500D01*
X4966500Y2359500D01*
X4964050Y2359620D01*
X4961623Y2359980D01*
X4959243Y2360577D01*
X4956933Y2361403D01*
X4954715Y2362452D01*
X4952611Y2363713D01*
X4950640Y2365175D01*
X4948822Y2366822D01*
X4947175Y2368640D01*
X4945713Y2370611D01*
X4944452Y2372715D01*
X4943403Y2374933D01*
X4942577Y2377243D01*
X4941980Y2379623D01*
X4941620Y2382050D01*
X4941500Y2384500D01*
X4941500Y2474500D01*
X4941620Y2476951D01*
X4941980Y2479377D01*
X4942577Y2481757D01*
X4943403Y2484067D01*
X4944452Y2486285D01*
X4945713Y2488389D01*
X4947175Y2490360D01*
X4948822Y2492178D01*
X4950640Y2493825D01*
X4952611Y2495287D01*
X4954715Y2496548D01*
X4956933Y2497597D01*
X4959243Y2498424D01*
X4961623Y2499020D01*
X4964050Y2499380D01*
X4966500Y2499500D01*
X5031500Y2499500D01*
X5033951Y2499380D01*
X5033951Y2499380D01*
G37*
D11*
X4999000Y2429500D03*
D10*
G36*
X5033951Y2702580D02*
G01*
X5036377Y2702220D01*
X5038757Y2701624D01*
X5041067Y2700797D01*
X5043285Y2699748D01*
X5045389Y2698487D01*
X5047360Y2697025D01*
X5049178Y2695378D01*
X5050825Y2693560D01*
X5052287Y2691589D01*
X5053548Y2689485D01*
X5054597Y2687267D01*
X5055424Y2684957D01*
X5056020Y2682577D01*
X5056380Y2680151D01*
X5056500Y2677700D01*
X5056500Y2587700D01*
X5056380Y2585250D01*
X5056020Y2582823D01*
X5055424Y2580443D01*
X5054597Y2578133D01*
X5053548Y2575915D01*
X5052287Y2573811D01*
X5050825Y2571840D01*
X5049178Y2570022D01*
X5047360Y2568375D01*
X5045389Y2566913D01*
X5043285Y2565652D01*
X5041067Y2564603D01*
X5038757Y2563777D01*
X5036377Y2563180D01*
X5033951Y2562820D01*
X5031500Y2562700D01*
X4966500Y2562700D01*
X4964050Y2562820D01*
X4961623Y2563180D01*
X4959243Y2563777D01*
X4956933Y2564603D01*
X4954715Y2565652D01*
X4952611Y2566913D01*
X4950640Y2568375D01*
X4948822Y2570022D01*
X4947175Y2571840D01*
X4945713Y2573811D01*
X4944452Y2575915D01*
X4943403Y2578133D01*
X4942577Y2580443D01*
X4941980Y2582823D01*
X4941620Y2585250D01*
X4941500Y2587700D01*
X4941500Y2677700D01*
X4941620Y2680151D01*
X4941980Y2682577D01*
X4942577Y2684957D01*
X4943403Y2687267D01*
X4944452Y2689485D01*
X4945713Y2691589D01*
X4947175Y2693560D01*
X4948822Y2695378D01*
X4950640Y2697025D01*
X4952611Y2698487D01*
X4954715Y2699748D01*
X4956933Y2700797D01*
X4959243Y2701624D01*
X4961623Y2702220D01*
X4964050Y2702580D01*
X4966500Y2702700D01*
X5031500Y2702700D01*
X5033951Y2702580D01*
X5033951Y2702580D01*
G37*
D11*
X4999000Y2632700D03*
D10*
G36*
X4828951Y2702580D02*
G01*
X4831377Y2702220D01*
X4833757Y2701624D01*
X4836067Y2700797D01*
X4838285Y2699748D01*
X4840389Y2698487D01*
X4842360Y2697025D01*
X4844178Y2695378D01*
X4845825Y2693560D01*
X4847287Y2691589D01*
X4848548Y2689485D01*
X4849597Y2687267D01*
X4850424Y2684957D01*
X4851020Y2682577D01*
X4851380Y2680151D01*
X4851500Y2677700D01*
X4851500Y2587700D01*
X4851380Y2585250D01*
X4851020Y2582823D01*
X4850424Y2580443D01*
X4849597Y2578133D01*
X4848548Y2575915D01*
X4847287Y2573811D01*
X4845825Y2571840D01*
X4844178Y2570022D01*
X4842360Y2568375D01*
X4840389Y2566913D01*
X4838285Y2565652D01*
X4836067Y2564603D01*
X4833757Y2563777D01*
X4831377Y2563180D01*
X4828951Y2562820D01*
X4826500Y2562700D01*
X4761500Y2562700D01*
X4759050Y2562820D01*
X4756623Y2563180D01*
X4754243Y2563777D01*
X4751933Y2564603D01*
X4749715Y2565652D01*
X4747611Y2566913D01*
X4745640Y2568375D01*
X4743822Y2570022D01*
X4742175Y2571840D01*
X4740713Y2573811D01*
X4739452Y2575915D01*
X4738403Y2578133D01*
X4737577Y2580443D01*
X4736980Y2582823D01*
X4736620Y2585250D01*
X4736500Y2587700D01*
X4736500Y2677700D01*
X4736620Y2680151D01*
X4736980Y2682577D01*
X4737577Y2684957D01*
X4738403Y2687267D01*
X4739452Y2689485D01*
X4740713Y2691589D01*
X4742175Y2693560D01*
X4743822Y2695378D01*
X4745640Y2697025D01*
X4747611Y2698487D01*
X4749715Y2699748D01*
X4751933Y2700797D01*
X4754243Y2701624D01*
X4756623Y2702220D01*
X4759050Y2702580D01*
X4761500Y2702700D01*
X4826500Y2702700D01*
X4828951Y2702580D01*
X4828951Y2702580D01*
G37*
D11*
X4794000Y2632700D03*
D10*
G36*
X5414951Y2499380D02*
G01*
X5417377Y2499020D01*
X5419757Y2498424D01*
X5422067Y2497597D01*
X5424285Y2496548D01*
X5426389Y2495287D01*
X5428360Y2493825D01*
X5430178Y2492178D01*
X5431825Y2490360D01*
X5433287Y2488389D01*
X5434548Y2486285D01*
X5435597Y2484067D01*
X5436424Y2481757D01*
X5437020Y2479377D01*
X5437380Y2476951D01*
X5437500Y2474500D01*
X5437500Y2384500D01*
X5437380Y2382050D01*
X5437020Y2379623D01*
X5436424Y2377243D01*
X5435597Y2374933D01*
X5434548Y2372715D01*
X5433287Y2370611D01*
X5431825Y2368640D01*
X5430178Y2366822D01*
X5428360Y2365175D01*
X5426389Y2363713D01*
X5424285Y2362452D01*
X5422067Y2361403D01*
X5419757Y2360577D01*
X5417377Y2359980D01*
X5414951Y2359620D01*
X5412500Y2359500D01*
X5347500Y2359500D01*
X5345050Y2359620D01*
X5342623Y2359980D01*
X5340243Y2360577D01*
X5337933Y2361403D01*
X5335715Y2362452D01*
X5333611Y2363713D01*
X5331640Y2365175D01*
X5329822Y2366822D01*
X5328175Y2368640D01*
X5326713Y2370611D01*
X5325452Y2372715D01*
X5324403Y2374933D01*
X5323577Y2377243D01*
X5322980Y2379623D01*
X5322620Y2382050D01*
X5322500Y2384500D01*
X5322500Y2474500D01*
X5322620Y2476951D01*
X5322980Y2479377D01*
X5323577Y2481757D01*
X5324403Y2484067D01*
X5325452Y2486285D01*
X5326713Y2488389D01*
X5328175Y2490360D01*
X5329822Y2492178D01*
X5331640Y2493825D01*
X5333611Y2495287D01*
X5335715Y2496548D01*
X5337933Y2497597D01*
X5340243Y2498424D01*
X5342623Y2499020D01*
X5345050Y2499380D01*
X5347500Y2499500D01*
X5412500Y2499500D01*
X5414951Y2499380D01*
X5414951Y2499380D01*
G37*
D11*
X5380000Y2429500D03*
D10*
G36*
X5209951Y2499380D02*
G01*
X5212377Y2499020D01*
X5214757Y2498424D01*
X5217067Y2497597D01*
X5219285Y2496548D01*
X5221389Y2495287D01*
X5223360Y2493825D01*
X5225178Y2492178D01*
X5226825Y2490360D01*
X5228287Y2488389D01*
X5229548Y2486285D01*
X5230597Y2484067D01*
X5231424Y2481757D01*
X5232020Y2479377D01*
X5232380Y2476951D01*
X5232500Y2474500D01*
X5232500Y2384500D01*
X5232380Y2382050D01*
X5232020Y2379623D01*
X5231424Y2377243D01*
X5230597Y2374933D01*
X5229548Y2372715D01*
X5228287Y2370611D01*
X5226825Y2368640D01*
X5225178Y2366822D01*
X5223360Y2365175D01*
X5221389Y2363713D01*
X5219285Y2362452D01*
X5217067Y2361403D01*
X5214757Y2360577D01*
X5212377Y2359980D01*
X5209951Y2359620D01*
X5207500Y2359500D01*
X5142500Y2359500D01*
X5140050Y2359620D01*
X5137623Y2359980D01*
X5135243Y2360577D01*
X5132933Y2361403D01*
X5130715Y2362452D01*
X5128611Y2363713D01*
X5126640Y2365175D01*
X5124822Y2366822D01*
X5123175Y2368640D01*
X5121713Y2370611D01*
X5120452Y2372715D01*
X5119403Y2374933D01*
X5118577Y2377243D01*
X5117980Y2379623D01*
X5117620Y2382050D01*
X5117500Y2384500D01*
X5117500Y2474500D01*
X5117620Y2476951D01*
X5117980Y2479377D01*
X5118577Y2481757D01*
X5119403Y2484067D01*
X5120452Y2486285D01*
X5121713Y2488389D01*
X5123175Y2490360D01*
X5124822Y2492178D01*
X5126640Y2493825D01*
X5128611Y2495287D01*
X5130715Y2496548D01*
X5132933Y2497597D01*
X5135243Y2498424D01*
X5137623Y2499020D01*
X5140050Y2499380D01*
X5142500Y2499500D01*
X5207500Y2499500D01*
X5209951Y2499380D01*
X5209951Y2499380D01*
G37*
D11*
X5175000Y2429500D03*
D10*
G36*
X5414951Y2702580D02*
G01*
X5417377Y2702220D01*
X5419757Y2701624D01*
X5422067Y2700797D01*
X5424285Y2699748D01*
X5426389Y2698487D01*
X5428360Y2697025D01*
X5430178Y2695378D01*
X5431825Y2693560D01*
X5433287Y2691589D01*
X5434548Y2689485D01*
X5435597Y2687267D01*
X5436424Y2684957D01*
X5437020Y2682577D01*
X5437380Y2680151D01*
X5437500Y2677700D01*
X5437500Y2587700D01*
X5437380Y2585250D01*
X5437020Y2582823D01*
X5436424Y2580443D01*
X5435597Y2578133D01*
X5434548Y2575915D01*
X5433287Y2573811D01*
X5431825Y2571840D01*
X5430178Y2570022D01*
X5428360Y2568375D01*
X5426389Y2566913D01*
X5424285Y2565652D01*
X5422067Y2564603D01*
X5419757Y2563777D01*
X5417377Y2563180D01*
X5414951Y2562820D01*
X5412500Y2562700D01*
X5347500Y2562700D01*
X5345050Y2562820D01*
X5342623Y2563180D01*
X5340243Y2563777D01*
X5337933Y2564603D01*
X5335715Y2565652D01*
X5333611Y2566913D01*
X5331640Y2568375D01*
X5329822Y2570022D01*
X5328175Y2571840D01*
X5326713Y2573811D01*
X5325452Y2575915D01*
X5324403Y2578133D01*
X5323577Y2580443D01*
X5322980Y2582823D01*
X5322620Y2585250D01*
X5322500Y2587700D01*
X5322500Y2677700D01*
X5322620Y2680151D01*
X5322980Y2682577D01*
X5323577Y2684957D01*
X5324403Y2687267D01*
X5325452Y2689485D01*
X5326713Y2691589D01*
X5328175Y2693560D01*
X5329822Y2695378D01*
X5331640Y2697025D01*
X5333611Y2698487D01*
X5335715Y2699748D01*
X5337933Y2700797D01*
X5340243Y2701624D01*
X5342623Y2702220D01*
X5345050Y2702580D01*
X5347500Y2702700D01*
X5412500Y2702700D01*
X5414951Y2702580D01*
X5414951Y2702580D01*
G37*
D11*
X5380000Y2632700D03*
D10*
G36*
X5209951Y2702580D02*
G01*
X5212377Y2702220D01*
X5214757Y2701624D01*
X5217067Y2700797D01*
X5219285Y2699748D01*
X5221389Y2698487D01*
X5223360Y2697025D01*
X5225178Y2695378D01*
X5226825Y2693560D01*
X5228287Y2691589D01*
X5229548Y2689485D01*
X5230597Y2687267D01*
X5231424Y2684957D01*
X5232020Y2682577D01*
X5232380Y2680151D01*
X5232500Y2677700D01*
X5232500Y2587700D01*
X5232380Y2585250D01*
X5232020Y2582823D01*
X5231424Y2580443D01*
X5230597Y2578133D01*
X5229548Y2575915D01*
X5228287Y2573811D01*
X5226825Y2571840D01*
X5225178Y2570022D01*
X5223360Y2568375D01*
X5221389Y2566913D01*
X5219285Y2565652D01*
X5217067Y2564603D01*
X5214757Y2563777D01*
X5212377Y2563180D01*
X5209951Y2562820D01*
X5207500Y2562700D01*
X5142500Y2562700D01*
X5140050Y2562820D01*
X5137623Y2563180D01*
X5135243Y2563777D01*
X5132933Y2564603D01*
X5130715Y2565652D01*
X5128611Y2566913D01*
X5126640Y2568375D01*
X5124822Y2570022D01*
X5123175Y2571840D01*
X5121713Y2573811D01*
X5120452Y2575915D01*
X5119403Y2578133D01*
X5118577Y2580443D01*
X5117980Y2582823D01*
X5117620Y2585250D01*
X5117500Y2587700D01*
X5117500Y2677700D01*
X5117620Y2680151D01*
X5117980Y2682577D01*
X5118577Y2684957D01*
X5119403Y2687267D01*
X5120452Y2689485D01*
X5121713Y2691589D01*
X5123175Y2693560D01*
X5124822Y2695378D01*
X5126640Y2697025D01*
X5128611Y2698487D01*
X5130715Y2699748D01*
X5132933Y2700797D01*
X5135243Y2701624D01*
X5137623Y2702220D01*
X5140050Y2702580D01*
X5142500Y2702700D01*
X5207500Y2702700D01*
X5209951Y2702580D01*
X5209951Y2702580D01*
G37*
D11*
X5175000Y2632700D03*
D22*
X4794000Y2179200D03*
X4921000Y2179200D03*
X5048000Y2179200D03*
X5175000Y2179200D03*
X5302000Y2179200D03*
X5429000Y2179200D03*
X5556000Y2179200D03*
X5683000Y2179200D03*
X5683000Y1639200D03*
X5556000Y1639200D03*
X5429000Y1639200D03*
X5302000Y1639200D03*
X5175000Y1639200D03*
X5048000Y1639200D03*
X4921000Y1639200D03*
X4794000Y1639200D03*
D10*
G36*
X6188470Y1839800D02*
G01*
X6190897Y1839440D01*
X6193277Y1838843D01*
X6195587Y1838017D01*
X6197805Y1836968D01*
X6199909Y1835707D01*
X6201880Y1834245D01*
X6203698Y1832598D01*
X6205345Y1830780D01*
X6206807Y1828809D01*
X6208068Y1826705D01*
X6209117Y1824487D01*
X6209943Y1822177D01*
X6210540Y1819797D01*
X6210900Y1817370D01*
X6211020Y1814920D01*
X6211020Y1724920D01*
X6210900Y1722469D01*
X6210540Y1720043D01*
X6209943Y1717663D01*
X6209117Y1715353D01*
X6208068Y1713135D01*
X6206807Y1711031D01*
X6205345Y1709060D01*
X6203698Y1707242D01*
X6201880Y1705595D01*
X6199909Y1704133D01*
X6197805Y1702872D01*
X6195587Y1701823D01*
X6193277Y1700996D01*
X6190897Y1700400D01*
X6188470Y1700040D01*
X6186020Y1699920D01*
X6121020Y1699920D01*
X6118569Y1700040D01*
X6116143Y1700400D01*
X6113763Y1700996D01*
X6111453Y1701823D01*
X6109235Y1702872D01*
X6107131Y1704133D01*
X6105160Y1705595D01*
X6103342Y1707242D01*
X6101695Y1709060D01*
X6100233Y1711031D01*
X6098972Y1713135D01*
X6097923Y1715353D01*
X6097096Y1717663D01*
X6096500Y1720043D01*
X6096140Y1722469D01*
X6096020Y1724920D01*
X6096020Y1814920D01*
X6096140Y1817370D01*
X6096500Y1819797D01*
X6097096Y1822177D01*
X6097923Y1824487D01*
X6098972Y1826705D01*
X6100233Y1828809D01*
X6101695Y1830780D01*
X6103342Y1832598D01*
X6105160Y1834245D01*
X6107131Y1835707D01*
X6109235Y1836968D01*
X6111453Y1838017D01*
X6113763Y1838843D01*
X6116143Y1839440D01*
X6118569Y1839800D01*
X6121020Y1839920D01*
X6186020Y1839920D01*
X6188470Y1839800D01*
X6188470Y1839800D01*
G37*
D11*
X6153520Y1769920D03*
D10*
G36*
X5983470Y1839800D02*
G01*
X5985897Y1839440D01*
X5988277Y1838843D01*
X5990587Y1838017D01*
X5992805Y1836968D01*
X5994909Y1835707D01*
X5996880Y1834245D01*
X5998698Y1832598D01*
X6000345Y1830780D01*
X6001807Y1828809D01*
X6003068Y1826705D01*
X6004117Y1824487D01*
X6004943Y1822177D01*
X6005540Y1819797D01*
X6005900Y1817370D01*
X6006020Y1814920D01*
X6006020Y1724920D01*
X6005900Y1722469D01*
X6005540Y1720043D01*
X6004943Y1717663D01*
X6004117Y1715353D01*
X6003068Y1713135D01*
X6001807Y1711031D01*
X6000345Y1709060D01*
X5998698Y1707242D01*
X5996880Y1705595D01*
X5994909Y1704133D01*
X5992805Y1702872D01*
X5990587Y1701823D01*
X5988277Y1700996D01*
X5985897Y1700400D01*
X5983470Y1700040D01*
X5981020Y1699920D01*
X5916020Y1699920D01*
X5913569Y1700040D01*
X5911143Y1700400D01*
X5908763Y1700996D01*
X5906453Y1701823D01*
X5904235Y1702872D01*
X5902131Y1704133D01*
X5900160Y1705595D01*
X5898342Y1707242D01*
X5896695Y1709060D01*
X5895233Y1711031D01*
X5893972Y1713135D01*
X5892923Y1715353D01*
X5892096Y1717663D01*
X5891500Y1720043D01*
X5891140Y1722469D01*
X5891020Y1724920D01*
X5891020Y1814920D01*
X5891140Y1817370D01*
X5891500Y1819797D01*
X5892096Y1822177D01*
X5892923Y1824487D01*
X5893972Y1826705D01*
X5895233Y1828809D01*
X5896695Y1830780D01*
X5898342Y1832598D01*
X5900160Y1834245D01*
X5902131Y1835707D01*
X5904235Y1836968D01*
X5906453Y1838017D01*
X5908763Y1838843D01*
X5911143Y1839440D01*
X5913569Y1839800D01*
X5916020Y1839920D01*
X5981020Y1839920D01*
X5983470Y1839800D01*
X5983470Y1839800D01*
G37*
D11*
X5948520Y1769920D03*
D10*
G36*
X5983470Y1649800D02*
G01*
X5985897Y1649440D01*
X5988277Y1648843D01*
X5990587Y1648017D01*
X5992805Y1646968D01*
X5994909Y1645707D01*
X5996880Y1644245D01*
X5998698Y1642598D01*
X6000345Y1640780D01*
X6001807Y1638809D01*
X6003068Y1636705D01*
X6004117Y1634487D01*
X6004943Y1632177D01*
X6005540Y1629797D01*
X6005900Y1627370D01*
X6006020Y1624920D01*
X6006020Y1534920D01*
X6005900Y1532469D01*
X6005540Y1530043D01*
X6004943Y1527663D01*
X6004117Y1525353D01*
X6003068Y1523135D01*
X6001807Y1521031D01*
X6000345Y1519060D01*
X5998698Y1517242D01*
X5996880Y1515595D01*
X5994909Y1514133D01*
X5992805Y1512872D01*
X5990587Y1511823D01*
X5988277Y1510996D01*
X5985897Y1510400D01*
X5983470Y1510040D01*
X5981020Y1509920D01*
X5916020Y1509920D01*
X5913569Y1510040D01*
X5911143Y1510400D01*
X5908763Y1510996D01*
X5906453Y1511823D01*
X5904235Y1512872D01*
X5902131Y1514133D01*
X5900160Y1515595D01*
X5898342Y1517242D01*
X5896695Y1519060D01*
X5895233Y1521031D01*
X5893972Y1523135D01*
X5892923Y1525353D01*
X5892096Y1527663D01*
X5891500Y1530043D01*
X5891140Y1532469D01*
X5891020Y1534920D01*
X5891020Y1624920D01*
X5891140Y1627370D01*
X5891500Y1629797D01*
X5892096Y1632177D01*
X5892923Y1634487D01*
X5893972Y1636705D01*
X5895233Y1638809D01*
X5896695Y1640780D01*
X5898342Y1642598D01*
X5900160Y1644245D01*
X5902131Y1645707D01*
X5904235Y1646968D01*
X5906453Y1648017D01*
X5908763Y1648843D01*
X5911143Y1649440D01*
X5913569Y1649800D01*
X5916020Y1649920D01*
X5981020Y1649920D01*
X5983470Y1649800D01*
X5983470Y1649800D01*
G37*
D11*
X5948520Y1579920D03*
D10*
G36*
X6188470Y1649800D02*
G01*
X6190897Y1649440D01*
X6193277Y1648843D01*
X6195587Y1648017D01*
X6197805Y1646968D01*
X6199909Y1645707D01*
X6201880Y1644245D01*
X6203698Y1642598D01*
X6205345Y1640780D01*
X6206807Y1638809D01*
X6208068Y1636705D01*
X6209117Y1634487D01*
X6209943Y1632177D01*
X6210540Y1629797D01*
X6210900Y1627370D01*
X6211020Y1624920D01*
X6211020Y1534920D01*
X6210900Y1532469D01*
X6210540Y1530043D01*
X6209943Y1527663D01*
X6209117Y1525353D01*
X6208068Y1523135D01*
X6206807Y1521031D01*
X6205345Y1519060D01*
X6203698Y1517242D01*
X6201880Y1515595D01*
X6199909Y1514133D01*
X6197805Y1512872D01*
X6195587Y1511823D01*
X6193277Y1510996D01*
X6190897Y1510400D01*
X6188470Y1510040D01*
X6186020Y1509920D01*
X6121020Y1509920D01*
X6118569Y1510040D01*
X6116143Y1510400D01*
X6113763Y1510996D01*
X6111453Y1511823D01*
X6109235Y1512872D01*
X6107131Y1514133D01*
X6105160Y1515595D01*
X6103342Y1517242D01*
X6101695Y1519060D01*
X6100233Y1521031D01*
X6098972Y1523135D01*
X6097923Y1525353D01*
X6097096Y1527663D01*
X6096500Y1530043D01*
X6096140Y1532469D01*
X6096020Y1534920D01*
X6096020Y1624920D01*
X6096140Y1627370D01*
X6096500Y1629797D01*
X6097096Y1632177D01*
X6097923Y1634487D01*
X6098972Y1636705D01*
X6100233Y1638809D01*
X6101695Y1640780D01*
X6103342Y1642598D01*
X6105160Y1644245D01*
X6107131Y1645707D01*
X6109235Y1646968D01*
X6111453Y1648017D01*
X6113763Y1648843D01*
X6116143Y1649440D01*
X6118569Y1649800D01*
X6121020Y1649920D01*
X6186020Y1649920D01*
X6188470Y1649800D01*
X6188470Y1649800D01*
G37*
D11*
X6153520Y1579920D03*
M02*
