G04 #@! TF.GenerationSoftware,KiCad,Pcbnew,(5.1.0)-1*
G04 #@! TF.CreationDate,2022-04-18T23:31:18-07:00*
G04 #@! TF.ProjectId,1602A_LCD Serial Backpack,31363032-415f-44c4-9344-205365726961,rev?*
G04 #@! TF.SameCoordinates,PX660b0c0PY66ff300*
G04 #@! TF.FileFunction,Copper,L1,Top*
G04 #@! TF.FilePolarity,Positive*
%FSLAX45Y45*%
G04 Gerber Fmt 4.5, Leading zero omitted, Abs format (unit mm)*
G04 Created by KiCad (PCBNEW (5.1.0)-1) date 2022-04-18 23:31:18*
%MOMM*%
%LPD*%
G04 APERTURE LIST*
%ADD10O,1.750000X1.200000*%
%ADD11C,3.000000*%
%ADD12O,1.800000X2.600000*%
%ADD13R,1.800000X2.600000*%
%ADD14R,3.000000X3.000000*%
%ADD15R,1.600000X1.600000*%
%ADD16C,1.600000*%
%ADD17R,1.700000X1.700000*%
%ADD18O,1.700000X1.700000*%
%ADD19C,1.440000*%
%ADD20R,1.000000X1.500000*%
%ADD21C,0.100000*%
%ADD22C,1.150000*%
%ADD23C,1.000000*%
%ADD24C,0.800000*%
%ADD25C,0.800000*%
%ADD26C,0.500000*%
%ADD27C,1.000000*%
%ADD28C,0.200000*%
%ADD29C,0.254000*%
G04 APERTURE END LIST*
D10*
X7027600Y2240200D03*
X7027600Y2040200D03*
X7027600Y1840200D03*
X7027600Y1640200D03*
D11*
X7751910Y3349070D03*
X7751858Y249000D03*
X252000Y249000D03*
X252000Y3349070D03*
D12*
X4611910Y3349070D03*
X4357910Y3349070D03*
X4103910Y3349070D03*
X3849910Y3349070D03*
X3595910Y3349070D03*
X3341910Y3349070D03*
X3087910Y3349070D03*
X2833910Y3349070D03*
X2579910Y3349070D03*
X2325910Y3349070D03*
X2071910Y3349070D03*
X1817910Y3349070D03*
X1563910Y3349070D03*
X1309910Y3349070D03*
X1055910Y3349070D03*
D13*
X801910Y3349070D03*
D11*
X321000Y1483000D03*
D14*
X321000Y975000D03*
D15*
X6089400Y3167300D03*
D16*
X6089400Y2767300D03*
D17*
X4100000Y249000D03*
D18*
X4100000Y503000D03*
X4354000Y249000D03*
X4354000Y503000D03*
X4608000Y249000D03*
X4608000Y503000D03*
X4862000Y249000D03*
X4862000Y503000D03*
X5116000Y249000D03*
X5116000Y503000D03*
X5370000Y249000D03*
X5370000Y503000D03*
X5624000Y249000D03*
X5624000Y503000D03*
X5878000Y249000D03*
X5878000Y503000D03*
X6132000Y249000D03*
X6132000Y503000D03*
X6386000Y249000D03*
X6386000Y503000D03*
X6640000Y249000D03*
X6640000Y503000D03*
X6894000Y249000D03*
X6894000Y503000D03*
D19*
X806200Y2240200D03*
X1060200Y2494200D03*
X806200Y2748200D03*
D20*
X5303860Y3139896D03*
X5173860Y3139896D03*
X5043860Y3139896D03*
D21*
G36*
X4828951Y1927880D02*
G01*
X4831377Y1927520D01*
X4833757Y1926923D01*
X4836067Y1926097D01*
X4838285Y1925048D01*
X4840389Y1923787D01*
X4842360Y1922325D01*
X4844178Y1920678D01*
X4845825Y1918860D01*
X4847287Y1916889D01*
X4848548Y1914785D01*
X4849597Y1912567D01*
X4850424Y1910257D01*
X4851020Y1907877D01*
X4851380Y1905450D01*
X4851500Y1903000D01*
X4851500Y1813000D01*
X4851380Y1810549D01*
X4851020Y1808123D01*
X4850424Y1805743D01*
X4849597Y1803433D01*
X4848548Y1801215D01*
X4847287Y1799111D01*
X4845825Y1797140D01*
X4844178Y1795322D01*
X4842360Y1793675D01*
X4840389Y1792213D01*
X4838285Y1790952D01*
X4836067Y1789903D01*
X4833757Y1789076D01*
X4831377Y1788480D01*
X4828951Y1788120D01*
X4826500Y1788000D01*
X4761500Y1788000D01*
X4759050Y1788120D01*
X4756623Y1788480D01*
X4754243Y1789076D01*
X4751933Y1789903D01*
X4749715Y1790952D01*
X4747611Y1792213D01*
X4745640Y1793675D01*
X4743822Y1795322D01*
X4742175Y1797140D01*
X4740713Y1799111D01*
X4739452Y1801215D01*
X4738403Y1803433D01*
X4737577Y1805743D01*
X4736980Y1808123D01*
X4736620Y1810549D01*
X4736500Y1813000D01*
X4736500Y1903000D01*
X4736620Y1905450D01*
X4736980Y1907877D01*
X4737577Y1910257D01*
X4738403Y1912567D01*
X4739452Y1914785D01*
X4740713Y1916889D01*
X4742175Y1918860D01*
X4743822Y1920678D01*
X4745640Y1922325D01*
X4747611Y1923787D01*
X4749715Y1925048D01*
X4751933Y1926097D01*
X4754243Y1926923D01*
X4756623Y1927520D01*
X4759050Y1927880D01*
X4761500Y1928000D01*
X4826500Y1928000D01*
X4828951Y1927880D01*
X4828951Y1927880D01*
G37*
D22*
X4794000Y1858000D03*
D21*
G36*
X5033951Y1927880D02*
G01*
X5036377Y1927520D01*
X5038757Y1926923D01*
X5041067Y1926097D01*
X5043285Y1925048D01*
X5045389Y1923787D01*
X5047360Y1922325D01*
X5049178Y1920678D01*
X5050825Y1918860D01*
X5052287Y1916889D01*
X5053548Y1914785D01*
X5054597Y1912567D01*
X5055424Y1910257D01*
X5056020Y1907877D01*
X5056380Y1905450D01*
X5056500Y1903000D01*
X5056500Y1813000D01*
X5056380Y1810549D01*
X5056020Y1808123D01*
X5055424Y1805743D01*
X5054597Y1803433D01*
X5053548Y1801215D01*
X5052287Y1799111D01*
X5050825Y1797140D01*
X5049178Y1795322D01*
X5047360Y1793675D01*
X5045389Y1792213D01*
X5043285Y1790952D01*
X5041067Y1789903D01*
X5038757Y1789076D01*
X5036377Y1788480D01*
X5033951Y1788120D01*
X5031500Y1788000D01*
X4966500Y1788000D01*
X4964050Y1788120D01*
X4961623Y1788480D01*
X4959243Y1789076D01*
X4956933Y1789903D01*
X4954715Y1790952D01*
X4952611Y1792213D01*
X4950640Y1793675D01*
X4948822Y1795322D01*
X4947175Y1797140D01*
X4945713Y1799111D01*
X4944452Y1801215D01*
X4943403Y1803433D01*
X4942577Y1805743D01*
X4941980Y1808123D01*
X4941620Y1810549D01*
X4941500Y1813000D01*
X4941500Y1903000D01*
X4941620Y1905450D01*
X4941980Y1907877D01*
X4942577Y1910257D01*
X4943403Y1912567D01*
X4944452Y1914785D01*
X4945713Y1916889D01*
X4947175Y1918860D01*
X4948822Y1920678D01*
X4950640Y1922325D01*
X4952611Y1923787D01*
X4954715Y1925048D01*
X4956933Y1926097D01*
X4959243Y1926923D01*
X4961623Y1927520D01*
X4964050Y1927880D01*
X4966500Y1928000D01*
X5031500Y1928000D01*
X5033951Y1927880D01*
X5033951Y1927880D01*
G37*
D22*
X4999000Y1858000D03*
D21*
G36*
X2564171Y1960830D02*
G01*
X2566597Y1960470D01*
X2568977Y1959873D01*
X2571287Y1959047D01*
X2573505Y1957998D01*
X2575609Y1956737D01*
X2577580Y1955275D01*
X2579398Y1953628D01*
X2581045Y1951810D01*
X2582507Y1949839D01*
X2583768Y1947735D01*
X2584817Y1945517D01*
X2585644Y1943207D01*
X2586240Y1940827D01*
X2586600Y1938400D01*
X2586720Y1935950D01*
X2586720Y1845950D01*
X2586600Y1843499D01*
X2586240Y1841073D01*
X2585644Y1838693D01*
X2584817Y1836383D01*
X2583768Y1834165D01*
X2582507Y1832061D01*
X2581045Y1830090D01*
X2579398Y1828272D01*
X2577580Y1826625D01*
X2575609Y1825163D01*
X2573505Y1823902D01*
X2571287Y1822853D01*
X2568977Y1822026D01*
X2566597Y1821430D01*
X2564171Y1821070D01*
X2561720Y1820950D01*
X2496720Y1820950D01*
X2494270Y1821070D01*
X2491843Y1821430D01*
X2489463Y1822026D01*
X2487153Y1822853D01*
X2484935Y1823902D01*
X2482831Y1825163D01*
X2480860Y1826625D01*
X2479042Y1828272D01*
X2477395Y1830090D01*
X2475933Y1832061D01*
X2474672Y1834165D01*
X2473623Y1836383D01*
X2472797Y1838693D01*
X2472200Y1841073D01*
X2471840Y1843499D01*
X2471720Y1845950D01*
X2471720Y1935950D01*
X2471840Y1938400D01*
X2472200Y1940827D01*
X2472797Y1943207D01*
X2473623Y1945517D01*
X2474672Y1947735D01*
X2475933Y1949839D01*
X2477395Y1951810D01*
X2479042Y1953628D01*
X2480860Y1955275D01*
X2482831Y1956737D01*
X2484935Y1957998D01*
X2487153Y1959047D01*
X2489463Y1959873D01*
X2491843Y1960470D01*
X2494270Y1960830D01*
X2496720Y1960950D01*
X2561720Y1960950D01*
X2564171Y1960830D01*
X2564171Y1960830D01*
G37*
D22*
X2529220Y1890950D03*
D21*
G36*
X2359171Y1960830D02*
G01*
X2361597Y1960470D01*
X2363977Y1959873D01*
X2366287Y1959047D01*
X2368505Y1957998D01*
X2370609Y1956737D01*
X2372580Y1955275D01*
X2374398Y1953628D01*
X2376045Y1951810D01*
X2377507Y1949839D01*
X2378768Y1947735D01*
X2379817Y1945517D01*
X2380644Y1943207D01*
X2381240Y1940827D01*
X2381600Y1938400D01*
X2381720Y1935950D01*
X2381720Y1845950D01*
X2381600Y1843499D01*
X2381240Y1841073D01*
X2380644Y1838693D01*
X2379817Y1836383D01*
X2378768Y1834165D01*
X2377507Y1832061D01*
X2376045Y1830090D01*
X2374398Y1828272D01*
X2372580Y1826625D01*
X2370609Y1825163D01*
X2368505Y1823902D01*
X2366287Y1822853D01*
X2363977Y1822026D01*
X2361597Y1821430D01*
X2359171Y1821070D01*
X2356720Y1820950D01*
X2291720Y1820950D01*
X2289270Y1821070D01*
X2286843Y1821430D01*
X2284463Y1822026D01*
X2282153Y1822853D01*
X2279935Y1823902D01*
X2277831Y1825163D01*
X2275860Y1826625D01*
X2274042Y1828272D01*
X2272395Y1830090D01*
X2270933Y1832061D01*
X2269672Y1834165D01*
X2268623Y1836383D01*
X2267797Y1838693D01*
X2267200Y1841073D01*
X2266840Y1843499D01*
X2266720Y1845950D01*
X2266720Y1935950D01*
X2266840Y1938400D01*
X2267200Y1940827D01*
X2267797Y1943207D01*
X2268623Y1945517D01*
X2269672Y1947735D01*
X2270933Y1949839D01*
X2272395Y1951810D01*
X2274042Y1953628D01*
X2275860Y1955275D01*
X2277831Y1956737D01*
X2279935Y1957998D01*
X2282153Y1959047D01*
X2284463Y1959873D01*
X2286843Y1960470D01*
X2289270Y1960830D01*
X2291720Y1960950D01*
X2356720Y1960950D01*
X2359171Y1960830D01*
X2359171Y1960830D01*
G37*
D22*
X2324220Y1890950D03*
D20*
X4298700Y1833800D03*
X4168700Y1833800D03*
D23*
X7300000Y400000D03*
D24*
X5556000Y1735000D03*
X107600Y1804800D03*
X107600Y604800D03*
X5068320Y3484800D03*
X2436960Y1158080D03*
X7892800Y604800D03*
X2243840Y2077640D03*
X2929948Y2593093D03*
X1436120Y3065700D03*
X1403100Y1986200D03*
X7892800Y3004800D03*
X7892800Y2404800D03*
X7892800Y1204800D03*
X7892800Y1804800D03*
X7283200Y106600D03*
X5483200Y3484800D03*
X7283200Y3484800D03*
X6683200Y3484800D03*
X3517200Y106600D03*
X2917200Y106600D03*
X107600Y2404800D03*
X107600Y3004800D03*
X517200Y106600D03*
X1117200Y106600D03*
X1717200Y106600D03*
X2317200Y106600D03*
X6083200Y3484800D03*
X5497000Y106600D03*
X6513000Y106600D03*
X6005000Y106600D03*
X4989000Y106600D03*
X7022850Y773350D03*
X2073660Y2809160D03*
X1225300Y2810000D03*
X3516380Y2177970D03*
X3267460Y2177970D03*
X3986280Y2405300D03*
X3854200Y2898060D03*
X3600200Y2898060D03*
X3144000Y2865000D03*
X3811020Y2235120D03*
X3678940Y2593260D03*
X3521460Y2738040D03*
X3043085Y2479956D03*
X1631700Y2809160D03*
X783340Y1584880D03*
X1403100Y2443400D03*
X3986280Y2669460D03*
X783340Y1000680D03*
X417580Y2113200D03*
X417580Y2682160D03*
X1060200Y1816020D03*
X2469900Y2077640D03*
X1206250Y664500D03*
X1717900Y750000D03*
X2551180Y299640D03*
X2276860Y2621200D03*
X5175000Y2717800D03*
X4268020Y1428580D03*
X4794000Y2012000D03*
X6487550Y2468800D03*
X5848100Y2468800D03*
X7300000Y1240200D03*
X7300000Y2640200D03*
X2355600Y2202100D03*
X1682500Y2519600D03*
X4921000Y2012000D03*
X6487550Y1840200D03*
X2138000Y1560000D03*
X1608840Y1816020D03*
X1519940Y1816020D03*
X1431040Y1816020D03*
X2529960Y1738920D03*
X5599500Y3167300D03*
X4794000Y1735000D03*
X4268020Y1639200D03*
X4350570Y1639200D03*
X4684850Y2632700D03*
X4357910Y2632700D03*
X2194080Y1244000D03*
X2679450Y703500D03*
X2491490Y2237660D03*
X5370000Y1000000D03*
X5624000Y1000000D03*
X2673100Y2974260D03*
X2927100Y2974260D03*
X2800100Y2903140D03*
X2546100Y2903140D03*
X2474506Y2367200D03*
X6894000Y1000000D03*
X6487550Y1406450D03*
X6640000Y1000000D03*
X2596533Y2358310D03*
X6345550Y1489920D03*
X2419100Y2974260D03*
X6386000Y1000000D03*
X6132000Y1000000D03*
X3316990Y1299130D03*
X3471930Y1454070D03*
X3008380Y728900D03*
X2863600Y1173400D03*
X5878000Y1000000D03*
X3132840Y1368980D03*
X3305560Y1541700D03*
X2919480Y652700D03*
X2657860Y1224200D03*
X2406400Y507920D03*
X5116000Y1000000D03*
X5043860Y3240960D03*
X4461020Y1428580D03*
D25*
X2529960Y1738920D02*
X2529960Y1890210D01*
D26*
X4357910Y2632700D02*
X4684850Y2632700D01*
D27*
X2044080Y1738920D02*
X3847480Y1738920D01*
X1966980Y1816020D02*
X2044080Y1738920D01*
X1431040Y1816020D02*
X1966980Y1816020D01*
X3947200Y1639200D02*
X3847480Y1738920D01*
X4350570Y1639200D02*
X3947200Y1639200D01*
D28*
X6089400Y3167300D02*
X5599500Y3167300D01*
D25*
X4794000Y1735000D02*
X4794000Y1858000D01*
D28*
X2679450Y703500D02*
X2679450Y1052750D01*
X2488200Y1244000D02*
X2679450Y1052750D01*
X2194080Y1244000D02*
X2488200Y1244000D01*
X3933575Y1887775D02*
X2841375Y1887775D01*
X3987550Y1833800D02*
X3933575Y1887775D01*
X4168700Y1833800D02*
X3987550Y1833800D01*
X2841375Y1887775D02*
X2491490Y2237660D01*
X5370000Y503000D02*
X5370000Y1000000D01*
X5624000Y503000D02*
X5624000Y1000000D01*
X3304921Y3131101D02*
X2829941Y3131101D01*
X3341910Y3168090D02*
X3304921Y3131101D01*
X3341910Y3349070D02*
X3341910Y3168090D01*
X2829941Y3131101D02*
X2673100Y2974260D01*
X3595910Y3140150D02*
X3546860Y3091100D01*
X3043940Y3091100D02*
X3546860Y3091100D01*
X3043940Y3091100D02*
X2927100Y2974260D01*
X3595910Y3140150D02*
X3595910Y3349070D01*
X3849910Y3140150D02*
X3760859Y3051099D01*
X3760859Y3051099D02*
X3136019Y3051099D01*
X2800100Y2903140D02*
X2988060Y2903140D01*
X3136019Y3051099D02*
X2988060Y2903140D01*
X3849910Y3349070D02*
X3849910Y3140150D01*
X4103910Y3114750D02*
X4000258Y3011098D01*
X3164598Y3011098D02*
X4000258Y3011098D01*
X2982980Y2829480D02*
X3164598Y3011098D01*
X4103910Y3114750D02*
X4103910Y3349070D01*
X2546100Y2903140D02*
X2619760Y2829480D01*
X2619760Y2829480D02*
X2982980Y2829480D01*
X6894000Y503000D02*
X6894000Y1000000D01*
X6421020Y1339920D02*
X6487550Y1406450D01*
X2474506Y2367200D02*
X2842806Y1998900D01*
X2842806Y1998900D02*
X4442040Y1998900D01*
X4442040Y1998900D02*
X4541020Y1899920D01*
X4541020Y1899920D02*
X4541020Y1529920D01*
X4541020Y1529920D02*
X4731020Y1339920D01*
X4731020Y1339920D02*
X6421020Y1339920D01*
X6640000Y503000D02*
X6640000Y1000000D01*
X6345550Y1489920D02*
X6265550Y1409920D01*
X2879743Y2075100D02*
X2596533Y2358310D01*
X6265550Y1409920D02*
X4751020Y1409920D01*
X4751020Y1409920D02*
X4616020Y1544920D01*
X4616020Y1544920D02*
X4616020Y1941930D01*
X4616020Y1941930D02*
X4482850Y2075100D01*
X4482850Y2075100D02*
X2879743Y2075100D01*
X2257048Y2974260D02*
X2071910Y3159398D01*
X2419100Y2974260D02*
X2257048Y2974260D01*
X2071910Y3159398D02*
X2071910Y3349070D01*
X6386000Y503000D02*
X6386000Y1000000D01*
X3316990Y1299130D02*
X3471930Y1454070D01*
X6132000Y503000D02*
X6132000Y1000000D01*
X3008380Y1028620D02*
X2863600Y1173400D01*
X3008380Y728900D02*
X3008380Y1028620D01*
X3132840Y1368980D02*
X3305560Y1541700D01*
X5878000Y503000D02*
X5878000Y1000000D01*
X2805180Y652700D02*
X2660400Y507920D01*
X2919480Y652700D02*
X2805180Y652700D01*
X2406400Y507920D02*
X2660400Y507920D01*
X2919480Y962580D02*
X2657860Y1224200D01*
X2919480Y652700D02*
X2919480Y962580D01*
X5116000Y503000D02*
X5116000Y1000000D01*
D26*
X4611910Y3349070D02*
X5132422Y3349070D01*
X5132422Y3349070D02*
X5173860Y3307632D01*
X5173860Y3139896D02*
X5173860Y3307632D01*
D25*
X5043860Y3139896D02*
X5043860Y3240960D01*
D28*
X4298700Y1833800D02*
X4417140Y1833800D01*
X4461020Y1789920D02*
X4417140Y1833800D01*
X4461020Y1789920D02*
X4461020Y1428580D01*
D29*
G36*
X7655517Y3529409D02*
G01*
X7622186Y3507139D01*
X7593841Y3478794D01*
X7571571Y3445463D01*
X7556230Y3408429D01*
X7548410Y3369113D01*
X7548410Y3329027D01*
X7556230Y3289711D01*
X7571571Y3252677D01*
X7593841Y3219346D01*
X7622186Y3191001D01*
X7655517Y3168731D01*
X7692551Y3153390D01*
X7731867Y3145570D01*
X7771953Y3145570D01*
X7811269Y3153390D01*
X7848303Y3168731D01*
X7881634Y3191001D01*
X7909979Y3219346D01*
X7932249Y3252677D01*
X7944000Y3281045D01*
X7944000Y316899D01*
X7932197Y345393D01*
X7909927Y378724D01*
X7881582Y407069D01*
X7848251Y429339D01*
X7811217Y444680D01*
X7771901Y452500D01*
X7731815Y452500D01*
X7692499Y444680D01*
X7655465Y429339D01*
X7622134Y407069D01*
X7593789Y378724D01*
X7571519Y345393D01*
X7556178Y308359D01*
X7548358Y269043D01*
X7548358Y228957D01*
X7556178Y189641D01*
X7571519Y152607D01*
X7593789Y119276D01*
X7622134Y90931D01*
X7655465Y68661D01*
X7686030Y56000D01*
X317828Y56000D01*
X348393Y68661D01*
X381724Y90931D01*
X410069Y119276D01*
X432339Y152607D01*
X437059Y164000D01*
X3951193Y164000D01*
X3952419Y151552D01*
X3956050Y139582D01*
X3961946Y128551D01*
X3969881Y118881D01*
X3979551Y110946D01*
X3990582Y105050D01*
X4002552Y101419D01*
X4015000Y100193D01*
X4071425Y100500D01*
X4087300Y116375D01*
X4087300Y236300D01*
X4112700Y236300D01*
X4112700Y116375D01*
X4128575Y100500D01*
X4185000Y100193D01*
X4197448Y101419D01*
X4209418Y105050D01*
X4220449Y110946D01*
X4230119Y118881D01*
X4238054Y128551D01*
X4243950Y139582D01*
X4246397Y147647D01*
X4253973Y139241D01*
X4277308Y121836D01*
X4303590Y109317D01*
X4318311Y104852D01*
X4341300Y116984D01*
X4341300Y236300D01*
X4366700Y236300D01*
X4366700Y116984D01*
X4389689Y104852D01*
X4404410Y109317D01*
X4430692Y121836D01*
X4454027Y139241D01*
X4473518Y160865D01*
X4481000Y173426D01*
X4488482Y160865D01*
X4507973Y139241D01*
X4531308Y121836D01*
X4557590Y109317D01*
X4572311Y104852D01*
X4595300Y116984D01*
X4595300Y236300D01*
X4366700Y236300D01*
X4341300Y236300D01*
X4112700Y236300D01*
X4087300Y236300D01*
X3967375Y236300D01*
X3951500Y220425D01*
X3951193Y164000D01*
X437059Y164000D01*
X447680Y189641D01*
X455500Y228957D01*
X455500Y269043D01*
X447680Y308359D01*
X437059Y334000D01*
X3951193Y334000D01*
X3951500Y277575D01*
X3967375Y261700D01*
X4087300Y261700D01*
X4087300Y263700D01*
X4112700Y263700D01*
X4112700Y261700D01*
X4341300Y261700D01*
X4341300Y263700D01*
X4366700Y263700D01*
X4366700Y261700D01*
X4595300Y261700D01*
X4595300Y263700D01*
X4620700Y263700D01*
X4620700Y261700D01*
X4622700Y261700D01*
X4622700Y236300D01*
X4620700Y236300D01*
X4620700Y116984D01*
X4643689Y104852D01*
X4658410Y109317D01*
X4684692Y121836D01*
X4708027Y139241D01*
X4727518Y160865D01*
X4740456Y182585D01*
X4746284Y171681D01*
X4763592Y150592D01*
X4784681Y133284D01*
X4808742Y120424D01*
X4834849Y112504D01*
X4855196Y110500D01*
X4868804Y110500D01*
X4889151Y112504D01*
X4915258Y120424D01*
X4939319Y133284D01*
X4960408Y150592D01*
X4977716Y171681D01*
X4989000Y192793D01*
X5000284Y171681D01*
X5017592Y150592D01*
X5038681Y133284D01*
X5062742Y120424D01*
X5088849Y112504D01*
X5109196Y110500D01*
X5122804Y110500D01*
X5143151Y112504D01*
X5169258Y120424D01*
X5193319Y133284D01*
X5214408Y150592D01*
X5231716Y171681D01*
X5243000Y192793D01*
X5254284Y171681D01*
X5271592Y150592D01*
X5292681Y133284D01*
X5316742Y120424D01*
X5342849Y112504D01*
X5363196Y110500D01*
X5376804Y110500D01*
X5397151Y112504D01*
X5423258Y120424D01*
X5447319Y133284D01*
X5468408Y150592D01*
X5485716Y171681D01*
X5497000Y192793D01*
X5508284Y171681D01*
X5525592Y150592D01*
X5546681Y133284D01*
X5570742Y120424D01*
X5596849Y112504D01*
X5617196Y110500D01*
X5630804Y110500D01*
X5651151Y112504D01*
X5677258Y120424D01*
X5701319Y133284D01*
X5722408Y150592D01*
X5739716Y171681D01*
X5751000Y192793D01*
X5762284Y171681D01*
X5779592Y150592D01*
X5800681Y133284D01*
X5824742Y120424D01*
X5850849Y112504D01*
X5871196Y110500D01*
X5884804Y110500D01*
X5905151Y112504D01*
X5931258Y120424D01*
X5955319Y133284D01*
X5976408Y150592D01*
X5993716Y171681D01*
X6005000Y192793D01*
X6016284Y171681D01*
X6033592Y150592D01*
X6054681Y133284D01*
X6078742Y120424D01*
X6104849Y112504D01*
X6125196Y110500D01*
X6138804Y110500D01*
X6159151Y112504D01*
X6185258Y120424D01*
X6209319Y133284D01*
X6230408Y150592D01*
X6247716Y171681D01*
X6259000Y192793D01*
X6270284Y171681D01*
X6287592Y150592D01*
X6308681Y133284D01*
X6332742Y120424D01*
X6358849Y112504D01*
X6379196Y110500D01*
X6392804Y110500D01*
X6413151Y112504D01*
X6439258Y120424D01*
X6463319Y133284D01*
X6484408Y150592D01*
X6501716Y171681D01*
X6513000Y192793D01*
X6524284Y171681D01*
X6541592Y150592D01*
X6562681Y133284D01*
X6586742Y120424D01*
X6612849Y112504D01*
X6633196Y110500D01*
X6646804Y110500D01*
X6667151Y112504D01*
X6693258Y120424D01*
X6717319Y133284D01*
X6738408Y150592D01*
X6755716Y171681D01*
X6767000Y192793D01*
X6778284Y171681D01*
X6795592Y150592D01*
X6816681Y133284D01*
X6840742Y120424D01*
X6866849Y112504D01*
X6887196Y110500D01*
X6900804Y110500D01*
X6921151Y112504D01*
X6947258Y120424D01*
X6971319Y133284D01*
X6992408Y150592D01*
X7009716Y171681D01*
X7022576Y195742D01*
X7030496Y221849D01*
X7033170Y249000D01*
X7030496Y276151D01*
X7022576Y302258D01*
X7009716Y326319D01*
X6992408Y347408D01*
X6971319Y364716D01*
X6950207Y376000D01*
X6971319Y387284D01*
X6992408Y404592D01*
X6997749Y411100D01*
X7187300Y411100D01*
X7187300Y388900D01*
X7191631Y367127D01*
X7200127Y346617D01*
X7212460Y328158D01*
X7228158Y312460D01*
X7246616Y300127D01*
X7267127Y291631D01*
X7288900Y287300D01*
X7311100Y287300D01*
X7332873Y291631D01*
X7353383Y300127D01*
X7371842Y312460D01*
X7387540Y328158D01*
X7399873Y346617D01*
X7408369Y367127D01*
X7412700Y388900D01*
X7412700Y411100D01*
X7408369Y432873D01*
X7399873Y453383D01*
X7387540Y471842D01*
X7371842Y487540D01*
X7353383Y499873D01*
X7332873Y508369D01*
X7311100Y512700D01*
X7288900Y512700D01*
X7267127Y508369D01*
X7246616Y499873D01*
X7228158Y487540D01*
X7212460Y471842D01*
X7200127Y453383D01*
X7191631Y432873D01*
X7187300Y411100D01*
X6997749Y411100D01*
X7009716Y425681D01*
X7022576Y449742D01*
X7030496Y475849D01*
X7033170Y503000D01*
X7030496Y530151D01*
X7022576Y556258D01*
X7009716Y580319D01*
X6992408Y601408D01*
X6971319Y618716D01*
X6957500Y626102D01*
X6957500Y931271D01*
X6966626Y940397D01*
X6976859Y955711D01*
X6983907Y972727D01*
X6987500Y990791D01*
X6987500Y1009209D01*
X6983907Y1027273D01*
X6976859Y1044289D01*
X6966626Y1059603D01*
X6953603Y1072626D01*
X6938289Y1082859D01*
X6921273Y1089907D01*
X6903209Y1093500D01*
X6884791Y1093500D01*
X6866727Y1089907D01*
X6849711Y1082859D01*
X6834397Y1072626D01*
X6821374Y1059603D01*
X6811141Y1044289D01*
X6804093Y1027273D01*
X6800500Y1009209D01*
X6800500Y990791D01*
X6804093Y972727D01*
X6811141Y955711D01*
X6821374Y940397D01*
X6830500Y931271D01*
X6830500Y626102D01*
X6816681Y618716D01*
X6795592Y601408D01*
X6778284Y580319D01*
X6767000Y559207D01*
X6755716Y580319D01*
X6738408Y601408D01*
X6717319Y618716D01*
X6703500Y626102D01*
X6703500Y931271D01*
X6712626Y940397D01*
X6722859Y955711D01*
X6729907Y972727D01*
X6733500Y990791D01*
X6733500Y1009209D01*
X6729907Y1027273D01*
X6722859Y1044289D01*
X6712626Y1059603D01*
X6699603Y1072626D01*
X6684289Y1082859D01*
X6667273Y1089907D01*
X6649209Y1093500D01*
X6630791Y1093500D01*
X6612727Y1089907D01*
X6595711Y1082859D01*
X6580397Y1072626D01*
X6567374Y1059603D01*
X6557141Y1044289D01*
X6550093Y1027273D01*
X6546500Y1009209D01*
X6546500Y990791D01*
X6550093Y972727D01*
X6557141Y955711D01*
X6567374Y940397D01*
X6576500Y931271D01*
X6576500Y626102D01*
X6562681Y618716D01*
X6541592Y601408D01*
X6524284Y580319D01*
X6513000Y559207D01*
X6501716Y580319D01*
X6484408Y601408D01*
X6463319Y618716D01*
X6449500Y626102D01*
X6449500Y931271D01*
X6458626Y940397D01*
X6468859Y955711D01*
X6475907Y972727D01*
X6479500Y990791D01*
X6479500Y1009209D01*
X6475907Y1027273D01*
X6468859Y1044289D01*
X6458626Y1059603D01*
X6445603Y1072626D01*
X6430289Y1082859D01*
X6413273Y1089907D01*
X6395209Y1093500D01*
X6376791Y1093500D01*
X6358727Y1089907D01*
X6341711Y1082859D01*
X6326397Y1072626D01*
X6313374Y1059603D01*
X6303141Y1044289D01*
X6296093Y1027273D01*
X6292500Y1009209D01*
X6292500Y990791D01*
X6296093Y972727D01*
X6303141Y955711D01*
X6313374Y940397D01*
X6322500Y931271D01*
X6322500Y626102D01*
X6308681Y618716D01*
X6287592Y601408D01*
X6270284Y580319D01*
X6259000Y559207D01*
X6247716Y580319D01*
X6230408Y601408D01*
X6209319Y618716D01*
X6195500Y626102D01*
X6195500Y931271D01*
X6204626Y940397D01*
X6214859Y955711D01*
X6221907Y972727D01*
X6225500Y990791D01*
X6225500Y1009209D01*
X6221907Y1027273D01*
X6214859Y1044289D01*
X6204626Y1059603D01*
X6191603Y1072626D01*
X6176289Y1082859D01*
X6159273Y1089907D01*
X6141209Y1093500D01*
X6122791Y1093500D01*
X6104727Y1089907D01*
X6087711Y1082859D01*
X6072397Y1072626D01*
X6059374Y1059603D01*
X6049141Y1044289D01*
X6042093Y1027273D01*
X6038500Y1009209D01*
X6038500Y990791D01*
X6042093Y972727D01*
X6049141Y955711D01*
X6059374Y940397D01*
X6068500Y931271D01*
X6068500Y626102D01*
X6054681Y618716D01*
X6033592Y601408D01*
X6016284Y580319D01*
X6005000Y559207D01*
X5993716Y580319D01*
X5976408Y601408D01*
X5955319Y618716D01*
X5941500Y626102D01*
X5941500Y931271D01*
X5950626Y940397D01*
X5960859Y955711D01*
X5967907Y972727D01*
X5971500Y990791D01*
X5971500Y1009209D01*
X5967907Y1027273D01*
X5960859Y1044289D01*
X5950626Y1059603D01*
X5937603Y1072626D01*
X5922289Y1082859D01*
X5905273Y1089907D01*
X5887209Y1093500D01*
X5868791Y1093500D01*
X5850727Y1089907D01*
X5833711Y1082859D01*
X5818397Y1072626D01*
X5805374Y1059603D01*
X5795141Y1044289D01*
X5788093Y1027273D01*
X5784500Y1009209D01*
X5784500Y990791D01*
X5788093Y972727D01*
X5795141Y955711D01*
X5805374Y940397D01*
X5814500Y931271D01*
X5814500Y626102D01*
X5800681Y618716D01*
X5779592Y601408D01*
X5762284Y580319D01*
X5751000Y559207D01*
X5739716Y580319D01*
X5722408Y601408D01*
X5701319Y618716D01*
X5687500Y626102D01*
X5687500Y931271D01*
X5696626Y940397D01*
X5706859Y955711D01*
X5713907Y972727D01*
X5717500Y990791D01*
X5717500Y1009209D01*
X5713907Y1027273D01*
X5706859Y1044289D01*
X5696626Y1059603D01*
X5683603Y1072626D01*
X5668289Y1082859D01*
X5651273Y1089907D01*
X5633209Y1093500D01*
X5614791Y1093500D01*
X5596727Y1089907D01*
X5579711Y1082859D01*
X5564397Y1072626D01*
X5551374Y1059603D01*
X5541141Y1044289D01*
X5534093Y1027273D01*
X5530500Y1009209D01*
X5530500Y990791D01*
X5534093Y972727D01*
X5541141Y955711D01*
X5551374Y940397D01*
X5560500Y931271D01*
X5560500Y626102D01*
X5546681Y618716D01*
X5525592Y601408D01*
X5508284Y580319D01*
X5497000Y559207D01*
X5485716Y580319D01*
X5468408Y601408D01*
X5447319Y618716D01*
X5433500Y626102D01*
X5433500Y931271D01*
X5442626Y940397D01*
X5452859Y955711D01*
X5459907Y972727D01*
X5463500Y990791D01*
X5463500Y1009209D01*
X5459907Y1027273D01*
X5452859Y1044289D01*
X5442626Y1059603D01*
X5429603Y1072626D01*
X5414289Y1082859D01*
X5397273Y1089907D01*
X5379209Y1093500D01*
X5360791Y1093500D01*
X5342727Y1089907D01*
X5325711Y1082859D01*
X5310397Y1072626D01*
X5297374Y1059603D01*
X5287141Y1044289D01*
X5280093Y1027273D01*
X5276500Y1009209D01*
X5276500Y990791D01*
X5280093Y972727D01*
X5287141Y955711D01*
X5297374Y940397D01*
X5306500Y931271D01*
X5306500Y626102D01*
X5292681Y618716D01*
X5271592Y601408D01*
X5254284Y580319D01*
X5243000Y559207D01*
X5231716Y580319D01*
X5214408Y601408D01*
X5193319Y618716D01*
X5179500Y626102D01*
X5179500Y931271D01*
X5188626Y940397D01*
X5198859Y955711D01*
X5205907Y972727D01*
X5209500Y990791D01*
X5209500Y1009209D01*
X5205907Y1027273D01*
X5198859Y1044289D01*
X5188626Y1059603D01*
X5175603Y1072626D01*
X5160289Y1082859D01*
X5143273Y1089907D01*
X5125209Y1093500D01*
X5106791Y1093500D01*
X5088727Y1089907D01*
X5071711Y1082859D01*
X5056397Y1072626D01*
X5043374Y1059603D01*
X5033141Y1044289D01*
X5026093Y1027273D01*
X5022500Y1009209D01*
X5022500Y990791D01*
X5026093Y972727D01*
X5033141Y955711D01*
X5043374Y940397D01*
X5052500Y931271D01*
X5052500Y626102D01*
X5038681Y618716D01*
X5017592Y601408D01*
X5000284Y580319D01*
X4989000Y559207D01*
X4977716Y580319D01*
X4960408Y601408D01*
X4939319Y618716D01*
X4915258Y631576D01*
X4889151Y639496D01*
X4868804Y641500D01*
X4855196Y641500D01*
X4834849Y639496D01*
X4808742Y631576D01*
X4784681Y618716D01*
X4763592Y601408D01*
X4746284Y580319D01*
X4735000Y559207D01*
X4723716Y580319D01*
X4706408Y601408D01*
X4685319Y618716D01*
X4661258Y631576D01*
X4635151Y639496D01*
X4614804Y641500D01*
X4601196Y641500D01*
X4580849Y639496D01*
X4554742Y631576D01*
X4530681Y618716D01*
X4509592Y601408D01*
X4492284Y580319D01*
X4481000Y559207D01*
X4469716Y580319D01*
X4452408Y601408D01*
X4431319Y618716D01*
X4407258Y631576D01*
X4381151Y639496D01*
X4360804Y641500D01*
X4347196Y641500D01*
X4326849Y639496D01*
X4300742Y631576D01*
X4276681Y618716D01*
X4255592Y601408D01*
X4238284Y580319D01*
X4227000Y559207D01*
X4215716Y580319D01*
X4198408Y601408D01*
X4177319Y618716D01*
X4153258Y631576D01*
X4127151Y639496D01*
X4106804Y641500D01*
X4093196Y641500D01*
X4072849Y639496D01*
X4046742Y631576D01*
X4022681Y618716D01*
X4001592Y601408D01*
X3984284Y580319D01*
X3971424Y556258D01*
X3963504Y530151D01*
X3960830Y503000D01*
X3963504Y475849D01*
X3971424Y449742D01*
X3984284Y425681D01*
X4001592Y404592D01*
X4010410Y397355D01*
X4002552Y396581D01*
X3990582Y392950D01*
X3979551Y387054D01*
X3969881Y379118D01*
X3961946Y369449D01*
X3956050Y358418D01*
X3952419Y346448D01*
X3951193Y334000D01*
X437059Y334000D01*
X432339Y345393D01*
X410069Y378724D01*
X381724Y407069D01*
X348393Y429339D01*
X311359Y444680D01*
X272043Y452500D01*
X231957Y452500D01*
X192641Y444680D01*
X155607Y429339D01*
X122276Y407069D01*
X93931Y378724D01*
X71661Y345393D01*
X56320Y308359D01*
X56000Y306748D01*
X56000Y1125000D01*
X117241Y1125000D01*
X117241Y825000D01*
X118274Y814512D01*
X121333Y804427D01*
X126301Y795133D01*
X132987Y786987D01*
X141133Y780301D01*
X150427Y775333D01*
X160512Y772274D01*
X171000Y771241D01*
X471000Y771241D01*
X481488Y772274D01*
X491573Y775333D01*
X500867Y780301D01*
X509013Y786987D01*
X515699Y795133D01*
X520667Y804427D01*
X523726Y814512D01*
X524759Y825000D01*
X524759Y1125000D01*
X523726Y1135488D01*
X520667Y1145573D01*
X515699Y1154867D01*
X509013Y1163013D01*
X500867Y1169699D01*
X491573Y1174667D01*
X481488Y1177726D01*
X471000Y1178759D01*
X171000Y1178759D01*
X160512Y1177726D01*
X150427Y1174667D01*
X141133Y1169699D01*
X132987Y1163013D01*
X126301Y1154867D01*
X121333Y1145573D01*
X118274Y1135488D01*
X117241Y1125000D01*
X56000Y1125000D01*
X56000Y1253209D01*
X2100580Y1253209D01*
X2100580Y1234791D01*
X2104173Y1216727D01*
X2111221Y1199711D01*
X2121454Y1184397D01*
X2134477Y1171374D01*
X2149791Y1161141D01*
X2166807Y1154093D01*
X2184871Y1150500D01*
X2203289Y1150500D01*
X2221353Y1154093D01*
X2238369Y1161141D01*
X2253683Y1171374D01*
X2262809Y1180500D01*
X2461898Y1180500D01*
X2615950Y1026447D01*
X2615950Y772229D01*
X2606824Y763103D01*
X2596591Y747789D01*
X2589543Y730773D01*
X2585950Y712709D01*
X2585950Y694291D01*
X2589543Y676227D01*
X2596591Y659211D01*
X2606824Y643897D01*
X2619847Y630874D01*
X2635161Y620641D01*
X2652177Y613593D01*
X2670241Y610000D01*
X2672678Y610000D01*
X2634098Y571420D01*
X2475129Y571420D01*
X2466003Y580546D01*
X2450689Y590779D01*
X2433673Y597827D01*
X2415609Y601420D01*
X2397191Y601420D01*
X2379127Y597827D01*
X2362111Y590779D01*
X2346797Y580546D01*
X2333774Y567523D01*
X2323541Y552209D01*
X2316493Y535193D01*
X2312900Y517129D01*
X2312900Y498711D01*
X2316493Y480647D01*
X2323541Y463631D01*
X2333774Y448317D01*
X2346797Y435294D01*
X2362111Y425061D01*
X2379127Y418013D01*
X2397191Y414420D01*
X2415609Y414420D01*
X2433673Y418013D01*
X2450689Y425061D01*
X2466003Y435294D01*
X2475129Y444420D01*
X2657282Y444420D01*
X2660400Y444113D01*
X2663518Y444420D01*
X2663519Y444420D01*
X2672848Y445339D01*
X2684818Y448970D01*
X2695849Y454866D01*
X2705519Y462801D01*
X2707507Y465225D01*
X2831483Y589200D01*
X2850751Y589200D01*
X2859877Y580074D01*
X2875191Y569841D01*
X2892207Y562793D01*
X2910271Y559200D01*
X2928689Y559200D01*
X2946753Y562793D01*
X2963769Y569841D01*
X2979083Y580074D01*
X2992106Y593097D01*
X3002339Y608411D01*
X3009387Y625427D01*
X3011371Y635400D01*
X3017589Y635400D01*
X3035653Y638993D01*
X3052669Y646041D01*
X3067983Y656274D01*
X3081006Y669297D01*
X3091239Y684611D01*
X3098287Y701627D01*
X3101880Y719691D01*
X3101880Y738109D01*
X3098287Y756173D01*
X3091239Y773189D01*
X3081006Y788503D01*
X3071880Y797629D01*
X3071880Y1025502D01*
X3072187Y1028620D01*
X3071880Y1031738D01*
X3071880Y1031739D01*
X3070961Y1041068D01*
X3067330Y1053038D01*
X3061574Y1063807D01*
X3061434Y1064070D01*
X3055487Y1071316D01*
X3055486Y1071316D01*
X3053498Y1073739D01*
X3051076Y1075727D01*
X2957100Y1169703D01*
X2957100Y1182609D01*
X2953507Y1200673D01*
X2946459Y1217689D01*
X2936226Y1233003D01*
X2923203Y1246026D01*
X2907889Y1256259D01*
X2890873Y1263307D01*
X2872809Y1266900D01*
X2854391Y1266900D01*
X2836327Y1263307D01*
X2819311Y1256259D01*
X2803997Y1246026D01*
X2790974Y1233003D01*
X2780741Y1217689D01*
X2773693Y1200673D01*
X2773278Y1198585D01*
X2751360Y1220502D01*
X2751360Y1233409D01*
X2747767Y1251473D01*
X2740719Y1268489D01*
X2730486Y1283803D01*
X2717463Y1296826D01*
X2702149Y1307059D01*
X2685133Y1314107D01*
X2667069Y1317700D01*
X2648651Y1317700D01*
X2630587Y1314107D01*
X2613571Y1307059D01*
X2598257Y1296826D01*
X2585234Y1283803D01*
X2575001Y1268489D01*
X2568708Y1253295D01*
X2535307Y1286695D01*
X2533319Y1289119D01*
X2523649Y1297054D01*
X2512618Y1302950D01*
X2500648Y1306581D01*
X2491319Y1307500D01*
X2491318Y1307500D01*
X2488200Y1307807D01*
X2485082Y1307500D01*
X2262809Y1307500D01*
X2253683Y1316626D01*
X2238369Y1326859D01*
X2221353Y1333907D01*
X2203289Y1337500D01*
X2184871Y1337500D01*
X2166807Y1333907D01*
X2149791Y1326859D01*
X2134477Y1316626D01*
X2121454Y1303603D01*
X2111221Y1288289D01*
X2104173Y1271273D01*
X2100580Y1253209D01*
X56000Y1253209D01*
X56000Y1333835D01*
X189795Y1333835D01*
X205396Y1302279D01*
X242874Y1283198D01*
X283355Y1271796D01*
X325282Y1268510D01*
X367045Y1273467D01*
X407038Y1286476D01*
X436604Y1302279D01*
X452205Y1333835D01*
X321000Y1465039D01*
X189795Y1333835D01*
X56000Y1333835D01*
X56000Y1478718D01*
X106510Y1478718D01*
X111467Y1436955D01*
X124476Y1396962D01*
X140279Y1367396D01*
X171835Y1351795D01*
X303040Y1483000D01*
X338961Y1483000D01*
X470165Y1351795D01*
X501721Y1367396D01*
X507216Y1378189D01*
X3039340Y1378189D01*
X3039340Y1359771D01*
X3042933Y1341707D01*
X3049981Y1324691D01*
X3060214Y1309377D01*
X3073237Y1296354D01*
X3088551Y1286121D01*
X3105567Y1279073D01*
X3123631Y1275480D01*
X3142049Y1275480D01*
X3160113Y1279073D01*
X3177129Y1286121D01*
X3192443Y1296354D01*
X3204428Y1308339D01*
X3223490Y1308339D01*
X3223490Y1289921D01*
X3227083Y1271857D01*
X3234131Y1254841D01*
X3244364Y1239527D01*
X3257387Y1226504D01*
X3272701Y1216271D01*
X3289717Y1209223D01*
X3307781Y1205630D01*
X3326199Y1205630D01*
X3344263Y1209223D01*
X3361279Y1216271D01*
X3376593Y1226504D01*
X3389616Y1239527D01*
X3399849Y1254841D01*
X3406897Y1271857D01*
X3410490Y1289921D01*
X3410490Y1302828D01*
X3468232Y1360570D01*
X3481139Y1360570D01*
X3499203Y1364163D01*
X3516219Y1371211D01*
X3531533Y1381444D01*
X3544556Y1394467D01*
X3554789Y1409781D01*
X3561837Y1426797D01*
X3565430Y1444861D01*
X3565430Y1463279D01*
X3561837Y1481343D01*
X3554789Y1498359D01*
X3544556Y1513673D01*
X3531533Y1526696D01*
X3516219Y1536929D01*
X3499203Y1543977D01*
X3481139Y1547570D01*
X3462721Y1547570D01*
X3444657Y1543977D01*
X3427641Y1536929D01*
X3412327Y1526696D01*
X3399304Y1513673D01*
X3389071Y1498359D01*
X3382023Y1481343D01*
X3378430Y1463279D01*
X3378430Y1450372D01*
X3320687Y1392630D01*
X3307781Y1392630D01*
X3289717Y1389037D01*
X3272701Y1381989D01*
X3257387Y1371756D01*
X3244364Y1358733D01*
X3234131Y1343419D01*
X3227083Y1326403D01*
X3223490Y1308339D01*
X3204428Y1308339D01*
X3205466Y1309377D01*
X3215699Y1324691D01*
X3222747Y1341707D01*
X3226340Y1359771D01*
X3226340Y1372678D01*
X3301862Y1448200D01*
X3314769Y1448200D01*
X3332833Y1451793D01*
X3349849Y1458841D01*
X3365163Y1469074D01*
X3378186Y1482097D01*
X3388419Y1497411D01*
X3395467Y1514427D01*
X3399060Y1532491D01*
X3399060Y1550909D01*
X3395467Y1568973D01*
X3388419Y1585989D01*
X3378186Y1601303D01*
X3365163Y1614326D01*
X3349849Y1624559D01*
X3332833Y1631607D01*
X3314769Y1635200D01*
X3296351Y1635200D01*
X3278287Y1631607D01*
X3261271Y1624559D01*
X3245957Y1614326D01*
X3232934Y1601303D01*
X3222701Y1585989D01*
X3215653Y1568973D01*
X3212060Y1550909D01*
X3212060Y1538002D01*
X3136537Y1462480D01*
X3123631Y1462480D01*
X3105567Y1458887D01*
X3088551Y1451839D01*
X3073237Y1441606D01*
X3060214Y1428583D01*
X3049981Y1413269D01*
X3042933Y1396253D01*
X3039340Y1378189D01*
X507216Y1378189D01*
X520802Y1404874D01*
X532204Y1445355D01*
X535490Y1487282D01*
X530533Y1529045D01*
X517524Y1569038D01*
X501721Y1598604D01*
X470165Y1614205D01*
X338961Y1483000D01*
X303040Y1483000D01*
X171835Y1614205D01*
X140279Y1598604D01*
X121198Y1561125D01*
X109796Y1520645D01*
X106510Y1478718D01*
X56000Y1478718D01*
X56000Y1632165D01*
X189795Y1632165D01*
X321000Y1500960D01*
X452205Y1632165D01*
X436604Y1663721D01*
X399125Y1682802D01*
X358645Y1694204D01*
X316718Y1697490D01*
X274955Y1692533D01*
X234962Y1679524D01*
X205396Y1663721D01*
X189795Y1632165D01*
X56000Y1632165D01*
X56000Y1816020D01*
X1327039Y1816020D01*
X1329038Y1795730D01*
X1334956Y1776221D01*
X1344567Y1758240D01*
X1357500Y1742480D01*
X1373260Y1729547D01*
X1391241Y1719936D01*
X1410750Y1714018D01*
X1425956Y1712520D01*
X1924109Y1712520D01*
X1967300Y1669329D01*
X1970540Y1665380D01*
X1974489Y1662140D01*
X1986300Y1652447D01*
X1995911Y1647310D01*
X2004281Y1642836D01*
X2023790Y1636918D01*
X2038996Y1635420D01*
X2038996Y1635420D01*
X2044080Y1634919D01*
X2049163Y1635420D01*
X3804609Y1635420D01*
X3870420Y1569609D01*
X3873660Y1565660D01*
X3877609Y1562420D01*
X3889420Y1552727D01*
X3896635Y1548870D01*
X3907401Y1543116D01*
X3926910Y1537198D01*
X3942116Y1535700D01*
X3942116Y1535700D01*
X3947200Y1535199D01*
X3952283Y1535700D01*
X4355654Y1535700D01*
X4370860Y1537198D01*
X4390369Y1543116D01*
X4397520Y1546938D01*
X4397520Y1497309D01*
X4388394Y1488183D01*
X4378161Y1472869D01*
X4371113Y1455853D01*
X4367520Y1437789D01*
X4367520Y1419371D01*
X4371113Y1401307D01*
X4378161Y1384291D01*
X4388394Y1368977D01*
X4401417Y1355954D01*
X4416731Y1345721D01*
X4433747Y1338673D01*
X4451811Y1335080D01*
X4470229Y1335080D01*
X4488293Y1338673D01*
X4505309Y1345721D01*
X4520623Y1355954D01*
X4533646Y1368977D01*
X4543879Y1384291D01*
X4550927Y1401307D01*
X4554520Y1419371D01*
X4554520Y1426617D01*
X4683913Y1297224D01*
X4685902Y1294802D01*
X4688324Y1292814D01*
X4688324Y1292813D01*
X4695571Y1286866D01*
X4702523Y1283150D01*
X4706602Y1280970D01*
X4718572Y1277339D01*
X4727901Y1276420D01*
X4727901Y1276420D01*
X4731020Y1276113D01*
X4734139Y1276420D01*
X6417902Y1276420D01*
X6421020Y1276113D01*
X6424138Y1276420D01*
X6424139Y1276420D01*
X6433468Y1277339D01*
X6445438Y1280970D01*
X6456469Y1286866D01*
X6466138Y1294802D01*
X6468127Y1297225D01*
X6483852Y1312950D01*
X6496759Y1312950D01*
X6514823Y1316543D01*
X6531839Y1323591D01*
X6547153Y1333824D01*
X6560176Y1346847D01*
X6570409Y1362161D01*
X6577457Y1379177D01*
X6581050Y1397241D01*
X6581050Y1415659D01*
X6577457Y1433723D01*
X6570409Y1450739D01*
X6560176Y1466053D01*
X6547153Y1479076D01*
X6531839Y1489309D01*
X6514823Y1496357D01*
X6496759Y1499950D01*
X6478341Y1499950D01*
X6460277Y1496357D01*
X6443261Y1489309D01*
X6439050Y1486495D01*
X6439050Y1499129D01*
X6435457Y1517193D01*
X6428409Y1534209D01*
X6418176Y1549523D01*
X6405153Y1562546D01*
X6389839Y1572779D01*
X6372823Y1579827D01*
X6354759Y1583420D01*
X6336341Y1583420D01*
X6318277Y1579827D01*
X6301261Y1572779D01*
X6285947Y1562546D01*
X6272924Y1549523D01*
X6262691Y1534209D01*
X6255643Y1517193D01*
X6252050Y1499129D01*
X6252050Y1486222D01*
X6239248Y1473420D01*
X4777323Y1473420D01*
X4679520Y1571222D01*
X4679520Y1608439D01*
X6880754Y1608439D01*
X6881141Y1604672D01*
X6890358Y1582147D01*
X6903792Y1561853D01*
X6920927Y1544569D01*
X6941105Y1530961D01*
X6963550Y1521551D01*
X6987400Y1516700D01*
X7014900Y1516700D01*
X7014900Y1627500D01*
X7040300Y1627500D01*
X7040300Y1516700D01*
X7067800Y1516700D01*
X7091650Y1521551D01*
X7114095Y1530961D01*
X7134272Y1544569D01*
X7151408Y1561853D01*
X7164842Y1582147D01*
X7174059Y1604672D01*
X7174446Y1608439D01*
X7161973Y1627500D01*
X7040300Y1627500D01*
X7014900Y1627500D01*
X6893227Y1627500D01*
X6880754Y1608439D01*
X4679520Y1608439D01*
X4679520Y1903000D01*
X4682741Y1903000D01*
X4682741Y1813000D01*
X4684255Y1797635D01*
X4688736Y1782860D01*
X4696014Y1769244D01*
X4700500Y1763778D01*
X4700500Y1725791D01*
X4701401Y1721264D01*
X4701853Y1716671D01*
X4703193Y1712254D01*
X4704093Y1707727D01*
X4705860Y1703463D01*
X4707199Y1699046D01*
X4709375Y1694976D01*
X4711141Y1690711D01*
X4713706Y1686873D01*
X4715881Y1682803D01*
X4718809Y1679235D01*
X4721374Y1675397D01*
X4724638Y1672133D01*
X4727566Y1668566D01*
X4731134Y1665637D01*
X4734397Y1662374D01*
X4738235Y1659810D01*
X4741803Y1656881D01*
X4745874Y1654705D01*
X4749711Y1652141D01*
X4753975Y1650375D01*
X4758046Y1648199D01*
X4762463Y1646859D01*
X4766727Y1645093D01*
X4771254Y1644193D01*
X4775671Y1642853D01*
X4780264Y1642400D01*
X4784791Y1641500D01*
X4789407Y1641500D01*
X4794000Y1641048D01*
X4798593Y1641500D01*
X4803209Y1641500D01*
X4807736Y1642400D01*
X4812329Y1642853D01*
X4816746Y1644193D01*
X4821273Y1645093D01*
X4825537Y1646859D01*
X4829954Y1648199D01*
X4834024Y1650375D01*
X4838289Y1652141D01*
X4842127Y1654706D01*
X4846197Y1656881D01*
X4849765Y1659809D01*
X4853603Y1662374D01*
X4856867Y1665638D01*
X4860434Y1668566D01*
X4863221Y1671961D01*
X6880754Y1671961D01*
X6893227Y1652900D01*
X7014900Y1652900D01*
X7014900Y1654900D01*
X7040300Y1654900D01*
X7040300Y1652900D01*
X7161973Y1652900D01*
X7174446Y1671961D01*
X7174059Y1675728D01*
X7164842Y1698253D01*
X7151408Y1718547D01*
X7134272Y1735831D01*
X7119213Y1745987D01*
X7135745Y1759555D01*
X7149928Y1776838D01*
X7160468Y1796555D01*
X7166958Y1817950D01*
X7169149Y1840200D01*
X7166958Y1862450D01*
X7160468Y1883845D01*
X7149928Y1903562D01*
X7135745Y1920845D01*
X7118462Y1935028D01*
X7108787Y1940200D01*
X7118462Y1945372D01*
X7135745Y1959555D01*
X7149928Y1976838D01*
X7160468Y1996555D01*
X7166958Y2017950D01*
X7169149Y2040200D01*
X7166958Y2062450D01*
X7160468Y2083845D01*
X7149928Y2103562D01*
X7135745Y2120845D01*
X7118462Y2135028D01*
X7108787Y2140200D01*
X7118462Y2145372D01*
X7135745Y2159555D01*
X7149928Y2176838D01*
X7160468Y2196555D01*
X7166958Y2217950D01*
X7169149Y2240200D01*
X7166958Y2262450D01*
X7160468Y2283845D01*
X7149928Y2303562D01*
X7135745Y2320845D01*
X7118462Y2335028D01*
X7098745Y2345568D01*
X7077350Y2352058D01*
X7060675Y2353700D01*
X6994525Y2353700D01*
X6977850Y2352058D01*
X6956455Y2345568D01*
X6936738Y2335028D01*
X6919455Y2320845D01*
X6905272Y2303562D01*
X6894732Y2283845D01*
X6888242Y2262450D01*
X6886051Y2240200D01*
X6888242Y2217950D01*
X6894732Y2196555D01*
X6905272Y2176838D01*
X6919455Y2159555D01*
X6936738Y2145372D01*
X6946413Y2140200D01*
X6936738Y2135028D01*
X6919455Y2120845D01*
X6905272Y2103562D01*
X6894732Y2083845D01*
X6888242Y2062450D01*
X6886051Y2040200D01*
X6888242Y2017950D01*
X6894732Y1996555D01*
X6905272Y1976838D01*
X6919455Y1959555D01*
X6936738Y1945372D01*
X6946413Y1940200D01*
X6936738Y1935028D01*
X6919455Y1920845D01*
X6905272Y1903562D01*
X6894732Y1883845D01*
X6888242Y1862450D01*
X6886051Y1840200D01*
X6888242Y1817950D01*
X6894732Y1796555D01*
X6905272Y1776838D01*
X6919455Y1759555D01*
X6935987Y1745987D01*
X6920927Y1735831D01*
X6903792Y1718547D01*
X6890358Y1698253D01*
X6881141Y1675728D01*
X6880754Y1671961D01*
X4863221Y1671961D01*
X4863363Y1672133D01*
X4866626Y1675397D01*
X4869190Y1679235D01*
X4872119Y1682803D01*
X4874295Y1686874D01*
X4876859Y1690711D01*
X4878625Y1694975D01*
X4880801Y1699046D01*
X4882141Y1703463D01*
X4883907Y1707727D01*
X4884807Y1712254D01*
X4886147Y1716671D01*
X4886600Y1721264D01*
X4887500Y1725791D01*
X4887500Y1754321D01*
X4888446Y1752551D01*
X4896382Y1742881D01*
X4906051Y1734946D01*
X4917082Y1729050D01*
X4929052Y1725419D01*
X4941500Y1724193D01*
X4970425Y1724500D01*
X4986300Y1740375D01*
X4986300Y1845300D01*
X5011700Y1845300D01*
X5011700Y1740375D01*
X5027575Y1724500D01*
X5056500Y1724193D01*
X5068948Y1725419D01*
X5080918Y1729050D01*
X5091949Y1734946D01*
X5101619Y1742881D01*
X5109554Y1752551D01*
X5115450Y1763582D01*
X5119081Y1775552D01*
X5120307Y1788000D01*
X5120000Y1829425D01*
X5104125Y1845300D01*
X5011700Y1845300D01*
X4986300Y1845300D01*
X4984300Y1845300D01*
X4984300Y1870700D01*
X4986300Y1870700D01*
X4986300Y1975625D01*
X5011700Y1975625D01*
X5011700Y1870700D01*
X5104125Y1870700D01*
X5120000Y1886575D01*
X5120307Y1928000D01*
X5119081Y1940448D01*
X5115450Y1952418D01*
X5109554Y1963449D01*
X5101619Y1973118D01*
X5091949Y1981054D01*
X5080918Y1986950D01*
X5068948Y1990581D01*
X5056500Y1991807D01*
X5027575Y1991500D01*
X5011700Y1975625D01*
X4986300Y1975625D01*
X4970425Y1991500D01*
X4941500Y1991807D01*
X4929052Y1990581D01*
X4917082Y1986950D01*
X4906051Y1981054D01*
X4896382Y1973118D01*
X4888446Y1963449D01*
X4884439Y1955952D01*
X4882191Y1958691D01*
X4870256Y1968486D01*
X4856640Y1975764D01*
X4841865Y1980245D01*
X4826500Y1981759D01*
X4761500Y1981759D01*
X4746135Y1980245D01*
X4731360Y1975764D01*
X4717744Y1968486D01*
X4705809Y1958691D01*
X4696014Y1946756D01*
X4688736Y1933140D01*
X4684255Y1918365D01*
X4682741Y1903000D01*
X4679520Y1903000D01*
X4679520Y1938812D01*
X4679827Y1941930D01*
X4679520Y1945048D01*
X4679520Y1945049D01*
X4678601Y1954378D01*
X4674970Y1966348D01*
X4669074Y1977379D01*
X4661139Y1987048D01*
X4658716Y1989037D01*
X4529957Y2117795D01*
X4527969Y2120219D01*
X4518299Y2128154D01*
X4507268Y2134050D01*
X4495298Y2137681D01*
X4485969Y2138600D01*
X4485968Y2138600D01*
X4482850Y2138907D01*
X4479732Y2138600D01*
X2906045Y2138600D01*
X2690033Y2354612D01*
X2690033Y2367519D01*
X2686440Y2385583D01*
X2679391Y2402599D01*
X2669159Y2417913D01*
X2656136Y2430936D01*
X2640822Y2441169D01*
X2623806Y2448217D01*
X2605742Y2451810D01*
X2587324Y2451810D01*
X2569260Y2448217D01*
X2552244Y2441169D01*
X2540568Y2433367D01*
X2534108Y2439826D01*
X2518795Y2450059D01*
X2501779Y2457107D01*
X2483715Y2460700D01*
X2465297Y2460700D01*
X2447233Y2457107D01*
X2430217Y2450059D01*
X2414903Y2439826D01*
X2401879Y2426803D01*
X2391647Y2411489D01*
X2384599Y2394473D01*
X2381006Y2376409D01*
X2381006Y2357991D01*
X2384599Y2339927D01*
X2391647Y2322911D01*
X2401879Y2307597D01*
X2414903Y2294574D01*
X2416399Y2293574D01*
X2408631Y2281949D01*
X2401583Y2264933D01*
X2397990Y2246869D01*
X2397990Y2228451D01*
X2401583Y2210387D01*
X2408631Y2193371D01*
X2418864Y2178057D01*
X2431887Y2165034D01*
X2447201Y2154801D01*
X2464217Y2147753D01*
X2482281Y2144160D01*
X2495188Y2144160D01*
X2581660Y2057688D01*
X2581660Y2011808D01*
X2577085Y2013195D01*
X2561720Y2014709D01*
X2496720Y2014709D01*
X2481355Y2013195D01*
X2466580Y2008714D01*
X2452964Y2001436D01*
X2441029Y1991641D01*
X2438781Y1988902D01*
X2434774Y1996399D01*
X2426839Y2006068D01*
X2417169Y2014004D01*
X2406138Y2019900D01*
X2394168Y2023531D01*
X2381720Y2024757D01*
X2352795Y2024450D01*
X2336920Y2008575D01*
X2336920Y1903650D01*
X2338920Y1903650D01*
X2338920Y1878250D01*
X2336920Y1878250D01*
X2336920Y1876250D01*
X2311520Y1876250D01*
X2311520Y1878250D01*
X2219095Y1878250D01*
X2203220Y1862375D01*
X2203072Y1842420D01*
X2086951Y1842420D01*
X2043761Y1885610D01*
X2040520Y1889560D01*
X2024760Y1902493D01*
X2006779Y1912104D01*
X1987269Y1918022D01*
X1972064Y1919520D01*
X1972063Y1919520D01*
X1966980Y1920021D01*
X1961897Y1919520D01*
X1425956Y1919520D01*
X1410750Y1918022D01*
X1391241Y1912104D01*
X1373260Y1902493D01*
X1357500Y1889560D01*
X1344567Y1873800D01*
X1334956Y1855819D01*
X1329038Y1836309D01*
X1327039Y1816020D01*
X56000Y1816020D01*
X56000Y1960950D01*
X2202913Y1960950D01*
X2203220Y1919525D01*
X2219095Y1903650D01*
X2311520Y1903650D01*
X2311520Y2008575D01*
X2295645Y2024450D01*
X2266720Y2024757D01*
X2254272Y2023531D01*
X2242302Y2019900D01*
X2231271Y2014004D01*
X2221602Y2006068D01*
X2213666Y1996399D01*
X2207770Y1985368D01*
X2204139Y1973398D01*
X2202913Y1960950D01*
X56000Y1960950D01*
X56000Y2146644D01*
X730604Y2146644D01*
X736793Y2123063D01*
X760979Y2111773D01*
X786903Y2105419D01*
X813568Y2104244D01*
X839950Y2108294D01*
X865035Y2117413D01*
X875607Y2123063D01*
X881795Y2146644D01*
X806200Y2222240D01*
X730604Y2146644D01*
X56000Y2146644D01*
X56000Y2232832D01*
X670244Y2232832D01*
X674294Y2206450D01*
X683413Y2181365D01*
X689063Y2170793D01*
X712644Y2164605D01*
X788239Y2240200D01*
X824160Y2240200D01*
X899756Y2164605D01*
X923337Y2170793D01*
X934627Y2194979D01*
X940981Y2220903D01*
X942156Y2247568D01*
X938106Y2273950D01*
X928987Y2299035D01*
X923337Y2309607D01*
X899756Y2315796D01*
X824160Y2240200D01*
X788239Y2240200D01*
X712644Y2315796D01*
X689063Y2309607D01*
X677773Y2285421D01*
X671419Y2259497D01*
X670244Y2232832D01*
X56000Y2232832D01*
X56000Y2333756D01*
X730604Y2333756D01*
X806200Y2258161D01*
X881795Y2333756D01*
X875607Y2357337D01*
X851421Y2368627D01*
X825497Y2374981D01*
X798832Y2376156D01*
X772450Y2372106D01*
X747365Y2362988D01*
X736793Y2357337D01*
X730604Y2333756D01*
X56000Y2333756D01*
X56000Y2506561D01*
X934700Y2506561D01*
X934700Y2481839D01*
X939523Y2457593D01*
X948983Y2434754D01*
X962718Y2414198D01*
X980198Y2396718D01*
X1000753Y2382983D01*
X1023593Y2373523D01*
X1047839Y2368700D01*
X1072561Y2368700D01*
X1096807Y2373523D01*
X1119647Y2382983D01*
X1140202Y2396718D01*
X1157682Y2414198D01*
X1171417Y2434754D01*
X1180877Y2457593D01*
X1185700Y2481839D01*
X1185700Y2506561D01*
X1180877Y2530807D01*
X1171417Y2553647D01*
X1157682Y2574202D01*
X1140202Y2591682D01*
X1119647Y2605417D01*
X1096807Y2614877D01*
X1072561Y2619700D01*
X1047839Y2619700D01*
X1023593Y2614877D01*
X1000753Y2605417D01*
X980198Y2591682D01*
X962718Y2574202D01*
X948983Y2553647D01*
X939523Y2530807D01*
X934700Y2506561D01*
X56000Y2506561D01*
X56000Y2760561D01*
X680700Y2760561D01*
X680700Y2735839D01*
X685523Y2711593D01*
X694983Y2688754D01*
X708718Y2668198D01*
X726198Y2650718D01*
X746753Y2636983D01*
X769593Y2627523D01*
X793839Y2622700D01*
X818561Y2622700D01*
X842807Y2627523D01*
X865646Y2636983D01*
X873018Y2641909D01*
X4264410Y2641909D01*
X4264410Y2623491D01*
X4268003Y2605427D01*
X4275051Y2588411D01*
X4285284Y2573097D01*
X4298307Y2560074D01*
X4313621Y2549841D01*
X4330637Y2542793D01*
X4348701Y2539200D01*
X4367119Y2539200D01*
X4385183Y2542793D01*
X4402199Y2549841D01*
X4408722Y2554200D01*
X4634038Y2554200D01*
X4640561Y2549841D01*
X4657577Y2542793D01*
X4675641Y2539200D01*
X4694059Y2539200D01*
X4712123Y2542793D01*
X4729139Y2549841D01*
X4744453Y2560074D01*
X4757476Y2573097D01*
X4767709Y2588411D01*
X4774757Y2605427D01*
X4778350Y2623491D01*
X4778350Y2641909D01*
X4774757Y2659973D01*
X4767709Y2676989D01*
X4757476Y2692303D01*
X4744453Y2705326D01*
X4729139Y2715559D01*
X4712123Y2722607D01*
X4694059Y2726200D01*
X4675641Y2726200D01*
X4657577Y2722607D01*
X4640561Y2715559D01*
X4634038Y2711200D01*
X4408722Y2711200D01*
X4402199Y2715559D01*
X4385183Y2722607D01*
X4367119Y2726200D01*
X4348701Y2726200D01*
X4330637Y2722607D01*
X4313621Y2715559D01*
X4298307Y2705326D01*
X4285284Y2692303D01*
X4275051Y2676989D01*
X4268003Y2659973D01*
X4264410Y2641909D01*
X873018Y2641909D01*
X886202Y2650718D01*
X903682Y2668198D01*
X917417Y2688754D01*
X926877Y2711593D01*
X931700Y2735839D01*
X931700Y2760561D01*
X926877Y2784807D01*
X917417Y2807646D01*
X903682Y2828202D01*
X886202Y2845682D01*
X865646Y2859417D01*
X842807Y2868877D01*
X818561Y2873700D01*
X793839Y2873700D01*
X769593Y2868877D01*
X746753Y2859417D01*
X726198Y2845682D01*
X708718Y2828202D01*
X694983Y2807646D01*
X685523Y2784807D01*
X680700Y2760561D01*
X56000Y2760561D01*
X56000Y3291322D01*
X56320Y3289711D01*
X71661Y3252677D01*
X93931Y3219346D01*
X122276Y3191001D01*
X155607Y3168731D01*
X192641Y3153390D01*
X231957Y3145570D01*
X272043Y3145570D01*
X311359Y3153390D01*
X348393Y3168731D01*
X381724Y3191001D01*
X409792Y3219070D01*
X648103Y3219070D01*
X649329Y3206622D01*
X652960Y3194652D01*
X658856Y3183621D01*
X666792Y3173951D01*
X676461Y3166016D01*
X687492Y3160120D01*
X699462Y3156489D01*
X711910Y3155263D01*
X773335Y3155570D01*
X789210Y3171445D01*
X789210Y3336370D01*
X664285Y3336370D01*
X648410Y3320495D01*
X648103Y3219070D01*
X409792Y3219070D01*
X410069Y3219346D01*
X432339Y3252677D01*
X447680Y3289711D01*
X455500Y3329027D01*
X455500Y3369113D01*
X447680Y3408429D01*
X432339Y3445463D01*
X410069Y3478794D01*
X409792Y3479070D01*
X648103Y3479070D01*
X648410Y3377645D01*
X664285Y3361770D01*
X789210Y3361770D01*
X789210Y3526695D01*
X814610Y3526695D01*
X814610Y3361770D01*
X816610Y3361770D01*
X816610Y3336370D01*
X814610Y3336370D01*
X814610Y3171445D01*
X830485Y3155570D01*
X891910Y3155263D01*
X904358Y3156489D01*
X916328Y3160120D01*
X927359Y3166016D01*
X937028Y3173951D01*
X944964Y3183621D01*
X950860Y3194652D01*
X954491Y3206622D01*
X954495Y3206661D01*
X975800Y3189177D01*
X1000729Y3175852D01*
X1027779Y3167646D01*
X1055910Y3164876D01*
X1084041Y3167646D01*
X1111091Y3175852D01*
X1136020Y3189177D01*
X1157871Y3207109D01*
X1175803Y3228960D01*
X1182910Y3242256D01*
X1190017Y3228960D01*
X1207949Y3207109D01*
X1229800Y3189177D01*
X1254729Y3175852D01*
X1281779Y3167646D01*
X1309910Y3164876D01*
X1338041Y3167646D01*
X1365091Y3175852D01*
X1390020Y3189177D01*
X1411871Y3207109D01*
X1429803Y3228960D01*
X1436910Y3242256D01*
X1444017Y3228960D01*
X1461949Y3207109D01*
X1483800Y3189177D01*
X1508729Y3175852D01*
X1535779Y3167646D01*
X1563910Y3164876D01*
X1592041Y3167646D01*
X1619091Y3175852D01*
X1644020Y3189177D01*
X1665871Y3207109D01*
X1683803Y3228960D01*
X1685331Y3231818D01*
X1697335Y3213230D01*
X1718349Y3191549D01*
X1743190Y3174384D01*
X1770901Y3162394D01*
X1781436Y3159966D01*
X1805210Y3172032D01*
X1805210Y3336370D01*
X1803210Y3336370D01*
X1803210Y3361770D01*
X1805210Y3361770D01*
X1805210Y3526108D01*
X1830610Y3526108D01*
X1830610Y3361770D01*
X1832610Y3361770D01*
X1832610Y3336370D01*
X1830610Y3336370D01*
X1830610Y3172032D01*
X1854384Y3159966D01*
X1864919Y3162394D01*
X1892630Y3174384D01*
X1917471Y3191549D01*
X1938485Y3213230D01*
X1950489Y3231818D01*
X1952017Y3228960D01*
X1969949Y3207109D01*
X1991800Y3189177D01*
X2008410Y3180299D01*
X2008410Y3162516D01*
X2008103Y3159398D01*
X2008410Y3156280D01*
X2008410Y3156279D01*
X2009329Y3146950D01*
X2012960Y3134980D01*
X2018856Y3123949D01*
X2026791Y3114279D01*
X2029215Y3112291D01*
X2209941Y2931564D01*
X2211930Y2929141D01*
X2214352Y2927153D01*
X2214352Y2927153D01*
X2221599Y2921206D01*
X2232109Y2915588D01*
X2232630Y2915310D01*
X2244600Y2911679D01*
X2253929Y2910760D01*
X2253929Y2910760D01*
X2257048Y2910453D01*
X2260167Y2910760D01*
X2350371Y2910760D01*
X2359497Y2901634D01*
X2374811Y2891401D01*
X2391827Y2884353D01*
X2409891Y2880760D01*
X2428309Y2880760D01*
X2446373Y2884353D01*
X2453886Y2887465D01*
X2456193Y2875867D01*
X2463241Y2858851D01*
X2473474Y2843537D01*
X2486497Y2830514D01*
X2501811Y2820281D01*
X2518827Y2813233D01*
X2536891Y2809640D01*
X2549798Y2809640D01*
X2572653Y2786784D01*
X2574642Y2784362D01*
X2577064Y2782374D01*
X2577064Y2782373D01*
X2584311Y2776426D01*
X2595342Y2770530D01*
X2607312Y2766899D01*
X2616641Y2765980D01*
X2616641Y2765980D01*
X2619760Y2765673D01*
X2622879Y2765980D01*
X2979862Y2765980D01*
X2982980Y2765673D01*
X2986098Y2765980D01*
X2986099Y2765980D01*
X2995428Y2766899D01*
X3007398Y2770530D01*
X3018429Y2776426D01*
X3023331Y2780449D01*
X5955900Y2780449D01*
X5955900Y2754151D01*
X5961030Y2728360D01*
X5971094Y2704064D01*
X5985704Y2682199D01*
X6004299Y2663604D01*
X6026164Y2648994D01*
X6050459Y2638930D01*
X6076251Y2633800D01*
X6102549Y2633800D01*
X6128340Y2638930D01*
X6152636Y2648994D01*
X6174501Y2663604D01*
X6193096Y2682199D01*
X6207706Y2704064D01*
X6217770Y2728360D01*
X6222900Y2754151D01*
X6222900Y2780449D01*
X6217770Y2806240D01*
X6207706Y2830536D01*
X6193096Y2852401D01*
X6174501Y2870996D01*
X6152636Y2885606D01*
X6128340Y2895670D01*
X6102549Y2900800D01*
X6076251Y2900800D01*
X6050459Y2895670D01*
X6026164Y2885606D01*
X6004299Y2870996D01*
X5985704Y2852401D01*
X5971094Y2830536D01*
X5961030Y2806240D01*
X5955900Y2780449D01*
X3023331Y2780449D01*
X3028098Y2784362D01*
X3030087Y2786785D01*
X3190901Y2947598D01*
X3997140Y2947598D01*
X4000258Y2947291D01*
X4003376Y2947598D01*
X4003377Y2947598D01*
X4012706Y2948517D01*
X4024676Y2952148D01*
X4035707Y2958044D01*
X4045376Y2965979D01*
X4047365Y2968403D01*
X4146606Y3067643D01*
X4149028Y3069631D01*
X4151016Y3072054D01*
X4151017Y3072054D01*
X4156964Y3079301D01*
X4162860Y3090332D01*
X4163093Y3091100D01*
X4166491Y3102302D01*
X4167410Y3111631D01*
X4167410Y3111631D01*
X4167717Y3114750D01*
X4167410Y3117869D01*
X4167410Y3180298D01*
X4184020Y3189177D01*
X4205871Y3207109D01*
X4223803Y3228960D01*
X4230910Y3242256D01*
X4238017Y3228960D01*
X4255949Y3207109D01*
X4277800Y3189177D01*
X4302729Y3175852D01*
X4329779Y3167646D01*
X4357910Y3164876D01*
X4386041Y3167646D01*
X4413091Y3175852D01*
X4438020Y3189177D01*
X4459871Y3207109D01*
X4477803Y3228960D01*
X4484910Y3242256D01*
X4492017Y3228960D01*
X4509949Y3207109D01*
X4531800Y3189177D01*
X4556729Y3175852D01*
X4583779Y3167646D01*
X4611910Y3164876D01*
X4640041Y3167646D01*
X4667091Y3175852D01*
X4692020Y3189177D01*
X4713871Y3207109D01*
X4731803Y3228960D01*
X4745128Y3253889D01*
X4750188Y3270570D01*
X4954921Y3270570D01*
X4953953Y3268233D01*
X4953053Y3263705D01*
X4951713Y3259289D01*
X4951261Y3254697D01*
X4950360Y3250169D01*
X4950360Y3246223D01*
X4949161Y3244763D01*
X4944193Y3235469D01*
X4941134Y3225384D01*
X4940101Y3214896D01*
X4940101Y3064896D01*
X4941134Y3054408D01*
X4944193Y3044323D01*
X4949161Y3035029D01*
X4955847Y3026883D01*
X4963993Y3020197D01*
X4973287Y3015229D01*
X4983372Y3012170D01*
X4993860Y3011137D01*
X5093860Y3011137D01*
X5104348Y3012170D01*
X5108860Y3013539D01*
X5113372Y3012170D01*
X5123860Y3011137D01*
X5219730Y3011137D01*
X5229442Y3005946D01*
X5241412Y3002315D01*
X5253860Y3001089D01*
X5275285Y3001396D01*
X5291160Y3017271D01*
X5291160Y3127196D01*
X5316560Y3127196D01*
X5316560Y3017271D01*
X5332435Y3001396D01*
X5353860Y3001089D01*
X5366308Y3002315D01*
X5378278Y3005946D01*
X5389309Y3011842D01*
X5398979Y3019777D01*
X5406914Y3029447D01*
X5412810Y3040478D01*
X5416441Y3052448D01*
X5417667Y3064896D01*
X5417360Y3111321D01*
X5401485Y3127196D01*
X5316560Y3127196D01*
X5291160Y3127196D01*
X5289160Y3127196D01*
X5289160Y3152596D01*
X5291160Y3152596D01*
X5291160Y3262521D01*
X5316560Y3262521D01*
X5316560Y3152596D01*
X5401485Y3152596D01*
X5417360Y3168471D01*
X5417413Y3176509D01*
X5506000Y3176509D01*
X5506000Y3158091D01*
X5509593Y3140027D01*
X5516641Y3123011D01*
X5526874Y3107697D01*
X5539897Y3094674D01*
X5555211Y3084441D01*
X5572227Y3077393D01*
X5590291Y3073800D01*
X5608709Y3073800D01*
X5626773Y3077393D01*
X5643789Y3084441D01*
X5659103Y3094674D01*
X5668229Y3103800D01*
X5955641Y3103800D01*
X5955641Y3087300D01*
X5956674Y3076812D01*
X5959733Y3066727D01*
X5964701Y3057433D01*
X5971387Y3049287D01*
X5979533Y3042601D01*
X5988827Y3037633D01*
X5998912Y3034574D01*
X6009400Y3033541D01*
X6169400Y3033541D01*
X6179888Y3034574D01*
X6189973Y3037633D01*
X6199267Y3042601D01*
X6207413Y3049287D01*
X6214099Y3057433D01*
X6219067Y3066727D01*
X6222126Y3076812D01*
X6223159Y3087300D01*
X6223159Y3247300D01*
X6222126Y3257788D01*
X6219067Y3267873D01*
X6214099Y3277167D01*
X6207413Y3285313D01*
X6199267Y3291999D01*
X6189973Y3296967D01*
X6179888Y3300026D01*
X6169400Y3301059D01*
X6009400Y3301059D01*
X5998912Y3300026D01*
X5988827Y3296967D01*
X5979533Y3291999D01*
X5971387Y3285313D01*
X5964701Y3277167D01*
X5959733Y3267873D01*
X5956674Y3257788D01*
X5955641Y3247300D01*
X5955641Y3230800D01*
X5668229Y3230800D01*
X5659103Y3239926D01*
X5643789Y3250159D01*
X5626773Y3257207D01*
X5608709Y3260800D01*
X5590291Y3260800D01*
X5572227Y3257207D01*
X5555211Y3250159D01*
X5539897Y3239926D01*
X5526874Y3226903D01*
X5516641Y3211589D01*
X5509593Y3194573D01*
X5506000Y3176509D01*
X5417413Y3176509D01*
X5417667Y3214896D01*
X5416441Y3227344D01*
X5412810Y3239314D01*
X5406914Y3250345D01*
X5398979Y3260014D01*
X5389309Y3267950D01*
X5378278Y3273846D01*
X5366308Y3277477D01*
X5353860Y3278703D01*
X5332435Y3278396D01*
X5316560Y3262521D01*
X5291160Y3262521D01*
X5275285Y3278396D01*
X5253860Y3278703D01*
X5252360Y3278555D01*
X5252360Y3303776D01*
X5252740Y3307632D01*
X5252360Y3311488D01*
X5252360Y3311488D01*
X5251962Y3315529D01*
X5251224Y3323021D01*
X5246735Y3337818D01*
X5239446Y3351455D01*
X5229636Y3363408D01*
X5226641Y3365867D01*
X5190657Y3401851D01*
X5188198Y3404846D01*
X5176245Y3414656D01*
X5162608Y3421945D01*
X5147811Y3426434D01*
X5136278Y3427570D01*
X5136277Y3427570D01*
X5132422Y3427950D01*
X5128567Y3427570D01*
X4750188Y3427570D01*
X4745128Y3444251D01*
X4731803Y3469180D01*
X4713871Y3491031D01*
X4692020Y3508963D01*
X4667091Y3522288D01*
X4640041Y3530494D01*
X4611910Y3533264D01*
X4583779Y3530494D01*
X4556729Y3522288D01*
X4531800Y3508963D01*
X4509949Y3491031D01*
X4492017Y3469180D01*
X4484910Y3455884D01*
X4477803Y3469180D01*
X4459871Y3491031D01*
X4438020Y3508963D01*
X4413091Y3522288D01*
X4386041Y3530494D01*
X4357910Y3533264D01*
X4329779Y3530494D01*
X4302729Y3522288D01*
X4277800Y3508963D01*
X4255949Y3491031D01*
X4238017Y3469180D01*
X4230910Y3455884D01*
X4223803Y3469180D01*
X4205871Y3491031D01*
X4184020Y3508963D01*
X4159091Y3522288D01*
X4132041Y3530494D01*
X4103910Y3533264D01*
X4075779Y3530494D01*
X4048729Y3522288D01*
X4023800Y3508963D01*
X4001949Y3491031D01*
X3984017Y3469180D01*
X3976910Y3455884D01*
X3969803Y3469180D01*
X3951871Y3491031D01*
X3930020Y3508963D01*
X3905091Y3522288D01*
X3878041Y3530494D01*
X3849910Y3533264D01*
X3821779Y3530494D01*
X3794729Y3522288D01*
X3769800Y3508963D01*
X3747949Y3491031D01*
X3730017Y3469180D01*
X3722910Y3455884D01*
X3715803Y3469180D01*
X3697871Y3491031D01*
X3676020Y3508963D01*
X3651091Y3522288D01*
X3624041Y3530494D01*
X3595910Y3533264D01*
X3567779Y3530494D01*
X3540729Y3522288D01*
X3515800Y3508963D01*
X3493949Y3491031D01*
X3476017Y3469180D01*
X3468910Y3455884D01*
X3461803Y3469180D01*
X3443871Y3491031D01*
X3422020Y3508963D01*
X3397091Y3522288D01*
X3370041Y3530494D01*
X3341910Y3533264D01*
X3313779Y3530494D01*
X3286729Y3522288D01*
X3261800Y3508963D01*
X3239949Y3491031D01*
X3222017Y3469180D01*
X3214910Y3455884D01*
X3207803Y3469180D01*
X3189871Y3491031D01*
X3168020Y3508963D01*
X3143091Y3522288D01*
X3116041Y3530494D01*
X3087910Y3533264D01*
X3059779Y3530494D01*
X3032729Y3522288D01*
X3007800Y3508963D01*
X2985949Y3491031D01*
X2968017Y3469180D01*
X2960910Y3455884D01*
X2953803Y3469180D01*
X2935871Y3491031D01*
X2914020Y3508963D01*
X2889091Y3522288D01*
X2862041Y3530494D01*
X2833910Y3533264D01*
X2805779Y3530494D01*
X2778729Y3522288D01*
X2753800Y3508963D01*
X2731949Y3491031D01*
X2714017Y3469180D01*
X2706910Y3455884D01*
X2699803Y3469180D01*
X2681871Y3491031D01*
X2660020Y3508963D01*
X2635091Y3522288D01*
X2608041Y3530494D01*
X2579910Y3533264D01*
X2551779Y3530494D01*
X2524729Y3522288D01*
X2499800Y3508963D01*
X2477949Y3491031D01*
X2460017Y3469180D01*
X2452910Y3455884D01*
X2445803Y3469180D01*
X2427871Y3491031D01*
X2406020Y3508963D01*
X2381091Y3522288D01*
X2354041Y3530494D01*
X2325910Y3533264D01*
X2297779Y3530494D01*
X2270729Y3522288D01*
X2245800Y3508963D01*
X2223949Y3491031D01*
X2206017Y3469180D01*
X2198910Y3455884D01*
X2191803Y3469180D01*
X2173871Y3491031D01*
X2152020Y3508963D01*
X2127091Y3522288D01*
X2100041Y3530494D01*
X2071910Y3533264D01*
X2043779Y3530494D01*
X2016729Y3522288D01*
X1991800Y3508963D01*
X1969949Y3491031D01*
X1952017Y3469180D01*
X1950489Y3466322D01*
X1938485Y3484910D01*
X1917471Y3506591D01*
X1892630Y3523756D01*
X1864919Y3535745D01*
X1854384Y3538174D01*
X1830610Y3526108D01*
X1805210Y3526108D01*
X1781436Y3538174D01*
X1770901Y3535745D01*
X1743190Y3523756D01*
X1718349Y3506591D01*
X1697335Y3484910D01*
X1685331Y3466322D01*
X1683803Y3469180D01*
X1665871Y3491031D01*
X1644020Y3508963D01*
X1619091Y3522288D01*
X1592041Y3530494D01*
X1563910Y3533264D01*
X1535779Y3530494D01*
X1508729Y3522288D01*
X1483800Y3508963D01*
X1461949Y3491031D01*
X1444017Y3469180D01*
X1436910Y3455884D01*
X1429803Y3469180D01*
X1411871Y3491031D01*
X1390020Y3508963D01*
X1365091Y3522288D01*
X1338041Y3530494D01*
X1309910Y3533264D01*
X1281779Y3530494D01*
X1254729Y3522288D01*
X1229800Y3508963D01*
X1207949Y3491031D01*
X1190017Y3469180D01*
X1182910Y3455884D01*
X1175803Y3469180D01*
X1157871Y3491031D01*
X1136020Y3508963D01*
X1111091Y3522288D01*
X1084041Y3530494D01*
X1055910Y3533264D01*
X1027779Y3530494D01*
X1000729Y3522288D01*
X975800Y3508963D01*
X954495Y3491479D01*
X954491Y3491518D01*
X950860Y3503488D01*
X944964Y3514519D01*
X937028Y3524188D01*
X927359Y3532124D01*
X916328Y3538020D01*
X904358Y3541651D01*
X891910Y3542877D01*
X830485Y3542570D01*
X814610Y3526695D01*
X789210Y3526695D01*
X773335Y3542570D01*
X711910Y3542877D01*
X699462Y3541651D01*
X687492Y3538020D01*
X676461Y3532124D01*
X666792Y3524188D01*
X658856Y3514519D01*
X652960Y3503488D01*
X649329Y3491518D01*
X648103Y3479070D01*
X409792Y3479070D01*
X381724Y3507139D01*
X348393Y3529409D01*
X313168Y3544000D01*
X7690742Y3544000D01*
X7655517Y3529409D01*
X7655517Y3529409D01*
G37*
X7655517Y3529409D02*
X7622186Y3507139D01*
X7593841Y3478794D01*
X7571571Y3445463D01*
X7556230Y3408429D01*
X7548410Y3369113D01*
X7548410Y3329027D01*
X7556230Y3289711D01*
X7571571Y3252677D01*
X7593841Y3219346D01*
X7622186Y3191001D01*
X7655517Y3168731D01*
X7692551Y3153390D01*
X7731867Y3145570D01*
X7771953Y3145570D01*
X7811269Y3153390D01*
X7848303Y3168731D01*
X7881634Y3191001D01*
X7909979Y3219346D01*
X7932249Y3252677D01*
X7944000Y3281045D01*
X7944000Y316899D01*
X7932197Y345393D01*
X7909927Y378724D01*
X7881582Y407069D01*
X7848251Y429339D01*
X7811217Y444680D01*
X7771901Y452500D01*
X7731815Y452500D01*
X7692499Y444680D01*
X7655465Y429339D01*
X7622134Y407069D01*
X7593789Y378724D01*
X7571519Y345393D01*
X7556178Y308359D01*
X7548358Y269043D01*
X7548358Y228957D01*
X7556178Y189641D01*
X7571519Y152607D01*
X7593789Y119276D01*
X7622134Y90931D01*
X7655465Y68661D01*
X7686030Y56000D01*
X317828Y56000D01*
X348393Y68661D01*
X381724Y90931D01*
X410069Y119276D01*
X432339Y152607D01*
X437059Y164000D01*
X3951193Y164000D01*
X3952419Y151552D01*
X3956050Y139582D01*
X3961946Y128551D01*
X3969881Y118881D01*
X3979551Y110946D01*
X3990582Y105050D01*
X4002552Y101419D01*
X4015000Y100193D01*
X4071425Y100500D01*
X4087300Y116375D01*
X4087300Y236300D01*
X4112700Y236300D01*
X4112700Y116375D01*
X4128575Y100500D01*
X4185000Y100193D01*
X4197448Y101419D01*
X4209418Y105050D01*
X4220449Y110946D01*
X4230119Y118881D01*
X4238054Y128551D01*
X4243950Y139582D01*
X4246397Y147647D01*
X4253973Y139241D01*
X4277308Y121836D01*
X4303590Y109317D01*
X4318311Y104852D01*
X4341300Y116984D01*
X4341300Y236300D01*
X4366700Y236300D01*
X4366700Y116984D01*
X4389689Y104852D01*
X4404410Y109317D01*
X4430692Y121836D01*
X4454027Y139241D01*
X4473518Y160865D01*
X4481000Y173426D01*
X4488482Y160865D01*
X4507973Y139241D01*
X4531308Y121836D01*
X4557590Y109317D01*
X4572311Y104852D01*
X4595300Y116984D01*
X4595300Y236300D01*
X4366700Y236300D01*
X4341300Y236300D01*
X4112700Y236300D01*
X4087300Y236300D01*
X3967375Y236300D01*
X3951500Y220425D01*
X3951193Y164000D01*
X437059Y164000D01*
X447680Y189641D01*
X455500Y228957D01*
X455500Y269043D01*
X447680Y308359D01*
X437059Y334000D01*
X3951193Y334000D01*
X3951500Y277575D01*
X3967375Y261700D01*
X4087300Y261700D01*
X4087300Y263700D01*
X4112700Y263700D01*
X4112700Y261700D01*
X4341300Y261700D01*
X4341300Y263700D01*
X4366700Y263700D01*
X4366700Y261700D01*
X4595300Y261700D01*
X4595300Y263700D01*
X4620700Y263700D01*
X4620700Y261700D01*
X4622700Y261700D01*
X4622700Y236300D01*
X4620700Y236300D01*
X4620700Y116984D01*
X4643689Y104852D01*
X4658410Y109317D01*
X4684692Y121836D01*
X4708027Y139241D01*
X4727518Y160865D01*
X4740456Y182585D01*
X4746284Y171681D01*
X4763592Y150592D01*
X4784681Y133284D01*
X4808742Y120424D01*
X4834849Y112504D01*
X4855196Y110500D01*
X4868804Y110500D01*
X4889151Y112504D01*
X4915258Y120424D01*
X4939319Y133284D01*
X4960408Y150592D01*
X4977716Y171681D01*
X4989000Y192793D01*
X5000284Y171681D01*
X5017592Y150592D01*
X5038681Y133284D01*
X5062742Y120424D01*
X5088849Y112504D01*
X5109196Y110500D01*
X5122804Y110500D01*
X5143151Y112504D01*
X5169258Y120424D01*
X5193319Y133284D01*
X5214408Y150592D01*
X5231716Y171681D01*
X5243000Y192793D01*
X5254284Y171681D01*
X5271592Y150592D01*
X5292681Y133284D01*
X5316742Y120424D01*
X5342849Y112504D01*
X5363196Y110500D01*
X5376804Y110500D01*
X5397151Y112504D01*
X5423258Y120424D01*
X5447319Y133284D01*
X5468408Y150592D01*
X5485716Y171681D01*
X5497000Y192793D01*
X5508284Y171681D01*
X5525592Y150592D01*
X5546681Y133284D01*
X5570742Y120424D01*
X5596849Y112504D01*
X5617196Y110500D01*
X5630804Y110500D01*
X5651151Y112504D01*
X5677258Y120424D01*
X5701319Y133284D01*
X5722408Y150592D01*
X5739716Y171681D01*
X5751000Y192793D01*
X5762284Y171681D01*
X5779592Y150592D01*
X5800681Y133284D01*
X5824742Y120424D01*
X5850849Y112504D01*
X5871196Y110500D01*
X5884804Y110500D01*
X5905151Y112504D01*
X5931258Y120424D01*
X5955319Y133284D01*
X5976408Y150592D01*
X5993716Y171681D01*
X6005000Y192793D01*
X6016284Y171681D01*
X6033592Y150592D01*
X6054681Y133284D01*
X6078742Y120424D01*
X6104849Y112504D01*
X6125196Y110500D01*
X6138804Y110500D01*
X6159151Y112504D01*
X6185258Y120424D01*
X6209319Y133284D01*
X6230408Y150592D01*
X6247716Y171681D01*
X6259000Y192793D01*
X6270284Y171681D01*
X6287592Y150592D01*
X6308681Y133284D01*
X6332742Y120424D01*
X6358849Y112504D01*
X6379196Y110500D01*
X6392804Y110500D01*
X6413151Y112504D01*
X6439258Y120424D01*
X6463319Y133284D01*
X6484408Y150592D01*
X6501716Y171681D01*
X6513000Y192793D01*
X6524284Y171681D01*
X6541592Y150592D01*
X6562681Y133284D01*
X6586742Y120424D01*
X6612849Y112504D01*
X6633196Y110500D01*
X6646804Y110500D01*
X6667151Y112504D01*
X6693258Y120424D01*
X6717319Y133284D01*
X6738408Y150592D01*
X6755716Y171681D01*
X6767000Y192793D01*
X6778284Y171681D01*
X6795592Y150592D01*
X6816681Y133284D01*
X6840742Y120424D01*
X6866849Y112504D01*
X6887196Y110500D01*
X6900804Y110500D01*
X6921151Y112504D01*
X6947258Y120424D01*
X6971319Y133284D01*
X6992408Y150592D01*
X7009716Y171681D01*
X7022576Y195742D01*
X7030496Y221849D01*
X7033170Y249000D01*
X7030496Y276151D01*
X7022576Y302258D01*
X7009716Y326319D01*
X6992408Y347408D01*
X6971319Y364716D01*
X6950207Y376000D01*
X6971319Y387284D01*
X6992408Y404592D01*
X6997749Y411100D01*
X7187300Y411100D01*
X7187300Y388900D01*
X7191631Y367127D01*
X7200127Y346617D01*
X7212460Y328158D01*
X7228158Y312460D01*
X7246616Y300127D01*
X7267127Y291631D01*
X7288900Y287300D01*
X7311100Y287300D01*
X7332873Y291631D01*
X7353383Y300127D01*
X7371842Y312460D01*
X7387540Y328158D01*
X7399873Y346617D01*
X7408369Y367127D01*
X7412700Y388900D01*
X7412700Y411100D01*
X7408369Y432873D01*
X7399873Y453383D01*
X7387540Y471842D01*
X7371842Y487540D01*
X7353383Y499873D01*
X7332873Y508369D01*
X7311100Y512700D01*
X7288900Y512700D01*
X7267127Y508369D01*
X7246616Y499873D01*
X7228158Y487540D01*
X7212460Y471842D01*
X7200127Y453383D01*
X7191631Y432873D01*
X7187300Y411100D01*
X6997749Y411100D01*
X7009716Y425681D01*
X7022576Y449742D01*
X7030496Y475849D01*
X7033170Y503000D01*
X7030496Y530151D01*
X7022576Y556258D01*
X7009716Y580319D01*
X6992408Y601408D01*
X6971319Y618716D01*
X6957500Y626102D01*
X6957500Y931271D01*
X6966626Y940397D01*
X6976859Y955711D01*
X6983907Y972727D01*
X6987500Y990791D01*
X6987500Y1009209D01*
X6983907Y1027273D01*
X6976859Y1044289D01*
X6966626Y1059603D01*
X6953603Y1072626D01*
X6938289Y1082859D01*
X6921273Y1089907D01*
X6903209Y1093500D01*
X6884791Y1093500D01*
X6866727Y1089907D01*
X6849711Y1082859D01*
X6834397Y1072626D01*
X6821374Y1059603D01*
X6811141Y1044289D01*
X6804093Y1027273D01*
X6800500Y1009209D01*
X6800500Y990791D01*
X6804093Y972727D01*
X6811141Y955711D01*
X6821374Y940397D01*
X6830500Y931271D01*
X6830500Y626102D01*
X6816681Y618716D01*
X6795592Y601408D01*
X6778284Y580319D01*
X6767000Y559207D01*
X6755716Y580319D01*
X6738408Y601408D01*
X6717319Y618716D01*
X6703500Y626102D01*
X6703500Y931271D01*
X6712626Y940397D01*
X6722859Y955711D01*
X6729907Y972727D01*
X6733500Y990791D01*
X6733500Y1009209D01*
X6729907Y1027273D01*
X6722859Y1044289D01*
X6712626Y1059603D01*
X6699603Y1072626D01*
X6684289Y1082859D01*
X6667273Y1089907D01*
X6649209Y1093500D01*
X6630791Y1093500D01*
X6612727Y1089907D01*
X6595711Y1082859D01*
X6580397Y1072626D01*
X6567374Y1059603D01*
X6557141Y1044289D01*
X6550093Y1027273D01*
X6546500Y1009209D01*
X6546500Y990791D01*
X6550093Y972727D01*
X6557141Y955711D01*
X6567374Y940397D01*
X6576500Y931271D01*
X6576500Y626102D01*
X6562681Y618716D01*
X6541592Y601408D01*
X6524284Y580319D01*
X6513000Y559207D01*
X6501716Y580319D01*
X6484408Y601408D01*
X6463319Y618716D01*
X6449500Y626102D01*
X6449500Y931271D01*
X6458626Y940397D01*
X6468859Y955711D01*
X6475907Y972727D01*
X6479500Y990791D01*
X6479500Y1009209D01*
X6475907Y1027273D01*
X6468859Y1044289D01*
X6458626Y1059603D01*
X6445603Y1072626D01*
X6430289Y1082859D01*
X6413273Y1089907D01*
X6395209Y1093500D01*
X6376791Y1093500D01*
X6358727Y1089907D01*
X6341711Y1082859D01*
X6326397Y1072626D01*
X6313374Y1059603D01*
X6303141Y1044289D01*
X6296093Y1027273D01*
X6292500Y1009209D01*
X6292500Y990791D01*
X6296093Y972727D01*
X6303141Y955711D01*
X6313374Y940397D01*
X6322500Y931271D01*
X6322500Y626102D01*
X6308681Y618716D01*
X6287592Y601408D01*
X6270284Y580319D01*
X6259000Y559207D01*
X6247716Y580319D01*
X6230408Y601408D01*
X6209319Y618716D01*
X6195500Y626102D01*
X6195500Y931271D01*
X6204626Y940397D01*
X6214859Y955711D01*
X6221907Y972727D01*
X6225500Y990791D01*
X6225500Y1009209D01*
X6221907Y1027273D01*
X6214859Y1044289D01*
X6204626Y1059603D01*
X6191603Y1072626D01*
X6176289Y1082859D01*
X6159273Y1089907D01*
X6141209Y1093500D01*
X6122791Y1093500D01*
X6104727Y1089907D01*
X6087711Y1082859D01*
X6072397Y1072626D01*
X6059374Y1059603D01*
X6049141Y1044289D01*
X6042093Y1027273D01*
X6038500Y1009209D01*
X6038500Y990791D01*
X6042093Y972727D01*
X6049141Y955711D01*
X6059374Y940397D01*
X6068500Y931271D01*
X6068500Y626102D01*
X6054681Y618716D01*
X6033592Y601408D01*
X6016284Y580319D01*
X6005000Y559207D01*
X5993716Y580319D01*
X5976408Y601408D01*
X5955319Y618716D01*
X5941500Y626102D01*
X5941500Y931271D01*
X5950626Y940397D01*
X5960859Y955711D01*
X5967907Y972727D01*
X5971500Y990791D01*
X5971500Y1009209D01*
X5967907Y1027273D01*
X5960859Y1044289D01*
X5950626Y1059603D01*
X5937603Y1072626D01*
X5922289Y1082859D01*
X5905273Y1089907D01*
X5887209Y1093500D01*
X5868791Y1093500D01*
X5850727Y1089907D01*
X5833711Y1082859D01*
X5818397Y1072626D01*
X5805374Y1059603D01*
X5795141Y1044289D01*
X5788093Y1027273D01*
X5784500Y1009209D01*
X5784500Y990791D01*
X5788093Y972727D01*
X5795141Y955711D01*
X5805374Y940397D01*
X5814500Y931271D01*
X5814500Y626102D01*
X5800681Y618716D01*
X5779592Y601408D01*
X5762284Y580319D01*
X5751000Y559207D01*
X5739716Y580319D01*
X5722408Y601408D01*
X5701319Y618716D01*
X5687500Y626102D01*
X5687500Y931271D01*
X5696626Y940397D01*
X5706859Y955711D01*
X5713907Y972727D01*
X5717500Y990791D01*
X5717500Y1009209D01*
X5713907Y1027273D01*
X5706859Y1044289D01*
X5696626Y1059603D01*
X5683603Y1072626D01*
X5668289Y1082859D01*
X5651273Y1089907D01*
X5633209Y1093500D01*
X5614791Y1093500D01*
X5596727Y1089907D01*
X5579711Y1082859D01*
X5564397Y1072626D01*
X5551374Y1059603D01*
X5541141Y1044289D01*
X5534093Y1027273D01*
X5530500Y1009209D01*
X5530500Y990791D01*
X5534093Y972727D01*
X5541141Y955711D01*
X5551374Y940397D01*
X5560500Y931271D01*
X5560500Y626102D01*
X5546681Y618716D01*
X5525592Y601408D01*
X5508284Y580319D01*
X5497000Y559207D01*
X5485716Y580319D01*
X5468408Y601408D01*
X5447319Y618716D01*
X5433500Y626102D01*
X5433500Y931271D01*
X5442626Y940397D01*
X5452859Y955711D01*
X5459907Y972727D01*
X5463500Y990791D01*
X5463500Y1009209D01*
X5459907Y1027273D01*
X5452859Y1044289D01*
X5442626Y1059603D01*
X5429603Y1072626D01*
X5414289Y1082859D01*
X5397273Y1089907D01*
X5379209Y1093500D01*
X5360791Y1093500D01*
X5342727Y1089907D01*
X5325711Y1082859D01*
X5310397Y1072626D01*
X5297374Y1059603D01*
X5287141Y1044289D01*
X5280093Y1027273D01*
X5276500Y1009209D01*
X5276500Y990791D01*
X5280093Y972727D01*
X5287141Y955711D01*
X5297374Y940397D01*
X5306500Y931271D01*
X5306500Y626102D01*
X5292681Y618716D01*
X5271592Y601408D01*
X5254284Y580319D01*
X5243000Y559207D01*
X5231716Y580319D01*
X5214408Y601408D01*
X5193319Y618716D01*
X5179500Y626102D01*
X5179500Y931271D01*
X5188626Y940397D01*
X5198859Y955711D01*
X5205907Y972727D01*
X5209500Y990791D01*
X5209500Y1009209D01*
X5205907Y1027273D01*
X5198859Y1044289D01*
X5188626Y1059603D01*
X5175603Y1072626D01*
X5160289Y1082859D01*
X5143273Y1089907D01*
X5125209Y1093500D01*
X5106791Y1093500D01*
X5088727Y1089907D01*
X5071711Y1082859D01*
X5056397Y1072626D01*
X5043374Y1059603D01*
X5033141Y1044289D01*
X5026093Y1027273D01*
X5022500Y1009209D01*
X5022500Y990791D01*
X5026093Y972727D01*
X5033141Y955711D01*
X5043374Y940397D01*
X5052500Y931271D01*
X5052500Y626102D01*
X5038681Y618716D01*
X5017592Y601408D01*
X5000284Y580319D01*
X4989000Y559207D01*
X4977716Y580319D01*
X4960408Y601408D01*
X4939319Y618716D01*
X4915258Y631576D01*
X4889151Y639496D01*
X4868804Y641500D01*
X4855196Y641500D01*
X4834849Y639496D01*
X4808742Y631576D01*
X4784681Y618716D01*
X4763592Y601408D01*
X4746284Y580319D01*
X4735000Y559207D01*
X4723716Y580319D01*
X4706408Y601408D01*
X4685319Y618716D01*
X4661258Y631576D01*
X4635151Y639496D01*
X4614804Y641500D01*
X4601196Y641500D01*
X4580849Y639496D01*
X4554742Y631576D01*
X4530681Y618716D01*
X4509592Y601408D01*
X4492284Y580319D01*
X4481000Y559207D01*
X4469716Y580319D01*
X4452408Y601408D01*
X4431319Y618716D01*
X4407258Y631576D01*
X4381151Y639496D01*
X4360804Y641500D01*
X4347196Y641500D01*
X4326849Y639496D01*
X4300742Y631576D01*
X4276681Y618716D01*
X4255592Y601408D01*
X4238284Y580319D01*
X4227000Y559207D01*
X4215716Y580319D01*
X4198408Y601408D01*
X4177319Y618716D01*
X4153258Y631576D01*
X4127151Y639496D01*
X4106804Y641500D01*
X4093196Y641500D01*
X4072849Y639496D01*
X4046742Y631576D01*
X4022681Y618716D01*
X4001592Y601408D01*
X3984284Y580319D01*
X3971424Y556258D01*
X3963504Y530151D01*
X3960830Y503000D01*
X3963504Y475849D01*
X3971424Y449742D01*
X3984284Y425681D01*
X4001592Y404592D01*
X4010410Y397355D01*
X4002552Y396581D01*
X3990582Y392950D01*
X3979551Y387054D01*
X3969881Y379118D01*
X3961946Y369449D01*
X3956050Y358418D01*
X3952419Y346448D01*
X3951193Y334000D01*
X437059Y334000D01*
X432339Y345393D01*
X410069Y378724D01*
X381724Y407069D01*
X348393Y429339D01*
X311359Y444680D01*
X272043Y452500D01*
X231957Y452500D01*
X192641Y444680D01*
X155607Y429339D01*
X122276Y407069D01*
X93931Y378724D01*
X71661Y345393D01*
X56320Y308359D01*
X56000Y306748D01*
X56000Y1125000D01*
X117241Y1125000D01*
X117241Y825000D01*
X118274Y814512D01*
X121333Y804427D01*
X126301Y795133D01*
X132987Y786987D01*
X141133Y780301D01*
X150427Y775333D01*
X160512Y772274D01*
X171000Y771241D01*
X471000Y771241D01*
X481488Y772274D01*
X491573Y775333D01*
X500867Y780301D01*
X509013Y786987D01*
X515699Y795133D01*
X520667Y804427D01*
X523726Y814512D01*
X524759Y825000D01*
X524759Y1125000D01*
X523726Y1135488D01*
X520667Y1145573D01*
X515699Y1154867D01*
X509013Y1163013D01*
X500867Y1169699D01*
X491573Y1174667D01*
X481488Y1177726D01*
X471000Y1178759D01*
X171000Y1178759D01*
X160512Y1177726D01*
X150427Y1174667D01*
X141133Y1169699D01*
X132987Y1163013D01*
X126301Y1154867D01*
X121333Y1145573D01*
X118274Y1135488D01*
X117241Y1125000D01*
X56000Y1125000D01*
X56000Y1253209D01*
X2100580Y1253209D01*
X2100580Y1234791D01*
X2104173Y1216727D01*
X2111221Y1199711D01*
X2121454Y1184397D01*
X2134477Y1171374D01*
X2149791Y1161141D01*
X2166807Y1154093D01*
X2184871Y1150500D01*
X2203289Y1150500D01*
X2221353Y1154093D01*
X2238369Y1161141D01*
X2253683Y1171374D01*
X2262809Y1180500D01*
X2461898Y1180500D01*
X2615950Y1026447D01*
X2615950Y772229D01*
X2606824Y763103D01*
X2596591Y747789D01*
X2589543Y730773D01*
X2585950Y712709D01*
X2585950Y694291D01*
X2589543Y676227D01*
X2596591Y659211D01*
X2606824Y643897D01*
X2619847Y630874D01*
X2635161Y620641D01*
X2652177Y613593D01*
X2670241Y610000D01*
X2672678Y610000D01*
X2634098Y571420D01*
X2475129Y571420D01*
X2466003Y580546D01*
X2450689Y590779D01*
X2433673Y597827D01*
X2415609Y601420D01*
X2397191Y601420D01*
X2379127Y597827D01*
X2362111Y590779D01*
X2346797Y580546D01*
X2333774Y567523D01*
X2323541Y552209D01*
X2316493Y535193D01*
X2312900Y517129D01*
X2312900Y498711D01*
X2316493Y480647D01*
X2323541Y463631D01*
X2333774Y448317D01*
X2346797Y435294D01*
X2362111Y425061D01*
X2379127Y418013D01*
X2397191Y414420D01*
X2415609Y414420D01*
X2433673Y418013D01*
X2450689Y425061D01*
X2466003Y435294D01*
X2475129Y444420D01*
X2657282Y444420D01*
X2660400Y444113D01*
X2663518Y444420D01*
X2663519Y444420D01*
X2672848Y445339D01*
X2684818Y448970D01*
X2695849Y454866D01*
X2705519Y462801D01*
X2707507Y465225D01*
X2831483Y589200D01*
X2850751Y589200D01*
X2859877Y580074D01*
X2875191Y569841D01*
X2892207Y562793D01*
X2910271Y559200D01*
X2928689Y559200D01*
X2946753Y562793D01*
X2963769Y569841D01*
X2979083Y580074D01*
X2992106Y593097D01*
X3002339Y608411D01*
X3009387Y625427D01*
X3011371Y635400D01*
X3017589Y635400D01*
X3035653Y638993D01*
X3052669Y646041D01*
X3067983Y656274D01*
X3081006Y669297D01*
X3091239Y684611D01*
X3098287Y701627D01*
X3101880Y719691D01*
X3101880Y738109D01*
X3098287Y756173D01*
X3091239Y773189D01*
X3081006Y788503D01*
X3071880Y797629D01*
X3071880Y1025502D01*
X3072187Y1028620D01*
X3071880Y1031738D01*
X3071880Y1031739D01*
X3070961Y1041068D01*
X3067330Y1053038D01*
X3061574Y1063807D01*
X3061434Y1064070D01*
X3055487Y1071316D01*
X3055486Y1071316D01*
X3053498Y1073739D01*
X3051076Y1075727D01*
X2957100Y1169703D01*
X2957100Y1182609D01*
X2953507Y1200673D01*
X2946459Y1217689D01*
X2936226Y1233003D01*
X2923203Y1246026D01*
X2907889Y1256259D01*
X2890873Y1263307D01*
X2872809Y1266900D01*
X2854391Y1266900D01*
X2836327Y1263307D01*
X2819311Y1256259D01*
X2803997Y1246026D01*
X2790974Y1233003D01*
X2780741Y1217689D01*
X2773693Y1200673D01*
X2773278Y1198585D01*
X2751360Y1220502D01*
X2751360Y1233409D01*
X2747767Y1251473D01*
X2740719Y1268489D01*
X2730486Y1283803D01*
X2717463Y1296826D01*
X2702149Y1307059D01*
X2685133Y1314107D01*
X2667069Y1317700D01*
X2648651Y1317700D01*
X2630587Y1314107D01*
X2613571Y1307059D01*
X2598257Y1296826D01*
X2585234Y1283803D01*
X2575001Y1268489D01*
X2568708Y1253295D01*
X2535307Y1286695D01*
X2533319Y1289119D01*
X2523649Y1297054D01*
X2512618Y1302950D01*
X2500648Y1306581D01*
X2491319Y1307500D01*
X2491318Y1307500D01*
X2488200Y1307807D01*
X2485082Y1307500D01*
X2262809Y1307500D01*
X2253683Y1316626D01*
X2238369Y1326859D01*
X2221353Y1333907D01*
X2203289Y1337500D01*
X2184871Y1337500D01*
X2166807Y1333907D01*
X2149791Y1326859D01*
X2134477Y1316626D01*
X2121454Y1303603D01*
X2111221Y1288289D01*
X2104173Y1271273D01*
X2100580Y1253209D01*
X56000Y1253209D01*
X56000Y1333835D01*
X189795Y1333835D01*
X205396Y1302279D01*
X242874Y1283198D01*
X283355Y1271796D01*
X325282Y1268510D01*
X367045Y1273467D01*
X407038Y1286476D01*
X436604Y1302279D01*
X452205Y1333835D01*
X321000Y1465039D01*
X189795Y1333835D01*
X56000Y1333835D01*
X56000Y1478718D01*
X106510Y1478718D01*
X111467Y1436955D01*
X124476Y1396962D01*
X140279Y1367396D01*
X171835Y1351795D01*
X303040Y1483000D01*
X338961Y1483000D01*
X470165Y1351795D01*
X501721Y1367396D01*
X507216Y1378189D01*
X3039340Y1378189D01*
X3039340Y1359771D01*
X3042933Y1341707D01*
X3049981Y1324691D01*
X3060214Y1309377D01*
X3073237Y1296354D01*
X3088551Y1286121D01*
X3105567Y1279073D01*
X3123631Y1275480D01*
X3142049Y1275480D01*
X3160113Y1279073D01*
X3177129Y1286121D01*
X3192443Y1296354D01*
X3204428Y1308339D01*
X3223490Y1308339D01*
X3223490Y1289921D01*
X3227083Y1271857D01*
X3234131Y1254841D01*
X3244364Y1239527D01*
X3257387Y1226504D01*
X3272701Y1216271D01*
X3289717Y1209223D01*
X3307781Y1205630D01*
X3326199Y1205630D01*
X3344263Y1209223D01*
X3361279Y1216271D01*
X3376593Y1226504D01*
X3389616Y1239527D01*
X3399849Y1254841D01*
X3406897Y1271857D01*
X3410490Y1289921D01*
X3410490Y1302828D01*
X3468232Y1360570D01*
X3481139Y1360570D01*
X3499203Y1364163D01*
X3516219Y1371211D01*
X3531533Y1381444D01*
X3544556Y1394467D01*
X3554789Y1409781D01*
X3561837Y1426797D01*
X3565430Y1444861D01*
X3565430Y1463279D01*
X3561837Y1481343D01*
X3554789Y1498359D01*
X3544556Y1513673D01*
X3531533Y1526696D01*
X3516219Y1536929D01*
X3499203Y1543977D01*
X3481139Y1547570D01*
X3462721Y1547570D01*
X3444657Y1543977D01*
X3427641Y1536929D01*
X3412327Y1526696D01*
X3399304Y1513673D01*
X3389071Y1498359D01*
X3382023Y1481343D01*
X3378430Y1463279D01*
X3378430Y1450372D01*
X3320687Y1392630D01*
X3307781Y1392630D01*
X3289717Y1389037D01*
X3272701Y1381989D01*
X3257387Y1371756D01*
X3244364Y1358733D01*
X3234131Y1343419D01*
X3227083Y1326403D01*
X3223490Y1308339D01*
X3204428Y1308339D01*
X3205466Y1309377D01*
X3215699Y1324691D01*
X3222747Y1341707D01*
X3226340Y1359771D01*
X3226340Y1372678D01*
X3301862Y1448200D01*
X3314769Y1448200D01*
X3332833Y1451793D01*
X3349849Y1458841D01*
X3365163Y1469074D01*
X3378186Y1482097D01*
X3388419Y1497411D01*
X3395467Y1514427D01*
X3399060Y1532491D01*
X3399060Y1550909D01*
X3395467Y1568973D01*
X3388419Y1585989D01*
X3378186Y1601303D01*
X3365163Y1614326D01*
X3349849Y1624559D01*
X3332833Y1631607D01*
X3314769Y1635200D01*
X3296351Y1635200D01*
X3278287Y1631607D01*
X3261271Y1624559D01*
X3245957Y1614326D01*
X3232934Y1601303D01*
X3222701Y1585989D01*
X3215653Y1568973D01*
X3212060Y1550909D01*
X3212060Y1538002D01*
X3136537Y1462480D01*
X3123631Y1462480D01*
X3105567Y1458887D01*
X3088551Y1451839D01*
X3073237Y1441606D01*
X3060214Y1428583D01*
X3049981Y1413269D01*
X3042933Y1396253D01*
X3039340Y1378189D01*
X507216Y1378189D01*
X520802Y1404874D01*
X532204Y1445355D01*
X535490Y1487282D01*
X530533Y1529045D01*
X517524Y1569038D01*
X501721Y1598604D01*
X470165Y1614205D01*
X338961Y1483000D01*
X303040Y1483000D01*
X171835Y1614205D01*
X140279Y1598604D01*
X121198Y1561125D01*
X109796Y1520645D01*
X106510Y1478718D01*
X56000Y1478718D01*
X56000Y1632165D01*
X189795Y1632165D01*
X321000Y1500960D01*
X452205Y1632165D01*
X436604Y1663721D01*
X399125Y1682802D01*
X358645Y1694204D01*
X316718Y1697490D01*
X274955Y1692533D01*
X234962Y1679524D01*
X205396Y1663721D01*
X189795Y1632165D01*
X56000Y1632165D01*
X56000Y1816020D01*
X1327039Y1816020D01*
X1329038Y1795730D01*
X1334956Y1776221D01*
X1344567Y1758240D01*
X1357500Y1742480D01*
X1373260Y1729547D01*
X1391241Y1719936D01*
X1410750Y1714018D01*
X1425956Y1712520D01*
X1924109Y1712520D01*
X1967300Y1669329D01*
X1970540Y1665380D01*
X1974489Y1662140D01*
X1986300Y1652447D01*
X1995911Y1647310D01*
X2004281Y1642836D01*
X2023790Y1636918D01*
X2038996Y1635420D01*
X2038996Y1635420D01*
X2044080Y1634919D01*
X2049163Y1635420D01*
X3804609Y1635420D01*
X3870420Y1569609D01*
X3873660Y1565660D01*
X3877609Y1562420D01*
X3889420Y1552727D01*
X3896635Y1548870D01*
X3907401Y1543116D01*
X3926910Y1537198D01*
X3942116Y1535700D01*
X3942116Y1535700D01*
X3947200Y1535199D01*
X3952283Y1535700D01*
X4355654Y1535700D01*
X4370860Y1537198D01*
X4390369Y1543116D01*
X4397520Y1546938D01*
X4397520Y1497309D01*
X4388394Y1488183D01*
X4378161Y1472869D01*
X4371113Y1455853D01*
X4367520Y1437789D01*
X4367520Y1419371D01*
X4371113Y1401307D01*
X4378161Y1384291D01*
X4388394Y1368977D01*
X4401417Y1355954D01*
X4416731Y1345721D01*
X4433747Y1338673D01*
X4451811Y1335080D01*
X4470229Y1335080D01*
X4488293Y1338673D01*
X4505309Y1345721D01*
X4520623Y1355954D01*
X4533646Y1368977D01*
X4543879Y1384291D01*
X4550927Y1401307D01*
X4554520Y1419371D01*
X4554520Y1426617D01*
X4683913Y1297224D01*
X4685902Y1294802D01*
X4688324Y1292814D01*
X4688324Y1292813D01*
X4695571Y1286866D01*
X4702523Y1283150D01*
X4706602Y1280970D01*
X4718572Y1277339D01*
X4727901Y1276420D01*
X4727901Y1276420D01*
X4731020Y1276113D01*
X4734139Y1276420D01*
X6417902Y1276420D01*
X6421020Y1276113D01*
X6424138Y1276420D01*
X6424139Y1276420D01*
X6433468Y1277339D01*
X6445438Y1280970D01*
X6456469Y1286866D01*
X6466138Y1294802D01*
X6468127Y1297225D01*
X6483852Y1312950D01*
X6496759Y1312950D01*
X6514823Y1316543D01*
X6531839Y1323591D01*
X6547153Y1333824D01*
X6560176Y1346847D01*
X6570409Y1362161D01*
X6577457Y1379177D01*
X6581050Y1397241D01*
X6581050Y1415659D01*
X6577457Y1433723D01*
X6570409Y1450739D01*
X6560176Y1466053D01*
X6547153Y1479076D01*
X6531839Y1489309D01*
X6514823Y1496357D01*
X6496759Y1499950D01*
X6478341Y1499950D01*
X6460277Y1496357D01*
X6443261Y1489309D01*
X6439050Y1486495D01*
X6439050Y1499129D01*
X6435457Y1517193D01*
X6428409Y1534209D01*
X6418176Y1549523D01*
X6405153Y1562546D01*
X6389839Y1572779D01*
X6372823Y1579827D01*
X6354759Y1583420D01*
X6336341Y1583420D01*
X6318277Y1579827D01*
X6301261Y1572779D01*
X6285947Y1562546D01*
X6272924Y1549523D01*
X6262691Y1534209D01*
X6255643Y1517193D01*
X6252050Y1499129D01*
X6252050Y1486222D01*
X6239248Y1473420D01*
X4777323Y1473420D01*
X4679520Y1571222D01*
X4679520Y1608439D01*
X6880754Y1608439D01*
X6881141Y1604672D01*
X6890358Y1582147D01*
X6903792Y1561853D01*
X6920927Y1544569D01*
X6941105Y1530961D01*
X6963550Y1521551D01*
X6987400Y1516700D01*
X7014900Y1516700D01*
X7014900Y1627500D01*
X7040300Y1627500D01*
X7040300Y1516700D01*
X7067800Y1516700D01*
X7091650Y1521551D01*
X7114095Y1530961D01*
X7134272Y1544569D01*
X7151408Y1561853D01*
X7164842Y1582147D01*
X7174059Y1604672D01*
X7174446Y1608439D01*
X7161973Y1627500D01*
X7040300Y1627500D01*
X7014900Y1627500D01*
X6893227Y1627500D01*
X6880754Y1608439D01*
X4679520Y1608439D01*
X4679520Y1903000D01*
X4682741Y1903000D01*
X4682741Y1813000D01*
X4684255Y1797635D01*
X4688736Y1782860D01*
X4696014Y1769244D01*
X4700500Y1763778D01*
X4700500Y1725791D01*
X4701401Y1721264D01*
X4701853Y1716671D01*
X4703193Y1712254D01*
X4704093Y1707727D01*
X4705860Y1703463D01*
X4707199Y1699046D01*
X4709375Y1694976D01*
X4711141Y1690711D01*
X4713706Y1686873D01*
X4715881Y1682803D01*
X4718809Y1679235D01*
X4721374Y1675397D01*
X4724638Y1672133D01*
X4727566Y1668566D01*
X4731134Y1665637D01*
X4734397Y1662374D01*
X4738235Y1659810D01*
X4741803Y1656881D01*
X4745874Y1654705D01*
X4749711Y1652141D01*
X4753975Y1650375D01*
X4758046Y1648199D01*
X4762463Y1646859D01*
X4766727Y1645093D01*
X4771254Y1644193D01*
X4775671Y1642853D01*
X4780264Y1642400D01*
X4784791Y1641500D01*
X4789407Y1641500D01*
X4794000Y1641048D01*
X4798593Y1641500D01*
X4803209Y1641500D01*
X4807736Y1642400D01*
X4812329Y1642853D01*
X4816746Y1644193D01*
X4821273Y1645093D01*
X4825537Y1646859D01*
X4829954Y1648199D01*
X4834024Y1650375D01*
X4838289Y1652141D01*
X4842127Y1654706D01*
X4846197Y1656881D01*
X4849765Y1659809D01*
X4853603Y1662374D01*
X4856867Y1665638D01*
X4860434Y1668566D01*
X4863221Y1671961D01*
X6880754Y1671961D01*
X6893227Y1652900D01*
X7014900Y1652900D01*
X7014900Y1654900D01*
X7040300Y1654900D01*
X7040300Y1652900D01*
X7161973Y1652900D01*
X7174446Y1671961D01*
X7174059Y1675728D01*
X7164842Y1698253D01*
X7151408Y1718547D01*
X7134272Y1735831D01*
X7119213Y1745987D01*
X7135745Y1759555D01*
X7149928Y1776838D01*
X7160468Y1796555D01*
X7166958Y1817950D01*
X7169149Y1840200D01*
X7166958Y1862450D01*
X7160468Y1883845D01*
X7149928Y1903562D01*
X7135745Y1920845D01*
X7118462Y1935028D01*
X7108787Y1940200D01*
X7118462Y1945372D01*
X7135745Y1959555D01*
X7149928Y1976838D01*
X7160468Y1996555D01*
X7166958Y2017950D01*
X7169149Y2040200D01*
X7166958Y2062450D01*
X7160468Y2083845D01*
X7149928Y2103562D01*
X7135745Y2120845D01*
X7118462Y2135028D01*
X7108787Y2140200D01*
X7118462Y2145372D01*
X7135745Y2159555D01*
X7149928Y2176838D01*
X7160468Y2196555D01*
X7166958Y2217950D01*
X7169149Y2240200D01*
X7166958Y2262450D01*
X7160468Y2283845D01*
X7149928Y2303562D01*
X7135745Y2320845D01*
X7118462Y2335028D01*
X7098745Y2345568D01*
X7077350Y2352058D01*
X7060675Y2353700D01*
X6994525Y2353700D01*
X6977850Y2352058D01*
X6956455Y2345568D01*
X6936738Y2335028D01*
X6919455Y2320845D01*
X6905272Y2303562D01*
X6894732Y2283845D01*
X6888242Y2262450D01*
X6886051Y2240200D01*
X6888242Y2217950D01*
X6894732Y2196555D01*
X6905272Y2176838D01*
X6919455Y2159555D01*
X6936738Y2145372D01*
X6946413Y2140200D01*
X6936738Y2135028D01*
X6919455Y2120845D01*
X6905272Y2103562D01*
X6894732Y2083845D01*
X6888242Y2062450D01*
X6886051Y2040200D01*
X6888242Y2017950D01*
X6894732Y1996555D01*
X6905272Y1976838D01*
X6919455Y1959555D01*
X6936738Y1945372D01*
X6946413Y1940200D01*
X6936738Y1935028D01*
X6919455Y1920845D01*
X6905272Y1903562D01*
X6894732Y1883845D01*
X6888242Y1862450D01*
X6886051Y1840200D01*
X6888242Y1817950D01*
X6894732Y1796555D01*
X6905272Y1776838D01*
X6919455Y1759555D01*
X6935987Y1745987D01*
X6920927Y1735831D01*
X6903792Y1718547D01*
X6890358Y1698253D01*
X6881141Y1675728D01*
X6880754Y1671961D01*
X4863221Y1671961D01*
X4863363Y1672133D01*
X4866626Y1675397D01*
X4869190Y1679235D01*
X4872119Y1682803D01*
X4874295Y1686874D01*
X4876859Y1690711D01*
X4878625Y1694975D01*
X4880801Y1699046D01*
X4882141Y1703463D01*
X4883907Y1707727D01*
X4884807Y1712254D01*
X4886147Y1716671D01*
X4886600Y1721264D01*
X4887500Y1725791D01*
X4887500Y1754321D01*
X4888446Y1752551D01*
X4896382Y1742881D01*
X4906051Y1734946D01*
X4917082Y1729050D01*
X4929052Y1725419D01*
X4941500Y1724193D01*
X4970425Y1724500D01*
X4986300Y1740375D01*
X4986300Y1845300D01*
X5011700Y1845300D01*
X5011700Y1740375D01*
X5027575Y1724500D01*
X5056500Y1724193D01*
X5068948Y1725419D01*
X5080918Y1729050D01*
X5091949Y1734946D01*
X5101619Y1742881D01*
X5109554Y1752551D01*
X5115450Y1763582D01*
X5119081Y1775552D01*
X5120307Y1788000D01*
X5120000Y1829425D01*
X5104125Y1845300D01*
X5011700Y1845300D01*
X4986300Y1845300D01*
X4984300Y1845300D01*
X4984300Y1870700D01*
X4986300Y1870700D01*
X4986300Y1975625D01*
X5011700Y1975625D01*
X5011700Y1870700D01*
X5104125Y1870700D01*
X5120000Y1886575D01*
X5120307Y1928000D01*
X5119081Y1940448D01*
X5115450Y1952418D01*
X5109554Y1963449D01*
X5101619Y1973118D01*
X5091949Y1981054D01*
X5080918Y1986950D01*
X5068948Y1990581D01*
X5056500Y1991807D01*
X5027575Y1991500D01*
X5011700Y1975625D01*
X4986300Y1975625D01*
X4970425Y1991500D01*
X4941500Y1991807D01*
X4929052Y1990581D01*
X4917082Y1986950D01*
X4906051Y1981054D01*
X4896382Y1973118D01*
X4888446Y1963449D01*
X4884439Y1955952D01*
X4882191Y1958691D01*
X4870256Y1968486D01*
X4856640Y1975764D01*
X4841865Y1980245D01*
X4826500Y1981759D01*
X4761500Y1981759D01*
X4746135Y1980245D01*
X4731360Y1975764D01*
X4717744Y1968486D01*
X4705809Y1958691D01*
X4696014Y1946756D01*
X4688736Y1933140D01*
X4684255Y1918365D01*
X4682741Y1903000D01*
X4679520Y1903000D01*
X4679520Y1938812D01*
X4679827Y1941930D01*
X4679520Y1945048D01*
X4679520Y1945049D01*
X4678601Y1954378D01*
X4674970Y1966348D01*
X4669074Y1977379D01*
X4661139Y1987048D01*
X4658716Y1989037D01*
X4529957Y2117795D01*
X4527969Y2120219D01*
X4518299Y2128154D01*
X4507268Y2134050D01*
X4495298Y2137681D01*
X4485969Y2138600D01*
X4485968Y2138600D01*
X4482850Y2138907D01*
X4479732Y2138600D01*
X2906045Y2138600D01*
X2690033Y2354612D01*
X2690033Y2367519D01*
X2686440Y2385583D01*
X2679391Y2402599D01*
X2669159Y2417913D01*
X2656136Y2430936D01*
X2640822Y2441169D01*
X2623806Y2448217D01*
X2605742Y2451810D01*
X2587324Y2451810D01*
X2569260Y2448217D01*
X2552244Y2441169D01*
X2540568Y2433367D01*
X2534108Y2439826D01*
X2518795Y2450059D01*
X2501779Y2457107D01*
X2483715Y2460700D01*
X2465297Y2460700D01*
X2447233Y2457107D01*
X2430217Y2450059D01*
X2414903Y2439826D01*
X2401879Y2426803D01*
X2391647Y2411489D01*
X2384599Y2394473D01*
X2381006Y2376409D01*
X2381006Y2357991D01*
X2384599Y2339927D01*
X2391647Y2322911D01*
X2401879Y2307597D01*
X2414903Y2294574D01*
X2416399Y2293574D01*
X2408631Y2281949D01*
X2401583Y2264933D01*
X2397990Y2246869D01*
X2397990Y2228451D01*
X2401583Y2210387D01*
X2408631Y2193371D01*
X2418864Y2178057D01*
X2431887Y2165034D01*
X2447201Y2154801D01*
X2464217Y2147753D01*
X2482281Y2144160D01*
X2495188Y2144160D01*
X2581660Y2057688D01*
X2581660Y2011808D01*
X2577085Y2013195D01*
X2561720Y2014709D01*
X2496720Y2014709D01*
X2481355Y2013195D01*
X2466580Y2008714D01*
X2452964Y2001436D01*
X2441029Y1991641D01*
X2438781Y1988902D01*
X2434774Y1996399D01*
X2426839Y2006068D01*
X2417169Y2014004D01*
X2406138Y2019900D01*
X2394168Y2023531D01*
X2381720Y2024757D01*
X2352795Y2024450D01*
X2336920Y2008575D01*
X2336920Y1903650D01*
X2338920Y1903650D01*
X2338920Y1878250D01*
X2336920Y1878250D01*
X2336920Y1876250D01*
X2311520Y1876250D01*
X2311520Y1878250D01*
X2219095Y1878250D01*
X2203220Y1862375D01*
X2203072Y1842420D01*
X2086951Y1842420D01*
X2043761Y1885610D01*
X2040520Y1889560D01*
X2024760Y1902493D01*
X2006779Y1912104D01*
X1987269Y1918022D01*
X1972064Y1919520D01*
X1972063Y1919520D01*
X1966980Y1920021D01*
X1961897Y1919520D01*
X1425956Y1919520D01*
X1410750Y1918022D01*
X1391241Y1912104D01*
X1373260Y1902493D01*
X1357500Y1889560D01*
X1344567Y1873800D01*
X1334956Y1855819D01*
X1329038Y1836309D01*
X1327039Y1816020D01*
X56000Y1816020D01*
X56000Y1960950D01*
X2202913Y1960950D01*
X2203220Y1919525D01*
X2219095Y1903650D01*
X2311520Y1903650D01*
X2311520Y2008575D01*
X2295645Y2024450D01*
X2266720Y2024757D01*
X2254272Y2023531D01*
X2242302Y2019900D01*
X2231271Y2014004D01*
X2221602Y2006068D01*
X2213666Y1996399D01*
X2207770Y1985368D01*
X2204139Y1973398D01*
X2202913Y1960950D01*
X56000Y1960950D01*
X56000Y2146644D01*
X730604Y2146644D01*
X736793Y2123063D01*
X760979Y2111773D01*
X786903Y2105419D01*
X813568Y2104244D01*
X839950Y2108294D01*
X865035Y2117413D01*
X875607Y2123063D01*
X881795Y2146644D01*
X806200Y2222240D01*
X730604Y2146644D01*
X56000Y2146644D01*
X56000Y2232832D01*
X670244Y2232832D01*
X674294Y2206450D01*
X683413Y2181365D01*
X689063Y2170793D01*
X712644Y2164605D01*
X788239Y2240200D01*
X824160Y2240200D01*
X899756Y2164605D01*
X923337Y2170793D01*
X934627Y2194979D01*
X940981Y2220903D01*
X942156Y2247568D01*
X938106Y2273950D01*
X928987Y2299035D01*
X923337Y2309607D01*
X899756Y2315796D01*
X824160Y2240200D01*
X788239Y2240200D01*
X712644Y2315796D01*
X689063Y2309607D01*
X677773Y2285421D01*
X671419Y2259497D01*
X670244Y2232832D01*
X56000Y2232832D01*
X56000Y2333756D01*
X730604Y2333756D01*
X806200Y2258161D01*
X881795Y2333756D01*
X875607Y2357337D01*
X851421Y2368627D01*
X825497Y2374981D01*
X798832Y2376156D01*
X772450Y2372106D01*
X747365Y2362988D01*
X736793Y2357337D01*
X730604Y2333756D01*
X56000Y2333756D01*
X56000Y2506561D01*
X934700Y2506561D01*
X934700Y2481839D01*
X939523Y2457593D01*
X948983Y2434754D01*
X962718Y2414198D01*
X980198Y2396718D01*
X1000753Y2382983D01*
X1023593Y2373523D01*
X1047839Y2368700D01*
X1072561Y2368700D01*
X1096807Y2373523D01*
X1119647Y2382983D01*
X1140202Y2396718D01*
X1157682Y2414198D01*
X1171417Y2434754D01*
X1180877Y2457593D01*
X1185700Y2481839D01*
X1185700Y2506561D01*
X1180877Y2530807D01*
X1171417Y2553647D01*
X1157682Y2574202D01*
X1140202Y2591682D01*
X1119647Y2605417D01*
X1096807Y2614877D01*
X1072561Y2619700D01*
X1047839Y2619700D01*
X1023593Y2614877D01*
X1000753Y2605417D01*
X980198Y2591682D01*
X962718Y2574202D01*
X948983Y2553647D01*
X939523Y2530807D01*
X934700Y2506561D01*
X56000Y2506561D01*
X56000Y2760561D01*
X680700Y2760561D01*
X680700Y2735839D01*
X685523Y2711593D01*
X694983Y2688754D01*
X708718Y2668198D01*
X726198Y2650718D01*
X746753Y2636983D01*
X769593Y2627523D01*
X793839Y2622700D01*
X818561Y2622700D01*
X842807Y2627523D01*
X865646Y2636983D01*
X873018Y2641909D01*
X4264410Y2641909D01*
X4264410Y2623491D01*
X4268003Y2605427D01*
X4275051Y2588411D01*
X4285284Y2573097D01*
X4298307Y2560074D01*
X4313621Y2549841D01*
X4330637Y2542793D01*
X4348701Y2539200D01*
X4367119Y2539200D01*
X4385183Y2542793D01*
X4402199Y2549841D01*
X4408722Y2554200D01*
X4634038Y2554200D01*
X4640561Y2549841D01*
X4657577Y2542793D01*
X4675641Y2539200D01*
X4694059Y2539200D01*
X4712123Y2542793D01*
X4729139Y2549841D01*
X4744453Y2560074D01*
X4757476Y2573097D01*
X4767709Y2588411D01*
X4774757Y2605427D01*
X4778350Y2623491D01*
X4778350Y2641909D01*
X4774757Y2659973D01*
X4767709Y2676989D01*
X4757476Y2692303D01*
X4744453Y2705326D01*
X4729139Y2715559D01*
X4712123Y2722607D01*
X4694059Y2726200D01*
X4675641Y2726200D01*
X4657577Y2722607D01*
X4640561Y2715559D01*
X4634038Y2711200D01*
X4408722Y2711200D01*
X4402199Y2715559D01*
X4385183Y2722607D01*
X4367119Y2726200D01*
X4348701Y2726200D01*
X4330637Y2722607D01*
X4313621Y2715559D01*
X4298307Y2705326D01*
X4285284Y2692303D01*
X4275051Y2676989D01*
X4268003Y2659973D01*
X4264410Y2641909D01*
X873018Y2641909D01*
X886202Y2650718D01*
X903682Y2668198D01*
X917417Y2688754D01*
X926877Y2711593D01*
X931700Y2735839D01*
X931700Y2760561D01*
X926877Y2784807D01*
X917417Y2807646D01*
X903682Y2828202D01*
X886202Y2845682D01*
X865646Y2859417D01*
X842807Y2868877D01*
X818561Y2873700D01*
X793839Y2873700D01*
X769593Y2868877D01*
X746753Y2859417D01*
X726198Y2845682D01*
X708718Y2828202D01*
X694983Y2807646D01*
X685523Y2784807D01*
X680700Y2760561D01*
X56000Y2760561D01*
X56000Y3291322D01*
X56320Y3289711D01*
X71661Y3252677D01*
X93931Y3219346D01*
X122276Y3191001D01*
X155607Y3168731D01*
X192641Y3153390D01*
X231957Y3145570D01*
X272043Y3145570D01*
X311359Y3153390D01*
X348393Y3168731D01*
X381724Y3191001D01*
X409792Y3219070D01*
X648103Y3219070D01*
X649329Y3206622D01*
X652960Y3194652D01*
X658856Y3183621D01*
X666792Y3173951D01*
X676461Y3166016D01*
X687492Y3160120D01*
X699462Y3156489D01*
X711910Y3155263D01*
X773335Y3155570D01*
X789210Y3171445D01*
X789210Y3336370D01*
X664285Y3336370D01*
X648410Y3320495D01*
X648103Y3219070D01*
X409792Y3219070D01*
X410069Y3219346D01*
X432339Y3252677D01*
X447680Y3289711D01*
X455500Y3329027D01*
X455500Y3369113D01*
X447680Y3408429D01*
X432339Y3445463D01*
X410069Y3478794D01*
X409792Y3479070D01*
X648103Y3479070D01*
X648410Y3377645D01*
X664285Y3361770D01*
X789210Y3361770D01*
X789210Y3526695D01*
X814610Y3526695D01*
X814610Y3361770D01*
X816610Y3361770D01*
X816610Y3336370D01*
X814610Y3336370D01*
X814610Y3171445D01*
X830485Y3155570D01*
X891910Y3155263D01*
X904358Y3156489D01*
X916328Y3160120D01*
X927359Y3166016D01*
X937028Y3173951D01*
X944964Y3183621D01*
X950860Y3194652D01*
X954491Y3206622D01*
X954495Y3206661D01*
X975800Y3189177D01*
X1000729Y3175852D01*
X1027779Y3167646D01*
X1055910Y3164876D01*
X1084041Y3167646D01*
X1111091Y3175852D01*
X1136020Y3189177D01*
X1157871Y3207109D01*
X1175803Y3228960D01*
X1182910Y3242256D01*
X1190017Y3228960D01*
X1207949Y3207109D01*
X1229800Y3189177D01*
X1254729Y3175852D01*
X1281779Y3167646D01*
X1309910Y3164876D01*
X1338041Y3167646D01*
X1365091Y3175852D01*
X1390020Y3189177D01*
X1411871Y3207109D01*
X1429803Y3228960D01*
X1436910Y3242256D01*
X1444017Y3228960D01*
X1461949Y3207109D01*
X1483800Y3189177D01*
X1508729Y3175852D01*
X1535779Y3167646D01*
X1563910Y3164876D01*
X1592041Y3167646D01*
X1619091Y3175852D01*
X1644020Y3189177D01*
X1665871Y3207109D01*
X1683803Y3228960D01*
X1685331Y3231818D01*
X1697335Y3213230D01*
X1718349Y3191549D01*
X1743190Y3174384D01*
X1770901Y3162394D01*
X1781436Y3159966D01*
X1805210Y3172032D01*
X1805210Y3336370D01*
X1803210Y3336370D01*
X1803210Y3361770D01*
X1805210Y3361770D01*
X1805210Y3526108D01*
X1830610Y3526108D01*
X1830610Y3361770D01*
X1832610Y3361770D01*
X1832610Y3336370D01*
X1830610Y3336370D01*
X1830610Y3172032D01*
X1854384Y3159966D01*
X1864919Y3162394D01*
X1892630Y3174384D01*
X1917471Y3191549D01*
X1938485Y3213230D01*
X1950489Y3231818D01*
X1952017Y3228960D01*
X1969949Y3207109D01*
X1991800Y3189177D01*
X2008410Y3180299D01*
X2008410Y3162516D01*
X2008103Y3159398D01*
X2008410Y3156280D01*
X2008410Y3156279D01*
X2009329Y3146950D01*
X2012960Y3134980D01*
X2018856Y3123949D01*
X2026791Y3114279D01*
X2029215Y3112291D01*
X2209941Y2931564D01*
X2211930Y2929141D01*
X2214352Y2927153D01*
X2214352Y2927153D01*
X2221599Y2921206D01*
X2232109Y2915588D01*
X2232630Y2915310D01*
X2244600Y2911679D01*
X2253929Y2910760D01*
X2253929Y2910760D01*
X2257048Y2910453D01*
X2260167Y2910760D01*
X2350371Y2910760D01*
X2359497Y2901634D01*
X2374811Y2891401D01*
X2391827Y2884353D01*
X2409891Y2880760D01*
X2428309Y2880760D01*
X2446373Y2884353D01*
X2453886Y2887465D01*
X2456193Y2875867D01*
X2463241Y2858851D01*
X2473474Y2843537D01*
X2486497Y2830514D01*
X2501811Y2820281D01*
X2518827Y2813233D01*
X2536891Y2809640D01*
X2549798Y2809640D01*
X2572653Y2786784D01*
X2574642Y2784362D01*
X2577064Y2782374D01*
X2577064Y2782373D01*
X2584311Y2776426D01*
X2595342Y2770530D01*
X2607312Y2766899D01*
X2616641Y2765980D01*
X2616641Y2765980D01*
X2619760Y2765673D01*
X2622879Y2765980D01*
X2979862Y2765980D01*
X2982980Y2765673D01*
X2986098Y2765980D01*
X2986099Y2765980D01*
X2995428Y2766899D01*
X3007398Y2770530D01*
X3018429Y2776426D01*
X3023331Y2780449D01*
X5955900Y2780449D01*
X5955900Y2754151D01*
X5961030Y2728360D01*
X5971094Y2704064D01*
X5985704Y2682199D01*
X6004299Y2663604D01*
X6026164Y2648994D01*
X6050459Y2638930D01*
X6076251Y2633800D01*
X6102549Y2633800D01*
X6128340Y2638930D01*
X6152636Y2648994D01*
X6174501Y2663604D01*
X6193096Y2682199D01*
X6207706Y2704064D01*
X6217770Y2728360D01*
X6222900Y2754151D01*
X6222900Y2780449D01*
X6217770Y2806240D01*
X6207706Y2830536D01*
X6193096Y2852401D01*
X6174501Y2870996D01*
X6152636Y2885606D01*
X6128340Y2895670D01*
X6102549Y2900800D01*
X6076251Y2900800D01*
X6050459Y2895670D01*
X6026164Y2885606D01*
X6004299Y2870996D01*
X5985704Y2852401D01*
X5971094Y2830536D01*
X5961030Y2806240D01*
X5955900Y2780449D01*
X3023331Y2780449D01*
X3028098Y2784362D01*
X3030087Y2786785D01*
X3190901Y2947598D01*
X3997140Y2947598D01*
X4000258Y2947291D01*
X4003376Y2947598D01*
X4003377Y2947598D01*
X4012706Y2948517D01*
X4024676Y2952148D01*
X4035707Y2958044D01*
X4045376Y2965979D01*
X4047365Y2968403D01*
X4146606Y3067643D01*
X4149028Y3069631D01*
X4151016Y3072054D01*
X4151017Y3072054D01*
X4156964Y3079301D01*
X4162860Y3090332D01*
X4163093Y3091100D01*
X4166491Y3102302D01*
X4167410Y3111631D01*
X4167410Y3111631D01*
X4167717Y3114750D01*
X4167410Y3117869D01*
X4167410Y3180298D01*
X4184020Y3189177D01*
X4205871Y3207109D01*
X4223803Y3228960D01*
X4230910Y3242256D01*
X4238017Y3228960D01*
X4255949Y3207109D01*
X4277800Y3189177D01*
X4302729Y3175852D01*
X4329779Y3167646D01*
X4357910Y3164876D01*
X4386041Y3167646D01*
X4413091Y3175852D01*
X4438020Y3189177D01*
X4459871Y3207109D01*
X4477803Y3228960D01*
X4484910Y3242256D01*
X4492017Y3228960D01*
X4509949Y3207109D01*
X4531800Y3189177D01*
X4556729Y3175852D01*
X4583779Y3167646D01*
X4611910Y3164876D01*
X4640041Y3167646D01*
X4667091Y3175852D01*
X4692020Y3189177D01*
X4713871Y3207109D01*
X4731803Y3228960D01*
X4745128Y3253889D01*
X4750188Y3270570D01*
X4954921Y3270570D01*
X4953953Y3268233D01*
X4953053Y3263705D01*
X4951713Y3259289D01*
X4951261Y3254697D01*
X4950360Y3250169D01*
X4950360Y3246223D01*
X4949161Y3244763D01*
X4944193Y3235469D01*
X4941134Y3225384D01*
X4940101Y3214896D01*
X4940101Y3064896D01*
X4941134Y3054408D01*
X4944193Y3044323D01*
X4949161Y3035029D01*
X4955847Y3026883D01*
X4963993Y3020197D01*
X4973287Y3015229D01*
X4983372Y3012170D01*
X4993860Y3011137D01*
X5093860Y3011137D01*
X5104348Y3012170D01*
X5108860Y3013539D01*
X5113372Y3012170D01*
X5123860Y3011137D01*
X5219730Y3011137D01*
X5229442Y3005946D01*
X5241412Y3002315D01*
X5253860Y3001089D01*
X5275285Y3001396D01*
X5291160Y3017271D01*
X5291160Y3127196D01*
X5316560Y3127196D01*
X5316560Y3017271D01*
X5332435Y3001396D01*
X5353860Y3001089D01*
X5366308Y3002315D01*
X5378278Y3005946D01*
X5389309Y3011842D01*
X5398979Y3019777D01*
X5406914Y3029447D01*
X5412810Y3040478D01*
X5416441Y3052448D01*
X5417667Y3064896D01*
X5417360Y3111321D01*
X5401485Y3127196D01*
X5316560Y3127196D01*
X5291160Y3127196D01*
X5289160Y3127196D01*
X5289160Y3152596D01*
X5291160Y3152596D01*
X5291160Y3262521D01*
X5316560Y3262521D01*
X5316560Y3152596D01*
X5401485Y3152596D01*
X5417360Y3168471D01*
X5417413Y3176509D01*
X5506000Y3176509D01*
X5506000Y3158091D01*
X5509593Y3140027D01*
X5516641Y3123011D01*
X5526874Y3107697D01*
X5539897Y3094674D01*
X5555211Y3084441D01*
X5572227Y3077393D01*
X5590291Y3073800D01*
X5608709Y3073800D01*
X5626773Y3077393D01*
X5643789Y3084441D01*
X5659103Y3094674D01*
X5668229Y3103800D01*
X5955641Y3103800D01*
X5955641Y3087300D01*
X5956674Y3076812D01*
X5959733Y3066727D01*
X5964701Y3057433D01*
X5971387Y3049287D01*
X5979533Y3042601D01*
X5988827Y3037633D01*
X5998912Y3034574D01*
X6009400Y3033541D01*
X6169400Y3033541D01*
X6179888Y3034574D01*
X6189973Y3037633D01*
X6199267Y3042601D01*
X6207413Y3049287D01*
X6214099Y3057433D01*
X6219067Y3066727D01*
X6222126Y3076812D01*
X6223159Y3087300D01*
X6223159Y3247300D01*
X6222126Y3257788D01*
X6219067Y3267873D01*
X6214099Y3277167D01*
X6207413Y3285313D01*
X6199267Y3291999D01*
X6189973Y3296967D01*
X6179888Y3300026D01*
X6169400Y3301059D01*
X6009400Y3301059D01*
X5998912Y3300026D01*
X5988827Y3296967D01*
X5979533Y3291999D01*
X5971387Y3285313D01*
X5964701Y3277167D01*
X5959733Y3267873D01*
X5956674Y3257788D01*
X5955641Y3247300D01*
X5955641Y3230800D01*
X5668229Y3230800D01*
X5659103Y3239926D01*
X5643789Y3250159D01*
X5626773Y3257207D01*
X5608709Y3260800D01*
X5590291Y3260800D01*
X5572227Y3257207D01*
X5555211Y3250159D01*
X5539897Y3239926D01*
X5526874Y3226903D01*
X5516641Y3211589D01*
X5509593Y3194573D01*
X5506000Y3176509D01*
X5417413Y3176509D01*
X5417667Y3214896D01*
X5416441Y3227344D01*
X5412810Y3239314D01*
X5406914Y3250345D01*
X5398979Y3260014D01*
X5389309Y3267950D01*
X5378278Y3273846D01*
X5366308Y3277477D01*
X5353860Y3278703D01*
X5332435Y3278396D01*
X5316560Y3262521D01*
X5291160Y3262521D01*
X5275285Y3278396D01*
X5253860Y3278703D01*
X5252360Y3278555D01*
X5252360Y3303776D01*
X5252740Y3307632D01*
X5252360Y3311488D01*
X5252360Y3311488D01*
X5251962Y3315529D01*
X5251224Y3323021D01*
X5246735Y3337818D01*
X5239446Y3351455D01*
X5229636Y3363408D01*
X5226641Y3365867D01*
X5190657Y3401851D01*
X5188198Y3404846D01*
X5176245Y3414656D01*
X5162608Y3421945D01*
X5147811Y3426434D01*
X5136278Y3427570D01*
X5136277Y3427570D01*
X5132422Y3427950D01*
X5128567Y3427570D01*
X4750188Y3427570D01*
X4745128Y3444251D01*
X4731803Y3469180D01*
X4713871Y3491031D01*
X4692020Y3508963D01*
X4667091Y3522288D01*
X4640041Y3530494D01*
X4611910Y3533264D01*
X4583779Y3530494D01*
X4556729Y3522288D01*
X4531800Y3508963D01*
X4509949Y3491031D01*
X4492017Y3469180D01*
X4484910Y3455884D01*
X4477803Y3469180D01*
X4459871Y3491031D01*
X4438020Y3508963D01*
X4413091Y3522288D01*
X4386041Y3530494D01*
X4357910Y3533264D01*
X4329779Y3530494D01*
X4302729Y3522288D01*
X4277800Y3508963D01*
X4255949Y3491031D01*
X4238017Y3469180D01*
X4230910Y3455884D01*
X4223803Y3469180D01*
X4205871Y3491031D01*
X4184020Y3508963D01*
X4159091Y3522288D01*
X4132041Y3530494D01*
X4103910Y3533264D01*
X4075779Y3530494D01*
X4048729Y3522288D01*
X4023800Y3508963D01*
X4001949Y3491031D01*
X3984017Y3469180D01*
X3976910Y3455884D01*
X3969803Y3469180D01*
X3951871Y3491031D01*
X3930020Y3508963D01*
X3905091Y3522288D01*
X3878041Y3530494D01*
X3849910Y3533264D01*
X3821779Y3530494D01*
X3794729Y3522288D01*
X3769800Y3508963D01*
X3747949Y3491031D01*
X3730017Y3469180D01*
X3722910Y3455884D01*
X3715803Y3469180D01*
X3697871Y3491031D01*
X3676020Y3508963D01*
X3651091Y3522288D01*
X3624041Y3530494D01*
X3595910Y3533264D01*
X3567779Y3530494D01*
X3540729Y3522288D01*
X3515800Y3508963D01*
X3493949Y3491031D01*
X3476017Y3469180D01*
X3468910Y3455884D01*
X3461803Y3469180D01*
X3443871Y3491031D01*
X3422020Y3508963D01*
X3397091Y3522288D01*
X3370041Y3530494D01*
X3341910Y3533264D01*
X3313779Y3530494D01*
X3286729Y3522288D01*
X3261800Y3508963D01*
X3239949Y3491031D01*
X3222017Y3469180D01*
X3214910Y3455884D01*
X3207803Y3469180D01*
X3189871Y3491031D01*
X3168020Y3508963D01*
X3143091Y3522288D01*
X3116041Y3530494D01*
X3087910Y3533264D01*
X3059779Y3530494D01*
X3032729Y3522288D01*
X3007800Y3508963D01*
X2985949Y3491031D01*
X2968017Y3469180D01*
X2960910Y3455884D01*
X2953803Y3469180D01*
X2935871Y3491031D01*
X2914020Y3508963D01*
X2889091Y3522288D01*
X2862041Y3530494D01*
X2833910Y3533264D01*
X2805779Y3530494D01*
X2778729Y3522288D01*
X2753800Y3508963D01*
X2731949Y3491031D01*
X2714017Y3469180D01*
X2706910Y3455884D01*
X2699803Y3469180D01*
X2681871Y3491031D01*
X2660020Y3508963D01*
X2635091Y3522288D01*
X2608041Y3530494D01*
X2579910Y3533264D01*
X2551779Y3530494D01*
X2524729Y3522288D01*
X2499800Y3508963D01*
X2477949Y3491031D01*
X2460017Y3469180D01*
X2452910Y3455884D01*
X2445803Y3469180D01*
X2427871Y3491031D01*
X2406020Y3508963D01*
X2381091Y3522288D01*
X2354041Y3530494D01*
X2325910Y3533264D01*
X2297779Y3530494D01*
X2270729Y3522288D01*
X2245800Y3508963D01*
X2223949Y3491031D01*
X2206017Y3469180D01*
X2198910Y3455884D01*
X2191803Y3469180D01*
X2173871Y3491031D01*
X2152020Y3508963D01*
X2127091Y3522288D01*
X2100041Y3530494D01*
X2071910Y3533264D01*
X2043779Y3530494D01*
X2016729Y3522288D01*
X1991800Y3508963D01*
X1969949Y3491031D01*
X1952017Y3469180D01*
X1950489Y3466322D01*
X1938485Y3484910D01*
X1917471Y3506591D01*
X1892630Y3523756D01*
X1864919Y3535745D01*
X1854384Y3538174D01*
X1830610Y3526108D01*
X1805210Y3526108D01*
X1781436Y3538174D01*
X1770901Y3535745D01*
X1743190Y3523756D01*
X1718349Y3506591D01*
X1697335Y3484910D01*
X1685331Y3466322D01*
X1683803Y3469180D01*
X1665871Y3491031D01*
X1644020Y3508963D01*
X1619091Y3522288D01*
X1592041Y3530494D01*
X1563910Y3533264D01*
X1535779Y3530494D01*
X1508729Y3522288D01*
X1483800Y3508963D01*
X1461949Y3491031D01*
X1444017Y3469180D01*
X1436910Y3455884D01*
X1429803Y3469180D01*
X1411871Y3491031D01*
X1390020Y3508963D01*
X1365091Y3522288D01*
X1338041Y3530494D01*
X1309910Y3533264D01*
X1281779Y3530494D01*
X1254729Y3522288D01*
X1229800Y3508963D01*
X1207949Y3491031D01*
X1190017Y3469180D01*
X1182910Y3455884D01*
X1175803Y3469180D01*
X1157871Y3491031D01*
X1136020Y3508963D01*
X1111091Y3522288D01*
X1084041Y3530494D01*
X1055910Y3533264D01*
X1027779Y3530494D01*
X1000729Y3522288D01*
X975800Y3508963D01*
X954495Y3491479D01*
X954491Y3491518D01*
X950860Y3503488D01*
X944964Y3514519D01*
X937028Y3524188D01*
X927359Y3532124D01*
X916328Y3538020D01*
X904358Y3541651D01*
X891910Y3542877D01*
X830485Y3542570D01*
X814610Y3526695D01*
X789210Y3526695D01*
X773335Y3542570D01*
X711910Y3542877D01*
X699462Y3541651D01*
X687492Y3538020D01*
X676461Y3532124D01*
X666792Y3524188D01*
X658856Y3514519D01*
X652960Y3503488D01*
X649329Y3491518D01*
X648103Y3479070D01*
X409792Y3479070D01*
X381724Y3507139D01*
X348393Y3529409D01*
X313168Y3544000D01*
X7690742Y3544000D01*
X7655517Y3529409D01*
M02*
