G04 #@! TF.GenerationSoftware,KiCad,Pcbnew,(5.1.0)-1*
G04 #@! TF.CreationDate,2022-02-28T18:41:10-08:00*
G04 #@! TF.ProjectId,1602A_LCD-RTC  Backpack,31363032-415f-44c4-9344-2d5254432020,rev?*
G04 #@! TF.SameCoordinates,PX660b0c0PY66ff300*
G04 #@! TF.FileFunction,Legend,Bot*
G04 #@! TF.FilePolarity,Positive*
%FSLAX45Y45*%
G04 Gerber Fmt 4.5, Leading zero omitted, Abs format (unit mm)*
G04 Created by KiCad (PCBNEW (5.1.0)-1) date 2022-02-28 18:41:10*
%MOMM*%
%LPD*%
G04 APERTURE LIST*
%ADD10C,0.150000*%
%ADD11C,0.200000*%
%ADD12C,0.120000*%
%ADD13C,3.102000*%
%ADD14O,1.902000X2.702000*%
%ADD15R,1.902000X2.702000*%
%ADD16C,0.100000*%
%ADD17C,1.527000*%
%ADD18R,3.102000X3.102000*%
%ADD19C,1.427000*%
%ADD20R,3.402000X3.402000*%
%ADD21R,4.102000X4.102000*%
%ADD22R,1.302000X2.302000*%
%ADD23R,5.902000X6.502000*%
%ADD24C,1.252000*%
%ADD25R,0.702000X1.602000*%
%ADD26R,2.602000X1.902000*%
%ADD27R,1.002000X0.902000*%
%ADD28R,1.702000X1.702000*%
%ADD29C,1.702000*%
%ADD30C,0.652000*%
%ADD31R,1.802000X1.802000*%
%ADD32O,1.802000X1.802000*%
%ADD33C,1.542000*%
%ADD34R,1.252000X1.102000*%
%ADD35R,1.602000X1.602000*%
%ADD36R,1.802000X1.402000*%
%ADD37R,0.702000X1.652000*%
%ADD38C,2.000000*%
G04 APERTURE END LIST*
D10*
X7826914Y2012844D02*
X7831676Y2017606D01*
X7836438Y2031891D01*
X7836438Y2041415D01*
X7831676Y2055701D01*
X7822152Y2065225D01*
X7812628Y2069987D01*
X7793581Y2074749D01*
X7779295Y2074749D01*
X7760248Y2069987D01*
X7750724Y2065225D01*
X7741200Y2055701D01*
X7736438Y2041415D01*
X7736438Y2031891D01*
X7741200Y2017606D01*
X7745962Y2012844D01*
X7836438Y1912844D02*
X7788819Y1946177D01*
X7836438Y1969987D02*
X7736438Y1969987D01*
X7736438Y1931891D01*
X7741200Y1922368D01*
X7745962Y1917606D01*
X7755486Y1912844D01*
X7769771Y1912844D01*
X7779295Y1917606D01*
X7784057Y1922368D01*
X7788819Y1931891D01*
X7788819Y1969987D01*
X7836438Y1817606D02*
X7836438Y1874749D01*
X7836438Y1846177D02*
X7736438Y1846177D01*
X7750724Y1855701D01*
X7760248Y1865225D01*
X7765009Y1874749D01*
X7745962Y1779510D02*
X7741200Y1774749D01*
X7736438Y1765225D01*
X7736438Y1741415D01*
X7741200Y1731891D01*
X7745962Y1727130D01*
X7755486Y1722368D01*
X7765009Y1722368D01*
X7779295Y1727130D01*
X7836438Y1784272D01*
X7836438Y1722368D01*
X7745962Y1684272D02*
X7741200Y1679510D01*
X7736438Y1669987D01*
X7736438Y1646177D01*
X7741200Y1636653D01*
X7745962Y1631891D01*
X7755486Y1627130D01*
X7765009Y1627130D01*
X7779295Y1631891D01*
X7836438Y1689034D01*
X7836438Y1627130D01*
X7736438Y1565225D02*
X7736438Y1555701D01*
X7741200Y1546177D01*
X7745962Y1541415D01*
X7755486Y1536653D01*
X7774533Y1531891D01*
X7798343Y1531891D01*
X7817390Y1536653D01*
X7826914Y1541415D01*
X7831676Y1546177D01*
X7836438Y1555701D01*
X7836438Y1565225D01*
X7831676Y1574749D01*
X7826914Y1579510D01*
X7817390Y1584272D01*
X7798343Y1589034D01*
X7774533Y1589034D01*
X7755486Y1584272D01*
X7745962Y1579510D01*
X7741200Y1574749D01*
X7736438Y1565225D01*
D11*
X312429Y1787286D02*
X312429Y1878714D01*
X329571Y670714D02*
X329571Y579286D01*
X375286Y625000D02*
X283857Y625000D01*
D10*
X735562Y1059124D02*
X835562Y1059124D01*
X835562Y1082933D01*
X830800Y1097219D01*
X821276Y1106743D01*
X811752Y1111505D01*
X792705Y1116267D01*
X778419Y1116267D01*
X759371Y1111505D01*
X749848Y1106743D01*
X740324Y1097219D01*
X735562Y1082933D01*
X735562Y1059124D01*
X745086Y1216267D02*
X740324Y1211505D01*
X735562Y1197219D01*
X735562Y1187695D01*
X740324Y1173410D01*
X749848Y1163886D01*
X759371Y1159124D01*
X778419Y1154362D01*
X792705Y1154362D01*
X811752Y1159124D01*
X821276Y1163886D01*
X830800Y1173410D01*
X835562Y1187695D01*
X835562Y1197219D01*
X830800Y1211505D01*
X826038Y1216267D01*
X735562Y1335314D02*
X835562Y1335314D01*
X735562Y1382933D02*
X835562Y1382933D01*
X735562Y1440076D01*
X835562Y1440076D01*
X7857817Y2988662D02*
X7905436Y2988662D01*
X7905436Y3088662D01*
X7767340Y2998186D02*
X7772102Y2993424D01*
X7786388Y2988662D01*
X7795912Y2988662D01*
X7810198Y2993424D01*
X7819721Y3002948D01*
X7824483Y3012471D01*
X7829245Y3031519D01*
X7829245Y3045805D01*
X7824483Y3064852D01*
X7819721Y3074376D01*
X7810198Y3083900D01*
X7795912Y3088662D01*
X7786388Y3088662D01*
X7772102Y3083900D01*
X7767340Y3079138D01*
X7724483Y2988662D02*
X7724483Y3088662D01*
X7700674Y3088662D01*
X7686388Y3083900D01*
X7676864Y3074376D01*
X7672102Y3064852D01*
X7667340Y3045805D01*
X7667340Y3031519D01*
X7672102Y3012471D01*
X7676864Y3002948D01*
X7686388Y2993424D01*
X7700674Y2988662D01*
X7724483Y2988662D01*
X7548293Y2988662D02*
X7548293Y3088662D01*
X7514959Y3017233D01*
X7481626Y3088662D01*
X7481626Y2988662D01*
X7376864Y2998186D02*
X7381626Y2993424D01*
X7395912Y2988662D01*
X7405436Y2988662D01*
X7419721Y2993424D01*
X7429245Y3002948D01*
X7434007Y3012471D01*
X7438769Y3031519D01*
X7438769Y3045805D01*
X7434007Y3064852D01*
X7429245Y3074376D01*
X7419721Y3083900D01*
X7405436Y3088662D01*
X7395912Y3088662D01*
X7381626Y3083900D01*
X7376864Y3079138D01*
X7334007Y3088662D02*
X7334007Y3007710D01*
X7329245Y2998186D01*
X7324483Y2993424D01*
X7314959Y2988662D01*
X7295912Y2988662D01*
X7286388Y2993424D01*
X7281626Y2998186D01*
X7276864Y3007710D01*
X7276864Y3088662D01*
X7229245Y3026757D02*
X7153055Y3026757D01*
X7048293Y2988662D02*
X7081626Y3036281D01*
X7105436Y2988662D02*
X7105436Y3088662D01*
X7067340Y3088662D01*
X7057817Y3083900D01*
X7053055Y3079138D01*
X7048293Y3069614D01*
X7048293Y3055329D01*
X7053055Y3045805D01*
X7057817Y3041043D01*
X7067340Y3036281D01*
X7105436Y3036281D01*
X7019721Y3088662D02*
X6962578Y3088662D01*
X6991150Y2988662D02*
X6991150Y3088662D01*
X6872102Y2998186D02*
X6876864Y2993424D01*
X6891150Y2988662D01*
X6900674Y2988662D01*
X6914959Y2993424D01*
X6924483Y3002948D01*
X6929245Y3012471D01*
X6934007Y3031519D01*
X6934007Y3045805D01*
X6929245Y3064852D01*
X6924483Y3074376D01*
X6914959Y3083900D01*
X6900674Y3088662D01*
X6891150Y3088662D01*
X6876864Y3083900D01*
X6872102Y3079138D01*
X7684007Y2823662D02*
X7717340Y2871281D01*
X7741150Y2823662D02*
X7741150Y2923662D01*
X7703055Y2923662D01*
X7693531Y2918900D01*
X7688769Y2914138D01*
X7684007Y2904614D01*
X7684007Y2890329D01*
X7688769Y2880805D01*
X7693531Y2876043D01*
X7703055Y2871281D01*
X7741150Y2871281D01*
X7641150Y2876043D02*
X7607817Y2876043D01*
X7593531Y2823662D02*
X7641150Y2823662D01*
X7641150Y2923662D01*
X7593531Y2923662D01*
X7564959Y2923662D02*
X7531626Y2823662D01*
X7498293Y2923662D01*
X7469721Y2914138D02*
X7464959Y2918900D01*
X7455436Y2923662D01*
X7431626Y2923662D01*
X7422102Y2918900D01*
X7417340Y2914138D01*
X7412578Y2904614D01*
X7412578Y2895090D01*
X7417340Y2880805D01*
X7474483Y2823662D01*
X7412578Y2823662D01*
X7293531Y2823662D02*
X7293531Y2923662D01*
X7269721Y2923662D01*
X7255436Y2918900D01*
X7245912Y2909376D01*
X7241150Y2899852D01*
X7236388Y2880805D01*
X7236388Y2866519D01*
X7241150Y2847471D01*
X7245912Y2837948D01*
X7255436Y2828424D01*
X7269721Y2823662D01*
X7293531Y2823662D01*
X7193531Y2823662D02*
X7193531Y2923662D01*
X7160198Y2852233D01*
X7126864Y2923662D01*
X7126864Y2823662D01*
X7084007Y2852233D02*
X7036388Y2852233D01*
X7093531Y2823662D02*
X7060198Y2923662D01*
X7026864Y2823662D01*
X5599802Y805582D02*
X5599802Y905582D01*
X5480754Y910344D02*
X5566469Y781772D01*
X5428373Y905582D02*
X5409326Y905582D01*
X5399802Y900820D01*
X5390278Y891296D01*
X5385516Y872249D01*
X5385516Y838915D01*
X5390278Y819868D01*
X5399802Y810344D01*
X5409326Y805582D01*
X5428373Y805582D01*
X5437897Y810344D01*
X5447421Y819868D01*
X5452183Y838915D01*
X5452183Y872249D01*
X5447421Y891296D01*
X5437897Y900820D01*
X5428373Y905582D01*
X2005538Y3028082D02*
X2038871Y3075701D01*
X2062681Y3028082D02*
X2062681Y3128082D01*
X2024586Y3128082D01*
X2015062Y3123320D01*
X2010300Y3118558D01*
X2005538Y3109034D01*
X2005538Y3094749D01*
X2010300Y3085225D01*
X2015062Y3080463D01*
X2024586Y3075701D01*
X2062681Y3075701D01*
X1962681Y3080463D02*
X1929348Y3080463D01*
X1915062Y3028082D02*
X1962681Y3028082D01*
X1962681Y3128082D01*
X1915062Y3128082D01*
X1876967Y3032844D02*
X1862681Y3028082D01*
X1838871Y3028082D01*
X1829348Y3032844D01*
X1824586Y3037606D01*
X1819824Y3047130D01*
X1819824Y3056653D01*
X1824586Y3066177D01*
X1829348Y3070939D01*
X1838871Y3075701D01*
X1857919Y3080463D01*
X1867443Y3085225D01*
X1872205Y3089987D01*
X1876967Y3099510D01*
X1876967Y3109034D01*
X1872205Y3118558D01*
X1867443Y3123320D01*
X1857919Y3128082D01*
X1834109Y3128082D01*
X1819824Y3123320D01*
X1776967Y3080463D02*
X1743633Y3080463D01*
X1729348Y3028082D02*
X1776967Y3028082D01*
X1776967Y3128082D01*
X1729348Y3128082D01*
X1700776Y3128082D02*
X1643633Y3128082D01*
X1672205Y3028082D02*
X1672205Y3128082D01*
X1078896Y3017286D02*
X1083658Y3012524D01*
X1097944Y3007762D01*
X1107468Y3007762D01*
X1121753Y3012524D01*
X1131277Y3022048D01*
X1136039Y3031571D01*
X1140801Y3050619D01*
X1140801Y3064905D01*
X1136039Y3083952D01*
X1131277Y3093476D01*
X1121753Y3103000D01*
X1107468Y3107762D01*
X1097944Y3107762D01*
X1083658Y3103000D01*
X1078896Y3098238D01*
X1016991Y3107762D02*
X997944Y3107762D01*
X988420Y3103000D01*
X978896Y3093476D01*
X974134Y3074429D01*
X974134Y3041095D01*
X978896Y3022048D01*
X988420Y3012524D01*
X997944Y3007762D01*
X1016991Y3007762D01*
X1026515Y3012524D01*
X1036039Y3022048D01*
X1040801Y3041095D01*
X1040801Y3074429D01*
X1036039Y3093476D01*
X1026515Y3103000D01*
X1016991Y3107762D01*
X931277Y3007762D02*
X931277Y3107762D01*
X874134Y3007762D01*
X874134Y3107762D01*
X840801Y3107762D02*
X783658Y3107762D01*
X812229Y3007762D02*
X812229Y3107762D01*
X693182Y3007762D02*
X726515Y3055381D01*
X750325Y3007762D02*
X750325Y3107762D01*
X712229Y3107762D01*
X702706Y3103000D01*
X697944Y3098238D01*
X693182Y3088714D01*
X693182Y3074429D01*
X697944Y3064905D01*
X702706Y3060143D01*
X712229Y3055381D01*
X750325Y3055381D01*
X655087Y3036333D02*
X607468Y3036333D01*
X664610Y3007762D02*
X631277Y3107762D01*
X597944Y3007762D01*
X569372Y3012524D02*
X555087Y3007762D01*
X531277Y3007762D01*
X521753Y3012524D01*
X516991Y3017286D01*
X512229Y3026810D01*
X512229Y3036333D01*
X516991Y3045857D01*
X521753Y3050619D01*
X531277Y3055381D01*
X550325Y3060143D01*
X559849Y3064905D01*
X564610Y3069667D01*
X569372Y3079190D01*
X569372Y3088714D01*
X564610Y3098238D01*
X559849Y3103000D01*
X550325Y3107762D01*
X526515Y3107762D01*
X512229Y3103000D01*
X483658Y3107762D02*
X426515Y3107762D01*
X455087Y3007762D02*
X455087Y3107762D01*
D12*
X4266910Y2935406D02*
X4266910Y2814994D01*
X4448910Y2935406D02*
X4448910Y2814994D01*
X702000Y721000D02*
X67000Y721000D01*
X702000Y1737000D02*
X702000Y721000D01*
X67000Y1737000D02*
X702000Y1737000D01*
X67000Y1737000D02*
X67000Y721000D01*
X885200Y1967020D02*
X1306200Y1967020D01*
X1306200Y1967020D02*
X1306200Y1665020D01*
X1306200Y1665020D02*
X885200Y1665020D01*
X7864476Y1261859D02*
G75*
G03X7826060Y1353320I-98416J12462D01*
G01*
X7864476Y2344782D02*
G75*
G02X7826060Y2253320I-98416J-12462D01*
G01*
X7824927Y1354254D02*
G75*
G02X7826060Y2253320I371133J449066D01*
G01*
X7711060Y1128320D02*
G75*
G03X7866060Y1273320I5000J150000D01*
G01*
X7711060Y2478320D02*
G75*
G02X7866060Y2333320I5000J-150000D01*
G01*
X7506060Y1128320D02*
X7716060Y1128320D01*
X7506060Y2478320D02*
X7716060Y2478320D01*
X7106060Y2478320D02*
X6961060Y2478320D01*
X6961060Y2478320D02*
X6701060Y2218320D01*
X6701060Y2218320D02*
X6621060Y2218320D01*
X6621060Y2218320D02*
X6621060Y1388320D01*
X6621060Y1388320D02*
X6701060Y1388320D01*
X6701060Y1388320D02*
X6961060Y1128320D01*
X6961060Y1128320D02*
X7106060Y1128320D01*
X1551250Y987500D02*
X1551250Y837500D01*
X1551250Y837500D02*
X1524250Y837500D01*
X1524250Y837500D02*
X1524250Y554500D01*
X861250Y987500D02*
X861250Y837500D01*
X861250Y837500D02*
X888250Y837500D01*
X888250Y837500D02*
X888250Y727500D01*
X5269100Y2837825D02*
X5269100Y2785575D01*
X5411100Y2837825D02*
X5411100Y2785575D01*
X5218530Y2837825D02*
X5218530Y2785575D01*
X5076530Y2837825D02*
X5076530Y2785575D01*
X4916880Y2837825D02*
X4916880Y2785575D01*
X4774880Y2837825D02*
X4774880Y2785575D01*
X4725580Y2837825D02*
X4725580Y2785575D01*
X4583580Y2837825D02*
X4583580Y2785575D01*
D10*
X5428100Y1583460D02*
X5400600Y1583460D01*
X5428100Y2358460D02*
X5392600Y2358460D01*
X4363100Y2358460D02*
X4398600Y2358460D01*
X4363100Y1583460D02*
X4398600Y1583460D01*
X5428100Y1583460D02*
X5428100Y2358460D01*
X4363100Y1583460D02*
X4363100Y2358460D01*
X5400600Y1583460D02*
X5400600Y1430960D01*
D12*
X2205642Y1288989D02*
X2242589Y1252042D01*
X2306051Y1389398D02*
X2342998Y1352451D01*
X1363250Y293835D02*
X1363250Y346085D01*
X1505250Y293835D02*
X1505250Y346085D01*
X3205249Y2844818D02*
X3168302Y2807871D01*
X3305658Y2744409D02*
X3268711Y2707462D01*
X3675149Y2405398D02*
X3638202Y2368451D01*
X3775558Y2304989D02*
X3738611Y2268042D01*
X3485175Y698300D02*
X3537425Y698300D01*
X3485175Y556300D02*
X3537425Y556300D01*
X1324000Y443812D02*
X1324000Y113812D01*
X1324000Y113812D02*
X784000Y113812D01*
X1324000Y443812D02*
X784000Y443812D01*
X5019860Y3492940D02*
X5019860Y3399940D01*
X5019860Y3176940D02*
X5019860Y3269940D01*
X5019860Y3176940D02*
X4803860Y3176940D01*
X5019860Y3492940D02*
X4873860Y3492940D01*
X5451660Y3492940D02*
X5305660Y3492940D01*
X5451660Y3176940D02*
X5235660Y3176940D01*
X5451660Y3176940D02*
X5451660Y3269940D01*
X5451660Y3492940D02*
X5451660Y3399940D01*
X1497200Y2160125D02*
X1497200Y2212375D01*
X1639200Y2160125D02*
X1639200Y2212375D01*
X6551400Y2967300D02*
G75*
G03X6551400Y2967300I-462000J0D01*
G01*
D10*
X2589280Y2595372D02*
X2605190Y2579463D01*
X2076628Y2082720D02*
X2099609Y2059739D01*
X2589280Y1570068D02*
X2566299Y1593049D01*
X3101932Y2082720D02*
X3078951Y2105701D01*
X2589280Y2595372D02*
X2566299Y2572391D01*
X3101932Y2082720D02*
X3078951Y2059739D01*
X2589280Y1570068D02*
X2612261Y1593049D01*
X2076628Y2082720D02*
X2099609Y2105701D01*
X2605190Y2579463D02*
X2705953Y2680225D01*
D12*
X3967000Y636000D02*
X3967000Y376000D01*
X3967000Y636000D02*
X7027000Y636000D01*
X7027000Y636000D02*
X7027000Y116000D01*
X4227000Y116000D02*
X7027000Y116000D01*
X4227000Y376000D02*
X4227000Y116000D01*
X3967000Y376000D02*
X4227000Y376000D01*
X3967000Y116000D02*
X4100000Y116000D01*
X3967000Y249000D02*
X3967000Y116000D01*
X316200Y2005700D02*
X1293200Y2005700D01*
X316200Y2982700D02*
X1293200Y2982700D01*
X316200Y2005700D02*
X316200Y2982700D01*
X1293200Y2005700D02*
X1293200Y2982700D01*
X3237080Y2346580D02*
X3237080Y2626580D01*
X3237080Y2626580D02*
X3567080Y2626580D01*
X1806444Y370320D02*
X1926856Y370320D01*
X1806444Y188320D02*
X1926856Y188320D01*
X1926856Y598920D02*
X1806444Y598920D01*
X1926856Y416920D02*
X1806444Y416920D01*
X1544000Y2625000D02*
X2156000Y2625000D01*
X2156000Y2625000D02*
X2156000Y2995000D01*
X2156000Y2995000D02*
X1544000Y2995000D01*
X1544000Y2995000D02*
X1544000Y2625000D01*
X6599000Y2791640D02*
X6599000Y3221640D01*
X6599000Y3221640D02*
X6799000Y3221640D01*
X6799000Y3221640D02*
X6799000Y2791640D01*
D10*
X6239280Y1816800D02*
X6234280Y1816800D01*
X6239280Y2231800D02*
X6224780Y2231800D01*
X5724280Y2231800D02*
X5738780Y2231800D01*
X5724280Y1816800D02*
X5738780Y1816800D01*
X6239280Y1816800D02*
X6239280Y2231800D01*
X5724280Y1816800D02*
X5724280Y2231800D01*
X6234280Y1816800D02*
X6234280Y1676800D01*
X4374577Y3109362D02*
X4407910Y3156981D01*
X4431720Y3109362D02*
X4431720Y3209362D01*
X4393624Y3209362D01*
X4384100Y3204600D01*
X4379339Y3199838D01*
X4374577Y3190314D01*
X4374577Y3176029D01*
X4379339Y3166505D01*
X4384100Y3161743D01*
X4393624Y3156981D01*
X4431720Y3156981D01*
X4288862Y3176029D02*
X4288862Y3109362D01*
X4312672Y3214124D02*
X4336481Y3142695D01*
X4274577Y3142695D01*
X803814Y1837767D02*
X808576Y1842529D01*
X813338Y1856814D01*
X813338Y1866338D01*
X808576Y1880624D01*
X799052Y1890148D01*
X789528Y1894910D01*
X770481Y1899671D01*
X756195Y1899671D01*
X737148Y1894910D01*
X727624Y1890148D01*
X718100Y1880624D01*
X713338Y1866338D01*
X713338Y1856814D01*
X718100Y1842529D01*
X722862Y1837767D01*
X722862Y1799671D02*
X718100Y1794910D01*
X713338Y1785386D01*
X713338Y1761576D01*
X718100Y1752052D01*
X722862Y1747290D01*
X732386Y1742529D01*
X741909Y1742529D01*
X756195Y1747290D01*
X813338Y1804433D01*
X813338Y1742529D01*
X1491990Y1767912D02*
X1491990Y1686960D01*
X1487228Y1677436D01*
X1482467Y1672674D01*
X1472943Y1667912D01*
X1453895Y1667912D01*
X1444371Y1672674D01*
X1439609Y1677436D01*
X1434848Y1686960D01*
X1434848Y1767912D01*
X1334848Y1667912D02*
X1391990Y1667912D01*
X1363419Y1667912D02*
X1363419Y1767912D01*
X1372943Y1753626D01*
X1382467Y1744102D01*
X1391990Y1739340D01*
X5355497Y3007762D02*
X5388830Y3055381D01*
X5412640Y3007762D02*
X5412640Y3107762D01*
X5374544Y3107762D01*
X5365020Y3103000D01*
X5360259Y3098238D01*
X5355497Y3088714D01*
X5355497Y3074429D01*
X5360259Y3064905D01*
X5365020Y3060143D01*
X5374544Y3055381D01*
X5412640Y3055381D01*
X5298354Y3064905D02*
X5307878Y3069667D01*
X5312640Y3074429D01*
X5317401Y3083952D01*
X5317401Y3088714D01*
X5312640Y3098238D01*
X5307878Y3103000D01*
X5298354Y3107762D01*
X5279306Y3107762D01*
X5269782Y3103000D01*
X5265020Y3098238D01*
X5260259Y3088714D01*
X5260259Y3083952D01*
X5265020Y3074429D01*
X5269782Y3069667D01*
X5279306Y3064905D01*
X5298354Y3064905D01*
X5307878Y3060143D01*
X5312640Y3055381D01*
X5317401Y3045857D01*
X5317401Y3026810D01*
X5312640Y3017286D01*
X5307878Y3012524D01*
X5298354Y3007762D01*
X5279306Y3007762D01*
X5269782Y3012524D01*
X5265020Y3017286D01*
X5260259Y3026810D01*
X5260259Y3045857D01*
X5265020Y3055381D01*
X5269782Y3060143D01*
X5279306Y3064905D01*
X5164197Y3010302D02*
X5197530Y3057921D01*
X5221340Y3010302D02*
X5221340Y3110302D01*
X5183244Y3110302D01*
X5173720Y3105540D01*
X5168959Y3100778D01*
X5164197Y3091254D01*
X5164197Y3076969D01*
X5168959Y3067445D01*
X5173720Y3062683D01*
X5183244Y3057921D01*
X5221340Y3057921D01*
X5130863Y3110302D02*
X5064197Y3110302D01*
X5107054Y3010302D01*
X4860007Y3015382D02*
X4893340Y3063001D01*
X4917150Y3015382D02*
X4917150Y3115382D01*
X4879054Y3115382D01*
X4869530Y3110620D01*
X4864769Y3105858D01*
X4860007Y3096334D01*
X4860007Y3082049D01*
X4864769Y3072525D01*
X4869530Y3067763D01*
X4879054Y3063001D01*
X4917150Y3063001D01*
X4774292Y3115382D02*
X4793340Y3115382D01*
X4802864Y3110620D01*
X4807626Y3105858D01*
X4817150Y3091572D01*
X4821911Y3072525D01*
X4821911Y3034430D01*
X4817150Y3024906D01*
X4812388Y3020144D01*
X4802864Y3015382D01*
X4783816Y3015382D01*
X4774292Y3020144D01*
X4769530Y3024906D01*
X4764769Y3034430D01*
X4764769Y3058239D01*
X4769530Y3067763D01*
X4774292Y3072525D01*
X4783816Y3077287D01*
X4802864Y3077287D01*
X4812388Y3072525D01*
X4817150Y3067763D01*
X4821911Y3058239D01*
X4671247Y3015382D02*
X4704580Y3063001D01*
X4728390Y3015382D02*
X4728390Y3115382D01*
X4690294Y3115382D01*
X4680770Y3110620D01*
X4676009Y3105858D01*
X4671247Y3096334D01*
X4671247Y3082049D01*
X4676009Y3072525D01*
X4680770Y3067763D01*
X4690294Y3063001D01*
X4728390Y3063001D01*
X4580770Y3115382D02*
X4628390Y3115382D01*
X4633151Y3067763D01*
X4628390Y3072525D01*
X4618866Y3077287D01*
X4595056Y3077287D01*
X4585532Y3072525D01*
X4580770Y3067763D01*
X4576009Y3058239D01*
X4576009Y3034430D01*
X4580770Y3024906D01*
X4585532Y3020144D01*
X4595056Y3015382D01*
X4618866Y3015382D01*
X4628390Y3020144D01*
X4633151Y3024906D01*
X5430118Y1574710D02*
X5511070Y1574710D01*
X5520594Y1569949D01*
X5525356Y1565187D01*
X5530118Y1555663D01*
X5530118Y1536615D01*
X5525356Y1527091D01*
X5520594Y1522330D01*
X5511070Y1517568D01*
X5430118Y1517568D01*
X5430118Y1479472D02*
X5430118Y1417568D01*
X5468213Y1450901D01*
X5468213Y1436615D01*
X5472975Y1427091D01*
X5477737Y1422330D01*
X5487261Y1417568D01*
X5511070Y1417568D01*
X5520594Y1422330D01*
X5525356Y1427091D01*
X5530118Y1436615D01*
X5530118Y1465187D01*
X5525356Y1474710D01*
X5520594Y1479472D01*
X2141471Y1166841D02*
X2141471Y1160107D01*
X2148206Y1146638D01*
X2154940Y1139904D01*
X2168409Y1133169D01*
X2181877Y1133169D01*
X2191979Y1136537D01*
X2208815Y1146638D01*
X2218916Y1156740D01*
X2229018Y1173576D01*
X2232385Y1183677D01*
X2232385Y1197146D01*
X2225651Y1210614D01*
X2218916Y1217349D01*
X2205448Y1224083D01*
X2198713Y1224083D01*
X2181877Y1254388D02*
X2138104Y1298161D01*
X2134737Y1247653D01*
X2124635Y1257755D01*
X2114534Y1261122D01*
X2107799Y1261122D01*
X2097698Y1257755D01*
X2080862Y1240919D01*
X2077495Y1230818D01*
X2077495Y1224083D01*
X2080862Y1213982D01*
X2101065Y1193779D01*
X2111167Y1190411D01*
X2117901Y1190411D01*
X1528076Y303293D02*
X1523314Y298532D01*
X1518552Y284246D01*
X1518552Y274722D01*
X1523314Y260436D01*
X1532838Y250912D01*
X1542361Y246150D01*
X1561409Y241389D01*
X1575695Y241389D01*
X1594742Y246150D01*
X1604266Y250912D01*
X1613790Y260436D01*
X1618552Y274722D01*
X1618552Y284246D01*
X1613790Y298532D01*
X1609028Y303293D01*
X1518552Y398531D02*
X1518552Y341389D01*
X1518552Y369960D02*
X1618552Y369960D01*
X1604266Y360436D01*
X1594742Y350912D01*
X1589980Y341389D01*
X3401311Y2916901D02*
X3401311Y2910167D01*
X3408046Y2896698D01*
X3414780Y2889964D01*
X3428249Y2883229D01*
X3441717Y2883229D01*
X3451819Y2886596D01*
X3468655Y2896698D01*
X3478756Y2906800D01*
X3488858Y2923635D01*
X3492225Y2933737D01*
X3492225Y2947206D01*
X3485491Y2960674D01*
X3478756Y2967409D01*
X3465288Y2974143D01*
X3458553Y2974143D01*
X3381108Y3017916D02*
X3333968Y2970776D01*
X3424881Y3028018D02*
X3391210Y2960674D01*
X3347436Y3004448D01*
X3873016Y2479286D02*
X3873016Y2472552D01*
X3879751Y2459083D01*
X3886485Y2452349D01*
X3899954Y2445615D01*
X3913422Y2445615D01*
X3923524Y2448982D01*
X3940360Y2459083D01*
X3950461Y2469185D01*
X3960563Y2486021D01*
X3963930Y2496122D01*
X3963930Y2509591D01*
X3957196Y2523060D01*
X3950461Y2529794D01*
X3936993Y2536528D01*
X3930258Y2536528D01*
X3873016Y2607239D02*
X3906688Y2573567D01*
X3876383Y2536528D01*
X3876383Y2543263D01*
X3873016Y2553364D01*
X3856180Y2570200D01*
X3846079Y2573567D01*
X3839345Y2573567D01*
X3829243Y2570200D01*
X3812407Y2553364D01*
X3809040Y2543263D01*
X3809040Y2536528D01*
X3812407Y2526427D01*
X3829243Y2509591D01*
X3839345Y2506224D01*
X3846079Y2506224D01*
X3527967Y731286D02*
X3532728Y726524D01*
X3547014Y721762D01*
X3556538Y721762D01*
X3570824Y726524D01*
X3580348Y736048D01*
X3585109Y745571D01*
X3589871Y764619D01*
X3589871Y778905D01*
X3585109Y797952D01*
X3580348Y807476D01*
X3570824Y817000D01*
X3556538Y821762D01*
X3547014Y821762D01*
X3532728Y817000D01*
X3527967Y812238D01*
X3442252Y821762D02*
X3461300Y821762D01*
X3470824Y817000D01*
X3475586Y812238D01*
X3485109Y797952D01*
X3489871Y778905D01*
X3489871Y740810D01*
X3485109Y731286D01*
X3480348Y726524D01*
X3470824Y721762D01*
X3451776Y721762D01*
X3442252Y726524D01*
X3437490Y731286D01*
X3432728Y740810D01*
X3432728Y764619D01*
X3437490Y774143D01*
X3442252Y778905D01*
X3451776Y783667D01*
X3470824Y783667D01*
X3480348Y778905D01*
X3485109Y774143D01*
X3489871Y764619D01*
X841909Y467762D02*
X841909Y567762D01*
X818100Y567762D01*
X803814Y563000D01*
X794290Y553476D01*
X789528Y543952D01*
X784767Y524905D01*
X784767Y510619D01*
X789528Y491571D01*
X794290Y482048D01*
X803814Y472524D01*
X818100Y467762D01*
X841909Y467762D01*
X689529Y467762D02*
X746671Y467762D01*
X718100Y467762D02*
X718100Y567762D01*
X727624Y553476D01*
X737148Y543952D01*
X746671Y539191D01*
X5118484Y3412258D02*
X5128008Y3417020D01*
X5137531Y3426544D01*
X5151817Y3440830D01*
X5161341Y3445591D01*
X5170865Y3445591D01*
X5166103Y3421782D02*
X5175627Y3426544D01*
X5185150Y3436068D01*
X5189912Y3455115D01*
X5189912Y3488449D01*
X5185150Y3507496D01*
X5175627Y3517020D01*
X5166103Y3521782D01*
X5147055Y3521782D01*
X5137531Y3517020D01*
X5128008Y3507496D01*
X5123246Y3488449D01*
X5123246Y3455115D01*
X5128008Y3436068D01*
X5137531Y3426544D01*
X5147055Y3421782D01*
X5166103Y3421782D01*
X5028008Y3421782D02*
X5085150Y3421782D01*
X5056579Y3421782D02*
X5056579Y3521782D01*
X5066103Y3507496D01*
X5075627Y3497972D01*
X5085150Y3493210D01*
X5555364Y3412258D02*
X5564888Y3417020D01*
X5574411Y3426544D01*
X5588697Y3440830D01*
X5598221Y3445591D01*
X5607745Y3445591D01*
X5602983Y3421782D02*
X5612507Y3426544D01*
X5622030Y3436068D01*
X5626792Y3455115D01*
X5626792Y3488449D01*
X5622030Y3507496D01*
X5612507Y3517020D01*
X5602983Y3521782D01*
X5583935Y3521782D01*
X5574411Y3517020D01*
X5564888Y3507496D01*
X5560126Y3488449D01*
X5560126Y3455115D01*
X5564888Y3436068D01*
X5574411Y3426544D01*
X5583935Y3421782D01*
X5602983Y3421782D01*
X5522030Y3512258D02*
X5517269Y3517020D01*
X5507745Y3521782D01*
X5483935Y3521782D01*
X5474411Y3517020D01*
X5469650Y3512258D01*
X5464888Y3502734D01*
X5464888Y3493210D01*
X5469650Y3478925D01*
X5526792Y3421782D01*
X5464888Y3421782D01*
X1467388Y2202917D02*
X1419769Y2236250D01*
X1467388Y2260060D02*
X1367388Y2260060D01*
X1367388Y2221964D01*
X1372150Y2212441D01*
X1376912Y2207679D01*
X1386436Y2202917D01*
X1400721Y2202917D01*
X1410245Y2207679D01*
X1415007Y2212441D01*
X1419769Y2221964D01*
X1419769Y2260060D01*
X1467388Y2107679D02*
X1467388Y2164822D01*
X1467388Y2136250D02*
X1367388Y2136250D01*
X1381674Y2145774D01*
X1391198Y2155298D01*
X1395960Y2164822D01*
X6371176Y3186190D02*
X6375938Y3171905D01*
X6375938Y3148095D01*
X6371176Y3138571D01*
X6366414Y3133810D01*
X6356890Y3129048D01*
X6347367Y3129048D01*
X6337843Y3133810D01*
X6333081Y3138571D01*
X6328319Y3148095D01*
X6323557Y3167143D01*
X6318795Y3176667D01*
X6314033Y3181429D01*
X6304509Y3186190D01*
X6294986Y3186190D01*
X6285462Y3181429D01*
X6280700Y3176667D01*
X6275938Y3167143D01*
X6275938Y3143333D01*
X6280700Y3129048D01*
X6375938Y3086190D02*
X6275938Y3086190D01*
X6275938Y3048095D01*
X6280700Y3038571D01*
X6285462Y3033810D01*
X6294986Y3029048D01*
X6309271Y3029048D01*
X6318795Y3033810D01*
X6323557Y3038571D01*
X6328319Y3048095D01*
X6328319Y3086190D01*
X6375938Y2986190D02*
X6275938Y2986190D01*
X6375938Y2929048D02*
X6318795Y2971905D01*
X6275938Y2929048D02*
X6333081Y2986190D01*
X6375938Y2829048D02*
X6328319Y2862381D01*
X6375938Y2886190D02*
X6275938Y2886190D01*
X6275938Y2848095D01*
X6280700Y2838571D01*
X6285462Y2833810D01*
X6294986Y2829048D01*
X6309271Y2829048D01*
X6318795Y2833810D01*
X6323557Y2838571D01*
X6328319Y2848095D01*
X6328319Y2886190D01*
X6375938Y2733810D02*
X6375938Y2790952D01*
X6375938Y2762381D02*
X6275938Y2762381D01*
X6290224Y2771905D01*
X6299748Y2781429D01*
X6304509Y2790952D01*
X6457495Y3378157D02*
X6381305Y3378157D01*
X6419400Y3340062D02*
X6419400Y3416252D01*
X2645072Y2795077D02*
X2702314Y2737835D01*
X2705681Y2727734D01*
X2705681Y2721000D01*
X2702314Y2710898D01*
X2688846Y2697429D01*
X2678744Y2694062D01*
X2672010Y2694062D01*
X2661908Y2697429D01*
X2604666Y2754671D01*
X2581096Y2717632D02*
X2574362Y2717632D01*
X2564260Y2714265D01*
X2547424Y2697429D01*
X2544057Y2687328D01*
X2544057Y2680593D01*
X2547424Y2670492D01*
X2554159Y2663758D01*
X2567627Y2657023D01*
X2648439Y2657023D01*
X2604666Y2613250D01*
X840324Y2448962D02*
X873657Y2496581D01*
X897467Y2448962D02*
X897467Y2548962D01*
X859371Y2548962D01*
X849848Y2544200D01*
X845086Y2539438D01*
X840324Y2529914D01*
X840324Y2515629D01*
X845086Y2506105D01*
X849848Y2501343D01*
X859371Y2496581D01*
X897467Y2496581D01*
X811752Y2548962D02*
X778419Y2448962D01*
X745086Y2548962D01*
X659371Y2448962D02*
X716514Y2448962D01*
X687943Y2448962D02*
X687943Y2548962D01*
X697467Y2534676D01*
X706990Y2525152D01*
X716514Y2520391D01*
X3449699Y2704861D02*
X3449699Y2657242D01*
X3483032Y2757242D02*
X3449699Y2704861D01*
X3416366Y2757242D01*
X3330651Y2657242D02*
X3387794Y2657242D01*
X3359223Y2657242D02*
X3359223Y2757242D01*
X3368747Y2742956D01*
X3378270Y2733432D01*
X3387794Y2728671D01*
X2223677Y236622D02*
X2257010Y284241D01*
X2280820Y236622D02*
X2280820Y336622D01*
X2242724Y336622D01*
X2233200Y331860D01*
X2228439Y327098D01*
X2223677Y317574D01*
X2223677Y303289D01*
X2228439Y293765D01*
X2233200Y289003D01*
X2242724Y284241D01*
X2280820Y284241D01*
X2185581Y327098D02*
X2180820Y331860D01*
X2171296Y336622D01*
X2147486Y336622D01*
X2137962Y331860D01*
X2133200Y327098D01*
X2128439Y317574D01*
X2128439Y308051D01*
X2133200Y293765D01*
X2190343Y236622D01*
X2128439Y236622D01*
X2228757Y462682D02*
X2262090Y510301D01*
X2285900Y462682D02*
X2285900Y562682D01*
X2247804Y562682D01*
X2238280Y557920D01*
X2233519Y553158D01*
X2228757Y543634D01*
X2228757Y529349D01*
X2233519Y519825D01*
X2238280Y515063D01*
X2247804Y510301D01*
X2285900Y510301D01*
X2195423Y562682D02*
X2133519Y562682D01*
X2166852Y524587D01*
X2152566Y524587D01*
X2143042Y519825D01*
X2138280Y515063D01*
X2133519Y505539D01*
X2133519Y481730D01*
X2138280Y472206D01*
X2143042Y467444D01*
X2152566Y462682D01*
X2181138Y462682D01*
X2190661Y467444D01*
X2195423Y472206D01*
X1983333Y2794924D02*
X1969048Y2790162D01*
X1945238Y2790162D01*
X1935714Y2794924D01*
X1930952Y2799686D01*
X1926190Y2809210D01*
X1926190Y2818733D01*
X1930952Y2828257D01*
X1935714Y2833019D01*
X1945238Y2837781D01*
X1964286Y2842543D01*
X1973809Y2847305D01*
X1978571Y2852067D01*
X1983333Y2861590D01*
X1983333Y2871114D01*
X1978571Y2880638D01*
X1973809Y2885400D01*
X1964286Y2890162D01*
X1940476Y2890162D01*
X1926190Y2885400D01*
X1892857Y2890162D02*
X1869048Y2790162D01*
X1850000Y2861590D01*
X1830952Y2790162D01*
X1807143Y2890162D01*
X1716667Y2790162D02*
X1773809Y2790162D01*
X1745238Y2790162D02*
X1745238Y2890162D01*
X1754762Y2875876D01*
X1764286Y2866352D01*
X1773809Y2861590D01*
X6772809Y3256682D02*
X6772809Y3356682D01*
X6749000Y3356682D01*
X6734714Y3351920D01*
X6725190Y3342396D01*
X6720428Y3332872D01*
X6715667Y3313825D01*
X6715667Y3299539D01*
X6720428Y3280491D01*
X6725190Y3270968D01*
X6734714Y3261444D01*
X6749000Y3256682D01*
X6772809Y3256682D01*
X6677571Y3347158D02*
X6672809Y3351920D01*
X6663286Y3356682D01*
X6639476Y3356682D01*
X6629952Y3351920D01*
X6625190Y3347158D01*
X6620428Y3337634D01*
X6620428Y3328110D01*
X6625190Y3313825D01*
X6682333Y3256682D01*
X6620428Y3256682D01*
X6269918Y1795690D02*
X6350870Y1795690D01*
X6360394Y1790929D01*
X6365156Y1786167D01*
X6369918Y1776643D01*
X6369918Y1757595D01*
X6365156Y1748071D01*
X6360394Y1743310D01*
X6350870Y1738548D01*
X6269918Y1738548D01*
X6303251Y1648071D02*
X6369918Y1648071D01*
X6265156Y1671881D02*
X6336585Y1695690D01*
X6336585Y1633786D01*
%LPC*%
D13*
X7751910Y3349070D03*
X7751858Y249000D03*
X252000Y249000D03*
X252000Y3349070D03*
D14*
X4611910Y3349070D03*
X4357910Y3349070D03*
X4103910Y3349070D03*
X3849910Y3349070D03*
X3595910Y3349070D03*
X3341910Y3349070D03*
X3087910Y3349070D03*
X2833910Y3349070D03*
X2579910Y3349070D03*
X2325910Y3349070D03*
X2071910Y3349070D03*
X1817910Y3349070D03*
X1563910Y3349070D03*
X1309910Y3349070D03*
X1055910Y3349070D03*
D15*
X801910Y3349070D03*
D16*
G36*
X4426346Y3100171D02*
G01*
X4428947Y3099785D01*
X4431497Y3099146D01*
X4433972Y3098261D01*
X4436349Y3097137D01*
X4438604Y3095785D01*
X4440716Y3094219D01*
X4442664Y3092453D01*
X4444429Y3090506D01*
X4445995Y3088394D01*
X4447347Y3086139D01*
X4448471Y3083762D01*
X4449357Y3081287D01*
X4449995Y3078737D01*
X4450381Y3076136D01*
X4450510Y3073510D01*
X4450510Y2974389D01*
X4450381Y2971764D01*
X4449995Y2969163D01*
X4449357Y2966613D01*
X4448471Y2964138D01*
X4447347Y2961761D01*
X4445995Y2959506D01*
X4444429Y2957394D01*
X4442664Y2955446D01*
X4440716Y2953681D01*
X4438604Y2952115D01*
X4436349Y2950763D01*
X4433972Y2949639D01*
X4431497Y2948753D01*
X4428947Y2948115D01*
X4426346Y2947729D01*
X4423721Y2947600D01*
X4292100Y2947600D01*
X4289474Y2947729D01*
X4286873Y2948115D01*
X4284323Y2948753D01*
X4281848Y2949639D01*
X4279471Y2950763D01*
X4277216Y2952115D01*
X4275104Y2953681D01*
X4273157Y2955446D01*
X4271391Y2957394D01*
X4269825Y2959506D01*
X4268473Y2961761D01*
X4267349Y2964138D01*
X4266464Y2966613D01*
X4265825Y2969163D01*
X4265439Y2971764D01*
X4265310Y2974389D01*
X4265310Y3073510D01*
X4265439Y3076136D01*
X4265825Y3078737D01*
X4266464Y3081287D01*
X4267349Y3083762D01*
X4268473Y3086139D01*
X4269825Y3088394D01*
X4271391Y3090506D01*
X4273157Y3092453D01*
X4275104Y3094219D01*
X4277216Y3095785D01*
X4279471Y3097137D01*
X4281848Y3098261D01*
X4284323Y3099146D01*
X4286873Y3099785D01*
X4289474Y3100171D01*
X4292100Y3100300D01*
X4423721Y3100300D01*
X4426346Y3100171D01*
X4426346Y3100171D01*
G37*
D17*
X4357910Y3023950D03*
D16*
G36*
X4426346Y2802671D02*
G01*
X4428947Y2802285D01*
X4431497Y2801646D01*
X4433972Y2800761D01*
X4436349Y2799637D01*
X4438604Y2798285D01*
X4440716Y2796719D01*
X4442664Y2794954D01*
X4444429Y2793006D01*
X4445995Y2790894D01*
X4447347Y2788639D01*
X4448471Y2786262D01*
X4449357Y2783787D01*
X4449995Y2781237D01*
X4450381Y2778636D01*
X4450510Y2776011D01*
X4450510Y2676890D01*
X4450381Y2674264D01*
X4449995Y2671663D01*
X4449357Y2669113D01*
X4448471Y2666638D01*
X4447347Y2664261D01*
X4445995Y2662006D01*
X4444429Y2659894D01*
X4442664Y2657947D01*
X4440716Y2656181D01*
X4438604Y2654615D01*
X4436349Y2653263D01*
X4433972Y2652139D01*
X4431497Y2651254D01*
X4428947Y2650615D01*
X4426346Y2650229D01*
X4423721Y2650100D01*
X4292100Y2650100D01*
X4289474Y2650229D01*
X4286873Y2650615D01*
X4284323Y2651254D01*
X4281848Y2652139D01*
X4279471Y2653263D01*
X4277216Y2654615D01*
X4275104Y2656181D01*
X4273157Y2657947D01*
X4271391Y2659894D01*
X4269825Y2662006D01*
X4268473Y2664261D01*
X4267349Y2666638D01*
X4266464Y2669113D01*
X4265825Y2671663D01*
X4265439Y2674264D01*
X4265310Y2676890D01*
X4265310Y2776011D01*
X4265439Y2778636D01*
X4265825Y2781237D01*
X4266464Y2783787D01*
X4267349Y2786262D01*
X4268473Y2788639D01*
X4269825Y2790894D01*
X4271391Y2793006D01*
X4273157Y2794954D01*
X4275104Y2796719D01*
X4277216Y2798285D01*
X4279471Y2799637D01*
X4281848Y2800761D01*
X4284323Y2801646D01*
X4286873Y2802285D01*
X4289474Y2802671D01*
X4292100Y2802800D01*
X4423721Y2802800D01*
X4426346Y2802671D01*
X4426346Y2802671D01*
G37*
D17*
X4357910Y2726450D03*
D13*
X321000Y1483000D03*
D18*
X321000Y975000D03*
D16*
G36*
X1261015Y1938490D02*
G01*
X1263628Y1938103D01*
X1266191Y1937461D01*
X1268679Y1936570D01*
X1271068Y1935441D01*
X1273334Y1934082D01*
X1275456Y1932508D01*
X1277414Y1930734D01*
X1279188Y1928776D01*
X1280762Y1926654D01*
X1282121Y1924388D01*
X1283251Y1921999D01*
X1284141Y1919511D01*
X1284783Y1916948D01*
X1285170Y1914335D01*
X1285300Y1911696D01*
X1285300Y1720344D01*
X1285170Y1717705D01*
X1284783Y1715092D01*
X1284141Y1712529D01*
X1283251Y1710041D01*
X1282121Y1707652D01*
X1280762Y1705386D01*
X1279188Y1703264D01*
X1277414Y1701306D01*
X1275456Y1699532D01*
X1273334Y1697958D01*
X1271068Y1696599D01*
X1268679Y1695469D01*
X1266191Y1694579D01*
X1263628Y1693937D01*
X1261015Y1693550D01*
X1258376Y1693420D01*
X1169524Y1693420D01*
X1166885Y1693550D01*
X1164272Y1693937D01*
X1161709Y1694579D01*
X1159221Y1695469D01*
X1156832Y1696599D01*
X1154566Y1697958D01*
X1152444Y1699532D01*
X1150486Y1701306D01*
X1148712Y1703264D01*
X1147138Y1705386D01*
X1145779Y1707652D01*
X1144650Y1710041D01*
X1143759Y1712529D01*
X1143117Y1715092D01*
X1142730Y1717705D01*
X1142600Y1720344D01*
X1142600Y1911696D01*
X1142730Y1914335D01*
X1143117Y1916948D01*
X1143759Y1919511D01*
X1144650Y1921999D01*
X1145779Y1924388D01*
X1147138Y1926654D01*
X1148712Y1928776D01*
X1150486Y1930734D01*
X1152444Y1932508D01*
X1154566Y1934082D01*
X1156832Y1935441D01*
X1159221Y1936570D01*
X1161709Y1937461D01*
X1164272Y1938103D01*
X1166885Y1938490D01*
X1169524Y1938620D01*
X1258376Y1938620D01*
X1261015Y1938490D01*
X1261015Y1938490D01*
G37*
D19*
X1213950Y1816020D03*
D16*
G36*
X953515Y1938490D02*
G01*
X956128Y1938103D01*
X958691Y1937461D01*
X961179Y1936570D01*
X963568Y1935441D01*
X965834Y1934082D01*
X967956Y1932508D01*
X969914Y1930734D01*
X971688Y1928776D01*
X973262Y1926654D01*
X974621Y1924388D01*
X975750Y1921999D01*
X976641Y1919511D01*
X977283Y1916948D01*
X977670Y1914335D01*
X977800Y1911696D01*
X977800Y1720344D01*
X977670Y1717705D01*
X977283Y1715092D01*
X976641Y1712529D01*
X975750Y1710041D01*
X974621Y1707652D01*
X973262Y1705386D01*
X971688Y1703264D01*
X969914Y1701306D01*
X967956Y1699532D01*
X965834Y1697958D01*
X963568Y1696599D01*
X961179Y1695469D01*
X958691Y1694579D01*
X956128Y1693937D01*
X953515Y1693550D01*
X950876Y1693420D01*
X862024Y1693420D01*
X859385Y1693550D01*
X856772Y1693937D01*
X854209Y1694579D01*
X851721Y1695469D01*
X849332Y1696599D01*
X847066Y1697958D01*
X844944Y1699532D01*
X842986Y1701306D01*
X841212Y1703264D01*
X839638Y1705386D01*
X838279Y1707652D01*
X837149Y1710041D01*
X836259Y1712529D01*
X835617Y1715092D01*
X835230Y1717705D01*
X835100Y1720344D01*
X835100Y1911696D01*
X835230Y1914335D01*
X835617Y1916948D01*
X836259Y1919511D01*
X837149Y1921999D01*
X838279Y1924388D01*
X839638Y1926654D01*
X841212Y1928776D01*
X842986Y1930734D01*
X844944Y1932508D01*
X847066Y1934082D01*
X849332Y1935441D01*
X851721Y1936570D01*
X854209Y1937461D01*
X856772Y1938103D01*
X859385Y1938490D01*
X862024Y1938620D01*
X950876Y1938620D01*
X953515Y1938490D01*
X953515Y1938490D01*
G37*
D19*
X906450Y1816020D03*
D20*
X7306060Y2593320D03*
X7306060Y1013320D03*
D21*
X7306060Y1803320D03*
D22*
X1434250Y664500D03*
X978250Y664500D03*
D23*
X1206250Y1294500D03*
D16*
G36*
X5390651Y2976669D02*
G01*
X5393293Y2976277D01*
X5395884Y2975628D01*
X5398398Y2974728D01*
X5400813Y2973586D01*
X5403104Y2972213D01*
X5405249Y2970622D01*
X5407228Y2968828D01*
X5409022Y2966849D01*
X5410613Y2964704D01*
X5411986Y2962413D01*
X5413128Y2959998D01*
X5414028Y2957483D01*
X5414677Y2954892D01*
X5415069Y2952250D01*
X5415200Y2949583D01*
X5415200Y2878817D01*
X5415069Y2876149D01*
X5414677Y2873507D01*
X5414028Y2870916D01*
X5413128Y2868402D01*
X5411986Y2865987D01*
X5410613Y2863696D01*
X5409022Y2861551D01*
X5407228Y2859572D01*
X5405249Y2857778D01*
X5403104Y2856187D01*
X5400813Y2854814D01*
X5398398Y2853672D01*
X5395884Y2852772D01*
X5393293Y2852123D01*
X5390651Y2851731D01*
X5387983Y2851600D01*
X5292217Y2851600D01*
X5289550Y2851731D01*
X5286908Y2852123D01*
X5284317Y2852772D01*
X5281802Y2853672D01*
X5279387Y2854814D01*
X5277096Y2856187D01*
X5274951Y2857778D01*
X5272972Y2859572D01*
X5271178Y2861551D01*
X5269587Y2863696D01*
X5268214Y2865987D01*
X5267072Y2868402D01*
X5266172Y2870916D01*
X5265523Y2873507D01*
X5265131Y2876149D01*
X5265000Y2878817D01*
X5265000Y2949583D01*
X5265131Y2952250D01*
X5265523Y2954892D01*
X5266172Y2957483D01*
X5267072Y2959998D01*
X5268214Y2962413D01*
X5269587Y2964704D01*
X5271178Y2966849D01*
X5272972Y2968828D01*
X5274951Y2970622D01*
X5277096Y2972213D01*
X5279387Y2973586D01*
X5281802Y2974728D01*
X5284317Y2975628D01*
X5286908Y2976277D01*
X5289550Y2976669D01*
X5292217Y2976800D01*
X5387983Y2976800D01*
X5390651Y2976669D01*
X5390651Y2976669D01*
G37*
D24*
X5340100Y2914200D03*
D16*
G36*
X5390651Y2771669D02*
G01*
X5393293Y2771277D01*
X5395884Y2770628D01*
X5398398Y2769728D01*
X5400813Y2768586D01*
X5403104Y2767213D01*
X5405249Y2765622D01*
X5407228Y2763828D01*
X5409022Y2761849D01*
X5410613Y2759704D01*
X5411986Y2757413D01*
X5413128Y2754998D01*
X5414028Y2752484D01*
X5414677Y2749893D01*
X5415069Y2747251D01*
X5415200Y2744583D01*
X5415200Y2673817D01*
X5415069Y2671150D01*
X5414677Y2668508D01*
X5414028Y2665917D01*
X5413128Y2663402D01*
X5411986Y2660987D01*
X5410613Y2658696D01*
X5409022Y2656551D01*
X5407228Y2654572D01*
X5405249Y2652778D01*
X5403104Y2651187D01*
X5400813Y2649814D01*
X5398398Y2648672D01*
X5395884Y2647772D01*
X5393293Y2647123D01*
X5390651Y2646731D01*
X5387983Y2646600D01*
X5292217Y2646600D01*
X5289550Y2646731D01*
X5286908Y2647123D01*
X5284317Y2647772D01*
X5281802Y2648672D01*
X5279387Y2649814D01*
X5277096Y2651187D01*
X5274951Y2652778D01*
X5272972Y2654572D01*
X5271178Y2656551D01*
X5269587Y2658696D01*
X5268214Y2660987D01*
X5267072Y2663402D01*
X5266172Y2665917D01*
X5265523Y2668508D01*
X5265131Y2671150D01*
X5265000Y2673817D01*
X5265000Y2744583D01*
X5265131Y2747251D01*
X5265523Y2749893D01*
X5266172Y2752484D01*
X5267072Y2754998D01*
X5268214Y2757413D01*
X5269587Y2759704D01*
X5271178Y2761849D01*
X5272972Y2763828D01*
X5274951Y2765622D01*
X5277096Y2767213D01*
X5279387Y2768586D01*
X5281802Y2769728D01*
X5284317Y2770628D01*
X5286908Y2771277D01*
X5289550Y2771669D01*
X5292217Y2771800D01*
X5387983Y2771800D01*
X5390651Y2771669D01*
X5390651Y2771669D01*
G37*
D24*
X5340100Y2709200D03*
D16*
G36*
X5198081Y2771669D02*
G01*
X5200723Y2771277D01*
X5203314Y2770628D01*
X5205828Y2769728D01*
X5208243Y2768586D01*
X5210534Y2767213D01*
X5212679Y2765622D01*
X5214658Y2763828D01*
X5216452Y2761849D01*
X5218043Y2759704D01*
X5219416Y2757413D01*
X5220558Y2754998D01*
X5221458Y2752484D01*
X5222107Y2749893D01*
X5222499Y2747251D01*
X5222630Y2744583D01*
X5222630Y2673817D01*
X5222499Y2671150D01*
X5222107Y2668508D01*
X5221458Y2665917D01*
X5220558Y2663402D01*
X5219416Y2660987D01*
X5218043Y2658696D01*
X5216452Y2656551D01*
X5214658Y2654572D01*
X5212679Y2652778D01*
X5210534Y2651187D01*
X5208243Y2649814D01*
X5205828Y2648672D01*
X5203314Y2647772D01*
X5200723Y2647123D01*
X5198081Y2646731D01*
X5195413Y2646600D01*
X5099647Y2646600D01*
X5096980Y2646731D01*
X5094338Y2647123D01*
X5091747Y2647772D01*
X5089232Y2648672D01*
X5086817Y2649814D01*
X5084526Y2651187D01*
X5082381Y2652778D01*
X5080402Y2654572D01*
X5078608Y2656551D01*
X5077017Y2658696D01*
X5075644Y2660987D01*
X5074502Y2663402D01*
X5073602Y2665917D01*
X5072953Y2668508D01*
X5072561Y2671150D01*
X5072430Y2673817D01*
X5072430Y2744583D01*
X5072561Y2747251D01*
X5072953Y2749893D01*
X5073602Y2752484D01*
X5074502Y2754998D01*
X5075644Y2757413D01*
X5077017Y2759704D01*
X5078608Y2761849D01*
X5080402Y2763828D01*
X5082381Y2765622D01*
X5084526Y2767213D01*
X5086817Y2768586D01*
X5089232Y2769728D01*
X5091747Y2770628D01*
X5094338Y2771277D01*
X5096980Y2771669D01*
X5099647Y2771800D01*
X5195413Y2771800D01*
X5198081Y2771669D01*
X5198081Y2771669D01*
G37*
D24*
X5147530Y2709200D03*
D16*
G36*
X5198081Y2976669D02*
G01*
X5200723Y2976277D01*
X5203314Y2975628D01*
X5205828Y2974728D01*
X5208243Y2973586D01*
X5210534Y2972213D01*
X5212679Y2970622D01*
X5214658Y2968828D01*
X5216452Y2966849D01*
X5218043Y2964704D01*
X5219416Y2962413D01*
X5220558Y2959998D01*
X5221458Y2957483D01*
X5222107Y2954892D01*
X5222499Y2952250D01*
X5222630Y2949583D01*
X5222630Y2878817D01*
X5222499Y2876149D01*
X5222107Y2873507D01*
X5221458Y2870916D01*
X5220558Y2868402D01*
X5219416Y2865987D01*
X5218043Y2863696D01*
X5216452Y2861551D01*
X5214658Y2859572D01*
X5212679Y2857778D01*
X5210534Y2856187D01*
X5208243Y2854814D01*
X5205828Y2853672D01*
X5203314Y2852772D01*
X5200723Y2852123D01*
X5198081Y2851731D01*
X5195413Y2851600D01*
X5099647Y2851600D01*
X5096980Y2851731D01*
X5094338Y2852123D01*
X5091747Y2852772D01*
X5089232Y2853672D01*
X5086817Y2854814D01*
X5084526Y2856187D01*
X5082381Y2857778D01*
X5080402Y2859572D01*
X5078608Y2861551D01*
X5077017Y2863696D01*
X5075644Y2865987D01*
X5074502Y2868402D01*
X5073602Y2870916D01*
X5072953Y2873507D01*
X5072561Y2876149D01*
X5072430Y2878817D01*
X5072430Y2949583D01*
X5072561Y2952250D01*
X5072953Y2954892D01*
X5073602Y2957483D01*
X5074502Y2959998D01*
X5075644Y2962413D01*
X5077017Y2964704D01*
X5078608Y2966849D01*
X5080402Y2968828D01*
X5082381Y2970622D01*
X5084526Y2972213D01*
X5086817Y2973586D01*
X5089232Y2974728D01*
X5091747Y2975628D01*
X5094338Y2976277D01*
X5096980Y2976669D01*
X5099647Y2976800D01*
X5195413Y2976800D01*
X5198081Y2976669D01*
X5198081Y2976669D01*
G37*
D24*
X5147530Y2914200D03*
D16*
G36*
X4896431Y2771669D02*
G01*
X4899073Y2771277D01*
X4901664Y2770628D01*
X4904178Y2769728D01*
X4906593Y2768586D01*
X4908884Y2767213D01*
X4911029Y2765622D01*
X4913008Y2763828D01*
X4914802Y2761849D01*
X4916393Y2759704D01*
X4917766Y2757413D01*
X4918908Y2754998D01*
X4919808Y2752484D01*
X4920457Y2749893D01*
X4920849Y2747251D01*
X4920980Y2744583D01*
X4920980Y2673817D01*
X4920849Y2671150D01*
X4920457Y2668508D01*
X4919808Y2665917D01*
X4918908Y2663402D01*
X4917766Y2660987D01*
X4916393Y2658696D01*
X4914802Y2656551D01*
X4913008Y2654572D01*
X4911029Y2652778D01*
X4908884Y2651187D01*
X4906593Y2649814D01*
X4904178Y2648672D01*
X4901664Y2647772D01*
X4899073Y2647123D01*
X4896431Y2646731D01*
X4893763Y2646600D01*
X4797997Y2646600D01*
X4795330Y2646731D01*
X4792688Y2647123D01*
X4790097Y2647772D01*
X4787582Y2648672D01*
X4785167Y2649814D01*
X4782876Y2651187D01*
X4780731Y2652778D01*
X4778752Y2654572D01*
X4776958Y2656551D01*
X4775367Y2658696D01*
X4773994Y2660987D01*
X4772852Y2663402D01*
X4771952Y2665917D01*
X4771303Y2668508D01*
X4770911Y2671150D01*
X4770780Y2673817D01*
X4770780Y2744583D01*
X4770911Y2747251D01*
X4771303Y2749893D01*
X4771952Y2752484D01*
X4772852Y2754998D01*
X4773994Y2757413D01*
X4775367Y2759704D01*
X4776958Y2761849D01*
X4778752Y2763828D01*
X4780731Y2765622D01*
X4782876Y2767213D01*
X4785167Y2768586D01*
X4787582Y2769728D01*
X4790097Y2770628D01*
X4792688Y2771277D01*
X4795330Y2771669D01*
X4797997Y2771800D01*
X4893763Y2771800D01*
X4896431Y2771669D01*
X4896431Y2771669D01*
G37*
D24*
X4845880Y2709200D03*
D16*
G36*
X4896431Y2976669D02*
G01*
X4899073Y2976277D01*
X4901664Y2975628D01*
X4904178Y2974728D01*
X4906593Y2973586D01*
X4908884Y2972213D01*
X4911029Y2970622D01*
X4913008Y2968828D01*
X4914802Y2966849D01*
X4916393Y2964704D01*
X4917766Y2962413D01*
X4918908Y2959998D01*
X4919808Y2957483D01*
X4920457Y2954892D01*
X4920849Y2952250D01*
X4920980Y2949583D01*
X4920980Y2878817D01*
X4920849Y2876149D01*
X4920457Y2873507D01*
X4919808Y2870916D01*
X4918908Y2868402D01*
X4917766Y2865987D01*
X4916393Y2863696D01*
X4914802Y2861551D01*
X4913008Y2859572D01*
X4911029Y2857778D01*
X4908884Y2856187D01*
X4906593Y2854814D01*
X4904178Y2853672D01*
X4901664Y2852772D01*
X4899073Y2852123D01*
X4896431Y2851731D01*
X4893763Y2851600D01*
X4797997Y2851600D01*
X4795330Y2851731D01*
X4792688Y2852123D01*
X4790097Y2852772D01*
X4787582Y2853672D01*
X4785167Y2854814D01*
X4782876Y2856187D01*
X4780731Y2857778D01*
X4778752Y2859572D01*
X4776958Y2861551D01*
X4775367Y2863696D01*
X4773994Y2865987D01*
X4772852Y2868402D01*
X4771952Y2870916D01*
X4771303Y2873507D01*
X4770911Y2876149D01*
X4770780Y2878817D01*
X4770780Y2949583D01*
X4770911Y2952250D01*
X4771303Y2954892D01*
X4771952Y2957483D01*
X4772852Y2959998D01*
X4773994Y2962413D01*
X4775367Y2964704D01*
X4776958Y2966849D01*
X4778752Y2968828D01*
X4780731Y2970622D01*
X4782876Y2972213D01*
X4785167Y2973586D01*
X4787582Y2974728D01*
X4790097Y2975628D01*
X4792688Y2976277D01*
X4795330Y2976669D01*
X4797997Y2976800D01*
X4893763Y2976800D01*
X4896431Y2976669D01*
X4896431Y2976669D01*
G37*
D24*
X4845880Y2914200D03*
D16*
G36*
X4705131Y2771669D02*
G01*
X4707773Y2771277D01*
X4710364Y2770628D01*
X4712878Y2769728D01*
X4715293Y2768586D01*
X4717584Y2767213D01*
X4719729Y2765622D01*
X4721708Y2763828D01*
X4723502Y2761849D01*
X4725093Y2759704D01*
X4726466Y2757413D01*
X4727608Y2754998D01*
X4728508Y2752484D01*
X4729157Y2749893D01*
X4729549Y2747251D01*
X4729680Y2744583D01*
X4729680Y2673817D01*
X4729549Y2671150D01*
X4729157Y2668508D01*
X4728508Y2665917D01*
X4727608Y2663402D01*
X4726466Y2660987D01*
X4725093Y2658696D01*
X4723502Y2656551D01*
X4721708Y2654572D01*
X4719729Y2652778D01*
X4717584Y2651187D01*
X4715293Y2649814D01*
X4712878Y2648672D01*
X4710364Y2647772D01*
X4707773Y2647123D01*
X4705131Y2646731D01*
X4702463Y2646600D01*
X4606697Y2646600D01*
X4604030Y2646731D01*
X4601388Y2647123D01*
X4598797Y2647772D01*
X4596282Y2648672D01*
X4593867Y2649814D01*
X4591576Y2651187D01*
X4589431Y2652778D01*
X4587452Y2654572D01*
X4585658Y2656551D01*
X4584067Y2658696D01*
X4582694Y2660987D01*
X4581552Y2663402D01*
X4580652Y2665917D01*
X4580003Y2668508D01*
X4579611Y2671150D01*
X4579480Y2673817D01*
X4579480Y2744583D01*
X4579611Y2747251D01*
X4580003Y2749893D01*
X4580652Y2752484D01*
X4581552Y2754998D01*
X4582694Y2757413D01*
X4584067Y2759704D01*
X4585658Y2761849D01*
X4587452Y2763828D01*
X4589431Y2765622D01*
X4591576Y2767213D01*
X4593867Y2768586D01*
X4596282Y2769728D01*
X4598797Y2770628D01*
X4601388Y2771277D01*
X4604030Y2771669D01*
X4606697Y2771800D01*
X4702463Y2771800D01*
X4705131Y2771669D01*
X4705131Y2771669D01*
G37*
D24*
X4654580Y2709200D03*
D16*
G36*
X4705131Y2976669D02*
G01*
X4707773Y2976277D01*
X4710364Y2975628D01*
X4712878Y2974728D01*
X4715293Y2973586D01*
X4717584Y2972213D01*
X4719729Y2970622D01*
X4721708Y2968828D01*
X4723502Y2966849D01*
X4725093Y2964704D01*
X4726466Y2962413D01*
X4727608Y2959998D01*
X4728508Y2957483D01*
X4729157Y2954892D01*
X4729549Y2952250D01*
X4729680Y2949583D01*
X4729680Y2878817D01*
X4729549Y2876149D01*
X4729157Y2873507D01*
X4728508Y2870916D01*
X4727608Y2868402D01*
X4726466Y2865987D01*
X4725093Y2863696D01*
X4723502Y2861551D01*
X4721708Y2859572D01*
X4719729Y2857778D01*
X4717584Y2856187D01*
X4715293Y2854814D01*
X4712878Y2853672D01*
X4710364Y2852772D01*
X4707773Y2852123D01*
X4705131Y2851731D01*
X4702463Y2851600D01*
X4606697Y2851600D01*
X4604030Y2851731D01*
X4601388Y2852123D01*
X4598797Y2852772D01*
X4596282Y2853672D01*
X4593867Y2854814D01*
X4591576Y2856187D01*
X4589431Y2857778D01*
X4587452Y2859572D01*
X4585658Y2861551D01*
X4584067Y2863696D01*
X4582694Y2865987D01*
X4581552Y2868402D01*
X4580652Y2870916D01*
X4580003Y2873507D01*
X4579611Y2876149D01*
X4579480Y2878817D01*
X4579480Y2949583D01*
X4579611Y2952250D01*
X4580003Y2954892D01*
X4580652Y2957483D01*
X4581552Y2959998D01*
X4582694Y2962413D01*
X4584067Y2964704D01*
X4585658Y2966849D01*
X4587452Y2968828D01*
X4589431Y2970622D01*
X4591576Y2972213D01*
X4593867Y2973586D01*
X4596282Y2974728D01*
X4598797Y2975628D01*
X4601388Y2976277D01*
X4604030Y2976669D01*
X4606697Y2976800D01*
X4702463Y2976800D01*
X4705131Y2976669D01*
X4705131Y2976669D01*
G37*
D24*
X4654580Y2914200D03*
D25*
X5340100Y1505960D03*
X5213100Y1505960D03*
X5086100Y1505960D03*
X4959100Y1505960D03*
X4832100Y1505960D03*
X4705100Y1505960D03*
X4578100Y1505960D03*
X4451100Y1505960D03*
X4451100Y2435960D03*
X4578100Y2435960D03*
X4705100Y2435960D03*
X4832100Y2435960D03*
X4959100Y2435960D03*
X5086100Y2435960D03*
X5213100Y2435960D03*
X5340100Y2435960D03*
D16*
G36*
X2213348Y1479162D02*
G01*
X2215990Y1478770D01*
X2218581Y1478121D01*
X2221096Y1477221D01*
X2223511Y1476079D01*
X2225802Y1474706D01*
X2227947Y1473115D01*
X2229926Y1471321D01*
X2279965Y1421283D01*
X2281758Y1419304D01*
X2283350Y1417158D01*
X2284723Y1414867D01*
X2285865Y1412453D01*
X2286764Y1409938D01*
X2287413Y1407347D01*
X2287805Y1404705D01*
X2287936Y1402037D01*
X2287805Y1399369D01*
X2287413Y1396727D01*
X2286764Y1394136D01*
X2285865Y1391622D01*
X2284723Y1389207D01*
X2283350Y1386916D01*
X2281758Y1384771D01*
X2279965Y1382792D01*
X2212248Y1315075D01*
X2210269Y1313282D01*
X2208124Y1311691D01*
X2205833Y1310317D01*
X2203418Y1309175D01*
X2200904Y1308276D01*
X2198313Y1307627D01*
X2195671Y1307235D01*
X2193003Y1307104D01*
X2190335Y1307235D01*
X2187693Y1307627D01*
X2185102Y1308276D01*
X2182587Y1309175D01*
X2180173Y1310317D01*
X2177882Y1311691D01*
X2175736Y1313282D01*
X2173757Y1315075D01*
X2123719Y1365114D01*
X2121925Y1367093D01*
X2120334Y1369239D01*
X2118961Y1371530D01*
X2117819Y1373944D01*
X2116919Y1376459D01*
X2116270Y1379050D01*
X2115878Y1381692D01*
X2115747Y1384360D01*
X2115878Y1387027D01*
X2116270Y1389669D01*
X2116919Y1392260D01*
X2117819Y1394775D01*
X2118961Y1397190D01*
X2120334Y1399481D01*
X2121925Y1401626D01*
X2123719Y1403605D01*
X2191435Y1471321D01*
X2193414Y1473115D01*
X2195559Y1474706D01*
X2197850Y1476079D01*
X2200265Y1477221D01*
X2202780Y1478121D01*
X2205371Y1478770D01*
X2208013Y1479162D01*
X2210680Y1479293D01*
X2213348Y1479162D01*
X2213348Y1479162D01*
G37*
D24*
X2201842Y1393198D03*
D16*
G36*
X2358305Y1334205D02*
G01*
X2360947Y1333813D01*
X2363538Y1333164D01*
X2366053Y1332265D01*
X2368467Y1331123D01*
X2370758Y1329750D01*
X2372904Y1328158D01*
X2374883Y1326365D01*
X2424921Y1276326D01*
X2426715Y1274347D01*
X2428306Y1272202D01*
X2429679Y1269911D01*
X2430821Y1267496D01*
X2431721Y1264981D01*
X2432370Y1262390D01*
X2432762Y1259748D01*
X2432893Y1257080D01*
X2432762Y1254413D01*
X2432370Y1251771D01*
X2431721Y1249180D01*
X2430821Y1246665D01*
X2429679Y1244250D01*
X2428306Y1241959D01*
X2426715Y1239814D01*
X2424921Y1237835D01*
X2357205Y1170119D01*
X2355226Y1168325D01*
X2353081Y1166734D01*
X2350790Y1165361D01*
X2348375Y1164219D01*
X2345860Y1163319D01*
X2343269Y1162670D01*
X2340627Y1162278D01*
X2337960Y1162147D01*
X2335292Y1162278D01*
X2332650Y1162670D01*
X2330059Y1163319D01*
X2327544Y1164219D01*
X2325130Y1165361D01*
X2322839Y1166734D01*
X2320693Y1168325D01*
X2318714Y1170119D01*
X2268675Y1220157D01*
X2266882Y1222136D01*
X2265291Y1224282D01*
X2263917Y1226573D01*
X2262775Y1228987D01*
X2261876Y1231502D01*
X2261227Y1234093D01*
X2260835Y1236735D01*
X2260704Y1239403D01*
X2260835Y1242071D01*
X2261227Y1244713D01*
X2261876Y1247304D01*
X2262775Y1249818D01*
X2263917Y1252233D01*
X2265291Y1254524D01*
X2266882Y1256669D01*
X2268675Y1258648D01*
X2336392Y1326365D01*
X2338371Y1328158D01*
X2340516Y1329750D01*
X2342807Y1331123D01*
X2345222Y1332265D01*
X2347736Y1333164D01*
X2350327Y1333813D01*
X2352969Y1334205D01*
X2355637Y1334336D01*
X2358305Y1334205D01*
X2358305Y1334205D01*
G37*
D24*
X2346798Y1248242D03*
D16*
G36*
X1484800Y484929D02*
G01*
X1487442Y484537D01*
X1490033Y483888D01*
X1492548Y482988D01*
X1494963Y481846D01*
X1497254Y480473D01*
X1499399Y478882D01*
X1501378Y477088D01*
X1503172Y475109D01*
X1504763Y472964D01*
X1506136Y470673D01*
X1507278Y468258D01*
X1508178Y465743D01*
X1508827Y463152D01*
X1509219Y460510D01*
X1509350Y457843D01*
X1509350Y387077D01*
X1509219Y384409D01*
X1508827Y381767D01*
X1508178Y379176D01*
X1507278Y376662D01*
X1506136Y374247D01*
X1504763Y371956D01*
X1503172Y369811D01*
X1501378Y367832D01*
X1499399Y366038D01*
X1497254Y364447D01*
X1494963Y363074D01*
X1492548Y361932D01*
X1490033Y361032D01*
X1487442Y360383D01*
X1484800Y359991D01*
X1482133Y359860D01*
X1386367Y359860D01*
X1383700Y359991D01*
X1381058Y360383D01*
X1378467Y361032D01*
X1375952Y361932D01*
X1373537Y363074D01*
X1371246Y364447D01*
X1369101Y366038D01*
X1367122Y367832D01*
X1365328Y369811D01*
X1363737Y371956D01*
X1362364Y374247D01*
X1361222Y376662D01*
X1360322Y379176D01*
X1359673Y381767D01*
X1359281Y384409D01*
X1359150Y387077D01*
X1359150Y457843D01*
X1359281Y460510D01*
X1359673Y463152D01*
X1360322Y465743D01*
X1361222Y468258D01*
X1362364Y470673D01*
X1363737Y472964D01*
X1365328Y475109D01*
X1367122Y477088D01*
X1369101Y478882D01*
X1371246Y480473D01*
X1373537Y481846D01*
X1375952Y482988D01*
X1378467Y483888D01*
X1381058Y484537D01*
X1383700Y484929D01*
X1386367Y485060D01*
X1482133Y485060D01*
X1484800Y484929D01*
X1484800Y484929D01*
G37*
D24*
X1434250Y422460D03*
D16*
G36*
X1484800Y279929D02*
G01*
X1487442Y279537D01*
X1490033Y278888D01*
X1492548Y277988D01*
X1494963Y276846D01*
X1497254Y275473D01*
X1499399Y273882D01*
X1501378Y272088D01*
X1503172Y270109D01*
X1504763Y267964D01*
X1506136Y265673D01*
X1507278Y263258D01*
X1508178Y260743D01*
X1508827Y258152D01*
X1509219Y255510D01*
X1509350Y252843D01*
X1509350Y182077D01*
X1509219Y179409D01*
X1508827Y176767D01*
X1508178Y174177D01*
X1507278Y171662D01*
X1506136Y169247D01*
X1504763Y166956D01*
X1503172Y164811D01*
X1501378Y162832D01*
X1499399Y161038D01*
X1497254Y159447D01*
X1494963Y158074D01*
X1492548Y156932D01*
X1490033Y156032D01*
X1487442Y155383D01*
X1484800Y154991D01*
X1482133Y154860D01*
X1386367Y154860D01*
X1383700Y154991D01*
X1381058Y155383D01*
X1378467Y156032D01*
X1375952Y156932D01*
X1373537Y158074D01*
X1371246Y159447D01*
X1369101Y161038D01*
X1367122Y162832D01*
X1365328Y164811D01*
X1363737Y166956D01*
X1362364Y169247D01*
X1361222Y171662D01*
X1360322Y174177D01*
X1359673Y176767D01*
X1359281Y179409D01*
X1359150Y182077D01*
X1359150Y252843D01*
X1359281Y255510D01*
X1359673Y258152D01*
X1360322Y260743D01*
X1361222Y263258D01*
X1362364Y265673D01*
X1363737Y267964D01*
X1365328Y270109D01*
X1367122Y272088D01*
X1369101Y273882D01*
X1371246Y275473D01*
X1373537Y276846D01*
X1375952Y277988D01*
X1378467Y278888D01*
X1381058Y279537D01*
X1383700Y279929D01*
X1386367Y280060D01*
X1482133Y280060D01*
X1484800Y279929D01*
X1484800Y279929D01*
G37*
D24*
X1434250Y217460D03*
D16*
G36*
X3303287Y2934582D02*
G01*
X3305929Y2934190D01*
X3308520Y2933541D01*
X3311035Y2932641D01*
X3313450Y2931499D01*
X3315741Y2930126D01*
X3317886Y2928535D01*
X3319865Y2926741D01*
X3387581Y2859025D01*
X3389375Y2857046D01*
X3390966Y2854901D01*
X3392339Y2852610D01*
X3393481Y2850195D01*
X3394381Y2847680D01*
X3395030Y2845089D01*
X3395422Y2842447D01*
X3395553Y2839780D01*
X3395422Y2837112D01*
X3395030Y2834470D01*
X3394381Y2831879D01*
X3393481Y2829364D01*
X3392339Y2826949D01*
X3390966Y2824658D01*
X3389375Y2822513D01*
X3387581Y2820534D01*
X3337543Y2770495D01*
X3335564Y2768702D01*
X3333418Y2767111D01*
X3331127Y2765737D01*
X3328713Y2764595D01*
X3326198Y2763696D01*
X3323607Y2763047D01*
X3320965Y2762655D01*
X3318297Y2762524D01*
X3315629Y2762655D01*
X3312987Y2763047D01*
X3310396Y2763696D01*
X3307882Y2764595D01*
X3305467Y2765737D01*
X3303176Y2767111D01*
X3301031Y2768702D01*
X3299052Y2770495D01*
X3231335Y2838212D01*
X3229542Y2840191D01*
X3227950Y2842336D01*
X3226577Y2844627D01*
X3225435Y2847042D01*
X3224536Y2849556D01*
X3223887Y2852147D01*
X3223495Y2854789D01*
X3223364Y2857457D01*
X3223495Y2860125D01*
X3223887Y2862767D01*
X3224536Y2865358D01*
X3225435Y2867873D01*
X3226577Y2870287D01*
X3227950Y2872578D01*
X3229542Y2874724D01*
X3231335Y2876703D01*
X3281374Y2926741D01*
X3283353Y2928535D01*
X3285498Y2930126D01*
X3287789Y2931499D01*
X3290204Y2932641D01*
X3292719Y2933541D01*
X3295310Y2934190D01*
X3297952Y2934582D01*
X3300620Y2934713D01*
X3303287Y2934582D01*
X3303287Y2934582D01*
G37*
D24*
X3309458Y2848618D03*
D16*
G36*
X3158331Y2789625D02*
G01*
X3160973Y2789233D01*
X3163564Y2788584D01*
X3166078Y2787685D01*
X3168493Y2786543D01*
X3170784Y2785170D01*
X3172929Y2783578D01*
X3174908Y2781785D01*
X3242625Y2714068D01*
X3244418Y2712089D01*
X3246009Y2709944D01*
X3247383Y2707653D01*
X3248525Y2705238D01*
X3249424Y2702724D01*
X3250073Y2700133D01*
X3250465Y2697491D01*
X3250596Y2694823D01*
X3250465Y2692155D01*
X3250073Y2689513D01*
X3249424Y2686922D01*
X3248525Y2684407D01*
X3247383Y2681993D01*
X3246009Y2679702D01*
X3244418Y2677556D01*
X3242625Y2675577D01*
X3192586Y2625539D01*
X3190607Y2623745D01*
X3188461Y2622154D01*
X3186170Y2620781D01*
X3183756Y2619639D01*
X3181241Y2618739D01*
X3178650Y2618090D01*
X3176008Y2617698D01*
X3173340Y2617567D01*
X3170673Y2617698D01*
X3168031Y2618090D01*
X3165440Y2618739D01*
X3162925Y2619639D01*
X3160510Y2620781D01*
X3158219Y2622154D01*
X3156074Y2623745D01*
X3154095Y2625539D01*
X3086379Y2693255D01*
X3084585Y2695234D01*
X3082994Y2697379D01*
X3081621Y2699670D01*
X3080479Y2702085D01*
X3079579Y2704600D01*
X3078930Y2707191D01*
X3078538Y2709833D01*
X3078407Y2712500D01*
X3078538Y2715168D01*
X3078930Y2717810D01*
X3079579Y2720401D01*
X3080479Y2722916D01*
X3081621Y2725331D01*
X3082994Y2727622D01*
X3084585Y2729767D01*
X3086379Y2731746D01*
X3136417Y2781785D01*
X3138396Y2783578D01*
X3140542Y2785170D01*
X3142833Y2786543D01*
X3145247Y2787685D01*
X3147762Y2788584D01*
X3150353Y2789233D01*
X3152995Y2789625D01*
X3155663Y2789756D01*
X3158331Y2789625D01*
X3158331Y2789625D01*
G37*
D24*
X3164502Y2703662D03*
D16*
G36*
X3773187Y2495162D02*
G01*
X3775829Y2494770D01*
X3778420Y2494121D01*
X3780935Y2493221D01*
X3783350Y2492079D01*
X3785641Y2490706D01*
X3787786Y2489115D01*
X3789765Y2487321D01*
X3857481Y2419605D01*
X3859275Y2417626D01*
X3860866Y2415481D01*
X3862239Y2413190D01*
X3863381Y2410775D01*
X3864281Y2408260D01*
X3864930Y2405669D01*
X3865322Y2403027D01*
X3865453Y2400360D01*
X3865322Y2397692D01*
X3864930Y2395050D01*
X3864281Y2392459D01*
X3863381Y2389944D01*
X3862239Y2387530D01*
X3860866Y2385239D01*
X3859275Y2383093D01*
X3857481Y2381114D01*
X3807443Y2331075D01*
X3805464Y2329282D01*
X3803318Y2327691D01*
X3801027Y2326317D01*
X3798613Y2325175D01*
X3796098Y2324276D01*
X3793507Y2323627D01*
X3790865Y2323235D01*
X3788197Y2323104D01*
X3785529Y2323235D01*
X3782887Y2323627D01*
X3780296Y2324276D01*
X3777782Y2325175D01*
X3775367Y2326317D01*
X3773076Y2327691D01*
X3770931Y2329282D01*
X3768952Y2331075D01*
X3701235Y2398792D01*
X3699442Y2400771D01*
X3697850Y2402916D01*
X3696477Y2405207D01*
X3695335Y2407622D01*
X3694436Y2410136D01*
X3693787Y2412727D01*
X3693395Y2415369D01*
X3693264Y2418037D01*
X3693395Y2420705D01*
X3693787Y2423347D01*
X3694436Y2425938D01*
X3695335Y2428453D01*
X3696477Y2430867D01*
X3697850Y2433158D01*
X3699442Y2435304D01*
X3701235Y2437283D01*
X3751274Y2487321D01*
X3753253Y2489115D01*
X3755398Y2490706D01*
X3757689Y2492079D01*
X3760104Y2493221D01*
X3762619Y2494121D01*
X3765210Y2494770D01*
X3767852Y2495162D01*
X3770520Y2495293D01*
X3773187Y2495162D01*
X3773187Y2495162D01*
G37*
D24*
X3779358Y2409198D03*
D16*
G36*
X3628231Y2350205D02*
G01*
X3630873Y2349813D01*
X3633464Y2349164D01*
X3635978Y2348265D01*
X3638393Y2347123D01*
X3640684Y2345750D01*
X3642829Y2344158D01*
X3644808Y2342365D01*
X3712525Y2274648D01*
X3714318Y2272669D01*
X3715909Y2270524D01*
X3717283Y2268233D01*
X3718425Y2265818D01*
X3719324Y2263304D01*
X3719973Y2260713D01*
X3720365Y2258071D01*
X3720496Y2255403D01*
X3720365Y2252735D01*
X3719973Y2250093D01*
X3719324Y2247502D01*
X3718425Y2244987D01*
X3717283Y2242573D01*
X3715909Y2240282D01*
X3714318Y2238136D01*
X3712525Y2236157D01*
X3662486Y2186119D01*
X3660507Y2184325D01*
X3658361Y2182734D01*
X3656070Y2181361D01*
X3653656Y2180219D01*
X3651141Y2179319D01*
X3648550Y2178670D01*
X3645908Y2178278D01*
X3643240Y2178147D01*
X3640573Y2178278D01*
X3637931Y2178670D01*
X3635340Y2179319D01*
X3632825Y2180219D01*
X3630410Y2181361D01*
X3628119Y2182734D01*
X3625974Y2184325D01*
X3623995Y2186119D01*
X3556279Y2253835D01*
X3554485Y2255814D01*
X3552894Y2257959D01*
X3551521Y2260250D01*
X3550379Y2262665D01*
X3549479Y2265180D01*
X3548830Y2267771D01*
X3548438Y2270413D01*
X3548307Y2273080D01*
X3548438Y2275748D01*
X3548830Y2278390D01*
X3549479Y2280981D01*
X3550379Y2283496D01*
X3551521Y2285911D01*
X3552894Y2288202D01*
X3554485Y2290347D01*
X3556279Y2292326D01*
X3606317Y2342365D01*
X3608296Y2344158D01*
X3610442Y2345750D01*
X3612733Y2347123D01*
X3615147Y2348265D01*
X3617662Y2349164D01*
X3620253Y2349813D01*
X3622895Y2350205D01*
X3625563Y2350336D01*
X3628231Y2350205D01*
X3628231Y2350205D01*
G37*
D24*
X3634402Y2264242D03*
D16*
G36*
X3651850Y702269D02*
G01*
X3654492Y701877D01*
X3657083Y701228D01*
X3659598Y700328D01*
X3662013Y699186D01*
X3664304Y697813D01*
X3666449Y696222D01*
X3668428Y694428D01*
X3670222Y692449D01*
X3671813Y690304D01*
X3673186Y688013D01*
X3674328Y685598D01*
X3675228Y683084D01*
X3675877Y680493D01*
X3676269Y677851D01*
X3676400Y675183D01*
X3676400Y579417D01*
X3676269Y576750D01*
X3675877Y574108D01*
X3675228Y571517D01*
X3674328Y569002D01*
X3673186Y566587D01*
X3671813Y564296D01*
X3670222Y562151D01*
X3668428Y560172D01*
X3666449Y558378D01*
X3664304Y556787D01*
X3662013Y555414D01*
X3659598Y554272D01*
X3657083Y553372D01*
X3654492Y552723D01*
X3651850Y552331D01*
X3649183Y552200D01*
X3578417Y552200D01*
X3575749Y552331D01*
X3573107Y552723D01*
X3570516Y553372D01*
X3568002Y554272D01*
X3565587Y555414D01*
X3563296Y556787D01*
X3561151Y558378D01*
X3559172Y560172D01*
X3557378Y562151D01*
X3555787Y564296D01*
X3554414Y566587D01*
X3553272Y569002D01*
X3552372Y571517D01*
X3551723Y574108D01*
X3551331Y576750D01*
X3551200Y579417D01*
X3551200Y675183D01*
X3551331Y677851D01*
X3551723Y680493D01*
X3552372Y683084D01*
X3553272Y685598D01*
X3554414Y688013D01*
X3555787Y690304D01*
X3557378Y692449D01*
X3559172Y694428D01*
X3561151Y696222D01*
X3563296Y697813D01*
X3565587Y699186D01*
X3568002Y700328D01*
X3570516Y701228D01*
X3573107Y701877D01*
X3575749Y702269D01*
X3578417Y702400D01*
X3649183Y702400D01*
X3651850Y702269D01*
X3651850Y702269D01*
G37*
D24*
X3613800Y627300D03*
D16*
G36*
X3446850Y702269D02*
G01*
X3449492Y701877D01*
X3452083Y701228D01*
X3454598Y700328D01*
X3457013Y699186D01*
X3459304Y697813D01*
X3461449Y696222D01*
X3463428Y694428D01*
X3465222Y692449D01*
X3466813Y690304D01*
X3468186Y688013D01*
X3469328Y685598D01*
X3470228Y683084D01*
X3470877Y680493D01*
X3471269Y677851D01*
X3471400Y675183D01*
X3471400Y579417D01*
X3471269Y576750D01*
X3470877Y574108D01*
X3470228Y571517D01*
X3469328Y569002D01*
X3468186Y566587D01*
X3466813Y564296D01*
X3465222Y562151D01*
X3463428Y560172D01*
X3461449Y558378D01*
X3459304Y556787D01*
X3457013Y555414D01*
X3454598Y554272D01*
X3452083Y553372D01*
X3449492Y552723D01*
X3446850Y552331D01*
X3444183Y552200D01*
X3373417Y552200D01*
X3370749Y552331D01*
X3368107Y552723D01*
X3365516Y553372D01*
X3363002Y554272D01*
X3360587Y555414D01*
X3358296Y556787D01*
X3356151Y558378D01*
X3354172Y560172D01*
X3352378Y562151D01*
X3350787Y564296D01*
X3349414Y566587D01*
X3348272Y569002D01*
X3347372Y571517D01*
X3346723Y574108D01*
X3346331Y576750D01*
X3346200Y579417D01*
X3346200Y675183D01*
X3346331Y677851D01*
X3346723Y680493D01*
X3347372Y683084D01*
X3348272Y685598D01*
X3349414Y688013D01*
X3350787Y690304D01*
X3352378Y692449D01*
X3354172Y694428D01*
X3356151Y696222D01*
X3358296Y697813D01*
X3360587Y699186D01*
X3363002Y700328D01*
X3365516Y701228D01*
X3368107Y701877D01*
X3370749Y702269D01*
X3373417Y702400D01*
X3444183Y702400D01*
X3446850Y702269D01*
X3446850Y702269D01*
G37*
D24*
X3408800Y627300D03*
D26*
X1184000Y278812D03*
X784000Y278812D03*
D27*
X4843860Y3239940D03*
X4843860Y3429940D03*
X5043860Y3334940D03*
X5475660Y3334940D03*
X5275660Y3429940D03*
X5275660Y3239940D03*
D16*
G36*
X1618750Y2351219D02*
G01*
X1621392Y2350827D01*
X1623983Y2350178D01*
X1626498Y2349278D01*
X1628913Y2348136D01*
X1631204Y2346763D01*
X1633349Y2345172D01*
X1635328Y2343378D01*
X1637122Y2341399D01*
X1638713Y2339254D01*
X1640086Y2336963D01*
X1641228Y2334548D01*
X1642128Y2332034D01*
X1642777Y2329443D01*
X1643169Y2326801D01*
X1643300Y2324133D01*
X1643300Y2253367D01*
X1643169Y2250700D01*
X1642777Y2248058D01*
X1642128Y2245467D01*
X1641228Y2242952D01*
X1640086Y2240537D01*
X1638713Y2238246D01*
X1637122Y2236101D01*
X1635328Y2234122D01*
X1633349Y2232328D01*
X1631204Y2230737D01*
X1628913Y2229364D01*
X1626498Y2228222D01*
X1623983Y2227322D01*
X1621392Y2226673D01*
X1618750Y2226281D01*
X1616083Y2226150D01*
X1520317Y2226150D01*
X1517649Y2226281D01*
X1515007Y2226673D01*
X1512416Y2227322D01*
X1509902Y2228222D01*
X1507487Y2229364D01*
X1505196Y2230737D01*
X1503051Y2232328D01*
X1501072Y2234122D01*
X1499278Y2236101D01*
X1497687Y2238246D01*
X1496314Y2240537D01*
X1495172Y2242952D01*
X1494272Y2245467D01*
X1493623Y2248058D01*
X1493231Y2250700D01*
X1493100Y2253367D01*
X1493100Y2324133D01*
X1493231Y2326801D01*
X1493623Y2329443D01*
X1494272Y2332034D01*
X1495172Y2334548D01*
X1496314Y2336963D01*
X1497687Y2339254D01*
X1499278Y2341399D01*
X1501072Y2343378D01*
X1503051Y2345172D01*
X1505196Y2346763D01*
X1507487Y2348136D01*
X1509902Y2349278D01*
X1512416Y2350178D01*
X1515007Y2350827D01*
X1517649Y2351219D01*
X1520317Y2351350D01*
X1616083Y2351350D01*
X1618750Y2351219D01*
X1618750Y2351219D01*
G37*
D24*
X1568200Y2288750D03*
D16*
G36*
X1618750Y2146219D02*
G01*
X1621392Y2145827D01*
X1623983Y2145178D01*
X1626498Y2144278D01*
X1628913Y2143136D01*
X1631204Y2141763D01*
X1633349Y2140172D01*
X1635328Y2138378D01*
X1637122Y2136399D01*
X1638713Y2134254D01*
X1640086Y2131963D01*
X1641228Y2129548D01*
X1642128Y2127034D01*
X1642777Y2124443D01*
X1643169Y2121801D01*
X1643300Y2119133D01*
X1643300Y2048367D01*
X1643169Y2045699D01*
X1642777Y2043057D01*
X1642128Y2040466D01*
X1641228Y2037952D01*
X1640086Y2035537D01*
X1638713Y2033246D01*
X1637122Y2031101D01*
X1635328Y2029122D01*
X1633349Y2027328D01*
X1631204Y2025737D01*
X1628913Y2024364D01*
X1626498Y2023222D01*
X1623983Y2022322D01*
X1621392Y2021673D01*
X1618750Y2021281D01*
X1616083Y2021150D01*
X1520317Y2021150D01*
X1517649Y2021281D01*
X1515007Y2021673D01*
X1512416Y2022322D01*
X1509902Y2023222D01*
X1507487Y2024364D01*
X1505196Y2025737D01*
X1503051Y2027328D01*
X1501072Y2029122D01*
X1499278Y2031101D01*
X1497687Y2033246D01*
X1496314Y2035537D01*
X1495172Y2037952D01*
X1494272Y2040466D01*
X1493623Y2043057D01*
X1493231Y2045699D01*
X1493100Y2048367D01*
X1493100Y2119133D01*
X1493231Y2121801D01*
X1493623Y2124443D01*
X1494272Y2127034D01*
X1495172Y2129548D01*
X1496314Y2131963D01*
X1497687Y2134254D01*
X1499278Y2136399D01*
X1501072Y2138378D01*
X1503051Y2140172D01*
X1505196Y2141763D01*
X1507487Y2143136D01*
X1509902Y2144278D01*
X1512416Y2145178D01*
X1515007Y2145827D01*
X1517649Y2146219D01*
X1520317Y2146350D01*
X1616083Y2146350D01*
X1618750Y2146219D01*
X1618750Y2146219D01*
G37*
D24*
X1568200Y2083750D03*
D28*
X6089400Y3167300D03*
D29*
X6089400Y2767300D03*
D30*
X2691811Y2581230D03*
D16*
G36*
X2728934Y2664457D02*
G01*
X2775037Y2618353D01*
X2654687Y2498004D01*
X2608584Y2544107D01*
X2728934Y2664457D01*
X2728934Y2664457D01*
G37*
D30*
X2748379Y2524662D03*
D16*
G36*
X2785502Y2607888D02*
G01*
X2831605Y2561785D01*
X2711256Y2441435D01*
X2665153Y2487539D01*
X2785502Y2607888D01*
X2785502Y2607888D01*
G37*
D30*
X2804948Y2468093D03*
D16*
G36*
X2842071Y2551320D02*
G01*
X2888174Y2505216D01*
X2767825Y2384867D01*
X2721721Y2430970D01*
X2842071Y2551320D01*
X2842071Y2551320D01*
G37*
D30*
X2861516Y2411525D03*
D16*
G36*
X2898639Y2494751D02*
G01*
X2944743Y2448648D01*
X2824393Y2328298D01*
X2778290Y2374402D01*
X2898639Y2494751D01*
X2898639Y2494751D01*
G37*
D30*
X2918085Y2354956D03*
D16*
G36*
X2955208Y2438183D02*
G01*
X3001311Y2392079D01*
X2880962Y2271730D01*
X2834858Y2317833D01*
X2955208Y2438183D01*
X2955208Y2438183D01*
G37*
D30*
X2974653Y2298388D03*
D16*
G36*
X3011776Y2381614D02*
G01*
X3057880Y2335511D01*
X2937530Y2215161D01*
X2891427Y2261265D01*
X3011776Y2381614D01*
X3011776Y2381614D01*
G37*
D30*
X3031222Y2241819D03*
D16*
G36*
X3068345Y2325046D02*
G01*
X3114448Y2278942D01*
X2994099Y2158593D01*
X2947995Y2204696D01*
X3068345Y2325046D01*
X3068345Y2325046D01*
G37*
D30*
X3087790Y2185251D03*
D16*
G36*
X3124913Y2268477D02*
G01*
X3171017Y2222374D01*
X3050667Y2102024D01*
X3004564Y2148127D01*
X3124913Y2268477D01*
X3124913Y2268477D01*
G37*
D30*
X3087790Y1980189D03*
D16*
G36*
X3171017Y1943066D02*
G01*
X3124913Y1896963D01*
X3004564Y2017313D01*
X3050667Y2063416D01*
X3171017Y1943066D01*
X3171017Y1943066D01*
G37*
D30*
X3031222Y1923621D03*
D16*
G36*
X3114448Y1886498D02*
G01*
X3068345Y1840394D01*
X2947995Y1960744D01*
X2994099Y2006847D01*
X3114448Y1886498D01*
X3114448Y1886498D01*
G37*
D30*
X2974653Y1867052D03*
D16*
G36*
X3057880Y1829929D02*
G01*
X3011776Y1783826D01*
X2891427Y1904175D01*
X2937530Y1950279D01*
X3057880Y1829929D01*
X3057880Y1829929D01*
G37*
D30*
X2918085Y1810484D03*
D16*
G36*
X3001311Y1773361D02*
G01*
X2955208Y1727257D01*
X2834858Y1847607D01*
X2880962Y1893710D01*
X3001311Y1773361D01*
X3001311Y1773361D01*
G37*
D30*
X2861516Y1753915D03*
D16*
G36*
X2944743Y1716792D02*
G01*
X2898639Y1670689D01*
X2778290Y1791038D01*
X2824393Y1837142D01*
X2944743Y1716792D01*
X2944743Y1716792D01*
G37*
D30*
X2804948Y1697347D03*
D16*
G36*
X2888174Y1660224D02*
G01*
X2842071Y1614120D01*
X2721721Y1734470D01*
X2767825Y1780573D01*
X2888174Y1660224D01*
X2888174Y1660224D01*
G37*
D30*
X2748379Y1640778D03*
D16*
G36*
X2831605Y1603655D02*
G01*
X2785502Y1557552D01*
X2665153Y1677901D01*
X2711256Y1724005D01*
X2831605Y1603655D01*
X2831605Y1603655D01*
G37*
D30*
X2691811Y1584210D03*
D16*
G36*
X2775037Y1547087D02*
G01*
X2728934Y1500983D01*
X2608584Y1621333D01*
X2654687Y1667436D01*
X2775037Y1547087D01*
X2775037Y1547087D01*
G37*
D30*
X2486750Y1584210D03*
D16*
G36*
X2523873Y1667436D02*
G01*
X2569976Y1621333D01*
X2449626Y1500983D01*
X2403523Y1547087D01*
X2523873Y1667436D01*
X2523873Y1667436D01*
G37*
D30*
X2430181Y1640778D03*
D16*
G36*
X2467304Y1724005D02*
G01*
X2513408Y1677901D01*
X2393058Y1557552D01*
X2346955Y1603655D01*
X2467304Y1724005D01*
X2467304Y1724005D01*
G37*
D30*
X2373612Y1697347D03*
D16*
G36*
X2410736Y1780573D02*
G01*
X2456839Y1734470D01*
X2336489Y1614120D01*
X2290386Y1660224D01*
X2410736Y1780573D01*
X2410736Y1780573D01*
G37*
D30*
X2317044Y1753915D03*
D16*
G36*
X2354167Y1837142D02*
G01*
X2400270Y1791038D01*
X2279921Y1670689D01*
X2233817Y1716792D01*
X2354167Y1837142D01*
X2354167Y1837142D01*
G37*
D30*
X2260475Y1810484D03*
D16*
G36*
X2297598Y1893710D02*
G01*
X2343702Y1847607D01*
X2223352Y1727257D01*
X2177249Y1773361D01*
X2297598Y1893710D01*
X2297598Y1893710D01*
G37*
D30*
X2203907Y1867052D03*
D16*
G36*
X2241030Y1950279D02*
G01*
X2287133Y1904175D01*
X2166784Y1783826D01*
X2120680Y1829929D01*
X2241030Y1950279D01*
X2241030Y1950279D01*
G37*
D30*
X2147338Y1923621D03*
D16*
G36*
X2184461Y2006847D02*
G01*
X2230565Y1960744D01*
X2110215Y1840394D01*
X2064112Y1886498D01*
X2184461Y2006847D01*
X2184461Y2006847D01*
G37*
D30*
X2090770Y1980189D03*
D16*
G36*
X2127893Y2063416D02*
G01*
X2173996Y2017313D01*
X2053647Y1896963D01*
X2007543Y1943066D01*
X2127893Y2063416D01*
X2127893Y2063416D01*
G37*
D30*
X2090770Y2185251D03*
D16*
G36*
X2173996Y2148127D02*
G01*
X2127893Y2102024D01*
X2007543Y2222374D01*
X2053647Y2268477D01*
X2173996Y2148127D01*
X2173996Y2148127D01*
G37*
D30*
X2147338Y2241819D03*
D16*
G36*
X2230565Y2204696D02*
G01*
X2184461Y2158593D01*
X2064112Y2278942D01*
X2110215Y2325046D01*
X2230565Y2204696D01*
X2230565Y2204696D01*
G37*
D30*
X2203907Y2298388D03*
D16*
G36*
X2287133Y2261265D02*
G01*
X2241030Y2215161D01*
X2120680Y2335511D01*
X2166784Y2381614D01*
X2287133Y2261265D01*
X2287133Y2261265D01*
G37*
D30*
X2260475Y2354956D03*
D16*
G36*
X2343702Y2317833D02*
G01*
X2297598Y2271730D01*
X2177249Y2392079D01*
X2223352Y2438183D01*
X2343702Y2317833D01*
X2343702Y2317833D01*
G37*
D30*
X2317044Y2411525D03*
D16*
G36*
X2400270Y2374402D02*
G01*
X2354167Y2328298D01*
X2233817Y2448648D01*
X2279921Y2494751D01*
X2400270Y2374402D01*
X2400270Y2374402D01*
G37*
D30*
X2373612Y2468093D03*
D16*
G36*
X2456839Y2430970D02*
G01*
X2410736Y2384867D01*
X2290386Y2505216D01*
X2336489Y2551320D01*
X2456839Y2430970D01*
X2456839Y2430970D01*
G37*
D30*
X2430181Y2524662D03*
D16*
G36*
X2513408Y2487539D02*
G01*
X2467304Y2441435D01*
X2346955Y2561785D01*
X2393058Y2607888D01*
X2513408Y2487539D01*
X2513408Y2487539D01*
G37*
D30*
X2486750Y2581230D03*
D16*
G36*
X2569976Y2544107D02*
G01*
X2523873Y2498004D01*
X2403523Y2618353D01*
X2449626Y2664457D01*
X2569976Y2544107D01*
X2569976Y2544107D01*
G37*
D31*
X4100000Y249000D03*
D32*
X4100000Y503000D03*
X4354000Y249000D03*
X4354000Y503000D03*
X4608000Y249000D03*
X4608000Y503000D03*
X4862000Y249000D03*
X4862000Y503000D03*
X5116000Y249000D03*
X5116000Y503000D03*
X5370000Y249000D03*
X5370000Y503000D03*
X5624000Y249000D03*
X5624000Y503000D03*
X5878000Y249000D03*
X5878000Y503000D03*
X6132000Y249000D03*
X6132000Y503000D03*
X6386000Y249000D03*
X6386000Y503000D03*
X6640000Y249000D03*
X6640000Y503000D03*
X6894000Y249000D03*
X6894000Y503000D03*
D33*
X806200Y2240200D03*
X1060200Y2494200D03*
X806200Y2748200D03*
D34*
X3314580Y2556580D03*
X3489580Y2556580D03*
X3489580Y2416580D03*
X3314580Y2416580D03*
D16*
G36*
X2067586Y371791D02*
G01*
X2070187Y371405D01*
X2072737Y370766D01*
X2075212Y369881D01*
X2077589Y368757D01*
X2079844Y367405D01*
X2081956Y365839D01*
X2083903Y364073D01*
X2085669Y362126D01*
X2087235Y360014D01*
X2088587Y357759D01*
X2089711Y355382D01*
X2090596Y352907D01*
X2091235Y350357D01*
X2091621Y347756D01*
X2091750Y345131D01*
X2091750Y213509D01*
X2091621Y210884D01*
X2091235Y208283D01*
X2090596Y205733D01*
X2089711Y203258D01*
X2088587Y200881D01*
X2087235Y198626D01*
X2085669Y196514D01*
X2083903Y194566D01*
X2081956Y192801D01*
X2079844Y191235D01*
X2077589Y189883D01*
X2075212Y188759D01*
X2072737Y187873D01*
X2070187Y187235D01*
X2067586Y186849D01*
X2064960Y186720D01*
X1965839Y186720D01*
X1963214Y186849D01*
X1960613Y187235D01*
X1958063Y187873D01*
X1955588Y188759D01*
X1953211Y189883D01*
X1950956Y191235D01*
X1948844Y192801D01*
X1946896Y194566D01*
X1945131Y196514D01*
X1943565Y198626D01*
X1942213Y200881D01*
X1941089Y203258D01*
X1940203Y205733D01*
X1939565Y208283D01*
X1939179Y210884D01*
X1939050Y213509D01*
X1939050Y345131D01*
X1939179Y347756D01*
X1939565Y350357D01*
X1940203Y352907D01*
X1941089Y355382D01*
X1942213Y357759D01*
X1943565Y360014D01*
X1945131Y362126D01*
X1946896Y364073D01*
X1948844Y365839D01*
X1950956Y367405D01*
X1953211Y368757D01*
X1955588Y369881D01*
X1958063Y370766D01*
X1960613Y371405D01*
X1963214Y371791D01*
X1965839Y371920D01*
X2064960Y371920D01*
X2067586Y371791D01*
X2067586Y371791D01*
G37*
D17*
X2015400Y279320D03*
D16*
G36*
X1770086Y371791D02*
G01*
X1772687Y371405D01*
X1775237Y370766D01*
X1777712Y369881D01*
X1780089Y368757D01*
X1782344Y367405D01*
X1784456Y365839D01*
X1786403Y364073D01*
X1788169Y362126D01*
X1789735Y360014D01*
X1791087Y357759D01*
X1792211Y355382D01*
X1793096Y352907D01*
X1793735Y350357D01*
X1794121Y347756D01*
X1794250Y345131D01*
X1794250Y213509D01*
X1794121Y210884D01*
X1793735Y208283D01*
X1793096Y205733D01*
X1792211Y203258D01*
X1791087Y200881D01*
X1789735Y198626D01*
X1788169Y196514D01*
X1786403Y194566D01*
X1784456Y192801D01*
X1782344Y191235D01*
X1780089Y189883D01*
X1777712Y188759D01*
X1775237Y187873D01*
X1772687Y187235D01*
X1770086Y186849D01*
X1767460Y186720D01*
X1668339Y186720D01*
X1665714Y186849D01*
X1663113Y187235D01*
X1660563Y187873D01*
X1658088Y188759D01*
X1655711Y189883D01*
X1653456Y191235D01*
X1651344Y192801D01*
X1649396Y194566D01*
X1647631Y196514D01*
X1646065Y198626D01*
X1644713Y200881D01*
X1643589Y203258D01*
X1642703Y205733D01*
X1642065Y208283D01*
X1641679Y210884D01*
X1641550Y213509D01*
X1641550Y345131D01*
X1641679Y347756D01*
X1642065Y350357D01*
X1642703Y352907D01*
X1643589Y355382D01*
X1644713Y357759D01*
X1646065Y360014D01*
X1647631Y362126D01*
X1649396Y364073D01*
X1651344Y365839D01*
X1653456Y367405D01*
X1655711Y368757D01*
X1658088Y369881D01*
X1660563Y370766D01*
X1663113Y371405D01*
X1665714Y371791D01*
X1668339Y371920D01*
X1767460Y371920D01*
X1770086Y371791D01*
X1770086Y371791D01*
G37*
D17*
X1717900Y279320D03*
D16*
G36*
X2067586Y600391D02*
G01*
X2070187Y600005D01*
X2072737Y599367D01*
X2075212Y598481D01*
X2077589Y597357D01*
X2079844Y596005D01*
X2081956Y594439D01*
X2083903Y592674D01*
X2085669Y590726D01*
X2087235Y588614D01*
X2088587Y586359D01*
X2089711Y583982D01*
X2090596Y581507D01*
X2091235Y578957D01*
X2091621Y576356D01*
X2091750Y573731D01*
X2091750Y442109D01*
X2091621Y439484D01*
X2091235Y436883D01*
X2090596Y434333D01*
X2089711Y431858D01*
X2088587Y429481D01*
X2087235Y427226D01*
X2085669Y425114D01*
X2083903Y423166D01*
X2081956Y421401D01*
X2079844Y419835D01*
X2077589Y418483D01*
X2075212Y417359D01*
X2072737Y416473D01*
X2070187Y415835D01*
X2067586Y415449D01*
X2064960Y415320D01*
X1965839Y415320D01*
X1963214Y415449D01*
X1960613Y415835D01*
X1958063Y416473D01*
X1955588Y417359D01*
X1953211Y418483D01*
X1950956Y419835D01*
X1948844Y421401D01*
X1946896Y423166D01*
X1945131Y425114D01*
X1943565Y427226D01*
X1942213Y429481D01*
X1941089Y431858D01*
X1940203Y434333D01*
X1939565Y436883D01*
X1939179Y439484D01*
X1939050Y442109D01*
X1939050Y573731D01*
X1939179Y576356D01*
X1939565Y578957D01*
X1940203Y581507D01*
X1941089Y583982D01*
X1942213Y586359D01*
X1943565Y588614D01*
X1945131Y590726D01*
X1946896Y592674D01*
X1948844Y594439D01*
X1950956Y596005D01*
X1953211Y597357D01*
X1955588Y598481D01*
X1958063Y599367D01*
X1960613Y600005D01*
X1963214Y600391D01*
X1965839Y600520D01*
X2064960Y600520D01*
X2067586Y600391D01*
X2067586Y600391D01*
G37*
D17*
X2015400Y507920D03*
D16*
G36*
X1770086Y600391D02*
G01*
X1772687Y600005D01*
X1775237Y599367D01*
X1777712Y598481D01*
X1780089Y597357D01*
X1782344Y596005D01*
X1784456Y594439D01*
X1786403Y592674D01*
X1788169Y590726D01*
X1789735Y588614D01*
X1791087Y586359D01*
X1792211Y583982D01*
X1793096Y581507D01*
X1793735Y578957D01*
X1794121Y576356D01*
X1794250Y573731D01*
X1794250Y442109D01*
X1794121Y439484D01*
X1793735Y436883D01*
X1793096Y434333D01*
X1792211Y431858D01*
X1791087Y429481D01*
X1789735Y427226D01*
X1788169Y425114D01*
X1786403Y423166D01*
X1784456Y421401D01*
X1782344Y419835D01*
X1780089Y418483D01*
X1777712Y417359D01*
X1775237Y416473D01*
X1772687Y415835D01*
X1770086Y415449D01*
X1767460Y415320D01*
X1668339Y415320D01*
X1665714Y415449D01*
X1663113Y415835D01*
X1660563Y416473D01*
X1658088Y417359D01*
X1655711Y418483D01*
X1653456Y419835D01*
X1651344Y421401D01*
X1649396Y423166D01*
X1647631Y425114D01*
X1646065Y427226D01*
X1644713Y429481D01*
X1643589Y431858D01*
X1642703Y434333D01*
X1642065Y436883D01*
X1641679Y439484D01*
X1641550Y442109D01*
X1641550Y573731D01*
X1641679Y576356D01*
X1642065Y578957D01*
X1642703Y581507D01*
X1643589Y583982D01*
X1644713Y586359D01*
X1646065Y588614D01*
X1647631Y590726D01*
X1649396Y592674D01*
X1651344Y594439D01*
X1653456Y596005D01*
X1655711Y597357D01*
X1658088Y598481D01*
X1660563Y599367D01*
X1663113Y600005D01*
X1665714Y600391D01*
X1668339Y600520D01*
X1767460Y600520D01*
X1770086Y600391D01*
X1770086Y600391D01*
G37*
D17*
X1717900Y507920D03*
D35*
X1460000Y2810000D03*
X2240000Y2810000D03*
D36*
X6699000Y3141640D03*
X6699000Y2791640D03*
D37*
X6172280Y1754300D03*
X6045280Y1754300D03*
X5918280Y1754300D03*
X5791280Y1754300D03*
X5791280Y2294300D03*
X5918280Y2294300D03*
X6045280Y2294300D03*
X6172280Y2294300D03*
D38*
X7300000Y400000D03*
M02*
