G04 #@! TF.GenerationSoftware,KiCad,Pcbnew,(5.1.0)-1*
G04 #@! TF.CreationDate,2022-02-28T18:41:10-08:00*
G04 #@! TF.ProjectId,1602A_LCD-RTC  Backpack,31363032-415f-44c4-9344-2d5254432020,rev?*
G04 #@! TF.SameCoordinates,PX660b0c0PY66ff300*
G04 #@! TF.FileFunction,Paste,Bot*
G04 #@! TF.FilePolarity,Positive*
%FSLAX45Y45*%
G04 Gerber Fmt 4.5, Leading zero omitted, Abs format (unit mm)*
G04 Created by KiCad (PCBNEW (5.1.0)-1) date 2022-02-28 18:41:10*
%MOMM*%
%LPD*%
G04 APERTURE LIST*
%ADD10C,0.100000*%
%ADD11C,1.425000*%
%ADD12C,1.325000*%
%ADD13R,3.300000X3.300000*%
%ADD14R,1.200000X2.200000*%
%ADD15R,2.750000X3.050000*%
%ADD16C,1.150000*%
%ADD17R,0.600000X1.500000*%
%ADD18R,2.500000X1.800000*%
%ADD19R,0.900000X0.800000*%
%ADD20C,0.550000*%
%ADD21R,1.150000X1.000000*%
%ADD22R,1.500000X1.500000*%
%ADD23R,1.700000X1.300000*%
%ADD24R,0.600000X1.550000*%
G04 APERTURE END LIST*
D10*
G36*
X4422860Y3095080D02*
G01*
X4425287Y3094720D01*
X4427667Y3094123D01*
X4429977Y3093297D01*
X4432195Y3092248D01*
X4434299Y3090987D01*
X4436270Y3089525D01*
X4438088Y3087878D01*
X4439735Y3086060D01*
X4441197Y3084089D01*
X4442458Y3081985D01*
X4443507Y3079767D01*
X4444334Y3077457D01*
X4444930Y3075077D01*
X4445290Y3072650D01*
X4445410Y3070200D01*
X4445410Y2977700D01*
X4445290Y2975250D01*
X4444930Y2972823D01*
X4444334Y2970443D01*
X4443507Y2968133D01*
X4442458Y2965915D01*
X4441197Y2963811D01*
X4439735Y2961840D01*
X4438088Y2960022D01*
X4436270Y2958375D01*
X4434299Y2956913D01*
X4432195Y2955652D01*
X4429977Y2954603D01*
X4427667Y2953776D01*
X4425287Y2953180D01*
X4422860Y2952820D01*
X4420410Y2952700D01*
X4295410Y2952700D01*
X4292960Y2952820D01*
X4290533Y2953180D01*
X4288153Y2953776D01*
X4285843Y2954603D01*
X4283625Y2955652D01*
X4281521Y2956913D01*
X4279550Y2958375D01*
X4277732Y2960022D01*
X4276085Y2961840D01*
X4274623Y2963811D01*
X4273362Y2965915D01*
X4272313Y2968133D01*
X4271487Y2970443D01*
X4270890Y2972823D01*
X4270530Y2975250D01*
X4270410Y2977700D01*
X4270410Y3070200D01*
X4270530Y3072650D01*
X4270890Y3075077D01*
X4271487Y3077457D01*
X4272313Y3079767D01*
X4273362Y3081985D01*
X4274623Y3084089D01*
X4276085Y3086060D01*
X4277732Y3087878D01*
X4279550Y3089525D01*
X4281521Y3090987D01*
X4283625Y3092248D01*
X4285843Y3093297D01*
X4288153Y3094123D01*
X4290533Y3094720D01*
X4292960Y3095080D01*
X4295410Y3095200D01*
X4420410Y3095200D01*
X4422860Y3095080D01*
X4422860Y3095080D01*
G37*
D11*
X4357910Y3023950D03*
D10*
G36*
X4422860Y2797580D02*
G01*
X4425287Y2797220D01*
X4427667Y2796623D01*
X4429977Y2795797D01*
X4432195Y2794748D01*
X4434299Y2793487D01*
X4436270Y2792025D01*
X4438088Y2790378D01*
X4439735Y2788560D01*
X4441197Y2786589D01*
X4442458Y2784485D01*
X4443507Y2782267D01*
X4444334Y2779957D01*
X4444930Y2777577D01*
X4445290Y2775150D01*
X4445410Y2772700D01*
X4445410Y2680200D01*
X4445290Y2677750D01*
X4444930Y2675323D01*
X4444334Y2672943D01*
X4443507Y2670633D01*
X4442458Y2668415D01*
X4441197Y2666311D01*
X4439735Y2664340D01*
X4438088Y2662522D01*
X4436270Y2660875D01*
X4434299Y2659413D01*
X4432195Y2658152D01*
X4429977Y2657103D01*
X4427667Y2656277D01*
X4425287Y2655680D01*
X4422860Y2655320D01*
X4420410Y2655200D01*
X4295410Y2655200D01*
X4292960Y2655320D01*
X4290533Y2655680D01*
X4288153Y2656277D01*
X4285843Y2657103D01*
X4283625Y2658152D01*
X4281521Y2659413D01*
X4279550Y2660875D01*
X4277732Y2662522D01*
X4276085Y2664340D01*
X4274623Y2666311D01*
X4273362Y2668415D01*
X4272313Y2670633D01*
X4271487Y2672943D01*
X4270890Y2675323D01*
X4270530Y2677750D01*
X4270410Y2680200D01*
X4270410Y2772700D01*
X4270530Y2775150D01*
X4270890Y2777577D01*
X4271487Y2779957D01*
X4272313Y2782267D01*
X4273362Y2784485D01*
X4274623Y2786589D01*
X4276085Y2788560D01*
X4277732Y2790378D01*
X4279550Y2792025D01*
X4281521Y2793487D01*
X4283625Y2794748D01*
X4285843Y2795797D01*
X4288153Y2796623D01*
X4290533Y2797220D01*
X4292960Y2797580D01*
X4295410Y2797700D01*
X4420410Y2797700D01*
X4422860Y2797580D01*
X4422860Y2797580D01*
G37*
D11*
X4357910Y2726450D03*
D10*
G36*
X1257651Y1933400D02*
G01*
X1260077Y1933040D01*
X1262457Y1932443D01*
X1264767Y1931617D01*
X1266985Y1930568D01*
X1269089Y1929307D01*
X1271060Y1927845D01*
X1272878Y1926198D01*
X1274525Y1924380D01*
X1275987Y1922409D01*
X1277248Y1920305D01*
X1278297Y1918087D01*
X1279124Y1915777D01*
X1279720Y1913397D01*
X1280080Y1910970D01*
X1280200Y1908520D01*
X1280200Y1723520D01*
X1280080Y1721069D01*
X1279720Y1718643D01*
X1279124Y1716263D01*
X1278297Y1713953D01*
X1277248Y1711735D01*
X1275987Y1709631D01*
X1274525Y1707660D01*
X1272878Y1705842D01*
X1271060Y1704195D01*
X1269089Y1702733D01*
X1266985Y1701472D01*
X1264767Y1700423D01*
X1262457Y1699596D01*
X1260077Y1699000D01*
X1257651Y1698640D01*
X1255200Y1698520D01*
X1172700Y1698520D01*
X1170250Y1698640D01*
X1167823Y1699000D01*
X1165443Y1699596D01*
X1163133Y1700423D01*
X1160915Y1701472D01*
X1158811Y1702733D01*
X1156840Y1704195D01*
X1155022Y1705842D01*
X1153375Y1707660D01*
X1151913Y1709631D01*
X1150652Y1711735D01*
X1149603Y1713953D01*
X1148777Y1716263D01*
X1148180Y1718643D01*
X1147820Y1721069D01*
X1147700Y1723520D01*
X1147700Y1908520D01*
X1147820Y1910970D01*
X1148180Y1913397D01*
X1148777Y1915777D01*
X1149603Y1918087D01*
X1150652Y1920305D01*
X1151913Y1922409D01*
X1153375Y1924380D01*
X1155022Y1926198D01*
X1156840Y1927845D01*
X1158811Y1929307D01*
X1160915Y1930568D01*
X1163133Y1931617D01*
X1165443Y1932443D01*
X1167823Y1933040D01*
X1170250Y1933400D01*
X1172700Y1933520D01*
X1255200Y1933520D01*
X1257651Y1933400D01*
X1257651Y1933400D01*
G37*
D12*
X1213950Y1816020D03*
D10*
G36*
X950150Y1933400D02*
G01*
X952577Y1933040D01*
X954957Y1932443D01*
X957267Y1931617D01*
X959485Y1930568D01*
X961589Y1929307D01*
X963560Y1927845D01*
X965378Y1926198D01*
X967025Y1924380D01*
X968487Y1922409D01*
X969748Y1920305D01*
X970797Y1918087D01*
X971623Y1915777D01*
X972220Y1913397D01*
X972580Y1910970D01*
X972700Y1908520D01*
X972700Y1723520D01*
X972580Y1721069D01*
X972220Y1718643D01*
X971623Y1716263D01*
X970797Y1713953D01*
X969748Y1711735D01*
X968487Y1709631D01*
X967025Y1707660D01*
X965378Y1705842D01*
X963560Y1704195D01*
X961589Y1702733D01*
X959485Y1701472D01*
X957267Y1700423D01*
X954957Y1699596D01*
X952577Y1699000D01*
X950150Y1698640D01*
X947700Y1698520D01*
X865200Y1698520D01*
X862749Y1698640D01*
X860323Y1699000D01*
X857943Y1699596D01*
X855633Y1700423D01*
X853415Y1701472D01*
X851311Y1702733D01*
X849340Y1704195D01*
X847522Y1705842D01*
X845875Y1707660D01*
X844413Y1709631D01*
X843152Y1711735D01*
X842103Y1713953D01*
X841276Y1716263D01*
X840680Y1718643D01*
X840320Y1721069D01*
X840200Y1723520D01*
X840200Y1908520D01*
X840320Y1910970D01*
X840680Y1913397D01*
X841276Y1915777D01*
X842103Y1918087D01*
X843152Y1920305D01*
X844413Y1922409D01*
X845875Y1924380D01*
X847522Y1926198D01*
X849340Y1927845D01*
X851311Y1929307D01*
X853415Y1930568D01*
X855633Y1931617D01*
X857943Y1932443D01*
X860323Y1933040D01*
X862749Y1933400D01*
X865200Y1933520D01*
X947700Y1933520D01*
X950150Y1933400D01*
X950150Y1933400D01*
G37*
D12*
X906450Y1816020D03*
D13*
X7306060Y2593320D03*
X7306060Y1013320D03*
D14*
X1434250Y664500D03*
X978250Y664500D03*
D15*
X1053750Y1462000D03*
X1358750Y1127000D03*
X1358750Y1462000D03*
X1053750Y1127000D03*
D10*
G36*
X5387551Y2971580D02*
G01*
X5389977Y2971220D01*
X5392357Y2970623D01*
X5394667Y2969797D01*
X5396885Y2968748D01*
X5398989Y2967487D01*
X5400960Y2966025D01*
X5402778Y2964378D01*
X5404425Y2962560D01*
X5405887Y2960589D01*
X5407148Y2958485D01*
X5408197Y2956267D01*
X5409024Y2953957D01*
X5409620Y2951577D01*
X5409980Y2949150D01*
X5410100Y2946700D01*
X5410100Y2881700D01*
X5409980Y2879249D01*
X5409620Y2876823D01*
X5409024Y2874443D01*
X5408197Y2872133D01*
X5407148Y2869915D01*
X5405887Y2867811D01*
X5404425Y2865840D01*
X5402778Y2864022D01*
X5400960Y2862375D01*
X5398989Y2860913D01*
X5396885Y2859652D01*
X5394667Y2858603D01*
X5392357Y2857776D01*
X5389977Y2857180D01*
X5387551Y2856820D01*
X5385100Y2856700D01*
X5295100Y2856700D01*
X5292650Y2856820D01*
X5290223Y2857180D01*
X5287843Y2857776D01*
X5285533Y2858603D01*
X5283315Y2859652D01*
X5281211Y2860913D01*
X5279240Y2862375D01*
X5277422Y2864022D01*
X5275775Y2865840D01*
X5274313Y2867811D01*
X5273052Y2869915D01*
X5272003Y2872133D01*
X5271177Y2874443D01*
X5270580Y2876823D01*
X5270220Y2879249D01*
X5270100Y2881700D01*
X5270100Y2946700D01*
X5270220Y2949150D01*
X5270580Y2951577D01*
X5271177Y2953957D01*
X5272003Y2956267D01*
X5273052Y2958485D01*
X5274313Y2960589D01*
X5275775Y2962560D01*
X5277422Y2964378D01*
X5279240Y2966025D01*
X5281211Y2967487D01*
X5283315Y2968748D01*
X5285533Y2969797D01*
X5287843Y2970623D01*
X5290223Y2971220D01*
X5292650Y2971580D01*
X5295100Y2971700D01*
X5385100Y2971700D01*
X5387551Y2971580D01*
X5387551Y2971580D01*
G37*
D16*
X5340100Y2914200D03*
D10*
G36*
X5387551Y2766580D02*
G01*
X5389977Y2766220D01*
X5392357Y2765624D01*
X5394667Y2764797D01*
X5396885Y2763748D01*
X5398989Y2762487D01*
X5400960Y2761025D01*
X5402778Y2759378D01*
X5404425Y2757560D01*
X5405887Y2755589D01*
X5407148Y2753485D01*
X5408197Y2751267D01*
X5409024Y2748957D01*
X5409620Y2746577D01*
X5409980Y2744151D01*
X5410100Y2741700D01*
X5410100Y2676700D01*
X5409980Y2674250D01*
X5409620Y2671823D01*
X5409024Y2669443D01*
X5408197Y2667133D01*
X5407148Y2664915D01*
X5405887Y2662811D01*
X5404425Y2660840D01*
X5402778Y2659022D01*
X5400960Y2657375D01*
X5398989Y2655913D01*
X5396885Y2654652D01*
X5394667Y2653603D01*
X5392357Y2652777D01*
X5389977Y2652180D01*
X5387551Y2651820D01*
X5385100Y2651700D01*
X5295100Y2651700D01*
X5292650Y2651820D01*
X5290223Y2652180D01*
X5287843Y2652777D01*
X5285533Y2653603D01*
X5283315Y2654652D01*
X5281211Y2655913D01*
X5279240Y2657375D01*
X5277422Y2659022D01*
X5275775Y2660840D01*
X5274313Y2662811D01*
X5273052Y2664915D01*
X5272003Y2667133D01*
X5271177Y2669443D01*
X5270580Y2671823D01*
X5270220Y2674250D01*
X5270100Y2676700D01*
X5270100Y2741700D01*
X5270220Y2744151D01*
X5270580Y2746577D01*
X5271177Y2748957D01*
X5272003Y2751267D01*
X5273052Y2753485D01*
X5274313Y2755589D01*
X5275775Y2757560D01*
X5277422Y2759378D01*
X5279240Y2761025D01*
X5281211Y2762487D01*
X5283315Y2763748D01*
X5285533Y2764797D01*
X5287843Y2765624D01*
X5290223Y2766220D01*
X5292650Y2766580D01*
X5295100Y2766700D01*
X5385100Y2766700D01*
X5387551Y2766580D01*
X5387551Y2766580D01*
G37*
D16*
X5340100Y2709200D03*
D10*
G36*
X5194981Y2766580D02*
G01*
X5197407Y2766220D01*
X5199787Y2765624D01*
X5202097Y2764797D01*
X5204315Y2763748D01*
X5206419Y2762487D01*
X5208390Y2761025D01*
X5210208Y2759378D01*
X5211855Y2757560D01*
X5213317Y2755589D01*
X5214578Y2753485D01*
X5215627Y2751267D01*
X5216454Y2748957D01*
X5217050Y2746577D01*
X5217410Y2744151D01*
X5217530Y2741700D01*
X5217530Y2676700D01*
X5217410Y2674250D01*
X5217050Y2671823D01*
X5216454Y2669443D01*
X5215627Y2667133D01*
X5214578Y2664915D01*
X5213317Y2662811D01*
X5211855Y2660840D01*
X5210208Y2659022D01*
X5208390Y2657375D01*
X5206419Y2655913D01*
X5204315Y2654652D01*
X5202097Y2653603D01*
X5199787Y2652777D01*
X5197407Y2652180D01*
X5194981Y2651820D01*
X5192530Y2651700D01*
X5102530Y2651700D01*
X5100080Y2651820D01*
X5097653Y2652180D01*
X5095273Y2652777D01*
X5092963Y2653603D01*
X5090745Y2654652D01*
X5088641Y2655913D01*
X5086670Y2657375D01*
X5084852Y2659022D01*
X5083205Y2660840D01*
X5081743Y2662811D01*
X5080482Y2664915D01*
X5079433Y2667133D01*
X5078607Y2669443D01*
X5078010Y2671823D01*
X5077650Y2674250D01*
X5077530Y2676700D01*
X5077530Y2741700D01*
X5077650Y2744151D01*
X5078010Y2746577D01*
X5078607Y2748957D01*
X5079433Y2751267D01*
X5080482Y2753485D01*
X5081743Y2755589D01*
X5083205Y2757560D01*
X5084852Y2759378D01*
X5086670Y2761025D01*
X5088641Y2762487D01*
X5090745Y2763748D01*
X5092963Y2764797D01*
X5095273Y2765624D01*
X5097653Y2766220D01*
X5100080Y2766580D01*
X5102530Y2766700D01*
X5192530Y2766700D01*
X5194981Y2766580D01*
X5194981Y2766580D01*
G37*
D16*
X5147530Y2709200D03*
D10*
G36*
X5194981Y2971580D02*
G01*
X5197407Y2971220D01*
X5199787Y2970623D01*
X5202097Y2969797D01*
X5204315Y2968748D01*
X5206419Y2967487D01*
X5208390Y2966025D01*
X5210208Y2964378D01*
X5211855Y2962560D01*
X5213317Y2960589D01*
X5214578Y2958485D01*
X5215627Y2956267D01*
X5216454Y2953957D01*
X5217050Y2951577D01*
X5217410Y2949150D01*
X5217530Y2946700D01*
X5217530Y2881700D01*
X5217410Y2879249D01*
X5217050Y2876823D01*
X5216454Y2874443D01*
X5215627Y2872133D01*
X5214578Y2869915D01*
X5213317Y2867811D01*
X5211855Y2865840D01*
X5210208Y2864022D01*
X5208390Y2862375D01*
X5206419Y2860913D01*
X5204315Y2859652D01*
X5202097Y2858603D01*
X5199787Y2857776D01*
X5197407Y2857180D01*
X5194981Y2856820D01*
X5192530Y2856700D01*
X5102530Y2856700D01*
X5100080Y2856820D01*
X5097653Y2857180D01*
X5095273Y2857776D01*
X5092963Y2858603D01*
X5090745Y2859652D01*
X5088641Y2860913D01*
X5086670Y2862375D01*
X5084852Y2864022D01*
X5083205Y2865840D01*
X5081743Y2867811D01*
X5080482Y2869915D01*
X5079433Y2872133D01*
X5078607Y2874443D01*
X5078010Y2876823D01*
X5077650Y2879249D01*
X5077530Y2881700D01*
X5077530Y2946700D01*
X5077650Y2949150D01*
X5078010Y2951577D01*
X5078607Y2953957D01*
X5079433Y2956267D01*
X5080482Y2958485D01*
X5081743Y2960589D01*
X5083205Y2962560D01*
X5084852Y2964378D01*
X5086670Y2966025D01*
X5088641Y2967487D01*
X5090745Y2968748D01*
X5092963Y2969797D01*
X5095273Y2970623D01*
X5097653Y2971220D01*
X5100080Y2971580D01*
X5102530Y2971700D01*
X5192530Y2971700D01*
X5194981Y2971580D01*
X5194981Y2971580D01*
G37*
D16*
X5147530Y2914200D03*
D10*
G36*
X4893331Y2766580D02*
G01*
X4895757Y2766220D01*
X4898137Y2765624D01*
X4900447Y2764797D01*
X4902665Y2763748D01*
X4904769Y2762487D01*
X4906740Y2761025D01*
X4908558Y2759378D01*
X4910205Y2757560D01*
X4911667Y2755589D01*
X4912928Y2753485D01*
X4913977Y2751267D01*
X4914804Y2748957D01*
X4915400Y2746577D01*
X4915760Y2744151D01*
X4915880Y2741700D01*
X4915880Y2676700D01*
X4915760Y2674250D01*
X4915400Y2671823D01*
X4914804Y2669443D01*
X4913977Y2667133D01*
X4912928Y2664915D01*
X4911667Y2662811D01*
X4910205Y2660840D01*
X4908558Y2659022D01*
X4906740Y2657375D01*
X4904769Y2655913D01*
X4902665Y2654652D01*
X4900447Y2653603D01*
X4898137Y2652777D01*
X4895757Y2652180D01*
X4893331Y2651820D01*
X4890880Y2651700D01*
X4800880Y2651700D01*
X4798430Y2651820D01*
X4796003Y2652180D01*
X4793623Y2652777D01*
X4791313Y2653603D01*
X4789095Y2654652D01*
X4786991Y2655913D01*
X4785020Y2657375D01*
X4783202Y2659022D01*
X4781555Y2660840D01*
X4780093Y2662811D01*
X4778832Y2664915D01*
X4777783Y2667133D01*
X4776957Y2669443D01*
X4776360Y2671823D01*
X4776000Y2674250D01*
X4775880Y2676700D01*
X4775880Y2741700D01*
X4776000Y2744151D01*
X4776360Y2746577D01*
X4776957Y2748957D01*
X4777783Y2751267D01*
X4778832Y2753485D01*
X4780093Y2755589D01*
X4781555Y2757560D01*
X4783202Y2759378D01*
X4785020Y2761025D01*
X4786991Y2762487D01*
X4789095Y2763748D01*
X4791313Y2764797D01*
X4793623Y2765624D01*
X4796003Y2766220D01*
X4798430Y2766580D01*
X4800880Y2766700D01*
X4890880Y2766700D01*
X4893331Y2766580D01*
X4893331Y2766580D01*
G37*
D16*
X4845880Y2709200D03*
D10*
G36*
X4893331Y2971580D02*
G01*
X4895757Y2971220D01*
X4898137Y2970623D01*
X4900447Y2969797D01*
X4902665Y2968748D01*
X4904769Y2967487D01*
X4906740Y2966025D01*
X4908558Y2964378D01*
X4910205Y2962560D01*
X4911667Y2960589D01*
X4912928Y2958485D01*
X4913977Y2956267D01*
X4914804Y2953957D01*
X4915400Y2951577D01*
X4915760Y2949150D01*
X4915880Y2946700D01*
X4915880Y2881700D01*
X4915760Y2879249D01*
X4915400Y2876823D01*
X4914804Y2874443D01*
X4913977Y2872133D01*
X4912928Y2869915D01*
X4911667Y2867811D01*
X4910205Y2865840D01*
X4908558Y2864022D01*
X4906740Y2862375D01*
X4904769Y2860913D01*
X4902665Y2859652D01*
X4900447Y2858603D01*
X4898137Y2857776D01*
X4895757Y2857180D01*
X4893331Y2856820D01*
X4890880Y2856700D01*
X4800880Y2856700D01*
X4798430Y2856820D01*
X4796003Y2857180D01*
X4793623Y2857776D01*
X4791313Y2858603D01*
X4789095Y2859652D01*
X4786991Y2860913D01*
X4785020Y2862375D01*
X4783202Y2864022D01*
X4781555Y2865840D01*
X4780093Y2867811D01*
X4778832Y2869915D01*
X4777783Y2872133D01*
X4776957Y2874443D01*
X4776360Y2876823D01*
X4776000Y2879249D01*
X4775880Y2881700D01*
X4775880Y2946700D01*
X4776000Y2949150D01*
X4776360Y2951577D01*
X4776957Y2953957D01*
X4777783Y2956267D01*
X4778832Y2958485D01*
X4780093Y2960589D01*
X4781555Y2962560D01*
X4783202Y2964378D01*
X4785020Y2966025D01*
X4786991Y2967487D01*
X4789095Y2968748D01*
X4791313Y2969797D01*
X4793623Y2970623D01*
X4796003Y2971220D01*
X4798430Y2971580D01*
X4800880Y2971700D01*
X4890880Y2971700D01*
X4893331Y2971580D01*
X4893331Y2971580D01*
G37*
D16*
X4845880Y2914200D03*
D10*
G36*
X4702031Y2766580D02*
G01*
X4704457Y2766220D01*
X4706837Y2765624D01*
X4709147Y2764797D01*
X4711365Y2763748D01*
X4713469Y2762487D01*
X4715440Y2761025D01*
X4717258Y2759378D01*
X4718905Y2757560D01*
X4720367Y2755589D01*
X4721628Y2753485D01*
X4722677Y2751267D01*
X4723504Y2748957D01*
X4724100Y2746577D01*
X4724460Y2744151D01*
X4724580Y2741700D01*
X4724580Y2676700D01*
X4724460Y2674250D01*
X4724100Y2671823D01*
X4723504Y2669443D01*
X4722677Y2667133D01*
X4721628Y2664915D01*
X4720367Y2662811D01*
X4718905Y2660840D01*
X4717258Y2659022D01*
X4715440Y2657375D01*
X4713469Y2655913D01*
X4711365Y2654652D01*
X4709147Y2653603D01*
X4706837Y2652777D01*
X4704457Y2652180D01*
X4702031Y2651820D01*
X4699580Y2651700D01*
X4609580Y2651700D01*
X4607130Y2651820D01*
X4604703Y2652180D01*
X4602323Y2652777D01*
X4600013Y2653603D01*
X4597795Y2654652D01*
X4595691Y2655913D01*
X4593720Y2657375D01*
X4591902Y2659022D01*
X4590255Y2660840D01*
X4588793Y2662811D01*
X4587532Y2664915D01*
X4586483Y2667133D01*
X4585657Y2669443D01*
X4585060Y2671823D01*
X4584700Y2674250D01*
X4584580Y2676700D01*
X4584580Y2741700D01*
X4584700Y2744151D01*
X4585060Y2746577D01*
X4585657Y2748957D01*
X4586483Y2751267D01*
X4587532Y2753485D01*
X4588793Y2755589D01*
X4590255Y2757560D01*
X4591902Y2759378D01*
X4593720Y2761025D01*
X4595691Y2762487D01*
X4597795Y2763748D01*
X4600013Y2764797D01*
X4602323Y2765624D01*
X4604703Y2766220D01*
X4607130Y2766580D01*
X4609580Y2766700D01*
X4699580Y2766700D01*
X4702031Y2766580D01*
X4702031Y2766580D01*
G37*
D16*
X4654580Y2709200D03*
D10*
G36*
X4702031Y2971580D02*
G01*
X4704457Y2971220D01*
X4706837Y2970623D01*
X4709147Y2969797D01*
X4711365Y2968748D01*
X4713469Y2967487D01*
X4715440Y2966025D01*
X4717258Y2964378D01*
X4718905Y2962560D01*
X4720367Y2960589D01*
X4721628Y2958485D01*
X4722677Y2956267D01*
X4723504Y2953957D01*
X4724100Y2951577D01*
X4724460Y2949150D01*
X4724580Y2946700D01*
X4724580Y2881700D01*
X4724460Y2879249D01*
X4724100Y2876823D01*
X4723504Y2874443D01*
X4722677Y2872133D01*
X4721628Y2869915D01*
X4720367Y2867811D01*
X4718905Y2865840D01*
X4717258Y2864022D01*
X4715440Y2862375D01*
X4713469Y2860913D01*
X4711365Y2859652D01*
X4709147Y2858603D01*
X4706837Y2857776D01*
X4704457Y2857180D01*
X4702031Y2856820D01*
X4699580Y2856700D01*
X4609580Y2856700D01*
X4607130Y2856820D01*
X4604703Y2857180D01*
X4602323Y2857776D01*
X4600013Y2858603D01*
X4597795Y2859652D01*
X4595691Y2860913D01*
X4593720Y2862375D01*
X4591902Y2864022D01*
X4590255Y2865840D01*
X4588793Y2867811D01*
X4587532Y2869915D01*
X4586483Y2872133D01*
X4585657Y2874443D01*
X4585060Y2876823D01*
X4584700Y2879249D01*
X4584580Y2881700D01*
X4584580Y2946700D01*
X4584700Y2949150D01*
X4585060Y2951577D01*
X4585657Y2953957D01*
X4586483Y2956267D01*
X4587532Y2958485D01*
X4588793Y2960589D01*
X4590255Y2962560D01*
X4591902Y2964378D01*
X4593720Y2966025D01*
X4595691Y2967487D01*
X4597795Y2968748D01*
X4600013Y2969797D01*
X4602323Y2970623D01*
X4604703Y2971220D01*
X4607130Y2971580D01*
X4609580Y2971700D01*
X4699580Y2971700D01*
X4702031Y2971580D01*
X4702031Y2971580D01*
G37*
D16*
X4654580Y2914200D03*
D17*
X5340100Y1505960D03*
X5213100Y1505960D03*
X5086100Y1505960D03*
X4959100Y1505960D03*
X4832100Y1505960D03*
X4705100Y1505960D03*
X4578100Y1505960D03*
X4451100Y1505960D03*
X4451100Y2435960D03*
X4578100Y2435960D03*
X4705100Y2435960D03*
X4832100Y2435960D03*
X4959100Y2435960D03*
X5086100Y2435960D03*
X5213100Y2435960D03*
X5340100Y2435960D03*
D10*
G36*
X2213131Y1472879D02*
G01*
X2215558Y1472519D01*
X2217938Y1471923D01*
X2220247Y1471096D01*
X2222465Y1470047D01*
X2224570Y1468786D01*
X2226540Y1467324D01*
X2228358Y1465677D01*
X2274320Y1419715D01*
X2275968Y1417897D01*
X2277429Y1415926D01*
X2278690Y1413822D01*
X2279739Y1411604D01*
X2280566Y1409294D01*
X2281162Y1406914D01*
X2281522Y1404488D01*
X2281642Y1402037D01*
X2281522Y1399587D01*
X2281162Y1397160D01*
X2280566Y1394780D01*
X2279739Y1392470D01*
X2278690Y1390252D01*
X2277429Y1388148D01*
X2275968Y1386177D01*
X2274320Y1384360D01*
X2210680Y1320720D01*
X2208863Y1319072D01*
X2206892Y1317611D01*
X2204788Y1316350D01*
X2202570Y1315301D01*
X2200260Y1314474D01*
X2197880Y1313878D01*
X2195453Y1313518D01*
X2193003Y1313398D01*
X2190552Y1313518D01*
X2188126Y1313878D01*
X2185746Y1314474D01*
X2183436Y1315301D01*
X2181218Y1316350D01*
X2179114Y1317611D01*
X2177143Y1319072D01*
X2175325Y1320720D01*
X2129363Y1366682D01*
X2127716Y1368500D01*
X2126254Y1370470D01*
X2124993Y1372575D01*
X2123944Y1374793D01*
X2123117Y1377103D01*
X2122521Y1379482D01*
X2122161Y1381909D01*
X2122041Y1384360D01*
X2122161Y1386810D01*
X2122521Y1389237D01*
X2123117Y1391617D01*
X2123944Y1393927D01*
X2124993Y1396145D01*
X2126254Y1398249D01*
X2127716Y1400219D01*
X2129363Y1402037D01*
X2193003Y1465677D01*
X2194821Y1467324D01*
X2196791Y1468786D01*
X2198896Y1470047D01*
X2201113Y1471096D01*
X2203423Y1471923D01*
X2205803Y1472519D01*
X2208230Y1472879D01*
X2210680Y1472999D01*
X2213131Y1472879D01*
X2213131Y1472879D01*
G37*
D16*
X2201842Y1393198D03*
D10*
G36*
X2358088Y1327922D02*
G01*
X2360514Y1327562D01*
X2362894Y1326966D01*
X2365204Y1326139D01*
X2367422Y1325090D01*
X2369526Y1323829D01*
X2371497Y1322368D01*
X2373315Y1320720D01*
X2419277Y1274758D01*
X2420925Y1272940D01*
X2422386Y1270970D01*
X2423647Y1268865D01*
X2424696Y1266647D01*
X2425523Y1264338D01*
X2426119Y1261958D01*
X2426479Y1259531D01*
X2426599Y1257080D01*
X2426479Y1254630D01*
X2426119Y1252203D01*
X2425523Y1249823D01*
X2424696Y1247513D01*
X2423647Y1245296D01*
X2422386Y1243191D01*
X2420925Y1241221D01*
X2419277Y1239403D01*
X2355637Y1175763D01*
X2353819Y1174116D01*
X2351849Y1172654D01*
X2349745Y1171393D01*
X2347527Y1170344D01*
X2345217Y1169517D01*
X2342837Y1168921D01*
X2340410Y1168561D01*
X2337960Y1168441D01*
X2335509Y1168561D01*
X2333082Y1168921D01*
X2330703Y1169517D01*
X2328393Y1170344D01*
X2326175Y1171393D01*
X2324070Y1172654D01*
X2322100Y1174116D01*
X2320282Y1175763D01*
X2274320Y1221725D01*
X2272672Y1223543D01*
X2271211Y1225514D01*
X2269950Y1227618D01*
X2268901Y1229836D01*
X2268074Y1232146D01*
X2267478Y1234526D01*
X2267118Y1236952D01*
X2266998Y1239403D01*
X2267118Y1241853D01*
X2267478Y1244280D01*
X2268074Y1246660D01*
X2268901Y1248970D01*
X2269950Y1251188D01*
X2271211Y1253292D01*
X2272672Y1255263D01*
X2274320Y1257080D01*
X2337960Y1320720D01*
X2339777Y1322368D01*
X2341748Y1323829D01*
X2343852Y1325090D01*
X2346070Y1326139D01*
X2348380Y1326966D01*
X2350760Y1327562D01*
X2353187Y1327922D01*
X2355637Y1328042D01*
X2358088Y1327922D01*
X2358088Y1327922D01*
G37*
D16*
X2346798Y1248242D03*
D10*
G36*
X1481700Y479840D02*
G01*
X1484127Y479480D01*
X1486507Y478883D01*
X1488817Y478057D01*
X1491035Y477008D01*
X1493139Y475747D01*
X1495110Y474285D01*
X1496928Y472638D01*
X1498575Y470820D01*
X1500037Y468849D01*
X1501298Y466745D01*
X1502347Y464527D01*
X1503173Y462217D01*
X1503770Y459837D01*
X1504130Y457410D01*
X1504250Y454960D01*
X1504250Y389960D01*
X1504130Y387509D01*
X1503770Y385083D01*
X1503173Y382703D01*
X1502347Y380393D01*
X1501298Y378175D01*
X1500037Y376071D01*
X1498575Y374100D01*
X1496928Y372282D01*
X1495110Y370635D01*
X1493139Y369173D01*
X1491035Y367912D01*
X1488817Y366863D01*
X1486507Y366036D01*
X1484127Y365440D01*
X1481700Y365080D01*
X1479250Y364960D01*
X1389250Y364960D01*
X1386800Y365080D01*
X1384373Y365440D01*
X1381993Y366036D01*
X1379683Y366863D01*
X1377465Y367912D01*
X1375361Y369173D01*
X1373390Y370635D01*
X1371572Y372282D01*
X1369925Y374100D01*
X1368463Y376071D01*
X1367202Y378175D01*
X1366153Y380393D01*
X1365327Y382703D01*
X1364730Y385083D01*
X1364370Y387509D01*
X1364250Y389960D01*
X1364250Y454960D01*
X1364370Y457410D01*
X1364730Y459837D01*
X1365327Y462217D01*
X1366153Y464527D01*
X1367202Y466745D01*
X1368463Y468849D01*
X1369925Y470820D01*
X1371572Y472638D01*
X1373390Y474285D01*
X1375361Y475747D01*
X1377465Y477008D01*
X1379683Y478057D01*
X1381993Y478883D01*
X1384373Y479480D01*
X1386800Y479840D01*
X1389250Y479960D01*
X1479250Y479960D01*
X1481700Y479840D01*
X1481700Y479840D01*
G37*
D16*
X1434250Y422460D03*
D10*
G36*
X1481700Y274840D02*
G01*
X1484127Y274480D01*
X1486507Y273884D01*
X1488817Y273057D01*
X1491035Y272008D01*
X1493139Y270747D01*
X1495110Y269285D01*
X1496928Y267638D01*
X1498575Y265820D01*
X1500037Y263849D01*
X1501298Y261745D01*
X1502347Y259527D01*
X1503173Y257217D01*
X1503770Y254837D01*
X1504130Y252410D01*
X1504250Y249960D01*
X1504250Y184960D01*
X1504130Y182509D01*
X1503770Y180083D01*
X1503173Y177703D01*
X1502347Y175393D01*
X1501298Y173175D01*
X1500037Y171071D01*
X1498575Y169100D01*
X1496928Y167282D01*
X1495110Y165635D01*
X1493139Y164173D01*
X1491035Y162912D01*
X1488817Y161863D01*
X1486507Y161037D01*
X1484127Y160440D01*
X1481700Y160080D01*
X1479250Y159960D01*
X1389250Y159960D01*
X1386800Y160080D01*
X1384373Y160440D01*
X1381993Y161037D01*
X1379683Y161863D01*
X1377465Y162912D01*
X1375361Y164173D01*
X1373390Y165635D01*
X1371572Y167282D01*
X1369925Y169100D01*
X1368463Y171071D01*
X1367202Y173175D01*
X1366153Y175393D01*
X1365327Y177703D01*
X1364730Y180083D01*
X1364370Y182509D01*
X1364250Y184960D01*
X1364250Y249960D01*
X1364370Y252410D01*
X1364730Y254837D01*
X1365327Y257217D01*
X1366153Y259527D01*
X1367202Y261745D01*
X1368463Y263849D01*
X1369925Y265820D01*
X1371572Y267638D01*
X1373390Y269285D01*
X1375361Y270747D01*
X1377465Y272008D01*
X1379683Y273057D01*
X1381993Y273884D01*
X1384373Y274480D01*
X1386800Y274840D01*
X1389250Y274960D01*
X1479250Y274960D01*
X1481700Y274840D01*
X1481700Y274840D01*
G37*
D16*
X1434250Y217460D03*
D10*
G36*
X3303070Y2928299D02*
G01*
X3305497Y2927939D01*
X3307877Y2927343D01*
X3310187Y2926516D01*
X3312404Y2925467D01*
X3314509Y2924206D01*
X3316479Y2922744D01*
X3318297Y2921097D01*
X3381937Y2857457D01*
X3383584Y2855639D01*
X3385046Y2853669D01*
X3386307Y2851564D01*
X3387356Y2849347D01*
X3388183Y2847037D01*
X3388779Y2844657D01*
X3389139Y2842230D01*
X3389259Y2839780D01*
X3389139Y2837329D01*
X3388779Y2834902D01*
X3388183Y2832522D01*
X3387356Y2830213D01*
X3386307Y2827995D01*
X3385046Y2825890D01*
X3383584Y2823920D01*
X3381937Y2822102D01*
X3335975Y2776140D01*
X3334157Y2774492D01*
X3332186Y2773031D01*
X3330082Y2771770D01*
X3327864Y2770721D01*
X3325554Y2769894D01*
X3323174Y2769298D01*
X3320748Y2768938D01*
X3318297Y2768818D01*
X3315847Y2768938D01*
X3313420Y2769298D01*
X3311040Y2769894D01*
X3308730Y2770721D01*
X3306512Y2771770D01*
X3304408Y2773031D01*
X3302437Y2774492D01*
X3300620Y2776140D01*
X3236980Y2839780D01*
X3235332Y2841597D01*
X3233871Y2843568D01*
X3232610Y2845672D01*
X3231561Y2847890D01*
X3230734Y2850200D01*
X3230138Y2852580D01*
X3229778Y2855007D01*
X3229658Y2857457D01*
X3229778Y2859908D01*
X3230138Y2862334D01*
X3230734Y2864714D01*
X3231561Y2867024D01*
X3232610Y2869242D01*
X3233871Y2871346D01*
X3235332Y2873317D01*
X3236980Y2875135D01*
X3282942Y2921097D01*
X3284760Y2922744D01*
X3286730Y2924206D01*
X3288835Y2925467D01*
X3291053Y2926516D01*
X3293362Y2927343D01*
X3295742Y2927939D01*
X3298169Y2928299D01*
X3300620Y2928419D01*
X3303070Y2928299D01*
X3303070Y2928299D01*
G37*
D16*
X3309458Y2848618D03*
D10*
G36*
X3158113Y2783342D02*
G01*
X3160540Y2782982D01*
X3162920Y2782386D01*
X3165230Y2781559D01*
X3167448Y2780510D01*
X3169552Y2779249D01*
X3171523Y2777788D01*
X3173340Y2776140D01*
X3236980Y2712500D01*
X3238628Y2710683D01*
X3240089Y2708712D01*
X3241350Y2706608D01*
X3242399Y2704390D01*
X3243226Y2702080D01*
X3243822Y2699700D01*
X3244182Y2697273D01*
X3244302Y2694823D01*
X3244182Y2692372D01*
X3243822Y2689946D01*
X3243226Y2687566D01*
X3242399Y2685256D01*
X3241350Y2683038D01*
X3240089Y2680934D01*
X3238628Y2678963D01*
X3236980Y2677145D01*
X3191018Y2631183D01*
X3189200Y2629536D01*
X3187230Y2628074D01*
X3185125Y2626813D01*
X3182907Y2625764D01*
X3180597Y2624937D01*
X3178218Y2624341D01*
X3175791Y2623981D01*
X3173340Y2623861D01*
X3170890Y2623981D01*
X3168463Y2624341D01*
X3166083Y2624937D01*
X3163773Y2625764D01*
X3161555Y2626813D01*
X3159451Y2628074D01*
X3157481Y2629536D01*
X3155663Y2631183D01*
X3092023Y2694823D01*
X3090375Y2696641D01*
X3088914Y2698611D01*
X3087653Y2700716D01*
X3086604Y2702933D01*
X3085777Y2705243D01*
X3085181Y2707623D01*
X3084821Y2710050D01*
X3084701Y2712500D01*
X3084821Y2714951D01*
X3085181Y2717378D01*
X3085777Y2719758D01*
X3086604Y2722067D01*
X3087653Y2724285D01*
X3088914Y2726390D01*
X3090375Y2728360D01*
X3092023Y2730178D01*
X3137985Y2776140D01*
X3139803Y2777788D01*
X3141774Y2779249D01*
X3143878Y2780510D01*
X3146096Y2781559D01*
X3148406Y2782386D01*
X3150786Y2782982D01*
X3153212Y2783342D01*
X3155663Y2783462D01*
X3158113Y2783342D01*
X3158113Y2783342D01*
G37*
D16*
X3164502Y2703662D03*
D10*
G36*
X3772970Y2488879D02*
G01*
X3775397Y2488519D01*
X3777777Y2487923D01*
X3780087Y2487096D01*
X3782304Y2486047D01*
X3784409Y2484786D01*
X3786379Y2483325D01*
X3788197Y2481677D01*
X3851837Y2418037D01*
X3853484Y2416219D01*
X3854946Y2414249D01*
X3856207Y2412145D01*
X3857256Y2409927D01*
X3858083Y2407617D01*
X3858679Y2405237D01*
X3859039Y2402810D01*
X3859159Y2400360D01*
X3859039Y2397909D01*
X3858679Y2395482D01*
X3858083Y2393103D01*
X3857256Y2390793D01*
X3856207Y2388575D01*
X3854946Y2386470D01*
X3853484Y2384500D01*
X3851837Y2382682D01*
X3805875Y2336720D01*
X3804057Y2335072D01*
X3802086Y2333611D01*
X3799982Y2332350D01*
X3797764Y2331301D01*
X3795454Y2330474D01*
X3793074Y2329878D01*
X3790648Y2329518D01*
X3788197Y2329398D01*
X3785747Y2329518D01*
X3783320Y2329878D01*
X3780940Y2330474D01*
X3778630Y2331301D01*
X3776412Y2332350D01*
X3774308Y2333611D01*
X3772337Y2335072D01*
X3770520Y2336720D01*
X3706880Y2400360D01*
X3705232Y2402177D01*
X3703771Y2404148D01*
X3702510Y2406252D01*
X3701461Y2408470D01*
X3700634Y2410780D01*
X3700038Y2413160D01*
X3699678Y2415587D01*
X3699558Y2418037D01*
X3699678Y2420488D01*
X3700038Y2422914D01*
X3700634Y2425294D01*
X3701461Y2427604D01*
X3702510Y2429822D01*
X3703771Y2431926D01*
X3705232Y2433897D01*
X3706880Y2435715D01*
X3752842Y2481677D01*
X3754660Y2483325D01*
X3756630Y2484786D01*
X3758735Y2486047D01*
X3760953Y2487096D01*
X3763262Y2487923D01*
X3765642Y2488519D01*
X3768069Y2488879D01*
X3770520Y2488999D01*
X3772970Y2488879D01*
X3772970Y2488879D01*
G37*
D16*
X3779358Y2409198D03*
D10*
G36*
X3628013Y2343922D02*
G01*
X3630440Y2343562D01*
X3632820Y2342966D01*
X3635130Y2342139D01*
X3637348Y2341090D01*
X3639452Y2339829D01*
X3641423Y2338368D01*
X3643240Y2336720D01*
X3706880Y2273080D01*
X3708528Y2271263D01*
X3709989Y2269292D01*
X3711250Y2267188D01*
X3712299Y2264970D01*
X3713126Y2262660D01*
X3713722Y2260280D01*
X3714082Y2257853D01*
X3714202Y2255403D01*
X3714082Y2252952D01*
X3713722Y2250526D01*
X3713126Y2248146D01*
X3712299Y2245836D01*
X3711250Y2243618D01*
X3709989Y2241514D01*
X3708528Y2239543D01*
X3706880Y2237725D01*
X3660918Y2191763D01*
X3659100Y2190116D01*
X3657130Y2188654D01*
X3655025Y2187393D01*
X3652807Y2186344D01*
X3650497Y2185517D01*
X3648118Y2184921D01*
X3645691Y2184561D01*
X3643240Y2184441D01*
X3640790Y2184561D01*
X3638363Y2184921D01*
X3635983Y2185517D01*
X3633673Y2186344D01*
X3631455Y2187393D01*
X3629351Y2188654D01*
X3627381Y2190116D01*
X3625563Y2191763D01*
X3561923Y2255403D01*
X3560275Y2257221D01*
X3558814Y2259191D01*
X3557553Y2261296D01*
X3556504Y2263513D01*
X3555677Y2265823D01*
X3555081Y2268203D01*
X3554721Y2270630D01*
X3554601Y2273080D01*
X3554721Y2275531D01*
X3555081Y2277958D01*
X3555677Y2280338D01*
X3556504Y2282647D01*
X3557553Y2284865D01*
X3558814Y2286970D01*
X3560275Y2288940D01*
X3561923Y2290758D01*
X3607885Y2336720D01*
X3609703Y2338368D01*
X3611674Y2339829D01*
X3613778Y2341090D01*
X3615996Y2342139D01*
X3618306Y2342966D01*
X3620686Y2343562D01*
X3623112Y2343922D01*
X3625563Y2344042D01*
X3628013Y2343922D01*
X3628013Y2343922D01*
G37*
D16*
X3634402Y2264242D03*
D10*
G36*
X3648750Y697180D02*
G01*
X3651177Y696820D01*
X3653557Y696224D01*
X3655867Y695397D01*
X3658085Y694348D01*
X3660189Y693087D01*
X3662160Y691625D01*
X3663978Y689978D01*
X3665625Y688160D01*
X3667087Y686189D01*
X3668348Y684085D01*
X3669397Y681867D01*
X3670223Y679557D01*
X3670820Y677177D01*
X3671180Y674751D01*
X3671300Y672300D01*
X3671300Y582300D01*
X3671180Y579850D01*
X3670820Y577423D01*
X3670223Y575043D01*
X3669397Y572733D01*
X3668348Y570515D01*
X3667087Y568411D01*
X3665625Y566440D01*
X3663978Y564622D01*
X3662160Y562975D01*
X3660189Y561513D01*
X3658085Y560252D01*
X3655867Y559203D01*
X3653557Y558377D01*
X3651177Y557780D01*
X3648750Y557420D01*
X3646300Y557300D01*
X3581300Y557300D01*
X3578849Y557420D01*
X3576423Y557780D01*
X3574043Y558377D01*
X3571733Y559203D01*
X3569515Y560252D01*
X3567411Y561513D01*
X3565440Y562975D01*
X3563622Y564622D01*
X3561975Y566440D01*
X3560513Y568411D01*
X3559252Y570515D01*
X3558203Y572733D01*
X3557376Y575043D01*
X3556780Y577423D01*
X3556420Y579850D01*
X3556300Y582300D01*
X3556300Y672300D01*
X3556420Y674751D01*
X3556780Y677177D01*
X3557376Y679557D01*
X3558203Y681867D01*
X3559252Y684085D01*
X3560513Y686189D01*
X3561975Y688160D01*
X3563622Y689978D01*
X3565440Y691625D01*
X3567411Y693087D01*
X3569515Y694348D01*
X3571733Y695397D01*
X3574043Y696224D01*
X3576423Y696820D01*
X3578849Y697180D01*
X3581300Y697300D01*
X3646300Y697300D01*
X3648750Y697180D01*
X3648750Y697180D01*
G37*
D16*
X3613800Y627300D03*
D10*
G36*
X3443750Y697180D02*
G01*
X3446177Y696820D01*
X3448557Y696224D01*
X3450867Y695397D01*
X3453085Y694348D01*
X3455189Y693087D01*
X3457160Y691625D01*
X3458978Y689978D01*
X3460625Y688160D01*
X3462087Y686189D01*
X3463348Y684085D01*
X3464397Y681867D01*
X3465223Y679557D01*
X3465820Y677177D01*
X3466180Y674751D01*
X3466300Y672300D01*
X3466300Y582300D01*
X3466180Y579850D01*
X3465820Y577423D01*
X3465223Y575043D01*
X3464397Y572733D01*
X3463348Y570515D01*
X3462087Y568411D01*
X3460625Y566440D01*
X3458978Y564622D01*
X3457160Y562975D01*
X3455189Y561513D01*
X3453085Y560252D01*
X3450867Y559203D01*
X3448557Y558377D01*
X3446177Y557780D01*
X3443750Y557420D01*
X3441300Y557300D01*
X3376300Y557300D01*
X3373849Y557420D01*
X3371423Y557780D01*
X3369043Y558377D01*
X3366733Y559203D01*
X3364515Y560252D01*
X3362411Y561513D01*
X3360440Y562975D01*
X3358622Y564622D01*
X3356975Y566440D01*
X3355513Y568411D01*
X3354252Y570515D01*
X3353203Y572733D01*
X3352376Y575043D01*
X3351780Y577423D01*
X3351420Y579850D01*
X3351300Y582300D01*
X3351300Y672300D01*
X3351420Y674751D01*
X3351780Y677177D01*
X3352376Y679557D01*
X3353203Y681867D01*
X3354252Y684085D01*
X3355513Y686189D01*
X3356975Y688160D01*
X3358622Y689978D01*
X3360440Y691625D01*
X3362411Y693087D01*
X3364515Y694348D01*
X3366733Y695397D01*
X3369043Y696224D01*
X3371423Y696820D01*
X3373849Y697180D01*
X3376300Y697300D01*
X3441300Y697300D01*
X3443750Y697180D01*
X3443750Y697180D01*
G37*
D16*
X3408800Y627300D03*
D18*
X1184000Y278812D03*
X784000Y278812D03*
D19*
X4843860Y3239940D03*
X4843860Y3429940D03*
X5043860Y3334940D03*
X5475660Y3334940D03*
X5275660Y3429940D03*
X5275660Y3239940D03*
D10*
G36*
X1615650Y2346130D02*
G01*
X1618077Y2345770D01*
X1620457Y2345174D01*
X1622767Y2344347D01*
X1624985Y2343298D01*
X1627089Y2342037D01*
X1629060Y2340575D01*
X1630878Y2338928D01*
X1632525Y2337110D01*
X1633987Y2335139D01*
X1635248Y2333035D01*
X1636297Y2330817D01*
X1637123Y2328507D01*
X1637720Y2326127D01*
X1638080Y2323701D01*
X1638200Y2321250D01*
X1638200Y2256250D01*
X1638080Y2253800D01*
X1637720Y2251373D01*
X1637123Y2248993D01*
X1636297Y2246683D01*
X1635248Y2244465D01*
X1633987Y2242361D01*
X1632525Y2240390D01*
X1630878Y2238572D01*
X1629060Y2236925D01*
X1627089Y2235463D01*
X1624985Y2234202D01*
X1622767Y2233153D01*
X1620457Y2232327D01*
X1618077Y2231730D01*
X1615650Y2231370D01*
X1613200Y2231250D01*
X1523200Y2231250D01*
X1520749Y2231370D01*
X1518323Y2231730D01*
X1515943Y2232327D01*
X1513633Y2233153D01*
X1511415Y2234202D01*
X1509311Y2235463D01*
X1507340Y2236925D01*
X1505522Y2238572D01*
X1503875Y2240390D01*
X1502413Y2242361D01*
X1501152Y2244465D01*
X1500103Y2246683D01*
X1499276Y2248993D01*
X1498680Y2251373D01*
X1498320Y2253800D01*
X1498200Y2256250D01*
X1498200Y2321250D01*
X1498320Y2323701D01*
X1498680Y2326127D01*
X1499276Y2328507D01*
X1500103Y2330817D01*
X1501152Y2333035D01*
X1502413Y2335139D01*
X1503875Y2337110D01*
X1505522Y2338928D01*
X1507340Y2340575D01*
X1509311Y2342037D01*
X1511415Y2343298D01*
X1513633Y2344347D01*
X1515943Y2345174D01*
X1518323Y2345770D01*
X1520749Y2346130D01*
X1523200Y2346250D01*
X1613200Y2346250D01*
X1615650Y2346130D01*
X1615650Y2346130D01*
G37*
D16*
X1568200Y2288750D03*
D10*
G36*
X1615650Y2141130D02*
G01*
X1618077Y2140770D01*
X1620457Y2140174D01*
X1622767Y2139347D01*
X1624985Y2138298D01*
X1627089Y2137037D01*
X1629060Y2135575D01*
X1630878Y2133928D01*
X1632525Y2132110D01*
X1633987Y2130139D01*
X1635248Y2128035D01*
X1636297Y2125817D01*
X1637123Y2123507D01*
X1637720Y2121127D01*
X1638080Y2118701D01*
X1638200Y2116250D01*
X1638200Y2051250D01*
X1638080Y2048799D01*
X1637720Y2046373D01*
X1637123Y2043993D01*
X1636297Y2041683D01*
X1635248Y2039465D01*
X1633987Y2037361D01*
X1632525Y2035390D01*
X1630878Y2033572D01*
X1629060Y2031925D01*
X1627089Y2030463D01*
X1624985Y2029202D01*
X1622767Y2028153D01*
X1620457Y2027326D01*
X1618077Y2026730D01*
X1615650Y2026370D01*
X1613200Y2026250D01*
X1523200Y2026250D01*
X1520749Y2026370D01*
X1518323Y2026730D01*
X1515943Y2027326D01*
X1513633Y2028153D01*
X1511415Y2029202D01*
X1509311Y2030463D01*
X1507340Y2031925D01*
X1505522Y2033572D01*
X1503875Y2035390D01*
X1502413Y2037361D01*
X1501152Y2039465D01*
X1500103Y2041683D01*
X1499276Y2043993D01*
X1498680Y2046373D01*
X1498320Y2048799D01*
X1498200Y2051250D01*
X1498200Y2116250D01*
X1498320Y2118701D01*
X1498680Y2121127D01*
X1499276Y2123507D01*
X1500103Y2125817D01*
X1501152Y2128035D01*
X1502413Y2130139D01*
X1503875Y2132110D01*
X1505522Y2133928D01*
X1507340Y2135575D01*
X1509311Y2137037D01*
X1511415Y2138298D01*
X1513633Y2139347D01*
X1515943Y2140174D01*
X1518323Y2140770D01*
X1520749Y2141130D01*
X1523200Y2141250D01*
X1613200Y2141250D01*
X1615650Y2141130D01*
X1615650Y2141130D01*
G37*
D16*
X1568200Y2083750D03*
D20*
X2691811Y2581230D03*
D10*
G36*
X2728934Y2657244D02*
G01*
X2767825Y2618353D01*
X2654687Y2505216D01*
X2615797Y2544107D01*
X2728934Y2657244D01*
X2728934Y2657244D01*
G37*
D20*
X2748379Y2524662D03*
D10*
G36*
X2785502Y2600676D02*
G01*
X2824393Y2561785D01*
X2711256Y2448648D01*
X2672365Y2487539D01*
X2785502Y2600676D01*
X2785502Y2600676D01*
G37*
D20*
X2804948Y2468093D03*
D10*
G36*
X2842071Y2544107D02*
G01*
X2880962Y2505216D01*
X2767825Y2392079D01*
X2728934Y2430970D01*
X2842071Y2544107D01*
X2842071Y2544107D01*
G37*
D20*
X2861516Y2411525D03*
D10*
G36*
X2898639Y2487539D02*
G01*
X2937530Y2448648D01*
X2824393Y2335511D01*
X2785502Y2374402D01*
X2898639Y2487539D01*
X2898639Y2487539D01*
G37*
D20*
X2918085Y2354956D03*
D10*
G36*
X2955208Y2430970D02*
G01*
X2994099Y2392079D01*
X2880962Y2278942D01*
X2842071Y2317833D01*
X2955208Y2430970D01*
X2955208Y2430970D01*
G37*
D20*
X2974653Y2298388D03*
D10*
G36*
X3011776Y2374402D02*
G01*
X3050667Y2335511D01*
X2937530Y2222374D01*
X2898639Y2261265D01*
X3011776Y2374402D01*
X3011776Y2374402D01*
G37*
D20*
X3031222Y2241819D03*
D10*
G36*
X3068345Y2317833D02*
G01*
X3107236Y2278942D01*
X2994099Y2165805D01*
X2955208Y2204696D01*
X3068345Y2317833D01*
X3068345Y2317833D01*
G37*
D20*
X3087790Y2185251D03*
D10*
G36*
X3124913Y2261265D02*
G01*
X3163804Y2222374D01*
X3050667Y2109237D01*
X3011776Y2148127D01*
X3124913Y2261265D01*
X3124913Y2261265D01*
G37*
D20*
X3087790Y1980189D03*
D10*
G36*
X3163804Y1943066D02*
G01*
X3124913Y1904175D01*
X3011776Y2017313D01*
X3050667Y2056203D01*
X3163804Y1943066D01*
X3163804Y1943066D01*
G37*
D20*
X3031222Y1923621D03*
D10*
G36*
X3107236Y1886498D02*
G01*
X3068345Y1847607D01*
X2955208Y1960744D01*
X2994099Y1999635D01*
X3107236Y1886498D01*
X3107236Y1886498D01*
G37*
D20*
X2974653Y1867052D03*
D10*
G36*
X3050667Y1829929D02*
G01*
X3011776Y1791038D01*
X2898639Y1904175D01*
X2937530Y1943066D01*
X3050667Y1829929D01*
X3050667Y1829929D01*
G37*
D20*
X2918085Y1810484D03*
D10*
G36*
X2994099Y1773361D02*
G01*
X2955208Y1734470D01*
X2842071Y1847607D01*
X2880962Y1886498D01*
X2994099Y1773361D01*
X2994099Y1773361D01*
G37*
D20*
X2861516Y1753915D03*
D10*
G36*
X2937530Y1716792D02*
G01*
X2898639Y1677901D01*
X2785502Y1791038D01*
X2824393Y1829929D01*
X2937530Y1716792D01*
X2937530Y1716792D01*
G37*
D20*
X2804948Y1697347D03*
D10*
G36*
X2880962Y1660224D02*
G01*
X2842071Y1621333D01*
X2728934Y1734470D01*
X2767825Y1773361D01*
X2880962Y1660224D01*
X2880962Y1660224D01*
G37*
D20*
X2748379Y1640778D03*
D10*
G36*
X2824393Y1603655D02*
G01*
X2785502Y1564764D01*
X2672365Y1677901D01*
X2711256Y1716792D01*
X2824393Y1603655D01*
X2824393Y1603655D01*
G37*
D20*
X2691811Y1584210D03*
D10*
G36*
X2767825Y1547087D02*
G01*
X2728934Y1508196D01*
X2615797Y1621333D01*
X2654687Y1660224D01*
X2767825Y1547087D01*
X2767825Y1547087D01*
G37*
D20*
X2486750Y1584210D03*
D10*
G36*
X2523873Y1660224D02*
G01*
X2562764Y1621333D01*
X2449626Y1508196D01*
X2410736Y1547087D01*
X2523873Y1660224D01*
X2523873Y1660224D01*
G37*
D20*
X2430181Y1640778D03*
D10*
G36*
X2467304Y1716792D02*
G01*
X2506195Y1677901D01*
X2393058Y1564764D01*
X2354167Y1603655D01*
X2467304Y1716792D01*
X2467304Y1716792D01*
G37*
D20*
X2373612Y1697347D03*
D10*
G36*
X2410736Y1773361D02*
G01*
X2449626Y1734470D01*
X2336489Y1621333D01*
X2297598Y1660224D01*
X2410736Y1773361D01*
X2410736Y1773361D01*
G37*
D20*
X2317044Y1753915D03*
D10*
G36*
X2354167Y1829929D02*
G01*
X2393058Y1791038D01*
X2279921Y1677901D01*
X2241030Y1716792D01*
X2354167Y1829929D01*
X2354167Y1829929D01*
G37*
D20*
X2260475Y1810484D03*
D10*
G36*
X2297598Y1886498D02*
G01*
X2336489Y1847607D01*
X2223352Y1734470D01*
X2184461Y1773361D01*
X2297598Y1886498D01*
X2297598Y1886498D01*
G37*
D20*
X2203907Y1867052D03*
D10*
G36*
X2241030Y1943066D02*
G01*
X2279921Y1904175D01*
X2166784Y1791038D01*
X2127893Y1829929D01*
X2241030Y1943066D01*
X2241030Y1943066D01*
G37*
D20*
X2147338Y1923621D03*
D10*
G36*
X2184461Y1999635D02*
G01*
X2223352Y1960744D01*
X2110215Y1847607D01*
X2071324Y1886498D01*
X2184461Y1999635D01*
X2184461Y1999635D01*
G37*
D20*
X2090770Y1980189D03*
D10*
G36*
X2127893Y2056203D02*
G01*
X2166784Y2017313D01*
X2053647Y1904175D01*
X2014756Y1943066D01*
X2127893Y2056203D01*
X2127893Y2056203D01*
G37*
D20*
X2090770Y2185251D03*
D10*
G36*
X2166784Y2148127D02*
G01*
X2127893Y2109237D01*
X2014756Y2222374D01*
X2053647Y2261265D01*
X2166784Y2148127D01*
X2166784Y2148127D01*
G37*
D20*
X2147338Y2241819D03*
D10*
G36*
X2223352Y2204696D02*
G01*
X2184461Y2165805D01*
X2071324Y2278942D01*
X2110215Y2317833D01*
X2223352Y2204696D01*
X2223352Y2204696D01*
G37*
D20*
X2203907Y2298388D03*
D10*
G36*
X2279921Y2261265D02*
G01*
X2241030Y2222374D01*
X2127893Y2335511D01*
X2166784Y2374402D01*
X2279921Y2261265D01*
X2279921Y2261265D01*
G37*
D20*
X2260475Y2354956D03*
D10*
G36*
X2336489Y2317833D02*
G01*
X2297598Y2278942D01*
X2184461Y2392079D01*
X2223352Y2430970D01*
X2336489Y2317833D01*
X2336489Y2317833D01*
G37*
D20*
X2317044Y2411525D03*
D10*
G36*
X2393058Y2374402D02*
G01*
X2354167Y2335511D01*
X2241030Y2448648D01*
X2279921Y2487539D01*
X2393058Y2374402D01*
X2393058Y2374402D01*
G37*
D20*
X2373612Y2468093D03*
D10*
G36*
X2449626Y2430970D02*
G01*
X2410736Y2392079D01*
X2297598Y2505216D01*
X2336489Y2544107D01*
X2449626Y2430970D01*
X2449626Y2430970D01*
G37*
D20*
X2430181Y2524662D03*
D10*
G36*
X2506195Y2487539D02*
G01*
X2467304Y2448648D01*
X2354167Y2561785D01*
X2393058Y2600676D01*
X2506195Y2487539D01*
X2506195Y2487539D01*
G37*
D20*
X2486750Y2581230D03*
D10*
G36*
X2562764Y2544107D02*
G01*
X2523873Y2505216D01*
X2410736Y2618353D01*
X2449626Y2657244D01*
X2562764Y2544107D01*
X2562764Y2544107D01*
G37*
D21*
X3314580Y2556580D03*
X3489580Y2556580D03*
X3489580Y2416580D03*
X3314580Y2416580D03*
D10*
G36*
X2064100Y366700D02*
G01*
X2066527Y366340D01*
X2068907Y365743D01*
X2071217Y364917D01*
X2073435Y363868D01*
X2075539Y362607D01*
X2077510Y361145D01*
X2079328Y359498D01*
X2080975Y357680D01*
X2082437Y355709D01*
X2083698Y353605D01*
X2084747Y351387D01*
X2085573Y349077D01*
X2086170Y346697D01*
X2086530Y344270D01*
X2086650Y341820D01*
X2086650Y216820D01*
X2086530Y214370D01*
X2086170Y211943D01*
X2085573Y209563D01*
X2084747Y207253D01*
X2083698Y205035D01*
X2082437Y202931D01*
X2080975Y200960D01*
X2079328Y199142D01*
X2077510Y197495D01*
X2075539Y196033D01*
X2073435Y194772D01*
X2071217Y193723D01*
X2068907Y192896D01*
X2066527Y192300D01*
X2064100Y191940D01*
X2061650Y191820D01*
X1969150Y191820D01*
X1966700Y191940D01*
X1964273Y192300D01*
X1961893Y192896D01*
X1959583Y193723D01*
X1957365Y194772D01*
X1955261Y196033D01*
X1953290Y197495D01*
X1951472Y199142D01*
X1949825Y200960D01*
X1948363Y202931D01*
X1947102Y205035D01*
X1946053Y207253D01*
X1945226Y209563D01*
X1944630Y211943D01*
X1944270Y214370D01*
X1944150Y216820D01*
X1944150Y341820D01*
X1944270Y344270D01*
X1944630Y346697D01*
X1945226Y349077D01*
X1946053Y351387D01*
X1947102Y353605D01*
X1948363Y355709D01*
X1949825Y357680D01*
X1951472Y359498D01*
X1953290Y361145D01*
X1955261Y362607D01*
X1957365Y363868D01*
X1959583Y364917D01*
X1961893Y365743D01*
X1964273Y366340D01*
X1966700Y366700D01*
X1969150Y366820D01*
X2061650Y366820D01*
X2064100Y366700D01*
X2064100Y366700D01*
G37*
D11*
X2015400Y279320D03*
D10*
G36*
X1766600Y366700D02*
G01*
X1769027Y366340D01*
X1771407Y365743D01*
X1773717Y364917D01*
X1775935Y363868D01*
X1778039Y362607D01*
X1780010Y361145D01*
X1781828Y359498D01*
X1783475Y357680D01*
X1784937Y355709D01*
X1786198Y353605D01*
X1787247Y351387D01*
X1788073Y349077D01*
X1788670Y346697D01*
X1789030Y344270D01*
X1789150Y341820D01*
X1789150Y216820D01*
X1789030Y214370D01*
X1788670Y211943D01*
X1788073Y209563D01*
X1787247Y207253D01*
X1786198Y205035D01*
X1784937Y202931D01*
X1783475Y200960D01*
X1781828Y199142D01*
X1780010Y197495D01*
X1778039Y196033D01*
X1775935Y194772D01*
X1773717Y193723D01*
X1771407Y192896D01*
X1769027Y192300D01*
X1766600Y191940D01*
X1764150Y191820D01*
X1671650Y191820D01*
X1669200Y191940D01*
X1666773Y192300D01*
X1664393Y192896D01*
X1662083Y193723D01*
X1659865Y194772D01*
X1657761Y196033D01*
X1655790Y197495D01*
X1653972Y199142D01*
X1652325Y200960D01*
X1650863Y202931D01*
X1649602Y205035D01*
X1648553Y207253D01*
X1647726Y209563D01*
X1647130Y211943D01*
X1646770Y214370D01*
X1646650Y216820D01*
X1646650Y341820D01*
X1646770Y344270D01*
X1647130Y346697D01*
X1647726Y349077D01*
X1648553Y351387D01*
X1649602Y353605D01*
X1650863Y355709D01*
X1652325Y357680D01*
X1653972Y359498D01*
X1655790Y361145D01*
X1657761Y362607D01*
X1659865Y363868D01*
X1662083Y364917D01*
X1664393Y365743D01*
X1666773Y366340D01*
X1669200Y366700D01*
X1671650Y366820D01*
X1764150Y366820D01*
X1766600Y366700D01*
X1766600Y366700D01*
G37*
D11*
X1717900Y279320D03*
D10*
G36*
X2064100Y595300D02*
G01*
X2066527Y594940D01*
X2068907Y594344D01*
X2071217Y593517D01*
X2073435Y592468D01*
X2075539Y591207D01*
X2077510Y589745D01*
X2079328Y588098D01*
X2080975Y586280D01*
X2082437Y584309D01*
X2083698Y582205D01*
X2084747Y579987D01*
X2085573Y577677D01*
X2086170Y575297D01*
X2086530Y572870D01*
X2086650Y570420D01*
X2086650Y445420D01*
X2086530Y442970D01*
X2086170Y440543D01*
X2085573Y438163D01*
X2084747Y435853D01*
X2083698Y433635D01*
X2082437Y431531D01*
X2080975Y429560D01*
X2079328Y427742D01*
X2077510Y426095D01*
X2075539Y424633D01*
X2073435Y423372D01*
X2071217Y422323D01*
X2068907Y421496D01*
X2066527Y420900D01*
X2064100Y420540D01*
X2061650Y420420D01*
X1969150Y420420D01*
X1966700Y420540D01*
X1964273Y420900D01*
X1961893Y421496D01*
X1959583Y422323D01*
X1957365Y423372D01*
X1955261Y424633D01*
X1953290Y426095D01*
X1951472Y427742D01*
X1949825Y429560D01*
X1948363Y431531D01*
X1947102Y433635D01*
X1946053Y435853D01*
X1945226Y438163D01*
X1944630Y440543D01*
X1944270Y442970D01*
X1944150Y445420D01*
X1944150Y570420D01*
X1944270Y572870D01*
X1944630Y575297D01*
X1945226Y577677D01*
X1946053Y579987D01*
X1947102Y582205D01*
X1948363Y584309D01*
X1949825Y586280D01*
X1951472Y588098D01*
X1953290Y589745D01*
X1955261Y591207D01*
X1957365Y592468D01*
X1959583Y593517D01*
X1961893Y594344D01*
X1964273Y594940D01*
X1966700Y595300D01*
X1969150Y595420D01*
X2061650Y595420D01*
X2064100Y595300D01*
X2064100Y595300D01*
G37*
D11*
X2015400Y507920D03*
D10*
G36*
X1766600Y595300D02*
G01*
X1769027Y594940D01*
X1771407Y594344D01*
X1773717Y593517D01*
X1775935Y592468D01*
X1778039Y591207D01*
X1780010Y589745D01*
X1781828Y588098D01*
X1783475Y586280D01*
X1784937Y584309D01*
X1786198Y582205D01*
X1787247Y579987D01*
X1788073Y577677D01*
X1788670Y575297D01*
X1789030Y572870D01*
X1789150Y570420D01*
X1789150Y445420D01*
X1789030Y442970D01*
X1788670Y440543D01*
X1788073Y438163D01*
X1787247Y435853D01*
X1786198Y433635D01*
X1784937Y431531D01*
X1783475Y429560D01*
X1781828Y427742D01*
X1780010Y426095D01*
X1778039Y424633D01*
X1775935Y423372D01*
X1773717Y422323D01*
X1771407Y421496D01*
X1769027Y420900D01*
X1766600Y420540D01*
X1764150Y420420D01*
X1671650Y420420D01*
X1669200Y420540D01*
X1666773Y420900D01*
X1664393Y421496D01*
X1662083Y422323D01*
X1659865Y423372D01*
X1657761Y424633D01*
X1655790Y426095D01*
X1653972Y427742D01*
X1652325Y429560D01*
X1650863Y431531D01*
X1649602Y433635D01*
X1648553Y435853D01*
X1647726Y438163D01*
X1647130Y440543D01*
X1646770Y442970D01*
X1646650Y445420D01*
X1646650Y570420D01*
X1646770Y572870D01*
X1647130Y575297D01*
X1647726Y577677D01*
X1648553Y579987D01*
X1649602Y582205D01*
X1650863Y584309D01*
X1652325Y586280D01*
X1653972Y588098D01*
X1655790Y589745D01*
X1657761Y591207D01*
X1659865Y592468D01*
X1662083Y593517D01*
X1664393Y594344D01*
X1666773Y594940D01*
X1669200Y595300D01*
X1671650Y595420D01*
X1764150Y595420D01*
X1766600Y595300D01*
X1766600Y595300D01*
G37*
D11*
X1717900Y507920D03*
D22*
X1460000Y2810000D03*
X2240000Y2810000D03*
D23*
X6699000Y3141640D03*
X6699000Y2791640D03*
D24*
X6172280Y1754300D03*
X6045280Y1754300D03*
X5918280Y1754300D03*
X5791280Y1754300D03*
X5791280Y2294300D03*
X5918280Y2294300D03*
X6045280Y2294300D03*
X6172280Y2294300D03*
M02*
