G04 #@! TF.GenerationSoftware,KiCad,Pcbnew,(5.1.0)-1*
G04 #@! TF.CreationDate,2022-02-28T18:41:10-08:00*
G04 #@! TF.ProjectId,1602A_LCD-RTC  Backpack,31363032-415f-44c4-9344-2d5254432020,rev?*
G04 #@! TF.SameCoordinates,PX660b0c0PY66ff300*
G04 #@! TF.FileFunction,Copper,L2,Bot*
G04 #@! TF.FilePolarity,Positive*
%FSLAX45Y45*%
G04 Gerber Fmt 4.5, Leading zero omitted, Abs format (unit mm)*
G04 Created by KiCad (PCBNEW (5.1.0)-1) date 2022-02-28 18:41:10*
%MOMM*%
%LPD*%
G04 APERTURE LIST*
%ADD10C,3.000000*%
%ADD11O,1.800000X2.600000*%
%ADD12R,1.800000X2.600000*%
%ADD13C,0.100000*%
%ADD14C,1.425000*%
%ADD15R,3.000000X3.000000*%
%ADD16C,1.325000*%
%ADD17R,3.300000X3.300000*%
%ADD18R,4.000000X4.000000*%
%ADD19R,1.200000X2.200000*%
%ADD20R,5.800000X6.400000*%
%ADD21C,1.150000*%
%ADD22R,0.600000X1.500000*%
%ADD23R,2.500000X1.800000*%
%ADD24R,0.900000X0.800000*%
%ADD25R,1.600000X1.600000*%
%ADD26C,1.600000*%
%ADD27C,0.550000*%
%ADD28R,1.700000X1.700000*%
%ADD29O,1.700000X1.700000*%
%ADD30C,1.440000*%
%ADD31R,1.150000X1.000000*%
%ADD32R,1.500000X1.500000*%
%ADD33R,1.700000X1.300000*%
%ADD34R,0.600000X1.550000*%
%ADD35C,1.000000*%
%ADD36C,0.800000*%
%ADD37C,0.500000*%
%ADD38C,0.200000*%
%ADD39C,0.800000*%
%ADD40C,0.350000*%
%ADD41C,1.000000*%
%ADD42C,0.254000*%
G04 APERTURE END LIST*
D10*
X7751910Y3349070D03*
X7751858Y249000D03*
X252000Y249000D03*
X252000Y3349070D03*
D11*
X4611910Y3349070D03*
X4357910Y3349070D03*
X4103910Y3349070D03*
X3849910Y3349070D03*
X3595910Y3349070D03*
X3341910Y3349070D03*
X3087910Y3349070D03*
X2833910Y3349070D03*
X2579910Y3349070D03*
X2325910Y3349070D03*
X2071910Y3349070D03*
X1817910Y3349070D03*
X1563910Y3349070D03*
X1309910Y3349070D03*
X1055910Y3349070D03*
D12*
X801910Y3349070D03*
D13*
G36*
X4422860Y3095080D02*
G01*
X4425287Y3094720D01*
X4427667Y3094123D01*
X4429977Y3093297D01*
X4432195Y3092248D01*
X4434299Y3090987D01*
X4436270Y3089525D01*
X4438088Y3087878D01*
X4439735Y3086060D01*
X4441197Y3084089D01*
X4442458Y3081985D01*
X4443507Y3079767D01*
X4444334Y3077457D01*
X4444930Y3075077D01*
X4445290Y3072650D01*
X4445410Y3070200D01*
X4445410Y2977700D01*
X4445290Y2975250D01*
X4444930Y2972823D01*
X4444334Y2970443D01*
X4443507Y2968133D01*
X4442458Y2965915D01*
X4441197Y2963811D01*
X4439735Y2961840D01*
X4438088Y2960022D01*
X4436270Y2958375D01*
X4434299Y2956913D01*
X4432195Y2955652D01*
X4429977Y2954603D01*
X4427667Y2953776D01*
X4425287Y2953180D01*
X4422860Y2952820D01*
X4420410Y2952700D01*
X4295410Y2952700D01*
X4292960Y2952820D01*
X4290533Y2953180D01*
X4288153Y2953776D01*
X4285843Y2954603D01*
X4283625Y2955652D01*
X4281521Y2956913D01*
X4279550Y2958375D01*
X4277732Y2960022D01*
X4276085Y2961840D01*
X4274623Y2963811D01*
X4273362Y2965915D01*
X4272313Y2968133D01*
X4271487Y2970443D01*
X4270890Y2972823D01*
X4270530Y2975250D01*
X4270410Y2977700D01*
X4270410Y3070200D01*
X4270530Y3072650D01*
X4270890Y3075077D01*
X4271487Y3077457D01*
X4272313Y3079767D01*
X4273362Y3081985D01*
X4274623Y3084089D01*
X4276085Y3086060D01*
X4277732Y3087878D01*
X4279550Y3089525D01*
X4281521Y3090987D01*
X4283625Y3092248D01*
X4285843Y3093297D01*
X4288153Y3094123D01*
X4290533Y3094720D01*
X4292960Y3095080D01*
X4295410Y3095200D01*
X4420410Y3095200D01*
X4422860Y3095080D01*
X4422860Y3095080D01*
G37*
D14*
X4357910Y3023950D03*
D13*
G36*
X4422860Y2797580D02*
G01*
X4425287Y2797220D01*
X4427667Y2796623D01*
X4429977Y2795797D01*
X4432195Y2794748D01*
X4434299Y2793487D01*
X4436270Y2792025D01*
X4438088Y2790378D01*
X4439735Y2788560D01*
X4441197Y2786589D01*
X4442458Y2784485D01*
X4443507Y2782267D01*
X4444334Y2779957D01*
X4444930Y2777577D01*
X4445290Y2775150D01*
X4445410Y2772700D01*
X4445410Y2680200D01*
X4445290Y2677750D01*
X4444930Y2675323D01*
X4444334Y2672943D01*
X4443507Y2670633D01*
X4442458Y2668415D01*
X4441197Y2666311D01*
X4439735Y2664340D01*
X4438088Y2662522D01*
X4436270Y2660875D01*
X4434299Y2659413D01*
X4432195Y2658152D01*
X4429977Y2657103D01*
X4427667Y2656277D01*
X4425287Y2655680D01*
X4422860Y2655320D01*
X4420410Y2655200D01*
X4295410Y2655200D01*
X4292960Y2655320D01*
X4290533Y2655680D01*
X4288153Y2656277D01*
X4285843Y2657103D01*
X4283625Y2658152D01*
X4281521Y2659413D01*
X4279550Y2660875D01*
X4277732Y2662522D01*
X4276085Y2664340D01*
X4274623Y2666311D01*
X4273362Y2668415D01*
X4272313Y2670633D01*
X4271487Y2672943D01*
X4270890Y2675323D01*
X4270530Y2677750D01*
X4270410Y2680200D01*
X4270410Y2772700D01*
X4270530Y2775150D01*
X4270890Y2777577D01*
X4271487Y2779957D01*
X4272313Y2782267D01*
X4273362Y2784485D01*
X4274623Y2786589D01*
X4276085Y2788560D01*
X4277732Y2790378D01*
X4279550Y2792025D01*
X4281521Y2793487D01*
X4283625Y2794748D01*
X4285843Y2795797D01*
X4288153Y2796623D01*
X4290533Y2797220D01*
X4292960Y2797580D01*
X4295410Y2797700D01*
X4420410Y2797700D01*
X4422860Y2797580D01*
X4422860Y2797580D01*
G37*
D14*
X4357910Y2726450D03*
D10*
X321000Y1483000D03*
D15*
X321000Y975000D03*
D13*
G36*
X1257651Y1933400D02*
G01*
X1260077Y1933040D01*
X1262457Y1932443D01*
X1264767Y1931617D01*
X1266985Y1930568D01*
X1269089Y1929307D01*
X1271060Y1927845D01*
X1272878Y1926198D01*
X1274525Y1924380D01*
X1275987Y1922409D01*
X1277248Y1920305D01*
X1278297Y1918087D01*
X1279124Y1915777D01*
X1279720Y1913397D01*
X1280080Y1910970D01*
X1280200Y1908520D01*
X1280200Y1723520D01*
X1280080Y1721069D01*
X1279720Y1718643D01*
X1279124Y1716263D01*
X1278297Y1713953D01*
X1277248Y1711735D01*
X1275987Y1709631D01*
X1274525Y1707660D01*
X1272878Y1705842D01*
X1271060Y1704195D01*
X1269089Y1702733D01*
X1266985Y1701472D01*
X1264767Y1700423D01*
X1262457Y1699596D01*
X1260077Y1699000D01*
X1257651Y1698640D01*
X1255200Y1698520D01*
X1172700Y1698520D01*
X1170250Y1698640D01*
X1167823Y1699000D01*
X1165443Y1699596D01*
X1163133Y1700423D01*
X1160915Y1701472D01*
X1158811Y1702733D01*
X1156840Y1704195D01*
X1155022Y1705842D01*
X1153375Y1707660D01*
X1151913Y1709631D01*
X1150652Y1711735D01*
X1149603Y1713953D01*
X1148777Y1716263D01*
X1148180Y1718643D01*
X1147820Y1721069D01*
X1147700Y1723520D01*
X1147700Y1908520D01*
X1147820Y1910970D01*
X1148180Y1913397D01*
X1148777Y1915777D01*
X1149603Y1918087D01*
X1150652Y1920305D01*
X1151913Y1922409D01*
X1153375Y1924380D01*
X1155022Y1926198D01*
X1156840Y1927845D01*
X1158811Y1929307D01*
X1160915Y1930568D01*
X1163133Y1931617D01*
X1165443Y1932443D01*
X1167823Y1933040D01*
X1170250Y1933400D01*
X1172700Y1933520D01*
X1255200Y1933520D01*
X1257651Y1933400D01*
X1257651Y1933400D01*
G37*
D16*
X1213950Y1816020D03*
D13*
G36*
X950150Y1933400D02*
G01*
X952577Y1933040D01*
X954957Y1932443D01*
X957267Y1931617D01*
X959485Y1930568D01*
X961589Y1929307D01*
X963560Y1927845D01*
X965378Y1926198D01*
X967025Y1924380D01*
X968487Y1922409D01*
X969748Y1920305D01*
X970797Y1918087D01*
X971623Y1915777D01*
X972220Y1913397D01*
X972580Y1910970D01*
X972700Y1908520D01*
X972700Y1723520D01*
X972580Y1721069D01*
X972220Y1718643D01*
X971623Y1716263D01*
X970797Y1713953D01*
X969748Y1711735D01*
X968487Y1709631D01*
X967025Y1707660D01*
X965378Y1705842D01*
X963560Y1704195D01*
X961589Y1702733D01*
X959485Y1701472D01*
X957267Y1700423D01*
X954957Y1699596D01*
X952577Y1699000D01*
X950150Y1698640D01*
X947700Y1698520D01*
X865200Y1698520D01*
X862749Y1698640D01*
X860323Y1699000D01*
X857943Y1699596D01*
X855633Y1700423D01*
X853415Y1701472D01*
X851311Y1702733D01*
X849340Y1704195D01*
X847522Y1705842D01*
X845875Y1707660D01*
X844413Y1709631D01*
X843152Y1711735D01*
X842103Y1713953D01*
X841276Y1716263D01*
X840680Y1718643D01*
X840320Y1721069D01*
X840200Y1723520D01*
X840200Y1908520D01*
X840320Y1910970D01*
X840680Y1913397D01*
X841276Y1915777D01*
X842103Y1918087D01*
X843152Y1920305D01*
X844413Y1922409D01*
X845875Y1924380D01*
X847522Y1926198D01*
X849340Y1927845D01*
X851311Y1929307D01*
X853415Y1930568D01*
X855633Y1931617D01*
X857943Y1932443D01*
X860323Y1933040D01*
X862749Y1933400D01*
X865200Y1933520D01*
X947700Y1933520D01*
X950150Y1933400D01*
X950150Y1933400D01*
G37*
D16*
X906450Y1816020D03*
D17*
X7306060Y2593320D03*
X7306060Y1013320D03*
D18*
X7306060Y1803320D03*
D19*
X1434250Y664500D03*
X978250Y664500D03*
D20*
X1206250Y1294500D03*
D13*
G36*
X5387551Y2971580D02*
G01*
X5389977Y2971220D01*
X5392357Y2970623D01*
X5394667Y2969797D01*
X5396885Y2968748D01*
X5398989Y2967487D01*
X5400960Y2966025D01*
X5402778Y2964378D01*
X5404425Y2962560D01*
X5405887Y2960589D01*
X5407148Y2958485D01*
X5408197Y2956267D01*
X5409024Y2953957D01*
X5409620Y2951577D01*
X5409980Y2949150D01*
X5410100Y2946700D01*
X5410100Y2881700D01*
X5409980Y2879249D01*
X5409620Y2876823D01*
X5409024Y2874443D01*
X5408197Y2872133D01*
X5407148Y2869915D01*
X5405887Y2867811D01*
X5404425Y2865840D01*
X5402778Y2864022D01*
X5400960Y2862375D01*
X5398989Y2860913D01*
X5396885Y2859652D01*
X5394667Y2858603D01*
X5392357Y2857776D01*
X5389977Y2857180D01*
X5387551Y2856820D01*
X5385100Y2856700D01*
X5295100Y2856700D01*
X5292650Y2856820D01*
X5290223Y2857180D01*
X5287843Y2857776D01*
X5285533Y2858603D01*
X5283315Y2859652D01*
X5281211Y2860913D01*
X5279240Y2862375D01*
X5277422Y2864022D01*
X5275775Y2865840D01*
X5274313Y2867811D01*
X5273052Y2869915D01*
X5272003Y2872133D01*
X5271177Y2874443D01*
X5270580Y2876823D01*
X5270220Y2879249D01*
X5270100Y2881700D01*
X5270100Y2946700D01*
X5270220Y2949150D01*
X5270580Y2951577D01*
X5271177Y2953957D01*
X5272003Y2956267D01*
X5273052Y2958485D01*
X5274313Y2960589D01*
X5275775Y2962560D01*
X5277422Y2964378D01*
X5279240Y2966025D01*
X5281211Y2967487D01*
X5283315Y2968748D01*
X5285533Y2969797D01*
X5287843Y2970623D01*
X5290223Y2971220D01*
X5292650Y2971580D01*
X5295100Y2971700D01*
X5385100Y2971700D01*
X5387551Y2971580D01*
X5387551Y2971580D01*
G37*
D21*
X5340100Y2914200D03*
D13*
G36*
X5387551Y2766580D02*
G01*
X5389977Y2766220D01*
X5392357Y2765624D01*
X5394667Y2764797D01*
X5396885Y2763748D01*
X5398989Y2762487D01*
X5400960Y2761025D01*
X5402778Y2759378D01*
X5404425Y2757560D01*
X5405887Y2755589D01*
X5407148Y2753485D01*
X5408197Y2751267D01*
X5409024Y2748957D01*
X5409620Y2746577D01*
X5409980Y2744151D01*
X5410100Y2741700D01*
X5410100Y2676700D01*
X5409980Y2674250D01*
X5409620Y2671823D01*
X5409024Y2669443D01*
X5408197Y2667133D01*
X5407148Y2664915D01*
X5405887Y2662811D01*
X5404425Y2660840D01*
X5402778Y2659022D01*
X5400960Y2657375D01*
X5398989Y2655913D01*
X5396885Y2654652D01*
X5394667Y2653603D01*
X5392357Y2652777D01*
X5389977Y2652180D01*
X5387551Y2651820D01*
X5385100Y2651700D01*
X5295100Y2651700D01*
X5292650Y2651820D01*
X5290223Y2652180D01*
X5287843Y2652777D01*
X5285533Y2653603D01*
X5283315Y2654652D01*
X5281211Y2655913D01*
X5279240Y2657375D01*
X5277422Y2659022D01*
X5275775Y2660840D01*
X5274313Y2662811D01*
X5273052Y2664915D01*
X5272003Y2667133D01*
X5271177Y2669443D01*
X5270580Y2671823D01*
X5270220Y2674250D01*
X5270100Y2676700D01*
X5270100Y2741700D01*
X5270220Y2744151D01*
X5270580Y2746577D01*
X5271177Y2748957D01*
X5272003Y2751267D01*
X5273052Y2753485D01*
X5274313Y2755589D01*
X5275775Y2757560D01*
X5277422Y2759378D01*
X5279240Y2761025D01*
X5281211Y2762487D01*
X5283315Y2763748D01*
X5285533Y2764797D01*
X5287843Y2765624D01*
X5290223Y2766220D01*
X5292650Y2766580D01*
X5295100Y2766700D01*
X5385100Y2766700D01*
X5387551Y2766580D01*
X5387551Y2766580D01*
G37*
D21*
X5340100Y2709200D03*
D13*
G36*
X5194981Y2766580D02*
G01*
X5197407Y2766220D01*
X5199787Y2765624D01*
X5202097Y2764797D01*
X5204315Y2763748D01*
X5206419Y2762487D01*
X5208390Y2761025D01*
X5210208Y2759378D01*
X5211855Y2757560D01*
X5213317Y2755589D01*
X5214578Y2753485D01*
X5215627Y2751267D01*
X5216454Y2748957D01*
X5217050Y2746577D01*
X5217410Y2744151D01*
X5217530Y2741700D01*
X5217530Y2676700D01*
X5217410Y2674250D01*
X5217050Y2671823D01*
X5216454Y2669443D01*
X5215627Y2667133D01*
X5214578Y2664915D01*
X5213317Y2662811D01*
X5211855Y2660840D01*
X5210208Y2659022D01*
X5208390Y2657375D01*
X5206419Y2655913D01*
X5204315Y2654652D01*
X5202097Y2653603D01*
X5199787Y2652777D01*
X5197407Y2652180D01*
X5194981Y2651820D01*
X5192530Y2651700D01*
X5102530Y2651700D01*
X5100080Y2651820D01*
X5097653Y2652180D01*
X5095273Y2652777D01*
X5092963Y2653603D01*
X5090745Y2654652D01*
X5088641Y2655913D01*
X5086670Y2657375D01*
X5084852Y2659022D01*
X5083205Y2660840D01*
X5081743Y2662811D01*
X5080482Y2664915D01*
X5079433Y2667133D01*
X5078607Y2669443D01*
X5078010Y2671823D01*
X5077650Y2674250D01*
X5077530Y2676700D01*
X5077530Y2741700D01*
X5077650Y2744151D01*
X5078010Y2746577D01*
X5078607Y2748957D01*
X5079433Y2751267D01*
X5080482Y2753485D01*
X5081743Y2755589D01*
X5083205Y2757560D01*
X5084852Y2759378D01*
X5086670Y2761025D01*
X5088641Y2762487D01*
X5090745Y2763748D01*
X5092963Y2764797D01*
X5095273Y2765624D01*
X5097653Y2766220D01*
X5100080Y2766580D01*
X5102530Y2766700D01*
X5192530Y2766700D01*
X5194981Y2766580D01*
X5194981Y2766580D01*
G37*
D21*
X5147530Y2709200D03*
D13*
G36*
X5194981Y2971580D02*
G01*
X5197407Y2971220D01*
X5199787Y2970623D01*
X5202097Y2969797D01*
X5204315Y2968748D01*
X5206419Y2967487D01*
X5208390Y2966025D01*
X5210208Y2964378D01*
X5211855Y2962560D01*
X5213317Y2960589D01*
X5214578Y2958485D01*
X5215627Y2956267D01*
X5216454Y2953957D01*
X5217050Y2951577D01*
X5217410Y2949150D01*
X5217530Y2946700D01*
X5217530Y2881700D01*
X5217410Y2879249D01*
X5217050Y2876823D01*
X5216454Y2874443D01*
X5215627Y2872133D01*
X5214578Y2869915D01*
X5213317Y2867811D01*
X5211855Y2865840D01*
X5210208Y2864022D01*
X5208390Y2862375D01*
X5206419Y2860913D01*
X5204315Y2859652D01*
X5202097Y2858603D01*
X5199787Y2857776D01*
X5197407Y2857180D01*
X5194981Y2856820D01*
X5192530Y2856700D01*
X5102530Y2856700D01*
X5100080Y2856820D01*
X5097653Y2857180D01*
X5095273Y2857776D01*
X5092963Y2858603D01*
X5090745Y2859652D01*
X5088641Y2860913D01*
X5086670Y2862375D01*
X5084852Y2864022D01*
X5083205Y2865840D01*
X5081743Y2867811D01*
X5080482Y2869915D01*
X5079433Y2872133D01*
X5078607Y2874443D01*
X5078010Y2876823D01*
X5077650Y2879249D01*
X5077530Y2881700D01*
X5077530Y2946700D01*
X5077650Y2949150D01*
X5078010Y2951577D01*
X5078607Y2953957D01*
X5079433Y2956267D01*
X5080482Y2958485D01*
X5081743Y2960589D01*
X5083205Y2962560D01*
X5084852Y2964378D01*
X5086670Y2966025D01*
X5088641Y2967487D01*
X5090745Y2968748D01*
X5092963Y2969797D01*
X5095273Y2970623D01*
X5097653Y2971220D01*
X5100080Y2971580D01*
X5102530Y2971700D01*
X5192530Y2971700D01*
X5194981Y2971580D01*
X5194981Y2971580D01*
G37*
D21*
X5147530Y2914200D03*
D13*
G36*
X4893331Y2766580D02*
G01*
X4895757Y2766220D01*
X4898137Y2765624D01*
X4900447Y2764797D01*
X4902665Y2763748D01*
X4904769Y2762487D01*
X4906740Y2761025D01*
X4908558Y2759378D01*
X4910205Y2757560D01*
X4911667Y2755589D01*
X4912928Y2753485D01*
X4913977Y2751267D01*
X4914804Y2748957D01*
X4915400Y2746577D01*
X4915760Y2744151D01*
X4915880Y2741700D01*
X4915880Y2676700D01*
X4915760Y2674250D01*
X4915400Y2671823D01*
X4914804Y2669443D01*
X4913977Y2667133D01*
X4912928Y2664915D01*
X4911667Y2662811D01*
X4910205Y2660840D01*
X4908558Y2659022D01*
X4906740Y2657375D01*
X4904769Y2655913D01*
X4902665Y2654652D01*
X4900447Y2653603D01*
X4898137Y2652777D01*
X4895757Y2652180D01*
X4893331Y2651820D01*
X4890880Y2651700D01*
X4800880Y2651700D01*
X4798430Y2651820D01*
X4796003Y2652180D01*
X4793623Y2652777D01*
X4791313Y2653603D01*
X4789095Y2654652D01*
X4786991Y2655913D01*
X4785020Y2657375D01*
X4783202Y2659022D01*
X4781555Y2660840D01*
X4780093Y2662811D01*
X4778832Y2664915D01*
X4777783Y2667133D01*
X4776957Y2669443D01*
X4776360Y2671823D01*
X4776000Y2674250D01*
X4775880Y2676700D01*
X4775880Y2741700D01*
X4776000Y2744151D01*
X4776360Y2746577D01*
X4776957Y2748957D01*
X4777783Y2751267D01*
X4778832Y2753485D01*
X4780093Y2755589D01*
X4781555Y2757560D01*
X4783202Y2759378D01*
X4785020Y2761025D01*
X4786991Y2762487D01*
X4789095Y2763748D01*
X4791313Y2764797D01*
X4793623Y2765624D01*
X4796003Y2766220D01*
X4798430Y2766580D01*
X4800880Y2766700D01*
X4890880Y2766700D01*
X4893331Y2766580D01*
X4893331Y2766580D01*
G37*
D21*
X4845880Y2709200D03*
D13*
G36*
X4893331Y2971580D02*
G01*
X4895757Y2971220D01*
X4898137Y2970623D01*
X4900447Y2969797D01*
X4902665Y2968748D01*
X4904769Y2967487D01*
X4906740Y2966025D01*
X4908558Y2964378D01*
X4910205Y2962560D01*
X4911667Y2960589D01*
X4912928Y2958485D01*
X4913977Y2956267D01*
X4914804Y2953957D01*
X4915400Y2951577D01*
X4915760Y2949150D01*
X4915880Y2946700D01*
X4915880Y2881700D01*
X4915760Y2879249D01*
X4915400Y2876823D01*
X4914804Y2874443D01*
X4913977Y2872133D01*
X4912928Y2869915D01*
X4911667Y2867811D01*
X4910205Y2865840D01*
X4908558Y2864022D01*
X4906740Y2862375D01*
X4904769Y2860913D01*
X4902665Y2859652D01*
X4900447Y2858603D01*
X4898137Y2857776D01*
X4895757Y2857180D01*
X4893331Y2856820D01*
X4890880Y2856700D01*
X4800880Y2856700D01*
X4798430Y2856820D01*
X4796003Y2857180D01*
X4793623Y2857776D01*
X4791313Y2858603D01*
X4789095Y2859652D01*
X4786991Y2860913D01*
X4785020Y2862375D01*
X4783202Y2864022D01*
X4781555Y2865840D01*
X4780093Y2867811D01*
X4778832Y2869915D01*
X4777783Y2872133D01*
X4776957Y2874443D01*
X4776360Y2876823D01*
X4776000Y2879249D01*
X4775880Y2881700D01*
X4775880Y2946700D01*
X4776000Y2949150D01*
X4776360Y2951577D01*
X4776957Y2953957D01*
X4777783Y2956267D01*
X4778832Y2958485D01*
X4780093Y2960589D01*
X4781555Y2962560D01*
X4783202Y2964378D01*
X4785020Y2966025D01*
X4786991Y2967487D01*
X4789095Y2968748D01*
X4791313Y2969797D01*
X4793623Y2970623D01*
X4796003Y2971220D01*
X4798430Y2971580D01*
X4800880Y2971700D01*
X4890880Y2971700D01*
X4893331Y2971580D01*
X4893331Y2971580D01*
G37*
D21*
X4845880Y2914200D03*
D13*
G36*
X4702031Y2766580D02*
G01*
X4704457Y2766220D01*
X4706837Y2765624D01*
X4709147Y2764797D01*
X4711365Y2763748D01*
X4713469Y2762487D01*
X4715440Y2761025D01*
X4717258Y2759378D01*
X4718905Y2757560D01*
X4720367Y2755589D01*
X4721628Y2753485D01*
X4722677Y2751267D01*
X4723504Y2748957D01*
X4724100Y2746577D01*
X4724460Y2744151D01*
X4724580Y2741700D01*
X4724580Y2676700D01*
X4724460Y2674250D01*
X4724100Y2671823D01*
X4723504Y2669443D01*
X4722677Y2667133D01*
X4721628Y2664915D01*
X4720367Y2662811D01*
X4718905Y2660840D01*
X4717258Y2659022D01*
X4715440Y2657375D01*
X4713469Y2655913D01*
X4711365Y2654652D01*
X4709147Y2653603D01*
X4706837Y2652777D01*
X4704457Y2652180D01*
X4702031Y2651820D01*
X4699580Y2651700D01*
X4609580Y2651700D01*
X4607130Y2651820D01*
X4604703Y2652180D01*
X4602323Y2652777D01*
X4600013Y2653603D01*
X4597795Y2654652D01*
X4595691Y2655913D01*
X4593720Y2657375D01*
X4591902Y2659022D01*
X4590255Y2660840D01*
X4588793Y2662811D01*
X4587532Y2664915D01*
X4586483Y2667133D01*
X4585657Y2669443D01*
X4585060Y2671823D01*
X4584700Y2674250D01*
X4584580Y2676700D01*
X4584580Y2741700D01*
X4584700Y2744151D01*
X4585060Y2746577D01*
X4585657Y2748957D01*
X4586483Y2751267D01*
X4587532Y2753485D01*
X4588793Y2755589D01*
X4590255Y2757560D01*
X4591902Y2759378D01*
X4593720Y2761025D01*
X4595691Y2762487D01*
X4597795Y2763748D01*
X4600013Y2764797D01*
X4602323Y2765624D01*
X4604703Y2766220D01*
X4607130Y2766580D01*
X4609580Y2766700D01*
X4699580Y2766700D01*
X4702031Y2766580D01*
X4702031Y2766580D01*
G37*
D21*
X4654580Y2709200D03*
D13*
G36*
X4702031Y2971580D02*
G01*
X4704457Y2971220D01*
X4706837Y2970623D01*
X4709147Y2969797D01*
X4711365Y2968748D01*
X4713469Y2967487D01*
X4715440Y2966025D01*
X4717258Y2964378D01*
X4718905Y2962560D01*
X4720367Y2960589D01*
X4721628Y2958485D01*
X4722677Y2956267D01*
X4723504Y2953957D01*
X4724100Y2951577D01*
X4724460Y2949150D01*
X4724580Y2946700D01*
X4724580Y2881700D01*
X4724460Y2879249D01*
X4724100Y2876823D01*
X4723504Y2874443D01*
X4722677Y2872133D01*
X4721628Y2869915D01*
X4720367Y2867811D01*
X4718905Y2865840D01*
X4717258Y2864022D01*
X4715440Y2862375D01*
X4713469Y2860913D01*
X4711365Y2859652D01*
X4709147Y2858603D01*
X4706837Y2857776D01*
X4704457Y2857180D01*
X4702031Y2856820D01*
X4699580Y2856700D01*
X4609580Y2856700D01*
X4607130Y2856820D01*
X4604703Y2857180D01*
X4602323Y2857776D01*
X4600013Y2858603D01*
X4597795Y2859652D01*
X4595691Y2860913D01*
X4593720Y2862375D01*
X4591902Y2864022D01*
X4590255Y2865840D01*
X4588793Y2867811D01*
X4587532Y2869915D01*
X4586483Y2872133D01*
X4585657Y2874443D01*
X4585060Y2876823D01*
X4584700Y2879249D01*
X4584580Y2881700D01*
X4584580Y2946700D01*
X4584700Y2949150D01*
X4585060Y2951577D01*
X4585657Y2953957D01*
X4586483Y2956267D01*
X4587532Y2958485D01*
X4588793Y2960589D01*
X4590255Y2962560D01*
X4591902Y2964378D01*
X4593720Y2966025D01*
X4595691Y2967487D01*
X4597795Y2968748D01*
X4600013Y2969797D01*
X4602323Y2970623D01*
X4604703Y2971220D01*
X4607130Y2971580D01*
X4609580Y2971700D01*
X4699580Y2971700D01*
X4702031Y2971580D01*
X4702031Y2971580D01*
G37*
D21*
X4654580Y2914200D03*
D22*
X5340100Y1505960D03*
X5213100Y1505960D03*
X5086100Y1505960D03*
X4959100Y1505960D03*
X4832100Y1505960D03*
X4705100Y1505960D03*
X4578100Y1505960D03*
X4451100Y1505960D03*
X4451100Y2435960D03*
X4578100Y2435960D03*
X4705100Y2435960D03*
X4832100Y2435960D03*
X4959100Y2435960D03*
X5086100Y2435960D03*
X5213100Y2435960D03*
X5340100Y2435960D03*
D13*
G36*
X2213131Y1472879D02*
G01*
X2215558Y1472519D01*
X2217938Y1471923D01*
X2220247Y1471096D01*
X2222465Y1470047D01*
X2224570Y1468786D01*
X2226540Y1467324D01*
X2228358Y1465677D01*
X2274320Y1419715D01*
X2275968Y1417897D01*
X2277429Y1415926D01*
X2278690Y1413822D01*
X2279739Y1411604D01*
X2280566Y1409294D01*
X2281162Y1406914D01*
X2281522Y1404488D01*
X2281642Y1402037D01*
X2281522Y1399587D01*
X2281162Y1397160D01*
X2280566Y1394780D01*
X2279739Y1392470D01*
X2278690Y1390252D01*
X2277429Y1388148D01*
X2275968Y1386177D01*
X2274320Y1384360D01*
X2210680Y1320720D01*
X2208863Y1319072D01*
X2206892Y1317611D01*
X2204788Y1316350D01*
X2202570Y1315301D01*
X2200260Y1314474D01*
X2197880Y1313878D01*
X2195453Y1313518D01*
X2193003Y1313398D01*
X2190552Y1313518D01*
X2188126Y1313878D01*
X2185746Y1314474D01*
X2183436Y1315301D01*
X2181218Y1316350D01*
X2179114Y1317611D01*
X2177143Y1319072D01*
X2175325Y1320720D01*
X2129363Y1366682D01*
X2127716Y1368500D01*
X2126254Y1370470D01*
X2124993Y1372575D01*
X2123944Y1374793D01*
X2123117Y1377103D01*
X2122521Y1379482D01*
X2122161Y1381909D01*
X2122041Y1384360D01*
X2122161Y1386810D01*
X2122521Y1389237D01*
X2123117Y1391617D01*
X2123944Y1393927D01*
X2124993Y1396145D01*
X2126254Y1398249D01*
X2127716Y1400219D01*
X2129363Y1402037D01*
X2193003Y1465677D01*
X2194821Y1467324D01*
X2196791Y1468786D01*
X2198896Y1470047D01*
X2201113Y1471096D01*
X2203423Y1471923D01*
X2205803Y1472519D01*
X2208230Y1472879D01*
X2210680Y1472999D01*
X2213131Y1472879D01*
X2213131Y1472879D01*
G37*
D21*
X2201842Y1393198D03*
D13*
G36*
X2358088Y1327922D02*
G01*
X2360514Y1327562D01*
X2362894Y1326966D01*
X2365204Y1326139D01*
X2367422Y1325090D01*
X2369526Y1323829D01*
X2371497Y1322368D01*
X2373315Y1320720D01*
X2419277Y1274758D01*
X2420925Y1272940D01*
X2422386Y1270970D01*
X2423647Y1268865D01*
X2424696Y1266647D01*
X2425523Y1264338D01*
X2426119Y1261958D01*
X2426479Y1259531D01*
X2426599Y1257080D01*
X2426479Y1254630D01*
X2426119Y1252203D01*
X2425523Y1249823D01*
X2424696Y1247513D01*
X2423647Y1245296D01*
X2422386Y1243191D01*
X2420925Y1241221D01*
X2419277Y1239403D01*
X2355637Y1175763D01*
X2353819Y1174116D01*
X2351849Y1172654D01*
X2349745Y1171393D01*
X2347527Y1170344D01*
X2345217Y1169517D01*
X2342837Y1168921D01*
X2340410Y1168561D01*
X2337960Y1168441D01*
X2335509Y1168561D01*
X2333082Y1168921D01*
X2330703Y1169517D01*
X2328393Y1170344D01*
X2326175Y1171393D01*
X2324070Y1172654D01*
X2322100Y1174116D01*
X2320282Y1175763D01*
X2274320Y1221725D01*
X2272672Y1223543D01*
X2271211Y1225514D01*
X2269950Y1227618D01*
X2268901Y1229836D01*
X2268074Y1232146D01*
X2267478Y1234526D01*
X2267118Y1236952D01*
X2266998Y1239403D01*
X2267118Y1241853D01*
X2267478Y1244280D01*
X2268074Y1246660D01*
X2268901Y1248970D01*
X2269950Y1251188D01*
X2271211Y1253292D01*
X2272672Y1255263D01*
X2274320Y1257080D01*
X2337960Y1320720D01*
X2339777Y1322368D01*
X2341748Y1323829D01*
X2343852Y1325090D01*
X2346070Y1326139D01*
X2348380Y1326966D01*
X2350760Y1327562D01*
X2353187Y1327922D01*
X2355637Y1328042D01*
X2358088Y1327922D01*
X2358088Y1327922D01*
G37*
D21*
X2346798Y1248242D03*
D13*
G36*
X1481700Y479840D02*
G01*
X1484127Y479480D01*
X1486507Y478883D01*
X1488817Y478057D01*
X1491035Y477008D01*
X1493139Y475747D01*
X1495110Y474285D01*
X1496928Y472638D01*
X1498575Y470820D01*
X1500037Y468849D01*
X1501298Y466745D01*
X1502347Y464527D01*
X1503173Y462217D01*
X1503770Y459837D01*
X1504130Y457410D01*
X1504250Y454960D01*
X1504250Y389960D01*
X1504130Y387509D01*
X1503770Y385083D01*
X1503173Y382703D01*
X1502347Y380393D01*
X1501298Y378175D01*
X1500037Y376071D01*
X1498575Y374100D01*
X1496928Y372282D01*
X1495110Y370635D01*
X1493139Y369173D01*
X1491035Y367912D01*
X1488817Y366863D01*
X1486507Y366036D01*
X1484127Y365440D01*
X1481700Y365080D01*
X1479250Y364960D01*
X1389250Y364960D01*
X1386800Y365080D01*
X1384373Y365440D01*
X1381993Y366036D01*
X1379683Y366863D01*
X1377465Y367912D01*
X1375361Y369173D01*
X1373390Y370635D01*
X1371572Y372282D01*
X1369925Y374100D01*
X1368463Y376071D01*
X1367202Y378175D01*
X1366153Y380393D01*
X1365327Y382703D01*
X1364730Y385083D01*
X1364370Y387509D01*
X1364250Y389960D01*
X1364250Y454960D01*
X1364370Y457410D01*
X1364730Y459837D01*
X1365327Y462217D01*
X1366153Y464527D01*
X1367202Y466745D01*
X1368463Y468849D01*
X1369925Y470820D01*
X1371572Y472638D01*
X1373390Y474285D01*
X1375361Y475747D01*
X1377465Y477008D01*
X1379683Y478057D01*
X1381993Y478883D01*
X1384373Y479480D01*
X1386800Y479840D01*
X1389250Y479960D01*
X1479250Y479960D01*
X1481700Y479840D01*
X1481700Y479840D01*
G37*
D21*
X1434250Y422460D03*
D13*
G36*
X1481700Y274840D02*
G01*
X1484127Y274480D01*
X1486507Y273884D01*
X1488817Y273057D01*
X1491035Y272008D01*
X1493139Y270747D01*
X1495110Y269285D01*
X1496928Y267638D01*
X1498575Y265820D01*
X1500037Y263849D01*
X1501298Y261745D01*
X1502347Y259527D01*
X1503173Y257217D01*
X1503770Y254837D01*
X1504130Y252410D01*
X1504250Y249960D01*
X1504250Y184960D01*
X1504130Y182509D01*
X1503770Y180083D01*
X1503173Y177703D01*
X1502347Y175393D01*
X1501298Y173175D01*
X1500037Y171071D01*
X1498575Y169100D01*
X1496928Y167282D01*
X1495110Y165635D01*
X1493139Y164173D01*
X1491035Y162912D01*
X1488817Y161863D01*
X1486507Y161037D01*
X1484127Y160440D01*
X1481700Y160080D01*
X1479250Y159960D01*
X1389250Y159960D01*
X1386800Y160080D01*
X1384373Y160440D01*
X1381993Y161037D01*
X1379683Y161863D01*
X1377465Y162912D01*
X1375361Y164173D01*
X1373390Y165635D01*
X1371572Y167282D01*
X1369925Y169100D01*
X1368463Y171071D01*
X1367202Y173175D01*
X1366153Y175393D01*
X1365327Y177703D01*
X1364730Y180083D01*
X1364370Y182509D01*
X1364250Y184960D01*
X1364250Y249960D01*
X1364370Y252410D01*
X1364730Y254837D01*
X1365327Y257217D01*
X1366153Y259527D01*
X1367202Y261745D01*
X1368463Y263849D01*
X1369925Y265820D01*
X1371572Y267638D01*
X1373390Y269285D01*
X1375361Y270747D01*
X1377465Y272008D01*
X1379683Y273057D01*
X1381993Y273884D01*
X1384373Y274480D01*
X1386800Y274840D01*
X1389250Y274960D01*
X1479250Y274960D01*
X1481700Y274840D01*
X1481700Y274840D01*
G37*
D21*
X1434250Y217460D03*
D13*
G36*
X3303070Y2928299D02*
G01*
X3305497Y2927939D01*
X3307877Y2927343D01*
X3310187Y2926516D01*
X3312404Y2925467D01*
X3314509Y2924206D01*
X3316479Y2922744D01*
X3318297Y2921097D01*
X3381937Y2857457D01*
X3383584Y2855639D01*
X3385046Y2853669D01*
X3386307Y2851564D01*
X3387356Y2849347D01*
X3388183Y2847037D01*
X3388779Y2844657D01*
X3389139Y2842230D01*
X3389259Y2839780D01*
X3389139Y2837329D01*
X3388779Y2834902D01*
X3388183Y2832522D01*
X3387356Y2830213D01*
X3386307Y2827995D01*
X3385046Y2825890D01*
X3383584Y2823920D01*
X3381937Y2822102D01*
X3335975Y2776140D01*
X3334157Y2774492D01*
X3332186Y2773031D01*
X3330082Y2771770D01*
X3327864Y2770721D01*
X3325554Y2769894D01*
X3323174Y2769298D01*
X3320748Y2768938D01*
X3318297Y2768818D01*
X3315847Y2768938D01*
X3313420Y2769298D01*
X3311040Y2769894D01*
X3308730Y2770721D01*
X3306512Y2771770D01*
X3304408Y2773031D01*
X3302437Y2774492D01*
X3300620Y2776140D01*
X3236980Y2839780D01*
X3235332Y2841597D01*
X3233871Y2843568D01*
X3232610Y2845672D01*
X3231561Y2847890D01*
X3230734Y2850200D01*
X3230138Y2852580D01*
X3229778Y2855007D01*
X3229658Y2857457D01*
X3229778Y2859908D01*
X3230138Y2862334D01*
X3230734Y2864714D01*
X3231561Y2867024D01*
X3232610Y2869242D01*
X3233871Y2871346D01*
X3235332Y2873317D01*
X3236980Y2875135D01*
X3282942Y2921097D01*
X3284760Y2922744D01*
X3286730Y2924206D01*
X3288835Y2925467D01*
X3291053Y2926516D01*
X3293362Y2927343D01*
X3295742Y2927939D01*
X3298169Y2928299D01*
X3300620Y2928419D01*
X3303070Y2928299D01*
X3303070Y2928299D01*
G37*
D21*
X3309458Y2848618D03*
D13*
G36*
X3158113Y2783342D02*
G01*
X3160540Y2782982D01*
X3162920Y2782386D01*
X3165230Y2781559D01*
X3167448Y2780510D01*
X3169552Y2779249D01*
X3171523Y2777788D01*
X3173340Y2776140D01*
X3236980Y2712500D01*
X3238628Y2710683D01*
X3240089Y2708712D01*
X3241350Y2706608D01*
X3242399Y2704390D01*
X3243226Y2702080D01*
X3243822Y2699700D01*
X3244182Y2697273D01*
X3244302Y2694823D01*
X3244182Y2692372D01*
X3243822Y2689946D01*
X3243226Y2687566D01*
X3242399Y2685256D01*
X3241350Y2683038D01*
X3240089Y2680934D01*
X3238628Y2678963D01*
X3236980Y2677145D01*
X3191018Y2631183D01*
X3189200Y2629536D01*
X3187230Y2628074D01*
X3185125Y2626813D01*
X3182907Y2625764D01*
X3180597Y2624937D01*
X3178218Y2624341D01*
X3175791Y2623981D01*
X3173340Y2623861D01*
X3170890Y2623981D01*
X3168463Y2624341D01*
X3166083Y2624937D01*
X3163773Y2625764D01*
X3161555Y2626813D01*
X3159451Y2628074D01*
X3157481Y2629536D01*
X3155663Y2631183D01*
X3092023Y2694823D01*
X3090375Y2696641D01*
X3088914Y2698611D01*
X3087653Y2700716D01*
X3086604Y2702933D01*
X3085777Y2705243D01*
X3085181Y2707623D01*
X3084821Y2710050D01*
X3084701Y2712500D01*
X3084821Y2714951D01*
X3085181Y2717378D01*
X3085777Y2719758D01*
X3086604Y2722067D01*
X3087653Y2724285D01*
X3088914Y2726390D01*
X3090375Y2728360D01*
X3092023Y2730178D01*
X3137985Y2776140D01*
X3139803Y2777788D01*
X3141774Y2779249D01*
X3143878Y2780510D01*
X3146096Y2781559D01*
X3148406Y2782386D01*
X3150786Y2782982D01*
X3153212Y2783342D01*
X3155663Y2783462D01*
X3158113Y2783342D01*
X3158113Y2783342D01*
G37*
D21*
X3164502Y2703662D03*
D13*
G36*
X3772970Y2488879D02*
G01*
X3775397Y2488519D01*
X3777777Y2487923D01*
X3780087Y2487096D01*
X3782304Y2486047D01*
X3784409Y2484786D01*
X3786379Y2483325D01*
X3788197Y2481677D01*
X3851837Y2418037D01*
X3853484Y2416219D01*
X3854946Y2414249D01*
X3856207Y2412145D01*
X3857256Y2409927D01*
X3858083Y2407617D01*
X3858679Y2405237D01*
X3859039Y2402810D01*
X3859159Y2400360D01*
X3859039Y2397909D01*
X3858679Y2395482D01*
X3858083Y2393103D01*
X3857256Y2390793D01*
X3856207Y2388575D01*
X3854946Y2386470D01*
X3853484Y2384500D01*
X3851837Y2382682D01*
X3805875Y2336720D01*
X3804057Y2335072D01*
X3802086Y2333611D01*
X3799982Y2332350D01*
X3797764Y2331301D01*
X3795454Y2330474D01*
X3793074Y2329878D01*
X3790648Y2329518D01*
X3788197Y2329398D01*
X3785747Y2329518D01*
X3783320Y2329878D01*
X3780940Y2330474D01*
X3778630Y2331301D01*
X3776412Y2332350D01*
X3774308Y2333611D01*
X3772337Y2335072D01*
X3770520Y2336720D01*
X3706880Y2400360D01*
X3705232Y2402177D01*
X3703771Y2404148D01*
X3702510Y2406252D01*
X3701461Y2408470D01*
X3700634Y2410780D01*
X3700038Y2413160D01*
X3699678Y2415587D01*
X3699558Y2418037D01*
X3699678Y2420488D01*
X3700038Y2422914D01*
X3700634Y2425294D01*
X3701461Y2427604D01*
X3702510Y2429822D01*
X3703771Y2431926D01*
X3705232Y2433897D01*
X3706880Y2435715D01*
X3752842Y2481677D01*
X3754660Y2483325D01*
X3756630Y2484786D01*
X3758735Y2486047D01*
X3760953Y2487096D01*
X3763262Y2487923D01*
X3765642Y2488519D01*
X3768069Y2488879D01*
X3770520Y2488999D01*
X3772970Y2488879D01*
X3772970Y2488879D01*
G37*
D21*
X3779358Y2409198D03*
D13*
G36*
X3628013Y2343922D02*
G01*
X3630440Y2343562D01*
X3632820Y2342966D01*
X3635130Y2342139D01*
X3637348Y2341090D01*
X3639452Y2339829D01*
X3641423Y2338368D01*
X3643240Y2336720D01*
X3706880Y2273080D01*
X3708528Y2271263D01*
X3709989Y2269292D01*
X3711250Y2267188D01*
X3712299Y2264970D01*
X3713126Y2262660D01*
X3713722Y2260280D01*
X3714082Y2257853D01*
X3714202Y2255403D01*
X3714082Y2252952D01*
X3713722Y2250526D01*
X3713126Y2248146D01*
X3712299Y2245836D01*
X3711250Y2243618D01*
X3709989Y2241514D01*
X3708528Y2239543D01*
X3706880Y2237725D01*
X3660918Y2191763D01*
X3659100Y2190116D01*
X3657130Y2188654D01*
X3655025Y2187393D01*
X3652807Y2186344D01*
X3650497Y2185517D01*
X3648118Y2184921D01*
X3645691Y2184561D01*
X3643240Y2184441D01*
X3640790Y2184561D01*
X3638363Y2184921D01*
X3635983Y2185517D01*
X3633673Y2186344D01*
X3631455Y2187393D01*
X3629351Y2188654D01*
X3627381Y2190116D01*
X3625563Y2191763D01*
X3561923Y2255403D01*
X3560275Y2257221D01*
X3558814Y2259191D01*
X3557553Y2261296D01*
X3556504Y2263513D01*
X3555677Y2265823D01*
X3555081Y2268203D01*
X3554721Y2270630D01*
X3554601Y2273080D01*
X3554721Y2275531D01*
X3555081Y2277958D01*
X3555677Y2280338D01*
X3556504Y2282647D01*
X3557553Y2284865D01*
X3558814Y2286970D01*
X3560275Y2288940D01*
X3561923Y2290758D01*
X3607885Y2336720D01*
X3609703Y2338368D01*
X3611674Y2339829D01*
X3613778Y2341090D01*
X3615996Y2342139D01*
X3618306Y2342966D01*
X3620686Y2343562D01*
X3623112Y2343922D01*
X3625563Y2344042D01*
X3628013Y2343922D01*
X3628013Y2343922D01*
G37*
D21*
X3634402Y2264242D03*
D13*
G36*
X3648750Y697180D02*
G01*
X3651177Y696820D01*
X3653557Y696224D01*
X3655867Y695397D01*
X3658085Y694348D01*
X3660189Y693087D01*
X3662160Y691625D01*
X3663978Y689978D01*
X3665625Y688160D01*
X3667087Y686189D01*
X3668348Y684085D01*
X3669397Y681867D01*
X3670223Y679557D01*
X3670820Y677177D01*
X3671180Y674751D01*
X3671300Y672300D01*
X3671300Y582300D01*
X3671180Y579850D01*
X3670820Y577423D01*
X3670223Y575043D01*
X3669397Y572733D01*
X3668348Y570515D01*
X3667087Y568411D01*
X3665625Y566440D01*
X3663978Y564622D01*
X3662160Y562975D01*
X3660189Y561513D01*
X3658085Y560252D01*
X3655867Y559203D01*
X3653557Y558377D01*
X3651177Y557780D01*
X3648750Y557420D01*
X3646300Y557300D01*
X3581300Y557300D01*
X3578849Y557420D01*
X3576423Y557780D01*
X3574043Y558377D01*
X3571733Y559203D01*
X3569515Y560252D01*
X3567411Y561513D01*
X3565440Y562975D01*
X3563622Y564622D01*
X3561975Y566440D01*
X3560513Y568411D01*
X3559252Y570515D01*
X3558203Y572733D01*
X3557376Y575043D01*
X3556780Y577423D01*
X3556420Y579850D01*
X3556300Y582300D01*
X3556300Y672300D01*
X3556420Y674751D01*
X3556780Y677177D01*
X3557376Y679557D01*
X3558203Y681867D01*
X3559252Y684085D01*
X3560513Y686189D01*
X3561975Y688160D01*
X3563622Y689978D01*
X3565440Y691625D01*
X3567411Y693087D01*
X3569515Y694348D01*
X3571733Y695397D01*
X3574043Y696224D01*
X3576423Y696820D01*
X3578849Y697180D01*
X3581300Y697300D01*
X3646300Y697300D01*
X3648750Y697180D01*
X3648750Y697180D01*
G37*
D21*
X3613800Y627300D03*
D13*
G36*
X3443750Y697180D02*
G01*
X3446177Y696820D01*
X3448557Y696224D01*
X3450867Y695397D01*
X3453085Y694348D01*
X3455189Y693087D01*
X3457160Y691625D01*
X3458978Y689978D01*
X3460625Y688160D01*
X3462087Y686189D01*
X3463348Y684085D01*
X3464397Y681867D01*
X3465223Y679557D01*
X3465820Y677177D01*
X3466180Y674751D01*
X3466300Y672300D01*
X3466300Y582300D01*
X3466180Y579850D01*
X3465820Y577423D01*
X3465223Y575043D01*
X3464397Y572733D01*
X3463348Y570515D01*
X3462087Y568411D01*
X3460625Y566440D01*
X3458978Y564622D01*
X3457160Y562975D01*
X3455189Y561513D01*
X3453085Y560252D01*
X3450867Y559203D01*
X3448557Y558377D01*
X3446177Y557780D01*
X3443750Y557420D01*
X3441300Y557300D01*
X3376300Y557300D01*
X3373849Y557420D01*
X3371423Y557780D01*
X3369043Y558377D01*
X3366733Y559203D01*
X3364515Y560252D01*
X3362411Y561513D01*
X3360440Y562975D01*
X3358622Y564622D01*
X3356975Y566440D01*
X3355513Y568411D01*
X3354252Y570515D01*
X3353203Y572733D01*
X3352376Y575043D01*
X3351780Y577423D01*
X3351420Y579850D01*
X3351300Y582300D01*
X3351300Y672300D01*
X3351420Y674751D01*
X3351780Y677177D01*
X3352376Y679557D01*
X3353203Y681867D01*
X3354252Y684085D01*
X3355513Y686189D01*
X3356975Y688160D01*
X3358622Y689978D01*
X3360440Y691625D01*
X3362411Y693087D01*
X3364515Y694348D01*
X3366733Y695397D01*
X3369043Y696224D01*
X3371423Y696820D01*
X3373849Y697180D01*
X3376300Y697300D01*
X3441300Y697300D01*
X3443750Y697180D01*
X3443750Y697180D01*
G37*
D21*
X3408800Y627300D03*
D23*
X1184000Y278812D03*
X784000Y278812D03*
D24*
X4843860Y3239940D03*
X4843860Y3429940D03*
X5043860Y3334940D03*
X5475660Y3334940D03*
X5275660Y3429940D03*
X5275660Y3239940D03*
D13*
G36*
X1615650Y2346130D02*
G01*
X1618077Y2345770D01*
X1620457Y2345174D01*
X1622767Y2344347D01*
X1624985Y2343298D01*
X1627089Y2342037D01*
X1629060Y2340575D01*
X1630878Y2338928D01*
X1632525Y2337110D01*
X1633987Y2335139D01*
X1635248Y2333035D01*
X1636297Y2330817D01*
X1637123Y2328507D01*
X1637720Y2326127D01*
X1638080Y2323701D01*
X1638200Y2321250D01*
X1638200Y2256250D01*
X1638080Y2253800D01*
X1637720Y2251373D01*
X1637123Y2248993D01*
X1636297Y2246683D01*
X1635248Y2244465D01*
X1633987Y2242361D01*
X1632525Y2240390D01*
X1630878Y2238572D01*
X1629060Y2236925D01*
X1627089Y2235463D01*
X1624985Y2234202D01*
X1622767Y2233153D01*
X1620457Y2232327D01*
X1618077Y2231730D01*
X1615650Y2231370D01*
X1613200Y2231250D01*
X1523200Y2231250D01*
X1520749Y2231370D01*
X1518323Y2231730D01*
X1515943Y2232327D01*
X1513633Y2233153D01*
X1511415Y2234202D01*
X1509311Y2235463D01*
X1507340Y2236925D01*
X1505522Y2238572D01*
X1503875Y2240390D01*
X1502413Y2242361D01*
X1501152Y2244465D01*
X1500103Y2246683D01*
X1499276Y2248993D01*
X1498680Y2251373D01*
X1498320Y2253800D01*
X1498200Y2256250D01*
X1498200Y2321250D01*
X1498320Y2323701D01*
X1498680Y2326127D01*
X1499276Y2328507D01*
X1500103Y2330817D01*
X1501152Y2333035D01*
X1502413Y2335139D01*
X1503875Y2337110D01*
X1505522Y2338928D01*
X1507340Y2340575D01*
X1509311Y2342037D01*
X1511415Y2343298D01*
X1513633Y2344347D01*
X1515943Y2345174D01*
X1518323Y2345770D01*
X1520749Y2346130D01*
X1523200Y2346250D01*
X1613200Y2346250D01*
X1615650Y2346130D01*
X1615650Y2346130D01*
G37*
D21*
X1568200Y2288750D03*
D13*
G36*
X1615650Y2141130D02*
G01*
X1618077Y2140770D01*
X1620457Y2140174D01*
X1622767Y2139347D01*
X1624985Y2138298D01*
X1627089Y2137037D01*
X1629060Y2135575D01*
X1630878Y2133928D01*
X1632525Y2132110D01*
X1633987Y2130139D01*
X1635248Y2128035D01*
X1636297Y2125817D01*
X1637123Y2123507D01*
X1637720Y2121127D01*
X1638080Y2118701D01*
X1638200Y2116250D01*
X1638200Y2051250D01*
X1638080Y2048799D01*
X1637720Y2046373D01*
X1637123Y2043993D01*
X1636297Y2041683D01*
X1635248Y2039465D01*
X1633987Y2037361D01*
X1632525Y2035390D01*
X1630878Y2033572D01*
X1629060Y2031925D01*
X1627089Y2030463D01*
X1624985Y2029202D01*
X1622767Y2028153D01*
X1620457Y2027326D01*
X1618077Y2026730D01*
X1615650Y2026370D01*
X1613200Y2026250D01*
X1523200Y2026250D01*
X1520749Y2026370D01*
X1518323Y2026730D01*
X1515943Y2027326D01*
X1513633Y2028153D01*
X1511415Y2029202D01*
X1509311Y2030463D01*
X1507340Y2031925D01*
X1505522Y2033572D01*
X1503875Y2035390D01*
X1502413Y2037361D01*
X1501152Y2039465D01*
X1500103Y2041683D01*
X1499276Y2043993D01*
X1498680Y2046373D01*
X1498320Y2048799D01*
X1498200Y2051250D01*
X1498200Y2116250D01*
X1498320Y2118701D01*
X1498680Y2121127D01*
X1499276Y2123507D01*
X1500103Y2125817D01*
X1501152Y2128035D01*
X1502413Y2130139D01*
X1503875Y2132110D01*
X1505522Y2133928D01*
X1507340Y2135575D01*
X1509311Y2137037D01*
X1511415Y2138298D01*
X1513633Y2139347D01*
X1515943Y2140174D01*
X1518323Y2140770D01*
X1520749Y2141130D01*
X1523200Y2141250D01*
X1613200Y2141250D01*
X1615650Y2141130D01*
X1615650Y2141130D01*
G37*
D21*
X1568200Y2083750D03*
D25*
X6089400Y3167300D03*
D26*
X6089400Y2767300D03*
D27*
X2691811Y2581230D03*
D13*
G36*
X2728934Y2657244D02*
G01*
X2767825Y2618353D01*
X2654687Y2505216D01*
X2615797Y2544107D01*
X2728934Y2657244D01*
X2728934Y2657244D01*
G37*
D27*
X2748379Y2524662D03*
D13*
G36*
X2785502Y2600676D02*
G01*
X2824393Y2561785D01*
X2711256Y2448648D01*
X2672365Y2487539D01*
X2785502Y2600676D01*
X2785502Y2600676D01*
G37*
D27*
X2804948Y2468093D03*
D13*
G36*
X2842071Y2544107D02*
G01*
X2880962Y2505216D01*
X2767825Y2392079D01*
X2728934Y2430970D01*
X2842071Y2544107D01*
X2842071Y2544107D01*
G37*
D27*
X2861516Y2411525D03*
D13*
G36*
X2898639Y2487539D02*
G01*
X2937530Y2448648D01*
X2824393Y2335511D01*
X2785502Y2374402D01*
X2898639Y2487539D01*
X2898639Y2487539D01*
G37*
D27*
X2918085Y2354956D03*
D13*
G36*
X2955208Y2430970D02*
G01*
X2994099Y2392079D01*
X2880962Y2278942D01*
X2842071Y2317833D01*
X2955208Y2430970D01*
X2955208Y2430970D01*
G37*
D27*
X2974653Y2298388D03*
D13*
G36*
X3011776Y2374402D02*
G01*
X3050667Y2335511D01*
X2937530Y2222374D01*
X2898639Y2261265D01*
X3011776Y2374402D01*
X3011776Y2374402D01*
G37*
D27*
X3031222Y2241819D03*
D13*
G36*
X3068345Y2317833D02*
G01*
X3107236Y2278942D01*
X2994099Y2165805D01*
X2955208Y2204696D01*
X3068345Y2317833D01*
X3068345Y2317833D01*
G37*
D27*
X3087790Y2185251D03*
D13*
G36*
X3124913Y2261265D02*
G01*
X3163804Y2222374D01*
X3050667Y2109237D01*
X3011776Y2148127D01*
X3124913Y2261265D01*
X3124913Y2261265D01*
G37*
D27*
X3087790Y1980189D03*
D13*
G36*
X3163804Y1943066D02*
G01*
X3124913Y1904175D01*
X3011776Y2017313D01*
X3050667Y2056203D01*
X3163804Y1943066D01*
X3163804Y1943066D01*
G37*
D27*
X3031222Y1923621D03*
D13*
G36*
X3107236Y1886498D02*
G01*
X3068345Y1847607D01*
X2955208Y1960744D01*
X2994099Y1999635D01*
X3107236Y1886498D01*
X3107236Y1886498D01*
G37*
D27*
X2974653Y1867052D03*
D13*
G36*
X3050667Y1829929D02*
G01*
X3011776Y1791038D01*
X2898639Y1904175D01*
X2937530Y1943066D01*
X3050667Y1829929D01*
X3050667Y1829929D01*
G37*
D27*
X2918085Y1810484D03*
D13*
G36*
X2994099Y1773361D02*
G01*
X2955208Y1734470D01*
X2842071Y1847607D01*
X2880962Y1886498D01*
X2994099Y1773361D01*
X2994099Y1773361D01*
G37*
D27*
X2861516Y1753915D03*
D13*
G36*
X2937530Y1716792D02*
G01*
X2898639Y1677901D01*
X2785502Y1791038D01*
X2824393Y1829929D01*
X2937530Y1716792D01*
X2937530Y1716792D01*
G37*
D27*
X2804948Y1697347D03*
D13*
G36*
X2880962Y1660224D02*
G01*
X2842071Y1621333D01*
X2728934Y1734470D01*
X2767825Y1773361D01*
X2880962Y1660224D01*
X2880962Y1660224D01*
G37*
D27*
X2748379Y1640778D03*
D13*
G36*
X2824393Y1603655D02*
G01*
X2785502Y1564764D01*
X2672365Y1677901D01*
X2711256Y1716792D01*
X2824393Y1603655D01*
X2824393Y1603655D01*
G37*
D27*
X2691811Y1584210D03*
D13*
G36*
X2767825Y1547087D02*
G01*
X2728934Y1508196D01*
X2615797Y1621333D01*
X2654687Y1660224D01*
X2767825Y1547087D01*
X2767825Y1547087D01*
G37*
D27*
X2486750Y1584210D03*
D13*
G36*
X2523873Y1660224D02*
G01*
X2562764Y1621333D01*
X2449626Y1508196D01*
X2410736Y1547087D01*
X2523873Y1660224D01*
X2523873Y1660224D01*
G37*
D27*
X2430181Y1640778D03*
D13*
G36*
X2467304Y1716792D02*
G01*
X2506195Y1677901D01*
X2393058Y1564764D01*
X2354167Y1603655D01*
X2467304Y1716792D01*
X2467304Y1716792D01*
G37*
D27*
X2373612Y1697347D03*
D13*
G36*
X2410736Y1773361D02*
G01*
X2449626Y1734470D01*
X2336489Y1621333D01*
X2297598Y1660224D01*
X2410736Y1773361D01*
X2410736Y1773361D01*
G37*
D27*
X2317044Y1753915D03*
D13*
G36*
X2354167Y1829929D02*
G01*
X2393058Y1791038D01*
X2279921Y1677901D01*
X2241030Y1716792D01*
X2354167Y1829929D01*
X2354167Y1829929D01*
G37*
D27*
X2260475Y1810484D03*
D13*
G36*
X2297598Y1886498D02*
G01*
X2336489Y1847607D01*
X2223352Y1734470D01*
X2184461Y1773361D01*
X2297598Y1886498D01*
X2297598Y1886498D01*
G37*
D27*
X2203907Y1867052D03*
D13*
G36*
X2241030Y1943066D02*
G01*
X2279921Y1904175D01*
X2166784Y1791038D01*
X2127893Y1829929D01*
X2241030Y1943066D01*
X2241030Y1943066D01*
G37*
D27*
X2147338Y1923621D03*
D13*
G36*
X2184461Y1999635D02*
G01*
X2223352Y1960744D01*
X2110215Y1847607D01*
X2071324Y1886498D01*
X2184461Y1999635D01*
X2184461Y1999635D01*
G37*
D27*
X2090770Y1980189D03*
D13*
G36*
X2127893Y2056203D02*
G01*
X2166784Y2017313D01*
X2053647Y1904175D01*
X2014756Y1943066D01*
X2127893Y2056203D01*
X2127893Y2056203D01*
G37*
D27*
X2090770Y2185251D03*
D13*
G36*
X2166784Y2148127D02*
G01*
X2127893Y2109237D01*
X2014756Y2222374D01*
X2053647Y2261265D01*
X2166784Y2148127D01*
X2166784Y2148127D01*
G37*
D27*
X2147338Y2241819D03*
D13*
G36*
X2223352Y2204696D02*
G01*
X2184461Y2165805D01*
X2071324Y2278942D01*
X2110215Y2317833D01*
X2223352Y2204696D01*
X2223352Y2204696D01*
G37*
D27*
X2203907Y2298388D03*
D13*
G36*
X2279921Y2261265D02*
G01*
X2241030Y2222374D01*
X2127893Y2335511D01*
X2166784Y2374402D01*
X2279921Y2261265D01*
X2279921Y2261265D01*
G37*
D27*
X2260475Y2354956D03*
D13*
G36*
X2336489Y2317833D02*
G01*
X2297598Y2278942D01*
X2184461Y2392079D01*
X2223352Y2430970D01*
X2336489Y2317833D01*
X2336489Y2317833D01*
G37*
D27*
X2317044Y2411525D03*
D13*
G36*
X2393058Y2374402D02*
G01*
X2354167Y2335511D01*
X2241030Y2448648D01*
X2279921Y2487539D01*
X2393058Y2374402D01*
X2393058Y2374402D01*
G37*
D27*
X2373612Y2468093D03*
D13*
G36*
X2449626Y2430970D02*
G01*
X2410736Y2392079D01*
X2297598Y2505216D01*
X2336489Y2544107D01*
X2449626Y2430970D01*
X2449626Y2430970D01*
G37*
D27*
X2430181Y2524662D03*
D13*
G36*
X2506195Y2487539D02*
G01*
X2467304Y2448648D01*
X2354167Y2561785D01*
X2393058Y2600676D01*
X2506195Y2487539D01*
X2506195Y2487539D01*
G37*
D27*
X2486750Y2581230D03*
D13*
G36*
X2562764Y2544107D02*
G01*
X2523873Y2505216D01*
X2410736Y2618353D01*
X2449626Y2657244D01*
X2562764Y2544107D01*
X2562764Y2544107D01*
G37*
D28*
X4100000Y249000D03*
D29*
X4100000Y503000D03*
X4354000Y249000D03*
X4354000Y503000D03*
X4608000Y249000D03*
X4608000Y503000D03*
X4862000Y249000D03*
X4862000Y503000D03*
X5116000Y249000D03*
X5116000Y503000D03*
X5370000Y249000D03*
X5370000Y503000D03*
X5624000Y249000D03*
X5624000Y503000D03*
X5878000Y249000D03*
X5878000Y503000D03*
X6132000Y249000D03*
X6132000Y503000D03*
X6386000Y249000D03*
X6386000Y503000D03*
X6640000Y249000D03*
X6640000Y503000D03*
X6894000Y249000D03*
X6894000Y503000D03*
D30*
X806200Y2240200D03*
X1060200Y2494200D03*
X806200Y2748200D03*
D31*
X3314580Y2556580D03*
X3489580Y2556580D03*
X3489580Y2416580D03*
X3314580Y2416580D03*
D13*
G36*
X2064100Y366700D02*
G01*
X2066527Y366340D01*
X2068907Y365743D01*
X2071217Y364917D01*
X2073435Y363868D01*
X2075539Y362607D01*
X2077510Y361145D01*
X2079328Y359498D01*
X2080975Y357680D01*
X2082437Y355709D01*
X2083698Y353605D01*
X2084747Y351387D01*
X2085573Y349077D01*
X2086170Y346697D01*
X2086530Y344270D01*
X2086650Y341820D01*
X2086650Y216820D01*
X2086530Y214370D01*
X2086170Y211943D01*
X2085573Y209563D01*
X2084747Y207253D01*
X2083698Y205035D01*
X2082437Y202931D01*
X2080975Y200960D01*
X2079328Y199142D01*
X2077510Y197495D01*
X2075539Y196033D01*
X2073435Y194772D01*
X2071217Y193723D01*
X2068907Y192896D01*
X2066527Y192300D01*
X2064100Y191940D01*
X2061650Y191820D01*
X1969150Y191820D01*
X1966700Y191940D01*
X1964273Y192300D01*
X1961893Y192896D01*
X1959583Y193723D01*
X1957365Y194772D01*
X1955261Y196033D01*
X1953290Y197495D01*
X1951472Y199142D01*
X1949825Y200960D01*
X1948363Y202931D01*
X1947102Y205035D01*
X1946053Y207253D01*
X1945226Y209563D01*
X1944630Y211943D01*
X1944270Y214370D01*
X1944150Y216820D01*
X1944150Y341820D01*
X1944270Y344270D01*
X1944630Y346697D01*
X1945226Y349077D01*
X1946053Y351387D01*
X1947102Y353605D01*
X1948363Y355709D01*
X1949825Y357680D01*
X1951472Y359498D01*
X1953290Y361145D01*
X1955261Y362607D01*
X1957365Y363868D01*
X1959583Y364917D01*
X1961893Y365743D01*
X1964273Y366340D01*
X1966700Y366700D01*
X1969150Y366820D01*
X2061650Y366820D01*
X2064100Y366700D01*
X2064100Y366700D01*
G37*
D14*
X2015400Y279320D03*
D13*
G36*
X1766600Y366700D02*
G01*
X1769027Y366340D01*
X1771407Y365743D01*
X1773717Y364917D01*
X1775935Y363868D01*
X1778039Y362607D01*
X1780010Y361145D01*
X1781828Y359498D01*
X1783475Y357680D01*
X1784937Y355709D01*
X1786198Y353605D01*
X1787247Y351387D01*
X1788073Y349077D01*
X1788670Y346697D01*
X1789030Y344270D01*
X1789150Y341820D01*
X1789150Y216820D01*
X1789030Y214370D01*
X1788670Y211943D01*
X1788073Y209563D01*
X1787247Y207253D01*
X1786198Y205035D01*
X1784937Y202931D01*
X1783475Y200960D01*
X1781828Y199142D01*
X1780010Y197495D01*
X1778039Y196033D01*
X1775935Y194772D01*
X1773717Y193723D01*
X1771407Y192896D01*
X1769027Y192300D01*
X1766600Y191940D01*
X1764150Y191820D01*
X1671650Y191820D01*
X1669200Y191940D01*
X1666773Y192300D01*
X1664393Y192896D01*
X1662083Y193723D01*
X1659865Y194772D01*
X1657761Y196033D01*
X1655790Y197495D01*
X1653972Y199142D01*
X1652325Y200960D01*
X1650863Y202931D01*
X1649602Y205035D01*
X1648553Y207253D01*
X1647726Y209563D01*
X1647130Y211943D01*
X1646770Y214370D01*
X1646650Y216820D01*
X1646650Y341820D01*
X1646770Y344270D01*
X1647130Y346697D01*
X1647726Y349077D01*
X1648553Y351387D01*
X1649602Y353605D01*
X1650863Y355709D01*
X1652325Y357680D01*
X1653972Y359498D01*
X1655790Y361145D01*
X1657761Y362607D01*
X1659865Y363868D01*
X1662083Y364917D01*
X1664393Y365743D01*
X1666773Y366340D01*
X1669200Y366700D01*
X1671650Y366820D01*
X1764150Y366820D01*
X1766600Y366700D01*
X1766600Y366700D01*
G37*
D14*
X1717900Y279320D03*
D13*
G36*
X2064100Y595300D02*
G01*
X2066527Y594940D01*
X2068907Y594344D01*
X2071217Y593517D01*
X2073435Y592468D01*
X2075539Y591207D01*
X2077510Y589745D01*
X2079328Y588098D01*
X2080975Y586280D01*
X2082437Y584309D01*
X2083698Y582205D01*
X2084747Y579987D01*
X2085573Y577677D01*
X2086170Y575297D01*
X2086530Y572870D01*
X2086650Y570420D01*
X2086650Y445420D01*
X2086530Y442970D01*
X2086170Y440543D01*
X2085573Y438163D01*
X2084747Y435853D01*
X2083698Y433635D01*
X2082437Y431531D01*
X2080975Y429560D01*
X2079328Y427742D01*
X2077510Y426095D01*
X2075539Y424633D01*
X2073435Y423372D01*
X2071217Y422323D01*
X2068907Y421496D01*
X2066527Y420900D01*
X2064100Y420540D01*
X2061650Y420420D01*
X1969150Y420420D01*
X1966700Y420540D01*
X1964273Y420900D01*
X1961893Y421496D01*
X1959583Y422323D01*
X1957365Y423372D01*
X1955261Y424633D01*
X1953290Y426095D01*
X1951472Y427742D01*
X1949825Y429560D01*
X1948363Y431531D01*
X1947102Y433635D01*
X1946053Y435853D01*
X1945226Y438163D01*
X1944630Y440543D01*
X1944270Y442970D01*
X1944150Y445420D01*
X1944150Y570420D01*
X1944270Y572870D01*
X1944630Y575297D01*
X1945226Y577677D01*
X1946053Y579987D01*
X1947102Y582205D01*
X1948363Y584309D01*
X1949825Y586280D01*
X1951472Y588098D01*
X1953290Y589745D01*
X1955261Y591207D01*
X1957365Y592468D01*
X1959583Y593517D01*
X1961893Y594344D01*
X1964273Y594940D01*
X1966700Y595300D01*
X1969150Y595420D01*
X2061650Y595420D01*
X2064100Y595300D01*
X2064100Y595300D01*
G37*
D14*
X2015400Y507920D03*
D13*
G36*
X1766600Y595300D02*
G01*
X1769027Y594940D01*
X1771407Y594344D01*
X1773717Y593517D01*
X1775935Y592468D01*
X1778039Y591207D01*
X1780010Y589745D01*
X1781828Y588098D01*
X1783475Y586280D01*
X1784937Y584309D01*
X1786198Y582205D01*
X1787247Y579987D01*
X1788073Y577677D01*
X1788670Y575297D01*
X1789030Y572870D01*
X1789150Y570420D01*
X1789150Y445420D01*
X1789030Y442970D01*
X1788670Y440543D01*
X1788073Y438163D01*
X1787247Y435853D01*
X1786198Y433635D01*
X1784937Y431531D01*
X1783475Y429560D01*
X1781828Y427742D01*
X1780010Y426095D01*
X1778039Y424633D01*
X1775935Y423372D01*
X1773717Y422323D01*
X1771407Y421496D01*
X1769027Y420900D01*
X1766600Y420540D01*
X1764150Y420420D01*
X1671650Y420420D01*
X1669200Y420540D01*
X1666773Y420900D01*
X1664393Y421496D01*
X1662083Y422323D01*
X1659865Y423372D01*
X1657761Y424633D01*
X1655790Y426095D01*
X1653972Y427742D01*
X1652325Y429560D01*
X1650863Y431531D01*
X1649602Y433635D01*
X1648553Y435853D01*
X1647726Y438163D01*
X1647130Y440543D01*
X1646770Y442970D01*
X1646650Y445420D01*
X1646650Y570420D01*
X1646770Y572870D01*
X1647130Y575297D01*
X1647726Y577677D01*
X1648553Y579987D01*
X1649602Y582205D01*
X1650863Y584309D01*
X1652325Y586280D01*
X1653972Y588098D01*
X1655790Y589745D01*
X1657761Y591207D01*
X1659865Y592468D01*
X1662083Y593517D01*
X1664393Y594344D01*
X1666773Y594940D01*
X1669200Y595300D01*
X1671650Y595420D01*
X1764150Y595420D01*
X1766600Y595300D01*
X1766600Y595300D01*
G37*
D14*
X1717900Y507920D03*
D32*
X1460000Y2810000D03*
X2240000Y2810000D03*
D33*
X6699000Y3141640D03*
X6699000Y2791640D03*
D34*
X6172280Y1754300D03*
X6045280Y1754300D03*
X5918280Y1754300D03*
X5791280Y1754300D03*
X5791280Y2294300D03*
X5918280Y2294300D03*
X6045280Y2294300D03*
X6172280Y2294300D03*
D35*
X7300000Y400000D03*
D36*
X107600Y1804800D03*
X107600Y604800D03*
X5068320Y3484800D03*
X7306060Y1803320D03*
X7153660Y1955720D03*
X7153660Y1650920D03*
X7458460Y1650920D03*
X7458460Y1955720D03*
X2436960Y1158080D03*
X7892800Y604800D03*
X2228600Y2092880D03*
X2929948Y2593093D03*
X4832100Y1719500D03*
X4451100Y2265000D03*
X1436120Y3065700D03*
X1403100Y1986200D03*
X4959100Y2265000D03*
X7892800Y3004800D03*
X7892800Y2404800D03*
X7892800Y1204800D03*
X7892800Y1804800D03*
X7283200Y106600D03*
X5483200Y3484800D03*
X7283200Y3484800D03*
X6683200Y3484800D03*
X3517200Y106600D03*
X2917200Y106600D03*
X107600Y2404800D03*
X107600Y3004800D03*
X517200Y106600D03*
X1117200Y106600D03*
X1717200Y106600D03*
X2317200Y106600D03*
X6083200Y3484800D03*
X5497000Y106600D03*
X6513000Y106600D03*
X6005000Y106600D03*
X4989000Y106600D03*
X7022850Y773350D03*
X2073660Y2809160D03*
X1225300Y2810000D03*
X3516380Y2185470D03*
X3267460Y2185470D03*
X6955540Y2776140D03*
X7640000Y919400D03*
X3986280Y2405300D03*
X3854200Y2898060D03*
X3600200Y2898060D03*
X3144000Y2865000D03*
X3811020Y2235120D03*
X3678940Y2593260D03*
X3521460Y2738040D03*
X3043085Y2479956D03*
X6530000Y2315000D03*
X7640000Y2680000D03*
X1631700Y2809160D03*
X783340Y1584880D03*
X1403100Y2443400D03*
X3986280Y2669460D03*
X1717900Y750000D03*
X783340Y1000680D03*
X417580Y2113200D03*
X417580Y2682160D03*
X1060200Y1816020D03*
X2551180Y299640D03*
X6530000Y1500000D03*
X5791280Y1500000D03*
X5599500Y1754300D03*
X2276860Y2621200D03*
X6045280Y2153840D03*
X5599500Y2315000D03*
X1682500Y2519600D03*
X1206250Y664500D03*
X2138000Y1560000D03*
X5599500Y2970000D03*
X5213100Y1605200D03*
X5490661Y1877681D03*
X1608840Y1816020D03*
X1519940Y1816020D03*
X1431040Y1816020D03*
X5395665Y1877681D03*
X5599500Y3167300D03*
X2529960Y1738920D03*
X5004450Y2914200D03*
X6172280Y2153840D03*
X4472850Y2726450D03*
X2194080Y1244000D03*
X2679450Y703500D03*
X5370000Y1000000D03*
X5624000Y1000000D03*
X2673100Y2974260D03*
X2927100Y2974260D03*
X2800100Y2903140D03*
X2546100Y2903140D03*
X2474506Y2367200D03*
X6894000Y1000000D03*
X4337270Y2021840D03*
X6640000Y1000000D03*
X2596533Y2358310D03*
X4254060Y2097960D03*
X2419100Y2974260D03*
X5340100Y2153840D03*
X5918280Y2153840D03*
X2438150Y2177970D03*
X6386000Y1000000D03*
X5213100Y2011600D03*
X5791280Y2011600D03*
X2323850Y2177970D03*
X6132000Y1000000D03*
X3316990Y1299130D03*
X3471930Y1454070D03*
X3008380Y728900D03*
X2863600Y1173400D03*
X5878000Y1000000D03*
X3132840Y1368980D03*
X3305560Y1541700D03*
X2919480Y652700D03*
X2657860Y1224200D03*
X2406400Y507920D03*
X5116000Y1000000D03*
X5043860Y3240960D03*
X5086100Y2532300D03*
X5599500Y2532300D03*
D37*
X2803932Y2467044D02*
X2725424Y2388536D01*
D38*
X3333350Y2416580D02*
X3473350Y2556580D01*
D37*
X2918085Y2354956D02*
X3043085Y2479956D01*
X2804948Y2468093D02*
X2929948Y2593093D01*
X2929948Y2593093D02*
X3043085Y2479956D01*
X2378460Y1928469D02*
X2260475Y1810484D01*
X2378460Y1943020D02*
X2378460Y1928469D01*
X2228600Y2092880D02*
X2378460Y1943020D01*
D39*
X2346798Y1248242D02*
X2436960Y1158080D01*
D40*
X1434250Y422460D02*
X1298480Y422460D01*
D37*
X2138000Y1688009D02*
X2260475Y1810484D01*
X2138000Y1560000D02*
X2138000Y1688009D01*
X6045280Y2294300D02*
X6045280Y2153840D01*
X4959100Y2435960D02*
X4959100Y2265000D01*
X4832100Y1505960D02*
X4832100Y1719500D01*
X4451100Y2435960D02*
X4451100Y2265000D01*
D41*
X1055910Y3124910D02*
X1055910Y3349070D01*
X806200Y2875200D02*
X1055910Y3124910D01*
D40*
X2774700Y2301160D02*
X2774700Y2324020D01*
X2861516Y2410836D02*
X2774700Y2324020D01*
D38*
X6089400Y3167300D02*
X6411980Y3167300D01*
X6437640Y3141640D02*
X6699000Y3141640D01*
X6411980Y3167300D02*
X6437640Y3141640D01*
D41*
X3915320Y503000D02*
X4608000Y503000D01*
X2025400Y690800D02*
X2431800Y690800D01*
X2431800Y690800D02*
X2741680Y380920D01*
X2741680Y380920D02*
X3793240Y380920D01*
X3793240Y380920D02*
X3915320Y503000D01*
X1213950Y1816020D02*
X1608840Y1816020D01*
D40*
X2891540Y2214800D02*
X2861060Y2214800D01*
X2974653Y2297913D02*
X2891540Y2214800D01*
D37*
X2431818Y1640778D02*
X2529960Y1738920D01*
D41*
X806200Y2494200D02*
X1213950Y2086450D01*
D40*
X2774700Y2301160D02*
X2861060Y2214800D01*
X2652780Y1861740D02*
X2529960Y1738920D01*
X2817000Y2258000D02*
X2652780Y2093780D01*
X2652780Y2093780D02*
X2652780Y1861740D01*
D41*
X1213950Y2086450D02*
X1213950Y1302200D01*
D39*
X5490661Y1877681D02*
X5395665Y1877681D01*
D40*
X6146550Y2449750D02*
X5492500Y2449750D01*
X5918280Y1749220D02*
X5918280Y1945560D01*
X6172280Y2424020D02*
X6146550Y2449750D01*
X1608840Y1816020D02*
X1608840Y1932860D01*
X1568200Y1973500D02*
X1568200Y2083750D01*
X1608840Y1932860D02*
X1568200Y1973500D01*
D39*
X4357910Y2726450D02*
X4472850Y2726450D01*
D37*
X5213100Y1505960D02*
X5213100Y1605200D01*
D41*
X806200Y2494200D02*
X806200Y2875200D01*
X1468200Y1032550D02*
X1206250Y1294500D01*
X1683650Y1032550D02*
X1468200Y1032550D01*
X1683650Y1032550D02*
X2025400Y690800D01*
D37*
X5490661Y3058461D02*
X5599500Y3167300D01*
X5004450Y2914200D02*
X5487122Y2914200D01*
X5490661Y1877681D02*
X5490661Y3058461D01*
D40*
X6172280Y2424020D02*
X6172280Y2082280D01*
X6108640Y2018640D02*
X5991360Y2018640D01*
X6172280Y2082280D02*
X6108640Y2018640D01*
X5918280Y1945560D02*
X5991360Y2018640D01*
D38*
X2210820Y1648380D02*
X2210820Y1402177D01*
X2316355Y1753915D02*
X2210820Y1648380D01*
X3760859Y498399D02*
X2819781Y498399D01*
X4735580Y622220D02*
X4680307Y677493D01*
X4680307Y677493D02*
X3939953Y677493D01*
X3939953Y677493D02*
X3760859Y498399D01*
X2679450Y638730D02*
X2819781Y498399D01*
X2679450Y703500D02*
X2679450Y638730D01*
X4735580Y375420D02*
X4862000Y249000D01*
X4735580Y622220D02*
X4735580Y375420D01*
X2194080Y1244000D02*
X2194080Y1380357D01*
X3634402Y2271758D02*
X3489580Y2416580D01*
X3175760Y2273220D02*
X3625423Y2273220D01*
X3087790Y2185251D02*
X3175760Y2273220D01*
X4862000Y610100D02*
X4862000Y503000D01*
X3613800Y627300D02*
X3803400Y627300D01*
X4754606Y717494D02*
X4862000Y610100D01*
X3893594Y717494D02*
X3803400Y627300D01*
X4754606Y717494D02*
X3893594Y717494D01*
D41*
X722380Y573620D02*
X321000Y975000D01*
X722380Y358060D02*
X722380Y573620D01*
X784000Y296440D02*
X722380Y358060D01*
D38*
X1309910Y3349070D02*
X1309910Y3150310D01*
X1060200Y2494200D02*
X1060200Y2900600D01*
X1309910Y3150310D02*
X1060200Y2900600D01*
X5249940Y1120060D02*
X5370000Y1000000D01*
X3155700Y1120060D02*
X5249940Y1120060D01*
X2691811Y1583949D02*
X3155700Y1120060D01*
X5463939Y1160061D02*
X5624000Y1000000D01*
X3229999Y1160061D02*
X5463939Y1160061D01*
X2749282Y1640778D02*
X3229999Y1160061D01*
X3207139Y1861101D02*
X3577971Y1861101D01*
X3088050Y1980189D02*
X3207139Y1861101D01*
X3577971Y1861101D02*
X4099890Y2383020D01*
X2673100Y2974260D02*
X2771184Y3072344D01*
X2771184Y3072344D02*
X3907656Y3072344D01*
X3907656Y3072344D02*
X4099890Y2880110D01*
X4099890Y2880110D02*
X4099890Y2383020D01*
X2927100Y2702480D02*
X2749282Y2524662D01*
X2927100Y2974260D02*
X2927100Y2702480D01*
X2800100Y2689780D02*
X2691811Y2581491D01*
X2800100Y2903140D02*
X2800100Y2689780D01*
X2401320Y2666920D02*
X2486750Y2581491D01*
X2546100Y2903140D02*
X2401320Y2758360D01*
X2401320Y2758360D02*
X2401320Y2666920D01*
D39*
X4357910Y3023950D02*
X4357910Y3349070D01*
D38*
X1998730Y1776650D02*
X2145701Y1923621D01*
X1998730Y1209321D02*
X1998730Y1776650D01*
X6768850Y374150D02*
X6768850Y582850D01*
X6768850Y582850D02*
X6458994Y892706D01*
X6458994Y892706D02*
X5085544Y892706D01*
X2167993Y1040058D02*
X1998730Y1209321D01*
X5085544Y892706D02*
X4938192Y1040058D01*
X6894000Y249000D02*
X6768850Y374150D01*
X4938192Y1040058D02*
X2167993Y1040058D01*
X2474506Y2367200D02*
X2373612Y2468093D01*
X6684390Y1127050D02*
X6451374Y1360066D01*
X6766950Y1127050D02*
X6684390Y1127050D01*
X6894000Y1000000D02*
X6766950Y1127050D01*
X4337270Y1388670D02*
X4365874Y1360066D01*
X4337270Y2021840D02*
X4337270Y1388670D01*
X6451374Y1360066D02*
X4365874Y1360066D01*
X1933960Y1823640D02*
X2090509Y1980189D01*
X1933960Y1217521D02*
X1933960Y1823640D01*
X2151424Y1000057D02*
X1933960Y1217521D01*
X6640000Y249000D02*
X6514850Y374150D01*
X6514850Y374150D02*
X6514850Y582850D01*
X6514850Y582850D02*
X6244995Y852705D01*
X6244995Y852705D02*
X5067344Y852705D01*
X5067344Y852705D02*
X4919992Y1000057D01*
X4919992Y1000057D02*
X2151424Y1000057D01*
X6319935Y1320065D02*
X6640000Y1000000D01*
X2596533Y2358310D02*
X2430181Y2524662D01*
X4254060Y1367170D02*
X4301165Y1320065D01*
X4254060Y2097960D02*
X4254060Y1367170D01*
X4301165Y1320065D02*
X6319935Y1320065D01*
X1991364Y2284396D02*
X2090509Y2185251D01*
X1952756Y2284396D02*
X1991364Y2284396D01*
X1880620Y2212260D02*
X1952756Y2284396D01*
X1880620Y1214292D02*
X1880620Y2212260D01*
X2137412Y957500D02*
X1880620Y1214292D01*
X6386000Y249000D02*
X6260850Y374150D01*
X6260850Y374150D02*
X6260850Y582850D01*
X6260850Y582850D02*
X6030996Y812704D01*
X6030996Y812704D02*
X5050775Y812704D01*
X5050775Y812704D02*
X4905979Y957500D01*
X4905979Y957500D02*
X2137412Y957500D01*
X3031222Y1922718D02*
X3132840Y1821100D01*
X3132840Y1821100D02*
X3594540Y1821100D01*
X3594540Y1821100D02*
X4140875Y2367435D01*
X2419100Y2974260D02*
X2557185Y3112345D01*
X2557185Y3112345D02*
X3924225Y3112345D01*
X3924225Y3112345D02*
X4140875Y2895695D01*
X4140875Y2895695D02*
X4140875Y2367435D01*
X5816997Y772703D02*
X6006850Y582850D01*
X5034206Y772703D02*
X5816997Y772703D01*
X4889410Y917499D02*
X5034206Y772703D01*
X2120843Y917499D02*
X4889410Y917499D01*
X2015240Y2372280D02*
X1931420Y2372280D01*
X2145701Y2241819D02*
X2015240Y2372280D01*
X1931420Y2372280D02*
X1840619Y2281479D01*
X1840619Y2281479D02*
X1840619Y1197723D01*
X1840619Y1197723D02*
X2120843Y917499D01*
X6006850Y374150D02*
X6132000Y249000D01*
X6006850Y582850D02*
X6006850Y374150D01*
X1563910Y3185870D02*
X1563910Y3349070D01*
X2976398Y1867052D02*
X3068070Y1775380D01*
X3068070Y1775380D02*
X3605534Y1775380D01*
X3605534Y1775380D02*
X4181860Y2351706D01*
X1563910Y3185870D02*
X1597434Y3152346D01*
X1597434Y3152346D02*
X3940793Y3152346D01*
X3940793Y3152346D02*
X4181860Y2911280D01*
X4181860Y2911280D02*
X4181860Y2351706D01*
X2111760Y2504360D02*
X2260475Y2355645D01*
X1893320Y2504360D02*
X2111760Y2504360D01*
X1760617Y2371657D02*
X1893320Y2504360D01*
X1760617Y1164585D02*
X1760617Y2371657D01*
X2087705Y837497D02*
X1760617Y1164585D01*
X5624000Y249000D02*
X5498850Y374150D01*
X5498850Y374150D02*
X5498850Y582850D01*
X5498850Y582850D02*
X5388999Y692701D01*
X5388999Y692701D02*
X5001069Y692701D01*
X5001069Y692701D02*
X4856273Y837497D01*
X4856273Y837497D02*
X2087705Y837497D01*
X5918280Y2294300D02*
X5918280Y2153840D01*
X5340100Y2153840D02*
X5340100Y2709200D01*
X2438150Y2177970D02*
X2261164Y2354956D01*
X6105936Y1280064D02*
X6386000Y1000000D01*
X3447816Y1280064D02*
X6105936Y1280064D01*
X2918085Y1809795D02*
X3447816Y1280064D01*
X1800618Y1181154D02*
X2104274Y877498D01*
X1800618Y2325298D02*
X1800618Y1181154D01*
X1916180Y2440860D02*
X1800618Y2325298D01*
X2203432Y2298388D02*
X2060960Y2440860D01*
X2060960Y2440860D02*
X1916180Y2440860D01*
X2104274Y877498D02*
X4872842Y877498D01*
X5017638Y732702D02*
X5602998Y732702D01*
X5602998Y732702D02*
X5752850Y582850D01*
X5017638Y732702D02*
X4872842Y877498D01*
X5752850Y374150D02*
X5878000Y249000D01*
X5752850Y582850D02*
X5752850Y374150D01*
X5791280Y2294300D02*
X5791280Y2011600D01*
X5213100Y2555160D02*
X5213100Y2011600D01*
X5147530Y2709200D02*
X5147530Y2620730D01*
X5147530Y2620730D02*
X5213100Y2555160D01*
X2323850Y2177970D02*
X2203907Y2297913D01*
X5891937Y1240063D02*
X6132000Y1000000D01*
X3375549Y1240063D02*
X5891937Y1240063D01*
X2861697Y1753915D02*
X3375549Y1240063D01*
X4845880Y2603230D02*
X4845880Y2709200D01*
X4803652Y2561002D02*
X4845880Y2603230D01*
X4302510Y2515790D02*
X4347722Y2561002D01*
X4302510Y2284650D02*
X4302510Y2515790D01*
X4347722Y2561002D02*
X4803652Y2561002D01*
X4302510Y2284650D02*
X3471930Y1454070D01*
X2373612Y1696872D02*
X2281940Y1605200D01*
X2281940Y1605200D02*
X2281940Y1520618D01*
X2281940Y1520618D02*
X2461264Y1341294D01*
X2461264Y1341294D02*
X2695706Y1341294D01*
X2695706Y1341294D02*
X2863600Y1173400D01*
X3097280Y728900D02*
X3008380Y728900D01*
X3165876Y797496D02*
X3097280Y728900D01*
X5370000Y249000D02*
X5244850Y374150D01*
X5244850Y374150D02*
X5244850Y582850D01*
X5244850Y582850D02*
X5175000Y652700D01*
X5175000Y652700D02*
X4984500Y652700D01*
X4984500Y652700D02*
X4839704Y797496D01*
X4839704Y797496D02*
X3165876Y797496D01*
X3305560Y1541700D02*
X3441450Y1677590D01*
X3301504Y1200062D02*
X2804948Y1696618D01*
X5878000Y1000000D02*
X5677938Y1200062D01*
X5677938Y1200062D02*
X3301504Y1200062D01*
X4654580Y2709200D02*
X4654580Y2627830D01*
X4654580Y2627830D02*
X4642870Y2616120D01*
X3565910Y1677590D02*
X3441450Y1677590D01*
X4642870Y2616120D02*
X4280281Y2616120D01*
X4222500Y2558339D02*
X4222500Y2334180D01*
X4280281Y2616120D02*
X4222500Y2558339D01*
X4222500Y2334180D02*
X3565910Y1677590D01*
X3207155Y757495D02*
X3102360Y652700D01*
X4811125Y757495D02*
X3207155Y757495D01*
X4990850Y577770D02*
X4811125Y757495D01*
D39*
X2015400Y279320D02*
X2015400Y507920D01*
D38*
X2015400Y507920D02*
X2406400Y507920D01*
X2919480Y652700D02*
X3102360Y652700D01*
X4990850Y374150D02*
X5116000Y249000D01*
X4990850Y577770D02*
X4990850Y374150D01*
X2513719Y1080059D02*
X2657860Y1224200D01*
X2194941Y1080059D02*
X2513719Y1080059D01*
X2063500Y1211500D02*
X2194941Y1080059D01*
X2203432Y1867052D02*
X2063500Y1727120D01*
X2063500Y1727120D02*
X2063500Y1211500D01*
X2406400Y1503600D02*
X2486750Y1583949D01*
X2439420Y1440100D02*
X2406400Y1473120D01*
X2406400Y1473120D02*
X2406400Y1503600D01*
X5036521Y1080059D02*
X5116580Y1000000D01*
X3096641Y1080059D02*
X5036521Y1080059D01*
X2736600Y1440100D02*
X3096641Y1080059D01*
X2439420Y1440100D02*
X2736600Y1440100D01*
X4654580Y2914200D02*
X4654580Y3068520D01*
X4843860Y3239940D02*
X4843860Y3140960D01*
X4843860Y3140960D02*
X4806700Y3103800D01*
X4689860Y3103800D02*
X4654580Y3068520D01*
X4806700Y3103800D02*
X4689860Y3103800D01*
X4870200Y3040300D02*
X5251200Y3040300D01*
X4845880Y2914200D02*
X4845880Y3015980D01*
X4845880Y3015980D02*
X4870200Y3040300D01*
X5275660Y3064760D02*
X5251200Y3040300D01*
X5275660Y3239940D02*
X5275660Y3064760D01*
D41*
X1184000Y278812D02*
X1184000Y458750D01*
X978250Y664500D02*
X1184000Y458750D01*
D40*
X1600420Y279320D02*
X1717900Y279320D01*
X1538560Y217460D02*
X1600420Y279320D01*
X1434250Y217460D02*
X1538560Y217460D01*
D37*
X1434250Y217460D02*
X1245352Y217460D01*
D39*
X5043860Y3334940D02*
X5043860Y3240960D01*
D40*
X7306060Y2593320D02*
X6493320Y2593320D01*
D37*
X5086100Y2435960D02*
X5086100Y2532300D01*
D40*
X6432300Y2532300D02*
X6493320Y2593320D01*
X5599500Y2532300D02*
X6432300Y2532300D01*
D38*
X5705860Y3334940D02*
X5475660Y3334940D01*
X5784600Y3256200D02*
X5705860Y3334940D01*
X6403140Y2767300D02*
X6427480Y2791640D01*
X6699000Y2791640D02*
X6427480Y2791640D01*
X5864560Y2767300D02*
X5784600Y2847260D01*
X5784600Y3256200D02*
X5784600Y2847260D01*
X5864560Y2767300D02*
X6403140Y2767300D01*
X3167498Y2703662D02*
X3314580Y2556580D01*
X3173480Y2694683D02*
X3173480Y2384077D01*
X3031222Y2241819D02*
X3173480Y2384077D01*
X3295400Y627300D02*
X3408800Y627300D01*
X3221740Y553640D02*
X3295400Y627300D01*
X2866140Y553640D02*
X3221740Y553640D01*
X2808990Y610790D02*
X2866140Y553640D01*
X2808990Y694610D02*
X2808990Y610790D01*
X1720616Y1148016D02*
X2076216Y792416D01*
X2076216Y792416D02*
X2711184Y792416D01*
X2711184Y792416D02*
X2808990Y694610D01*
X1460000Y2810000D02*
X1460000Y2678600D01*
X1460000Y2678600D02*
X1568200Y2570400D01*
X2167640Y2560240D02*
X2316355Y2411525D01*
X1862840Y2560240D02*
X2167640Y2560240D01*
X1720616Y2418016D02*
X1862840Y2560240D01*
X1568200Y2288750D02*
X1568200Y2570400D01*
X1568200Y2288750D02*
X1718382Y2288750D01*
X1720616Y2418016D02*
X1720616Y1148016D01*
D42*
G36*
X7655517Y3529409D02*
G01*
X7622186Y3507139D01*
X7593841Y3478794D01*
X7571571Y3445463D01*
X7556230Y3408429D01*
X7548410Y3369113D01*
X7548410Y3329027D01*
X7556230Y3289711D01*
X7571571Y3252677D01*
X7593841Y3219346D01*
X7622186Y3191001D01*
X7655517Y3168731D01*
X7692551Y3153390D01*
X7731867Y3145570D01*
X7771953Y3145570D01*
X7811269Y3153390D01*
X7848303Y3168731D01*
X7881634Y3191001D01*
X7909979Y3219346D01*
X7932249Y3252677D01*
X7944000Y3281045D01*
X7944000Y316899D01*
X7932197Y345393D01*
X7909927Y378724D01*
X7881582Y407069D01*
X7848251Y429339D01*
X7811217Y444680D01*
X7771901Y452500D01*
X7731815Y452500D01*
X7692499Y444680D01*
X7655465Y429339D01*
X7622134Y407069D01*
X7593789Y378724D01*
X7571519Y345393D01*
X7556178Y308359D01*
X7548358Y269043D01*
X7548358Y228957D01*
X7556178Y189641D01*
X7571519Y152607D01*
X7593789Y119276D01*
X7622134Y90931D01*
X7655465Y68661D01*
X7686030Y56000D01*
X317828Y56000D01*
X348393Y68661D01*
X381724Y90931D01*
X410069Y119276D01*
X432339Y152607D01*
X447680Y189641D01*
X455500Y228957D01*
X455500Y269043D01*
X447680Y308359D01*
X432339Y345393D01*
X410069Y378724D01*
X381724Y407069D01*
X348393Y429339D01*
X311359Y444680D01*
X272043Y452500D01*
X231957Y452500D01*
X192641Y444680D01*
X155607Y429339D01*
X122276Y407069D01*
X93931Y378724D01*
X71661Y345393D01*
X56320Y308359D01*
X56000Y306748D01*
X56000Y1125000D01*
X117241Y1125000D01*
X117241Y825000D01*
X118274Y814512D01*
X121333Y804427D01*
X126301Y795133D01*
X132987Y786987D01*
X141133Y780301D01*
X150427Y775333D01*
X160512Y772274D01*
X171000Y771241D01*
X378388Y771241D01*
X618880Y530749D01*
X618880Y404258D01*
X614301Y398679D01*
X609333Y389385D01*
X606274Y379300D01*
X605241Y368812D01*
X605241Y188812D01*
X606274Y178324D01*
X609333Y168239D01*
X614301Y158945D01*
X620987Y150799D01*
X629133Y144113D01*
X638427Y139145D01*
X648512Y136086D01*
X659000Y135053D01*
X909000Y135053D01*
X919488Y136086D01*
X929573Y139145D01*
X938867Y144113D01*
X947013Y150799D01*
X953699Y158945D01*
X958667Y168239D01*
X961726Y178324D01*
X962759Y188812D01*
X962759Y368812D01*
X961726Y379300D01*
X958667Y389385D01*
X953699Y398679D01*
X947013Y406825D01*
X938867Y413511D01*
X929573Y418479D01*
X919488Y421538D01*
X909000Y422571D01*
X825880Y422571D01*
X825880Y568537D01*
X826381Y573620D01*
X825880Y578703D01*
X825880Y578704D01*
X824382Y593910D01*
X818464Y613419D01*
X811589Y626282D01*
X808853Y631400D01*
X799160Y643211D01*
X795920Y647160D01*
X791971Y650400D01*
X667871Y774500D01*
X864491Y774500D01*
X864491Y554500D01*
X865524Y544012D01*
X868583Y533927D01*
X873551Y524633D01*
X880237Y516487D01*
X888383Y509801D01*
X897677Y504833D01*
X907762Y501774D01*
X918250Y500741D01*
X995638Y500741D01*
X1073808Y422571D01*
X1059000Y422571D01*
X1048512Y421538D01*
X1038427Y418479D01*
X1029133Y413511D01*
X1020987Y406825D01*
X1014301Y398679D01*
X1009333Y389385D01*
X1006274Y379300D01*
X1005241Y368812D01*
X1005241Y188812D01*
X1006274Y178324D01*
X1009333Y168239D01*
X1014301Y158945D01*
X1020987Y150799D01*
X1029133Y144113D01*
X1038427Y139145D01*
X1048512Y136086D01*
X1059000Y135053D01*
X1309000Y135053D01*
X1319488Y136086D01*
X1326275Y138145D01*
X1333559Y129269D01*
X1345494Y119474D01*
X1359110Y112196D01*
X1373885Y107714D01*
X1389250Y106201D01*
X1479250Y106201D01*
X1494615Y107714D01*
X1509390Y112196D01*
X1523006Y119474D01*
X1534941Y129269D01*
X1544736Y141204D01*
X1547850Y147032D01*
X1552478Y147487D01*
X1565862Y151547D01*
X1578196Y158140D01*
X1589007Y167013D01*
X1591231Y169722D01*
X1602127Y180618D01*
X1606164Y173064D01*
X1615959Y161129D01*
X1627894Y151335D01*
X1641510Y144056D01*
X1656285Y139575D01*
X1671650Y138061D01*
X1764150Y138061D01*
X1779515Y139575D01*
X1794290Y144056D01*
X1807906Y151335D01*
X1819841Y161129D01*
X1829635Y173064D01*
X1836914Y186680D01*
X1841395Y201455D01*
X1842909Y216820D01*
X1842909Y341820D01*
X1841395Y357185D01*
X1836914Y371960D01*
X1834789Y375935D01*
X1842204Y384971D01*
X1848100Y396002D01*
X1851731Y407972D01*
X1852957Y420420D01*
X1852650Y479345D01*
X1836775Y495220D01*
X1730600Y495220D01*
X1730600Y493220D01*
X1705200Y493220D01*
X1705200Y495220D01*
X1599025Y495220D01*
X1583150Y479345D01*
X1582843Y420420D01*
X1584069Y407972D01*
X1587700Y396002D01*
X1593596Y384971D01*
X1601011Y375935D01*
X1598886Y371960D01*
X1594404Y357185D01*
X1593697Y350001D01*
X1586501Y349293D01*
X1573118Y345233D01*
X1562743Y339688D01*
X1563200Y340542D01*
X1566831Y352512D01*
X1568057Y364960D01*
X1567750Y393885D01*
X1551875Y409760D01*
X1446950Y409760D01*
X1446950Y407760D01*
X1421550Y407760D01*
X1421550Y409760D01*
X1419550Y409760D01*
X1419550Y435160D01*
X1421550Y435160D01*
X1421550Y651800D01*
X1446950Y651800D01*
X1446950Y435160D01*
X1551875Y435160D01*
X1567750Y451035D01*
X1568057Y479960D01*
X1566831Y492408D01*
X1563200Y504378D01*
X1557304Y515409D01*
X1550069Y524225D01*
X1553200Y530082D01*
X1556831Y542052D01*
X1558057Y554500D01*
X1557903Y595420D01*
X1582843Y595420D01*
X1583150Y536495D01*
X1599025Y520620D01*
X1705200Y520620D01*
X1705200Y643045D01*
X1730600Y643045D01*
X1730600Y520620D01*
X1836775Y520620D01*
X1852650Y536495D01*
X1852957Y595420D01*
X1851731Y607868D01*
X1848100Y619838D01*
X1842204Y630869D01*
X1834268Y640539D01*
X1824599Y648474D01*
X1813568Y654370D01*
X1801598Y658001D01*
X1789150Y659227D01*
X1746475Y658920D01*
X1730600Y643045D01*
X1705200Y643045D01*
X1689325Y658920D01*
X1646650Y659227D01*
X1634202Y658001D01*
X1622232Y654370D01*
X1611201Y648474D01*
X1601531Y640539D01*
X1593596Y630869D01*
X1587700Y619838D01*
X1584069Y607868D01*
X1582843Y595420D01*
X1557903Y595420D01*
X1557750Y635925D01*
X1541875Y651800D01*
X1446950Y651800D01*
X1421550Y651800D01*
X1326625Y651800D01*
X1310750Y635925D01*
X1310443Y554500D01*
X1311669Y542052D01*
X1315300Y530082D01*
X1318431Y524225D01*
X1311196Y515409D01*
X1305300Y504378D01*
X1301669Y492408D01*
X1300443Y479960D01*
X1300750Y451035D01*
X1316625Y435160D01*
X1300750Y435160D01*
X1300750Y422571D01*
X1287500Y422571D01*
X1287500Y453667D01*
X1288001Y458750D01*
X1287500Y463833D01*
X1287500Y463834D01*
X1286002Y479039D01*
X1280084Y498549D01*
X1274294Y509381D01*
X1270473Y516530D01*
X1260780Y528341D01*
X1257540Y532290D01*
X1253591Y535530D01*
X1092009Y697112D01*
X1092009Y774500D01*
X1310443Y774500D01*
X1310750Y693075D01*
X1326625Y677200D01*
X1421550Y677200D01*
X1421550Y822125D01*
X1446950Y822125D01*
X1446950Y677200D01*
X1541875Y677200D01*
X1557750Y693075D01*
X1558057Y774500D01*
X1556831Y786948D01*
X1553200Y798918D01*
X1547304Y809949D01*
X1539368Y819618D01*
X1529699Y827554D01*
X1518668Y833450D01*
X1506698Y837081D01*
X1494250Y838307D01*
X1462825Y838000D01*
X1446950Y822125D01*
X1421550Y822125D01*
X1405675Y838000D01*
X1374250Y838307D01*
X1361802Y837081D01*
X1349832Y833450D01*
X1338801Y827554D01*
X1329132Y819618D01*
X1321196Y809949D01*
X1315300Y798918D01*
X1311669Y786948D01*
X1310443Y774500D01*
X1092009Y774500D01*
X1090976Y784988D01*
X1087917Y795073D01*
X1082949Y804367D01*
X1076263Y812513D01*
X1068117Y819199D01*
X1058823Y824167D01*
X1048738Y827226D01*
X1038250Y828259D01*
X918250Y828259D01*
X907762Y827226D01*
X897677Y824167D01*
X888383Y819199D01*
X880237Y812513D01*
X873551Y804367D01*
X868583Y795073D01*
X865524Y784988D01*
X864491Y774500D01*
X667871Y774500D01*
X524759Y917612D01*
X524759Y1125000D01*
X523726Y1135488D01*
X520667Y1145573D01*
X515699Y1154867D01*
X509013Y1163013D01*
X500867Y1169699D01*
X491573Y1174667D01*
X481488Y1177726D01*
X471000Y1178759D01*
X171000Y1178759D01*
X160512Y1177726D01*
X150427Y1174667D01*
X141133Y1169699D01*
X132987Y1163013D01*
X126301Y1154867D01*
X121333Y1145573D01*
X118274Y1135488D01*
X117241Y1125000D01*
X56000Y1125000D01*
X56000Y1333835D01*
X189795Y1333835D01*
X205396Y1302279D01*
X242874Y1283198D01*
X283355Y1271796D01*
X325282Y1268510D01*
X367045Y1273467D01*
X407038Y1286476D01*
X436604Y1302279D01*
X452205Y1333835D01*
X321000Y1465039D01*
X189795Y1333835D01*
X56000Y1333835D01*
X56000Y1478718D01*
X106510Y1478718D01*
X111467Y1436955D01*
X124476Y1396962D01*
X140279Y1367396D01*
X171835Y1351795D01*
X303040Y1483000D01*
X338961Y1483000D01*
X470165Y1351795D01*
X501721Y1367396D01*
X520802Y1404874D01*
X532204Y1445355D01*
X535490Y1487282D01*
X530533Y1529045D01*
X517524Y1569038D01*
X501721Y1598604D01*
X470165Y1614205D01*
X338961Y1483000D01*
X303040Y1483000D01*
X171835Y1614205D01*
X140279Y1598604D01*
X121198Y1561125D01*
X109796Y1520645D01*
X106510Y1478718D01*
X56000Y1478718D01*
X56000Y1632165D01*
X189795Y1632165D01*
X321000Y1500960D01*
X452205Y1632165D01*
X436604Y1663721D01*
X399125Y1682802D01*
X358645Y1694204D01*
X316718Y1697490D01*
X274955Y1692533D01*
X234962Y1679524D01*
X205396Y1663721D01*
X189795Y1632165D01*
X56000Y1632165D01*
X56000Y1933520D01*
X776393Y1933520D01*
X776700Y1844595D01*
X792575Y1828720D01*
X893750Y1828720D01*
X893750Y1981145D01*
X919150Y1981145D01*
X919150Y1828720D01*
X1020325Y1828720D01*
X1036200Y1844595D01*
X1036507Y1933520D01*
X1035281Y1945968D01*
X1031650Y1957938D01*
X1025754Y1968969D01*
X1017818Y1978638D01*
X1008149Y1986574D01*
X997118Y1992470D01*
X985148Y1996101D01*
X972700Y1997327D01*
X935025Y1997020D01*
X919150Y1981145D01*
X893750Y1981145D01*
X877875Y1997020D01*
X840200Y1997327D01*
X827752Y1996101D01*
X815782Y1992470D01*
X804751Y1986574D01*
X795081Y1978638D01*
X787146Y1968969D01*
X781250Y1957938D01*
X777619Y1945968D01*
X776393Y1933520D01*
X56000Y1933520D01*
X56000Y2146644D01*
X730604Y2146644D01*
X736793Y2123063D01*
X760979Y2111773D01*
X786903Y2105419D01*
X813568Y2104244D01*
X839950Y2108294D01*
X865035Y2117413D01*
X875607Y2123063D01*
X881795Y2146644D01*
X806200Y2222240D01*
X730604Y2146644D01*
X56000Y2146644D01*
X56000Y2232832D01*
X670244Y2232832D01*
X674294Y2206450D01*
X683413Y2181365D01*
X689063Y2170793D01*
X712644Y2164605D01*
X788239Y2240200D01*
X712644Y2315796D01*
X689063Y2309607D01*
X677773Y2285421D01*
X671419Y2259497D01*
X670244Y2232832D01*
X56000Y2232832D01*
X56000Y2760561D01*
X680700Y2760561D01*
X680700Y2735839D01*
X685523Y2711593D01*
X694983Y2688754D01*
X702700Y2677205D01*
X702700Y2499283D01*
X702199Y2494200D01*
X702700Y2489117D01*
X702700Y2489116D01*
X704198Y2473911D01*
X710116Y2454401D01*
X719727Y2436420D01*
X732660Y2420660D01*
X736610Y2417419D01*
X780662Y2373367D01*
X772450Y2372106D01*
X747365Y2362988D01*
X736793Y2357337D01*
X730604Y2333756D01*
X806200Y2258161D01*
X807614Y2259575D01*
X825575Y2241614D01*
X824160Y2240200D01*
X899756Y2164605D01*
X923337Y2170793D01*
X934627Y2194979D01*
X939435Y2214594D01*
X1110450Y2043579D01*
X1110450Y1956219D01*
X1107214Y1952276D01*
X1099936Y1938660D01*
X1095455Y1923885D01*
X1093941Y1908520D01*
X1093941Y1723520D01*
X1095455Y1708155D01*
X1099936Y1693380D01*
X1107214Y1679764D01*
X1110450Y1675821D01*
X1110450Y1668259D01*
X1028527Y1668259D01*
X1031650Y1674102D01*
X1035281Y1686072D01*
X1036507Y1698520D01*
X1036200Y1787445D01*
X1020325Y1803320D01*
X919150Y1803320D01*
X919150Y1801320D01*
X893750Y1801320D01*
X893750Y1803320D01*
X792575Y1803320D01*
X776700Y1787445D01*
X776393Y1698520D01*
X777619Y1686072D01*
X781250Y1674102D01*
X787146Y1663071D01*
X795081Y1653401D01*
X804751Y1645466D01*
X815782Y1639570D01*
X827752Y1635939D01*
X840200Y1634713D01*
X866539Y1634928D01*
X863524Y1624988D01*
X862491Y1614500D01*
X862491Y974500D01*
X863524Y964012D01*
X866583Y953927D01*
X871551Y944633D01*
X878237Y936487D01*
X886383Y929801D01*
X895677Y924833D01*
X905762Y921774D01*
X916250Y920741D01*
X1496250Y920741D01*
X1506738Y921774D01*
X1516823Y924833D01*
X1524711Y929050D01*
X1640779Y929050D01*
X1930952Y638877D01*
X1925394Y635906D01*
X1913459Y626111D01*
X1903664Y614176D01*
X1896386Y600560D01*
X1891904Y585785D01*
X1890391Y570420D01*
X1890391Y445420D01*
X1891904Y430055D01*
X1896386Y415280D01*
X1903664Y401664D01*
X1910266Y393620D01*
X1903664Y385576D01*
X1896386Y371960D01*
X1891904Y357185D01*
X1890391Y341820D01*
X1890391Y216820D01*
X1891904Y201455D01*
X1896386Y186680D01*
X1903664Y173064D01*
X1913459Y161129D01*
X1925394Y151335D01*
X1939010Y144056D01*
X1953785Y139575D01*
X1969150Y138061D01*
X2061650Y138061D01*
X2077015Y139575D01*
X2091790Y144056D01*
X2105406Y151335D01*
X2117341Y161129D01*
X2119697Y164000D01*
X3951193Y164000D01*
X3952419Y151552D01*
X3956050Y139582D01*
X3961946Y128551D01*
X3969881Y118881D01*
X3979551Y110946D01*
X3990582Y105050D01*
X4002552Y101419D01*
X4015000Y100193D01*
X4071425Y100500D01*
X4087300Y116375D01*
X4087300Y236300D01*
X4112700Y236300D01*
X4112700Y116375D01*
X4128575Y100500D01*
X4185000Y100193D01*
X4197448Y101419D01*
X4209418Y105050D01*
X4220449Y110946D01*
X4230119Y118881D01*
X4238054Y128551D01*
X4243950Y139582D01*
X4246397Y147647D01*
X4253973Y139241D01*
X4277308Y121836D01*
X4303590Y109317D01*
X4318311Y104852D01*
X4341300Y116984D01*
X4341300Y236300D01*
X4366700Y236300D01*
X4366700Y116984D01*
X4389689Y104852D01*
X4404410Y109317D01*
X4430692Y121836D01*
X4454027Y139241D01*
X4473518Y160865D01*
X4481000Y173426D01*
X4488482Y160865D01*
X4507973Y139241D01*
X4531308Y121836D01*
X4557590Y109317D01*
X4572311Y104852D01*
X4595300Y116984D01*
X4595300Y236300D01*
X4366700Y236300D01*
X4341300Y236300D01*
X4112700Y236300D01*
X4087300Y236300D01*
X3967375Y236300D01*
X3951500Y220425D01*
X3951193Y164000D01*
X2119697Y164000D01*
X2127136Y173064D01*
X2134414Y186680D01*
X2138896Y201455D01*
X2140409Y216820D01*
X2140409Y341820D01*
X2138896Y357185D01*
X2134414Y371960D01*
X2127136Y385576D01*
X2120534Y393620D01*
X2127136Y401664D01*
X2134414Y415280D01*
X2138896Y430055D01*
X2140310Y444420D01*
X2337671Y444420D01*
X2346797Y435294D01*
X2362111Y425061D01*
X2379127Y418013D01*
X2397191Y414420D01*
X2415609Y414420D01*
X2433673Y418013D01*
X2450689Y425061D01*
X2466003Y435294D01*
X2479026Y448317D01*
X2489259Y463631D01*
X2496095Y480134D01*
X2664900Y311329D01*
X2668140Y307380D01*
X2672089Y304140D01*
X2683900Y294447D01*
X2689168Y291631D01*
X2701881Y284836D01*
X2721391Y278918D01*
X2736596Y277420D01*
X2736596Y277420D01*
X2741680Y276919D01*
X2746764Y277420D01*
X3788157Y277420D01*
X3793240Y276919D01*
X3798323Y277420D01*
X3798324Y277420D01*
X3813529Y278918D01*
X3833039Y284836D01*
X3851020Y294447D01*
X3866780Y307380D01*
X3870021Y311330D01*
X3958191Y399500D01*
X4007796Y399500D01*
X4010410Y397355D01*
X4002552Y396581D01*
X3990582Y392950D01*
X3979551Y387054D01*
X3969881Y379118D01*
X3961946Y369449D01*
X3956050Y358418D01*
X3952419Y346448D01*
X3951193Y334000D01*
X3951500Y277575D01*
X3967375Y261700D01*
X4087300Y261700D01*
X4087300Y263700D01*
X4112700Y263700D01*
X4112700Y261700D01*
X4341300Y261700D01*
X4341300Y263700D01*
X4366700Y263700D01*
X4366700Y261700D01*
X4595300Y261700D01*
X4595300Y263700D01*
X4620700Y263700D01*
X4620700Y261700D01*
X4622700Y261700D01*
X4622700Y236300D01*
X4620700Y236300D01*
X4620700Y116984D01*
X4643689Y104852D01*
X4658410Y109317D01*
X4684692Y121836D01*
X4708027Y139241D01*
X4727518Y160865D01*
X4740456Y182585D01*
X4746284Y171681D01*
X4763592Y150592D01*
X4784681Y133284D01*
X4808742Y120424D01*
X4834849Y112504D01*
X4855196Y110500D01*
X4868804Y110500D01*
X4889151Y112504D01*
X4915258Y120424D01*
X4939319Y133284D01*
X4960408Y150592D01*
X4977716Y171681D01*
X4989000Y192793D01*
X5000284Y171681D01*
X5017592Y150592D01*
X5038681Y133284D01*
X5062742Y120424D01*
X5088849Y112504D01*
X5109196Y110500D01*
X5122804Y110500D01*
X5143151Y112504D01*
X5169258Y120424D01*
X5193319Y133284D01*
X5214408Y150592D01*
X5231716Y171681D01*
X5243000Y192793D01*
X5254284Y171681D01*
X5271592Y150592D01*
X5292681Y133284D01*
X5316742Y120424D01*
X5342849Y112504D01*
X5363196Y110500D01*
X5376804Y110500D01*
X5397151Y112504D01*
X5423258Y120424D01*
X5447319Y133284D01*
X5468408Y150592D01*
X5485716Y171681D01*
X5497000Y192793D01*
X5508284Y171681D01*
X5525592Y150592D01*
X5546681Y133284D01*
X5570742Y120424D01*
X5596849Y112504D01*
X5617196Y110500D01*
X5630804Y110500D01*
X5651151Y112504D01*
X5677258Y120424D01*
X5701319Y133284D01*
X5722408Y150592D01*
X5739716Y171681D01*
X5751000Y192793D01*
X5762284Y171681D01*
X5779592Y150592D01*
X5800681Y133284D01*
X5824742Y120424D01*
X5850849Y112504D01*
X5871196Y110500D01*
X5884804Y110500D01*
X5905151Y112504D01*
X5931258Y120424D01*
X5955319Y133284D01*
X5976408Y150592D01*
X5993716Y171681D01*
X6005000Y192793D01*
X6016284Y171681D01*
X6033592Y150592D01*
X6054681Y133284D01*
X6078742Y120424D01*
X6104849Y112504D01*
X6125196Y110500D01*
X6138804Y110500D01*
X6159151Y112504D01*
X6185258Y120424D01*
X6209319Y133284D01*
X6230408Y150592D01*
X6247716Y171681D01*
X6259000Y192793D01*
X6270284Y171681D01*
X6287592Y150592D01*
X6308681Y133284D01*
X6332742Y120424D01*
X6358849Y112504D01*
X6379196Y110500D01*
X6392804Y110500D01*
X6413151Y112504D01*
X6439258Y120424D01*
X6463319Y133284D01*
X6484408Y150592D01*
X6501716Y171681D01*
X6513000Y192793D01*
X6524284Y171681D01*
X6541592Y150592D01*
X6562681Y133284D01*
X6586742Y120424D01*
X6612849Y112504D01*
X6633196Y110500D01*
X6646804Y110500D01*
X6667151Y112504D01*
X6693258Y120424D01*
X6717319Y133284D01*
X6738408Y150592D01*
X6755716Y171681D01*
X6767000Y192793D01*
X6778284Y171681D01*
X6795592Y150592D01*
X6816681Y133284D01*
X6840742Y120424D01*
X6866849Y112504D01*
X6887196Y110500D01*
X6900804Y110500D01*
X6921151Y112504D01*
X6947258Y120424D01*
X6971319Y133284D01*
X6992408Y150592D01*
X7009716Y171681D01*
X7022576Y195742D01*
X7030496Y221849D01*
X7033170Y249000D01*
X7030496Y276151D01*
X7022576Y302258D01*
X7009716Y326319D01*
X6992408Y347408D01*
X6971319Y364716D01*
X6950207Y376000D01*
X6971319Y387284D01*
X6992408Y404592D01*
X6997749Y411100D01*
X7187300Y411100D01*
X7187300Y388900D01*
X7191631Y367127D01*
X7200127Y346617D01*
X7212460Y328158D01*
X7228158Y312460D01*
X7246616Y300127D01*
X7267127Y291631D01*
X7288900Y287300D01*
X7311100Y287300D01*
X7332873Y291631D01*
X7353383Y300127D01*
X7371842Y312460D01*
X7387540Y328158D01*
X7399873Y346617D01*
X7408369Y367127D01*
X7412700Y388900D01*
X7412700Y411100D01*
X7408369Y432873D01*
X7399873Y453383D01*
X7387540Y471842D01*
X7371842Y487540D01*
X7353383Y499873D01*
X7332873Y508369D01*
X7311100Y512700D01*
X7288900Y512700D01*
X7267127Y508369D01*
X7246616Y499873D01*
X7228158Y487540D01*
X7212460Y471842D01*
X7200127Y453383D01*
X7191631Y432873D01*
X7187300Y411100D01*
X6997749Y411100D01*
X7009716Y425681D01*
X7022576Y449742D01*
X7030496Y475849D01*
X7033170Y503000D01*
X7030496Y530151D01*
X7022576Y556258D01*
X7009716Y580319D01*
X6992408Y601408D01*
X6971319Y618716D01*
X6948893Y630702D01*
X6949280Y631020D01*
X6950860Y632944D01*
X6952033Y635140D01*
X6952756Y637522D01*
X6953000Y640000D01*
X6953000Y926971D01*
X6953603Y927374D01*
X6966626Y940397D01*
X6976859Y955711D01*
X6983907Y972727D01*
X6987500Y990791D01*
X6987500Y1009209D01*
X6983907Y1027273D01*
X6976859Y1044289D01*
X6966626Y1059603D01*
X6953603Y1072626D01*
X6938289Y1082859D01*
X6921273Y1089907D01*
X6903209Y1093500D01*
X6890302Y1093500D01*
X6814057Y1169745D01*
X6812068Y1172169D01*
X6804573Y1178320D01*
X7078057Y1178320D01*
X7078057Y848320D01*
X7079267Y836029D01*
X7082852Y824210D01*
X7088675Y813317D01*
X7096510Y803770D01*
X7106057Y795935D01*
X7116950Y790112D01*
X7128769Y786527D01*
X7141060Y785317D01*
X7471060Y785317D01*
X7483351Y786527D01*
X7495170Y790112D01*
X7506063Y795935D01*
X7515610Y803770D01*
X7523445Y813317D01*
X7529267Y824210D01*
X7532853Y836029D01*
X7534063Y848320D01*
X7534063Y1178320D01*
X7532853Y1190611D01*
X7529267Y1202430D01*
X7523445Y1213323D01*
X7515610Y1222870D01*
X7506063Y1230705D01*
X7495170Y1236528D01*
X7483351Y1240113D01*
X7471060Y1241323D01*
X7141060Y1241323D01*
X7128769Y1240113D01*
X7116950Y1236528D01*
X7106057Y1230705D01*
X7096510Y1222870D01*
X7088675Y1213323D01*
X7082852Y1202430D01*
X7079267Y1190611D01*
X7078057Y1178320D01*
X6804573Y1178320D01*
X6802399Y1180104D01*
X6791368Y1186000D01*
X6779398Y1189631D01*
X6770069Y1190550D01*
X6770068Y1190550D01*
X6766950Y1190857D01*
X6763832Y1190550D01*
X6710692Y1190550D01*
X6498481Y1402761D01*
X6496492Y1405184D01*
X6486823Y1413120D01*
X6475792Y1419016D01*
X6463822Y1422647D01*
X6454493Y1423566D01*
X6454492Y1423566D01*
X6451374Y1423873D01*
X6448256Y1423566D01*
X5423131Y1423566D01*
X5423859Y1430960D01*
X5423859Y1580960D01*
X5422826Y1591448D01*
X5419767Y1601533D01*
X5418811Y1603320D01*
X7042253Y1603320D01*
X7043479Y1590872D01*
X7047110Y1578902D01*
X7053006Y1567871D01*
X7060941Y1558201D01*
X7070611Y1550266D01*
X7081642Y1544370D01*
X7093612Y1540739D01*
X7106060Y1539513D01*
X7277485Y1539820D01*
X7293360Y1555695D01*
X7293360Y1790620D01*
X7318760Y1790620D01*
X7318760Y1555695D01*
X7334635Y1539820D01*
X7506060Y1539513D01*
X7518508Y1540739D01*
X7530478Y1544370D01*
X7541509Y1550266D01*
X7551178Y1558201D01*
X7559114Y1567871D01*
X7565010Y1578902D01*
X7568641Y1590872D01*
X7569867Y1603320D01*
X7569560Y1774745D01*
X7553685Y1790620D01*
X7318760Y1790620D01*
X7293360Y1790620D01*
X7058435Y1790620D01*
X7042560Y1774745D01*
X7042253Y1603320D01*
X5418811Y1603320D01*
X5414799Y1610827D01*
X5408113Y1618973D01*
X5399967Y1625659D01*
X5390673Y1630627D01*
X5380588Y1633686D01*
X5370100Y1634719D01*
X5310100Y1634719D01*
X5302391Y1633959D01*
X5295959Y1649489D01*
X5285726Y1664803D01*
X5273729Y1676800D01*
X5697473Y1676800D01*
X5698699Y1664352D01*
X5702330Y1652382D01*
X5708226Y1641351D01*
X5716161Y1631681D01*
X5725831Y1623746D01*
X5736862Y1617850D01*
X5748832Y1614219D01*
X5761280Y1612993D01*
X5762705Y1613300D01*
X5778580Y1629175D01*
X5778580Y1741600D01*
X5713655Y1741600D01*
X5697780Y1725725D01*
X5697473Y1676800D01*
X5273729Y1676800D01*
X5272703Y1677826D01*
X5257389Y1688059D01*
X5240373Y1695107D01*
X5222309Y1698700D01*
X5203891Y1698700D01*
X5185827Y1695107D01*
X5168811Y1688059D01*
X5153497Y1677826D01*
X5140474Y1664803D01*
X5130241Y1649489D01*
X5123809Y1633959D01*
X5116100Y1634719D01*
X5056100Y1634719D01*
X5045612Y1633686D01*
X5035527Y1630627D01*
X5026233Y1625659D01*
X5022600Y1622677D01*
X5018967Y1625659D01*
X5009673Y1630627D01*
X4999588Y1633686D01*
X4989100Y1634719D01*
X4929100Y1634719D01*
X4918612Y1633686D01*
X4908527Y1630627D01*
X4904379Y1628409D01*
X4897549Y1634014D01*
X4886518Y1639910D01*
X4874548Y1643541D01*
X4862100Y1644767D01*
X4860675Y1644460D01*
X4844800Y1628585D01*
X4844800Y1518660D01*
X4846800Y1518660D01*
X4846800Y1493260D01*
X4844800Y1493260D01*
X4844800Y1491260D01*
X4819400Y1491260D01*
X4819400Y1493260D01*
X4717800Y1493260D01*
X4717800Y1491260D01*
X4692400Y1491260D01*
X4692400Y1493260D01*
X4590800Y1493260D01*
X4590800Y1491260D01*
X4565400Y1491260D01*
X4565400Y1493260D01*
X4463800Y1493260D01*
X4463800Y1491260D01*
X4438400Y1491260D01*
X4438400Y1493260D01*
X4436400Y1493260D01*
X4436400Y1518660D01*
X4438400Y1518660D01*
X4438400Y1628585D01*
X4463800Y1628585D01*
X4463800Y1518660D01*
X4565400Y1518660D01*
X4565400Y1628585D01*
X4590800Y1628585D01*
X4590800Y1518660D01*
X4692400Y1518660D01*
X4692400Y1628585D01*
X4717800Y1628585D01*
X4717800Y1518660D01*
X4819400Y1518660D01*
X4819400Y1628585D01*
X4803525Y1644460D01*
X4802100Y1644767D01*
X4789652Y1643541D01*
X4777682Y1639910D01*
X4768600Y1635056D01*
X4759518Y1639910D01*
X4747548Y1643541D01*
X4735100Y1644767D01*
X4733675Y1644460D01*
X4717800Y1628585D01*
X4692400Y1628585D01*
X4676525Y1644460D01*
X4675100Y1644767D01*
X4662652Y1643541D01*
X4650682Y1639910D01*
X4641600Y1635056D01*
X4632518Y1639910D01*
X4620548Y1643541D01*
X4608100Y1644767D01*
X4606675Y1644460D01*
X4590800Y1628585D01*
X4565400Y1628585D01*
X4549525Y1644460D01*
X4548100Y1644767D01*
X4535652Y1643541D01*
X4523682Y1639910D01*
X4514600Y1635056D01*
X4505518Y1639910D01*
X4493548Y1643541D01*
X4481100Y1644767D01*
X4479675Y1644460D01*
X4463800Y1628585D01*
X4438400Y1628585D01*
X4422525Y1644460D01*
X4421100Y1644767D01*
X4408652Y1643541D01*
X4400770Y1641150D01*
X4400770Y1953111D01*
X4409896Y1962237D01*
X4420129Y1977551D01*
X4427177Y1994567D01*
X4430770Y2012631D01*
X4430770Y2031049D01*
X4427177Y2049113D01*
X4420129Y2066129D01*
X4409896Y2081443D01*
X4396873Y2094466D01*
X4381559Y2104699D01*
X4364543Y2111747D01*
X4346479Y2115340D01*
X4345935Y2115340D01*
X4343967Y2125233D01*
X4336919Y2142249D01*
X4326686Y2157563D01*
X4313663Y2170586D01*
X4298349Y2180819D01*
X4291371Y2183709D01*
X4345206Y2237543D01*
X4347629Y2239532D01*
X4355564Y2249201D01*
X4361460Y2260232D01*
X4365091Y2272202D01*
X4366010Y2281531D01*
X4366010Y2281532D01*
X4366317Y2284650D01*
X4366010Y2287768D01*
X4366010Y2329320D01*
X4368046Y2325511D01*
X4375982Y2315842D01*
X4385651Y2307906D01*
X4396682Y2302010D01*
X4408652Y2298379D01*
X4421100Y2297153D01*
X4422525Y2297460D01*
X4438400Y2313335D01*
X4438400Y2423260D01*
X4463800Y2423260D01*
X4463800Y2313335D01*
X4479675Y2297460D01*
X4481100Y2297153D01*
X4493548Y2298379D01*
X4505518Y2302010D01*
X4514600Y2306864D01*
X4523682Y2302010D01*
X4535652Y2298379D01*
X4548100Y2297153D01*
X4549525Y2297460D01*
X4565400Y2313335D01*
X4565400Y2423260D01*
X4590800Y2423260D01*
X4590800Y2313335D01*
X4606675Y2297460D01*
X4608100Y2297153D01*
X4620548Y2298379D01*
X4632518Y2302010D01*
X4641600Y2306864D01*
X4650682Y2302010D01*
X4662652Y2298379D01*
X4675100Y2297153D01*
X4676525Y2297460D01*
X4692400Y2313335D01*
X4692400Y2423260D01*
X4717800Y2423260D01*
X4717800Y2313335D01*
X4733675Y2297460D01*
X4735100Y2297153D01*
X4747548Y2298379D01*
X4759518Y2302010D01*
X4768600Y2306864D01*
X4777682Y2302010D01*
X4789652Y2298379D01*
X4802100Y2297153D01*
X4803525Y2297460D01*
X4819400Y2313335D01*
X4819400Y2423260D01*
X4844800Y2423260D01*
X4844800Y2313335D01*
X4860675Y2297460D01*
X4862100Y2297153D01*
X4874548Y2298379D01*
X4886518Y2302010D01*
X4895600Y2306864D01*
X4904682Y2302010D01*
X4916652Y2298379D01*
X4929100Y2297153D01*
X4930525Y2297460D01*
X4946400Y2313335D01*
X4946400Y2423260D01*
X4844800Y2423260D01*
X4819400Y2423260D01*
X4717800Y2423260D01*
X4692400Y2423260D01*
X4590800Y2423260D01*
X4565400Y2423260D01*
X4463800Y2423260D01*
X4438400Y2423260D01*
X4436400Y2423260D01*
X4436400Y2448660D01*
X4438400Y2448660D01*
X4438400Y2450660D01*
X4463800Y2450660D01*
X4463800Y2448660D01*
X4565400Y2448660D01*
X4565400Y2450660D01*
X4590800Y2450660D01*
X4590800Y2448660D01*
X4692400Y2448660D01*
X4692400Y2450660D01*
X4717800Y2450660D01*
X4717800Y2448660D01*
X4819400Y2448660D01*
X4819400Y2450660D01*
X4844800Y2450660D01*
X4844800Y2448660D01*
X4946400Y2448660D01*
X4946400Y2450660D01*
X4971800Y2450660D01*
X4971800Y2448660D01*
X4973800Y2448660D01*
X4973800Y2423260D01*
X4971800Y2423260D01*
X4971800Y2313335D01*
X4987675Y2297460D01*
X4989100Y2297153D01*
X5001548Y2298379D01*
X5013518Y2302010D01*
X5024549Y2307906D01*
X5031379Y2313511D01*
X5035527Y2311293D01*
X5045612Y2308234D01*
X5056100Y2307201D01*
X5116100Y2307201D01*
X5126588Y2308234D01*
X5136673Y2311293D01*
X5145967Y2316261D01*
X5149600Y2319243D01*
X5149600Y2080329D01*
X5140474Y2071203D01*
X5130241Y2055889D01*
X5123193Y2038873D01*
X5119600Y2020809D01*
X5119600Y2002391D01*
X5123193Y1984327D01*
X5130241Y1967311D01*
X5140474Y1951997D01*
X5153497Y1938974D01*
X5168811Y1928741D01*
X5185827Y1921693D01*
X5203891Y1918100D01*
X5222309Y1918100D01*
X5240373Y1921693D01*
X5257389Y1928741D01*
X5272703Y1938974D01*
X5285726Y1951997D01*
X5295959Y1967311D01*
X5303007Y1984327D01*
X5306600Y2002391D01*
X5306600Y2020809D01*
X5303007Y2038873D01*
X5295959Y2055889D01*
X5285726Y2071203D01*
X5276600Y2080329D01*
X5276600Y2085111D01*
X5280497Y2081214D01*
X5295811Y2070981D01*
X5312827Y2063933D01*
X5330891Y2060340D01*
X5349309Y2060340D01*
X5367373Y2063933D01*
X5384389Y2070981D01*
X5399703Y2081214D01*
X5412161Y2093672D01*
X5412161Y1971181D01*
X5386456Y1971181D01*
X5381929Y1970280D01*
X5377336Y1969828D01*
X5372919Y1968488D01*
X5368392Y1967588D01*
X5364128Y1965822D01*
X5359711Y1964482D01*
X5355640Y1962306D01*
X5351376Y1960540D01*
X5347539Y1957975D01*
X5343468Y1955800D01*
X5339900Y1952871D01*
X5336062Y1950307D01*
X5332799Y1947043D01*
X5329231Y1944115D01*
X5326303Y1940547D01*
X5323039Y1937284D01*
X5320475Y1933446D01*
X5317546Y1929878D01*
X5315371Y1925807D01*
X5312806Y1921970D01*
X5311040Y1917706D01*
X5308864Y1913635D01*
X5307524Y1909218D01*
X5305758Y1904954D01*
X5304858Y1900427D01*
X5303518Y1896010D01*
X5303066Y1891417D01*
X5302165Y1886890D01*
X5302165Y1882274D01*
X5301713Y1877681D01*
X5302165Y1873088D01*
X5302165Y1868472D01*
X5303066Y1863945D01*
X5303518Y1859352D01*
X5304858Y1854935D01*
X5305758Y1850408D01*
X5307524Y1846144D01*
X5308864Y1841727D01*
X5311040Y1837656D01*
X5312806Y1833392D01*
X5315371Y1829555D01*
X5317546Y1825484D01*
X5320475Y1821916D01*
X5323039Y1818078D01*
X5326303Y1814814D01*
X5329231Y1811247D01*
X5332799Y1808318D01*
X5336062Y1805055D01*
X5339900Y1802491D01*
X5343468Y1799562D01*
X5347539Y1797386D01*
X5351376Y1794822D01*
X5355640Y1793056D01*
X5359711Y1790880D01*
X5364128Y1789540D01*
X5368392Y1787774D01*
X5372919Y1786874D01*
X5377336Y1785534D01*
X5381929Y1785081D01*
X5386456Y1784181D01*
X5499870Y1784181D01*
X5504397Y1785081D01*
X5508990Y1785534D01*
X5513407Y1786874D01*
X5517934Y1787774D01*
X5522198Y1789540D01*
X5526615Y1790880D01*
X5530686Y1793056D01*
X5534950Y1794822D01*
X5538787Y1797386D01*
X5542858Y1799562D01*
X5546426Y1802491D01*
X5550264Y1805055D01*
X5553528Y1808318D01*
X5557095Y1811247D01*
X5560024Y1814814D01*
X5563287Y1818078D01*
X5565851Y1821916D01*
X5568780Y1825484D01*
X5570956Y1829555D01*
X5572456Y1831800D01*
X5697473Y1831800D01*
X5697780Y1782875D01*
X5713655Y1767000D01*
X5778580Y1767000D01*
X5778580Y1879425D01*
X5762705Y1895300D01*
X5761280Y1895607D01*
X5748832Y1894381D01*
X5736862Y1890750D01*
X5725831Y1884854D01*
X5716161Y1876918D01*
X5708226Y1867249D01*
X5702330Y1856218D01*
X5698699Y1844248D01*
X5697473Y1831800D01*
X5572456Y1831800D01*
X5573520Y1833392D01*
X5575286Y1837656D01*
X5577462Y1841727D01*
X5578802Y1846144D01*
X5580568Y1850408D01*
X5581468Y1854935D01*
X5582808Y1859352D01*
X5583261Y1863945D01*
X5584161Y1868472D01*
X5584161Y1873088D01*
X5584613Y1877681D01*
X5584161Y1882274D01*
X5584161Y1886890D01*
X5583261Y1891417D01*
X5582808Y1896010D01*
X5581468Y1900427D01*
X5580568Y1904954D01*
X5578802Y1909218D01*
X5577462Y1913635D01*
X5575286Y1917706D01*
X5573520Y1921970D01*
X5570956Y1925807D01*
X5569161Y1929165D01*
X5569161Y2378750D01*
X5705860Y2378750D01*
X5705860Y2049705D01*
X5701373Y2038873D01*
X5697780Y2020809D01*
X5697780Y2002391D01*
X5701373Y1984327D01*
X5708421Y1967311D01*
X5718654Y1951997D01*
X5731677Y1938974D01*
X5746991Y1928741D01*
X5764007Y1921693D01*
X5782071Y1918100D01*
X5800489Y1918100D01*
X5818553Y1921693D01*
X5835569Y1928741D01*
X5847280Y1936567D01*
X5847280Y1889905D01*
X5845698Y1890750D01*
X5833728Y1894381D01*
X5821280Y1895607D01*
X5819855Y1895300D01*
X5803980Y1879425D01*
X5803980Y1767000D01*
X5805980Y1767000D01*
X5805980Y1741600D01*
X5803980Y1741600D01*
X5803980Y1629175D01*
X5819855Y1613300D01*
X5821280Y1612993D01*
X5833728Y1614219D01*
X5845698Y1617850D01*
X5856729Y1623746D01*
X5863559Y1629351D01*
X5867707Y1627133D01*
X5877792Y1624074D01*
X5888280Y1623041D01*
X5948280Y1623041D01*
X5958768Y1624074D01*
X5968853Y1627133D01*
X5973001Y1629351D01*
X5979831Y1623746D01*
X5990862Y1617850D01*
X6002832Y1614219D01*
X6015280Y1612993D01*
X6016705Y1613300D01*
X6032580Y1629175D01*
X6032580Y1741600D01*
X6057980Y1741600D01*
X6057980Y1629175D01*
X6073855Y1613300D01*
X6075280Y1612993D01*
X6087728Y1614219D01*
X6099698Y1617850D01*
X6108780Y1622704D01*
X6117862Y1617850D01*
X6129832Y1614219D01*
X6142280Y1612993D01*
X6143705Y1613300D01*
X6159580Y1629175D01*
X6159580Y1741600D01*
X6184980Y1741600D01*
X6184980Y1629175D01*
X6200855Y1613300D01*
X6202280Y1612993D01*
X6214728Y1614219D01*
X6226698Y1617850D01*
X6237729Y1623746D01*
X6247398Y1631681D01*
X6255334Y1641351D01*
X6261230Y1652382D01*
X6264861Y1664352D01*
X6266087Y1676800D01*
X6265780Y1725725D01*
X6249905Y1741600D01*
X6184980Y1741600D01*
X6159580Y1741600D01*
X6057980Y1741600D01*
X6032580Y1741600D01*
X6030580Y1741600D01*
X6030580Y1767000D01*
X6032580Y1767000D01*
X6032580Y1879425D01*
X6057980Y1879425D01*
X6057980Y1767000D01*
X6159580Y1767000D01*
X6159580Y1879425D01*
X6184980Y1879425D01*
X6184980Y1767000D01*
X6249905Y1767000D01*
X6265780Y1782875D01*
X6266087Y1831800D01*
X6264861Y1844248D01*
X6261230Y1856218D01*
X6255334Y1867249D01*
X6247398Y1876918D01*
X6237729Y1884854D01*
X6226698Y1890750D01*
X6214728Y1894381D01*
X6202280Y1895607D01*
X6200855Y1895300D01*
X6184980Y1879425D01*
X6159580Y1879425D01*
X6143705Y1895300D01*
X6142280Y1895607D01*
X6129832Y1894381D01*
X6117862Y1890750D01*
X6108780Y1885896D01*
X6099698Y1890750D01*
X6087728Y1894381D01*
X6075280Y1895607D01*
X6073855Y1895300D01*
X6057980Y1879425D01*
X6032580Y1879425D01*
X6016705Y1895300D01*
X6015280Y1895607D01*
X6002832Y1894381D01*
X5990862Y1890750D01*
X5989280Y1889905D01*
X5989280Y1916151D01*
X6020769Y1947640D01*
X6105152Y1947640D01*
X6108640Y1947296D01*
X6112127Y1947640D01*
X6112128Y1947640D01*
X6122558Y1948667D01*
X6135942Y1952727D01*
X6148276Y1959320D01*
X6159087Y1968192D01*
X6161311Y1970902D01*
X6193729Y2003320D01*
X7042253Y2003320D01*
X7042560Y1831895D01*
X7058435Y1816020D01*
X7293360Y1816020D01*
X7293360Y2050945D01*
X7318760Y2050945D01*
X7318760Y1816020D01*
X7553685Y1816020D01*
X7569560Y1831895D01*
X7569867Y2003320D01*
X7568641Y2015768D01*
X7565010Y2027738D01*
X7559114Y2038769D01*
X7551178Y2048438D01*
X7541509Y2056374D01*
X7530478Y2062270D01*
X7518508Y2065901D01*
X7506060Y2067127D01*
X7334635Y2066820D01*
X7318760Y2050945D01*
X7293360Y2050945D01*
X7277485Y2066820D01*
X7106060Y2067127D01*
X7093612Y2065901D01*
X7081642Y2062270D01*
X7070611Y2056374D01*
X7060941Y2048438D01*
X7053006Y2038769D01*
X7047110Y2027738D01*
X7043479Y2015768D01*
X7042253Y2003320D01*
X6193729Y2003320D01*
X6220018Y2029609D01*
X6222727Y2031832D01*
X6228523Y2038894D01*
X6231600Y2042644D01*
X6238193Y2054978D01*
X6242253Y2068361D01*
X6243623Y2082280D01*
X6243280Y2085768D01*
X6243280Y2092611D01*
X6244906Y2094237D01*
X6255139Y2109551D01*
X6262187Y2126567D01*
X6265780Y2144631D01*
X6265780Y2163049D01*
X6262187Y2181113D01*
X6255139Y2198129D01*
X6253340Y2200821D01*
X6255006Y2206312D01*
X6256039Y2216800D01*
X6256039Y2371800D01*
X6255006Y2382288D01*
X6251947Y2392373D01*
X6246979Y2401667D01*
X6243280Y2406174D01*
X6243280Y2420533D01*
X6243623Y2424020D01*
X6243224Y2428075D01*
X6242253Y2437938D01*
X6238193Y2451322D01*
X6232859Y2461300D01*
X6428812Y2461300D01*
X6432300Y2460957D01*
X6435787Y2461300D01*
X6435788Y2461300D01*
X6446218Y2462327D01*
X6459602Y2466387D01*
X6471936Y2472980D01*
X6482747Y2481853D01*
X6484971Y2484562D01*
X6522729Y2522320D01*
X7078057Y2522320D01*
X7078057Y2428320D01*
X7079267Y2416029D01*
X7082852Y2404210D01*
X7088675Y2393317D01*
X7096510Y2383770D01*
X7106057Y2375935D01*
X7116950Y2370113D01*
X7128769Y2366527D01*
X7141060Y2365317D01*
X7471060Y2365317D01*
X7483351Y2366527D01*
X7495170Y2370113D01*
X7506063Y2375935D01*
X7515610Y2383770D01*
X7523445Y2393317D01*
X7529267Y2404210D01*
X7532853Y2416029D01*
X7534063Y2428320D01*
X7534063Y2758320D01*
X7532853Y2770611D01*
X7529267Y2782430D01*
X7523445Y2793323D01*
X7515610Y2802870D01*
X7506063Y2810705D01*
X7495170Y2816527D01*
X7483351Y2820113D01*
X7471060Y2821323D01*
X7141060Y2821323D01*
X7128769Y2820113D01*
X7116950Y2816527D01*
X7106057Y2810705D01*
X7096510Y2802870D01*
X7088675Y2793323D01*
X7082852Y2782430D01*
X7079267Y2770611D01*
X7078057Y2758320D01*
X7078057Y2664320D01*
X6496807Y2664320D01*
X6493320Y2664664D01*
X6489832Y2664320D01*
X6489832Y2664320D01*
X6479402Y2663293D01*
X6466018Y2659233D01*
X6453684Y2652640D01*
X6442872Y2643768D01*
X6440649Y2641058D01*
X6402891Y2603300D01*
X5660729Y2603300D01*
X5659103Y2604926D01*
X5643789Y2615159D01*
X5626773Y2622207D01*
X5608709Y2625800D01*
X5590291Y2625800D01*
X5572227Y2622207D01*
X5569161Y2620937D01*
X5569161Y3025945D01*
X5619078Y3075863D01*
X5626773Y3077393D01*
X5643789Y3084441D01*
X5659103Y3094674D01*
X5672126Y3107697D01*
X5682359Y3123011D01*
X5689407Y3140027D01*
X5693000Y3158091D01*
X5693000Y3176509D01*
X5689407Y3194573D01*
X5682359Y3211589D01*
X5672126Y3226903D01*
X5659103Y3239926D01*
X5643789Y3250159D01*
X5626773Y3257207D01*
X5608709Y3260800D01*
X5590291Y3260800D01*
X5572227Y3257207D01*
X5555211Y3250159D01*
X5539897Y3239926D01*
X5526874Y3226903D01*
X5516641Y3211589D01*
X5509593Y3194573D01*
X5508063Y3186878D01*
X5492500Y3171316D01*
X5492500Y3241181D01*
X5520660Y3241181D01*
X5531148Y3242214D01*
X5541233Y3245273D01*
X5550527Y3250241D01*
X5558673Y3256927D01*
X5565359Y3265073D01*
X5568762Y3271440D01*
X5679557Y3271440D01*
X5721100Y3229897D01*
X5721100Y2850379D01*
X5720793Y2847260D01*
X5721100Y2844141D01*
X5721100Y2844141D01*
X5722019Y2834812D01*
X5723072Y2831341D01*
X5725650Y2822842D01*
X5731264Y2812339D01*
X5731546Y2811811D01*
X5739482Y2802141D01*
X5741905Y2800153D01*
X5817453Y2724605D01*
X5819441Y2722182D01*
X5829111Y2714246D01*
X5840142Y2708350D01*
X5852112Y2704719D01*
X5861441Y2703800D01*
X5861442Y2703800D01*
X5864560Y2703493D01*
X5867678Y2703800D01*
X5971270Y2703800D01*
X5985704Y2682199D01*
X6004299Y2663604D01*
X6026164Y2648994D01*
X6050459Y2638930D01*
X6076251Y2633800D01*
X6102549Y2633800D01*
X6128340Y2638930D01*
X6152636Y2648994D01*
X6174501Y2663604D01*
X6193096Y2682199D01*
X6207530Y2703800D01*
X6400022Y2703800D01*
X6403140Y2703493D01*
X6406258Y2703800D01*
X6406259Y2703800D01*
X6415588Y2704719D01*
X6427558Y2708350D01*
X6438589Y2714246D01*
X6448258Y2722182D01*
X6450247Y2724605D01*
X6453782Y2728140D01*
X6560241Y2728140D01*
X6560241Y2726640D01*
X6561274Y2716152D01*
X6564333Y2706067D01*
X6569301Y2696773D01*
X6575987Y2688627D01*
X6584133Y2681941D01*
X6593427Y2676973D01*
X6603512Y2673914D01*
X6614000Y2672881D01*
X6784000Y2672881D01*
X6794488Y2673914D01*
X6804573Y2676973D01*
X6813867Y2681941D01*
X6822013Y2688627D01*
X6828699Y2696773D01*
X6833667Y2706067D01*
X6836726Y2716152D01*
X6837759Y2726640D01*
X6837759Y2856640D01*
X6836726Y2867128D01*
X6833667Y2877213D01*
X6828699Y2886507D01*
X6822013Y2894653D01*
X6813867Y2901339D01*
X6804573Y2906307D01*
X6794488Y2909366D01*
X6784000Y2910399D01*
X6614000Y2910399D01*
X6603512Y2909366D01*
X6593427Y2906307D01*
X6584133Y2901339D01*
X6575987Y2894653D01*
X6569301Y2886507D01*
X6564333Y2877213D01*
X6561274Y2867128D01*
X6560241Y2856640D01*
X6560241Y2855140D01*
X6430599Y2855140D01*
X6427480Y2855447D01*
X6424361Y2855140D01*
X6424361Y2855140D01*
X6415032Y2854221D01*
X6403062Y2850590D01*
X6397367Y2847546D01*
X6392031Y2844694D01*
X6392030Y2844694D01*
X6392031Y2844694D01*
X6382361Y2836758D01*
X6380373Y2834335D01*
X6376837Y2830800D01*
X6207530Y2830800D01*
X6193096Y2852401D01*
X6174501Y2870996D01*
X6152636Y2885606D01*
X6128340Y2895670D01*
X6102549Y2900800D01*
X6076251Y2900800D01*
X6050459Y2895670D01*
X6026164Y2885606D01*
X6004299Y2870996D01*
X5985704Y2852401D01*
X5971270Y2830800D01*
X5890862Y2830800D01*
X5848100Y2873562D01*
X5848100Y3247300D01*
X5955641Y3247300D01*
X5955641Y3087300D01*
X5956674Y3076812D01*
X5959733Y3066727D01*
X5964701Y3057433D01*
X5971387Y3049287D01*
X5979533Y3042601D01*
X5988827Y3037633D01*
X5998912Y3034574D01*
X6009400Y3033541D01*
X6169400Y3033541D01*
X6179888Y3034574D01*
X6189973Y3037633D01*
X6199267Y3042601D01*
X6207413Y3049287D01*
X6214099Y3057433D01*
X6219067Y3066727D01*
X6222126Y3076812D01*
X6223159Y3087300D01*
X6223159Y3103800D01*
X6385678Y3103800D01*
X6390533Y3098945D01*
X6392521Y3096521D01*
X6402191Y3088586D01*
X6413222Y3082690D01*
X6425192Y3079059D01*
X6434521Y3078140D01*
X6434522Y3078140D01*
X6437640Y3077833D01*
X6440758Y3078140D01*
X6560241Y3078140D01*
X6560241Y3076640D01*
X6561274Y3066152D01*
X6564333Y3056067D01*
X6569301Y3046773D01*
X6575987Y3038627D01*
X6584133Y3031941D01*
X6593427Y3026973D01*
X6603512Y3023914D01*
X6614000Y3022881D01*
X6784000Y3022881D01*
X6794488Y3023914D01*
X6804573Y3026973D01*
X6813867Y3031941D01*
X6822013Y3038627D01*
X6828699Y3046773D01*
X6833667Y3056067D01*
X6836726Y3066152D01*
X6837759Y3076640D01*
X6837759Y3206640D01*
X6836726Y3217128D01*
X6833667Y3227213D01*
X6828699Y3236507D01*
X6822013Y3244653D01*
X6813867Y3251339D01*
X6804573Y3256307D01*
X6794488Y3259366D01*
X6784000Y3260399D01*
X6614000Y3260399D01*
X6603512Y3259366D01*
X6593427Y3256307D01*
X6584133Y3251339D01*
X6575987Y3244653D01*
X6569301Y3236507D01*
X6564333Y3227213D01*
X6561274Y3217128D01*
X6560241Y3206640D01*
X6560241Y3205140D01*
X6463942Y3205140D01*
X6459087Y3209995D01*
X6457098Y3212418D01*
X6447429Y3220354D01*
X6436398Y3226250D01*
X6424428Y3229881D01*
X6415099Y3230800D01*
X6415098Y3230800D01*
X6411980Y3231107D01*
X6408862Y3230800D01*
X6223159Y3230800D01*
X6223159Y3247300D01*
X6222126Y3257788D01*
X6219067Y3267873D01*
X6214099Y3277167D01*
X6207413Y3285313D01*
X6199267Y3291999D01*
X6189973Y3296967D01*
X6179888Y3300026D01*
X6169400Y3301059D01*
X6009400Y3301059D01*
X5998912Y3300026D01*
X5988827Y3296967D01*
X5979533Y3291999D01*
X5971387Y3285313D01*
X5964701Y3277167D01*
X5959733Y3267873D01*
X5956674Y3257788D01*
X5955641Y3247300D01*
X5848100Y3247300D01*
X5848100Y3253081D01*
X5848407Y3256200D01*
X5848095Y3259366D01*
X5847181Y3268648D01*
X5843550Y3280618D01*
X5842872Y3281886D01*
X5837654Y3291649D01*
X5831707Y3298896D01*
X5831706Y3298896D01*
X5829718Y3301318D01*
X5827296Y3303306D01*
X5752967Y3377635D01*
X5750978Y3380058D01*
X5741309Y3387994D01*
X5730278Y3393890D01*
X5718308Y3397521D01*
X5708979Y3398440D01*
X5708978Y3398440D01*
X5705860Y3398747D01*
X5702742Y3398440D01*
X5568762Y3398440D01*
X5565359Y3404807D01*
X5558673Y3412953D01*
X5550527Y3419639D01*
X5541233Y3424607D01*
X5531148Y3427666D01*
X5520660Y3428699D01*
X5430660Y3428699D01*
X5420172Y3427666D01*
X5410087Y3424607D01*
X5400793Y3419639D01*
X5392647Y3412953D01*
X5385961Y3404807D01*
X5384135Y3401390D01*
X5368285Y3417240D01*
X5288360Y3417240D01*
X5288360Y3415240D01*
X5262960Y3415240D01*
X5262960Y3417240D01*
X5183035Y3417240D01*
X5167160Y3401365D01*
X5166853Y3389940D01*
X5168079Y3377492D01*
X5171710Y3365522D01*
X5177606Y3354491D01*
X5185542Y3344821D01*
X5195211Y3336886D01*
X5203604Y3332400D01*
X5142619Y3332400D01*
X5142619Y3374940D01*
X5141586Y3385428D01*
X5138527Y3395513D01*
X5133559Y3404807D01*
X5126873Y3412953D01*
X5118727Y3419639D01*
X5109433Y3424607D01*
X5099348Y3427666D01*
X5088860Y3428699D01*
X5045826Y3428699D01*
X5043860Y3428892D01*
X5041894Y3428699D01*
X4998860Y3428699D01*
X4988372Y3427666D01*
X4978287Y3424607D01*
X4968993Y3419639D01*
X4960847Y3412953D01*
X4954161Y3404807D01*
X4952335Y3401390D01*
X4936485Y3417240D01*
X4856560Y3417240D01*
X4856560Y3415240D01*
X4831160Y3415240D01*
X4831160Y3417240D01*
X4829160Y3417240D01*
X4829160Y3442640D01*
X4831160Y3442640D01*
X4831160Y3517565D01*
X4856560Y3517565D01*
X4856560Y3442640D01*
X4936485Y3442640D01*
X4952360Y3458515D01*
X4952667Y3469940D01*
X5166853Y3469940D01*
X5167160Y3458515D01*
X5183035Y3442640D01*
X5262960Y3442640D01*
X5262960Y3517565D01*
X5288360Y3517565D01*
X5288360Y3442640D01*
X5368285Y3442640D01*
X5384160Y3458515D01*
X5384467Y3469940D01*
X5383241Y3482388D01*
X5379610Y3494358D01*
X5373714Y3505389D01*
X5365779Y3515058D01*
X5356109Y3522994D01*
X5345078Y3528890D01*
X5333108Y3532521D01*
X5320660Y3533747D01*
X5304235Y3533440D01*
X5288360Y3517565D01*
X5262960Y3517565D01*
X5247085Y3533440D01*
X5230660Y3533747D01*
X5218212Y3532521D01*
X5206242Y3528890D01*
X5195211Y3522994D01*
X5185542Y3515058D01*
X5177606Y3505389D01*
X5171710Y3494358D01*
X5168079Y3482388D01*
X5166853Y3469940D01*
X4952667Y3469940D01*
X4951441Y3482388D01*
X4947810Y3494358D01*
X4941914Y3505389D01*
X4933979Y3515058D01*
X4924309Y3522994D01*
X4913278Y3528890D01*
X4901308Y3532521D01*
X4888860Y3533747D01*
X4872435Y3533440D01*
X4856560Y3517565D01*
X4831160Y3517565D01*
X4815285Y3533440D01*
X4798860Y3533747D01*
X4786412Y3532521D01*
X4774442Y3528890D01*
X4763411Y3522994D01*
X4753742Y3515058D01*
X4745806Y3505389D01*
X4739910Y3494358D01*
X4736279Y3482388D01*
X4735053Y3469940D01*
X4735246Y3462738D01*
X4731803Y3469180D01*
X4713871Y3491031D01*
X4692020Y3508963D01*
X4667091Y3522288D01*
X4640041Y3530494D01*
X4611910Y3533264D01*
X4583779Y3530494D01*
X4556729Y3522288D01*
X4531800Y3508963D01*
X4509949Y3491031D01*
X4492017Y3469180D01*
X4484910Y3455884D01*
X4477803Y3469180D01*
X4459871Y3491031D01*
X4438020Y3508963D01*
X4413091Y3522288D01*
X4386041Y3530494D01*
X4357910Y3533264D01*
X4329779Y3530494D01*
X4302729Y3522288D01*
X4277800Y3508963D01*
X4255949Y3491031D01*
X4238017Y3469180D01*
X4230910Y3455884D01*
X4223803Y3469180D01*
X4205871Y3491031D01*
X4184020Y3508963D01*
X4159091Y3522288D01*
X4132041Y3530494D01*
X4103910Y3533264D01*
X4075779Y3530494D01*
X4048729Y3522288D01*
X4023800Y3508963D01*
X4001949Y3491031D01*
X3984017Y3469180D01*
X3976910Y3455884D01*
X3969803Y3469180D01*
X3951871Y3491031D01*
X3930020Y3508963D01*
X3905091Y3522288D01*
X3878041Y3530494D01*
X3849910Y3533264D01*
X3821779Y3530494D01*
X3794729Y3522288D01*
X3769800Y3508963D01*
X3747949Y3491031D01*
X3730017Y3469180D01*
X3722910Y3455884D01*
X3715803Y3469180D01*
X3697871Y3491031D01*
X3676020Y3508963D01*
X3651091Y3522288D01*
X3624041Y3530494D01*
X3595910Y3533264D01*
X3567779Y3530494D01*
X3540729Y3522288D01*
X3515800Y3508963D01*
X3493949Y3491031D01*
X3476017Y3469180D01*
X3468910Y3455884D01*
X3461803Y3469180D01*
X3443871Y3491031D01*
X3422020Y3508963D01*
X3397091Y3522288D01*
X3370041Y3530494D01*
X3341910Y3533264D01*
X3313779Y3530494D01*
X3286729Y3522288D01*
X3261800Y3508963D01*
X3239949Y3491031D01*
X3222017Y3469180D01*
X3214910Y3455884D01*
X3207803Y3469180D01*
X3189871Y3491031D01*
X3168020Y3508963D01*
X3143091Y3522288D01*
X3116041Y3530494D01*
X3087910Y3533264D01*
X3059779Y3530494D01*
X3032729Y3522288D01*
X3007800Y3508963D01*
X2985949Y3491031D01*
X2968017Y3469180D01*
X2960910Y3455884D01*
X2953803Y3469180D01*
X2935871Y3491031D01*
X2914020Y3508963D01*
X2889091Y3522288D01*
X2862041Y3530494D01*
X2833910Y3533264D01*
X2805779Y3530494D01*
X2778729Y3522288D01*
X2753800Y3508963D01*
X2731949Y3491031D01*
X2714017Y3469180D01*
X2706910Y3455884D01*
X2699803Y3469180D01*
X2681871Y3491031D01*
X2660020Y3508963D01*
X2635091Y3522288D01*
X2608041Y3530494D01*
X2579910Y3533264D01*
X2551779Y3530494D01*
X2524729Y3522288D01*
X2499800Y3508963D01*
X2477949Y3491031D01*
X2460017Y3469180D01*
X2452910Y3455884D01*
X2445803Y3469180D01*
X2427871Y3491031D01*
X2406020Y3508963D01*
X2381091Y3522288D01*
X2354041Y3530494D01*
X2325910Y3533264D01*
X2297779Y3530494D01*
X2270729Y3522288D01*
X2245800Y3508963D01*
X2223949Y3491031D01*
X2206017Y3469180D01*
X2198910Y3455884D01*
X2191803Y3469180D01*
X2173871Y3491031D01*
X2152020Y3508963D01*
X2127091Y3522288D01*
X2100041Y3530494D01*
X2071910Y3533264D01*
X2043779Y3530494D01*
X2016729Y3522288D01*
X1991800Y3508963D01*
X1969949Y3491031D01*
X1952017Y3469180D01*
X1950489Y3466322D01*
X1938485Y3484910D01*
X1917471Y3506591D01*
X1892630Y3523756D01*
X1864919Y3535745D01*
X1854384Y3538174D01*
X1830610Y3526108D01*
X1830610Y3361770D01*
X1832610Y3361770D01*
X1832610Y3336370D01*
X1830610Y3336370D01*
X1830610Y3334370D01*
X1805210Y3334370D01*
X1805210Y3336370D01*
X1803210Y3336370D01*
X1803210Y3361770D01*
X1805210Y3361770D01*
X1805210Y3526108D01*
X1781436Y3538174D01*
X1770901Y3535745D01*
X1743190Y3523756D01*
X1718349Y3506591D01*
X1697335Y3484910D01*
X1685331Y3466322D01*
X1683803Y3469180D01*
X1665871Y3491031D01*
X1644020Y3508963D01*
X1619091Y3522288D01*
X1592041Y3530494D01*
X1563910Y3533264D01*
X1535779Y3530494D01*
X1508729Y3522288D01*
X1483800Y3508963D01*
X1461949Y3491031D01*
X1444017Y3469180D01*
X1436910Y3455884D01*
X1429803Y3469180D01*
X1411871Y3491031D01*
X1390020Y3508963D01*
X1365091Y3522288D01*
X1338041Y3530494D01*
X1309910Y3533264D01*
X1281779Y3530494D01*
X1254729Y3522288D01*
X1229800Y3508963D01*
X1207949Y3491031D01*
X1190017Y3469180D01*
X1182910Y3455884D01*
X1175803Y3469180D01*
X1157871Y3491031D01*
X1136020Y3508963D01*
X1111091Y3522288D01*
X1084041Y3530494D01*
X1055910Y3533264D01*
X1027779Y3530494D01*
X1000729Y3522288D01*
X975800Y3508963D01*
X954495Y3491479D01*
X954491Y3491518D01*
X950860Y3503488D01*
X944964Y3514519D01*
X937028Y3524188D01*
X927359Y3532124D01*
X916328Y3538020D01*
X904358Y3541651D01*
X891910Y3542877D01*
X830485Y3542570D01*
X814610Y3526695D01*
X814610Y3361770D01*
X816610Y3361770D01*
X816610Y3336370D01*
X814610Y3336370D01*
X814610Y3171445D01*
X830485Y3155570D01*
X891910Y3155263D01*
X904358Y3156489D01*
X916328Y3160120D01*
X927359Y3166016D01*
X937028Y3173951D01*
X944964Y3183621D01*
X950860Y3194652D01*
X952410Y3199761D01*
X952410Y3167781D01*
X736609Y2951980D01*
X732660Y2948740D01*
X729420Y2944791D01*
X729420Y2944791D01*
X719727Y2932980D01*
X710116Y2914999D01*
X704198Y2895489D01*
X702199Y2875200D01*
X702700Y2870116D01*
X702700Y2819195D01*
X694983Y2807646D01*
X685523Y2784807D01*
X680700Y2760561D01*
X56000Y2760561D01*
X56000Y3291322D01*
X56320Y3289711D01*
X71661Y3252677D01*
X93931Y3219346D01*
X122276Y3191001D01*
X155607Y3168731D01*
X192641Y3153390D01*
X231957Y3145570D01*
X272043Y3145570D01*
X311359Y3153390D01*
X348393Y3168731D01*
X381724Y3191001D01*
X409792Y3219070D01*
X648103Y3219070D01*
X649329Y3206622D01*
X652960Y3194652D01*
X658856Y3183621D01*
X666792Y3173951D01*
X676461Y3166016D01*
X687492Y3160120D01*
X699462Y3156489D01*
X711910Y3155263D01*
X773335Y3155570D01*
X789210Y3171445D01*
X789210Y3336370D01*
X664285Y3336370D01*
X648410Y3320495D01*
X648103Y3219070D01*
X409792Y3219070D01*
X410069Y3219346D01*
X432339Y3252677D01*
X447680Y3289711D01*
X455500Y3329027D01*
X455500Y3369113D01*
X447680Y3408429D01*
X432339Y3445463D01*
X410069Y3478794D01*
X409792Y3479070D01*
X648103Y3479070D01*
X648410Y3377645D01*
X664285Y3361770D01*
X789210Y3361770D01*
X789210Y3526695D01*
X773335Y3542570D01*
X711910Y3542877D01*
X699462Y3541651D01*
X687492Y3538020D01*
X676461Y3532124D01*
X666792Y3524188D01*
X658856Y3514519D01*
X652960Y3503488D01*
X649329Y3491518D01*
X648103Y3479070D01*
X409792Y3479070D01*
X381724Y3507139D01*
X348393Y3529409D01*
X313168Y3544000D01*
X7690742Y3544000D01*
X7655517Y3529409D01*
X7655517Y3529409D01*
G37*
X7655517Y3529409D02*
X7622186Y3507139D01*
X7593841Y3478794D01*
X7571571Y3445463D01*
X7556230Y3408429D01*
X7548410Y3369113D01*
X7548410Y3329027D01*
X7556230Y3289711D01*
X7571571Y3252677D01*
X7593841Y3219346D01*
X7622186Y3191001D01*
X7655517Y3168731D01*
X7692551Y3153390D01*
X7731867Y3145570D01*
X7771953Y3145570D01*
X7811269Y3153390D01*
X7848303Y3168731D01*
X7881634Y3191001D01*
X7909979Y3219346D01*
X7932249Y3252677D01*
X7944000Y3281045D01*
X7944000Y316899D01*
X7932197Y345393D01*
X7909927Y378724D01*
X7881582Y407069D01*
X7848251Y429339D01*
X7811217Y444680D01*
X7771901Y452500D01*
X7731815Y452500D01*
X7692499Y444680D01*
X7655465Y429339D01*
X7622134Y407069D01*
X7593789Y378724D01*
X7571519Y345393D01*
X7556178Y308359D01*
X7548358Y269043D01*
X7548358Y228957D01*
X7556178Y189641D01*
X7571519Y152607D01*
X7593789Y119276D01*
X7622134Y90931D01*
X7655465Y68661D01*
X7686030Y56000D01*
X317828Y56000D01*
X348393Y68661D01*
X381724Y90931D01*
X410069Y119276D01*
X432339Y152607D01*
X447680Y189641D01*
X455500Y228957D01*
X455500Y269043D01*
X447680Y308359D01*
X432339Y345393D01*
X410069Y378724D01*
X381724Y407069D01*
X348393Y429339D01*
X311359Y444680D01*
X272043Y452500D01*
X231957Y452500D01*
X192641Y444680D01*
X155607Y429339D01*
X122276Y407069D01*
X93931Y378724D01*
X71661Y345393D01*
X56320Y308359D01*
X56000Y306748D01*
X56000Y1125000D01*
X117241Y1125000D01*
X117241Y825000D01*
X118274Y814512D01*
X121333Y804427D01*
X126301Y795133D01*
X132987Y786987D01*
X141133Y780301D01*
X150427Y775333D01*
X160512Y772274D01*
X171000Y771241D01*
X378388Y771241D01*
X618880Y530749D01*
X618880Y404258D01*
X614301Y398679D01*
X609333Y389385D01*
X606274Y379300D01*
X605241Y368812D01*
X605241Y188812D01*
X606274Y178324D01*
X609333Y168239D01*
X614301Y158945D01*
X620987Y150799D01*
X629133Y144113D01*
X638427Y139145D01*
X648512Y136086D01*
X659000Y135053D01*
X909000Y135053D01*
X919488Y136086D01*
X929573Y139145D01*
X938867Y144113D01*
X947013Y150799D01*
X953699Y158945D01*
X958667Y168239D01*
X961726Y178324D01*
X962759Y188812D01*
X962759Y368812D01*
X961726Y379300D01*
X958667Y389385D01*
X953699Y398679D01*
X947013Y406825D01*
X938867Y413511D01*
X929573Y418479D01*
X919488Y421538D01*
X909000Y422571D01*
X825880Y422571D01*
X825880Y568537D01*
X826381Y573620D01*
X825880Y578703D01*
X825880Y578704D01*
X824382Y593910D01*
X818464Y613419D01*
X811589Y626282D01*
X808853Y631400D01*
X799160Y643211D01*
X795920Y647160D01*
X791971Y650400D01*
X667871Y774500D01*
X864491Y774500D01*
X864491Y554500D01*
X865524Y544012D01*
X868583Y533927D01*
X873551Y524633D01*
X880237Y516487D01*
X888383Y509801D01*
X897677Y504833D01*
X907762Y501774D01*
X918250Y500741D01*
X995638Y500741D01*
X1073808Y422571D01*
X1059000Y422571D01*
X1048512Y421538D01*
X1038427Y418479D01*
X1029133Y413511D01*
X1020987Y406825D01*
X1014301Y398679D01*
X1009333Y389385D01*
X1006274Y379300D01*
X1005241Y368812D01*
X1005241Y188812D01*
X1006274Y178324D01*
X1009333Y168239D01*
X1014301Y158945D01*
X1020987Y150799D01*
X1029133Y144113D01*
X1038427Y139145D01*
X1048512Y136086D01*
X1059000Y135053D01*
X1309000Y135053D01*
X1319488Y136086D01*
X1326275Y138145D01*
X1333559Y129269D01*
X1345494Y119474D01*
X1359110Y112196D01*
X1373885Y107714D01*
X1389250Y106201D01*
X1479250Y106201D01*
X1494615Y107714D01*
X1509390Y112196D01*
X1523006Y119474D01*
X1534941Y129269D01*
X1544736Y141204D01*
X1547850Y147032D01*
X1552478Y147487D01*
X1565862Y151547D01*
X1578196Y158140D01*
X1589007Y167013D01*
X1591231Y169722D01*
X1602127Y180618D01*
X1606164Y173064D01*
X1615959Y161129D01*
X1627894Y151335D01*
X1641510Y144056D01*
X1656285Y139575D01*
X1671650Y138061D01*
X1764150Y138061D01*
X1779515Y139575D01*
X1794290Y144056D01*
X1807906Y151335D01*
X1819841Y161129D01*
X1829635Y173064D01*
X1836914Y186680D01*
X1841395Y201455D01*
X1842909Y216820D01*
X1842909Y341820D01*
X1841395Y357185D01*
X1836914Y371960D01*
X1834789Y375935D01*
X1842204Y384971D01*
X1848100Y396002D01*
X1851731Y407972D01*
X1852957Y420420D01*
X1852650Y479345D01*
X1836775Y495220D01*
X1730600Y495220D01*
X1730600Y493220D01*
X1705200Y493220D01*
X1705200Y495220D01*
X1599025Y495220D01*
X1583150Y479345D01*
X1582843Y420420D01*
X1584069Y407972D01*
X1587700Y396002D01*
X1593596Y384971D01*
X1601011Y375935D01*
X1598886Y371960D01*
X1594404Y357185D01*
X1593697Y350001D01*
X1586501Y349293D01*
X1573118Y345233D01*
X1562743Y339688D01*
X1563200Y340542D01*
X1566831Y352512D01*
X1568057Y364960D01*
X1567750Y393885D01*
X1551875Y409760D01*
X1446950Y409760D01*
X1446950Y407760D01*
X1421550Y407760D01*
X1421550Y409760D01*
X1419550Y409760D01*
X1419550Y435160D01*
X1421550Y435160D01*
X1421550Y651800D01*
X1446950Y651800D01*
X1446950Y435160D01*
X1551875Y435160D01*
X1567750Y451035D01*
X1568057Y479960D01*
X1566831Y492408D01*
X1563200Y504378D01*
X1557304Y515409D01*
X1550069Y524225D01*
X1553200Y530082D01*
X1556831Y542052D01*
X1558057Y554500D01*
X1557903Y595420D01*
X1582843Y595420D01*
X1583150Y536495D01*
X1599025Y520620D01*
X1705200Y520620D01*
X1705200Y643045D01*
X1730600Y643045D01*
X1730600Y520620D01*
X1836775Y520620D01*
X1852650Y536495D01*
X1852957Y595420D01*
X1851731Y607868D01*
X1848100Y619838D01*
X1842204Y630869D01*
X1834268Y640539D01*
X1824599Y648474D01*
X1813568Y654370D01*
X1801598Y658001D01*
X1789150Y659227D01*
X1746475Y658920D01*
X1730600Y643045D01*
X1705200Y643045D01*
X1689325Y658920D01*
X1646650Y659227D01*
X1634202Y658001D01*
X1622232Y654370D01*
X1611201Y648474D01*
X1601531Y640539D01*
X1593596Y630869D01*
X1587700Y619838D01*
X1584069Y607868D01*
X1582843Y595420D01*
X1557903Y595420D01*
X1557750Y635925D01*
X1541875Y651800D01*
X1446950Y651800D01*
X1421550Y651800D01*
X1326625Y651800D01*
X1310750Y635925D01*
X1310443Y554500D01*
X1311669Y542052D01*
X1315300Y530082D01*
X1318431Y524225D01*
X1311196Y515409D01*
X1305300Y504378D01*
X1301669Y492408D01*
X1300443Y479960D01*
X1300750Y451035D01*
X1316625Y435160D01*
X1300750Y435160D01*
X1300750Y422571D01*
X1287500Y422571D01*
X1287500Y453667D01*
X1288001Y458750D01*
X1287500Y463833D01*
X1287500Y463834D01*
X1286002Y479039D01*
X1280084Y498549D01*
X1274294Y509381D01*
X1270473Y516530D01*
X1260780Y528341D01*
X1257540Y532290D01*
X1253591Y535530D01*
X1092009Y697112D01*
X1092009Y774500D01*
X1310443Y774500D01*
X1310750Y693075D01*
X1326625Y677200D01*
X1421550Y677200D01*
X1421550Y822125D01*
X1446950Y822125D01*
X1446950Y677200D01*
X1541875Y677200D01*
X1557750Y693075D01*
X1558057Y774500D01*
X1556831Y786948D01*
X1553200Y798918D01*
X1547304Y809949D01*
X1539368Y819618D01*
X1529699Y827554D01*
X1518668Y833450D01*
X1506698Y837081D01*
X1494250Y838307D01*
X1462825Y838000D01*
X1446950Y822125D01*
X1421550Y822125D01*
X1405675Y838000D01*
X1374250Y838307D01*
X1361802Y837081D01*
X1349832Y833450D01*
X1338801Y827554D01*
X1329132Y819618D01*
X1321196Y809949D01*
X1315300Y798918D01*
X1311669Y786948D01*
X1310443Y774500D01*
X1092009Y774500D01*
X1090976Y784988D01*
X1087917Y795073D01*
X1082949Y804367D01*
X1076263Y812513D01*
X1068117Y819199D01*
X1058823Y824167D01*
X1048738Y827226D01*
X1038250Y828259D01*
X918250Y828259D01*
X907762Y827226D01*
X897677Y824167D01*
X888383Y819199D01*
X880237Y812513D01*
X873551Y804367D01*
X868583Y795073D01*
X865524Y784988D01*
X864491Y774500D01*
X667871Y774500D01*
X524759Y917612D01*
X524759Y1125000D01*
X523726Y1135488D01*
X520667Y1145573D01*
X515699Y1154867D01*
X509013Y1163013D01*
X500867Y1169699D01*
X491573Y1174667D01*
X481488Y1177726D01*
X471000Y1178759D01*
X171000Y1178759D01*
X160512Y1177726D01*
X150427Y1174667D01*
X141133Y1169699D01*
X132987Y1163013D01*
X126301Y1154867D01*
X121333Y1145573D01*
X118274Y1135488D01*
X117241Y1125000D01*
X56000Y1125000D01*
X56000Y1333835D01*
X189795Y1333835D01*
X205396Y1302279D01*
X242874Y1283198D01*
X283355Y1271796D01*
X325282Y1268510D01*
X367045Y1273467D01*
X407038Y1286476D01*
X436604Y1302279D01*
X452205Y1333835D01*
X321000Y1465039D01*
X189795Y1333835D01*
X56000Y1333835D01*
X56000Y1478718D01*
X106510Y1478718D01*
X111467Y1436955D01*
X124476Y1396962D01*
X140279Y1367396D01*
X171835Y1351795D01*
X303040Y1483000D01*
X338961Y1483000D01*
X470165Y1351795D01*
X501721Y1367396D01*
X520802Y1404874D01*
X532204Y1445355D01*
X535490Y1487282D01*
X530533Y1529045D01*
X517524Y1569038D01*
X501721Y1598604D01*
X470165Y1614205D01*
X338961Y1483000D01*
X303040Y1483000D01*
X171835Y1614205D01*
X140279Y1598604D01*
X121198Y1561125D01*
X109796Y1520645D01*
X106510Y1478718D01*
X56000Y1478718D01*
X56000Y1632165D01*
X189795Y1632165D01*
X321000Y1500960D01*
X452205Y1632165D01*
X436604Y1663721D01*
X399125Y1682802D01*
X358645Y1694204D01*
X316718Y1697490D01*
X274955Y1692533D01*
X234962Y1679524D01*
X205396Y1663721D01*
X189795Y1632165D01*
X56000Y1632165D01*
X56000Y1933520D01*
X776393Y1933520D01*
X776700Y1844595D01*
X792575Y1828720D01*
X893750Y1828720D01*
X893750Y1981145D01*
X919150Y1981145D01*
X919150Y1828720D01*
X1020325Y1828720D01*
X1036200Y1844595D01*
X1036507Y1933520D01*
X1035281Y1945968D01*
X1031650Y1957938D01*
X1025754Y1968969D01*
X1017818Y1978638D01*
X1008149Y1986574D01*
X997118Y1992470D01*
X985148Y1996101D01*
X972700Y1997327D01*
X935025Y1997020D01*
X919150Y1981145D01*
X893750Y1981145D01*
X877875Y1997020D01*
X840200Y1997327D01*
X827752Y1996101D01*
X815782Y1992470D01*
X804751Y1986574D01*
X795081Y1978638D01*
X787146Y1968969D01*
X781250Y1957938D01*
X777619Y1945968D01*
X776393Y1933520D01*
X56000Y1933520D01*
X56000Y2146644D01*
X730604Y2146644D01*
X736793Y2123063D01*
X760979Y2111773D01*
X786903Y2105419D01*
X813568Y2104244D01*
X839950Y2108294D01*
X865035Y2117413D01*
X875607Y2123063D01*
X881795Y2146644D01*
X806200Y2222240D01*
X730604Y2146644D01*
X56000Y2146644D01*
X56000Y2232832D01*
X670244Y2232832D01*
X674294Y2206450D01*
X683413Y2181365D01*
X689063Y2170793D01*
X712644Y2164605D01*
X788239Y2240200D01*
X712644Y2315796D01*
X689063Y2309607D01*
X677773Y2285421D01*
X671419Y2259497D01*
X670244Y2232832D01*
X56000Y2232832D01*
X56000Y2760561D01*
X680700Y2760561D01*
X680700Y2735839D01*
X685523Y2711593D01*
X694983Y2688754D01*
X702700Y2677205D01*
X702700Y2499283D01*
X702199Y2494200D01*
X702700Y2489117D01*
X702700Y2489116D01*
X704198Y2473911D01*
X710116Y2454401D01*
X719727Y2436420D01*
X732660Y2420660D01*
X736610Y2417419D01*
X780662Y2373367D01*
X772450Y2372106D01*
X747365Y2362988D01*
X736793Y2357337D01*
X730604Y2333756D01*
X806200Y2258161D01*
X807614Y2259575D01*
X825575Y2241614D01*
X824160Y2240200D01*
X899756Y2164605D01*
X923337Y2170793D01*
X934627Y2194979D01*
X939435Y2214594D01*
X1110450Y2043579D01*
X1110450Y1956219D01*
X1107214Y1952276D01*
X1099936Y1938660D01*
X1095455Y1923885D01*
X1093941Y1908520D01*
X1093941Y1723520D01*
X1095455Y1708155D01*
X1099936Y1693380D01*
X1107214Y1679764D01*
X1110450Y1675821D01*
X1110450Y1668259D01*
X1028527Y1668259D01*
X1031650Y1674102D01*
X1035281Y1686072D01*
X1036507Y1698520D01*
X1036200Y1787445D01*
X1020325Y1803320D01*
X919150Y1803320D01*
X919150Y1801320D01*
X893750Y1801320D01*
X893750Y1803320D01*
X792575Y1803320D01*
X776700Y1787445D01*
X776393Y1698520D01*
X777619Y1686072D01*
X781250Y1674102D01*
X787146Y1663071D01*
X795081Y1653401D01*
X804751Y1645466D01*
X815782Y1639570D01*
X827752Y1635939D01*
X840200Y1634713D01*
X866539Y1634928D01*
X863524Y1624988D01*
X862491Y1614500D01*
X862491Y974500D01*
X863524Y964012D01*
X866583Y953927D01*
X871551Y944633D01*
X878237Y936487D01*
X886383Y929801D01*
X895677Y924833D01*
X905762Y921774D01*
X916250Y920741D01*
X1496250Y920741D01*
X1506738Y921774D01*
X1516823Y924833D01*
X1524711Y929050D01*
X1640779Y929050D01*
X1930952Y638877D01*
X1925394Y635906D01*
X1913459Y626111D01*
X1903664Y614176D01*
X1896386Y600560D01*
X1891904Y585785D01*
X1890391Y570420D01*
X1890391Y445420D01*
X1891904Y430055D01*
X1896386Y415280D01*
X1903664Y401664D01*
X1910266Y393620D01*
X1903664Y385576D01*
X1896386Y371960D01*
X1891904Y357185D01*
X1890391Y341820D01*
X1890391Y216820D01*
X1891904Y201455D01*
X1896386Y186680D01*
X1903664Y173064D01*
X1913459Y161129D01*
X1925394Y151335D01*
X1939010Y144056D01*
X1953785Y139575D01*
X1969150Y138061D01*
X2061650Y138061D01*
X2077015Y139575D01*
X2091790Y144056D01*
X2105406Y151335D01*
X2117341Y161129D01*
X2119697Y164000D01*
X3951193Y164000D01*
X3952419Y151552D01*
X3956050Y139582D01*
X3961946Y128551D01*
X3969881Y118881D01*
X3979551Y110946D01*
X3990582Y105050D01*
X4002552Y101419D01*
X4015000Y100193D01*
X4071425Y100500D01*
X4087300Y116375D01*
X4087300Y236300D01*
X4112700Y236300D01*
X4112700Y116375D01*
X4128575Y100500D01*
X4185000Y100193D01*
X4197448Y101419D01*
X4209418Y105050D01*
X4220449Y110946D01*
X4230119Y118881D01*
X4238054Y128551D01*
X4243950Y139582D01*
X4246397Y147647D01*
X4253973Y139241D01*
X4277308Y121836D01*
X4303590Y109317D01*
X4318311Y104852D01*
X4341300Y116984D01*
X4341300Y236300D01*
X4366700Y236300D01*
X4366700Y116984D01*
X4389689Y104852D01*
X4404410Y109317D01*
X4430692Y121836D01*
X4454027Y139241D01*
X4473518Y160865D01*
X4481000Y173426D01*
X4488482Y160865D01*
X4507973Y139241D01*
X4531308Y121836D01*
X4557590Y109317D01*
X4572311Y104852D01*
X4595300Y116984D01*
X4595300Y236300D01*
X4366700Y236300D01*
X4341300Y236300D01*
X4112700Y236300D01*
X4087300Y236300D01*
X3967375Y236300D01*
X3951500Y220425D01*
X3951193Y164000D01*
X2119697Y164000D01*
X2127136Y173064D01*
X2134414Y186680D01*
X2138896Y201455D01*
X2140409Y216820D01*
X2140409Y341820D01*
X2138896Y357185D01*
X2134414Y371960D01*
X2127136Y385576D01*
X2120534Y393620D01*
X2127136Y401664D01*
X2134414Y415280D01*
X2138896Y430055D01*
X2140310Y444420D01*
X2337671Y444420D01*
X2346797Y435294D01*
X2362111Y425061D01*
X2379127Y418013D01*
X2397191Y414420D01*
X2415609Y414420D01*
X2433673Y418013D01*
X2450689Y425061D01*
X2466003Y435294D01*
X2479026Y448317D01*
X2489259Y463631D01*
X2496095Y480134D01*
X2664900Y311329D01*
X2668140Y307380D01*
X2672089Y304140D01*
X2683900Y294447D01*
X2689168Y291631D01*
X2701881Y284836D01*
X2721391Y278918D01*
X2736596Y277420D01*
X2736596Y277420D01*
X2741680Y276919D01*
X2746764Y277420D01*
X3788157Y277420D01*
X3793240Y276919D01*
X3798323Y277420D01*
X3798324Y277420D01*
X3813529Y278918D01*
X3833039Y284836D01*
X3851020Y294447D01*
X3866780Y307380D01*
X3870021Y311330D01*
X3958191Y399500D01*
X4007796Y399500D01*
X4010410Y397355D01*
X4002552Y396581D01*
X3990582Y392950D01*
X3979551Y387054D01*
X3969881Y379118D01*
X3961946Y369449D01*
X3956050Y358418D01*
X3952419Y346448D01*
X3951193Y334000D01*
X3951500Y277575D01*
X3967375Y261700D01*
X4087300Y261700D01*
X4087300Y263700D01*
X4112700Y263700D01*
X4112700Y261700D01*
X4341300Y261700D01*
X4341300Y263700D01*
X4366700Y263700D01*
X4366700Y261700D01*
X4595300Y261700D01*
X4595300Y263700D01*
X4620700Y263700D01*
X4620700Y261700D01*
X4622700Y261700D01*
X4622700Y236300D01*
X4620700Y236300D01*
X4620700Y116984D01*
X4643689Y104852D01*
X4658410Y109317D01*
X4684692Y121836D01*
X4708027Y139241D01*
X4727518Y160865D01*
X4740456Y182585D01*
X4746284Y171681D01*
X4763592Y150592D01*
X4784681Y133284D01*
X4808742Y120424D01*
X4834849Y112504D01*
X4855196Y110500D01*
X4868804Y110500D01*
X4889151Y112504D01*
X4915258Y120424D01*
X4939319Y133284D01*
X4960408Y150592D01*
X4977716Y171681D01*
X4989000Y192793D01*
X5000284Y171681D01*
X5017592Y150592D01*
X5038681Y133284D01*
X5062742Y120424D01*
X5088849Y112504D01*
X5109196Y110500D01*
X5122804Y110500D01*
X5143151Y112504D01*
X5169258Y120424D01*
X5193319Y133284D01*
X5214408Y150592D01*
X5231716Y171681D01*
X5243000Y192793D01*
X5254284Y171681D01*
X5271592Y150592D01*
X5292681Y133284D01*
X5316742Y120424D01*
X5342849Y112504D01*
X5363196Y110500D01*
X5376804Y110500D01*
X5397151Y112504D01*
X5423258Y120424D01*
X5447319Y133284D01*
X5468408Y150592D01*
X5485716Y171681D01*
X5497000Y192793D01*
X5508284Y171681D01*
X5525592Y150592D01*
X5546681Y133284D01*
X5570742Y120424D01*
X5596849Y112504D01*
X5617196Y110500D01*
X5630804Y110500D01*
X5651151Y112504D01*
X5677258Y120424D01*
X5701319Y133284D01*
X5722408Y150592D01*
X5739716Y171681D01*
X5751000Y192793D01*
X5762284Y171681D01*
X5779592Y150592D01*
X5800681Y133284D01*
X5824742Y120424D01*
X5850849Y112504D01*
X5871196Y110500D01*
X5884804Y110500D01*
X5905151Y112504D01*
X5931258Y120424D01*
X5955319Y133284D01*
X5976408Y150592D01*
X5993716Y171681D01*
X6005000Y192793D01*
X6016284Y171681D01*
X6033592Y150592D01*
X6054681Y133284D01*
X6078742Y120424D01*
X6104849Y112504D01*
X6125196Y110500D01*
X6138804Y110500D01*
X6159151Y112504D01*
X6185258Y120424D01*
X6209319Y133284D01*
X6230408Y150592D01*
X6247716Y171681D01*
X6259000Y192793D01*
X6270284Y171681D01*
X6287592Y150592D01*
X6308681Y133284D01*
X6332742Y120424D01*
X6358849Y112504D01*
X6379196Y110500D01*
X6392804Y110500D01*
X6413151Y112504D01*
X6439258Y120424D01*
X6463319Y133284D01*
X6484408Y150592D01*
X6501716Y171681D01*
X6513000Y192793D01*
X6524284Y171681D01*
X6541592Y150592D01*
X6562681Y133284D01*
X6586742Y120424D01*
X6612849Y112504D01*
X6633196Y110500D01*
X6646804Y110500D01*
X6667151Y112504D01*
X6693258Y120424D01*
X6717319Y133284D01*
X6738408Y150592D01*
X6755716Y171681D01*
X6767000Y192793D01*
X6778284Y171681D01*
X6795592Y150592D01*
X6816681Y133284D01*
X6840742Y120424D01*
X6866849Y112504D01*
X6887196Y110500D01*
X6900804Y110500D01*
X6921151Y112504D01*
X6947258Y120424D01*
X6971319Y133284D01*
X6992408Y150592D01*
X7009716Y171681D01*
X7022576Y195742D01*
X7030496Y221849D01*
X7033170Y249000D01*
X7030496Y276151D01*
X7022576Y302258D01*
X7009716Y326319D01*
X6992408Y347408D01*
X6971319Y364716D01*
X6950207Y376000D01*
X6971319Y387284D01*
X6992408Y404592D01*
X6997749Y411100D01*
X7187300Y411100D01*
X7187300Y388900D01*
X7191631Y367127D01*
X7200127Y346617D01*
X7212460Y328158D01*
X7228158Y312460D01*
X7246616Y300127D01*
X7267127Y291631D01*
X7288900Y287300D01*
X7311100Y287300D01*
X7332873Y291631D01*
X7353383Y300127D01*
X7371842Y312460D01*
X7387540Y328158D01*
X7399873Y346617D01*
X7408369Y367127D01*
X7412700Y388900D01*
X7412700Y411100D01*
X7408369Y432873D01*
X7399873Y453383D01*
X7387540Y471842D01*
X7371842Y487540D01*
X7353383Y499873D01*
X7332873Y508369D01*
X7311100Y512700D01*
X7288900Y512700D01*
X7267127Y508369D01*
X7246616Y499873D01*
X7228158Y487540D01*
X7212460Y471842D01*
X7200127Y453383D01*
X7191631Y432873D01*
X7187300Y411100D01*
X6997749Y411100D01*
X7009716Y425681D01*
X7022576Y449742D01*
X7030496Y475849D01*
X7033170Y503000D01*
X7030496Y530151D01*
X7022576Y556258D01*
X7009716Y580319D01*
X6992408Y601408D01*
X6971319Y618716D01*
X6948893Y630702D01*
X6949280Y631020D01*
X6950860Y632944D01*
X6952033Y635140D01*
X6952756Y637522D01*
X6953000Y640000D01*
X6953000Y926971D01*
X6953603Y927374D01*
X6966626Y940397D01*
X6976859Y955711D01*
X6983907Y972727D01*
X6987500Y990791D01*
X6987500Y1009209D01*
X6983907Y1027273D01*
X6976859Y1044289D01*
X6966626Y1059603D01*
X6953603Y1072626D01*
X6938289Y1082859D01*
X6921273Y1089907D01*
X6903209Y1093500D01*
X6890302Y1093500D01*
X6814057Y1169745D01*
X6812068Y1172169D01*
X6804573Y1178320D01*
X7078057Y1178320D01*
X7078057Y848320D01*
X7079267Y836029D01*
X7082852Y824210D01*
X7088675Y813317D01*
X7096510Y803770D01*
X7106057Y795935D01*
X7116950Y790112D01*
X7128769Y786527D01*
X7141060Y785317D01*
X7471060Y785317D01*
X7483351Y786527D01*
X7495170Y790112D01*
X7506063Y795935D01*
X7515610Y803770D01*
X7523445Y813317D01*
X7529267Y824210D01*
X7532853Y836029D01*
X7534063Y848320D01*
X7534063Y1178320D01*
X7532853Y1190611D01*
X7529267Y1202430D01*
X7523445Y1213323D01*
X7515610Y1222870D01*
X7506063Y1230705D01*
X7495170Y1236528D01*
X7483351Y1240113D01*
X7471060Y1241323D01*
X7141060Y1241323D01*
X7128769Y1240113D01*
X7116950Y1236528D01*
X7106057Y1230705D01*
X7096510Y1222870D01*
X7088675Y1213323D01*
X7082852Y1202430D01*
X7079267Y1190611D01*
X7078057Y1178320D01*
X6804573Y1178320D01*
X6802399Y1180104D01*
X6791368Y1186000D01*
X6779398Y1189631D01*
X6770069Y1190550D01*
X6770068Y1190550D01*
X6766950Y1190857D01*
X6763832Y1190550D01*
X6710692Y1190550D01*
X6498481Y1402761D01*
X6496492Y1405184D01*
X6486823Y1413120D01*
X6475792Y1419016D01*
X6463822Y1422647D01*
X6454493Y1423566D01*
X6454492Y1423566D01*
X6451374Y1423873D01*
X6448256Y1423566D01*
X5423131Y1423566D01*
X5423859Y1430960D01*
X5423859Y1580960D01*
X5422826Y1591448D01*
X5419767Y1601533D01*
X5418811Y1603320D01*
X7042253Y1603320D01*
X7043479Y1590872D01*
X7047110Y1578902D01*
X7053006Y1567871D01*
X7060941Y1558201D01*
X7070611Y1550266D01*
X7081642Y1544370D01*
X7093612Y1540739D01*
X7106060Y1539513D01*
X7277485Y1539820D01*
X7293360Y1555695D01*
X7293360Y1790620D01*
X7318760Y1790620D01*
X7318760Y1555695D01*
X7334635Y1539820D01*
X7506060Y1539513D01*
X7518508Y1540739D01*
X7530478Y1544370D01*
X7541509Y1550266D01*
X7551178Y1558201D01*
X7559114Y1567871D01*
X7565010Y1578902D01*
X7568641Y1590872D01*
X7569867Y1603320D01*
X7569560Y1774745D01*
X7553685Y1790620D01*
X7318760Y1790620D01*
X7293360Y1790620D01*
X7058435Y1790620D01*
X7042560Y1774745D01*
X7042253Y1603320D01*
X5418811Y1603320D01*
X5414799Y1610827D01*
X5408113Y1618973D01*
X5399967Y1625659D01*
X5390673Y1630627D01*
X5380588Y1633686D01*
X5370100Y1634719D01*
X5310100Y1634719D01*
X5302391Y1633959D01*
X5295959Y1649489D01*
X5285726Y1664803D01*
X5273729Y1676800D01*
X5697473Y1676800D01*
X5698699Y1664352D01*
X5702330Y1652382D01*
X5708226Y1641351D01*
X5716161Y1631681D01*
X5725831Y1623746D01*
X5736862Y1617850D01*
X5748832Y1614219D01*
X5761280Y1612993D01*
X5762705Y1613300D01*
X5778580Y1629175D01*
X5778580Y1741600D01*
X5713655Y1741600D01*
X5697780Y1725725D01*
X5697473Y1676800D01*
X5273729Y1676800D01*
X5272703Y1677826D01*
X5257389Y1688059D01*
X5240373Y1695107D01*
X5222309Y1698700D01*
X5203891Y1698700D01*
X5185827Y1695107D01*
X5168811Y1688059D01*
X5153497Y1677826D01*
X5140474Y1664803D01*
X5130241Y1649489D01*
X5123809Y1633959D01*
X5116100Y1634719D01*
X5056100Y1634719D01*
X5045612Y1633686D01*
X5035527Y1630627D01*
X5026233Y1625659D01*
X5022600Y1622677D01*
X5018967Y1625659D01*
X5009673Y1630627D01*
X4999588Y1633686D01*
X4989100Y1634719D01*
X4929100Y1634719D01*
X4918612Y1633686D01*
X4908527Y1630627D01*
X4904379Y1628409D01*
X4897549Y1634014D01*
X4886518Y1639910D01*
X4874548Y1643541D01*
X4862100Y1644767D01*
X4860675Y1644460D01*
X4844800Y1628585D01*
X4844800Y1518660D01*
X4846800Y1518660D01*
X4846800Y1493260D01*
X4844800Y1493260D01*
X4844800Y1491260D01*
X4819400Y1491260D01*
X4819400Y1493260D01*
X4717800Y1493260D01*
X4717800Y1491260D01*
X4692400Y1491260D01*
X4692400Y1493260D01*
X4590800Y1493260D01*
X4590800Y1491260D01*
X4565400Y1491260D01*
X4565400Y1493260D01*
X4463800Y1493260D01*
X4463800Y1491260D01*
X4438400Y1491260D01*
X4438400Y1493260D01*
X4436400Y1493260D01*
X4436400Y1518660D01*
X4438400Y1518660D01*
X4438400Y1628585D01*
X4463800Y1628585D01*
X4463800Y1518660D01*
X4565400Y1518660D01*
X4565400Y1628585D01*
X4590800Y1628585D01*
X4590800Y1518660D01*
X4692400Y1518660D01*
X4692400Y1628585D01*
X4717800Y1628585D01*
X4717800Y1518660D01*
X4819400Y1518660D01*
X4819400Y1628585D01*
X4803525Y1644460D01*
X4802100Y1644767D01*
X4789652Y1643541D01*
X4777682Y1639910D01*
X4768600Y1635056D01*
X4759518Y1639910D01*
X4747548Y1643541D01*
X4735100Y1644767D01*
X4733675Y1644460D01*
X4717800Y1628585D01*
X4692400Y1628585D01*
X4676525Y1644460D01*
X4675100Y1644767D01*
X4662652Y1643541D01*
X4650682Y1639910D01*
X4641600Y1635056D01*
X4632518Y1639910D01*
X4620548Y1643541D01*
X4608100Y1644767D01*
X4606675Y1644460D01*
X4590800Y1628585D01*
X4565400Y1628585D01*
X4549525Y1644460D01*
X4548100Y1644767D01*
X4535652Y1643541D01*
X4523682Y1639910D01*
X4514600Y1635056D01*
X4505518Y1639910D01*
X4493548Y1643541D01*
X4481100Y1644767D01*
X4479675Y1644460D01*
X4463800Y1628585D01*
X4438400Y1628585D01*
X4422525Y1644460D01*
X4421100Y1644767D01*
X4408652Y1643541D01*
X4400770Y1641150D01*
X4400770Y1953111D01*
X4409896Y1962237D01*
X4420129Y1977551D01*
X4427177Y1994567D01*
X4430770Y2012631D01*
X4430770Y2031049D01*
X4427177Y2049113D01*
X4420129Y2066129D01*
X4409896Y2081443D01*
X4396873Y2094466D01*
X4381559Y2104699D01*
X4364543Y2111747D01*
X4346479Y2115340D01*
X4345935Y2115340D01*
X4343967Y2125233D01*
X4336919Y2142249D01*
X4326686Y2157563D01*
X4313663Y2170586D01*
X4298349Y2180819D01*
X4291371Y2183709D01*
X4345206Y2237543D01*
X4347629Y2239532D01*
X4355564Y2249201D01*
X4361460Y2260232D01*
X4365091Y2272202D01*
X4366010Y2281531D01*
X4366010Y2281532D01*
X4366317Y2284650D01*
X4366010Y2287768D01*
X4366010Y2329320D01*
X4368046Y2325511D01*
X4375982Y2315842D01*
X4385651Y2307906D01*
X4396682Y2302010D01*
X4408652Y2298379D01*
X4421100Y2297153D01*
X4422525Y2297460D01*
X4438400Y2313335D01*
X4438400Y2423260D01*
X4463800Y2423260D01*
X4463800Y2313335D01*
X4479675Y2297460D01*
X4481100Y2297153D01*
X4493548Y2298379D01*
X4505518Y2302010D01*
X4514600Y2306864D01*
X4523682Y2302010D01*
X4535652Y2298379D01*
X4548100Y2297153D01*
X4549525Y2297460D01*
X4565400Y2313335D01*
X4565400Y2423260D01*
X4590800Y2423260D01*
X4590800Y2313335D01*
X4606675Y2297460D01*
X4608100Y2297153D01*
X4620548Y2298379D01*
X4632518Y2302010D01*
X4641600Y2306864D01*
X4650682Y2302010D01*
X4662652Y2298379D01*
X4675100Y2297153D01*
X4676525Y2297460D01*
X4692400Y2313335D01*
X4692400Y2423260D01*
X4717800Y2423260D01*
X4717800Y2313335D01*
X4733675Y2297460D01*
X4735100Y2297153D01*
X4747548Y2298379D01*
X4759518Y2302010D01*
X4768600Y2306864D01*
X4777682Y2302010D01*
X4789652Y2298379D01*
X4802100Y2297153D01*
X4803525Y2297460D01*
X4819400Y2313335D01*
X4819400Y2423260D01*
X4844800Y2423260D01*
X4844800Y2313335D01*
X4860675Y2297460D01*
X4862100Y2297153D01*
X4874548Y2298379D01*
X4886518Y2302010D01*
X4895600Y2306864D01*
X4904682Y2302010D01*
X4916652Y2298379D01*
X4929100Y2297153D01*
X4930525Y2297460D01*
X4946400Y2313335D01*
X4946400Y2423260D01*
X4844800Y2423260D01*
X4819400Y2423260D01*
X4717800Y2423260D01*
X4692400Y2423260D01*
X4590800Y2423260D01*
X4565400Y2423260D01*
X4463800Y2423260D01*
X4438400Y2423260D01*
X4436400Y2423260D01*
X4436400Y2448660D01*
X4438400Y2448660D01*
X4438400Y2450660D01*
X4463800Y2450660D01*
X4463800Y2448660D01*
X4565400Y2448660D01*
X4565400Y2450660D01*
X4590800Y2450660D01*
X4590800Y2448660D01*
X4692400Y2448660D01*
X4692400Y2450660D01*
X4717800Y2450660D01*
X4717800Y2448660D01*
X4819400Y2448660D01*
X4819400Y2450660D01*
X4844800Y2450660D01*
X4844800Y2448660D01*
X4946400Y2448660D01*
X4946400Y2450660D01*
X4971800Y2450660D01*
X4971800Y2448660D01*
X4973800Y2448660D01*
X4973800Y2423260D01*
X4971800Y2423260D01*
X4971800Y2313335D01*
X4987675Y2297460D01*
X4989100Y2297153D01*
X5001548Y2298379D01*
X5013518Y2302010D01*
X5024549Y2307906D01*
X5031379Y2313511D01*
X5035527Y2311293D01*
X5045612Y2308234D01*
X5056100Y2307201D01*
X5116100Y2307201D01*
X5126588Y2308234D01*
X5136673Y2311293D01*
X5145967Y2316261D01*
X5149600Y2319243D01*
X5149600Y2080329D01*
X5140474Y2071203D01*
X5130241Y2055889D01*
X5123193Y2038873D01*
X5119600Y2020809D01*
X5119600Y2002391D01*
X5123193Y1984327D01*
X5130241Y1967311D01*
X5140474Y1951997D01*
X5153497Y1938974D01*
X5168811Y1928741D01*
X5185827Y1921693D01*
X5203891Y1918100D01*
X5222309Y1918100D01*
X5240373Y1921693D01*
X5257389Y1928741D01*
X5272703Y1938974D01*
X5285726Y1951997D01*
X5295959Y1967311D01*
X5303007Y1984327D01*
X5306600Y2002391D01*
X5306600Y2020809D01*
X5303007Y2038873D01*
X5295959Y2055889D01*
X5285726Y2071203D01*
X5276600Y2080329D01*
X5276600Y2085111D01*
X5280497Y2081214D01*
X5295811Y2070981D01*
X5312827Y2063933D01*
X5330891Y2060340D01*
X5349309Y2060340D01*
X5367373Y2063933D01*
X5384389Y2070981D01*
X5399703Y2081214D01*
X5412161Y2093672D01*
X5412161Y1971181D01*
X5386456Y1971181D01*
X5381929Y1970280D01*
X5377336Y1969828D01*
X5372919Y1968488D01*
X5368392Y1967588D01*
X5364128Y1965822D01*
X5359711Y1964482D01*
X5355640Y1962306D01*
X5351376Y1960540D01*
X5347539Y1957975D01*
X5343468Y1955800D01*
X5339900Y1952871D01*
X5336062Y1950307D01*
X5332799Y1947043D01*
X5329231Y1944115D01*
X5326303Y1940547D01*
X5323039Y1937284D01*
X5320475Y1933446D01*
X5317546Y1929878D01*
X5315371Y1925807D01*
X5312806Y1921970D01*
X5311040Y1917706D01*
X5308864Y1913635D01*
X5307524Y1909218D01*
X5305758Y1904954D01*
X5304858Y1900427D01*
X5303518Y1896010D01*
X5303066Y1891417D01*
X5302165Y1886890D01*
X5302165Y1882274D01*
X5301713Y1877681D01*
X5302165Y1873088D01*
X5302165Y1868472D01*
X5303066Y1863945D01*
X5303518Y1859352D01*
X5304858Y1854935D01*
X5305758Y1850408D01*
X5307524Y1846144D01*
X5308864Y1841727D01*
X5311040Y1837656D01*
X5312806Y1833392D01*
X5315371Y1829555D01*
X5317546Y1825484D01*
X5320475Y1821916D01*
X5323039Y1818078D01*
X5326303Y1814814D01*
X5329231Y1811247D01*
X5332799Y1808318D01*
X5336062Y1805055D01*
X5339900Y1802491D01*
X5343468Y1799562D01*
X5347539Y1797386D01*
X5351376Y1794822D01*
X5355640Y1793056D01*
X5359711Y1790880D01*
X5364128Y1789540D01*
X5368392Y1787774D01*
X5372919Y1786874D01*
X5377336Y1785534D01*
X5381929Y1785081D01*
X5386456Y1784181D01*
X5499870Y1784181D01*
X5504397Y1785081D01*
X5508990Y1785534D01*
X5513407Y1786874D01*
X5517934Y1787774D01*
X5522198Y1789540D01*
X5526615Y1790880D01*
X5530686Y1793056D01*
X5534950Y1794822D01*
X5538787Y1797386D01*
X5542858Y1799562D01*
X5546426Y1802491D01*
X5550264Y1805055D01*
X5553528Y1808318D01*
X5557095Y1811247D01*
X5560024Y1814814D01*
X5563287Y1818078D01*
X5565851Y1821916D01*
X5568780Y1825484D01*
X5570956Y1829555D01*
X5572456Y1831800D01*
X5697473Y1831800D01*
X5697780Y1782875D01*
X5713655Y1767000D01*
X5778580Y1767000D01*
X5778580Y1879425D01*
X5762705Y1895300D01*
X5761280Y1895607D01*
X5748832Y1894381D01*
X5736862Y1890750D01*
X5725831Y1884854D01*
X5716161Y1876918D01*
X5708226Y1867249D01*
X5702330Y1856218D01*
X5698699Y1844248D01*
X5697473Y1831800D01*
X5572456Y1831800D01*
X5573520Y1833392D01*
X5575286Y1837656D01*
X5577462Y1841727D01*
X5578802Y1846144D01*
X5580568Y1850408D01*
X5581468Y1854935D01*
X5582808Y1859352D01*
X5583261Y1863945D01*
X5584161Y1868472D01*
X5584161Y1873088D01*
X5584613Y1877681D01*
X5584161Y1882274D01*
X5584161Y1886890D01*
X5583261Y1891417D01*
X5582808Y1896010D01*
X5581468Y1900427D01*
X5580568Y1904954D01*
X5578802Y1909218D01*
X5577462Y1913635D01*
X5575286Y1917706D01*
X5573520Y1921970D01*
X5570956Y1925807D01*
X5569161Y1929165D01*
X5569161Y2378750D01*
X5705860Y2378750D01*
X5705860Y2049705D01*
X5701373Y2038873D01*
X5697780Y2020809D01*
X5697780Y2002391D01*
X5701373Y1984327D01*
X5708421Y1967311D01*
X5718654Y1951997D01*
X5731677Y1938974D01*
X5746991Y1928741D01*
X5764007Y1921693D01*
X5782071Y1918100D01*
X5800489Y1918100D01*
X5818553Y1921693D01*
X5835569Y1928741D01*
X5847280Y1936567D01*
X5847280Y1889905D01*
X5845698Y1890750D01*
X5833728Y1894381D01*
X5821280Y1895607D01*
X5819855Y1895300D01*
X5803980Y1879425D01*
X5803980Y1767000D01*
X5805980Y1767000D01*
X5805980Y1741600D01*
X5803980Y1741600D01*
X5803980Y1629175D01*
X5819855Y1613300D01*
X5821280Y1612993D01*
X5833728Y1614219D01*
X5845698Y1617850D01*
X5856729Y1623746D01*
X5863559Y1629351D01*
X5867707Y1627133D01*
X5877792Y1624074D01*
X5888280Y1623041D01*
X5948280Y1623041D01*
X5958768Y1624074D01*
X5968853Y1627133D01*
X5973001Y1629351D01*
X5979831Y1623746D01*
X5990862Y1617850D01*
X6002832Y1614219D01*
X6015280Y1612993D01*
X6016705Y1613300D01*
X6032580Y1629175D01*
X6032580Y1741600D01*
X6057980Y1741600D01*
X6057980Y1629175D01*
X6073855Y1613300D01*
X6075280Y1612993D01*
X6087728Y1614219D01*
X6099698Y1617850D01*
X6108780Y1622704D01*
X6117862Y1617850D01*
X6129832Y1614219D01*
X6142280Y1612993D01*
X6143705Y1613300D01*
X6159580Y1629175D01*
X6159580Y1741600D01*
X6184980Y1741600D01*
X6184980Y1629175D01*
X6200855Y1613300D01*
X6202280Y1612993D01*
X6214728Y1614219D01*
X6226698Y1617850D01*
X6237729Y1623746D01*
X6247398Y1631681D01*
X6255334Y1641351D01*
X6261230Y1652382D01*
X6264861Y1664352D01*
X6266087Y1676800D01*
X6265780Y1725725D01*
X6249905Y1741600D01*
X6184980Y1741600D01*
X6159580Y1741600D01*
X6057980Y1741600D01*
X6032580Y1741600D01*
X6030580Y1741600D01*
X6030580Y1767000D01*
X6032580Y1767000D01*
X6032580Y1879425D01*
X6057980Y1879425D01*
X6057980Y1767000D01*
X6159580Y1767000D01*
X6159580Y1879425D01*
X6184980Y1879425D01*
X6184980Y1767000D01*
X6249905Y1767000D01*
X6265780Y1782875D01*
X6266087Y1831800D01*
X6264861Y1844248D01*
X6261230Y1856218D01*
X6255334Y1867249D01*
X6247398Y1876918D01*
X6237729Y1884854D01*
X6226698Y1890750D01*
X6214728Y1894381D01*
X6202280Y1895607D01*
X6200855Y1895300D01*
X6184980Y1879425D01*
X6159580Y1879425D01*
X6143705Y1895300D01*
X6142280Y1895607D01*
X6129832Y1894381D01*
X6117862Y1890750D01*
X6108780Y1885896D01*
X6099698Y1890750D01*
X6087728Y1894381D01*
X6075280Y1895607D01*
X6073855Y1895300D01*
X6057980Y1879425D01*
X6032580Y1879425D01*
X6016705Y1895300D01*
X6015280Y1895607D01*
X6002832Y1894381D01*
X5990862Y1890750D01*
X5989280Y1889905D01*
X5989280Y1916151D01*
X6020769Y1947640D01*
X6105152Y1947640D01*
X6108640Y1947296D01*
X6112127Y1947640D01*
X6112128Y1947640D01*
X6122558Y1948667D01*
X6135942Y1952727D01*
X6148276Y1959320D01*
X6159087Y1968192D01*
X6161311Y1970902D01*
X6193729Y2003320D01*
X7042253Y2003320D01*
X7042560Y1831895D01*
X7058435Y1816020D01*
X7293360Y1816020D01*
X7293360Y2050945D01*
X7318760Y2050945D01*
X7318760Y1816020D01*
X7553685Y1816020D01*
X7569560Y1831895D01*
X7569867Y2003320D01*
X7568641Y2015768D01*
X7565010Y2027738D01*
X7559114Y2038769D01*
X7551178Y2048438D01*
X7541509Y2056374D01*
X7530478Y2062270D01*
X7518508Y2065901D01*
X7506060Y2067127D01*
X7334635Y2066820D01*
X7318760Y2050945D01*
X7293360Y2050945D01*
X7277485Y2066820D01*
X7106060Y2067127D01*
X7093612Y2065901D01*
X7081642Y2062270D01*
X7070611Y2056374D01*
X7060941Y2048438D01*
X7053006Y2038769D01*
X7047110Y2027738D01*
X7043479Y2015768D01*
X7042253Y2003320D01*
X6193729Y2003320D01*
X6220018Y2029609D01*
X6222727Y2031832D01*
X6228523Y2038894D01*
X6231600Y2042644D01*
X6238193Y2054978D01*
X6242253Y2068361D01*
X6243623Y2082280D01*
X6243280Y2085768D01*
X6243280Y2092611D01*
X6244906Y2094237D01*
X6255139Y2109551D01*
X6262187Y2126567D01*
X6265780Y2144631D01*
X6265780Y2163049D01*
X6262187Y2181113D01*
X6255139Y2198129D01*
X6253340Y2200821D01*
X6255006Y2206312D01*
X6256039Y2216800D01*
X6256039Y2371800D01*
X6255006Y2382288D01*
X6251947Y2392373D01*
X6246979Y2401667D01*
X6243280Y2406174D01*
X6243280Y2420533D01*
X6243623Y2424020D01*
X6243224Y2428075D01*
X6242253Y2437938D01*
X6238193Y2451322D01*
X6232859Y2461300D01*
X6428812Y2461300D01*
X6432300Y2460957D01*
X6435787Y2461300D01*
X6435788Y2461300D01*
X6446218Y2462327D01*
X6459602Y2466387D01*
X6471936Y2472980D01*
X6482747Y2481853D01*
X6484971Y2484562D01*
X6522729Y2522320D01*
X7078057Y2522320D01*
X7078057Y2428320D01*
X7079267Y2416029D01*
X7082852Y2404210D01*
X7088675Y2393317D01*
X7096510Y2383770D01*
X7106057Y2375935D01*
X7116950Y2370113D01*
X7128769Y2366527D01*
X7141060Y2365317D01*
X7471060Y2365317D01*
X7483351Y2366527D01*
X7495170Y2370113D01*
X7506063Y2375935D01*
X7515610Y2383770D01*
X7523445Y2393317D01*
X7529267Y2404210D01*
X7532853Y2416029D01*
X7534063Y2428320D01*
X7534063Y2758320D01*
X7532853Y2770611D01*
X7529267Y2782430D01*
X7523445Y2793323D01*
X7515610Y2802870D01*
X7506063Y2810705D01*
X7495170Y2816527D01*
X7483351Y2820113D01*
X7471060Y2821323D01*
X7141060Y2821323D01*
X7128769Y2820113D01*
X7116950Y2816527D01*
X7106057Y2810705D01*
X7096510Y2802870D01*
X7088675Y2793323D01*
X7082852Y2782430D01*
X7079267Y2770611D01*
X7078057Y2758320D01*
X7078057Y2664320D01*
X6496807Y2664320D01*
X6493320Y2664664D01*
X6489832Y2664320D01*
X6489832Y2664320D01*
X6479402Y2663293D01*
X6466018Y2659233D01*
X6453684Y2652640D01*
X6442872Y2643768D01*
X6440649Y2641058D01*
X6402891Y2603300D01*
X5660729Y2603300D01*
X5659103Y2604926D01*
X5643789Y2615159D01*
X5626773Y2622207D01*
X5608709Y2625800D01*
X5590291Y2625800D01*
X5572227Y2622207D01*
X5569161Y2620937D01*
X5569161Y3025945D01*
X5619078Y3075863D01*
X5626773Y3077393D01*
X5643789Y3084441D01*
X5659103Y3094674D01*
X5672126Y3107697D01*
X5682359Y3123011D01*
X5689407Y3140027D01*
X5693000Y3158091D01*
X5693000Y3176509D01*
X5689407Y3194573D01*
X5682359Y3211589D01*
X5672126Y3226903D01*
X5659103Y3239926D01*
X5643789Y3250159D01*
X5626773Y3257207D01*
X5608709Y3260800D01*
X5590291Y3260800D01*
X5572227Y3257207D01*
X5555211Y3250159D01*
X5539897Y3239926D01*
X5526874Y3226903D01*
X5516641Y3211589D01*
X5509593Y3194573D01*
X5508063Y3186878D01*
X5492500Y3171316D01*
X5492500Y3241181D01*
X5520660Y3241181D01*
X5531148Y3242214D01*
X5541233Y3245273D01*
X5550527Y3250241D01*
X5558673Y3256927D01*
X5565359Y3265073D01*
X5568762Y3271440D01*
X5679557Y3271440D01*
X5721100Y3229897D01*
X5721100Y2850379D01*
X5720793Y2847260D01*
X5721100Y2844141D01*
X5721100Y2844141D01*
X5722019Y2834812D01*
X5723072Y2831341D01*
X5725650Y2822842D01*
X5731264Y2812339D01*
X5731546Y2811811D01*
X5739482Y2802141D01*
X5741905Y2800153D01*
X5817453Y2724605D01*
X5819441Y2722182D01*
X5829111Y2714246D01*
X5840142Y2708350D01*
X5852112Y2704719D01*
X5861441Y2703800D01*
X5861442Y2703800D01*
X5864560Y2703493D01*
X5867678Y2703800D01*
X5971270Y2703800D01*
X5985704Y2682199D01*
X6004299Y2663604D01*
X6026164Y2648994D01*
X6050459Y2638930D01*
X6076251Y2633800D01*
X6102549Y2633800D01*
X6128340Y2638930D01*
X6152636Y2648994D01*
X6174501Y2663604D01*
X6193096Y2682199D01*
X6207530Y2703800D01*
X6400022Y2703800D01*
X6403140Y2703493D01*
X6406258Y2703800D01*
X6406259Y2703800D01*
X6415588Y2704719D01*
X6427558Y2708350D01*
X6438589Y2714246D01*
X6448258Y2722182D01*
X6450247Y2724605D01*
X6453782Y2728140D01*
X6560241Y2728140D01*
X6560241Y2726640D01*
X6561274Y2716152D01*
X6564333Y2706067D01*
X6569301Y2696773D01*
X6575987Y2688627D01*
X6584133Y2681941D01*
X6593427Y2676973D01*
X6603512Y2673914D01*
X6614000Y2672881D01*
X6784000Y2672881D01*
X6794488Y2673914D01*
X6804573Y2676973D01*
X6813867Y2681941D01*
X6822013Y2688627D01*
X6828699Y2696773D01*
X6833667Y2706067D01*
X6836726Y2716152D01*
X6837759Y2726640D01*
X6837759Y2856640D01*
X6836726Y2867128D01*
X6833667Y2877213D01*
X6828699Y2886507D01*
X6822013Y2894653D01*
X6813867Y2901339D01*
X6804573Y2906307D01*
X6794488Y2909366D01*
X6784000Y2910399D01*
X6614000Y2910399D01*
X6603512Y2909366D01*
X6593427Y2906307D01*
X6584133Y2901339D01*
X6575987Y2894653D01*
X6569301Y2886507D01*
X6564333Y2877213D01*
X6561274Y2867128D01*
X6560241Y2856640D01*
X6560241Y2855140D01*
X6430599Y2855140D01*
X6427480Y2855447D01*
X6424361Y2855140D01*
X6424361Y2855140D01*
X6415032Y2854221D01*
X6403062Y2850590D01*
X6397367Y2847546D01*
X6392031Y2844694D01*
X6392030Y2844694D01*
X6392031Y2844694D01*
X6382361Y2836758D01*
X6380373Y2834335D01*
X6376837Y2830800D01*
X6207530Y2830800D01*
X6193096Y2852401D01*
X6174501Y2870996D01*
X6152636Y2885606D01*
X6128340Y2895670D01*
X6102549Y2900800D01*
X6076251Y2900800D01*
X6050459Y2895670D01*
X6026164Y2885606D01*
X6004299Y2870996D01*
X5985704Y2852401D01*
X5971270Y2830800D01*
X5890862Y2830800D01*
X5848100Y2873562D01*
X5848100Y3247300D01*
X5955641Y3247300D01*
X5955641Y3087300D01*
X5956674Y3076812D01*
X5959733Y3066727D01*
X5964701Y3057433D01*
X5971387Y3049287D01*
X5979533Y3042601D01*
X5988827Y3037633D01*
X5998912Y3034574D01*
X6009400Y3033541D01*
X6169400Y3033541D01*
X6179888Y3034574D01*
X6189973Y3037633D01*
X6199267Y3042601D01*
X6207413Y3049287D01*
X6214099Y3057433D01*
X6219067Y3066727D01*
X6222126Y3076812D01*
X6223159Y3087300D01*
X6223159Y3103800D01*
X6385678Y3103800D01*
X6390533Y3098945D01*
X6392521Y3096521D01*
X6402191Y3088586D01*
X6413222Y3082690D01*
X6425192Y3079059D01*
X6434521Y3078140D01*
X6434522Y3078140D01*
X6437640Y3077833D01*
X6440758Y3078140D01*
X6560241Y3078140D01*
X6560241Y3076640D01*
X6561274Y3066152D01*
X6564333Y3056067D01*
X6569301Y3046773D01*
X6575987Y3038627D01*
X6584133Y3031941D01*
X6593427Y3026973D01*
X6603512Y3023914D01*
X6614000Y3022881D01*
X6784000Y3022881D01*
X6794488Y3023914D01*
X6804573Y3026973D01*
X6813867Y3031941D01*
X6822013Y3038627D01*
X6828699Y3046773D01*
X6833667Y3056067D01*
X6836726Y3066152D01*
X6837759Y3076640D01*
X6837759Y3206640D01*
X6836726Y3217128D01*
X6833667Y3227213D01*
X6828699Y3236507D01*
X6822013Y3244653D01*
X6813867Y3251339D01*
X6804573Y3256307D01*
X6794488Y3259366D01*
X6784000Y3260399D01*
X6614000Y3260399D01*
X6603512Y3259366D01*
X6593427Y3256307D01*
X6584133Y3251339D01*
X6575987Y3244653D01*
X6569301Y3236507D01*
X6564333Y3227213D01*
X6561274Y3217128D01*
X6560241Y3206640D01*
X6560241Y3205140D01*
X6463942Y3205140D01*
X6459087Y3209995D01*
X6457098Y3212418D01*
X6447429Y3220354D01*
X6436398Y3226250D01*
X6424428Y3229881D01*
X6415099Y3230800D01*
X6415098Y3230800D01*
X6411980Y3231107D01*
X6408862Y3230800D01*
X6223159Y3230800D01*
X6223159Y3247300D01*
X6222126Y3257788D01*
X6219067Y3267873D01*
X6214099Y3277167D01*
X6207413Y3285313D01*
X6199267Y3291999D01*
X6189973Y3296967D01*
X6179888Y3300026D01*
X6169400Y3301059D01*
X6009400Y3301059D01*
X5998912Y3300026D01*
X5988827Y3296967D01*
X5979533Y3291999D01*
X5971387Y3285313D01*
X5964701Y3277167D01*
X5959733Y3267873D01*
X5956674Y3257788D01*
X5955641Y3247300D01*
X5848100Y3247300D01*
X5848100Y3253081D01*
X5848407Y3256200D01*
X5848095Y3259366D01*
X5847181Y3268648D01*
X5843550Y3280618D01*
X5842872Y3281886D01*
X5837654Y3291649D01*
X5831707Y3298896D01*
X5831706Y3298896D01*
X5829718Y3301318D01*
X5827296Y3303306D01*
X5752967Y3377635D01*
X5750978Y3380058D01*
X5741309Y3387994D01*
X5730278Y3393890D01*
X5718308Y3397521D01*
X5708979Y3398440D01*
X5708978Y3398440D01*
X5705860Y3398747D01*
X5702742Y3398440D01*
X5568762Y3398440D01*
X5565359Y3404807D01*
X5558673Y3412953D01*
X5550527Y3419639D01*
X5541233Y3424607D01*
X5531148Y3427666D01*
X5520660Y3428699D01*
X5430660Y3428699D01*
X5420172Y3427666D01*
X5410087Y3424607D01*
X5400793Y3419639D01*
X5392647Y3412953D01*
X5385961Y3404807D01*
X5384135Y3401390D01*
X5368285Y3417240D01*
X5288360Y3417240D01*
X5288360Y3415240D01*
X5262960Y3415240D01*
X5262960Y3417240D01*
X5183035Y3417240D01*
X5167160Y3401365D01*
X5166853Y3389940D01*
X5168079Y3377492D01*
X5171710Y3365522D01*
X5177606Y3354491D01*
X5185542Y3344821D01*
X5195211Y3336886D01*
X5203604Y3332400D01*
X5142619Y3332400D01*
X5142619Y3374940D01*
X5141586Y3385428D01*
X5138527Y3395513D01*
X5133559Y3404807D01*
X5126873Y3412953D01*
X5118727Y3419639D01*
X5109433Y3424607D01*
X5099348Y3427666D01*
X5088860Y3428699D01*
X5045826Y3428699D01*
X5043860Y3428892D01*
X5041894Y3428699D01*
X4998860Y3428699D01*
X4988372Y3427666D01*
X4978287Y3424607D01*
X4968993Y3419639D01*
X4960847Y3412953D01*
X4954161Y3404807D01*
X4952335Y3401390D01*
X4936485Y3417240D01*
X4856560Y3417240D01*
X4856560Y3415240D01*
X4831160Y3415240D01*
X4831160Y3417240D01*
X4829160Y3417240D01*
X4829160Y3442640D01*
X4831160Y3442640D01*
X4831160Y3517565D01*
X4856560Y3517565D01*
X4856560Y3442640D01*
X4936485Y3442640D01*
X4952360Y3458515D01*
X4952667Y3469940D01*
X5166853Y3469940D01*
X5167160Y3458515D01*
X5183035Y3442640D01*
X5262960Y3442640D01*
X5262960Y3517565D01*
X5288360Y3517565D01*
X5288360Y3442640D01*
X5368285Y3442640D01*
X5384160Y3458515D01*
X5384467Y3469940D01*
X5383241Y3482388D01*
X5379610Y3494358D01*
X5373714Y3505389D01*
X5365779Y3515058D01*
X5356109Y3522994D01*
X5345078Y3528890D01*
X5333108Y3532521D01*
X5320660Y3533747D01*
X5304235Y3533440D01*
X5288360Y3517565D01*
X5262960Y3517565D01*
X5247085Y3533440D01*
X5230660Y3533747D01*
X5218212Y3532521D01*
X5206242Y3528890D01*
X5195211Y3522994D01*
X5185542Y3515058D01*
X5177606Y3505389D01*
X5171710Y3494358D01*
X5168079Y3482388D01*
X5166853Y3469940D01*
X4952667Y3469940D01*
X4951441Y3482388D01*
X4947810Y3494358D01*
X4941914Y3505389D01*
X4933979Y3515058D01*
X4924309Y3522994D01*
X4913278Y3528890D01*
X4901308Y3532521D01*
X4888860Y3533747D01*
X4872435Y3533440D01*
X4856560Y3517565D01*
X4831160Y3517565D01*
X4815285Y3533440D01*
X4798860Y3533747D01*
X4786412Y3532521D01*
X4774442Y3528890D01*
X4763411Y3522994D01*
X4753742Y3515058D01*
X4745806Y3505389D01*
X4739910Y3494358D01*
X4736279Y3482388D01*
X4735053Y3469940D01*
X4735246Y3462738D01*
X4731803Y3469180D01*
X4713871Y3491031D01*
X4692020Y3508963D01*
X4667091Y3522288D01*
X4640041Y3530494D01*
X4611910Y3533264D01*
X4583779Y3530494D01*
X4556729Y3522288D01*
X4531800Y3508963D01*
X4509949Y3491031D01*
X4492017Y3469180D01*
X4484910Y3455884D01*
X4477803Y3469180D01*
X4459871Y3491031D01*
X4438020Y3508963D01*
X4413091Y3522288D01*
X4386041Y3530494D01*
X4357910Y3533264D01*
X4329779Y3530494D01*
X4302729Y3522288D01*
X4277800Y3508963D01*
X4255949Y3491031D01*
X4238017Y3469180D01*
X4230910Y3455884D01*
X4223803Y3469180D01*
X4205871Y3491031D01*
X4184020Y3508963D01*
X4159091Y3522288D01*
X4132041Y3530494D01*
X4103910Y3533264D01*
X4075779Y3530494D01*
X4048729Y3522288D01*
X4023800Y3508963D01*
X4001949Y3491031D01*
X3984017Y3469180D01*
X3976910Y3455884D01*
X3969803Y3469180D01*
X3951871Y3491031D01*
X3930020Y3508963D01*
X3905091Y3522288D01*
X3878041Y3530494D01*
X3849910Y3533264D01*
X3821779Y3530494D01*
X3794729Y3522288D01*
X3769800Y3508963D01*
X3747949Y3491031D01*
X3730017Y3469180D01*
X3722910Y3455884D01*
X3715803Y3469180D01*
X3697871Y3491031D01*
X3676020Y3508963D01*
X3651091Y3522288D01*
X3624041Y3530494D01*
X3595910Y3533264D01*
X3567779Y3530494D01*
X3540729Y3522288D01*
X3515800Y3508963D01*
X3493949Y3491031D01*
X3476017Y3469180D01*
X3468910Y3455884D01*
X3461803Y3469180D01*
X3443871Y3491031D01*
X3422020Y3508963D01*
X3397091Y3522288D01*
X3370041Y3530494D01*
X3341910Y3533264D01*
X3313779Y3530494D01*
X3286729Y3522288D01*
X3261800Y3508963D01*
X3239949Y3491031D01*
X3222017Y3469180D01*
X3214910Y3455884D01*
X3207803Y3469180D01*
X3189871Y3491031D01*
X3168020Y3508963D01*
X3143091Y3522288D01*
X3116041Y3530494D01*
X3087910Y3533264D01*
X3059779Y3530494D01*
X3032729Y3522288D01*
X3007800Y3508963D01*
X2985949Y3491031D01*
X2968017Y3469180D01*
X2960910Y3455884D01*
X2953803Y3469180D01*
X2935871Y3491031D01*
X2914020Y3508963D01*
X2889091Y3522288D01*
X2862041Y3530494D01*
X2833910Y3533264D01*
X2805779Y3530494D01*
X2778729Y3522288D01*
X2753800Y3508963D01*
X2731949Y3491031D01*
X2714017Y3469180D01*
X2706910Y3455884D01*
X2699803Y3469180D01*
X2681871Y3491031D01*
X2660020Y3508963D01*
X2635091Y3522288D01*
X2608041Y3530494D01*
X2579910Y3533264D01*
X2551779Y3530494D01*
X2524729Y3522288D01*
X2499800Y3508963D01*
X2477949Y3491031D01*
X2460017Y3469180D01*
X2452910Y3455884D01*
X2445803Y3469180D01*
X2427871Y3491031D01*
X2406020Y3508963D01*
X2381091Y3522288D01*
X2354041Y3530494D01*
X2325910Y3533264D01*
X2297779Y3530494D01*
X2270729Y3522288D01*
X2245800Y3508963D01*
X2223949Y3491031D01*
X2206017Y3469180D01*
X2198910Y3455884D01*
X2191803Y3469180D01*
X2173871Y3491031D01*
X2152020Y3508963D01*
X2127091Y3522288D01*
X2100041Y3530494D01*
X2071910Y3533264D01*
X2043779Y3530494D01*
X2016729Y3522288D01*
X1991800Y3508963D01*
X1969949Y3491031D01*
X1952017Y3469180D01*
X1950489Y3466322D01*
X1938485Y3484910D01*
X1917471Y3506591D01*
X1892630Y3523756D01*
X1864919Y3535745D01*
X1854384Y3538174D01*
X1830610Y3526108D01*
X1830610Y3361770D01*
X1832610Y3361770D01*
X1832610Y3336370D01*
X1830610Y3336370D01*
X1830610Y3334370D01*
X1805210Y3334370D01*
X1805210Y3336370D01*
X1803210Y3336370D01*
X1803210Y3361770D01*
X1805210Y3361770D01*
X1805210Y3526108D01*
X1781436Y3538174D01*
X1770901Y3535745D01*
X1743190Y3523756D01*
X1718349Y3506591D01*
X1697335Y3484910D01*
X1685331Y3466322D01*
X1683803Y3469180D01*
X1665871Y3491031D01*
X1644020Y3508963D01*
X1619091Y3522288D01*
X1592041Y3530494D01*
X1563910Y3533264D01*
X1535779Y3530494D01*
X1508729Y3522288D01*
X1483800Y3508963D01*
X1461949Y3491031D01*
X1444017Y3469180D01*
X1436910Y3455884D01*
X1429803Y3469180D01*
X1411871Y3491031D01*
X1390020Y3508963D01*
X1365091Y3522288D01*
X1338041Y3530494D01*
X1309910Y3533264D01*
X1281779Y3530494D01*
X1254729Y3522288D01*
X1229800Y3508963D01*
X1207949Y3491031D01*
X1190017Y3469180D01*
X1182910Y3455884D01*
X1175803Y3469180D01*
X1157871Y3491031D01*
X1136020Y3508963D01*
X1111091Y3522288D01*
X1084041Y3530494D01*
X1055910Y3533264D01*
X1027779Y3530494D01*
X1000729Y3522288D01*
X975800Y3508963D01*
X954495Y3491479D01*
X954491Y3491518D01*
X950860Y3503488D01*
X944964Y3514519D01*
X937028Y3524188D01*
X927359Y3532124D01*
X916328Y3538020D01*
X904358Y3541651D01*
X891910Y3542877D01*
X830485Y3542570D01*
X814610Y3526695D01*
X814610Y3361770D01*
X816610Y3361770D01*
X816610Y3336370D01*
X814610Y3336370D01*
X814610Y3171445D01*
X830485Y3155570D01*
X891910Y3155263D01*
X904358Y3156489D01*
X916328Y3160120D01*
X927359Y3166016D01*
X937028Y3173951D01*
X944964Y3183621D01*
X950860Y3194652D01*
X952410Y3199761D01*
X952410Y3167781D01*
X736609Y2951980D01*
X732660Y2948740D01*
X729420Y2944791D01*
X729420Y2944791D01*
X719727Y2932980D01*
X710116Y2914999D01*
X704198Y2895489D01*
X702199Y2875200D01*
X702700Y2870116D01*
X702700Y2819195D01*
X694983Y2807646D01*
X685523Y2784807D01*
X680700Y2760561D01*
X56000Y2760561D01*
X56000Y3291322D01*
X56320Y3289711D01*
X71661Y3252677D01*
X93931Y3219346D01*
X122276Y3191001D01*
X155607Y3168731D01*
X192641Y3153390D01*
X231957Y3145570D01*
X272043Y3145570D01*
X311359Y3153390D01*
X348393Y3168731D01*
X381724Y3191001D01*
X409792Y3219070D01*
X648103Y3219070D01*
X649329Y3206622D01*
X652960Y3194652D01*
X658856Y3183621D01*
X666792Y3173951D01*
X676461Y3166016D01*
X687492Y3160120D01*
X699462Y3156489D01*
X711910Y3155263D01*
X773335Y3155570D01*
X789210Y3171445D01*
X789210Y3336370D01*
X664285Y3336370D01*
X648410Y3320495D01*
X648103Y3219070D01*
X409792Y3219070D01*
X410069Y3219346D01*
X432339Y3252677D01*
X447680Y3289711D01*
X455500Y3329027D01*
X455500Y3369113D01*
X447680Y3408429D01*
X432339Y3445463D01*
X410069Y3478794D01*
X409792Y3479070D01*
X648103Y3479070D01*
X648410Y3377645D01*
X664285Y3361770D01*
X789210Y3361770D01*
X789210Y3526695D01*
X773335Y3542570D01*
X711910Y3542877D01*
X699462Y3541651D01*
X687492Y3538020D01*
X676461Y3532124D01*
X666792Y3524188D01*
X658856Y3514519D01*
X652960Y3503488D01*
X649329Y3491518D01*
X648103Y3479070D01*
X409792Y3479070D01*
X381724Y3507139D01*
X348393Y3529409D01*
X313168Y3544000D01*
X7690742Y3544000D01*
X7655517Y3529409D01*
G36*
X2735835Y2394974D02*
G01*
X2732776Y2384889D01*
X2732516Y2382245D01*
X2726962Y2376691D01*
X2724253Y2374468D01*
X2715380Y2363656D01*
X2708787Y2351322D01*
X2704727Y2337938D01*
X2703746Y2327973D01*
X2703357Y2324020D01*
X2703700Y2320533D01*
X2703700Y2304648D01*
X2703357Y2301160D01*
X2703700Y2297673D01*
X2703700Y2297672D01*
X2704727Y2287242D01*
X2708787Y2273858D01*
X2715380Y2261524D01*
X2717514Y2258923D01*
X2605042Y2146451D01*
X2602333Y2144227D01*
X2593460Y2133416D01*
X2586867Y2121082D01*
X2582807Y2107698D01*
X2582155Y2101079D01*
X2581437Y2093780D01*
X2581780Y2090292D01*
X2581780Y1891149D01*
X2523051Y1832420D01*
X2520751Y1832420D01*
X2502687Y1828827D01*
X2485671Y1821779D01*
X2470357Y1811546D01*
X2459467Y1800656D01*
X2448749Y1811374D01*
X2440602Y1818060D01*
X2438748Y1819051D01*
X2437757Y1820905D01*
X2431071Y1829052D01*
X2398603Y1861519D01*
X2395556Y1871741D01*
X2389713Y1882801D01*
X2382151Y1891748D01*
X2359700Y1891748D01*
X2351364Y1883412D01*
X2343679Y1882655D01*
X2333594Y1879596D01*
X2324986Y1874995D01*
X2329588Y1883603D01*
X2332647Y1893688D01*
X2333404Y1901373D01*
X2341740Y1909709D01*
X2341740Y1932159D01*
X2332792Y1939721D01*
X2321733Y1945565D01*
X2311511Y1948612D01*
X2279043Y1981080D01*
X2270897Y1987765D01*
X2269042Y1988756D01*
X2268051Y1990611D01*
X2261366Y1998757D01*
X2222475Y2037648D01*
X2214328Y2044334D01*
X2212474Y2045325D01*
X2211483Y2047179D01*
X2204797Y2055326D01*
X2177403Y2082720D01*
X2204797Y2110114D01*
X2211483Y2118261D01*
X2212474Y2120115D01*
X2214328Y2121106D01*
X2222475Y2127792D01*
X2237293Y2142610D01*
X2240991Y2133681D01*
X2251224Y2118367D01*
X2264247Y2105344D01*
X2279561Y2095111D01*
X2296577Y2088063D01*
X2314641Y2084470D01*
X2333059Y2084470D01*
X2351123Y2088063D01*
X2368139Y2095111D01*
X2381000Y2103705D01*
X2393861Y2095111D01*
X2410877Y2088063D01*
X2428941Y2084470D01*
X2447359Y2084470D01*
X2465423Y2088063D01*
X2482439Y2095111D01*
X2497753Y2105344D01*
X2510776Y2118367D01*
X2521009Y2133681D01*
X2528057Y2150697D01*
X2531650Y2168761D01*
X2531650Y2187179D01*
X2528057Y2205243D01*
X2521009Y2222259D01*
X2510776Y2237573D01*
X2497753Y2250596D01*
X2482439Y2260829D01*
X2465423Y2267877D01*
X2447359Y2271470D01*
X2434453Y2271470D01*
X2400303Y2305620D01*
X2402080Y2307397D01*
X2414903Y2294574D01*
X2430217Y2284341D01*
X2447233Y2277293D01*
X2465297Y2273700D01*
X2483715Y2273700D01*
X2501779Y2277293D01*
X2518795Y2284341D01*
X2530471Y2292143D01*
X2536930Y2285684D01*
X2552244Y2275451D01*
X2569260Y2268403D01*
X2587324Y2264810D01*
X2605742Y2264810D01*
X2623806Y2268403D01*
X2640822Y2275451D01*
X2656136Y2285684D01*
X2669159Y2298707D01*
X2679391Y2314021D01*
X2686440Y2331037D01*
X2690033Y2349101D01*
X2690033Y2367519D01*
X2686440Y2385583D01*
X2685923Y2386829D01*
X2705723Y2386829D01*
X2714059Y2395165D01*
X2721744Y2395922D01*
X2731829Y2398981D01*
X2740437Y2403582D01*
X2735835Y2394974D01*
X2735835Y2394974D01*
G37*
X2735835Y2394974D02*
X2732776Y2384889D01*
X2732516Y2382245D01*
X2726962Y2376691D01*
X2724253Y2374468D01*
X2715380Y2363656D01*
X2708787Y2351322D01*
X2704727Y2337938D01*
X2703746Y2327973D01*
X2703357Y2324020D01*
X2703700Y2320533D01*
X2703700Y2304648D01*
X2703357Y2301160D01*
X2703700Y2297673D01*
X2703700Y2297672D01*
X2704727Y2287242D01*
X2708787Y2273858D01*
X2715380Y2261524D01*
X2717514Y2258923D01*
X2605042Y2146451D01*
X2602333Y2144227D01*
X2593460Y2133416D01*
X2586867Y2121082D01*
X2582807Y2107698D01*
X2582155Y2101079D01*
X2581437Y2093780D01*
X2581780Y2090292D01*
X2581780Y1891149D01*
X2523051Y1832420D01*
X2520751Y1832420D01*
X2502687Y1828827D01*
X2485671Y1821779D01*
X2470357Y1811546D01*
X2459467Y1800656D01*
X2448749Y1811374D01*
X2440602Y1818060D01*
X2438748Y1819051D01*
X2437757Y1820905D01*
X2431071Y1829052D01*
X2398603Y1861519D01*
X2395556Y1871741D01*
X2389713Y1882801D01*
X2382151Y1891748D01*
X2359700Y1891748D01*
X2351364Y1883412D01*
X2343679Y1882655D01*
X2333594Y1879596D01*
X2324986Y1874995D01*
X2329588Y1883603D01*
X2332647Y1893688D01*
X2333404Y1901373D01*
X2341740Y1909709D01*
X2341740Y1932159D01*
X2332792Y1939721D01*
X2321733Y1945565D01*
X2311511Y1948612D01*
X2279043Y1981080D01*
X2270897Y1987765D01*
X2269042Y1988756D01*
X2268051Y1990611D01*
X2261366Y1998757D01*
X2222475Y2037648D01*
X2214328Y2044334D01*
X2212474Y2045325D01*
X2211483Y2047179D01*
X2204797Y2055326D01*
X2177403Y2082720D01*
X2204797Y2110114D01*
X2211483Y2118261D01*
X2212474Y2120115D01*
X2214328Y2121106D01*
X2222475Y2127792D01*
X2237293Y2142610D01*
X2240991Y2133681D01*
X2251224Y2118367D01*
X2264247Y2105344D01*
X2279561Y2095111D01*
X2296577Y2088063D01*
X2314641Y2084470D01*
X2333059Y2084470D01*
X2351123Y2088063D01*
X2368139Y2095111D01*
X2381000Y2103705D01*
X2393861Y2095111D01*
X2410877Y2088063D01*
X2428941Y2084470D01*
X2447359Y2084470D01*
X2465423Y2088063D01*
X2482439Y2095111D01*
X2497753Y2105344D01*
X2510776Y2118367D01*
X2521009Y2133681D01*
X2528057Y2150697D01*
X2531650Y2168761D01*
X2531650Y2187179D01*
X2528057Y2205243D01*
X2521009Y2222259D01*
X2510776Y2237573D01*
X2497753Y2250596D01*
X2482439Y2260829D01*
X2465423Y2267877D01*
X2447359Y2271470D01*
X2434453Y2271470D01*
X2400303Y2305620D01*
X2402080Y2307397D01*
X2414903Y2294574D01*
X2430217Y2284341D01*
X2447233Y2277293D01*
X2465297Y2273700D01*
X2483715Y2273700D01*
X2501779Y2277293D01*
X2518795Y2284341D01*
X2530471Y2292143D01*
X2536930Y2285684D01*
X2552244Y2275451D01*
X2569260Y2268403D01*
X2587324Y2264810D01*
X2605742Y2264810D01*
X2623806Y2268403D01*
X2640822Y2275451D01*
X2656136Y2285684D01*
X2669159Y2298707D01*
X2679391Y2314021D01*
X2686440Y2331037D01*
X2690033Y2349101D01*
X2690033Y2367519D01*
X2686440Y2385583D01*
X2685923Y2386829D01*
X2705723Y2386829D01*
X2714059Y2395165D01*
X2721744Y2395922D01*
X2731829Y2398981D01*
X2740437Y2403582D01*
X2735835Y2394974D01*
G36*
X1444017Y3228960D02*
G01*
X1461949Y3207109D01*
X1483800Y3189177D01*
X1500665Y3180162D01*
X1501329Y3173422D01*
X1504960Y3161452D01*
X1510856Y3150421D01*
X1518791Y3140751D01*
X1521215Y3138763D01*
X1550327Y3109651D01*
X1552315Y3107228D01*
X1556286Y3103969D01*
X1561985Y3099292D01*
X1570888Y3094533D01*
X1573016Y3093396D01*
X1584986Y3089765D01*
X1594315Y3088846D01*
X1594315Y3088846D01*
X1597434Y3088539D01*
X1600553Y3088846D01*
X2443884Y3088846D01*
X2422798Y3067760D01*
X2409891Y3067760D01*
X2391827Y3064167D01*
X2374811Y3057119D01*
X2359497Y3046886D01*
X2346474Y3033863D01*
X2336241Y3018549D01*
X2329193Y3001533D01*
X2325600Y2983469D01*
X2325600Y2965051D01*
X2329180Y2947056D01*
X2327448Y2947581D01*
X2315000Y2948807D01*
X2268575Y2948500D01*
X2252700Y2932625D01*
X2252700Y2822700D01*
X2254700Y2822700D01*
X2254700Y2797300D01*
X2252700Y2797300D01*
X2252700Y2687375D01*
X2268575Y2671500D01*
X2315000Y2671193D01*
X2327448Y2672419D01*
X2337820Y2675565D01*
X2337820Y2670038D01*
X2337513Y2666920D01*
X2337820Y2663802D01*
X2337820Y2663801D01*
X2338739Y2654472D01*
X2338827Y2654182D01*
X2342370Y2642502D01*
X2348113Y2631757D01*
X2316154Y2599798D01*
X2309468Y2591652D01*
X2308477Y2589797D01*
X2306623Y2588806D01*
X2298476Y2582120D01*
X2267019Y2550663D01*
X2214747Y2602935D01*
X2212759Y2605359D01*
X2203089Y2613294D01*
X2192058Y2619190D01*
X2180088Y2622821D01*
X2170759Y2623740D01*
X2170758Y2623740D01*
X2167640Y2624047D01*
X2164522Y2623740D01*
X1865958Y2623740D01*
X1862840Y2624047D01*
X1859722Y2623740D01*
X1859721Y2623740D01*
X1850392Y2622821D01*
X1840934Y2619952D01*
X1838422Y2619190D01*
X1827390Y2613294D01*
X1822968Y2609664D01*
X1817721Y2605359D01*
X1815733Y2602936D01*
X1677921Y2465124D01*
X1675498Y2463135D01*
X1667562Y2453466D01*
X1661666Y2442434D01*
X1658035Y2430464D01*
X1657116Y2421135D01*
X1657116Y2421134D01*
X1656809Y2418016D01*
X1657116Y2414898D01*
X1657116Y2386604D01*
X1656956Y2386736D01*
X1643340Y2394014D01*
X1631700Y2397545D01*
X1631700Y2567282D01*
X1632007Y2570400D01*
X1631700Y2573518D01*
X1631700Y2573519D01*
X1630781Y2582848D01*
X1627150Y2594818D01*
X1621254Y2605849D01*
X1613318Y2615519D01*
X1610895Y2617507D01*
X1545979Y2682423D01*
X1555573Y2685333D01*
X1564867Y2690301D01*
X1573013Y2696987D01*
X1579699Y2705133D01*
X1584667Y2714427D01*
X1587726Y2724512D01*
X1588759Y2735000D01*
X2101193Y2735000D01*
X2102419Y2722552D01*
X2106050Y2710582D01*
X2111946Y2699551D01*
X2119882Y2689882D01*
X2129551Y2681946D01*
X2140582Y2676050D01*
X2152552Y2672419D01*
X2165000Y2671193D01*
X2211425Y2671500D01*
X2227300Y2687375D01*
X2227300Y2797300D01*
X2117375Y2797300D01*
X2101500Y2781425D01*
X2101193Y2735000D01*
X1588759Y2735000D01*
X1588759Y2885000D01*
X2101193Y2885000D01*
X2101500Y2838575D01*
X2117375Y2822700D01*
X2227300Y2822700D01*
X2227300Y2932625D01*
X2211425Y2948500D01*
X2165000Y2948807D01*
X2152552Y2947581D01*
X2140582Y2943950D01*
X2129551Y2938054D01*
X2119882Y2930118D01*
X2111946Y2920449D01*
X2106050Y2909418D01*
X2102419Y2897448D01*
X2101193Y2885000D01*
X1588759Y2885000D01*
X1587726Y2895488D01*
X1584667Y2905573D01*
X1579699Y2914867D01*
X1573013Y2923013D01*
X1564867Y2929699D01*
X1555573Y2934667D01*
X1545488Y2937726D01*
X1535000Y2938759D01*
X1385000Y2938759D01*
X1374512Y2937726D01*
X1364427Y2934667D01*
X1355133Y2929699D01*
X1346987Y2923013D01*
X1340301Y2914867D01*
X1335333Y2905573D01*
X1332274Y2895488D01*
X1331241Y2885000D01*
X1331241Y2735000D01*
X1332274Y2724512D01*
X1335333Y2714427D01*
X1340301Y2705133D01*
X1346987Y2696987D01*
X1355133Y2690301D01*
X1364427Y2685333D01*
X1374512Y2682274D01*
X1385000Y2681241D01*
X1396453Y2681241D01*
X1396193Y2678600D01*
X1396500Y2675481D01*
X1396500Y2675481D01*
X1397343Y2666920D01*
X1397419Y2666152D01*
X1401050Y2654182D01*
X1406744Y2643530D01*
X1406946Y2643151D01*
X1414882Y2633482D01*
X1417305Y2631493D01*
X1504700Y2544097D01*
X1504700Y2397545D01*
X1493060Y2394014D01*
X1479444Y2386736D01*
X1467509Y2376941D01*
X1457714Y2365006D01*
X1450436Y2351390D01*
X1445954Y2336615D01*
X1444441Y2321250D01*
X1444441Y2256250D01*
X1445954Y2240885D01*
X1450436Y2226110D01*
X1457714Y2212494D01*
X1467509Y2200559D01*
X1479444Y2190764D01*
X1487890Y2186250D01*
X1479444Y2181736D01*
X1467509Y2171941D01*
X1457714Y2160006D01*
X1450436Y2146390D01*
X1445954Y2131615D01*
X1444441Y2116250D01*
X1444441Y2051250D01*
X1445954Y2035885D01*
X1450436Y2021110D01*
X1457714Y2007494D01*
X1467509Y1995559D01*
X1479444Y1985764D01*
X1493060Y1978486D01*
X1497200Y1977230D01*
X1497200Y1976987D01*
X1496856Y1973500D01*
X1497200Y1970012D01*
X1497200Y1970012D01*
X1498227Y1959582D01*
X1502287Y1946198D01*
X1508880Y1933864D01*
X1517752Y1923053D01*
X1520462Y1920829D01*
X1521771Y1919520D01*
X1332875Y1919520D01*
X1332446Y1923885D01*
X1327964Y1938660D01*
X1320686Y1952276D01*
X1317450Y1956219D01*
X1317450Y2081366D01*
X1317951Y2086450D01*
X1317450Y2091534D01*
X1315952Y2106740D01*
X1310034Y2126249D01*
X1305383Y2134951D01*
X1300423Y2144230D01*
X1290730Y2156041D01*
X1287490Y2159990D01*
X1283541Y2163230D01*
X1077157Y2369614D01*
X1096807Y2373523D01*
X1119647Y2382983D01*
X1140202Y2396718D01*
X1157682Y2414198D01*
X1171417Y2434754D01*
X1180877Y2457593D01*
X1185700Y2481839D01*
X1185700Y2506561D01*
X1180877Y2530807D01*
X1171417Y2553647D01*
X1157682Y2574202D01*
X1140202Y2591682D01*
X1123700Y2602708D01*
X1123700Y2874298D01*
X1352606Y3103203D01*
X1355029Y3105191D01*
X1357017Y3107614D01*
X1357017Y3107614D01*
X1362964Y3114861D01*
X1368860Y3125892D01*
X1369478Y3127928D01*
X1372491Y3137862D01*
X1373410Y3147191D01*
X1373410Y3147191D01*
X1373717Y3150310D01*
X1373410Y3153429D01*
X1373410Y3180298D01*
X1390020Y3189177D01*
X1411871Y3207109D01*
X1429803Y3228960D01*
X1436910Y3242256D01*
X1444017Y3228960D01*
X1444017Y3228960D01*
G37*
X1444017Y3228960D02*
X1461949Y3207109D01*
X1483800Y3189177D01*
X1500665Y3180162D01*
X1501329Y3173422D01*
X1504960Y3161452D01*
X1510856Y3150421D01*
X1518791Y3140751D01*
X1521215Y3138763D01*
X1550327Y3109651D01*
X1552315Y3107228D01*
X1556286Y3103969D01*
X1561985Y3099292D01*
X1570888Y3094533D01*
X1573016Y3093396D01*
X1584986Y3089765D01*
X1594315Y3088846D01*
X1594315Y3088846D01*
X1597434Y3088539D01*
X1600553Y3088846D01*
X2443884Y3088846D01*
X2422798Y3067760D01*
X2409891Y3067760D01*
X2391827Y3064167D01*
X2374811Y3057119D01*
X2359497Y3046886D01*
X2346474Y3033863D01*
X2336241Y3018549D01*
X2329193Y3001533D01*
X2325600Y2983469D01*
X2325600Y2965051D01*
X2329180Y2947056D01*
X2327448Y2947581D01*
X2315000Y2948807D01*
X2268575Y2948500D01*
X2252700Y2932625D01*
X2252700Y2822700D01*
X2254700Y2822700D01*
X2254700Y2797300D01*
X2252700Y2797300D01*
X2252700Y2687375D01*
X2268575Y2671500D01*
X2315000Y2671193D01*
X2327448Y2672419D01*
X2337820Y2675565D01*
X2337820Y2670038D01*
X2337513Y2666920D01*
X2337820Y2663802D01*
X2337820Y2663801D01*
X2338739Y2654472D01*
X2338827Y2654182D01*
X2342370Y2642502D01*
X2348113Y2631757D01*
X2316154Y2599798D01*
X2309468Y2591652D01*
X2308477Y2589797D01*
X2306623Y2588806D01*
X2298476Y2582120D01*
X2267019Y2550663D01*
X2214747Y2602935D01*
X2212759Y2605359D01*
X2203089Y2613294D01*
X2192058Y2619190D01*
X2180088Y2622821D01*
X2170759Y2623740D01*
X2170758Y2623740D01*
X2167640Y2624047D01*
X2164522Y2623740D01*
X1865958Y2623740D01*
X1862840Y2624047D01*
X1859722Y2623740D01*
X1859721Y2623740D01*
X1850392Y2622821D01*
X1840934Y2619952D01*
X1838422Y2619190D01*
X1827390Y2613294D01*
X1822968Y2609664D01*
X1817721Y2605359D01*
X1815733Y2602936D01*
X1677921Y2465124D01*
X1675498Y2463135D01*
X1667562Y2453466D01*
X1661666Y2442434D01*
X1658035Y2430464D01*
X1657116Y2421135D01*
X1657116Y2421134D01*
X1656809Y2418016D01*
X1657116Y2414898D01*
X1657116Y2386604D01*
X1656956Y2386736D01*
X1643340Y2394014D01*
X1631700Y2397545D01*
X1631700Y2567282D01*
X1632007Y2570400D01*
X1631700Y2573518D01*
X1631700Y2573519D01*
X1630781Y2582848D01*
X1627150Y2594818D01*
X1621254Y2605849D01*
X1613318Y2615519D01*
X1610895Y2617507D01*
X1545979Y2682423D01*
X1555573Y2685333D01*
X1564867Y2690301D01*
X1573013Y2696987D01*
X1579699Y2705133D01*
X1584667Y2714427D01*
X1587726Y2724512D01*
X1588759Y2735000D01*
X2101193Y2735000D01*
X2102419Y2722552D01*
X2106050Y2710582D01*
X2111946Y2699551D01*
X2119882Y2689882D01*
X2129551Y2681946D01*
X2140582Y2676050D01*
X2152552Y2672419D01*
X2165000Y2671193D01*
X2211425Y2671500D01*
X2227300Y2687375D01*
X2227300Y2797300D01*
X2117375Y2797300D01*
X2101500Y2781425D01*
X2101193Y2735000D01*
X1588759Y2735000D01*
X1588759Y2885000D01*
X2101193Y2885000D01*
X2101500Y2838575D01*
X2117375Y2822700D01*
X2227300Y2822700D01*
X2227300Y2932625D01*
X2211425Y2948500D01*
X2165000Y2948807D01*
X2152552Y2947581D01*
X2140582Y2943950D01*
X2129551Y2938054D01*
X2119882Y2930118D01*
X2111946Y2920449D01*
X2106050Y2909418D01*
X2102419Y2897448D01*
X2101193Y2885000D01*
X1588759Y2885000D01*
X1587726Y2895488D01*
X1584667Y2905573D01*
X1579699Y2914867D01*
X1573013Y2923013D01*
X1564867Y2929699D01*
X1555573Y2934667D01*
X1545488Y2937726D01*
X1535000Y2938759D01*
X1385000Y2938759D01*
X1374512Y2937726D01*
X1364427Y2934667D01*
X1355133Y2929699D01*
X1346987Y2923013D01*
X1340301Y2914867D01*
X1335333Y2905573D01*
X1332274Y2895488D01*
X1331241Y2885000D01*
X1331241Y2735000D01*
X1332274Y2724512D01*
X1335333Y2714427D01*
X1340301Y2705133D01*
X1346987Y2696987D01*
X1355133Y2690301D01*
X1364427Y2685333D01*
X1374512Y2682274D01*
X1385000Y2681241D01*
X1396453Y2681241D01*
X1396193Y2678600D01*
X1396500Y2675481D01*
X1396500Y2675481D01*
X1397343Y2666920D01*
X1397419Y2666152D01*
X1401050Y2654182D01*
X1406744Y2643530D01*
X1406946Y2643151D01*
X1414882Y2633482D01*
X1417305Y2631493D01*
X1504700Y2544097D01*
X1504700Y2397545D01*
X1493060Y2394014D01*
X1479444Y2386736D01*
X1467509Y2376941D01*
X1457714Y2365006D01*
X1450436Y2351390D01*
X1445954Y2336615D01*
X1444441Y2321250D01*
X1444441Y2256250D01*
X1445954Y2240885D01*
X1450436Y2226110D01*
X1457714Y2212494D01*
X1467509Y2200559D01*
X1479444Y2190764D01*
X1487890Y2186250D01*
X1479444Y2181736D01*
X1467509Y2171941D01*
X1457714Y2160006D01*
X1450436Y2146390D01*
X1445954Y2131615D01*
X1444441Y2116250D01*
X1444441Y2051250D01*
X1445954Y2035885D01*
X1450436Y2021110D01*
X1457714Y2007494D01*
X1467509Y1995559D01*
X1479444Y1985764D01*
X1493060Y1978486D01*
X1497200Y1977230D01*
X1497200Y1976987D01*
X1496856Y1973500D01*
X1497200Y1970012D01*
X1497200Y1970012D01*
X1498227Y1959582D01*
X1502287Y1946198D01*
X1508880Y1933864D01*
X1517752Y1923053D01*
X1520462Y1920829D01*
X1521771Y1919520D01*
X1332875Y1919520D01*
X1332446Y1923885D01*
X1327964Y1938660D01*
X1320686Y1952276D01*
X1317450Y1956219D01*
X1317450Y2081366D01*
X1317951Y2086450D01*
X1317450Y2091534D01*
X1315952Y2106740D01*
X1310034Y2126249D01*
X1305383Y2134951D01*
X1300423Y2144230D01*
X1290730Y2156041D01*
X1287490Y2159990D01*
X1283541Y2163230D01*
X1077157Y2369614D01*
X1096807Y2373523D01*
X1119647Y2382983D01*
X1140202Y2396718D01*
X1157682Y2414198D01*
X1171417Y2434754D01*
X1180877Y2457593D01*
X1185700Y2481839D01*
X1185700Y2506561D01*
X1180877Y2530807D01*
X1171417Y2553647D01*
X1157682Y2574202D01*
X1140202Y2591682D01*
X1123700Y2602708D01*
X1123700Y2874298D01*
X1352606Y3103203D01*
X1355029Y3105191D01*
X1357017Y3107614D01*
X1357017Y3107614D01*
X1362964Y3114861D01*
X1368860Y3125892D01*
X1369478Y3127928D01*
X1372491Y3137862D01*
X1373410Y3147191D01*
X1373410Y3147191D01*
X1373717Y3150310D01*
X1373410Y3153429D01*
X1373410Y3180298D01*
X1390020Y3189177D01*
X1411871Y3207109D01*
X1429803Y3228960D01*
X1436910Y3242256D01*
X1444017Y3228960D01*
G36*
X4036390Y2853807D02*
G01*
X4036390Y2409323D01*
X3752968Y2125900D01*
X3143357Y2125900D01*
X3201817Y2184360D01*
X3208503Y2192507D01*
X3213471Y2201801D01*
X3215873Y2209720D01*
X3531579Y2209720D01*
X3587550Y2153750D01*
X3599484Y2143955D01*
X3613101Y2136677D01*
X3627875Y2132195D01*
X3643240Y2130682D01*
X3658605Y2132195D01*
X3673380Y2136677D01*
X3686996Y2143955D01*
X3698931Y2153750D01*
X3744893Y2199712D01*
X3754688Y2211647D01*
X3761966Y2225263D01*
X3766448Y2240038D01*
X3767961Y2255403D01*
X3767614Y2258929D01*
X3775749Y2256461D01*
X3788197Y2255235D01*
X3800645Y2256461D01*
X3812615Y2260092D01*
X3823647Y2265989D01*
X3833316Y2273924D01*
X3853552Y2294594D01*
X3853552Y2317045D01*
X3779358Y2391238D01*
X3777944Y2389824D01*
X3759984Y2407784D01*
X3761398Y2409198D01*
X3797319Y2409198D01*
X3871512Y2335005D01*
X3893963Y2335005D01*
X3914633Y2355241D01*
X3922568Y2364910D01*
X3928465Y2375942D01*
X3932096Y2387911D01*
X3933322Y2400360D01*
X3932096Y2412808D01*
X3928465Y2424778D01*
X3922568Y2435809D01*
X3914633Y2445478D01*
X3885124Y2474553D01*
X3862673Y2474553D01*
X3797319Y2409198D01*
X3761398Y2409198D01*
X3687205Y2483392D01*
X3664754Y2483392D01*
X3644084Y2463156D01*
X3636148Y2453487D01*
X3630252Y2442455D01*
X3626621Y2430485D01*
X3625395Y2418037D01*
X3626621Y2405589D01*
X3629089Y2397454D01*
X3625563Y2397801D01*
X3610198Y2396288D01*
X3602124Y2393839D01*
X3600839Y2395124D01*
X3600839Y2466580D01*
X3600351Y2471536D01*
X3606030Y2482162D01*
X3609661Y2494132D01*
X3610887Y2506580D01*
X3610640Y2523803D01*
X3705165Y2523803D01*
X3705165Y2501352D01*
X3779358Y2427159D01*
X3844713Y2492513D01*
X3844713Y2514964D01*
X3815638Y2544473D01*
X3805969Y2552408D01*
X3794937Y2558305D01*
X3782968Y2561936D01*
X3770520Y2563162D01*
X3758071Y2561936D01*
X3746102Y2558305D01*
X3735070Y2552408D01*
X3725401Y2544473D01*
X3705165Y2523803D01*
X3610640Y2523803D01*
X3610580Y2528005D01*
X3594705Y2543880D01*
X3502280Y2543880D01*
X3502280Y2541880D01*
X3476880Y2541880D01*
X3476880Y2543880D01*
X3474880Y2543880D01*
X3474880Y2569280D01*
X3476880Y2569280D01*
X3476880Y2654205D01*
X3502280Y2654205D01*
X3502280Y2569280D01*
X3594705Y2569280D01*
X3610580Y2585155D01*
X3610887Y2606580D01*
X3609661Y2619028D01*
X3606030Y2630998D01*
X3600134Y2642029D01*
X3592198Y2651699D01*
X3582529Y2659634D01*
X3571498Y2665530D01*
X3559528Y2669161D01*
X3547080Y2670387D01*
X3518155Y2670080D01*
X3502280Y2654205D01*
X3476880Y2654205D01*
X3461005Y2670080D01*
X3432080Y2670387D01*
X3419632Y2669161D01*
X3407662Y2665530D01*
X3396631Y2659634D01*
X3392544Y2656280D01*
X3382568Y2659306D01*
X3372080Y2660339D01*
X3300624Y2660339D01*
X3293047Y2667916D01*
X3296548Y2679458D01*
X3298061Y2694823D01*
X3297714Y2698349D01*
X3305849Y2695881D01*
X3318297Y2694655D01*
X3330745Y2695881D01*
X3342715Y2699512D01*
X3353747Y2705409D01*
X3363416Y2713344D01*
X3383652Y2734014D01*
X3383652Y2756465D01*
X3309458Y2830658D01*
X3308044Y2829244D01*
X3290084Y2847204D01*
X3291498Y2848618D01*
X3327419Y2848618D01*
X3401612Y2774425D01*
X3424063Y2774425D01*
X3444733Y2794661D01*
X3452668Y2804330D01*
X3458565Y2815362D01*
X3462196Y2827331D01*
X3463422Y2839780D01*
X3462196Y2852228D01*
X3458565Y2864197D01*
X3452668Y2875229D01*
X3444733Y2884898D01*
X3415224Y2913973D01*
X3392773Y2913973D01*
X3327419Y2848618D01*
X3291498Y2848618D01*
X3217305Y2922812D01*
X3194854Y2922812D01*
X3174184Y2902576D01*
X3166248Y2892907D01*
X3160352Y2881875D01*
X3156721Y2869905D01*
X3155495Y2857457D01*
X3156721Y2845009D01*
X3159189Y2836874D01*
X3155663Y2837221D01*
X3140298Y2835708D01*
X3125523Y2831226D01*
X3111907Y2823948D01*
X3099972Y2814153D01*
X3054010Y2768191D01*
X3044215Y2756256D01*
X3036937Y2742640D01*
X3032455Y2727866D01*
X3030942Y2712500D01*
X3032455Y2697135D01*
X3036937Y2682361D01*
X3044215Y2668744D01*
X3054010Y2656810D01*
X3109980Y2600840D01*
X3109980Y2410380D01*
X3080902Y2381302D01*
X3056213Y2405992D01*
X3053166Y2416213D01*
X3047322Y2427273D01*
X3039760Y2436220D01*
X3017309Y2436220D01*
X3008973Y2427884D01*
X3001288Y2427127D01*
X2991204Y2424068D01*
X2982596Y2419467D01*
X2987197Y2428075D01*
X2990256Y2438160D01*
X2991013Y2445845D01*
X2999349Y2454181D01*
X2999349Y2476632D01*
X2990402Y2484194D01*
X2979342Y2490037D01*
X2969120Y2493084D01*
X2943075Y2519129D01*
X2940028Y2529350D01*
X2934185Y2540410D01*
X2926623Y2549357D01*
X2904172Y2549357D01*
X2895836Y2541021D01*
X2888151Y2540265D01*
X2878067Y2537205D01*
X2869459Y2532604D01*
X2874060Y2541212D01*
X2877119Y2551297D01*
X2877876Y2558982D01*
X2886212Y2567318D01*
X2886212Y2571789D01*
X2969796Y2655373D01*
X2972218Y2657362D01*
X2974206Y2659784D01*
X2974207Y2659784D01*
X2980154Y2667031D01*
X2986050Y2678062D01*
X2986616Y2679927D01*
X2989681Y2690032D01*
X2990600Y2699361D01*
X2990600Y2699361D01*
X2990907Y2702480D01*
X2990600Y2705599D01*
X2990600Y2905531D01*
X2999726Y2914657D01*
X3009959Y2929971D01*
X3017007Y2946987D01*
X3020236Y2963223D01*
X3235265Y2963223D01*
X3235265Y2940772D01*
X3309458Y2866579D01*
X3374813Y2931933D01*
X3374813Y2954384D01*
X3345738Y2983893D01*
X3336069Y2991828D01*
X3325037Y2997725D01*
X3313068Y3001356D01*
X3300620Y3002582D01*
X3288171Y3001356D01*
X3276202Y2997725D01*
X3265170Y2991828D01*
X3255501Y2983893D01*
X3235265Y2963223D01*
X3020236Y2963223D01*
X3020600Y2965051D01*
X3020600Y2983469D01*
X3017007Y3001533D01*
X3013978Y3008844D01*
X3881353Y3008844D01*
X4036390Y2853807D01*
X4036390Y2853807D01*
G37*
X4036390Y2853807D02*
X4036390Y2409323D01*
X3752968Y2125900D01*
X3143357Y2125900D01*
X3201817Y2184360D01*
X3208503Y2192507D01*
X3213471Y2201801D01*
X3215873Y2209720D01*
X3531579Y2209720D01*
X3587550Y2153750D01*
X3599484Y2143955D01*
X3613101Y2136677D01*
X3627875Y2132195D01*
X3643240Y2130682D01*
X3658605Y2132195D01*
X3673380Y2136677D01*
X3686996Y2143955D01*
X3698931Y2153750D01*
X3744893Y2199712D01*
X3754688Y2211647D01*
X3761966Y2225263D01*
X3766448Y2240038D01*
X3767961Y2255403D01*
X3767614Y2258929D01*
X3775749Y2256461D01*
X3788197Y2255235D01*
X3800645Y2256461D01*
X3812615Y2260092D01*
X3823647Y2265989D01*
X3833316Y2273924D01*
X3853552Y2294594D01*
X3853552Y2317045D01*
X3779358Y2391238D01*
X3777944Y2389824D01*
X3759984Y2407784D01*
X3761398Y2409198D01*
X3797319Y2409198D01*
X3871512Y2335005D01*
X3893963Y2335005D01*
X3914633Y2355241D01*
X3922568Y2364910D01*
X3928465Y2375942D01*
X3932096Y2387911D01*
X3933322Y2400360D01*
X3932096Y2412808D01*
X3928465Y2424778D01*
X3922568Y2435809D01*
X3914633Y2445478D01*
X3885124Y2474553D01*
X3862673Y2474553D01*
X3797319Y2409198D01*
X3761398Y2409198D01*
X3687205Y2483392D01*
X3664754Y2483392D01*
X3644084Y2463156D01*
X3636148Y2453487D01*
X3630252Y2442455D01*
X3626621Y2430485D01*
X3625395Y2418037D01*
X3626621Y2405589D01*
X3629089Y2397454D01*
X3625563Y2397801D01*
X3610198Y2396288D01*
X3602124Y2393839D01*
X3600839Y2395124D01*
X3600839Y2466580D01*
X3600351Y2471536D01*
X3606030Y2482162D01*
X3609661Y2494132D01*
X3610887Y2506580D01*
X3610640Y2523803D01*
X3705165Y2523803D01*
X3705165Y2501352D01*
X3779358Y2427159D01*
X3844713Y2492513D01*
X3844713Y2514964D01*
X3815638Y2544473D01*
X3805969Y2552408D01*
X3794937Y2558305D01*
X3782968Y2561936D01*
X3770520Y2563162D01*
X3758071Y2561936D01*
X3746102Y2558305D01*
X3735070Y2552408D01*
X3725401Y2544473D01*
X3705165Y2523803D01*
X3610640Y2523803D01*
X3610580Y2528005D01*
X3594705Y2543880D01*
X3502280Y2543880D01*
X3502280Y2541880D01*
X3476880Y2541880D01*
X3476880Y2543880D01*
X3474880Y2543880D01*
X3474880Y2569280D01*
X3476880Y2569280D01*
X3476880Y2654205D01*
X3502280Y2654205D01*
X3502280Y2569280D01*
X3594705Y2569280D01*
X3610580Y2585155D01*
X3610887Y2606580D01*
X3609661Y2619028D01*
X3606030Y2630998D01*
X3600134Y2642029D01*
X3592198Y2651699D01*
X3582529Y2659634D01*
X3571498Y2665530D01*
X3559528Y2669161D01*
X3547080Y2670387D01*
X3518155Y2670080D01*
X3502280Y2654205D01*
X3476880Y2654205D01*
X3461005Y2670080D01*
X3432080Y2670387D01*
X3419632Y2669161D01*
X3407662Y2665530D01*
X3396631Y2659634D01*
X3392544Y2656280D01*
X3382568Y2659306D01*
X3372080Y2660339D01*
X3300624Y2660339D01*
X3293047Y2667916D01*
X3296548Y2679458D01*
X3298061Y2694823D01*
X3297714Y2698349D01*
X3305849Y2695881D01*
X3318297Y2694655D01*
X3330745Y2695881D01*
X3342715Y2699512D01*
X3353747Y2705409D01*
X3363416Y2713344D01*
X3383652Y2734014D01*
X3383652Y2756465D01*
X3309458Y2830658D01*
X3308044Y2829244D01*
X3290084Y2847204D01*
X3291498Y2848618D01*
X3327419Y2848618D01*
X3401612Y2774425D01*
X3424063Y2774425D01*
X3444733Y2794661D01*
X3452668Y2804330D01*
X3458565Y2815362D01*
X3462196Y2827331D01*
X3463422Y2839780D01*
X3462196Y2852228D01*
X3458565Y2864197D01*
X3452668Y2875229D01*
X3444733Y2884898D01*
X3415224Y2913973D01*
X3392773Y2913973D01*
X3327419Y2848618D01*
X3291498Y2848618D01*
X3217305Y2922812D01*
X3194854Y2922812D01*
X3174184Y2902576D01*
X3166248Y2892907D01*
X3160352Y2881875D01*
X3156721Y2869905D01*
X3155495Y2857457D01*
X3156721Y2845009D01*
X3159189Y2836874D01*
X3155663Y2837221D01*
X3140298Y2835708D01*
X3125523Y2831226D01*
X3111907Y2823948D01*
X3099972Y2814153D01*
X3054010Y2768191D01*
X3044215Y2756256D01*
X3036937Y2742640D01*
X3032455Y2727866D01*
X3030942Y2712500D01*
X3032455Y2697135D01*
X3036937Y2682361D01*
X3044215Y2668744D01*
X3054010Y2656810D01*
X3109980Y2600840D01*
X3109980Y2410380D01*
X3080902Y2381302D01*
X3056213Y2405992D01*
X3053166Y2416213D01*
X3047322Y2427273D01*
X3039760Y2436220D01*
X3017309Y2436220D01*
X3008973Y2427884D01*
X3001288Y2427127D01*
X2991204Y2424068D01*
X2982596Y2419467D01*
X2987197Y2428075D01*
X2990256Y2438160D01*
X2991013Y2445845D01*
X2999349Y2454181D01*
X2999349Y2476632D01*
X2990402Y2484194D01*
X2979342Y2490037D01*
X2969120Y2493084D01*
X2943075Y2519129D01*
X2940028Y2529350D01*
X2934185Y2540410D01*
X2926623Y2549357D01*
X2904172Y2549357D01*
X2895836Y2541021D01*
X2888151Y2540265D01*
X2878067Y2537205D01*
X2869459Y2532604D01*
X2874060Y2541212D01*
X2877119Y2551297D01*
X2877876Y2558982D01*
X2886212Y2567318D01*
X2886212Y2571789D01*
X2969796Y2655373D01*
X2972218Y2657362D01*
X2974206Y2659784D01*
X2974207Y2659784D01*
X2980154Y2667031D01*
X2986050Y2678062D01*
X2986616Y2679927D01*
X2989681Y2690032D01*
X2990600Y2699361D01*
X2990600Y2699361D01*
X2990907Y2702480D01*
X2990600Y2705599D01*
X2990600Y2905531D01*
X2999726Y2914657D01*
X3009959Y2929971D01*
X3017007Y2946987D01*
X3020236Y2963223D01*
X3235265Y2963223D01*
X3235265Y2940772D01*
X3309458Y2866579D01*
X3374813Y2931933D01*
X3374813Y2954384D01*
X3345738Y2983893D01*
X3336069Y2991828D01*
X3325037Y2997725D01*
X3313068Y3001356D01*
X3300620Y3002582D01*
X3288171Y3001356D01*
X3276202Y2997725D01*
X3265170Y2991828D01*
X3255501Y2983893D01*
X3235265Y2963223D01*
X3020236Y2963223D01*
X3020600Y2965051D01*
X3020600Y2983469D01*
X3017007Y3001533D01*
X3013978Y3008844D01*
X3881353Y3008844D01*
X4036390Y2853807D01*
G36*
X3327280Y2429280D02*
G01*
X3329280Y2429280D01*
X3329280Y2403880D01*
X3327280Y2403880D01*
X3327280Y2401880D01*
X3301880Y2401880D01*
X3301880Y2403880D01*
X3299880Y2403880D01*
X3299880Y2429280D01*
X3301880Y2429280D01*
X3301880Y2431280D01*
X3327280Y2431280D01*
X3327280Y2429280D01*
X3327280Y2429280D01*
G37*
X3327280Y2429280D02*
X3329280Y2429280D01*
X3329280Y2403880D01*
X3327280Y2403880D01*
X3327280Y2401880D01*
X3301880Y2401880D01*
X3301880Y2403880D01*
X3299880Y2403880D01*
X3299880Y2429280D01*
X3301880Y2429280D01*
X3301880Y2431280D01*
X3327280Y2431280D01*
X3327280Y2429280D01*
M02*
