G04 #@! TF.GenerationSoftware,KiCad,Pcbnew,(5.1.0)-1*
G04 #@! TF.CreationDate,2022-02-25T22:55:27-08:00*
G04 #@! TF.ProjectId,BTNPAD_TYPE_A,42544e50-4144-45f5-9459-50455f412e6b,rev?*
G04 #@! TF.SameCoordinates,PX7541940PY6316b30*
G04 #@! TF.FileFunction,Soldermask,Bot*
G04 #@! TF.FilePolarity,Negative*
%FSLAX45Y45*%
G04 Gerber Fmt 4.5, Leading zero omitted, Abs format (unit mm)*
G04 Created by KiCad (PCBNEW (5.1.0)-1) date 2022-02-25 22:55:27*
%MOMM*%
%LPD*%
G04 APERTURE LIST*
%ADD10C,0.100000*%
G04 APERTURE END LIST*
D10*
G36*
X7196982Y274069D02*
G01*
X7213024Y269202D01*
X7219736Y265615D01*
X7227808Y261300D01*
X7240766Y250666D01*
X7251400Y237708D01*
X7251400Y237708D01*
X7259302Y222924D01*
X7264169Y206882D01*
X7265812Y190200D01*
X7264169Y173518D01*
X7259302Y157476D01*
X7255248Y149890D01*
X7251400Y142692D01*
X7240766Y129734D01*
X7227808Y119100D01*
X7227808Y119099D01*
X7213024Y111198D01*
X7196982Y106331D01*
X7184480Y105100D01*
X7176120Y105100D01*
X7163618Y106331D01*
X7147576Y111198D01*
X7132792Y119099D01*
X7132792Y119100D01*
X7119834Y129734D01*
X7109200Y142692D01*
X7105352Y149890D01*
X7101298Y157476D01*
X7096431Y173518D01*
X7094788Y190200D01*
X7096431Y206882D01*
X7101298Y222924D01*
X7109199Y237708D01*
X7109200Y237708D01*
X7119834Y250666D01*
X7132792Y261300D01*
X7140864Y265615D01*
X7147576Y269202D01*
X7163618Y274069D01*
X7176120Y275300D01*
X7184480Y275300D01*
X7196982Y274069D01*
X7196982Y274069D01*
G37*
G36*
X6443123Y272030D02*
G01*
X6458610Y265615D01*
X6472548Y256301D01*
X6484401Y244448D01*
X6493715Y230510D01*
X6500130Y215023D01*
X6503400Y198582D01*
X6503400Y181818D01*
X6500130Y165377D01*
X6493715Y149890D01*
X6484401Y135952D01*
X6472548Y124098D01*
X6458610Y114785D01*
X6443123Y108370D01*
X6426682Y105100D01*
X6409918Y105100D01*
X6393477Y108370D01*
X6377990Y114785D01*
X6364052Y124098D01*
X6352198Y135952D01*
X6342885Y149890D01*
X6336470Y165377D01*
X6333200Y181818D01*
X6333200Y198582D01*
X6336470Y215023D01*
X6342885Y230510D01*
X6352198Y244448D01*
X6364052Y256301D01*
X6377990Y265615D01*
X6393477Y272030D01*
X6409918Y275300D01*
X6426682Y275300D01*
X6443123Y272030D01*
X6443123Y272030D01*
G37*
G36*
X5396982Y274069D02*
G01*
X5413024Y269202D01*
X5419736Y265615D01*
X5427808Y261300D01*
X5440766Y250666D01*
X5451400Y237708D01*
X5451401Y237708D01*
X5459302Y222924D01*
X5464169Y206882D01*
X5465812Y190200D01*
X5464169Y173518D01*
X5459302Y157476D01*
X5455248Y149890D01*
X5451400Y142692D01*
X5440766Y129734D01*
X5427808Y119100D01*
X5427808Y119099D01*
X5413024Y111198D01*
X5396982Y106331D01*
X5384480Y105100D01*
X5376120Y105100D01*
X5363618Y106331D01*
X5347576Y111198D01*
X5332792Y119099D01*
X5332792Y119100D01*
X5319834Y129734D01*
X5309200Y142692D01*
X5305352Y149890D01*
X5301298Y157476D01*
X5296431Y173518D01*
X5294788Y190200D01*
X5296431Y206882D01*
X5301298Y222924D01*
X5309200Y237708D01*
X5309200Y237708D01*
X5319834Y250666D01*
X5332792Y261300D01*
X5340864Y265615D01*
X5347576Y269202D01*
X5363618Y274069D01*
X5376120Y275300D01*
X5384480Y275300D01*
X5396982Y274069D01*
X5396982Y274069D01*
G37*
G36*
X4643123Y272030D02*
G01*
X4658610Y265615D01*
X4672548Y256301D01*
X4684402Y244448D01*
X4693715Y230510D01*
X4700130Y215023D01*
X4703400Y198582D01*
X4703400Y181818D01*
X4700130Y165377D01*
X4693715Y149890D01*
X4684402Y135952D01*
X4672548Y124098D01*
X4658610Y114785D01*
X4643123Y108370D01*
X4626682Y105100D01*
X4609918Y105100D01*
X4593477Y108370D01*
X4577990Y114785D01*
X4564052Y124098D01*
X4552199Y135952D01*
X4542885Y149890D01*
X4536470Y165377D01*
X4533200Y181818D01*
X4533200Y198582D01*
X4536470Y215023D01*
X4542885Y230510D01*
X4552199Y244448D01*
X4564052Y256301D01*
X4577990Y265615D01*
X4593477Y272030D01*
X4609918Y275300D01*
X4626682Y275300D01*
X4643123Y272030D01*
X4643123Y272030D01*
G37*
G36*
X2843123Y272030D02*
G01*
X2858610Y265615D01*
X2872548Y256301D01*
X2884401Y244448D01*
X2893715Y230510D01*
X2900130Y215023D01*
X2903400Y198582D01*
X2903400Y181818D01*
X2900130Y165377D01*
X2893715Y149890D01*
X2884401Y135952D01*
X2872548Y124098D01*
X2858610Y114785D01*
X2843123Y108370D01*
X2826682Y105100D01*
X2809918Y105100D01*
X2793477Y108370D01*
X2777990Y114785D01*
X2764052Y124098D01*
X2752199Y135952D01*
X2742885Y149890D01*
X2736470Y165377D01*
X2733200Y181818D01*
X2733200Y198582D01*
X2736470Y215023D01*
X2742885Y230510D01*
X2752199Y244448D01*
X2764052Y256301D01*
X2777990Y265615D01*
X2793477Y272030D01*
X2809918Y275300D01*
X2826682Y275300D01*
X2843123Y272030D01*
X2843123Y272030D01*
G37*
G36*
X3596982Y274069D02*
G01*
X3613024Y269202D01*
X3619736Y265615D01*
X3627808Y261300D01*
X3640766Y250666D01*
X3651400Y237708D01*
X3651400Y237708D01*
X3659302Y222924D01*
X3664169Y206882D01*
X3665812Y190200D01*
X3664169Y173518D01*
X3659302Y157476D01*
X3655248Y149890D01*
X3651400Y142692D01*
X3640766Y129734D01*
X3627808Y119100D01*
X3627808Y119099D01*
X3613024Y111198D01*
X3596982Y106331D01*
X3584480Y105100D01*
X3576120Y105100D01*
X3563618Y106331D01*
X3547576Y111198D01*
X3532792Y119099D01*
X3532792Y119100D01*
X3519834Y129734D01*
X3509200Y142692D01*
X3505352Y149890D01*
X3501298Y157476D01*
X3496431Y173518D01*
X3494788Y190200D01*
X3496431Y206882D01*
X3501298Y222924D01*
X3509199Y237708D01*
X3509200Y237708D01*
X3519834Y250666D01*
X3532792Y261300D01*
X3540864Y265615D01*
X3547576Y269202D01*
X3563618Y274069D01*
X3576120Y275300D01*
X3584480Y275300D01*
X3596982Y274069D01*
X3596982Y274069D01*
G37*
G36*
X1796982Y274069D02*
G01*
X1813024Y269202D01*
X1819736Y265615D01*
X1827808Y261300D01*
X1840766Y250666D01*
X1851400Y237708D01*
X1851400Y237708D01*
X1859302Y222924D01*
X1864169Y206882D01*
X1865812Y190200D01*
X1864169Y173518D01*
X1859302Y157476D01*
X1855248Y149890D01*
X1851400Y142692D01*
X1840766Y129734D01*
X1827808Y119100D01*
X1827808Y119099D01*
X1813024Y111198D01*
X1796982Y106331D01*
X1784480Y105100D01*
X1776120Y105100D01*
X1763618Y106331D01*
X1747576Y111198D01*
X1732792Y119099D01*
X1732792Y119100D01*
X1719834Y129734D01*
X1709200Y142692D01*
X1705352Y149890D01*
X1701298Y157476D01*
X1696431Y173518D01*
X1694788Y190200D01*
X1696431Y206882D01*
X1701298Y222924D01*
X1709199Y237708D01*
X1709200Y237708D01*
X1719834Y250666D01*
X1732792Y261300D01*
X1740864Y265615D01*
X1747576Y269202D01*
X1763618Y274069D01*
X1776120Y275300D01*
X1784480Y275300D01*
X1796982Y274069D01*
X1796982Y274069D01*
G37*
G36*
X1043123Y272030D02*
G01*
X1058610Y265615D01*
X1072548Y256301D01*
X1084402Y244448D01*
X1093715Y230510D01*
X1100130Y215023D01*
X1103400Y198582D01*
X1103400Y181818D01*
X1100130Y165377D01*
X1093715Y149890D01*
X1084402Y135952D01*
X1072548Y124098D01*
X1058610Y114785D01*
X1043123Y108370D01*
X1026682Y105100D01*
X1009918Y105100D01*
X993477Y108370D01*
X977990Y114785D01*
X964052Y124098D01*
X952198Y135952D01*
X942885Y149890D01*
X936470Y165377D01*
X933200Y181818D01*
X933200Y198582D01*
X936470Y215023D01*
X942885Y230510D01*
X952198Y244448D01*
X964052Y256301D01*
X977990Y265615D01*
X993477Y272030D01*
X1009918Y275300D01*
X1026682Y275300D01*
X1043123Y272030D01*
X1043123Y272030D01*
G37*
G36*
X4705956Y625761D02*
G01*
X4725083Y617839D01*
X4725084Y617838D01*
X4742297Y606337D01*
X4756937Y591697D01*
X4768439Y574483D01*
X4776361Y555356D01*
X4780400Y535052D01*
X4780400Y514348D01*
X4776361Y494044D01*
X4768439Y474917D01*
X4768438Y474916D01*
X4756937Y457703D01*
X4742297Y443063D01*
X4725084Y431562D01*
X4725083Y431561D01*
X4725083Y431561D01*
X4705956Y423639D01*
X4685652Y419600D01*
X4664948Y419600D01*
X4644644Y423639D01*
X4625517Y431561D01*
X4625517Y431561D01*
X4625517Y431562D01*
X4608303Y443063D01*
X4593664Y457703D01*
X4582162Y474916D01*
X4582162Y474917D01*
X4574239Y494044D01*
X4570200Y514348D01*
X4570200Y535052D01*
X4574239Y555356D01*
X4582162Y574483D01*
X4593664Y591697D01*
X4608303Y606337D01*
X4625517Y617838D01*
X4625517Y617839D01*
X4644644Y625761D01*
X4664948Y629800D01*
X4685652Y629800D01*
X4705956Y625761D01*
X4705956Y625761D01*
G37*
G36*
X7155956Y625761D02*
G01*
X7175083Y617839D01*
X7175083Y617838D01*
X7192297Y606337D01*
X7206936Y591697D01*
X7218438Y574483D01*
X7226361Y555356D01*
X7230400Y535052D01*
X7230400Y514348D01*
X7226361Y494044D01*
X7218438Y474917D01*
X7218438Y474916D01*
X7206936Y457703D01*
X7192297Y443063D01*
X7175083Y431562D01*
X7175083Y431561D01*
X7175083Y431561D01*
X7155956Y423639D01*
X7135652Y419600D01*
X7114948Y419600D01*
X7094644Y423639D01*
X7075517Y431561D01*
X7075517Y431561D01*
X7075516Y431562D01*
X7058303Y443063D01*
X7043663Y457703D01*
X7032162Y474916D01*
X7032161Y474917D01*
X7024239Y494044D01*
X7020200Y514348D01*
X7020200Y535052D01*
X7024239Y555356D01*
X7032161Y574483D01*
X7043663Y591697D01*
X7058303Y606337D01*
X7075516Y617838D01*
X7075517Y617839D01*
X7094644Y625761D01*
X7114948Y629800D01*
X7135652Y629800D01*
X7155956Y625761D01*
X7155956Y625761D01*
G37*
G36*
X6505956Y625761D02*
G01*
X6525083Y617839D01*
X6525083Y617838D01*
X6542297Y606337D01*
X6556936Y591697D01*
X6568438Y574483D01*
X6576361Y555356D01*
X6580400Y535052D01*
X6580400Y514348D01*
X6576361Y494044D01*
X6568438Y474917D01*
X6568438Y474916D01*
X6556936Y457703D01*
X6542297Y443063D01*
X6525083Y431562D01*
X6525083Y431561D01*
X6525083Y431561D01*
X6505956Y423639D01*
X6485652Y419600D01*
X6464948Y419600D01*
X6444644Y423639D01*
X6425517Y431561D01*
X6425517Y431561D01*
X6425516Y431562D01*
X6408303Y443063D01*
X6393663Y457703D01*
X6382162Y474916D01*
X6382161Y474917D01*
X6374239Y494044D01*
X6370200Y514348D01*
X6370200Y535052D01*
X6374239Y555356D01*
X6382161Y574483D01*
X6393663Y591697D01*
X6408303Y606337D01*
X6425516Y617838D01*
X6425517Y617839D01*
X6444644Y625761D01*
X6464948Y629800D01*
X6485652Y629800D01*
X6505956Y625761D01*
X6505956Y625761D01*
G37*
G36*
X1755956Y625761D02*
G01*
X1775083Y617839D01*
X1775083Y617838D01*
X1792297Y606337D01*
X1806936Y591697D01*
X1818438Y574483D01*
X1826361Y555356D01*
X1830400Y535052D01*
X1830400Y514348D01*
X1826361Y494044D01*
X1818438Y474917D01*
X1818438Y474916D01*
X1806936Y457703D01*
X1792297Y443063D01*
X1775083Y431562D01*
X1775083Y431561D01*
X1775083Y431561D01*
X1755956Y423639D01*
X1735652Y419600D01*
X1714948Y419600D01*
X1694644Y423639D01*
X1675517Y431561D01*
X1675517Y431561D01*
X1675516Y431562D01*
X1658303Y443063D01*
X1643663Y457703D01*
X1632162Y474916D01*
X1632161Y474917D01*
X1624239Y494044D01*
X1620200Y514348D01*
X1620200Y535052D01*
X1624239Y555356D01*
X1632161Y574483D01*
X1643663Y591697D01*
X1658303Y606337D01*
X1675516Y617838D01*
X1675517Y617839D01*
X1694644Y625761D01*
X1714948Y629800D01*
X1735652Y629800D01*
X1755956Y625761D01*
X1755956Y625761D01*
G37*
G36*
X1105956Y625761D02*
G01*
X1125083Y617839D01*
X1125084Y617838D01*
X1142297Y606337D01*
X1156937Y591697D01*
X1168439Y574483D01*
X1176361Y555356D01*
X1180400Y535052D01*
X1180400Y514348D01*
X1176361Y494044D01*
X1168439Y474917D01*
X1168438Y474916D01*
X1156937Y457703D01*
X1142297Y443063D01*
X1125084Y431562D01*
X1125083Y431561D01*
X1125083Y431561D01*
X1105956Y423639D01*
X1085652Y419600D01*
X1064948Y419600D01*
X1044644Y423639D01*
X1025517Y431561D01*
X1025517Y431561D01*
X1025516Y431562D01*
X1008303Y443063D01*
X993663Y457703D01*
X982162Y474916D01*
X982161Y474917D01*
X974239Y494044D01*
X970200Y514348D01*
X970200Y535052D01*
X974239Y555356D01*
X982161Y574483D01*
X993663Y591697D01*
X1008303Y606337D01*
X1025516Y617838D01*
X1025517Y617839D01*
X1044644Y625761D01*
X1064948Y629800D01*
X1085652Y629800D01*
X1105956Y625761D01*
X1105956Y625761D01*
G37*
G36*
X2905956Y625761D02*
G01*
X2925083Y617839D01*
X2925083Y617838D01*
X2942297Y606337D01*
X2956936Y591697D01*
X2968438Y574483D01*
X2976361Y555356D01*
X2980400Y535052D01*
X2980400Y514348D01*
X2976361Y494044D01*
X2968438Y474917D01*
X2968438Y474916D01*
X2956936Y457703D01*
X2942297Y443063D01*
X2925083Y431562D01*
X2925083Y431561D01*
X2925083Y431561D01*
X2905956Y423639D01*
X2885652Y419600D01*
X2864948Y419600D01*
X2844644Y423639D01*
X2825517Y431561D01*
X2825517Y431561D01*
X2825516Y431562D01*
X2808303Y443063D01*
X2793664Y457703D01*
X2782162Y474916D01*
X2782162Y474917D01*
X2774239Y494044D01*
X2770200Y514348D01*
X2770200Y535052D01*
X2774239Y555356D01*
X2782162Y574483D01*
X2793664Y591697D01*
X2808303Y606337D01*
X2825516Y617838D01*
X2825517Y617839D01*
X2844644Y625761D01*
X2864948Y629800D01*
X2885652Y629800D01*
X2905956Y625761D01*
X2905956Y625761D01*
G37*
G36*
X3555956Y625761D02*
G01*
X3575083Y617839D01*
X3575083Y617838D01*
X3592297Y606337D01*
X3606936Y591697D01*
X3618438Y574483D01*
X3626361Y555356D01*
X3630400Y535052D01*
X3630400Y514348D01*
X3626361Y494044D01*
X3618438Y474917D01*
X3618438Y474916D01*
X3606936Y457703D01*
X3592297Y443063D01*
X3575083Y431562D01*
X3575083Y431561D01*
X3575083Y431561D01*
X3555956Y423639D01*
X3535652Y419600D01*
X3514948Y419600D01*
X3494644Y423639D01*
X3475517Y431561D01*
X3475517Y431561D01*
X3475516Y431562D01*
X3458303Y443063D01*
X3443663Y457703D01*
X3432162Y474916D01*
X3432161Y474917D01*
X3424239Y494044D01*
X3420200Y514348D01*
X3420200Y535052D01*
X3424239Y555356D01*
X3432161Y574483D01*
X3443663Y591697D01*
X3458303Y606337D01*
X3475516Y617838D01*
X3475517Y617839D01*
X3494644Y625761D01*
X3514948Y629800D01*
X3535652Y629800D01*
X3555956Y625761D01*
X3555956Y625761D01*
G37*
G36*
X5355956Y625761D02*
G01*
X5375083Y617839D01*
X5375084Y617838D01*
X5392297Y606337D01*
X5406937Y591697D01*
X5418439Y574483D01*
X5426361Y555356D01*
X5430400Y535052D01*
X5430400Y514348D01*
X5426361Y494044D01*
X5418439Y474917D01*
X5418438Y474916D01*
X5406937Y457703D01*
X5392297Y443063D01*
X5375084Y431562D01*
X5375083Y431561D01*
X5375083Y431561D01*
X5355956Y423639D01*
X5335652Y419600D01*
X5314948Y419600D01*
X5294644Y423639D01*
X5275517Y431561D01*
X5275517Y431561D01*
X5275517Y431562D01*
X5258303Y443063D01*
X5243664Y457703D01*
X5232162Y474916D01*
X5232162Y474917D01*
X5224239Y494044D01*
X5220200Y514348D01*
X5220200Y535052D01*
X5224239Y555356D01*
X5232162Y574483D01*
X5243664Y591697D01*
X5258303Y606337D01*
X5275517Y617838D01*
X5275517Y617839D01*
X5294644Y625761D01*
X5314948Y629800D01*
X5335652Y629800D01*
X5355956Y625761D01*
X5355956Y625761D01*
G37*
G36*
X7887526Y911070D02*
G01*
X7898158Y908955D01*
X7928204Y896510D01*
X7955245Y878441D01*
X7978241Y855445D01*
X7996310Y828404D01*
X8008755Y798358D01*
X8015100Y766461D01*
X8015100Y733939D01*
X8008755Y702042D01*
X7996310Y671996D01*
X7978241Y644955D01*
X7955245Y621959D01*
X7928204Y603890D01*
X7898158Y591445D01*
X7887526Y589330D01*
X7866261Y585100D01*
X7833739Y585100D01*
X7812474Y589330D01*
X7801842Y591445D01*
X7771796Y603890D01*
X7744755Y621959D01*
X7721758Y644955D01*
X7703690Y671996D01*
X7691245Y702042D01*
X7684900Y733939D01*
X7684900Y766461D01*
X7691245Y798358D01*
X7703690Y828404D01*
X7721758Y855445D01*
X7744755Y878441D01*
X7771796Y896510D01*
X7801842Y908955D01*
X7812474Y911070D01*
X7833739Y915300D01*
X7866261Y915300D01*
X7887526Y911070D01*
X7887526Y911070D01*
G37*
G36*
X387526Y911070D02*
G01*
X398158Y908955D01*
X428204Y896510D01*
X455245Y878441D01*
X478241Y855445D01*
X496310Y828404D01*
X508755Y798358D01*
X515100Y766461D01*
X515100Y733939D01*
X508755Y702042D01*
X496310Y671996D01*
X478241Y644955D01*
X455245Y621959D01*
X428204Y603890D01*
X398158Y591445D01*
X387526Y589330D01*
X366261Y585100D01*
X333739Y585100D01*
X312474Y589330D01*
X301842Y591445D01*
X271796Y603890D01*
X244755Y621959D01*
X221758Y644955D01*
X203690Y671996D01*
X191245Y702042D01*
X184900Y733939D01*
X184900Y766461D01*
X191245Y798358D01*
X203690Y828404D01*
X221758Y855445D01*
X244755Y878441D01*
X271796Y896510D01*
X301842Y908955D01*
X312474Y911070D01*
X333739Y915300D01*
X366261Y915300D01*
X387526Y911070D01*
X387526Y911070D01*
G37*
G36*
X1755956Y1075761D02*
G01*
X1775083Y1067839D01*
X1775083Y1067838D01*
X1792297Y1056337D01*
X1806936Y1041697D01*
X1818438Y1024483D01*
X1826361Y1005356D01*
X1830400Y985052D01*
X1830400Y964348D01*
X1826361Y944044D01*
X1818438Y924917D01*
X1818438Y924916D01*
X1806936Y907703D01*
X1792297Y893063D01*
X1775083Y881562D01*
X1775083Y881561D01*
X1775083Y881561D01*
X1755956Y873639D01*
X1735652Y869600D01*
X1714948Y869600D01*
X1694644Y873639D01*
X1675517Y881561D01*
X1675517Y881561D01*
X1675516Y881562D01*
X1658303Y893063D01*
X1643663Y907703D01*
X1632162Y924916D01*
X1632161Y924917D01*
X1624239Y944044D01*
X1620200Y964348D01*
X1620200Y985052D01*
X1624239Y1005356D01*
X1632161Y1024483D01*
X1643663Y1041697D01*
X1658303Y1056337D01*
X1675516Y1067838D01*
X1675517Y1067839D01*
X1694644Y1075761D01*
X1714948Y1079800D01*
X1735652Y1079800D01*
X1755956Y1075761D01*
X1755956Y1075761D01*
G37*
G36*
X7155956Y1075761D02*
G01*
X7175083Y1067839D01*
X7175083Y1067838D01*
X7192297Y1056337D01*
X7206936Y1041697D01*
X7218438Y1024483D01*
X7226361Y1005356D01*
X7230400Y985052D01*
X7230400Y964348D01*
X7226361Y944044D01*
X7218438Y924917D01*
X7218438Y924916D01*
X7206936Y907703D01*
X7192297Y893063D01*
X7175083Y881562D01*
X7175083Y881561D01*
X7175083Y881561D01*
X7155956Y873639D01*
X7135652Y869600D01*
X7114948Y869600D01*
X7094644Y873639D01*
X7075517Y881561D01*
X7075517Y881561D01*
X7075516Y881562D01*
X7058303Y893063D01*
X7043663Y907703D01*
X7032162Y924916D01*
X7032161Y924917D01*
X7024239Y944044D01*
X7020200Y964348D01*
X7020200Y985052D01*
X7024239Y1005356D01*
X7032161Y1024483D01*
X7043663Y1041697D01*
X7058303Y1056337D01*
X7075516Y1067838D01*
X7075517Y1067839D01*
X7094644Y1075761D01*
X7114948Y1079800D01*
X7135652Y1079800D01*
X7155956Y1075761D01*
X7155956Y1075761D01*
G37*
G36*
X6505956Y1075761D02*
G01*
X6525083Y1067839D01*
X6525083Y1067838D01*
X6542297Y1056337D01*
X6556936Y1041697D01*
X6568438Y1024483D01*
X6576361Y1005356D01*
X6580400Y985052D01*
X6580400Y964348D01*
X6576361Y944044D01*
X6568438Y924917D01*
X6568438Y924916D01*
X6556936Y907703D01*
X6542297Y893063D01*
X6525083Y881562D01*
X6525083Y881561D01*
X6525083Y881561D01*
X6505956Y873639D01*
X6485652Y869600D01*
X6464948Y869600D01*
X6444644Y873639D01*
X6425517Y881561D01*
X6425517Y881561D01*
X6425516Y881562D01*
X6408303Y893063D01*
X6393663Y907703D01*
X6382162Y924916D01*
X6382161Y924917D01*
X6374239Y944044D01*
X6370200Y964348D01*
X6370200Y985052D01*
X6374239Y1005356D01*
X6382161Y1024483D01*
X6393663Y1041697D01*
X6408303Y1056337D01*
X6425516Y1067838D01*
X6425517Y1067839D01*
X6444644Y1075761D01*
X6464948Y1079800D01*
X6485652Y1079800D01*
X6505956Y1075761D01*
X6505956Y1075761D01*
G37*
G36*
X4705956Y1075761D02*
G01*
X4725083Y1067839D01*
X4725084Y1067838D01*
X4742297Y1056337D01*
X4756937Y1041697D01*
X4768439Y1024483D01*
X4776361Y1005356D01*
X4780400Y985052D01*
X4780400Y964348D01*
X4776361Y944044D01*
X4768439Y924917D01*
X4768438Y924916D01*
X4756937Y907703D01*
X4742297Y893063D01*
X4725084Y881562D01*
X4725083Y881561D01*
X4725083Y881561D01*
X4705956Y873639D01*
X4685652Y869600D01*
X4664948Y869600D01*
X4644644Y873639D01*
X4625517Y881561D01*
X4625517Y881561D01*
X4625517Y881562D01*
X4608303Y893063D01*
X4593664Y907703D01*
X4582162Y924916D01*
X4582162Y924917D01*
X4574239Y944044D01*
X4570200Y964348D01*
X4570200Y985052D01*
X4574239Y1005356D01*
X4582162Y1024483D01*
X4593664Y1041697D01*
X4608303Y1056337D01*
X4625517Y1067838D01*
X4625517Y1067839D01*
X4644644Y1075761D01*
X4664948Y1079800D01*
X4685652Y1079800D01*
X4705956Y1075761D01*
X4705956Y1075761D01*
G37*
G36*
X5355956Y1075761D02*
G01*
X5375083Y1067839D01*
X5375084Y1067838D01*
X5392297Y1056337D01*
X5406937Y1041697D01*
X5418439Y1024483D01*
X5426361Y1005356D01*
X5430400Y985052D01*
X5430400Y964348D01*
X5426361Y944044D01*
X5418439Y924917D01*
X5418438Y924916D01*
X5406937Y907703D01*
X5392297Y893063D01*
X5375084Y881562D01*
X5375083Y881561D01*
X5375083Y881561D01*
X5355956Y873639D01*
X5335652Y869600D01*
X5314948Y869600D01*
X5294644Y873639D01*
X5275517Y881561D01*
X5275517Y881561D01*
X5275517Y881562D01*
X5258303Y893063D01*
X5243664Y907703D01*
X5232162Y924916D01*
X5232162Y924917D01*
X5224239Y944044D01*
X5220200Y964348D01*
X5220200Y985052D01*
X5224239Y1005356D01*
X5232162Y1024483D01*
X5243664Y1041697D01*
X5258303Y1056337D01*
X5275517Y1067838D01*
X5275517Y1067839D01*
X5294644Y1075761D01*
X5314948Y1079800D01*
X5335652Y1079800D01*
X5355956Y1075761D01*
X5355956Y1075761D01*
G37*
G36*
X3555956Y1075761D02*
G01*
X3575083Y1067839D01*
X3575083Y1067838D01*
X3592297Y1056337D01*
X3606936Y1041697D01*
X3618438Y1024483D01*
X3626361Y1005356D01*
X3630400Y985052D01*
X3630400Y964348D01*
X3626361Y944044D01*
X3618438Y924917D01*
X3618438Y924916D01*
X3606936Y907703D01*
X3592297Y893063D01*
X3575083Y881562D01*
X3575083Y881561D01*
X3575083Y881561D01*
X3555956Y873639D01*
X3535652Y869600D01*
X3514948Y869600D01*
X3494644Y873639D01*
X3475517Y881561D01*
X3475517Y881561D01*
X3475516Y881562D01*
X3458303Y893063D01*
X3443663Y907703D01*
X3432162Y924916D01*
X3432161Y924917D01*
X3424239Y944044D01*
X3420200Y964348D01*
X3420200Y985052D01*
X3424239Y1005356D01*
X3432161Y1024483D01*
X3443663Y1041697D01*
X3458303Y1056337D01*
X3475516Y1067838D01*
X3475517Y1067839D01*
X3494644Y1075761D01*
X3514948Y1079800D01*
X3535652Y1079800D01*
X3555956Y1075761D01*
X3555956Y1075761D01*
G37*
G36*
X2905956Y1075761D02*
G01*
X2925083Y1067839D01*
X2925083Y1067838D01*
X2942297Y1056337D01*
X2956936Y1041697D01*
X2968438Y1024483D01*
X2976361Y1005356D01*
X2980400Y985052D01*
X2980400Y964348D01*
X2976361Y944044D01*
X2968438Y924917D01*
X2968438Y924916D01*
X2956936Y907703D01*
X2942297Y893063D01*
X2925083Y881562D01*
X2925083Y881561D01*
X2925083Y881561D01*
X2905956Y873639D01*
X2885652Y869600D01*
X2864948Y869600D01*
X2844644Y873639D01*
X2825517Y881561D01*
X2825517Y881561D01*
X2825516Y881562D01*
X2808303Y893063D01*
X2793664Y907703D01*
X2782162Y924916D01*
X2782162Y924917D01*
X2774239Y944044D01*
X2770200Y964348D01*
X2770200Y985052D01*
X2774239Y1005356D01*
X2782162Y1024483D01*
X2793664Y1041697D01*
X2808303Y1056337D01*
X2825516Y1067838D01*
X2825517Y1067839D01*
X2844644Y1075761D01*
X2864948Y1079800D01*
X2885652Y1079800D01*
X2905956Y1075761D01*
X2905956Y1075761D01*
G37*
G36*
X1105956Y1075761D02*
G01*
X1125083Y1067839D01*
X1125084Y1067838D01*
X1142297Y1056337D01*
X1156937Y1041697D01*
X1168439Y1024483D01*
X1176361Y1005356D01*
X1180400Y985052D01*
X1180400Y964348D01*
X1176361Y944044D01*
X1168439Y924917D01*
X1168438Y924916D01*
X1156937Y907703D01*
X1142297Y893063D01*
X1125084Y881562D01*
X1125083Y881561D01*
X1125083Y881561D01*
X1105956Y873639D01*
X1085652Y869600D01*
X1064948Y869600D01*
X1044644Y873639D01*
X1025517Y881561D01*
X1025517Y881561D01*
X1025516Y881562D01*
X1008303Y893063D01*
X993663Y907703D01*
X982162Y924916D01*
X982161Y924917D01*
X974239Y944044D01*
X970200Y964348D01*
X970200Y985052D01*
X974239Y1005356D01*
X982161Y1024483D01*
X993663Y1041697D01*
X1008303Y1056337D01*
X1025516Y1067838D01*
X1025517Y1067839D01*
X1044644Y1075761D01*
X1064948Y1079800D01*
X1085652Y1079800D01*
X1105956Y1075761D01*
X1105956Y1075761D01*
G37*
G36*
X7136344Y1411848D02*
G01*
X7142963Y1411196D01*
X7159947Y1406044D01*
X7175599Y1397678D01*
X7179173Y1394745D01*
X7189319Y1386419D01*
X7197645Y1376273D01*
X7200578Y1372699D01*
X7208944Y1357047D01*
X7214096Y1340063D01*
X7215836Y1322400D01*
X7214096Y1304737D01*
X7208944Y1287753D01*
X7200578Y1272101D01*
X7197645Y1268527D01*
X7189319Y1258381D01*
X7179173Y1250055D01*
X7175599Y1247122D01*
X7159947Y1238756D01*
X7142963Y1233604D01*
X7136344Y1232952D01*
X7129726Y1232300D01*
X7120874Y1232300D01*
X7114256Y1232952D01*
X7107637Y1233604D01*
X7090653Y1238756D01*
X7075001Y1247122D01*
X7071427Y1250055D01*
X7061281Y1258381D01*
X7052955Y1268527D01*
X7050022Y1272101D01*
X7041656Y1287753D01*
X7036504Y1304737D01*
X7034764Y1322400D01*
X7036504Y1340063D01*
X7041656Y1357047D01*
X7050022Y1372699D01*
X7052955Y1376273D01*
X7061281Y1386419D01*
X7071427Y1394745D01*
X7075001Y1397678D01*
X7090653Y1406044D01*
X7107637Y1411196D01*
X7114256Y1411848D01*
X7120874Y1412500D01*
X7129726Y1412500D01*
X7136344Y1411848D01*
X7136344Y1411848D01*
G37*
G36*
X6882344Y1411848D02*
G01*
X6888963Y1411196D01*
X6905947Y1406044D01*
X6921599Y1397678D01*
X6925173Y1394745D01*
X6935319Y1386419D01*
X6943645Y1376273D01*
X6946578Y1372699D01*
X6954944Y1357047D01*
X6960096Y1340063D01*
X6961836Y1322400D01*
X6960096Y1304737D01*
X6954944Y1287753D01*
X6946578Y1272101D01*
X6943645Y1268527D01*
X6935319Y1258381D01*
X6925173Y1250055D01*
X6921599Y1247122D01*
X6905947Y1238756D01*
X6888963Y1233604D01*
X6882344Y1232952D01*
X6875726Y1232300D01*
X6866874Y1232300D01*
X6860256Y1232952D01*
X6853637Y1233604D01*
X6836653Y1238756D01*
X6821001Y1247122D01*
X6817427Y1250055D01*
X6807281Y1258381D01*
X6798955Y1268527D01*
X6796022Y1272101D01*
X6787656Y1287753D01*
X6782504Y1304737D01*
X6780764Y1322400D01*
X6782504Y1340063D01*
X6787656Y1357047D01*
X6796022Y1372699D01*
X6798955Y1376273D01*
X6807281Y1386419D01*
X6817427Y1394745D01*
X6821001Y1397678D01*
X6836653Y1406044D01*
X6853637Y1411196D01*
X6860256Y1411848D01*
X6866874Y1412500D01*
X6875726Y1412500D01*
X6882344Y1411848D01*
X6882344Y1411848D01*
G37*
G36*
X6628344Y1411848D02*
G01*
X6634963Y1411196D01*
X6651947Y1406044D01*
X6667599Y1397678D01*
X6671173Y1394745D01*
X6681319Y1386419D01*
X6689645Y1376273D01*
X6692578Y1372699D01*
X6700944Y1357047D01*
X6706096Y1340063D01*
X6707836Y1322400D01*
X6706096Y1304737D01*
X6700944Y1287753D01*
X6692578Y1272101D01*
X6689645Y1268527D01*
X6681319Y1258381D01*
X6671173Y1250055D01*
X6667599Y1247122D01*
X6651947Y1238756D01*
X6634963Y1233604D01*
X6628344Y1232952D01*
X6621726Y1232300D01*
X6612874Y1232300D01*
X6606256Y1232952D01*
X6599637Y1233604D01*
X6582653Y1238756D01*
X6567001Y1247122D01*
X6563427Y1250055D01*
X6553281Y1258381D01*
X6544955Y1268527D01*
X6542022Y1272101D01*
X6533656Y1287753D01*
X6528504Y1304737D01*
X6526764Y1322400D01*
X6528504Y1340063D01*
X6533656Y1357047D01*
X6542022Y1372699D01*
X6544955Y1376273D01*
X6553281Y1386419D01*
X6563427Y1394745D01*
X6567001Y1397678D01*
X6582653Y1406044D01*
X6599637Y1411196D01*
X6606256Y1411848D01*
X6612874Y1412500D01*
X6621726Y1412500D01*
X6628344Y1411848D01*
X6628344Y1411848D01*
G37*
G36*
X6374344Y1411848D02*
G01*
X6380963Y1411196D01*
X6397947Y1406044D01*
X6413599Y1397678D01*
X6417173Y1394745D01*
X6427319Y1386419D01*
X6435645Y1376273D01*
X6438578Y1372699D01*
X6446944Y1357047D01*
X6452096Y1340063D01*
X6453836Y1322400D01*
X6452096Y1304737D01*
X6446944Y1287753D01*
X6438578Y1272101D01*
X6435645Y1268527D01*
X6427319Y1258381D01*
X6417173Y1250055D01*
X6413599Y1247122D01*
X6397947Y1238756D01*
X6380963Y1233604D01*
X6374344Y1232952D01*
X6367726Y1232300D01*
X6358874Y1232300D01*
X6352256Y1232952D01*
X6345637Y1233604D01*
X6328653Y1238756D01*
X6313001Y1247122D01*
X6309427Y1250055D01*
X6299281Y1258381D01*
X6290955Y1268527D01*
X6288022Y1272101D01*
X6279656Y1287753D01*
X6274504Y1304737D01*
X6272764Y1322400D01*
X6274504Y1340063D01*
X6279656Y1357047D01*
X6288022Y1372699D01*
X6290955Y1376273D01*
X6299281Y1386419D01*
X6309427Y1394745D01*
X6313001Y1397678D01*
X6328653Y1406044D01*
X6345637Y1411196D01*
X6352256Y1411848D01*
X6358874Y1412500D01*
X6367726Y1412500D01*
X6374344Y1411848D01*
X6374344Y1411848D01*
G37*
G36*
X6120344Y1411848D02*
G01*
X6126963Y1411196D01*
X6143947Y1406044D01*
X6159599Y1397678D01*
X6163173Y1394745D01*
X6173319Y1386419D01*
X6181645Y1376273D01*
X6184578Y1372699D01*
X6192944Y1357047D01*
X6198096Y1340063D01*
X6199836Y1322400D01*
X6198096Y1304737D01*
X6192944Y1287753D01*
X6184578Y1272101D01*
X6181645Y1268527D01*
X6173319Y1258381D01*
X6163173Y1250055D01*
X6159599Y1247122D01*
X6143947Y1238756D01*
X6126963Y1233604D01*
X6120344Y1232952D01*
X6113726Y1232300D01*
X6104874Y1232300D01*
X6098256Y1232952D01*
X6091637Y1233604D01*
X6074653Y1238756D01*
X6059001Y1247122D01*
X6055427Y1250055D01*
X6045281Y1258381D01*
X6036955Y1268527D01*
X6034022Y1272101D01*
X6025656Y1287753D01*
X6020504Y1304737D01*
X6018764Y1322400D01*
X6020504Y1340063D01*
X6025656Y1357047D01*
X6034022Y1372699D01*
X6036955Y1376273D01*
X6045281Y1386419D01*
X6055427Y1394745D01*
X6059001Y1397678D01*
X6074653Y1406044D01*
X6091637Y1411196D01*
X6098256Y1411848D01*
X6104874Y1412500D01*
X6113726Y1412500D01*
X6120344Y1411848D01*
X6120344Y1411848D01*
G37*
G36*
X5945400Y1232300D02*
G01*
X5765200Y1232300D01*
X5765200Y1412500D01*
X5945400Y1412500D01*
X5945400Y1232300D01*
X5945400Y1232300D01*
G37*
M02*
