G04 #@! TF.GenerationSoftware,KiCad,Pcbnew,(5.1.0)-1*
G04 #@! TF.CreationDate,2022-02-25T22:55:27-08:00*
G04 #@! TF.ProjectId,BTNPAD_TYPE_A,42544e50-4144-45f5-9459-50455f412e6b,rev?*
G04 #@! TF.SameCoordinates,PX7541940PY6316b30*
G04 #@! TF.FileFunction,Legend,Top*
G04 #@! TF.FilePolarity,Positive*
%FSLAX45Y45*%
G04 Gerber Fmt 4.5, Leading zero omitted, Abs format (unit mm)*
G04 Created by KiCad (PCBNEW (5.1.0)-1) date 2022-02-25 22:55:27*
%MOMM*%
%LPD*%
G04 APERTURE LIST*
%ADD10C,0.120000*%
%ADD11C,0.150000*%
%ADD12C,3.302000*%
%ADD13R,1.802000X1.802000*%
%ADD14O,1.802000X1.802000*%
%ADD15C,1.702000*%
%ADD16O,1.702000X1.702000*%
%ADD17C,2.102000*%
G04 APERTURE END LIST*
D10*
X7258300Y1189400D02*
X7258300Y1455400D01*
X5982300Y1189400D02*
X7258300Y1189400D01*
X5982300Y1455400D02*
X7258300Y1455400D01*
X5982300Y1189400D02*
X5982300Y1455400D01*
X5855300Y1189400D02*
X5722300Y1189400D01*
X5722300Y1189400D02*
X5722300Y1322400D01*
X1072300Y294200D02*
X1072300Y327200D01*
X1072300Y327200D02*
X1726300Y327200D01*
X1726300Y327200D02*
X1726300Y294200D01*
X1072300Y86200D02*
X1072300Y53200D01*
X1072300Y53200D02*
X1726300Y53200D01*
X1726300Y53200D02*
X1726300Y86200D01*
X3526300Y53200D02*
X3526300Y86200D01*
X2872300Y53200D02*
X3526300Y53200D01*
X2872300Y86200D02*
X2872300Y53200D01*
X3526300Y327200D02*
X3526300Y294200D01*
X2872300Y327200D02*
X3526300Y327200D01*
X2872300Y294200D02*
X2872300Y327200D01*
X4672300Y294200D02*
X4672300Y327200D01*
X4672300Y327200D02*
X5326300Y327200D01*
X5326300Y327200D02*
X5326300Y294200D01*
X4672300Y86200D02*
X4672300Y53200D01*
X4672300Y53200D02*
X5326300Y53200D01*
X5326300Y53200D02*
X5326300Y86200D01*
X7126300Y53200D02*
X7126300Y86200D01*
X6472300Y53200D02*
X7126300Y53200D01*
X6472300Y86200D02*
X6472300Y53200D01*
X7126300Y327200D02*
X7126300Y294200D01*
X6472300Y327200D02*
X7126300Y327200D01*
X6472300Y294200D02*
X6472300Y327200D01*
X1750300Y674700D02*
X1750300Y824700D01*
X1625300Y1074700D02*
X1175300Y1074700D01*
X1050300Y824700D02*
X1050300Y674700D01*
X1175300Y424700D02*
X1625300Y424700D01*
X2975300Y424700D02*
X3425300Y424700D01*
X2850300Y824700D02*
X2850300Y674700D01*
X3425300Y1074700D02*
X2975300Y1074700D01*
X3550300Y674700D02*
X3550300Y824700D01*
X5350300Y674700D02*
X5350300Y824700D01*
X5225300Y1074700D02*
X4775300Y1074700D01*
X4650300Y824700D02*
X4650300Y674700D01*
X4775300Y424700D02*
X5225300Y424700D01*
X6575300Y424700D02*
X7025300Y424700D01*
X6450300Y824700D02*
X6450300Y674700D01*
X7025300Y1074700D02*
X6575300Y1074700D01*
X7150300Y674700D02*
X7150300Y824700D01*
D11*
X1382633Y144962D02*
X1349300Y192581D01*
X1325490Y144962D02*
X1325490Y244962D01*
X1363586Y244962D01*
X1373110Y240200D01*
X1377871Y235438D01*
X1382633Y225914D01*
X1382633Y211629D01*
X1377871Y202105D01*
X1373110Y197343D01*
X1363586Y192581D01*
X1325490Y192581D01*
X1477871Y144962D02*
X1420728Y144962D01*
X1449300Y144962D02*
X1449300Y244962D01*
X1439776Y230676D01*
X1430252Y221152D01*
X1420728Y216390D01*
X3182633Y132262D02*
X3149300Y179881D01*
X3125490Y132262D02*
X3125490Y232262D01*
X3163586Y232262D01*
X3173109Y227500D01*
X3177871Y222738D01*
X3182633Y213214D01*
X3182633Y198929D01*
X3177871Y189405D01*
X3173109Y184643D01*
X3163586Y179881D01*
X3125490Y179881D01*
X3220728Y222738D02*
X3225490Y227500D01*
X3235014Y232262D01*
X3258824Y232262D01*
X3268348Y227500D01*
X3273109Y222738D01*
X3277871Y213214D01*
X3277871Y203690D01*
X3273109Y189405D01*
X3215967Y132262D01*
X3277871Y132262D01*
X4987713Y134802D02*
X4954380Y182421D01*
X4930570Y134802D02*
X4930570Y234802D01*
X4968666Y234802D01*
X4978190Y230040D01*
X4982951Y225278D01*
X4987713Y215754D01*
X4987713Y201469D01*
X4982951Y191945D01*
X4978190Y187183D01*
X4968666Y182421D01*
X4930570Y182421D01*
X5021047Y234802D02*
X5082951Y234802D01*
X5049618Y196707D01*
X5063904Y196707D01*
X5073428Y191945D01*
X5078190Y187183D01*
X5082951Y177659D01*
X5082951Y153850D01*
X5078190Y144326D01*
X5073428Y139564D01*
X5063904Y134802D01*
X5035332Y134802D01*
X5025809Y139564D01*
X5021047Y144326D01*
X6782633Y139882D02*
X6749300Y187501D01*
X6725490Y139882D02*
X6725490Y239882D01*
X6763586Y239882D01*
X6773109Y235120D01*
X6777871Y230358D01*
X6782633Y220834D01*
X6782633Y206549D01*
X6777871Y197025D01*
X6773109Y192263D01*
X6763586Y187501D01*
X6725490Y187501D01*
X6868348Y206549D02*
X6868348Y139882D01*
X6844538Y244644D02*
X6820728Y173215D01*
X6882633Y173215D01*
X902476Y630267D02*
X907238Y644552D01*
X907238Y668362D01*
X902476Y677886D01*
X897714Y682648D01*
X888190Y687410D01*
X878667Y687410D01*
X869143Y682648D01*
X864381Y677886D01*
X859619Y668362D01*
X854857Y649314D01*
X850095Y639791D01*
X845333Y635029D01*
X835809Y630267D01*
X826286Y630267D01*
X816762Y635029D01*
X812000Y639791D01*
X807238Y649314D01*
X807238Y673124D01*
X812000Y687410D01*
X807238Y720743D02*
X907238Y744552D01*
X835809Y763600D01*
X907238Y782648D01*
X807238Y806457D01*
X907238Y896933D02*
X907238Y839790D01*
X907238Y868362D02*
X807238Y868362D01*
X821524Y858838D01*
X831048Y849314D01*
X835809Y839790D01*
X2680476Y604867D02*
X2685238Y619152D01*
X2685238Y642962D01*
X2680476Y652486D01*
X2675714Y657248D01*
X2666190Y662010D01*
X2656667Y662010D01*
X2647143Y657248D01*
X2642381Y652486D01*
X2637619Y642962D01*
X2632857Y623914D01*
X2628095Y614391D01*
X2623333Y609629D01*
X2613810Y604867D01*
X2604286Y604867D01*
X2594762Y609629D01*
X2590000Y614391D01*
X2585238Y623914D01*
X2585238Y647724D01*
X2590000Y662010D01*
X2585238Y695343D02*
X2685238Y719152D01*
X2613810Y738200D01*
X2685238Y757248D01*
X2585238Y781057D01*
X2594762Y814390D02*
X2590000Y819152D01*
X2585238Y828676D01*
X2585238Y852486D01*
X2590000Y862010D01*
X2594762Y866771D01*
X2604286Y871533D01*
X2613810Y871533D01*
X2628095Y866771D01*
X2685238Y809629D01*
X2685238Y871533D01*
X4483876Y604867D02*
X4488638Y619152D01*
X4488638Y642962D01*
X4483876Y652486D01*
X4479114Y657248D01*
X4469590Y662010D01*
X4460067Y662010D01*
X4450543Y657248D01*
X4445781Y652486D01*
X4441019Y642962D01*
X4436257Y623914D01*
X4431495Y614391D01*
X4426733Y609629D01*
X4417210Y604867D01*
X4407686Y604867D01*
X4398162Y609629D01*
X4393400Y614391D01*
X4388638Y623914D01*
X4388638Y647724D01*
X4393400Y662010D01*
X4388638Y695343D02*
X4488638Y719152D01*
X4417210Y738200D01*
X4488638Y757248D01*
X4388638Y781057D01*
X4388638Y809629D02*
X4388638Y871533D01*
X4426733Y838200D01*
X4426733Y852486D01*
X4431495Y862010D01*
X4436257Y866771D01*
X4445781Y871533D01*
X4469590Y871533D01*
X4479114Y866771D01*
X4483876Y862010D01*
X4488638Y852486D01*
X4488638Y823914D01*
X4483876Y814390D01*
X4479114Y809629D01*
X6287276Y604867D02*
X6292038Y619152D01*
X6292038Y642962D01*
X6287276Y652486D01*
X6282514Y657248D01*
X6272990Y662010D01*
X6263467Y662010D01*
X6253943Y657248D01*
X6249181Y652486D01*
X6244419Y642962D01*
X6239657Y623914D01*
X6234895Y614391D01*
X6230133Y609629D01*
X6220609Y604867D01*
X6211086Y604867D01*
X6201562Y609629D01*
X6196800Y614391D01*
X6192038Y623914D01*
X6192038Y647724D01*
X6196800Y662010D01*
X6192038Y695343D02*
X6292038Y719152D01*
X6220609Y738200D01*
X6292038Y757248D01*
X6192038Y781057D01*
X6225371Y862010D02*
X6292038Y862010D01*
X6187276Y838200D02*
X6258705Y814390D01*
X6258705Y876295D01*
%LPC*%
D12*
X7850000Y750200D03*
X350000Y750200D03*
D13*
X5855300Y1322400D03*
D14*
X6109300Y1322400D03*
X6363300Y1322400D03*
X6617300Y1322400D03*
X6871300Y1322400D03*
X7125300Y1322400D03*
D15*
X1018300Y190200D03*
D16*
X1780300Y190200D03*
X3580300Y190200D03*
D15*
X2818300Y190200D03*
X4618300Y190200D03*
D16*
X5380300Y190200D03*
X7180300Y190200D03*
D15*
X6418300Y190200D03*
D17*
X1725300Y974700D03*
X1725300Y524700D03*
X1075300Y974700D03*
X1075300Y524700D03*
X2875300Y524700D03*
X2875300Y974700D03*
X3525300Y524700D03*
X3525300Y974700D03*
X5325300Y974700D03*
X5325300Y524700D03*
X4675300Y974700D03*
X4675300Y524700D03*
X6475300Y524700D03*
X6475300Y974700D03*
X7125300Y524700D03*
X7125300Y974700D03*
M02*
