G04 #@! TF.GenerationSoftware,KiCad,Pcbnew,(5.1.0)-1*
G04 #@! TF.CreationDate,2022-02-25T22:55:27-08:00*
G04 #@! TF.ProjectId,BTNPAD_TYPE_A,42544e50-4144-45f5-9459-50455f412e6b,rev?*
G04 #@! TF.SameCoordinates,PX7541940PY6316b30*
G04 #@! TF.FileFunction,Copper,L1,Top*
G04 #@! TF.FilePolarity,Positive*
%FSLAX45Y45*%
G04 Gerber Fmt 4.5, Leading zero omitted, Abs format (unit mm)*
G04 Created by KiCad (PCBNEW (5.1.0)-1) date 2022-02-25 22:55:27*
%MOMM*%
%LPD*%
G04 APERTURE LIST*
%ADD10R,1.700000X1.700000*%
%ADD11O,1.700000X1.700000*%
%ADD12C,1.600000*%
%ADD13O,1.600000X1.600000*%
%ADD14C,2.000000*%
%ADD15C,1.000000*%
%ADD16C,0.500000*%
G04 APERTURE END LIST*
D10*
X5855300Y1322400D03*
D11*
X6109300Y1322400D03*
X6363300Y1322400D03*
X6617300Y1322400D03*
X6871300Y1322400D03*
X7125300Y1322400D03*
D12*
X1018300Y190200D03*
D13*
X1780300Y190200D03*
X3580300Y190200D03*
D12*
X2818300Y190200D03*
X4618300Y190200D03*
D13*
X5380300Y190200D03*
X7180300Y190200D03*
D12*
X6418300Y190200D03*
D14*
X1725300Y974700D03*
X1725300Y524700D03*
X1075300Y974700D03*
X1075300Y524700D03*
X2875300Y524700D03*
X2875300Y974700D03*
X3525300Y524700D03*
X3525300Y974700D03*
X5325300Y974700D03*
X5325300Y524700D03*
X4675300Y974700D03*
X4675300Y524700D03*
X6475300Y524700D03*
X6475300Y974700D03*
X7125300Y524700D03*
X7125300Y974700D03*
D15*
X6871300Y773300D03*
D16*
X1018300Y190200D02*
X1018300Y310300D01*
X1018300Y310300D02*
X1039800Y331800D01*
X6418300Y190200D02*
X6418300Y325500D01*
X4618300Y190200D02*
X4618300Y328900D01*
X2818300Y190200D02*
X2818300Y331300D01*
X6729400Y331800D02*
X1039800Y331800D01*
X6871300Y473700D02*
X6729400Y331800D01*
X6871300Y773300D02*
X6871300Y473700D01*
X1075300Y974700D02*
X7125300Y974700D01*
X7125300Y1322400D02*
X7125300Y974700D01*
M02*
