M48
; DRILL file {KiCad (5.1.0)-1} date 2/25/2022 10:55:34 PM
; FORMAT={-:-/ absolute / metric / decimal}
; #@! TF.CreationDate,2022-02-25T22:55:34-08:00
; #@! TF.GenerationSoftware,Kicad,Pcbnew,(5.1.0)-1
; #@! TF.FileFunction,Plated,1,2,PTH
FMAT,2
METRIC
T1C0.500
T2C0.800
T3C1.000
T4C1.100
%
G90
G05
T1
X68.713Y7.733
T2
X46.183Y1.902
X53.803Y1.902
X28.183Y1.902
X35.803Y1.902
X10.183Y1.902
X17.803Y1.902
X64.183Y1.902
X71.803Y1.902
T3
X58.553Y13.224
X61.093Y13.224
X63.633Y13.224
X66.173Y13.224
X68.713Y13.224
X71.253Y13.224
T4
X46.753Y9.747
X46.753Y5.247
X53.253Y9.747
X53.253Y5.247
X10.753Y9.747
X10.753Y5.247
X17.253Y9.747
X17.253Y5.247
X64.753Y9.747
X64.753Y5.247
X71.253Y9.747
X71.253Y5.247
X28.753Y9.747
X28.753Y5.247
X35.253Y9.747
X35.253Y5.247
T0
M30
