G04 #@! TF.GenerationSoftware,KiCad,Pcbnew,(5.1.0)-1*
G04 #@! TF.CreationDate,2022-02-25T22:57:02-08:00*
G04 #@! TF.ProjectId,BTNPAD_TYPE_B,42544e50-4144-45f5-9459-50455f422e6b,rev?*
G04 #@! TF.SameCoordinates,PX7541940PY6316b30*
G04 #@! TF.FileFunction,Soldermask,Top*
G04 #@! TF.FilePolarity,Negative*
%FSLAX45Y45*%
G04 Gerber Fmt 4.5, Leading zero omitted, Abs format (unit mm)*
G04 Created by KiCad (PCBNEW (5.1.0)-1) date 2022-02-25 22:57:02*
%MOMM*%
%LPD*%
G04 APERTURE LIST*
%ADD10C,0.100000*%
G04 APERTURE END LIST*
D10*
G36*
X6949167Y425653D02*
G01*
X6952937Y424510D01*
X6956410Y422653D01*
X6959455Y420155D01*
X6961953Y417110D01*
X6963810Y413637D01*
X6964953Y409867D01*
X6965400Y405334D01*
X6965400Y296666D01*
X6964953Y292133D01*
X6963810Y288363D01*
X6961953Y284890D01*
X6959455Y281845D01*
X6956410Y279347D01*
X6952937Y277490D01*
X6949167Y276347D01*
X6944634Y275900D01*
X6860966Y275900D01*
X6856433Y276347D01*
X6852663Y277490D01*
X6849190Y279347D01*
X6846145Y281845D01*
X6843647Y284890D01*
X6841790Y288363D01*
X6840646Y292133D01*
X6840200Y296666D01*
X6840200Y405334D01*
X6840646Y409867D01*
X6841790Y413637D01*
X6843647Y417110D01*
X6846145Y420155D01*
X6849190Y422653D01*
X6852663Y424510D01*
X6856433Y425653D01*
X6860966Y426100D01*
X6944634Y426100D01*
X6949167Y425653D01*
X6949167Y425653D01*
G37*
G36*
X6744167Y425653D02*
G01*
X6747937Y424510D01*
X6751410Y422653D01*
X6754455Y420155D01*
X6756953Y417110D01*
X6758810Y413637D01*
X6759953Y409867D01*
X6760400Y405334D01*
X6760400Y296666D01*
X6759953Y292133D01*
X6758810Y288363D01*
X6756953Y284890D01*
X6754455Y281845D01*
X6751410Y279347D01*
X6747937Y277490D01*
X6744167Y276347D01*
X6739634Y275900D01*
X6655966Y275900D01*
X6651433Y276347D01*
X6647663Y277490D01*
X6644190Y279347D01*
X6641145Y281845D01*
X6638647Y284890D01*
X6636790Y288363D01*
X6635646Y292133D01*
X6635200Y296666D01*
X6635200Y405334D01*
X6635646Y409867D01*
X6636790Y413637D01*
X6638647Y417110D01*
X6641145Y420155D01*
X6644190Y422653D01*
X6647663Y424510D01*
X6651433Y425653D01*
X6655966Y426100D01*
X6739634Y426100D01*
X6744167Y425653D01*
X6744167Y425653D01*
G37*
G36*
X5149167Y425653D02*
G01*
X5152937Y424510D01*
X5156410Y422653D01*
X5159455Y420155D01*
X5161953Y417110D01*
X5163810Y413637D01*
X5164954Y409867D01*
X5165400Y405334D01*
X5165400Y296666D01*
X5164954Y292133D01*
X5163810Y288363D01*
X5161953Y284890D01*
X5159455Y281845D01*
X5156410Y279347D01*
X5152937Y277490D01*
X5149167Y276347D01*
X5144634Y275900D01*
X5060966Y275900D01*
X5056433Y276347D01*
X5052663Y277490D01*
X5049190Y279347D01*
X5046145Y281845D01*
X5043647Y284890D01*
X5041790Y288363D01*
X5040647Y292133D01*
X5040200Y296666D01*
X5040200Y405334D01*
X5040647Y409867D01*
X5041790Y413637D01*
X5043647Y417110D01*
X5046145Y420155D01*
X5049190Y422653D01*
X5052663Y424510D01*
X5056433Y425653D01*
X5060966Y426100D01*
X5144634Y426100D01*
X5149167Y425653D01*
X5149167Y425653D01*
G37*
G36*
X4944167Y425653D02*
G01*
X4947937Y424510D01*
X4951410Y422653D01*
X4954455Y420155D01*
X4956953Y417110D01*
X4958810Y413637D01*
X4959954Y409867D01*
X4960400Y405334D01*
X4960400Y296666D01*
X4959954Y292133D01*
X4958810Y288363D01*
X4956953Y284890D01*
X4954455Y281845D01*
X4951410Y279347D01*
X4947937Y277490D01*
X4944167Y276347D01*
X4939634Y275900D01*
X4855966Y275900D01*
X4851433Y276347D01*
X4847663Y277490D01*
X4844190Y279347D01*
X4841145Y281845D01*
X4838647Y284890D01*
X4836790Y288363D01*
X4835647Y292133D01*
X4835200Y296666D01*
X4835200Y405334D01*
X4835647Y409867D01*
X4836790Y413637D01*
X4838647Y417110D01*
X4841145Y420155D01*
X4844190Y422653D01*
X4847663Y424510D01*
X4851433Y425653D01*
X4855966Y426100D01*
X4939634Y426100D01*
X4944167Y425653D01*
X4944167Y425653D01*
G37*
G36*
X3349167Y425653D02*
G01*
X3352937Y424510D01*
X3356410Y422653D01*
X3359455Y420155D01*
X3361953Y417110D01*
X3363810Y413637D01*
X3364953Y409867D01*
X3365400Y405334D01*
X3365400Y296666D01*
X3364953Y292133D01*
X3363810Y288363D01*
X3361953Y284890D01*
X3359455Y281845D01*
X3356410Y279347D01*
X3352937Y277490D01*
X3349167Y276347D01*
X3344634Y275900D01*
X3260966Y275900D01*
X3256433Y276347D01*
X3252663Y277490D01*
X3249190Y279347D01*
X3246145Y281845D01*
X3243647Y284890D01*
X3241790Y288363D01*
X3240646Y292133D01*
X3240200Y296666D01*
X3240200Y405334D01*
X3240646Y409867D01*
X3241790Y413637D01*
X3243647Y417110D01*
X3246145Y420155D01*
X3249190Y422653D01*
X3252663Y424510D01*
X3256433Y425653D01*
X3260966Y426100D01*
X3344634Y426100D01*
X3349167Y425653D01*
X3349167Y425653D01*
G37*
G36*
X1344167Y425653D02*
G01*
X1347937Y424510D01*
X1351410Y422653D01*
X1354455Y420155D01*
X1356953Y417110D01*
X1358810Y413637D01*
X1359954Y409867D01*
X1360400Y405334D01*
X1360400Y296666D01*
X1359954Y292133D01*
X1358810Y288363D01*
X1356953Y284890D01*
X1354455Y281845D01*
X1351410Y279347D01*
X1347937Y277490D01*
X1344167Y276347D01*
X1339634Y275900D01*
X1255966Y275900D01*
X1251433Y276347D01*
X1247663Y277490D01*
X1244190Y279347D01*
X1241145Y281845D01*
X1238647Y284890D01*
X1236790Y288363D01*
X1235647Y292133D01*
X1235200Y296666D01*
X1235200Y405334D01*
X1235647Y409867D01*
X1236790Y413637D01*
X1238647Y417110D01*
X1241145Y420155D01*
X1244190Y422653D01*
X1247663Y424510D01*
X1251433Y425653D01*
X1255966Y426100D01*
X1339634Y426100D01*
X1344167Y425653D01*
X1344167Y425653D01*
G37*
G36*
X1549167Y425653D02*
G01*
X1552937Y424510D01*
X1556410Y422653D01*
X1559455Y420155D01*
X1561953Y417110D01*
X1563810Y413637D01*
X1564953Y409867D01*
X1565400Y405334D01*
X1565400Y296666D01*
X1564953Y292133D01*
X1563810Y288363D01*
X1561953Y284890D01*
X1559455Y281845D01*
X1556410Y279347D01*
X1552937Y277490D01*
X1549167Y276347D01*
X1544634Y275900D01*
X1460966Y275900D01*
X1456433Y276347D01*
X1452663Y277490D01*
X1449190Y279347D01*
X1446145Y281845D01*
X1443647Y284890D01*
X1441790Y288363D01*
X1440646Y292133D01*
X1440200Y296666D01*
X1440200Y405334D01*
X1440646Y409867D01*
X1441790Y413637D01*
X1443647Y417110D01*
X1446145Y420155D01*
X1449190Y422653D01*
X1452663Y424510D01*
X1456433Y425653D01*
X1460966Y426100D01*
X1544634Y426100D01*
X1549167Y425653D01*
X1549167Y425653D01*
G37*
G36*
X3144167Y425653D02*
G01*
X3147937Y424510D01*
X3151410Y422653D01*
X3154455Y420155D01*
X3156953Y417110D01*
X3158810Y413637D01*
X3159953Y409867D01*
X3160400Y405334D01*
X3160400Y296666D01*
X3159953Y292133D01*
X3158810Y288363D01*
X3156953Y284890D01*
X3154455Y281845D01*
X3151410Y279347D01*
X3147937Y277490D01*
X3144167Y276347D01*
X3139634Y275900D01*
X3055966Y275900D01*
X3051433Y276347D01*
X3047663Y277490D01*
X3044190Y279347D01*
X3041145Y281845D01*
X3038647Y284890D01*
X3036790Y288363D01*
X3035646Y292133D01*
X3035200Y296666D01*
X3035200Y405334D01*
X3035646Y409867D01*
X3036790Y413637D01*
X3038647Y417110D01*
X3041145Y420155D01*
X3044190Y422653D01*
X3047663Y424510D01*
X3051433Y425653D01*
X3055966Y426100D01*
X3139634Y426100D01*
X3144167Y425653D01*
X3144167Y425653D01*
G37*
G36*
X4190756Y550382D02*
G01*
X4194248Y549323D01*
X4197466Y547602D01*
X4200287Y545287D01*
X4202602Y542466D01*
X4204323Y539248D01*
X4205382Y535756D01*
X4205800Y531511D01*
X4205800Y417389D01*
X4205382Y413144D01*
X4204323Y409652D01*
X4202602Y406434D01*
X4200287Y403613D01*
X4197466Y401298D01*
X4194248Y399577D01*
X4190756Y398518D01*
X4186510Y398100D01*
X4039889Y398100D01*
X4035644Y398518D01*
X4032152Y399577D01*
X4028934Y401298D01*
X4026113Y403613D01*
X4023798Y406434D01*
X4022077Y409652D01*
X4021018Y413144D01*
X4020600Y417389D01*
X4020600Y531511D01*
X4021018Y535756D01*
X4022077Y539248D01*
X4023798Y542466D01*
X4026113Y545287D01*
X4028934Y547602D01*
X4032152Y549323D01*
X4035644Y550382D01*
X4039889Y550800D01*
X4186510Y550800D01*
X4190756Y550382D01*
X4190756Y550382D01*
G37*
G36*
X3911356Y550382D02*
G01*
X3914848Y549323D01*
X3918066Y547602D01*
X3920887Y545287D01*
X3923202Y542466D01*
X3924923Y539248D01*
X3925982Y535756D01*
X3926400Y531511D01*
X3926400Y417389D01*
X3925982Y413144D01*
X3924923Y409652D01*
X3923202Y406434D01*
X3920887Y403613D01*
X3918066Y401298D01*
X3914848Y399577D01*
X3911356Y398518D01*
X3907110Y398100D01*
X3760489Y398100D01*
X3756244Y398518D01*
X3752752Y399577D01*
X3749534Y401298D01*
X3746713Y403613D01*
X3744398Y406434D01*
X3742677Y409652D01*
X3741618Y413144D01*
X3741200Y417389D01*
X3741200Y531511D01*
X3741618Y535756D01*
X3742677Y539248D01*
X3744398Y542466D01*
X3746713Y545287D01*
X3749534Y547602D01*
X3752752Y549323D01*
X3756244Y550382D01*
X3760489Y550800D01*
X3907110Y550800D01*
X3911356Y550382D01*
X3911356Y550382D01*
G37*
G36*
X6294167Y534854D02*
G01*
X6297937Y533710D01*
X6301410Y531853D01*
X6304455Y529355D01*
X6306953Y526310D01*
X6308810Y522837D01*
X6309953Y519067D01*
X6310400Y514534D01*
X6310400Y430866D01*
X6309953Y426333D01*
X6308810Y422563D01*
X6306953Y419090D01*
X6304455Y416045D01*
X6301410Y413547D01*
X6297937Y411690D01*
X6294167Y410546D01*
X6289634Y410100D01*
X6180966Y410100D01*
X6176433Y410546D01*
X6172663Y411690D01*
X6169190Y413547D01*
X6166145Y416045D01*
X6163647Y419090D01*
X6161790Y422563D01*
X6160646Y426333D01*
X6160200Y430866D01*
X6160200Y514534D01*
X6160646Y519067D01*
X6161790Y522837D01*
X6163647Y526310D01*
X6166145Y529355D01*
X6169190Y531853D01*
X6172663Y533710D01*
X6176433Y534854D01*
X6180966Y535300D01*
X6289634Y535300D01*
X6294167Y534854D01*
X6294167Y534854D01*
G37*
G36*
X4494167Y534854D02*
G01*
X4497937Y533710D01*
X4501410Y531853D01*
X4504455Y529355D01*
X4506953Y526310D01*
X4508810Y522837D01*
X4509954Y519067D01*
X4510400Y514534D01*
X4510400Y430866D01*
X4509954Y426333D01*
X4508810Y422563D01*
X4506953Y419090D01*
X4504455Y416045D01*
X4501410Y413547D01*
X4497937Y411690D01*
X4494167Y410546D01*
X4489634Y410100D01*
X4380966Y410100D01*
X4376433Y410546D01*
X4372663Y411690D01*
X4369190Y413547D01*
X4366145Y416045D01*
X4363647Y419090D01*
X4361790Y422563D01*
X4360647Y426333D01*
X4360200Y430866D01*
X4360200Y514534D01*
X4360647Y519067D01*
X4361790Y522837D01*
X4363647Y526310D01*
X4366145Y529355D01*
X4369190Y531853D01*
X4372663Y533710D01*
X4376433Y534854D01*
X4380966Y535300D01*
X4489634Y535300D01*
X4494167Y534854D01*
X4494167Y534854D01*
G37*
G36*
X2694167Y534854D02*
G01*
X2697937Y533710D01*
X2701410Y531853D01*
X2704455Y529355D01*
X2706953Y526310D01*
X2708810Y522837D01*
X2709954Y519067D01*
X2710400Y514534D01*
X2710400Y430866D01*
X2709954Y426333D01*
X2708810Y422563D01*
X2706953Y419090D01*
X2704455Y416045D01*
X2701410Y413547D01*
X2697937Y411690D01*
X2694167Y410546D01*
X2689634Y410100D01*
X2580966Y410100D01*
X2576433Y410546D01*
X2572663Y411690D01*
X2569190Y413547D01*
X2566145Y416045D01*
X2563647Y419090D01*
X2561790Y422563D01*
X2560647Y426333D01*
X2560200Y430866D01*
X2560200Y514534D01*
X2560647Y519067D01*
X2561790Y522837D01*
X2563647Y526310D01*
X2566145Y529355D01*
X2569190Y531853D01*
X2572663Y533710D01*
X2576433Y534854D01*
X2580966Y535300D01*
X2689634Y535300D01*
X2694167Y534854D01*
X2694167Y534854D01*
G37*
G36*
X894167Y534854D02*
G01*
X897937Y533710D01*
X901410Y531853D01*
X904455Y529355D01*
X906953Y526310D01*
X908810Y522837D01*
X909953Y519067D01*
X910400Y514534D01*
X910400Y430866D01*
X909953Y426333D01*
X908810Y422563D01*
X906953Y419090D01*
X904455Y416045D01*
X901410Y413547D01*
X897937Y411690D01*
X894167Y410546D01*
X889634Y410100D01*
X780966Y410100D01*
X776433Y410546D01*
X772663Y411690D01*
X769190Y413547D01*
X766145Y416045D01*
X763647Y419090D01*
X761790Y422563D01*
X760646Y426333D01*
X760200Y430866D01*
X760200Y514534D01*
X760646Y519067D01*
X761790Y522837D01*
X763647Y526310D01*
X766145Y529355D01*
X769190Y531853D01*
X772663Y533710D01*
X776433Y534854D01*
X780966Y535300D01*
X889634Y535300D01*
X894167Y534854D01*
X894167Y534854D01*
G37*
G36*
X3605400Y505100D02*
G01*
X3425200Y505100D01*
X3425200Y615300D01*
X3605400Y615300D01*
X3605400Y505100D01*
X3605400Y505100D01*
G37*
G36*
X1175400Y505100D02*
G01*
X995200Y505100D01*
X995200Y615300D01*
X1175400Y615300D01*
X1175400Y505100D01*
X1175400Y505100D01*
G37*
G36*
X2975400Y505100D02*
G01*
X2795200Y505100D01*
X2795200Y615300D01*
X2975400Y615300D01*
X2975400Y505100D01*
X2975400Y505100D01*
G37*
G36*
X4775400Y505100D02*
G01*
X4595200Y505100D01*
X4595200Y615300D01*
X4775400Y615300D01*
X4775400Y505100D01*
X4775400Y505100D01*
G37*
G36*
X5405400Y505100D02*
G01*
X5225200Y505100D01*
X5225200Y615300D01*
X5405400Y615300D01*
X5405400Y505100D01*
X5405400Y505100D01*
G37*
G36*
X6575400Y505100D02*
G01*
X6395200Y505100D01*
X6395200Y615300D01*
X6575400Y615300D01*
X6575400Y505100D01*
X6575400Y505100D01*
G37*
G36*
X7205400Y505100D02*
G01*
X7025200Y505100D01*
X7025200Y615300D01*
X7205400Y615300D01*
X7205400Y505100D01*
X7205400Y505100D01*
G37*
G36*
X1805400Y505100D02*
G01*
X1625200Y505100D01*
X1625200Y615300D01*
X1805400Y615300D01*
X1805400Y505100D01*
X1805400Y505100D01*
G37*
G36*
X387526Y911070D02*
G01*
X398158Y908955D01*
X428204Y896510D01*
X455245Y878441D01*
X478241Y855445D01*
X496310Y828404D01*
X496310Y828404D01*
X508755Y798358D01*
X515100Y766461D01*
X515100Y733939D01*
X512235Y719534D01*
X508755Y702042D01*
X496310Y671996D01*
X478241Y644955D01*
X455245Y621959D01*
X428204Y603890D01*
X398158Y591445D01*
X387526Y589330D01*
X366261Y585100D01*
X333739Y585100D01*
X312474Y589330D01*
X301842Y591445D01*
X271796Y603890D01*
X244755Y621959D01*
X221758Y644955D01*
X203690Y671996D01*
X191245Y702042D01*
X187765Y719534D01*
X184900Y733939D01*
X184900Y766461D01*
X191245Y798358D01*
X203690Y828404D01*
X203690Y828404D01*
X221758Y855445D01*
X244755Y878441D01*
X271796Y896510D01*
X301842Y908955D01*
X312474Y911070D01*
X333739Y915300D01*
X366261Y915300D01*
X387526Y911070D01*
X387526Y911070D01*
G37*
G36*
X7887526Y911070D02*
G01*
X7898158Y908955D01*
X7928204Y896510D01*
X7955245Y878441D01*
X7978241Y855445D01*
X7996310Y828404D01*
X7996310Y828404D01*
X8008755Y798358D01*
X8015100Y766461D01*
X8015100Y733939D01*
X8012235Y719534D01*
X8008755Y702042D01*
X7996310Y671996D01*
X7978241Y644955D01*
X7955245Y621959D01*
X7928204Y603890D01*
X7898158Y591445D01*
X7887526Y589330D01*
X7866261Y585100D01*
X7833739Y585100D01*
X7812474Y589330D01*
X7801842Y591445D01*
X7771796Y603890D01*
X7744755Y621959D01*
X7721758Y644955D01*
X7703690Y671996D01*
X7691245Y702042D01*
X7687765Y719534D01*
X7684900Y733939D01*
X7684900Y766461D01*
X7691245Y798358D01*
X7703690Y828404D01*
X7703690Y828404D01*
X7721758Y855445D01*
X7744755Y878441D01*
X7771796Y896510D01*
X7801842Y908955D01*
X7812474Y911070D01*
X7833739Y915300D01*
X7866261Y915300D01*
X7887526Y911070D01*
X7887526Y911070D01*
G37*
G36*
X894167Y739853D02*
G01*
X897937Y738710D01*
X901410Y736853D01*
X904455Y734355D01*
X906953Y731310D01*
X908810Y727837D01*
X909953Y724067D01*
X910400Y719534D01*
X910400Y635866D01*
X909953Y631333D01*
X908810Y627563D01*
X906953Y624090D01*
X904455Y621045D01*
X901410Y618547D01*
X897937Y616690D01*
X894167Y615547D01*
X889634Y615100D01*
X780966Y615100D01*
X776433Y615547D01*
X772663Y616690D01*
X769190Y618547D01*
X766145Y621045D01*
X763647Y624090D01*
X761790Y627563D01*
X760646Y631333D01*
X760200Y635866D01*
X760200Y719534D01*
X760646Y724067D01*
X761790Y727837D01*
X763647Y731310D01*
X766145Y734355D01*
X769190Y736853D01*
X772663Y738710D01*
X776433Y739853D01*
X780966Y740300D01*
X889634Y740300D01*
X894167Y739853D01*
X894167Y739853D01*
G37*
G36*
X6294167Y739853D02*
G01*
X6297937Y738710D01*
X6301410Y736853D01*
X6304455Y734355D01*
X6306953Y731310D01*
X6308810Y727837D01*
X6309953Y724067D01*
X6310400Y719534D01*
X6310400Y635866D01*
X6309953Y631333D01*
X6308810Y627563D01*
X6306953Y624090D01*
X6304455Y621045D01*
X6301410Y618547D01*
X6297937Y616690D01*
X6294167Y615547D01*
X6289634Y615100D01*
X6180966Y615100D01*
X6176433Y615547D01*
X6172663Y616690D01*
X6169190Y618547D01*
X6166145Y621045D01*
X6163647Y624090D01*
X6161790Y627563D01*
X6160646Y631333D01*
X6160200Y635866D01*
X6160200Y719534D01*
X6160646Y724067D01*
X6161790Y727837D01*
X6163647Y731310D01*
X6166145Y734355D01*
X6169190Y736853D01*
X6172663Y738710D01*
X6176433Y739853D01*
X6180966Y740300D01*
X6289634Y740300D01*
X6294167Y739853D01*
X6294167Y739853D01*
G37*
G36*
X2694167Y739853D02*
G01*
X2697937Y738710D01*
X2701410Y736853D01*
X2704455Y734355D01*
X2706953Y731310D01*
X2708810Y727837D01*
X2709954Y724067D01*
X2710400Y719534D01*
X2710400Y635866D01*
X2709954Y631333D01*
X2708810Y627563D01*
X2706953Y624090D01*
X2704455Y621045D01*
X2701410Y618547D01*
X2697937Y616690D01*
X2694167Y615547D01*
X2689634Y615100D01*
X2580966Y615100D01*
X2576433Y615547D01*
X2572663Y616690D01*
X2569190Y618547D01*
X2566145Y621045D01*
X2563647Y624090D01*
X2561790Y627563D01*
X2560647Y631333D01*
X2560200Y635866D01*
X2560200Y719534D01*
X2560647Y724067D01*
X2561790Y727837D01*
X2563647Y731310D01*
X2566145Y734355D01*
X2569190Y736853D01*
X2572663Y738710D01*
X2576433Y739853D01*
X2580966Y740300D01*
X2689634Y740300D01*
X2694167Y739853D01*
X2694167Y739853D01*
G37*
G36*
X4494167Y739853D02*
G01*
X4497937Y738710D01*
X4501410Y736853D01*
X4504455Y734355D01*
X4506953Y731310D01*
X4508810Y727837D01*
X4509954Y724067D01*
X4510400Y719534D01*
X4510400Y635866D01*
X4509954Y631333D01*
X4508810Y627563D01*
X4506953Y624090D01*
X4504455Y621045D01*
X4501410Y618547D01*
X4497937Y616690D01*
X4494167Y615547D01*
X4489634Y615100D01*
X4380966Y615100D01*
X4376433Y615547D01*
X4372663Y616690D01*
X4369190Y618547D01*
X4366145Y621045D01*
X4363647Y624090D01*
X4361790Y627563D01*
X4360647Y631333D01*
X4360200Y635866D01*
X4360200Y719534D01*
X4360647Y724067D01*
X4361790Y727837D01*
X4363647Y731310D01*
X4366145Y734355D01*
X4369190Y736853D01*
X4372663Y738710D01*
X4376433Y739853D01*
X4380966Y740300D01*
X4489634Y740300D01*
X4494167Y739853D01*
X4494167Y739853D01*
G37*
G36*
X3911356Y847882D02*
G01*
X3914848Y846823D01*
X3918066Y845102D01*
X3920887Y842787D01*
X3923202Y839966D01*
X3924923Y836748D01*
X3925982Y833256D01*
X3926400Y829010D01*
X3926400Y714889D01*
X3925982Y710644D01*
X3924923Y707152D01*
X3923202Y703934D01*
X3920887Y701113D01*
X3918066Y698798D01*
X3914848Y697077D01*
X3911356Y696018D01*
X3907110Y695600D01*
X3760489Y695600D01*
X3756244Y696018D01*
X3752752Y697077D01*
X3749534Y698798D01*
X3746713Y701113D01*
X3744398Y703934D01*
X3742677Y707152D01*
X3741618Y710644D01*
X3741200Y714889D01*
X3741200Y829010D01*
X3741618Y833256D01*
X3742677Y836748D01*
X3744398Y839966D01*
X3746713Y842787D01*
X3749534Y845102D01*
X3752752Y846823D01*
X3756244Y847882D01*
X3760489Y848300D01*
X3907110Y848300D01*
X3911356Y847882D01*
X3911356Y847882D01*
G37*
G36*
X4190756Y847882D02*
G01*
X4194248Y846823D01*
X4197466Y845102D01*
X4200287Y842787D01*
X4202602Y839966D01*
X4204323Y836748D01*
X4205382Y833256D01*
X4205800Y829010D01*
X4205800Y714889D01*
X4205382Y710644D01*
X4204323Y707152D01*
X4202602Y703934D01*
X4200287Y701113D01*
X4197466Y698798D01*
X4194248Y697077D01*
X4190756Y696018D01*
X4186510Y695600D01*
X4039889Y695600D01*
X4035644Y696018D01*
X4032152Y697077D01*
X4028934Y698798D01*
X4026113Y701113D01*
X4023798Y703934D01*
X4022077Y707152D01*
X4021018Y710644D01*
X4020600Y714889D01*
X4020600Y829010D01*
X4021018Y833256D01*
X4022077Y836748D01*
X4023798Y839966D01*
X4026113Y842787D01*
X4028934Y845102D01*
X4032152Y846823D01*
X4035644Y847882D01*
X4039889Y848300D01*
X4186510Y848300D01*
X4190756Y847882D01*
X4190756Y847882D01*
G37*
G36*
X6575400Y885100D02*
G01*
X6395200Y885100D01*
X6395200Y995300D01*
X6575400Y995300D01*
X6575400Y885100D01*
X6575400Y885100D01*
G37*
G36*
X1805400Y885100D02*
G01*
X1625200Y885100D01*
X1625200Y995300D01*
X1805400Y995300D01*
X1805400Y885100D01*
X1805400Y885100D01*
G37*
G36*
X1175400Y885100D02*
G01*
X995200Y885100D01*
X995200Y995300D01*
X1175400Y995300D01*
X1175400Y885100D01*
X1175400Y885100D01*
G37*
G36*
X7205400Y885100D02*
G01*
X7025200Y885100D01*
X7025200Y995300D01*
X7205400Y995300D01*
X7205400Y885100D01*
X7205400Y885100D01*
G37*
G36*
X3605400Y885100D02*
G01*
X3425200Y885100D01*
X3425200Y995300D01*
X3605400Y995300D01*
X3605400Y885100D01*
X3605400Y885100D01*
G37*
G36*
X2975400Y885100D02*
G01*
X2795200Y885100D01*
X2795200Y995300D01*
X2975400Y995300D01*
X2975400Y885100D01*
X2975400Y885100D01*
G37*
G36*
X5405400Y885100D02*
G01*
X5225200Y885100D01*
X5225200Y995300D01*
X5405400Y995300D01*
X5405400Y885100D01*
X5405400Y885100D01*
G37*
G36*
X4775400Y885100D02*
G01*
X4595200Y885100D01*
X4595200Y995300D01*
X4775400Y995300D01*
X4775400Y885100D01*
X4775400Y885100D01*
G37*
G36*
X4018600Y1111340D02*
G01*
X3928400Y1111340D01*
X3928400Y1211540D01*
X4018600Y1211540D01*
X4018600Y1111340D01*
X4018600Y1111340D01*
G37*
G36*
X5902244Y1399148D02*
G01*
X5908863Y1398496D01*
X5925847Y1393344D01*
X5941499Y1384978D01*
X5942353Y1384277D01*
X5955219Y1373719D01*
X5963166Y1364034D01*
X5966478Y1359999D01*
X5974844Y1344347D01*
X5979996Y1327363D01*
X5981736Y1309700D01*
X5979996Y1292037D01*
X5974844Y1275053D01*
X5966478Y1259401D01*
X5964103Y1256508D01*
X5955219Y1245681D01*
X5947305Y1239187D01*
X5941499Y1234422D01*
X5925847Y1226056D01*
X5908863Y1220904D01*
X5902244Y1220252D01*
X5895626Y1219600D01*
X5886774Y1219600D01*
X5880156Y1220252D01*
X5873537Y1220904D01*
X5856553Y1226056D01*
X5840901Y1234422D01*
X5835095Y1239187D01*
X5827181Y1245681D01*
X5818297Y1256508D01*
X5815922Y1259401D01*
X5807556Y1275053D01*
X5802404Y1292037D01*
X5800664Y1309700D01*
X5802404Y1327363D01*
X5807556Y1344347D01*
X5815922Y1359999D01*
X5819233Y1364034D01*
X5827181Y1373719D01*
X5840047Y1384277D01*
X5840901Y1384978D01*
X5856553Y1393344D01*
X5873537Y1398496D01*
X5880156Y1399148D01*
X5886774Y1399800D01*
X5895626Y1399800D01*
X5902244Y1399148D01*
X5902244Y1399148D01*
G37*
G36*
X6156244Y1399148D02*
G01*
X6162863Y1398496D01*
X6179847Y1393344D01*
X6195499Y1384978D01*
X6196353Y1384277D01*
X6209219Y1373719D01*
X6217166Y1364034D01*
X6220478Y1359999D01*
X6228844Y1344347D01*
X6233996Y1327363D01*
X6235736Y1309700D01*
X6233996Y1292037D01*
X6228844Y1275053D01*
X6220478Y1259401D01*
X6218103Y1256508D01*
X6209219Y1245681D01*
X6201305Y1239187D01*
X6195499Y1234422D01*
X6179847Y1226056D01*
X6162863Y1220904D01*
X6156244Y1220252D01*
X6149626Y1219600D01*
X6140774Y1219600D01*
X6134156Y1220252D01*
X6127537Y1220904D01*
X6110553Y1226056D01*
X6094901Y1234422D01*
X6089095Y1239187D01*
X6081181Y1245681D01*
X6072297Y1256508D01*
X6069922Y1259401D01*
X6061556Y1275053D01*
X6056404Y1292037D01*
X6054664Y1309700D01*
X6056404Y1327363D01*
X6061556Y1344347D01*
X6069922Y1359999D01*
X6073233Y1364034D01*
X6081181Y1373719D01*
X6094047Y1384277D01*
X6094901Y1384978D01*
X6110553Y1393344D01*
X6127537Y1398496D01*
X6134156Y1399148D01*
X6140774Y1399800D01*
X6149626Y1399800D01*
X6156244Y1399148D01*
X6156244Y1399148D01*
G37*
G36*
X6410244Y1399148D02*
G01*
X6416863Y1398496D01*
X6433847Y1393344D01*
X6449499Y1384978D01*
X6450353Y1384277D01*
X6463219Y1373719D01*
X6471166Y1364034D01*
X6474478Y1359999D01*
X6482844Y1344347D01*
X6487996Y1327363D01*
X6489736Y1309700D01*
X6487996Y1292037D01*
X6482844Y1275053D01*
X6474478Y1259401D01*
X6472103Y1256508D01*
X6463219Y1245681D01*
X6455305Y1239187D01*
X6449499Y1234422D01*
X6433847Y1226056D01*
X6416863Y1220904D01*
X6410244Y1220252D01*
X6403626Y1219600D01*
X6394774Y1219600D01*
X6388156Y1220252D01*
X6381537Y1220904D01*
X6364553Y1226056D01*
X6348901Y1234422D01*
X6343095Y1239187D01*
X6335181Y1245681D01*
X6326297Y1256508D01*
X6323922Y1259401D01*
X6315556Y1275053D01*
X6310404Y1292037D01*
X6308664Y1309700D01*
X6310404Y1327363D01*
X6315556Y1344347D01*
X6323922Y1359999D01*
X6327233Y1364034D01*
X6335181Y1373719D01*
X6348047Y1384277D01*
X6348901Y1384978D01*
X6364553Y1393344D01*
X6381537Y1398496D01*
X6388156Y1399148D01*
X6394774Y1399800D01*
X6403626Y1399800D01*
X6410244Y1399148D01*
X6410244Y1399148D01*
G37*
G36*
X6664244Y1399148D02*
G01*
X6670863Y1398496D01*
X6687847Y1393344D01*
X6703499Y1384978D01*
X6704353Y1384277D01*
X6717219Y1373719D01*
X6725166Y1364034D01*
X6728478Y1359999D01*
X6736844Y1344347D01*
X6741996Y1327363D01*
X6743736Y1309700D01*
X6741996Y1292037D01*
X6736844Y1275053D01*
X6728478Y1259401D01*
X6726103Y1256508D01*
X6717219Y1245681D01*
X6709305Y1239187D01*
X6703499Y1234422D01*
X6687847Y1226056D01*
X6670863Y1220904D01*
X6664244Y1220252D01*
X6657626Y1219600D01*
X6648774Y1219600D01*
X6642156Y1220252D01*
X6635537Y1220904D01*
X6618553Y1226056D01*
X6602901Y1234422D01*
X6597095Y1239187D01*
X6589181Y1245681D01*
X6580297Y1256508D01*
X6577922Y1259401D01*
X6569556Y1275053D01*
X6564404Y1292037D01*
X6562664Y1309700D01*
X6564404Y1327363D01*
X6569556Y1344347D01*
X6577922Y1359999D01*
X6581233Y1364034D01*
X6589181Y1373719D01*
X6602047Y1384277D01*
X6602901Y1384978D01*
X6618553Y1393344D01*
X6635537Y1398496D01*
X6642156Y1399148D01*
X6648774Y1399800D01*
X6657626Y1399800D01*
X6664244Y1399148D01*
X6664244Y1399148D01*
G37*
G36*
X6918244Y1399148D02*
G01*
X6924863Y1398496D01*
X6941847Y1393344D01*
X6957499Y1384978D01*
X6958353Y1384277D01*
X6971219Y1373719D01*
X6979166Y1364034D01*
X6982478Y1359999D01*
X6990844Y1344347D01*
X6995996Y1327363D01*
X6997736Y1309700D01*
X6995996Y1292037D01*
X6990844Y1275053D01*
X6982478Y1259401D01*
X6980103Y1256508D01*
X6971219Y1245681D01*
X6963305Y1239187D01*
X6957499Y1234422D01*
X6941847Y1226056D01*
X6924863Y1220904D01*
X6918244Y1220252D01*
X6911626Y1219600D01*
X6902774Y1219600D01*
X6896156Y1220252D01*
X6889537Y1220904D01*
X6872553Y1226056D01*
X6856901Y1234422D01*
X6851095Y1239187D01*
X6843181Y1245681D01*
X6834297Y1256508D01*
X6831922Y1259401D01*
X6823556Y1275053D01*
X6818404Y1292037D01*
X6816664Y1309700D01*
X6818404Y1327363D01*
X6823556Y1344347D01*
X6831922Y1359999D01*
X6835233Y1364034D01*
X6843181Y1373719D01*
X6856047Y1384277D01*
X6856901Y1384978D01*
X6872553Y1393344D01*
X6889537Y1398496D01*
X6896156Y1399148D01*
X6902774Y1399800D01*
X6911626Y1399800D01*
X6918244Y1399148D01*
X6918244Y1399148D01*
G37*
G36*
X7172244Y1399148D02*
G01*
X7178863Y1398496D01*
X7195847Y1393344D01*
X7211499Y1384978D01*
X7212353Y1384277D01*
X7225219Y1373719D01*
X7233166Y1364034D01*
X7236478Y1359999D01*
X7244844Y1344347D01*
X7249996Y1327363D01*
X7251736Y1309700D01*
X7249996Y1292037D01*
X7244844Y1275053D01*
X7236478Y1259401D01*
X7234103Y1256508D01*
X7225219Y1245681D01*
X7217305Y1239187D01*
X7211499Y1234422D01*
X7195847Y1226056D01*
X7178863Y1220904D01*
X7172244Y1220252D01*
X7165626Y1219600D01*
X7156774Y1219600D01*
X7150156Y1220252D01*
X7143537Y1220904D01*
X7126553Y1226056D01*
X7110901Y1234422D01*
X7105095Y1239187D01*
X7097181Y1245681D01*
X7088297Y1256508D01*
X7085922Y1259401D01*
X7077556Y1275053D01*
X7072404Y1292037D01*
X7070664Y1309700D01*
X7072404Y1327363D01*
X7077556Y1344347D01*
X7085922Y1359999D01*
X7089233Y1364034D01*
X7097181Y1373719D01*
X7110047Y1384277D01*
X7110901Y1384978D01*
X7126553Y1393344D01*
X7143537Y1398496D01*
X7150156Y1399148D01*
X7156774Y1399800D01*
X7165626Y1399800D01*
X7172244Y1399148D01*
X7172244Y1399148D01*
G37*
G36*
X5727300Y1219600D02*
G01*
X5547100Y1219600D01*
X5547100Y1399800D01*
X5727300Y1399800D01*
X5727300Y1219600D01*
X5727300Y1219600D01*
G37*
G36*
X4973267Y1384354D02*
G01*
X4977037Y1383210D01*
X4980510Y1381353D01*
X4983555Y1378855D01*
X4986053Y1375810D01*
X4987910Y1372337D01*
X4989054Y1368567D01*
X4989500Y1364034D01*
X4989500Y1255366D01*
X4989054Y1250833D01*
X4987910Y1247063D01*
X4986053Y1243590D01*
X4983555Y1240545D01*
X4980510Y1238047D01*
X4977037Y1236190D01*
X4973267Y1235047D01*
X4968734Y1234600D01*
X4885066Y1234600D01*
X4880533Y1235047D01*
X4876763Y1236190D01*
X4873290Y1238047D01*
X4870245Y1240545D01*
X4867747Y1243590D01*
X4865890Y1247063D01*
X4864747Y1250833D01*
X4864300Y1255366D01*
X4864300Y1364034D01*
X4864747Y1368567D01*
X4865890Y1372337D01*
X4867747Y1375810D01*
X4870245Y1378855D01*
X4873290Y1381353D01*
X4876763Y1383210D01*
X4880533Y1384354D01*
X4885066Y1384800D01*
X4968734Y1384800D01*
X4973267Y1384354D01*
X4973267Y1384354D01*
G37*
G36*
X4768267Y1384354D02*
G01*
X4772037Y1383210D01*
X4775510Y1381353D01*
X4778555Y1378855D01*
X4781053Y1375810D01*
X4782910Y1372337D01*
X4784054Y1368567D01*
X4784500Y1364034D01*
X4784500Y1255366D01*
X4784054Y1250833D01*
X4782910Y1247063D01*
X4781053Y1243590D01*
X4778555Y1240545D01*
X4775510Y1238047D01*
X4772037Y1236190D01*
X4768267Y1235047D01*
X4763734Y1234600D01*
X4680066Y1234600D01*
X4675533Y1235047D01*
X4671763Y1236190D01*
X4668290Y1238047D01*
X4665245Y1240545D01*
X4662747Y1243590D01*
X4660890Y1247063D01*
X4659747Y1250833D01*
X4659300Y1255366D01*
X4659300Y1364034D01*
X4659747Y1368567D01*
X4660890Y1372337D01*
X4662747Y1375810D01*
X4665245Y1378855D01*
X4668290Y1381353D01*
X4671763Y1383210D01*
X4675533Y1384354D01*
X4680066Y1384800D01*
X4763734Y1384800D01*
X4768267Y1384354D01*
X4768267Y1384354D01*
G37*
G36*
X3923600Y1311340D02*
G01*
X3833400Y1311340D01*
X3833400Y1411540D01*
X3923600Y1411540D01*
X3923600Y1311340D01*
X3923600Y1311340D01*
G37*
G36*
X4113600Y1311340D02*
G01*
X4023400Y1311340D01*
X4023400Y1411540D01*
X4113600Y1411540D01*
X4113600Y1311340D01*
X4113600Y1311340D01*
G37*
M02*
