G04 #@! TF.GenerationSoftware,KiCad,Pcbnew,(5.1.0)-1*
G04 #@! TF.CreationDate,2022-02-25T22:57:01-08:00*
G04 #@! TF.ProjectId,BTNPAD_TYPE_B,42544e50-4144-45f5-9459-50455f422e6b,rev?*
G04 #@! TF.SameCoordinates,PX7541940PY6316b30*
G04 #@! TF.FileFunction,Legend,Bot*
G04 #@! TF.FilePolarity,Positive*
%FSLAX45Y45*%
G04 Gerber Fmt 4.5, Leading zero omitted, Abs format (unit mm)*
G04 Created by KiCad (PCBNEW (5.1.0)-1) date 2022-02-25 22:57:01*
%MOMM*%
%LPD*%
G04 APERTURE LIST*
%ADD10C,0.150000*%
%ADD11C,0.120000*%
%ADD12C,3.302000*%
%ADD13R,1.802000X1.802000*%
%ADD14O,1.802000X1.802000*%
G04 APERTURE END LIST*
D10*
X5601168Y1063802D02*
X5648787Y1063802D01*
X5648787Y1163802D01*
X5862628Y1058722D02*
X5919771Y1058722D01*
X5891200Y1058722D02*
X5891200Y1158722D01*
X5900724Y1144436D01*
X5910248Y1134912D01*
X5919771Y1130151D01*
X6173771Y1149198D02*
X6169009Y1153960D01*
X6159486Y1158722D01*
X6135676Y1158722D01*
X6126152Y1153960D01*
X6121390Y1149198D01*
X6116628Y1139674D01*
X6116628Y1130151D01*
X6121390Y1115865D01*
X6178533Y1058722D01*
X6116628Y1058722D01*
X6432533Y1158722D02*
X6370628Y1158722D01*
X6403962Y1120627D01*
X6389676Y1120627D01*
X6380152Y1115865D01*
X6375390Y1111103D01*
X6370628Y1101579D01*
X6370628Y1077770D01*
X6375390Y1068246D01*
X6380152Y1063484D01*
X6389676Y1058722D01*
X6418248Y1058722D01*
X6427771Y1063484D01*
X6432533Y1068246D01*
X6634152Y1120309D02*
X6634152Y1053642D01*
X6657962Y1158404D02*
X6681771Y1086975D01*
X6619867Y1086975D01*
X6945295Y1106977D02*
X6869105Y1106977D01*
X6907200Y1068882D02*
X6907200Y1145072D01*
X7135009Y1148880D02*
X7144533Y1153642D01*
X7158819Y1153642D01*
X7173105Y1148880D01*
X7182628Y1139356D01*
X7187390Y1129832D01*
X7192152Y1110785D01*
X7192152Y1096499D01*
X7187390Y1077452D01*
X7182628Y1067928D01*
X7173105Y1058404D01*
X7158819Y1053642D01*
X7149295Y1053642D01*
X7135009Y1058404D01*
X7130248Y1063166D01*
X7130248Y1096499D01*
X7149295Y1096499D01*
D11*
X7294200Y1442700D02*
X7294200Y1176700D01*
X5764200Y1442700D02*
X7294200Y1442700D01*
X5764200Y1176700D02*
X7294200Y1176700D01*
X5764200Y1442700D02*
X5764200Y1176700D01*
X5637200Y1442700D02*
X5504200Y1442700D01*
X5504200Y1442700D02*
X5504200Y1309700D01*
%LPC*%
D12*
X7850000Y750200D03*
X350000Y750200D03*
D13*
X5637200Y1309700D03*
D14*
X5891200Y1309700D03*
X6145200Y1309700D03*
X6399200Y1309700D03*
X6653200Y1309700D03*
X6907200Y1309700D03*
X7161200Y1309700D03*
M02*
