G04 #@! TF.GenerationSoftware,KiCad,Pcbnew,(5.1.0)-1*
G04 #@! TF.CreationDate,2022-03-25T15:28:16-07:00*
G04 #@! TF.ProjectId,BTNPAD_ANALOG_READ,42544e50-4144-45f4-914e-414c4f475f52,rev?*
G04 #@! TF.SameCoordinates,PX8198450PY60b5148*
G04 #@! TF.FileFunction,Soldermask,Bot*
G04 #@! TF.FilePolarity,Negative*
%FSLAX45Y45*%
G04 Gerber Fmt 4.5, Leading zero omitted, Abs format (unit mm)*
G04 Created by KiCad (PCBNEW (5.1.0)-1) date 2022-03-25 15:28:16*
%MOMM*%
%LPD*%
G04 APERTURE LIST*
%ADD10C,0.100000*%
G04 APERTURE END LIST*
D10*
G36*
X1557044Y273148D02*
G01*
X1563663Y272496D01*
X1580647Y267344D01*
X1596299Y258978D01*
X1599873Y256045D01*
X1610019Y247719D01*
X1617687Y238375D01*
X1621278Y233999D01*
X1629644Y218347D01*
X1634796Y201363D01*
X1636536Y183700D01*
X1634796Y166037D01*
X1629644Y149053D01*
X1621278Y133401D01*
X1618345Y129827D01*
X1610019Y119681D01*
X1599873Y111355D01*
X1596299Y108422D01*
X1580647Y100056D01*
X1563663Y94904D01*
X1557044Y94252D01*
X1550426Y93600D01*
X1541574Y93600D01*
X1534956Y94252D01*
X1528337Y94904D01*
X1511353Y100056D01*
X1495701Y108422D01*
X1492127Y111355D01*
X1481981Y119681D01*
X1473655Y129827D01*
X1470722Y133401D01*
X1462356Y149053D01*
X1457204Y166037D01*
X1455464Y183700D01*
X1457204Y201363D01*
X1462356Y218347D01*
X1470722Y233999D01*
X1474313Y238375D01*
X1481981Y247719D01*
X1492127Y256045D01*
X1495701Y258978D01*
X1511353Y267344D01*
X1528337Y272496D01*
X1534956Y273148D01*
X1541574Y273800D01*
X1550426Y273800D01*
X1557044Y273148D01*
X1557044Y273148D01*
G37*
G36*
X2144100Y93600D02*
G01*
X1963900Y93600D01*
X1963900Y273800D01*
X2144100Y273800D01*
X2144100Y93600D01*
X2144100Y93600D01*
G37*
G36*
X1811044Y273148D02*
G01*
X1817663Y272496D01*
X1834647Y267344D01*
X1850299Y258978D01*
X1853873Y256045D01*
X1864019Y247719D01*
X1871687Y238375D01*
X1875278Y233999D01*
X1883644Y218347D01*
X1888796Y201363D01*
X1890536Y183700D01*
X1888796Y166037D01*
X1883644Y149053D01*
X1875278Y133401D01*
X1872345Y129827D01*
X1864019Y119681D01*
X1853873Y111355D01*
X1850299Y108422D01*
X1834647Y100056D01*
X1817663Y94904D01*
X1811044Y94252D01*
X1804426Y93600D01*
X1795574Y93600D01*
X1788956Y94252D01*
X1782337Y94904D01*
X1765353Y100056D01*
X1749701Y108422D01*
X1746127Y111355D01*
X1735981Y119681D01*
X1727655Y129827D01*
X1724722Y133401D01*
X1716356Y149053D01*
X1711204Y166037D01*
X1709464Y183700D01*
X1711204Y201363D01*
X1716356Y218347D01*
X1724722Y233999D01*
X1728313Y238375D01*
X1735981Y247719D01*
X1746127Y256045D01*
X1749701Y258978D01*
X1765353Y267344D01*
X1782337Y272496D01*
X1788956Y273148D01*
X1795574Y273800D01*
X1804426Y273800D01*
X1811044Y273148D01*
X1811044Y273148D01*
G37*
G36*
X337949Y425100D02*
G01*
X361625Y415293D01*
X361625Y415293D01*
X382934Y401055D01*
X401055Y382934D01*
X415293Y361625D01*
X425100Y337949D01*
X430100Y312814D01*
X430100Y287186D01*
X425100Y262051D01*
X419163Y247718D01*
X415293Y238374D01*
X401055Y217066D01*
X382934Y198945D01*
X361625Y184707D01*
X361625Y184707D01*
X361625Y184707D01*
X337949Y174900D01*
X312814Y169900D01*
X287186Y169900D01*
X262051Y174900D01*
X238375Y184707D01*
X238375Y184707D01*
X238374Y184707D01*
X217066Y198945D01*
X198945Y217066D01*
X184707Y238374D01*
X180836Y247718D01*
X174900Y262051D01*
X169900Y287186D01*
X169900Y312814D01*
X174900Y337949D01*
X184707Y361625D01*
X198945Y382934D01*
X217066Y401055D01*
X238374Y415293D01*
X238375Y415293D01*
X262051Y425100D01*
X287186Y430100D01*
X312814Y430100D01*
X337949Y425100D01*
X337949Y425100D01*
G37*
G36*
X3337949Y425100D02*
G01*
X3361625Y415293D01*
X3361625Y415293D01*
X3382934Y401055D01*
X3401055Y382934D01*
X3415293Y361625D01*
X3425100Y337949D01*
X3430100Y312814D01*
X3430100Y287186D01*
X3425100Y262051D01*
X3419163Y247718D01*
X3415293Y238374D01*
X3401055Y217066D01*
X3382934Y198945D01*
X3361625Y184707D01*
X3361625Y184707D01*
X3361625Y184707D01*
X3337949Y174900D01*
X3312814Y169900D01*
X3287186Y169900D01*
X3262051Y174900D01*
X3238375Y184707D01*
X3238375Y184707D01*
X3238374Y184707D01*
X3217066Y198945D01*
X3198945Y217066D01*
X3184707Y238374D01*
X3180836Y247718D01*
X3174900Y262051D01*
X3169900Y287186D01*
X3169900Y312814D01*
X3174900Y337949D01*
X3184707Y361625D01*
X3198945Y382934D01*
X3217066Y401055D01*
X3238374Y415293D01*
X3238375Y415293D01*
X3262051Y425100D01*
X3287186Y430100D01*
X3312814Y430100D01*
X3337949Y425100D01*
X3337949Y425100D01*
G37*
G36*
X1846667Y1275254D02*
G01*
X1850437Y1274110D01*
X1853910Y1272253D01*
X1856955Y1269755D01*
X1859453Y1266710D01*
X1861310Y1263237D01*
X1862453Y1259467D01*
X1862900Y1254934D01*
X1862900Y1171266D01*
X1862453Y1166733D01*
X1861310Y1162963D01*
X1859453Y1159490D01*
X1856955Y1156445D01*
X1853910Y1153947D01*
X1850437Y1152090D01*
X1846667Y1150947D01*
X1842134Y1150500D01*
X1733466Y1150500D01*
X1728933Y1150947D01*
X1725163Y1152090D01*
X1721690Y1153947D01*
X1718645Y1156445D01*
X1716147Y1159490D01*
X1714290Y1162963D01*
X1713146Y1166733D01*
X1712700Y1171266D01*
X1712700Y1254934D01*
X1713146Y1259467D01*
X1714290Y1263237D01*
X1716147Y1266710D01*
X1718645Y1269755D01*
X1721690Y1272253D01*
X1725163Y1274110D01*
X1728933Y1275254D01*
X1733466Y1275700D01*
X1842134Y1275700D01*
X1846667Y1275254D01*
X1846667Y1275254D01*
G37*
G36*
X2049867Y1275254D02*
G01*
X2053637Y1274110D01*
X2057110Y1272253D01*
X2060155Y1269755D01*
X2062653Y1266710D01*
X2064510Y1263237D01*
X2065653Y1259467D01*
X2066100Y1254934D01*
X2066100Y1171266D01*
X2065653Y1166733D01*
X2064510Y1162963D01*
X2062653Y1159490D01*
X2060155Y1156445D01*
X2057110Y1153947D01*
X2053637Y1152090D01*
X2049867Y1150947D01*
X2045334Y1150500D01*
X1936666Y1150500D01*
X1932133Y1150947D01*
X1928363Y1152090D01*
X1924890Y1153947D01*
X1921845Y1156445D01*
X1919347Y1159490D01*
X1917490Y1162963D01*
X1916346Y1166733D01*
X1915900Y1171266D01*
X1915900Y1254934D01*
X1916346Y1259467D01*
X1917490Y1263237D01*
X1919347Y1266710D01*
X1921845Y1269755D01*
X1924890Y1272253D01*
X1928363Y1274110D01*
X1932133Y1275254D01*
X1936666Y1275700D01*
X2045334Y1275700D01*
X2049867Y1275254D01*
X2049867Y1275254D01*
G37*
G36*
X1643467Y1275254D02*
G01*
X1647237Y1274110D01*
X1650710Y1272253D01*
X1653755Y1269755D01*
X1656253Y1266710D01*
X1658110Y1263237D01*
X1659253Y1259467D01*
X1659700Y1254934D01*
X1659700Y1171266D01*
X1659253Y1166733D01*
X1658110Y1162963D01*
X1656253Y1159490D01*
X1653755Y1156445D01*
X1650710Y1153947D01*
X1647237Y1152090D01*
X1643467Y1150947D01*
X1638934Y1150500D01*
X1530266Y1150500D01*
X1525733Y1150947D01*
X1521963Y1152090D01*
X1518490Y1153947D01*
X1515445Y1156445D01*
X1512947Y1159490D01*
X1511090Y1162963D01*
X1509946Y1166733D01*
X1509500Y1171266D01*
X1509500Y1254934D01*
X1509946Y1259467D01*
X1511090Y1263237D01*
X1512947Y1266710D01*
X1515445Y1269755D01*
X1518490Y1272253D01*
X1521963Y1274110D01*
X1525733Y1275254D01*
X1530266Y1275700D01*
X1638934Y1275700D01*
X1643467Y1275254D01*
X1643467Y1275254D01*
G37*
G36*
X1440267Y1275254D02*
G01*
X1444037Y1274110D01*
X1447510Y1272253D01*
X1450555Y1269755D01*
X1453053Y1266710D01*
X1454910Y1263237D01*
X1456053Y1259467D01*
X1456500Y1254934D01*
X1456500Y1171266D01*
X1456053Y1166733D01*
X1454910Y1162963D01*
X1453053Y1159490D01*
X1450555Y1156445D01*
X1447510Y1153947D01*
X1444037Y1152090D01*
X1440267Y1150947D01*
X1435734Y1150500D01*
X1327066Y1150500D01*
X1322533Y1150947D01*
X1318763Y1152090D01*
X1315290Y1153947D01*
X1312245Y1156445D01*
X1309747Y1159490D01*
X1307890Y1162963D01*
X1306747Y1166733D01*
X1306300Y1171266D01*
X1306300Y1254934D01*
X1306747Y1259467D01*
X1307890Y1263237D01*
X1309747Y1266710D01*
X1312245Y1269755D01*
X1315290Y1272253D01*
X1318763Y1274110D01*
X1322533Y1275254D01*
X1327066Y1275700D01*
X1435734Y1275700D01*
X1440267Y1275254D01*
X1440267Y1275254D01*
G37*
G36*
X2253067Y1275254D02*
G01*
X2256837Y1274110D01*
X2260310Y1272253D01*
X2263355Y1269755D01*
X2265853Y1266710D01*
X2267710Y1263237D01*
X2268854Y1259467D01*
X2269300Y1254934D01*
X2269300Y1171266D01*
X2268854Y1166733D01*
X2267710Y1162963D01*
X2265853Y1159490D01*
X2263355Y1156445D01*
X2260310Y1153947D01*
X2256837Y1152090D01*
X2253067Y1150947D01*
X2248534Y1150500D01*
X2139866Y1150500D01*
X2135333Y1150947D01*
X2131563Y1152090D01*
X2128090Y1153947D01*
X2125045Y1156445D01*
X2122547Y1159490D01*
X2120690Y1162963D01*
X2119547Y1166733D01*
X2119100Y1171266D01*
X2119100Y1254934D01*
X2119547Y1259467D01*
X2120690Y1263237D01*
X2122547Y1266710D01*
X2125045Y1269755D01*
X2128090Y1272253D01*
X2131563Y1274110D01*
X2135333Y1275254D01*
X2139866Y1275700D01*
X2248534Y1275700D01*
X2253067Y1275254D01*
X2253067Y1275254D01*
G37*
G36*
X1440267Y1480253D02*
G01*
X1444037Y1479110D01*
X1447510Y1477253D01*
X1450555Y1474755D01*
X1453053Y1471710D01*
X1454910Y1468237D01*
X1456053Y1464467D01*
X1456500Y1459934D01*
X1456500Y1376266D01*
X1456053Y1371733D01*
X1454910Y1367963D01*
X1453053Y1364490D01*
X1450555Y1361445D01*
X1447510Y1358947D01*
X1444037Y1357090D01*
X1440267Y1355947D01*
X1435734Y1355500D01*
X1327066Y1355500D01*
X1322533Y1355947D01*
X1318763Y1357090D01*
X1315290Y1358947D01*
X1312245Y1361445D01*
X1309747Y1364490D01*
X1307890Y1367963D01*
X1306747Y1371733D01*
X1306300Y1376266D01*
X1306300Y1459934D01*
X1306747Y1464467D01*
X1307890Y1468237D01*
X1309747Y1471710D01*
X1312245Y1474755D01*
X1315290Y1477253D01*
X1318763Y1479110D01*
X1322533Y1480253D01*
X1327066Y1480700D01*
X1435734Y1480700D01*
X1440267Y1480253D01*
X1440267Y1480253D01*
G37*
G36*
X2253067Y1480253D02*
G01*
X2256837Y1479110D01*
X2260310Y1477253D01*
X2263355Y1474755D01*
X2265853Y1471710D01*
X2267710Y1468237D01*
X2268854Y1464467D01*
X2269300Y1459934D01*
X2269300Y1376266D01*
X2268854Y1371733D01*
X2267710Y1367963D01*
X2265853Y1364490D01*
X2263355Y1361445D01*
X2260310Y1358947D01*
X2256837Y1357090D01*
X2253067Y1355947D01*
X2248534Y1355500D01*
X2139866Y1355500D01*
X2135333Y1355947D01*
X2131563Y1357090D01*
X2128090Y1358947D01*
X2125045Y1361445D01*
X2122547Y1364490D01*
X2120690Y1367963D01*
X2119547Y1371733D01*
X2119100Y1376266D01*
X2119100Y1459934D01*
X2119547Y1464467D01*
X2120690Y1468237D01*
X2122547Y1471710D01*
X2125045Y1474755D01*
X2128090Y1477253D01*
X2131563Y1479110D01*
X2135333Y1480253D01*
X2139866Y1480700D01*
X2248534Y1480700D01*
X2253067Y1480253D01*
X2253067Y1480253D01*
G37*
G36*
X2049867Y1480253D02*
G01*
X2053637Y1479110D01*
X2057110Y1477253D01*
X2060155Y1474755D01*
X2062653Y1471710D01*
X2064510Y1468237D01*
X2065653Y1464467D01*
X2066100Y1459934D01*
X2066100Y1376266D01*
X2065653Y1371733D01*
X2064510Y1367963D01*
X2062653Y1364490D01*
X2060155Y1361445D01*
X2057110Y1358947D01*
X2053637Y1357090D01*
X2049867Y1355947D01*
X2045334Y1355500D01*
X1936666Y1355500D01*
X1932133Y1355947D01*
X1928363Y1357090D01*
X1924890Y1358947D01*
X1921845Y1361445D01*
X1919347Y1364490D01*
X1917490Y1367963D01*
X1916346Y1371733D01*
X1915900Y1376266D01*
X1915900Y1459934D01*
X1916346Y1464467D01*
X1917490Y1468237D01*
X1919347Y1471710D01*
X1921845Y1474755D01*
X1924890Y1477253D01*
X1928363Y1479110D01*
X1932133Y1480253D01*
X1936666Y1480700D01*
X2045334Y1480700D01*
X2049867Y1480253D01*
X2049867Y1480253D01*
G37*
G36*
X1846667Y1480253D02*
G01*
X1850437Y1479110D01*
X1853910Y1477253D01*
X1856955Y1474755D01*
X1859453Y1471710D01*
X1861310Y1468237D01*
X1862453Y1464467D01*
X1862900Y1459934D01*
X1862900Y1376266D01*
X1862453Y1371733D01*
X1861310Y1367963D01*
X1859453Y1364490D01*
X1856955Y1361445D01*
X1853910Y1358947D01*
X1850437Y1357090D01*
X1846667Y1355947D01*
X1842134Y1355500D01*
X1733466Y1355500D01*
X1728933Y1355947D01*
X1725163Y1357090D01*
X1721690Y1358947D01*
X1718645Y1361445D01*
X1716147Y1364490D01*
X1714290Y1367963D01*
X1713146Y1371733D01*
X1712700Y1376266D01*
X1712700Y1459934D01*
X1713146Y1464467D01*
X1714290Y1468237D01*
X1716147Y1471710D01*
X1718645Y1474755D01*
X1721690Y1477253D01*
X1725163Y1479110D01*
X1728933Y1480253D01*
X1733466Y1480700D01*
X1842134Y1480700D01*
X1846667Y1480253D01*
X1846667Y1480253D01*
G37*
G36*
X1643467Y1480253D02*
G01*
X1647237Y1479110D01*
X1650710Y1477253D01*
X1653755Y1474755D01*
X1656253Y1471710D01*
X1658110Y1468237D01*
X1659253Y1464467D01*
X1659700Y1459934D01*
X1659700Y1376266D01*
X1659253Y1371733D01*
X1658110Y1367963D01*
X1656253Y1364490D01*
X1653755Y1361445D01*
X1650710Y1358947D01*
X1647237Y1357090D01*
X1643467Y1355947D01*
X1638934Y1355500D01*
X1530266Y1355500D01*
X1525733Y1355947D01*
X1521963Y1357090D01*
X1518490Y1358947D01*
X1515445Y1361445D01*
X1512947Y1364490D01*
X1511090Y1367963D01*
X1509946Y1371733D01*
X1509500Y1376266D01*
X1509500Y1459934D01*
X1509946Y1464467D01*
X1511090Y1468237D01*
X1512947Y1471710D01*
X1515445Y1474755D01*
X1518490Y1477253D01*
X1521963Y1479110D01*
X1525733Y1480253D01*
X1530266Y1480700D01*
X1638934Y1480700D01*
X1643467Y1480253D01*
X1643467Y1480253D01*
G37*
G36*
X337949Y3425100D02*
G01*
X361625Y3415293D01*
X361625Y3415293D01*
X382934Y3401055D01*
X401055Y3382934D01*
X415293Y3361625D01*
X425100Y3337949D01*
X430100Y3312814D01*
X430100Y3287186D01*
X425100Y3262051D01*
X415293Y3238375D01*
X415293Y3238374D01*
X401055Y3217066D01*
X382934Y3198945D01*
X361625Y3184707D01*
X361625Y3184707D01*
X361625Y3184707D01*
X337949Y3174900D01*
X312814Y3169900D01*
X287186Y3169900D01*
X262051Y3174900D01*
X238375Y3184707D01*
X238375Y3184707D01*
X238374Y3184707D01*
X217066Y3198945D01*
X198945Y3217066D01*
X184707Y3238374D01*
X184707Y3238375D01*
X174900Y3262051D01*
X169900Y3287186D01*
X169900Y3312814D01*
X174900Y3337949D01*
X184707Y3361625D01*
X198945Y3382934D01*
X217066Y3401055D01*
X238374Y3415293D01*
X238375Y3415293D01*
X262051Y3425100D01*
X287186Y3430100D01*
X312814Y3430100D01*
X337949Y3425100D01*
X337949Y3425100D01*
G37*
G36*
X3337949Y3425100D02*
G01*
X3361625Y3415293D01*
X3361625Y3415293D01*
X3382934Y3401055D01*
X3401055Y3382934D01*
X3415293Y3361625D01*
X3425100Y3337949D01*
X3430100Y3312814D01*
X3430100Y3287186D01*
X3425100Y3262051D01*
X3415293Y3238375D01*
X3415293Y3238374D01*
X3401055Y3217066D01*
X3382934Y3198945D01*
X3361625Y3184707D01*
X3361625Y3184707D01*
X3361625Y3184707D01*
X3337949Y3174900D01*
X3312814Y3169900D01*
X3287186Y3169900D01*
X3262051Y3174900D01*
X3238375Y3184707D01*
X3238375Y3184707D01*
X3238374Y3184707D01*
X3217066Y3198945D01*
X3198945Y3217066D01*
X3184707Y3238374D01*
X3184707Y3238375D01*
X3174900Y3262051D01*
X3169900Y3287186D01*
X3169900Y3312814D01*
X3174900Y3337949D01*
X3184707Y3361625D01*
X3198945Y3382934D01*
X3217066Y3401055D01*
X3238374Y3415293D01*
X3238375Y3415293D01*
X3262051Y3425100D01*
X3287186Y3430100D01*
X3312814Y3430100D01*
X3337949Y3425100D01*
X3337949Y3425100D01*
G37*
M02*
