G04 #@! TF.GenerationSoftware,KiCad,Pcbnew,(5.1.0)-1*
G04 #@! TF.CreationDate,2022-03-25T15:28:16-07:00*
G04 #@! TF.ProjectId,BTNPAD_ANALOG_READ,42544e50-4144-45f4-914e-414c4f475f52,rev?*
G04 #@! TF.SameCoordinates,PX8198450PY60b5148*
G04 #@! TF.FileFunction,Soldermask,Top*
G04 #@! TF.FilePolarity,Negative*
%FSLAX45Y45*%
G04 Gerber Fmt 4.5, Leading zero omitted, Abs format (unit mm)*
G04 Created by KiCad (PCBNEW (5.1.0)-1) date 2022-03-25 15:28:16*
%MOMM*%
%LPD*%
G04 APERTURE LIST*
%ADD10C,0.100000*%
G04 APERTURE END LIST*
D10*
G36*
X1557044Y273148D02*
G01*
X1563663Y272496D01*
X1580647Y267344D01*
X1596299Y258978D01*
X1599873Y256045D01*
X1610019Y247719D01*
X1617687Y238375D01*
X1621278Y233999D01*
X1629644Y218347D01*
X1634796Y201363D01*
X1636536Y183700D01*
X1634796Y166037D01*
X1629644Y149053D01*
X1621278Y133401D01*
X1618345Y129827D01*
X1610019Y119681D01*
X1599873Y111355D01*
X1596299Y108422D01*
X1580647Y100056D01*
X1563663Y94904D01*
X1557044Y94252D01*
X1550426Y93600D01*
X1541574Y93600D01*
X1534956Y94252D01*
X1528337Y94904D01*
X1511353Y100056D01*
X1495701Y108422D01*
X1492127Y111355D01*
X1481981Y119681D01*
X1473655Y129827D01*
X1470722Y133401D01*
X1462356Y149053D01*
X1457204Y166037D01*
X1455464Y183700D01*
X1457204Y201363D01*
X1462356Y218347D01*
X1470722Y233999D01*
X1474313Y238375D01*
X1481981Y247719D01*
X1492127Y256045D01*
X1495701Y258978D01*
X1511353Y267344D01*
X1528337Y272496D01*
X1534956Y273148D01*
X1541574Y273800D01*
X1550426Y273800D01*
X1557044Y273148D01*
X1557044Y273148D01*
G37*
G36*
X2144100Y93600D02*
G01*
X1963900Y93600D01*
X1963900Y273800D01*
X2144100Y273800D01*
X2144100Y93600D01*
X2144100Y93600D01*
G37*
G36*
X1811044Y273148D02*
G01*
X1817663Y272496D01*
X1834647Y267344D01*
X1850299Y258978D01*
X1853873Y256045D01*
X1864019Y247719D01*
X1871687Y238375D01*
X1875278Y233999D01*
X1883644Y218347D01*
X1888796Y201363D01*
X1890536Y183700D01*
X1888796Y166037D01*
X1883644Y149053D01*
X1875278Y133401D01*
X1872345Y129827D01*
X1864019Y119681D01*
X1853873Y111355D01*
X1850299Y108422D01*
X1834647Y100056D01*
X1817663Y94904D01*
X1811044Y94252D01*
X1804426Y93600D01*
X1795574Y93600D01*
X1788956Y94252D01*
X1782337Y94904D01*
X1765353Y100056D01*
X1749701Y108422D01*
X1746127Y111355D01*
X1735981Y119681D01*
X1727655Y129827D01*
X1724722Y133401D01*
X1716356Y149053D01*
X1711204Y166037D01*
X1709464Y183700D01*
X1711204Y201363D01*
X1716356Y218347D01*
X1724722Y233999D01*
X1728313Y238375D01*
X1735981Y247719D01*
X1746127Y256045D01*
X1749701Y258978D01*
X1765353Y267344D01*
X1782337Y272496D01*
X1788956Y273148D01*
X1795574Y273800D01*
X1804426Y273800D01*
X1811044Y273148D01*
X1811044Y273148D01*
G37*
G36*
X337949Y425100D02*
G01*
X361625Y415293D01*
X361625Y415293D01*
X382934Y401055D01*
X401055Y382934D01*
X415293Y361625D01*
X425100Y337949D01*
X430100Y312814D01*
X430100Y287186D01*
X425100Y262051D01*
X419163Y247718D01*
X415293Y238374D01*
X401055Y217066D01*
X382934Y198945D01*
X361625Y184707D01*
X361625Y184707D01*
X361625Y184707D01*
X337949Y174900D01*
X312814Y169900D01*
X287186Y169900D01*
X262051Y174900D01*
X238375Y184707D01*
X238375Y184707D01*
X238374Y184707D01*
X217066Y198945D01*
X198945Y217066D01*
X184707Y238374D01*
X180836Y247718D01*
X174900Y262051D01*
X169900Y287186D01*
X169900Y312814D01*
X174900Y337949D01*
X184707Y361625D01*
X198945Y382934D01*
X217066Y401055D01*
X238374Y415293D01*
X238375Y415293D01*
X262051Y425100D01*
X287186Y430100D01*
X312814Y430100D01*
X337949Y425100D01*
X337949Y425100D01*
G37*
G36*
X3337949Y425100D02*
G01*
X3361625Y415293D01*
X3361625Y415293D01*
X3382934Y401055D01*
X3401055Y382934D01*
X3415293Y361625D01*
X3425100Y337949D01*
X3430100Y312814D01*
X3430100Y287186D01*
X3425100Y262051D01*
X3419163Y247718D01*
X3415293Y238374D01*
X3401055Y217066D01*
X3382934Y198945D01*
X3361625Y184707D01*
X3361625Y184707D01*
X3361625Y184707D01*
X3337949Y174900D01*
X3312814Y169900D01*
X3287186Y169900D01*
X3262051Y174900D01*
X3238375Y184707D01*
X3238375Y184707D01*
X3238374Y184707D01*
X3217066Y198945D01*
X3198945Y217066D01*
X3184707Y238374D01*
X3180836Y247718D01*
X3174900Y262051D01*
X3169900Y287186D01*
X3169900Y312814D01*
X3174900Y337949D01*
X3184707Y361625D01*
X3198945Y382934D01*
X3217066Y401055D01*
X3238374Y415293D01*
X3238375Y415293D01*
X3262051Y425100D01*
X3287186Y430100D01*
X3312814Y430100D01*
X3337949Y425100D01*
X3337949Y425100D01*
G37*
G36*
X2270100Y719900D02*
G01*
X2109900Y719900D01*
X2109900Y880100D01*
X2270100Y880100D01*
X2270100Y719900D01*
X2270100Y719900D01*
G37*
G36*
X1490100Y719900D02*
G01*
X1329900Y719900D01*
X1329900Y880100D01*
X1490100Y880100D01*
X1490100Y719900D01*
X1490100Y719900D01*
G37*
G36*
X880100Y1329900D02*
G01*
X719900Y1329900D01*
X719900Y1490100D01*
X880100Y1490100D01*
X880100Y1329900D01*
X880100Y1329900D01*
G37*
G36*
X2880100Y1329900D02*
G01*
X2719900Y1329900D01*
X2719900Y1490100D01*
X2880100Y1490100D01*
X2880100Y1329900D01*
X2880100Y1329900D01*
G37*
G36*
X2270100Y1719900D02*
G01*
X2109900Y1719900D01*
X2109900Y1880100D01*
X2270100Y1880100D01*
X2270100Y1719900D01*
X2270100Y1719900D01*
G37*
G36*
X1490100Y1719900D02*
G01*
X1329900Y1719900D01*
X1329900Y1880100D01*
X1490100Y1880100D01*
X1490100Y1719900D01*
X1490100Y1719900D01*
G37*
G36*
X880100Y2109900D02*
G01*
X719900Y2109900D01*
X719900Y2270100D01*
X880100Y2270100D01*
X880100Y2109900D01*
X880100Y2109900D01*
G37*
G36*
X2880100Y2109900D02*
G01*
X2719900Y2109900D01*
X2719900Y2270100D01*
X2880100Y2270100D01*
X2880100Y2109900D01*
X2880100Y2109900D01*
G37*
G36*
X2270100Y2719900D02*
G01*
X2109900Y2719900D01*
X2109900Y2880100D01*
X2270100Y2880100D01*
X2270100Y2719900D01*
X2270100Y2719900D01*
G37*
G36*
X1490100Y2719900D02*
G01*
X1329900Y2719900D01*
X1329900Y2880100D01*
X1490100Y2880100D01*
X1490100Y2719900D01*
X1490100Y2719900D01*
G37*
G36*
X337949Y3425100D02*
G01*
X361625Y3415293D01*
X361625Y3415293D01*
X382934Y3401055D01*
X401055Y3382934D01*
X415293Y3361625D01*
X425100Y3337949D01*
X430100Y3312814D01*
X430100Y3287186D01*
X425100Y3262051D01*
X415293Y3238375D01*
X415293Y3238374D01*
X401055Y3217066D01*
X382934Y3198945D01*
X361625Y3184707D01*
X361625Y3184707D01*
X361625Y3184707D01*
X337949Y3174900D01*
X312814Y3169900D01*
X287186Y3169900D01*
X262051Y3174900D01*
X238375Y3184707D01*
X238375Y3184707D01*
X238374Y3184707D01*
X217066Y3198945D01*
X198945Y3217066D01*
X184707Y3238374D01*
X184707Y3238375D01*
X174900Y3262051D01*
X169900Y3287186D01*
X169900Y3312814D01*
X174900Y3337949D01*
X184707Y3361625D01*
X198945Y3382934D01*
X217066Y3401055D01*
X238374Y3415293D01*
X238375Y3415293D01*
X262051Y3425100D01*
X287186Y3430100D01*
X312814Y3430100D01*
X337949Y3425100D01*
X337949Y3425100D01*
G37*
G36*
X3337949Y3425100D02*
G01*
X3361625Y3415293D01*
X3361625Y3415293D01*
X3382934Y3401055D01*
X3401055Y3382934D01*
X3415293Y3361625D01*
X3425100Y3337949D01*
X3430100Y3312814D01*
X3430100Y3287186D01*
X3425100Y3262051D01*
X3415293Y3238375D01*
X3415293Y3238374D01*
X3401055Y3217066D01*
X3382934Y3198945D01*
X3361625Y3184707D01*
X3361625Y3184707D01*
X3361625Y3184707D01*
X3337949Y3174900D01*
X3312814Y3169900D01*
X3287186Y3169900D01*
X3262051Y3174900D01*
X3238375Y3184707D01*
X3238375Y3184707D01*
X3238374Y3184707D01*
X3217066Y3198945D01*
X3198945Y3217066D01*
X3184707Y3238374D01*
X3184707Y3238375D01*
X3174900Y3262051D01*
X3169900Y3287186D01*
X3169900Y3312814D01*
X3174900Y3337949D01*
X3184707Y3361625D01*
X3198945Y3382934D01*
X3217066Y3401055D01*
X3238374Y3415293D01*
X3238375Y3415293D01*
X3262051Y3425100D01*
X3287186Y3430100D01*
X3312814Y3430100D01*
X3337949Y3425100D01*
X3337949Y3425100D01*
G37*
M02*
