G04 #@! TF.GenerationSoftware,KiCad,Pcbnew,(5.1.0)-1*
G04 #@! TF.CreationDate,2022-03-25T15:28:16-07:00*
G04 #@! TF.ProjectId,BTNPAD_ANALOG_READ,42544e50-4144-45f4-914e-414c4f475f52,rev?*
G04 #@! TF.SameCoordinates,PX8198450PY60b5148*
G04 #@! TF.FileFunction,Copper,L2,Bot*
G04 #@! TF.FilePolarity,Positive*
%FSLAX45Y45*%
G04 Gerber Fmt 4.5, Leading zero omitted, Abs format (unit mm)*
G04 Created by KiCad (PCBNEW (5.1.0)-1) date 2022-03-25 15:28:16*
%MOMM*%
%LPD*%
G04 APERTURE LIST*
%ADD10C,0.100000*%
%ADD11C,1.150000*%
%ADD12R,1.700000X1.700000*%
%ADD13O,1.700000X1.700000*%
%ADD14C,0.800000*%
%ADD15C,0.500000*%
G04 APERTURE END LIST*
D10*
G36*
X2241651Y1270480D02*
G01*
X2244077Y1270120D01*
X2246457Y1269524D01*
X2248767Y1268697D01*
X2250985Y1267648D01*
X2253089Y1266387D01*
X2255060Y1264925D01*
X2256878Y1263278D01*
X2258525Y1261460D01*
X2259987Y1259489D01*
X2261248Y1257385D01*
X2262297Y1255167D01*
X2263124Y1252857D01*
X2263720Y1250477D01*
X2264080Y1248051D01*
X2264200Y1245600D01*
X2264200Y1180600D01*
X2264080Y1178150D01*
X2263720Y1175723D01*
X2263124Y1173343D01*
X2262297Y1171033D01*
X2261248Y1168815D01*
X2259987Y1166711D01*
X2258525Y1164740D01*
X2256878Y1162922D01*
X2255060Y1161275D01*
X2253089Y1159813D01*
X2250985Y1158552D01*
X2248767Y1157503D01*
X2246457Y1156677D01*
X2244077Y1156080D01*
X2241651Y1155720D01*
X2239200Y1155600D01*
X2149200Y1155600D01*
X2146750Y1155720D01*
X2144323Y1156080D01*
X2141943Y1156677D01*
X2139633Y1157503D01*
X2137415Y1158552D01*
X2135311Y1159813D01*
X2133340Y1161275D01*
X2131522Y1162922D01*
X2129875Y1164740D01*
X2128413Y1166711D01*
X2127152Y1168815D01*
X2126103Y1171033D01*
X2125277Y1173343D01*
X2124680Y1175723D01*
X2124320Y1178150D01*
X2124200Y1180600D01*
X2124200Y1245600D01*
X2124320Y1248051D01*
X2124680Y1250477D01*
X2125277Y1252857D01*
X2126103Y1255167D01*
X2127152Y1257385D01*
X2128413Y1259489D01*
X2129875Y1261460D01*
X2131522Y1263278D01*
X2133340Y1264925D01*
X2135311Y1266387D01*
X2137415Y1267648D01*
X2139633Y1268697D01*
X2141943Y1269524D01*
X2144323Y1270120D01*
X2146750Y1270480D01*
X2149200Y1270600D01*
X2239200Y1270600D01*
X2241651Y1270480D01*
X2241651Y1270480D01*
G37*
D11*
X2194200Y1213100D03*
D10*
G36*
X2241651Y1475480D02*
G01*
X2244077Y1475120D01*
X2246457Y1474523D01*
X2248767Y1473697D01*
X2250985Y1472648D01*
X2253089Y1471387D01*
X2255060Y1469925D01*
X2256878Y1468278D01*
X2258525Y1466460D01*
X2259987Y1464489D01*
X2261248Y1462385D01*
X2262297Y1460167D01*
X2263124Y1457857D01*
X2263720Y1455477D01*
X2264080Y1453050D01*
X2264200Y1450600D01*
X2264200Y1385600D01*
X2264080Y1383150D01*
X2263720Y1380723D01*
X2263124Y1378343D01*
X2262297Y1376033D01*
X2261248Y1373815D01*
X2259987Y1371711D01*
X2258525Y1369740D01*
X2256878Y1367922D01*
X2255060Y1366275D01*
X2253089Y1364813D01*
X2250985Y1363552D01*
X2248767Y1362503D01*
X2246457Y1361677D01*
X2244077Y1361080D01*
X2241651Y1360720D01*
X2239200Y1360600D01*
X2149200Y1360600D01*
X2146750Y1360720D01*
X2144323Y1361080D01*
X2141943Y1361677D01*
X2139633Y1362503D01*
X2137415Y1363552D01*
X2135311Y1364813D01*
X2133340Y1366275D01*
X2131522Y1367922D01*
X2129875Y1369740D01*
X2128413Y1371711D01*
X2127152Y1373815D01*
X2126103Y1376033D01*
X2125277Y1378343D01*
X2124680Y1380723D01*
X2124320Y1383150D01*
X2124200Y1385600D01*
X2124200Y1450600D01*
X2124320Y1453050D01*
X2124680Y1455477D01*
X2125277Y1457857D01*
X2126103Y1460167D01*
X2127152Y1462385D01*
X2128413Y1464489D01*
X2129875Y1466460D01*
X2131522Y1468278D01*
X2133340Y1469925D01*
X2135311Y1471387D01*
X2137415Y1472648D01*
X2139633Y1473697D01*
X2141943Y1474523D01*
X2144323Y1475120D01*
X2146750Y1475480D01*
X2149200Y1475600D01*
X2239200Y1475600D01*
X2241651Y1475480D01*
X2241651Y1475480D01*
G37*
D11*
X2194200Y1418100D03*
D10*
G36*
X2038450Y1475480D02*
G01*
X2040877Y1475120D01*
X2043257Y1474523D01*
X2045567Y1473697D01*
X2047785Y1472648D01*
X2049889Y1471387D01*
X2051860Y1469925D01*
X2053678Y1468278D01*
X2055325Y1466460D01*
X2056787Y1464489D01*
X2058048Y1462385D01*
X2059097Y1460167D01*
X2059923Y1457857D01*
X2060520Y1455477D01*
X2060880Y1453050D01*
X2061000Y1450600D01*
X2061000Y1385600D01*
X2060880Y1383150D01*
X2060520Y1380723D01*
X2059923Y1378343D01*
X2059097Y1376033D01*
X2058048Y1373815D01*
X2056787Y1371711D01*
X2055325Y1369740D01*
X2053678Y1367922D01*
X2051860Y1366275D01*
X2049889Y1364813D01*
X2047785Y1363552D01*
X2045567Y1362503D01*
X2043257Y1361677D01*
X2040877Y1361080D01*
X2038450Y1360720D01*
X2036000Y1360600D01*
X1946000Y1360600D01*
X1943549Y1360720D01*
X1941123Y1361080D01*
X1938743Y1361677D01*
X1936433Y1362503D01*
X1934215Y1363552D01*
X1932111Y1364813D01*
X1930140Y1366275D01*
X1928322Y1367922D01*
X1926675Y1369740D01*
X1925213Y1371711D01*
X1923952Y1373815D01*
X1922903Y1376033D01*
X1922076Y1378343D01*
X1921480Y1380723D01*
X1921120Y1383150D01*
X1921000Y1385600D01*
X1921000Y1450600D01*
X1921120Y1453050D01*
X1921480Y1455477D01*
X1922076Y1457857D01*
X1922903Y1460167D01*
X1923952Y1462385D01*
X1925213Y1464489D01*
X1926675Y1466460D01*
X1928322Y1468278D01*
X1930140Y1469925D01*
X1932111Y1471387D01*
X1934215Y1472648D01*
X1936433Y1473697D01*
X1938743Y1474523D01*
X1941123Y1475120D01*
X1943549Y1475480D01*
X1946000Y1475600D01*
X2036000Y1475600D01*
X2038450Y1475480D01*
X2038450Y1475480D01*
G37*
D11*
X1991000Y1418100D03*
D10*
G36*
X2038450Y1270480D02*
G01*
X2040877Y1270120D01*
X2043257Y1269524D01*
X2045567Y1268697D01*
X2047785Y1267648D01*
X2049889Y1266387D01*
X2051860Y1264925D01*
X2053678Y1263278D01*
X2055325Y1261460D01*
X2056787Y1259489D01*
X2058048Y1257385D01*
X2059097Y1255167D01*
X2059923Y1252857D01*
X2060520Y1250477D01*
X2060880Y1248051D01*
X2061000Y1245600D01*
X2061000Y1180600D01*
X2060880Y1178150D01*
X2060520Y1175723D01*
X2059923Y1173343D01*
X2059097Y1171033D01*
X2058048Y1168815D01*
X2056787Y1166711D01*
X2055325Y1164740D01*
X2053678Y1162922D01*
X2051860Y1161275D01*
X2049889Y1159813D01*
X2047785Y1158552D01*
X2045567Y1157503D01*
X2043257Y1156677D01*
X2040877Y1156080D01*
X2038450Y1155720D01*
X2036000Y1155600D01*
X1946000Y1155600D01*
X1943549Y1155720D01*
X1941123Y1156080D01*
X1938743Y1156677D01*
X1936433Y1157503D01*
X1934215Y1158552D01*
X1932111Y1159813D01*
X1930140Y1161275D01*
X1928322Y1162922D01*
X1926675Y1164740D01*
X1925213Y1166711D01*
X1923952Y1168815D01*
X1922903Y1171033D01*
X1922076Y1173343D01*
X1921480Y1175723D01*
X1921120Y1178150D01*
X1921000Y1180600D01*
X1921000Y1245600D01*
X1921120Y1248051D01*
X1921480Y1250477D01*
X1922076Y1252857D01*
X1922903Y1255167D01*
X1923952Y1257385D01*
X1925213Y1259489D01*
X1926675Y1261460D01*
X1928322Y1263278D01*
X1930140Y1264925D01*
X1932111Y1266387D01*
X1934215Y1267648D01*
X1936433Y1268697D01*
X1938743Y1269524D01*
X1941123Y1270120D01*
X1943549Y1270480D01*
X1946000Y1270600D01*
X2036000Y1270600D01*
X2038450Y1270480D01*
X2038450Y1270480D01*
G37*
D11*
X1991000Y1213100D03*
D10*
G36*
X1835250Y1475480D02*
G01*
X1837677Y1475120D01*
X1840057Y1474523D01*
X1842367Y1473697D01*
X1844585Y1472648D01*
X1846689Y1471387D01*
X1848660Y1469925D01*
X1850478Y1468278D01*
X1852125Y1466460D01*
X1853587Y1464489D01*
X1854848Y1462385D01*
X1855897Y1460167D01*
X1856723Y1457857D01*
X1857320Y1455477D01*
X1857680Y1453050D01*
X1857800Y1450600D01*
X1857800Y1385600D01*
X1857680Y1383150D01*
X1857320Y1380723D01*
X1856723Y1378343D01*
X1855897Y1376033D01*
X1854848Y1373815D01*
X1853587Y1371711D01*
X1852125Y1369740D01*
X1850478Y1367922D01*
X1848660Y1366275D01*
X1846689Y1364813D01*
X1844585Y1363552D01*
X1842367Y1362503D01*
X1840057Y1361677D01*
X1837677Y1361080D01*
X1835250Y1360720D01*
X1832800Y1360600D01*
X1742800Y1360600D01*
X1740349Y1360720D01*
X1737923Y1361080D01*
X1735543Y1361677D01*
X1733233Y1362503D01*
X1731015Y1363552D01*
X1728911Y1364813D01*
X1726940Y1366275D01*
X1725122Y1367922D01*
X1723475Y1369740D01*
X1722013Y1371711D01*
X1720752Y1373815D01*
X1719703Y1376033D01*
X1718876Y1378343D01*
X1718280Y1380723D01*
X1717920Y1383150D01*
X1717800Y1385600D01*
X1717800Y1450600D01*
X1717920Y1453050D01*
X1718280Y1455477D01*
X1718876Y1457857D01*
X1719703Y1460167D01*
X1720752Y1462385D01*
X1722013Y1464489D01*
X1723475Y1466460D01*
X1725122Y1468278D01*
X1726940Y1469925D01*
X1728911Y1471387D01*
X1731015Y1472648D01*
X1733233Y1473697D01*
X1735543Y1474523D01*
X1737923Y1475120D01*
X1740349Y1475480D01*
X1742800Y1475600D01*
X1832800Y1475600D01*
X1835250Y1475480D01*
X1835250Y1475480D01*
G37*
D11*
X1787800Y1418100D03*
D10*
G36*
X1835250Y1270480D02*
G01*
X1837677Y1270120D01*
X1840057Y1269524D01*
X1842367Y1268697D01*
X1844585Y1267648D01*
X1846689Y1266387D01*
X1848660Y1264925D01*
X1850478Y1263278D01*
X1852125Y1261460D01*
X1853587Y1259489D01*
X1854848Y1257385D01*
X1855897Y1255167D01*
X1856723Y1252857D01*
X1857320Y1250477D01*
X1857680Y1248051D01*
X1857800Y1245600D01*
X1857800Y1180600D01*
X1857680Y1178150D01*
X1857320Y1175723D01*
X1856723Y1173343D01*
X1855897Y1171033D01*
X1854848Y1168815D01*
X1853587Y1166711D01*
X1852125Y1164740D01*
X1850478Y1162922D01*
X1848660Y1161275D01*
X1846689Y1159813D01*
X1844585Y1158552D01*
X1842367Y1157503D01*
X1840057Y1156677D01*
X1837677Y1156080D01*
X1835250Y1155720D01*
X1832800Y1155600D01*
X1742800Y1155600D01*
X1740349Y1155720D01*
X1737923Y1156080D01*
X1735543Y1156677D01*
X1733233Y1157503D01*
X1731015Y1158552D01*
X1728911Y1159813D01*
X1726940Y1161275D01*
X1725122Y1162922D01*
X1723475Y1164740D01*
X1722013Y1166711D01*
X1720752Y1168815D01*
X1719703Y1171033D01*
X1718876Y1173343D01*
X1718280Y1175723D01*
X1717920Y1178150D01*
X1717800Y1180600D01*
X1717800Y1245600D01*
X1717920Y1248051D01*
X1718280Y1250477D01*
X1718876Y1252857D01*
X1719703Y1255167D01*
X1720752Y1257385D01*
X1722013Y1259489D01*
X1723475Y1261460D01*
X1725122Y1263278D01*
X1726940Y1264925D01*
X1728911Y1266387D01*
X1731015Y1267648D01*
X1733233Y1268697D01*
X1735543Y1269524D01*
X1737923Y1270120D01*
X1740349Y1270480D01*
X1742800Y1270600D01*
X1832800Y1270600D01*
X1835250Y1270480D01*
X1835250Y1270480D01*
G37*
D11*
X1787800Y1213100D03*
D10*
G36*
X1632050Y1475480D02*
G01*
X1634477Y1475120D01*
X1636857Y1474523D01*
X1639167Y1473697D01*
X1641385Y1472648D01*
X1643489Y1471387D01*
X1645460Y1469925D01*
X1647278Y1468278D01*
X1648925Y1466460D01*
X1650387Y1464489D01*
X1651648Y1462385D01*
X1652697Y1460167D01*
X1653523Y1457857D01*
X1654120Y1455477D01*
X1654480Y1453050D01*
X1654600Y1450600D01*
X1654600Y1385600D01*
X1654480Y1383150D01*
X1654120Y1380723D01*
X1653523Y1378343D01*
X1652697Y1376033D01*
X1651648Y1373815D01*
X1650387Y1371711D01*
X1648925Y1369740D01*
X1647278Y1367922D01*
X1645460Y1366275D01*
X1643489Y1364813D01*
X1641385Y1363552D01*
X1639167Y1362503D01*
X1636857Y1361677D01*
X1634477Y1361080D01*
X1632050Y1360720D01*
X1629600Y1360600D01*
X1539600Y1360600D01*
X1537149Y1360720D01*
X1534723Y1361080D01*
X1532343Y1361677D01*
X1530033Y1362503D01*
X1527815Y1363552D01*
X1525711Y1364813D01*
X1523740Y1366275D01*
X1521922Y1367922D01*
X1520275Y1369740D01*
X1518813Y1371711D01*
X1517552Y1373815D01*
X1516503Y1376033D01*
X1515676Y1378343D01*
X1515080Y1380723D01*
X1514720Y1383150D01*
X1514600Y1385600D01*
X1514600Y1450600D01*
X1514720Y1453050D01*
X1515080Y1455477D01*
X1515676Y1457857D01*
X1516503Y1460167D01*
X1517552Y1462385D01*
X1518813Y1464489D01*
X1520275Y1466460D01*
X1521922Y1468278D01*
X1523740Y1469925D01*
X1525711Y1471387D01*
X1527815Y1472648D01*
X1530033Y1473697D01*
X1532343Y1474523D01*
X1534723Y1475120D01*
X1537149Y1475480D01*
X1539600Y1475600D01*
X1629600Y1475600D01*
X1632050Y1475480D01*
X1632050Y1475480D01*
G37*
D11*
X1584600Y1418100D03*
D10*
G36*
X1632050Y1270480D02*
G01*
X1634477Y1270120D01*
X1636857Y1269524D01*
X1639167Y1268697D01*
X1641385Y1267648D01*
X1643489Y1266387D01*
X1645460Y1264925D01*
X1647278Y1263278D01*
X1648925Y1261460D01*
X1650387Y1259489D01*
X1651648Y1257385D01*
X1652697Y1255167D01*
X1653523Y1252857D01*
X1654120Y1250477D01*
X1654480Y1248051D01*
X1654600Y1245600D01*
X1654600Y1180600D01*
X1654480Y1178150D01*
X1654120Y1175723D01*
X1653523Y1173343D01*
X1652697Y1171033D01*
X1651648Y1168815D01*
X1650387Y1166711D01*
X1648925Y1164740D01*
X1647278Y1162922D01*
X1645460Y1161275D01*
X1643489Y1159813D01*
X1641385Y1158552D01*
X1639167Y1157503D01*
X1636857Y1156677D01*
X1634477Y1156080D01*
X1632050Y1155720D01*
X1629600Y1155600D01*
X1539600Y1155600D01*
X1537149Y1155720D01*
X1534723Y1156080D01*
X1532343Y1156677D01*
X1530033Y1157503D01*
X1527815Y1158552D01*
X1525711Y1159813D01*
X1523740Y1161275D01*
X1521922Y1162922D01*
X1520275Y1164740D01*
X1518813Y1166711D01*
X1517552Y1168815D01*
X1516503Y1171033D01*
X1515676Y1173343D01*
X1515080Y1175723D01*
X1514720Y1178150D01*
X1514600Y1180600D01*
X1514600Y1245600D01*
X1514720Y1248051D01*
X1515080Y1250477D01*
X1515676Y1252857D01*
X1516503Y1255167D01*
X1517552Y1257385D01*
X1518813Y1259489D01*
X1520275Y1261460D01*
X1521922Y1263278D01*
X1523740Y1264925D01*
X1525711Y1266387D01*
X1527815Y1267648D01*
X1530033Y1268697D01*
X1532343Y1269524D01*
X1534723Y1270120D01*
X1537149Y1270480D01*
X1539600Y1270600D01*
X1629600Y1270600D01*
X1632050Y1270480D01*
X1632050Y1270480D01*
G37*
D11*
X1584600Y1213100D03*
D10*
G36*
X1428850Y1475480D02*
G01*
X1431277Y1475120D01*
X1433657Y1474523D01*
X1435967Y1473697D01*
X1438185Y1472648D01*
X1440289Y1471387D01*
X1442260Y1469925D01*
X1444078Y1468278D01*
X1445725Y1466460D01*
X1447187Y1464489D01*
X1448448Y1462385D01*
X1449497Y1460167D01*
X1450323Y1457857D01*
X1450920Y1455477D01*
X1451280Y1453050D01*
X1451400Y1450600D01*
X1451400Y1385600D01*
X1451280Y1383150D01*
X1450920Y1380723D01*
X1450323Y1378343D01*
X1449497Y1376033D01*
X1448448Y1373815D01*
X1447187Y1371711D01*
X1445725Y1369740D01*
X1444078Y1367922D01*
X1442260Y1366275D01*
X1440289Y1364813D01*
X1438185Y1363552D01*
X1435967Y1362503D01*
X1433657Y1361677D01*
X1431277Y1361080D01*
X1428850Y1360720D01*
X1426400Y1360600D01*
X1336400Y1360600D01*
X1333950Y1360720D01*
X1331523Y1361080D01*
X1329143Y1361677D01*
X1326833Y1362503D01*
X1324615Y1363552D01*
X1322511Y1364813D01*
X1320540Y1366275D01*
X1318722Y1367922D01*
X1317075Y1369740D01*
X1315613Y1371711D01*
X1314352Y1373815D01*
X1313303Y1376033D01*
X1312477Y1378343D01*
X1311880Y1380723D01*
X1311520Y1383150D01*
X1311400Y1385600D01*
X1311400Y1450600D01*
X1311520Y1453050D01*
X1311880Y1455477D01*
X1312477Y1457857D01*
X1313303Y1460167D01*
X1314352Y1462385D01*
X1315613Y1464489D01*
X1317075Y1466460D01*
X1318722Y1468278D01*
X1320540Y1469925D01*
X1322511Y1471387D01*
X1324615Y1472648D01*
X1326833Y1473697D01*
X1329143Y1474523D01*
X1331523Y1475120D01*
X1333950Y1475480D01*
X1336400Y1475600D01*
X1426400Y1475600D01*
X1428850Y1475480D01*
X1428850Y1475480D01*
G37*
D11*
X1381400Y1418100D03*
D10*
G36*
X1428850Y1270480D02*
G01*
X1431277Y1270120D01*
X1433657Y1269524D01*
X1435967Y1268697D01*
X1438185Y1267648D01*
X1440289Y1266387D01*
X1442260Y1264925D01*
X1444078Y1263278D01*
X1445725Y1261460D01*
X1447187Y1259489D01*
X1448448Y1257385D01*
X1449497Y1255167D01*
X1450323Y1252857D01*
X1450920Y1250477D01*
X1451280Y1248051D01*
X1451400Y1245600D01*
X1451400Y1180600D01*
X1451280Y1178150D01*
X1450920Y1175723D01*
X1450323Y1173343D01*
X1449497Y1171033D01*
X1448448Y1168815D01*
X1447187Y1166711D01*
X1445725Y1164740D01*
X1444078Y1162922D01*
X1442260Y1161275D01*
X1440289Y1159813D01*
X1438185Y1158552D01*
X1435967Y1157503D01*
X1433657Y1156677D01*
X1431277Y1156080D01*
X1428850Y1155720D01*
X1426400Y1155600D01*
X1336400Y1155600D01*
X1333950Y1155720D01*
X1331523Y1156080D01*
X1329143Y1156677D01*
X1326833Y1157503D01*
X1324615Y1158552D01*
X1322511Y1159813D01*
X1320540Y1161275D01*
X1318722Y1162922D01*
X1317075Y1164740D01*
X1315613Y1166711D01*
X1314352Y1168815D01*
X1313303Y1171033D01*
X1312477Y1173343D01*
X1311880Y1175723D01*
X1311520Y1178150D01*
X1311400Y1180600D01*
X1311400Y1245600D01*
X1311520Y1248051D01*
X1311880Y1250477D01*
X1312477Y1252857D01*
X1313303Y1255167D01*
X1314352Y1257385D01*
X1315613Y1259489D01*
X1317075Y1261460D01*
X1318722Y1263278D01*
X1320540Y1264925D01*
X1322511Y1266387D01*
X1324615Y1267648D01*
X1326833Y1268697D01*
X1329143Y1269524D01*
X1331523Y1270120D01*
X1333950Y1270480D01*
X1336400Y1270600D01*
X1426400Y1270600D01*
X1428850Y1270480D01*
X1428850Y1270480D01*
G37*
D11*
X1381400Y1213100D03*
D12*
X2054000Y183700D03*
D13*
X1800000Y183700D03*
X1546000Y183700D03*
D14*
X2504400Y1418100D03*
X1991000Y1083220D03*
X1787800Y1539700D03*
X1197700Y1213100D03*
X1911000Y1800000D03*
D15*
X1991000Y1418100D02*
X2504400Y1418100D01*
X1800000Y183700D02*
X1800000Y332700D01*
X1800000Y332700D02*
X2194200Y726900D01*
X2194200Y726900D02*
X2194200Y1213100D01*
X1991000Y1213100D02*
X1787800Y1213100D01*
X1991000Y1213100D02*
X1991000Y1083220D01*
X1787800Y1418100D02*
X1584600Y1418100D01*
X1787800Y1418100D02*
X1787800Y1539700D01*
X1584600Y1213100D02*
X1197700Y1213100D01*
X1381400Y1418100D02*
X1381400Y1692100D01*
X1489300Y1800000D02*
X1911000Y1800000D01*
X1381400Y1692100D02*
X1489300Y1800000D01*
M02*
