G04 #@! TF.GenerationSoftware,KiCad,Pcbnew,(5.1.0)-1*
G04 #@! TF.CreationDate,2022-03-25T15:28:16-07:00*
G04 #@! TF.ProjectId,BTNPAD_ANALOG_READ,42544e50-4144-45f4-914e-414c4f475f52,rev?*
G04 #@! TF.SameCoordinates,PX8198450PY60b5148*
G04 #@! TF.FileFunction,Legend,Top*
G04 #@! TF.FilePolarity,Positive*
%FSLAX45Y45*%
G04 Gerber Fmt 4.5, Leading zero omitted, Abs format (unit mm)*
G04 Created by KiCad (PCBNEW (5.1.0)-1) date 2022-03-25 15:28:16*
%MOMM*%
%LPD*%
G04 APERTURE LIST*
%ADD10C,0.200000*%
%ADD11C,0.120000*%
%ADD12R,1.602000X1.602000*%
%ADD13C,2.602000*%
%ADD14R,1.802000X1.802000*%
%ADD15O,1.802000X1.802000*%
G04 APERTURE END LIST*
D10*
X3053080Y1707700D02*
X3053080Y1880420D01*
X3053080Y1880420D02*
X3139440Y1794060D01*
X3139440Y1794060D02*
X3053080Y1707700D01*
X533400Y1890580D02*
X533400Y1717860D01*
X533400Y1717860D02*
X447040Y1804220D01*
X447040Y1804220D02*
X533400Y1890580D01*
X1711960Y539300D02*
X1884680Y539300D01*
X1884680Y539300D02*
X1798320Y452940D01*
X1798320Y452940D02*
X1711960Y539300D01*
X1884680Y3058980D02*
X1711960Y3058980D01*
X1798320Y3145340D02*
X1884680Y3058980D01*
X1711960Y3058980D02*
X1798320Y3145340D01*
D11*
X2985000Y2106000D02*
X2985000Y1494000D01*
X2985000Y1494000D02*
X2615000Y1494000D01*
X2615000Y1494000D02*
X2615000Y2106000D01*
X2615000Y2106000D02*
X2985000Y2106000D01*
X1494000Y2985000D02*
X2106000Y2985000D01*
X2106000Y2985000D02*
X2106000Y2615000D01*
X2106000Y2615000D02*
X1494000Y2615000D01*
X1494000Y2615000D02*
X1494000Y2985000D01*
X1494000Y615000D02*
X1494000Y985000D01*
X2106000Y615000D02*
X1494000Y615000D01*
X2106000Y985000D02*
X2106000Y615000D01*
X1494000Y985000D02*
X2106000Y985000D01*
X985000Y2106000D02*
X985000Y1494000D01*
X985000Y1494000D02*
X615000Y1494000D01*
X615000Y1494000D02*
X615000Y2106000D01*
X615000Y2106000D02*
X985000Y2106000D01*
X1494000Y1615000D02*
X1494000Y1985000D01*
X2106000Y1615000D02*
X1494000Y1615000D01*
X2106000Y1985000D02*
X2106000Y1615000D01*
X1494000Y1985000D02*
X2106000Y1985000D01*
%LPC*%
D12*
X2800000Y2190000D03*
X2800000Y1410000D03*
X1410000Y2800000D03*
X2190000Y2800000D03*
X2190000Y800000D03*
X1410000Y800000D03*
X800000Y2190000D03*
X800000Y1410000D03*
X2190000Y1800000D03*
X1410000Y1800000D03*
D13*
X3300000Y300000D03*
X300000Y3300000D03*
X300000Y300000D03*
X3300000Y3300000D03*
D14*
X2054000Y183700D03*
D15*
X1800000Y183700D03*
X1546000Y183700D03*
M02*
