G04 #@! TF.GenerationSoftware,KiCad,Pcbnew,(5.1.0)-1*
G04 #@! TF.CreationDate,2022-02-25T22:57:01-08:00*
G04 #@! TF.ProjectId,BTNPAD_TYPE_B,42544e50-4144-45f5-9459-50455f422e6b,rev?*
G04 #@! TF.SameCoordinates,PX7541940PY6316b30*
G04 #@! TF.FileFunction,Copper,L2,Bot*
G04 #@! TF.FilePolarity,Positive*
%FSLAX45Y45*%
G04 Gerber Fmt 4.5, Leading zero omitted, Abs format (unit mm)*
G04 Created by KiCad (PCBNEW (5.1.0)-1) date 2022-02-25 22:57:01*
%MOMM*%
%LPD*%
G04 APERTURE LIST*
%ADD10C,0.150000*%
%ADD11R,1.700000X1.700000*%
%ADD12O,1.700000X1.700000*%
%ADD13C,0.800000*%
%ADD14C,0.500000*%
G04 APERTURE END LIST*
D10*
X7367187Y130663D02*
X7352901Y125901D01*
X7348139Y121139D01*
X7343377Y111615D01*
X7343377Y97330D01*
X7348139Y87806D01*
X7352901Y83044D01*
X7362425Y78282D01*
X7400520Y78282D01*
X7400520Y178282D01*
X7367187Y178282D01*
X7357663Y173520D01*
X7352901Y168758D01*
X7348139Y159234D01*
X7348139Y149711D01*
X7352901Y140187D01*
X7357663Y135425D01*
X7367187Y130663D01*
X7400520Y130663D01*
X7314806Y178282D02*
X7257663Y178282D01*
X7286234Y78282D02*
X7286234Y178282D01*
X7224329Y78282D02*
X7224329Y178282D01*
X7167187Y78282D01*
X7167187Y178282D01*
X7043377Y78282D02*
X7043377Y178282D01*
X7005282Y178282D01*
X6995758Y173520D01*
X6990996Y168758D01*
X6986234Y159234D01*
X6986234Y144949D01*
X6990996Y135425D01*
X6995758Y130663D01*
X7005282Y125901D01*
X7043377Y125901D01*
X6948139Y106853D02*
X6900520Y106853D01*
X6957663Y78282D02*
X6924329Y178282D01*
X6890996Y78282D01*
X6857663Y78282D02*
X6857663Y178282D01*
X6833853Y178282D01*
X6819568Y173520D01*
X6810044Y163996D01*
X6805282Y154472D01*
X6800520Y135425D01*
X6800520Y121139D01*
X6805282Y102091D01*
X6810044Y92568D01*
X6819568Y83044D01*
X6833853Y78282D01*
X6857663Y78282D01*
X6695758Y178282D02*
X6638615Y178282D01*
X6667187Y78282D02*
X6667187Y178282D01*
X6586234Y125901D02*
X6586234Y78282D01*
X6619568Y178282D02*
X6586234Y125901D01*
X6552901Y178282D01*
X6519568Y78282D02*
X6519568Y178282D01*
X6481472Y178282D01*
X6471948Y173520D01*
X6467187Y168758D01*
X6462425Y159234D01*
X6462425Y144949D01*
X6467187Y135425D01*
X6471948Y130663D01*
X6481472Y125901D01*
X6519568Y125901D01*
X6419568Y130663D02*
X6386234Y130663D01*
X6371948Y78282D02*
X6419568Y78282D01*
X6419568Y178282D01*
X6371948Y178282D01*
X6219568Y130663D02*
X6205282Y125901D01*
X6200520Y121139D01*
X6195758Y111615D01*
X6195758Y97330D01*
X6200520Y87806D01*
X6205282Y83044D01*
X6214806Y78282D01*
X6252901Y78282D01*
X6252901Y178282D01*
X6219568Y178282D01*
X6210044Y173520D01*
X6205282Y168758D01*
X6200520Y159234D01*
X6200520Y149711D01*
X6205282Y140187D01*
X6210044Y135425D01*
X6219568Y130663D01*
X6252901Y130663D01*
D11*
X5637200Y1309700D03*
D12*
X5891200Y1309700D03*
X6145200Y1309700D03*
X6399200Y1309700D03*
X6653200Y1309700D03*
X6907200Y1309700D03*
X7161200Y1309700D03*
D13*
X1156640Y351000D03*
X7054520Y351000D03*
X835300Y351000D03*
X2635300Y351000D03*
X4435300Y351000D03*
X6235300Y351000D03*
X3973500Y1063320D03*
X3973500Y771950D03*
X1400300Y560200D03*
X3200300Y560200D03*
X5000300Y560200D03*
X6800300Y560200D03*
D14*
X7054520Y692480D02*
X6907200Y839800D01*
X7054520Y351000D02*
X7054520Y692480D01*
X6907200Y839800D02*
X6907200Y1309700D01*
X835300Y351000D02*
X7054520Y351000D01*
X3973500Y1063320D02*
X3973500Y771950D01*
X2170300Y560200D02*
X1400300Y560200D01*
X5891200Y839800D02*
X5815000Y763600D01*
X4240200Y763600D02*
X4143680Y667080D01*
X4143680Y667080D02*
X2277180Y667080D01*
X5891200Y1309700D02*
X5891200Y839800D01*
X5815000Y763600D02*
X4240200Y763600D01*
X2277180Y667080D02*
X2170300Y560200D01*
X4291000Y662000D02*
X4189200Y560200D01*
X6069000Y662000D02*
X4291000Y662000D01*
X4189200Y560200D02*
X3200300Y560200D01*
X6145200Y738200D02*
X6069000Y662000D01*
X6145200Y738200D02*
X6145200Y1309700D01*
X6399200Y636600D02*
X6399200Y1309700D01*
X6322800Y560200D02*
X6399200Y636600D01*
X5000300Y560200D02*
X6322800Y560200D01*
X6653200Y839800D02*
X6800300Y692700D01*
X6800300Y692700D02*
X6800300Y560200D01*
X6653200Y839800D02*
X6653200Y1309700D01*
M02*
